<svg xmlns="http://www.w3.org/2000/svg" width="876" height="332" viewBox="0 0 876 332"><path d="M317 321.4c-3-2.6-3-2.7-3-12.3 0-11 1.2-13.6 7-14.6 4.4-.8 8.4 2 9.4 6.7 1.6 8 1.6 9.7 0 15-2.3 8.3-7.4 10.2-13.4 5.2m8.3-3.8c2.1-4.5 2-11.6-.1-16.7-2.4-5.4-5.3-5.1-6.6.6-.8 4-.3 16.6.8 18.5 1.4 2.1 4.3.9 6-2.4m127.6 1V315l-5.2-.3c-7.4-.5-7.5-2.7-.6-12.1 6.7-9.1 8-10.7 9-10.7.5 0 .8 4 .8 8.7 0 8.2.2 8.9 2.3 9.8 1.2.5 2.2 1.6 2.2 2.5q-.2 1.4-2.2 1.8c-1.9.3-2.3 1-2.3 3.7s-.4 3.5-2 3.5-2-.7-2-3.5m0-13.8v-5.2l-3 4.7a41 41 0 0 0-3 5.2c0 .3 1.4.5 3 .5 3 0 3-.1 3-5.2m144.3 16.5q-2.1-.6-2.3-1.9 0-1.3-1.5-1.4c-1.4 0-2-2.5-1.5-6 .1-.9 1-2.3 2.1-3.3 1.5-1.4 1.7-2.3 1-3.7a8 8 0 0 0-2-2.5c-1.7-1-1.3-7.5.4-7.5q1.4-.2 1.5-1.5c0-3 9.4-3.1 11.3-.2.4.6.7 3.3.7 6 0 3.5-.3 4.7-1.5 4.7-2 0-1.9.4 1 3.6 3.8 4 3.4 8.5-.9 11.8-3.4 2.6-4 2.7-8.3 1.9m6.6-6.2c.3-2.2-3.2-7.1-5-7.1-1.5 0-2.2 7-.8 8.5 1.9 2.3 5.4 1.4 5.8-1.4m-.9-15.1c1-2-.4-6-2.1-6-2.2 0-3.9 1.5-3.9 3.4 0 4.3 4.1 6.1 6 2.6m-282.3-13.4a610 610 0 0 1-.7-35.5c-.2-29-.5-34.1-1.7-34.6-2.6-1-223.7.6-235.3 1.6H70.2c-10.5-.1-11.3-.3-11.3-2 0-1.9.9-2 10.3-2.3l10.2-.3-.3-43.8c-.2-24 0-43.7.5-43.7 3.3 0 3.5 1.6 3.4 23.6 0 12 .2 31.4.5 43l.7 21 14.8.3c8.1 0 15.9-.1 17.3-.5l2.5-.6v-17c.2-9.5.5-17.6.8-18 1.6-2.6 2.3 3.2 2.3 18.4 0 9.2.4 16.8.8 16.9l12.2.3q21.9.5 20.1-1.8c-.5-.7-1-15.1-1-33.6-.1-26.6.1-32.9 1.3-34.5s1.5 1.2 2.1 23.5c.4 14 .6 30 .4 35.7-.3 8.4-.1 10.2 1.1 10.5h20.4l18.8-.4-.3-15.6c-.2-15.8.5-21.9 2.2-19.1.5.8 1 9 1 18.1V213h18.4c11.7 0 18.6-.4 19-1s.8-16.8.9-36c0-22.6.5-35 1.1-35s1.1 11.4 1.3 31.7c.1 17.6.6 32.7 1.2 33.8s1 2.9 1.3 4c.3 1.9 1 2 14.8 2 8 0 15.2-.4 16.2-.8 1.5-.6 1.7-2.4 1.8-16 0-14.6 1-21.2 2.3-17.7.3.8.7 8.7.9 17.5l.2 16 16 .2c12 .3 16 0 16.7-1 .4-.7.7-16.9.6-36 0-19 .2-35 .6-35.4q.7-.5 1.9.5c1 1 1.3 10 1.5 35.5.2 18.8.5 34.7.7 35.3.4 1 28.4.8 29.5-.3.3-.3.5-7.3.6-15.7 0-9 .4-15.9 1-17 2.2-3.6 2.7.5 2.5 17l-.2 16.3 6.3.3h17l10.8-.4v-43.5c0-34.3.3-43.4 1.3-43 1.6.4 2.5 18 2.6 51.4 0 14.4.5 24.4 1.1 24.8 1 .5 1.5-1.2 2.2-6 .2-1.1 1.8-2.7 3.6-3.5 3.2-1.5 7-7.6 8.2-13q.5-2.2 1.8-2.8c1.7-.6 1.6 3-.2 5.3-.8 1.1-1.5 3-1.5 4.3s-.8 2.5-1.7 2.9c-1.3.4-1.5 1.5-1 5.3.6 4 .3 5-1.5 6.6-1.1 1-2.7 3.1-3.5 4.6S395 207 394 207c-1.5 0-3 1.8-3 3.6 0 .2 9.5.3 21.1.1l21.2-.2-.1-14.5c-.2-15 .3-20 1.7-20 2 0 2.7 6.3 2.3 17.5-.3 7.3 0 13 .6 14.7l1 2.8H470l1-2.7c.6-1.6.9-15.2.7-35.9-.1-18.3 0-33.6.5-34a1 1 0 0 1 1.5 0c.4.4 1 16.8 1.2 36.4l.5 35.7 18.3.2 18.3.2 1-2.5c.5-1.4 1-8.7 1-16.3 0-10 .3-14.3 1.3-15.6 1.3-1.7 1.4-1.7 2 1 .4 1.5.7 9.2.6 17-.2 7.8 0 14.7.4 15.2 1 1.6 30.2 1 32.1-.7 1.3-1 1.5-6 1.5-35.6 0-30.1.2-34.3 1.5-33.8S555 145 555 174c0 27.3.3 34 1.4 35.2 1 1 5 1.4 17.3 1.3 8.7 0 16.4-.4 17-.8s1.3-6.6 1.6-15.4c.3-8.2.9-15.6 1.3-16.6 1.7-4.4 2.4-.6 2.4 13 0 16.5.5 19.7 2.8 18.8.8-.3 2.1 0 2.9.6q1.3 1.3 3.7.1c1.3-.6 2.9-.7 3.5-.3s3.2.4 5.5 0 7.8-.9 12.4-.9h8.2v-34.8c0-19.7.5-35.4 1-36.2q1-2 1.4 0c.3.8.7 16.7 1 35.2s.8 34.2 1.1 34.8c.7 1.1 38.5 1.3 40 .2.6-.4 1-7.3 1-16.9 0-14.9.5-18.7 2.2-17 .3.3.5 7 .4 15s.3 15.6.9 17l1 2.7h14.3c7.8 0 15.3-.3 16.5-.7l2.4-.6-.2-42.6c-.2-37.5 0-42.7 1.3-43s1.6 3.4 2.2 27c.4 15 .6 34.4.4 43-.4 15-.3 15.8 1.6 16.3 2.8.7 26.5.7 29.3 0 2.2-.7 2.2-.9 2.2-17.5 0-9.5.4-17 1-17.4 2-1.3 2.8 3.6 3 18 0 8.9.5 15.3 1 16 1.5 1.4 30 .7 31.9-.8 1-1 1.3-7.3 1-34.2-.3-31 0-36.3 2.1-35 .5.3 1 15.9 1 34.7 0 19.3.5 34.6 1 35.1 1 1 26 1 29.8 0 2.2-.5 2.2-1 2.4-13.2v-15a18 18 0 0 1 .3-5c1.5-5.7 2.8 1.4 3.3 16.9l.5 15.7 5.1.6c2.8.4 7.4.7 10.3.7 6.3 0 9.5 2.5 4.2 3.4-1.9.3-36 .8-75.9 1-131.8 1.1-174.4 1.6-174.9 2.1-.2.3-.5 16.4-.5 35.7 0 32.5-.2 35.3-1.8 35.3-1.5 0-1.7-3-2-35.5l-.3-35.5-17.2-.3-17.1-.3-.1 16.3c0 8.9-.4 16.5-.8 17-2 2-2.7-1.4-2.3-11.7.3-6 .3-13.3 0-16l-.5-5-16.2-.3-16.3-.3-1 2.6c-1 2.9-1.2 36.9-.1 56.3.7 13.2.3 15.4-2.3 13.2-1.4-1.1-1.6-5.4-1.6-34 0-18.1-.4-34-.9-35.2-.8-2.3-1.3-2.4-12.6-2.6-11.7-.2-15.5.6-15.5 3.3 0 2.2-3 1.8-3.7-.5-.3-1-1.2-2.2-2.1-2.4-2.6-.8-34.9.7-35.8 1.6-.2.3-.4 16-.4 35 0 20.2-.4 34.9-1 35.8-2.4 3.8-2.9-1.8-3.2-35.5l-.3-35-14.7-.3-14.8-.3v15.3c0 14.5-.7 19.6-2.4 16.8-.4-.6-.7-8-.6-16.5l.1-15.4-6.8-.3c-3.7-.2-9-.1-11.8.2l-5 .5v34.3c0 29.3-.2 34.4-1.5 35.2l-2 1c-.2 0-.3-6.9-.2-15.3.2-8.4 0-24.2-.5-35.2l-.8-20-14.3-.3-14.2-.3V232c.2 8.9 0 16.4-.4 16.7-1.6 1.6-2-2.2-2.4-16.7l-.3-15.8-13.8-.2c-7.5 0-14.5.2-15.5.6-1.5.6-1.7 3.4-1.5 35.7.1 22.6-.2 35.2-.8 35.4q-1 .2-1.6-1.1m168.8-39.8c-.3-.8-.4-7-.2-13.9.2-10.3.5-12.4 1.7-12.4 1.3 0 1.5 2.1 1.5 13.4 0 9.8-.3 13.5-1.2 13.8q-1.2.3-1.8-1m-79.4-76q0-1.7 1-2.3c.5-.4 1-1.5 1-2.5s.4-2.2 1-2.5c1.7-1.1 1 3.9-1 6.5-1.6 2-2 2.1-2 .8m5-11q0-3.5 1.4-4.2c2-.7 2 2 0 5.4l-1.4 2.5zm3-8.3q0-1.4 1-2c.6-.4 1.5-1.8 2-3.1s1.3-2.4 2-2.4c1.5 0 1.1 3.6-.6 5q-1.4 1.2-1.5 2.6 0 1.3-1.5 1.4-1.4-.1-1.5-1.5m6-11c0-2.4 1.5-4.3 2.6-3.2.9.9-.6 5.7-1.7 5.7-.5 0-1-1.1-1-2.5m5-7.6c0-2.2 2.9-8 4-8 1.7 0 .9 3.6-1.6 6.6q-2.5 3-2.5 1.4m5-11.8c0-1.6.6-3.4 1.4-4.1.9-.7 1.5-2.3 1.5-3.6q.1-2.2 1-2.4c.6 0 1.5-1.2 2-2.5s1.4-2.5 2-2.5c1.3 0 1.4 3.7.2 4.1-.5.2-2.3 3.4-4 7.1a36 36 0 0 1-3.7 6.8c-.3 0-.5-1.3-.5-2.9m-356.8-6.8q-1.2-.6-1.3-2.3c0-1-.9-2.9-2-4.3-3-3.8-2.6-10.7.7-16.4 2.9-5 5.8-6.6 10.4-5.7 5.2 1 7 4.9 7 15 0 8.2-.3 9-2.8 11.6-2 2.2-3.5 2.8-6.7 2.7-2.2 0-4.6-.3-5.3-.6m10-6.8c1.9-8.7-.9-19.5-5-19.5-3.6 0-5.6 13.9-2.8 20.6 1.3 3 2 3.5 4.2 3.2s2.9-1 3.6-4.3m293.7 4.7c0-1 3-5.4 4.5-6.7.6-.6 2.5-3.3 4.2-6 2.5-4.1 2.8-5.4 2-7-2.4-4.2-6.6-4.8-9-1.3q-1.4 2-2 1.7c-1-1 1.8-5.7 4.7-8 3-2.4 5.4-2 9.2 1.5s3.3 8-1.6 15a22 22 0 0 1-5 5.6q-.9 0-1 1c0 1.8 8.2 1.1 9.6-.8 1.3-1.6 1.4-1.6 1.4.4 0 5-.7 5.4-9 5.4-4.4 0-8-.4-8-.8m331-3.3c0-.5 1.3-1.5 2.8-2q2.4-1.2 1.5-1.6c-.9-.4-1.3-3.3-1.3-10 0-7.8-.2-9.3-1.6-9.3-2.3 0-1-2.5 1.5-2.8q2-.4 2.1-1.9.1-1.3 1.3-1c.9.2 1.3 4 1.5 13 .3 11.5.5 12.7 2.3 13.7q1.7 1 1.4 2c-.8 1.3-11.5 1.2-11.5 0m-269-6.7c0-1.5.5-3.4 1-4.2.8-1.3 1-1.2 1.6.3.8 2.1-.3 6.7-1.6 6.7-.5 0-1-1.3-1-2.8m4.8-8.5c-.5-1.4 2-5.7 3.3-5.7q.9 0 1 1.5-.1 1.3-1 1.5t-1 1.4c0 2-1.8 3-2.3 1.3m5.2-11.8c0-1.7.7-3.2 1.5-3.6s1.5-1.6 1.5-2.8a5 5 0 0 1 1.4-3.4 8 8 0 0 0 2-3.7c.4-1.3 1.1-2.4 1.7-2.4 1 0 1.3 5.6.2 6.1-1.6.7-5 6.6-5.7 9.7-1 4-2.6 4.1-2.6.1m-82-6c0-1.8.7-2 17-2s17 .2 17 2c0 2-.6 2-17 2s-17 0-17-2m92-14q0-2.9 1-2.4t1 2.5q0 1.7-1 2.5-1 .3-1-2.5m-80 1c0-.6 1-1.3 2-1.6 1.9-.5 2-1.4 2-10.9s-.1-10.3-2-10.6c-2.8-.5-1-2.7 2.8-3.4l3.2-.7v10.4c0 12.4.5 14.5 3.4 15.3 1.8.5 1.9.7.6 1.6-2 1.3-12 1.3-12-.1m92.3-12q.7-3.2-2-.8c-1.2 1.2-3.3.4-3.3-1.2 0-.5 1.2-1.5 2.5-2.1l2.5-1.1-2.2-1.2c-3.3-1.6-3.6-4.5-.5-4.5q2.5 0 3-2.1.4-2.2 3-1.8c1.8.3 2.2 1 2 3.3q-.3 3.2 1 1.7c.6-.6 2-1.1 3-1.1 2.9 0 1.8 4.2-1.3 5q-3.5.9-.2.9c2.6 0 4 2.7 2.4 4.3q-1 1.3-3.3-.8l-2.2-2 .7 2.8c.6 2.6.5 2.8-2.5 2.8-2.6 0-3-.3-2.6-2" style="fill:#000"/></svg>