<svg xmlns="http://www.w3.org/2000/svg" width="210mm" height="70mm" viewBox="0 0 793.7 264.6"><path d="M719.4 224.4c-.3-.3-.3-18 0-39.4.2-31.8.5-39 1.3-40s1-1 1.4 0c.2.6.3 18.8.2 40.3-.2 34.7-.3 39.2-1.3 39.4q-1 .2-1.6-.3m-634.6-5c-.1-7.6-.2-44-.1-57 .1-21 1.4-21.4 1.7-.4l.1 15.5 1.9.2c1 .2 4.3-.6 7.2-1.7 6.6-2.5 8.4-2.6 8.9-.5q.4 1.4 1.3 1.9c.5.2 12 .4 25.7.5s25.4.5 26 .9c1.1.6 1.5.2 2.4-2 1.2-3.3 2-4 3.7-3 2 1.3 10 4 11.6 4q1.5 0 1.3 1.4-.4 1.2-4.5 2.6l-7 2.6q-4.7 2.1-4.8-1 0-1.4-.6-2c-.3-.2-11.6-.5-25-.8a540 540 0 0 1-26.2-.8c-1.3-.3-2 .2-3.1 2.4-1.3 2.5-1.8 2.8-3.7 2.5-2.6-.5-8.5-2.7-11.4-4.3-4-2.2-4-2-4 19.2 0 11.2-.3 20-.7 20.6q-.8 1.6-.7-.8m94.8-2.1c-.4-1.2-.5-17.3-.2-30.2 0-2-.3-4.5-.7-5.7q-.8-2 0-3.5c.4-.8 1-8.5 1.2-17 .7-22.9 1.7-15.4 1.5 11.5l-.1 34.3c0 11-.5 14-1.7 10.6m259.3-2.8c-3.1-3.5-3.2-15.5-.2-19.2 1.7-2 7-2.5 7-.6q0 1 1.3 2c1.3.7 1.5 1.6 1.5 8 0 6.9-.1 7.2-2.2 9.3q-4 4.2-7.4.5m6.4-5.5c.2-2.8.2-7-.2-9.2-.5-3.8-.8-4.3-2.3-4.3q-1.8-.2-2.3 2.4c-.8 3-.9 9.3-.2 13.1.4 2.6.7 3 2.5 3 2 0 2-.2 2.5-5m-21 5.7q0-.7 1-.8c1 0 1-1.4 1-8.6 0-7.7 0-8.6-1.2-8.6q-1.6.2.6-1.6c1-.8 2.4-1.5 3.2-1.3 1.3.1 1.4.8 1.6 10.1.1 5.8.5 10 .9 10q.6.1.7.8c0 .5-1.8.8-4 .8-2 0-3.8-.3-3.8-.8m-302-2.8c-.2-.2 1.3-2.3 3.4-4.6 3.8-4.1 5.1-7.5 4.5-11.1-.3-2-3.9-2.4-5.6-.6-1.3 1.3-1.4 1.3-1.4-.2q-.1-4.3 5.5-4.2c4 0 4.5.5 4.5 5.6 0 3.4-2.4 9.3-3.8 9.3-.5 0-1.3 1-1.7 2l-.9 2.1 3-.4c1.5-.3 3.1-1 3.4-1.5 1-1.8 2.4.4 1.4 2.4-.7 1.5-1.4 1.7-6.3 1.7-3 0-5.8-.2-6-.5m331.1-11c0-3.7 1.4-6.8 3-7.2 1.4-.3 1.7 1.4.7 3.6-.4.7-1 2.4-1.3 3.6-1 3.6-2.4 3.5-2.4 0m5.4-1c.3-2.5.8-4.8 1.2-5.4.8-1 2.7-1.3 2.7-.3 0 1.7-2.4 8-3.4 8.9s-1 .5-.5-3.3m-318.3-3.6c.1-4.2.3-4.7 1.7-5 2.2-.3 2.2 2.5-.1 6.6l-1.8 3.1zm4.8-.4c0-4.5 0-4.7 1.7-4.7q2-.1 1.8 1.8a7 7 0 0 1-1 3.3c-.6.9-1 2.2-1 3q-.2 1.2-.8 1.3c-.4 0-.7-2-.7-4.7m553-11.7c-1.4-3-2.9-4.2-2.9-2.3 0 .7-53 .8-203.7.4-112-.3-223-.7-246.6-1l-42.8-.5-2.1 2.6-2.1 2.5-3.8-1.4c-2.1-.8-4.2-1.7-4.6-2s-1.9-.8-3.4-1.1q-4-1-1.1-2.8c.5-.3 3.6-1.5 6.8-2.6 6.3-2.3 7.5-2.1 9 1.2l.9 1.9 146.2.4c364.2 1.2 350.9 1.3 350.9-2 0-1.8 2.6-1.8 6.5 0a20 20 0 0 0 5.3 2q3.6.1 3.8 1.9c0 .9-8.6 4.7-12.9 5.6-1.7.4-2 0-3.4-2.8m-297.9-22.4c-6-1.2-9.1-2.4-12.7-5l-4.5-3.2q-1.5-1.2-1.6-2.1t-1-1.6a47 47 0 0 1-7.6-10.3 8 8 0 0 0-1.8-3 7 7 0 0 1-1.7-4.6c0-5.3 7.6-5-97.6-5.1a7966 7966 0 0 1-141.4-1c-25 0-46-.5-46.7-.8q-1-.8-.9-1.7.3-1-.7-1.5c-1.3-.5-1.3-2 0-2q.8.2 1.4 1.5.2 1.7 2.9 1.6t3.4-1.6q1-1.4 1.7-1.5c1.2 0 2.4-9.5 1.6-13.4-1-4.6-1.7-6-4.3-7.5-2.4-1.4-5.6-.5-5.6 1.5 0 .6-.6 1.8-1.4 2.6-1.3 1.2-1.5 2.2-1.3 8.5q0 7-.7 7.3c-.6.2-.8-2-.8-7.8 0-7.7 0-8.3 1.8-10 1-1 1.7-2.3 1.7-2.9 0-1.3 6-3.7 8-3.1 1 .2 23.2.5 49.4.5 26.3 0 48.2.4 48.7.8q1 .5 1.7 0c.4-.3 40.6-.3 89.4.1 60 .5 89.1.4 90.2-.1.9-.4 1.6-1.5 1.6-2.3a17 17 0 0 1 2.5-5.5c1.4-2.2 2.5-4.3 2.5-4.7q.1-.7 1.4-1.3c.7-.2 1.8-1.4 2.3-2.5a7 7 0 0 1 2.3-2.9c.8-.4 1.7-1.3 2-1.8q.6-1 1.5-1c.5 0 1.4-.5 1.8-1.1s1.9-1.4 3.1-1.7 2.7-1 3.3-1.4c1.3-1.2 9.4-2.7 14.7-2.8 4.3 0 11.7 2 13.3 3.7a3 3 0 0 0 1.8 1c1.6 0 8.7 5.5 8.7 6.7 0 1.5-1.2 1.4-2.8-.4a17 17 0 0 0-4-2.9c-1.6-.7-3.3-1.8-3.9-2.3a8 8 0 0 0-2.8-1.4l-4.8-1.3q-2.9-.7-11.3 0c-6.8.6-8.6 1-9.9 2.3q-1.4 1.5-2.2 1.6c-1.6 0-6 3-8.3 6A43 43 0 0 0 373 96l-2.9 7.6c-1.1 2.3-.8 19.9.5 24.8q2.1 8.4 4.2 10.3c.6.5 1 1.4 1 1.8s1.3 2.5 2.9 4.4c1.5 1.8 2.9 3.6 3 4 .3.7 5.5 4.3 10.5 7.2 2 1.2 6.2 2.8 9.2 3.4 4.6 1 6.2 1.1 11 .3a33 33 0 0 0 19-9.2c2.3-1.8 5-5 5-6.2q0-.9.9-1.6a22 22 0 0 0 5.4-9.5c.5-1.8 1.1-3.2 1.4-3.2q.6-.1.3-1.5c-.2-.8.2-3.4.9-6q1.8-6.8-.5-17.2a68 68 0 0 0-9.9-22.2c-1.6-1-1.9-3.3-.4-3.3 1 0 8.3 10.7 8.3 12.3 0 2 2.2 5 3.8 5l134.6.4c73.2.2 135 .5 137.1.8 3.8.5 4.2.7 6 3.6a28 28 0 0 1 1.4 18.5c-1.6 3.5-2.8 3.3-2.2-.4 1.2-8 1.2-9.2 0-13.3-1.1-3.5-1.7-4.3-3.8-5-2.6-1-75.1-1.5-76-.5-.2.3.2 1.5 1 2.7 1.7 2.8 1.9 14 .2 15-1 .7-1.1-.2-1.5-6.2-.2-4-.8-7.5-1.2-8q-.8-1-.9-2.2.2-1.4-3-1.8c-4.8-.7-190.1-1-191-.3-1.1.7-1.3 4.2-.4 4.6.4.2.8 5.4 1 11.7.3 11 .2 11.5-1.2 12.2q-1.4.8-1.7 3c0 1.3-.6 2.7-1.1 3.2s-1.6 2.3-2.4 4.3-2.4 4.9-3.6 6.5a15 15 0 0 0-2.3 3.8q0 .5-.8.6c-.4 0-1.5.8-2.4 1.8-3.2 3.3-4.6 4.5-5.4 4.5q-1 .1-2 1c-3.8 3.7-16.2 5.8-24.6 4.1m-33.6-37.2c.2-.2.5-5.9.6-12.6l.3-12.1-16.4-.5c-29.5-1-162-1-162.8 0q-.7.7.5 3.3c1.3 2.9 1.6 16.4.4 16.4-.4 0-.7-2.8-.7-7 0-6.3-.2-7.1-2-9.7-2.4-3.5-4.5-4.3-7.6-2.7-1.9 1-2.4 1.9-3 5.3-1.2 5-1.2 8.5-.2 12.9.7 3 1.2 3.6 3.7 4.7 2.6 1.1 3 1.1 4.5 0q1.6-1 1.7-2 0-.7 1.2-.7t.7 1.1q-.3 1.3 1.4 2.5c1.6 1.2 4 1.3 23 .9 11.6-.2 39.3-.2 61.6.1 44.6.7 92.6.7 93.1 0M175.5 123c.2-.4-.1-1.7-.8-2.8-1.8-3-1.8-12 0-16.7q1.2-3.4.5-4.2c-.4-.5-15.5-1-40-1.2-21.7-.2-40-.7-40.6-1-1.5-1-2.4 2.3-1 3.5q1 .9 1.2 6.3c.3 9.6 0 12.1-1.5 13.5q-1.5 1.3-.6 2.4c.6.8 8.6 1 41.6 1 24.8 0 41-.3 41.2-.8m368 4.7-94.2-.6c-2.1-1.8 5.3-1.9 94-1.6 51.8.1 94.8 0 95.7-.4a4 4 0 0 0 2-2.6c.6-2.5 2.6-2.1 3.2.5l.4 2h37.3c20.6 0 38.3-.3 39.4-.7 1.7-.6 2-.5 1.8.7q-.4 1.3-3.5 2.4c-3.5 1.2-1.2 1.2-176.1.3M405 107.3c0-12 0-12.5-1.4-12.5q-1.3 0-1.4-.6c0-1.3 1.5-7 2.5-9.2a27 27 0 0 0 1.4-4.5c.6-3.3 1.8-2.6 1.8 1 0 1.7.5 4.4 1 6s1.1 3.8 1.1 5q0 2.3-1 2.3c-1 0-1.1 1.9-1.1 12.5 0 12 0 12.6-1.4 12.6s-1.5-.5-1.5-12.6m288.3-15.6-3.2-.4-.2-5.7c-.2-4.5 0-5.7.8-5.7q1 .1 1.4 1.6c.3 1.4 1 1.5 6.1 1.5 5.3 0 5.8-.1 5.8-1.5q-.1-2.5 2-1c.8.6.8 1 0 2.4-.8 1.5-.8 1.9.1 2.5s1 1 .2 2.3c-.5.8-.7 2-.5 2.7.6 1.7-5 2.3-12.5 1.3m10.3-3.2q.3-1-.4-2c-.7-.9-2.1-1.1-6-1-4.6.3-5 .4-5.2 2s0 1.8 5.5 1.8c3.2 0 5.9-.4 6.1-.8m27.9 3.4c-.3-.3-.5-6.8-.5-14.5 0-13.5 0-14 1.4-14s1.5.4 1.3 14.3c-.2 13.4-.6 16-2.2 14.2m-71.7-5c0-4.4.1-4.7 1.8-4.7s1.8.4 1.8 3.2v3.1h7.9c7.1 0 7.8.1 7.6 1.4s-1.3 1.4-9.6 1.6l-9.5.2zm58.7 0c-4-1.9-4.8-3.4-4.9-9.5 0-7.4.5-9.4 3-11 2.9-1.8 4.4-1.7 6.9.5 2 1.8 2 2.1 2 9 0 6.3-.1 7.4-1.6 9q-2.7 3.3-5.4 2m3.4-4.7c1.5-2.8 1.7-8.9.4-12-1.4-3.1-4.3-2.9-5.4.5-1.3 4-1 9 .6 11.6 2 3 2.9 2.9 4.4-.1M82 78.3v-3.9h-7.2c-5.4 0-7-.2-6.8-1 .2-.7 2.7-1 8.6-1.2l8.3-.2v5.1c0 4.6-.2 5.1-1.5 5.1-1.2 0-1.4-.5-1.4-3.9M94.6 81c-2.3-1.3-2.7-4.4-.9-7 1-1.4 2-1.6 8.2-1.6 6.3 0 7.3.2 8.2 1.6a5.4 5.4 0 0 1-.4 6.7c-1.2 1.3-2.4 1.5-7.3 1.5a18 18 0 0 1-7.8-1.2m9.6-1.9c1.3 0 2.7-.3 3.3-.7.9-.7.9-1-.3-2.4-2.3-2.8-11.8-2-11.8 1.1q.1 1.2 2.5 1.7c1.4.3 2.8.9 3 1.3q.5.9.8 0c.1-.6 1.3-1 2.5-1m18.3-2.4v-5.6l7.3.3c5.3.1 7.3 0 7.2-.8l-.2-4.4v-3.6h-3q-2.9 0-2.8-1.1-.1-1.3 2.9-1.2c2.8 0 2.8 0 2.8-3q0-3.1 1-3.5t1.3 0v14.5l-.2 14h-16.3zm14-.1.3-2.2h-6c-6 0-6.2 0-6.2 1.8 0 1 .2 2 .3 2.2.2.2 2.8.3 6 .3 5.4 0 5.5 0 5.7-2.1m520.7 3.1q.3-.9 5.4-1.2l5-.2v-2.8c0-2.4.3-2.7 1.7-2.5s1.5.7 1.4 2.8l-.2 2.5h5.3c4.3 0 5.4.3 5.4 1.2 0 1-1.8 1.2-12.2 1.2-9.4 0-12-.2-11.8-1m28.5-1.8q-.3-1.1 1.6-3l2.4-2c.7-.7 2.2-4 2.2-4.8 0-.4-1.3-.7-2.9-.7-2.4 0-2.8-.3-2.8-1.6 0-1.5.4-1.6 6.7-1.6s6.8.1 6.8 1.6c0 1.3-.5 1.6-2.5 1.6-3.5 0-3.3 2.4.4 6.2 1.7 1.7 2.6 3.2 2.2 3.5q-1.7 1-5.2-2.5l-1.9-2-.5 1.8c-.2 1-1.4 2-2.5 2.5q-2 .8-2.1 1.5c0 1.2-1.4.8-1.9-.5m18.3-6.6c0-7.3 0-7.9 1.4-7.9 1.1 0 1.4.6 1.4 2.8s.3 2.7 1.4 2.7q1.5 0 1.5 1.6 0 1.5-1.4 1.6c-1.1 0-1.5.6-1.6 3.3q-.2 3.5-1.5 3.6c-1.1.2-1.2-.6-1.2-7.7m-44.5 4c-.9-1-.3-2.5 1-2.5 1.8 0 7.2-5.8 7.2-7.8q-.1-1.6 1.7-1.6c1.5 0 1.8.4 1.8 2 0 2.6 4.5 7.4 7 7.4 1.5 0 2.2 1.8 1 2.7s-6-1.5-8-4l-2-2.4-2 2.6c-1.8 2.4-6.7 4.7-7.7 3.7M82 62.4c0-8.5.1-9 1.4-9s1.5.5 1.5 3.4c0 3 .2 3.5 1.5 3.7 2.3.4 2.5 2.2.3 2.2-1.7 0-1.8.2-1.8 4.4 0 3.7-.2 4.3-1.5 4.3s-1.4-.6-1.4-9m-17.8 7.1c0-.5 1.3-2.4 2.8-4.2 1.5-1.7 2.9-4 3-5.2.4-1.8.2-2-2-2.2q-2.4-.3-2.9-1.2c-.2-.8 1.4-1 6.6-1s6.8.2 6.6 1c-.2.5-1.5 1-3 1.2-3 .3-3 .3-1.3 3.5q2.3 4.5 4.8 5.5c1 .5 1 .8.4 1.7-1.3 1.8-2.5 1.5-4.9-1.1C73 66 71.8 65 71.5 65s-1.7 1.2-3 2.8C66 70.6 64 71.3 64 69.4m25.6-.5c0-1.3.5-1.5 3.3-1.5 4 0 5-1.9 2.2-4.1a5.4 5.4 0 0 1-1-7.1c2-3 11.7-3.7 15-1 2 1.6 2.3 5.5.6 7.2-.9.7-1.5 2.2-1.5 3.2 0 1.5.3 1.8 2.8 1.8 2.4 0 2.8.2 2.8 1.5 0 1.5-.4 1.6-12 1.6s-12.2 0-12.2-1.6m15.7-2.7c0-.8-.8-1-3.3-1-4.8.3-5 2.2-.3 2.2 2.7 0 3.6-.3 3.6-1.2m2.4-6q1.6-2.9-3.7-3.6c-5.9-.9-10 1.4-7.8 4.2 1.2 1.7 10.5 1.1 11.5-.7m10 9.1q-.4-1.2 1.5-2.9 4.8-4 4.6-6.6c0-1.6-.3-1.9-2.5-1.9q-2.6 0-2.3-1t6.5-1.1c5.1-.2 6.1 0 6.1 1q0 1.1-2.4 1.1c-2 0-2.5.4-2.5 1.4 0 1.5 2.4 4.8 5 6.8 1.3 1 1.4 1.4.7 2.4-1.3 1.7-1.7 1.6-4.6-1.5-1.4-1.5-2.6-2.4-2.7-2.1-.3.7-6 5.6-6.6 5.6q-.4 0-.8-1.2" style="fill:#000;stroke-width:2.82304"/></svg>
