<svg xmlns="http://www.w3.org/2000/svg" xml:space="preserve" width="210mm" height="297mm" viewBox="0 0 210 297"><path d="M189 167.8a214 214 0 0 1 .8-21 288 288 0 0 1-.3 21.1zm-167.9-1.3v-15q.2-8.5.5-.2v4.1h.5q.6.1 1.9-.4c1.7-.6 2.2-.7 2.3-.1l.4.5 6.8.1c3.6 0 6.7.1 6.9.3q.4.2.6-.6.3-1.2 1-.7c.5.3 2.6 1 3 1q.4 0 .4.3 0 .4-1.2.7l-1.8.7q-1.2.6-1.3-.3 0-.3-.2-.4l-6.6-.3c-3.6 0-6.7-.1-7-.2q-.3-.2-.7.7t-1 .6l-3-1.1c-1-.6-1-.6-1.1 5zm25.1-.6a94 94 0 0 1-.2-9.5v-.9l.3-4.5c.2-6 .4-4 .4 3v9.1q0 4.4-.5 2.8m68.6-.7c-.8-1-.8-4.1 0-5 .4-.6 1.8-.8 1.8-.2l.4.5c.3.2.4.4.4 2.1s0 1.9-.6 2.5q-1 1-2 0m1.7-1.5v-2.4c-.2-1-.2-1.1-.6-1.1q-.5 0-.7.6c-.2.8-.2 2.5 0 3.5q0 .8.7.7c.5 0 .5 0 .6-1.3m-5.5 1.6q0-.3.2-.3c.3 0 .3-.3.3-2.2s0-2.3-.3-2.3q-.5 0 .1-.4t.9-.4c.3 0 .4.2.4 2.7q0 2.4.2 2.6.2 0 .2.3 0 .1-1 .2-1 0-1-.2m-80-.8 1-1.2q1.4-1.6 1.2-3c-.1-.5-1-.6-1.5-.1q-.5.5-.4 0 0-1.2 1.5-1.2c1 0 1.1.2 1.1 1.5 0 1-.6 2.5-1 2.5q-.1 0-.4.5l-.2.6.7-.2q.8 0 1-.3c.2-.5.6 0 .3.6-.2.4-.4.4-1.7.4zm87.7-3q0-1.5.8-1.8.5 0 .1 1l-.3 1q-.5 1.2-.6-.1m1.4-.2q0-1 .3-1.4c.2-.3.7-.3.7 0 0 .4-.6 2-.9 2.3q-.3.4-.1-.9m-84.2-1q-.1-1.3.4-1.2.9 0 0 1.7l-.5.8zm1.2 0c0-1.2 0-1.3.5-1.3q.5 0 .5.5t-.3.9l-.3.8q0 .3-.2.3-.1 0-.2-1.2m146.4-3.1q-.7-1.3-.8-.6a14317.5 14317.5 0 0 1-119.1-.2l-11.4-.1-.5.7-.6.6-1-.3-1.2-.6-.9-.3q-1-.2-.3-.7l1.8-.7c1.7-.6 2-.6 2.4.3l.2.5 38.7.1c96.4.4 92.8.4 92.8-.5q0-.8 1.8 0 1 .5 1.4.5 1 0 1 .5c0 .3-2.3 1.3-3.4 1.5q-.6.3-1-.7m-78.9-6a7 7 0 0 1-3.3-1.3l-1.6-1.4-.3-.4c-.4-.2-2-2.5-2-2.7l-.5-.8a2 2 0 0 1-.4-1.2c0-1.4 2-1.3-25.8-1.4a2108 2108 0 0 1-49.8-.5q-.3-.1-.3-.4l-.1-.4q-.6-.3 0-.5.2 0 .3.4t.8.4.9-.4.4-.4c.4 0 .7-2.6.5-3.6q-.3-1.6-1.2-2c-.6-.3-1.4-.1-1.4.4l-.4.7c-.4.4-.4.6-.4 2.3q0 1.8-.2 2t-.2-2.2c0-2 0-2.2.5-2.6q.5-.5.5-.8c0-.3 1.6-1 2-.8l13.2.1 13.3.3h47.5q.3-.3.4-.7l.7-1.4.6-1.3.4-.3q.4-.1.6-.7l.6-.7.6-.5q0-.3.4-.3l.4-.3.9-.4q.6-.1.8-.4c.4-.3 2.5-.7 4-.7 1 0 3 .5 3.4 1l.5.2c.4 0 2.3 1.5 2.3 1.8q0 .6-.7-.1l-1.1-.8-1-.6-.8-.4-1.2-.3h-3c-1.8.1-2.3.3-2.6.6l-.6.4c-.5 0-1.6.8-2.2 1.6-1.7 2-2 2.6-2.6 4.1l-.8 2c-.3.7-.2 5.3.2 6.6q.5 2.3 1 2.7l.4.5q0 .4.7 1.2l.8 1c0 .2 1.5 1.2 2.8 2 .5.3 1.6.7 2.4.9 1.2.2 1.7.2 3 0a9 9 0 0 0 5-2.4c.6-.5 1.2-1.3 1.2-1.6q0-.3.3-.5c.5-.3 1.2-1.6 1.4-2.5l.4-.8q.1 0 0-.4l.3-1.6a10 10 0 0 0-.1-4.6 18 18 0 0 0-2.6-5.8c-.4-.3-.5-1-.1-1 .2 0 2.2 3 2.2 3.3q.1 1 1 1.4l71.9.3c1 .1 1 .2 1.5 1 .7 1 1 3.8.4 4.8q-.7 1.4-.6 0c.4-2.2.4-2.5 0-3.6-.3-1-.4-1.1-1-1.3-.7-.3-19.9-.4-20-.2q-.1.2.2.8c.4.7.5 3.6 0 4-.2.1-.3-.1-.4-1.7 0-1-.2-2-.3-2.1l-.2-.6q0-.4-.8-.5c-1.3-.2-50.3-.2-50.6 0-.2.1-.3 1 0 1.2 0 0 .2 1.4.2 3 0 3 0 3-.3 3.3q-.3.1-.4.8 0 .6-.3.8-.4.3-.7 1.1-.4 1-1 1.8l-.5 1-.2.1q-.3.1-.7.5-1.2 1.3-1.4 1.2-.2 0-.5.3c-1 1-4.3 1.5-6.6 1m-8.8-9.8.1-3.3v-3.2l-4.2-.2c-7.9-.2-42.9-.2-43.1 0q-.2.2.1 1c.3.7.4 4.3.1 4.3q-.2-.1-.2-1.9c0-1.7 0-1.9-.5-2.6q-.9-1.3-2-.7c-.5.3-.6.5-.8 1.4a7 7 0 0 0 0 3.4q0 1 1 1.3.7.5 1.1 0l.5-.5q0-.2.3-.2t.2.3.3.6c.5.3 1.1.4 6.1.3h16.3c11.8.2 24.5.2 24.7 0M45 141q.1-.2-.2-.8c-.4-.7-.4-3.2 0-4.4l.2-1c-.1-.2-4.1-.3-10.6-.4-5.8 0-10.6-.2-10.8-.3-.4-.2-.6.6-.2 1q.2.2.3 1.6c0 2.6 0 3.2-.4 3.6q-.4.4-.2.6c.2.2 2.3.3 11 .3 6.6 0 10.9 0 11-.2m97.4 1.2-25-.1c-.5-.5 1.5-.5 25-.5h25.3q.4-.3.5-.7.5-1 .8 0l.2.6H190q-.2.3-1 .7c-1 .3-.3.3-46.6 0m-36.6-5.4c0-3.1 0-3.3-.4-3.3l-.4-.1c0-.4.4-1.9.7-2.5l.3-1.2q.4-1.1.5.3l.3 1.6q.3.7.3 1.3t-.3.6c-.2 0-.3.5-.3 3.3 0 3.2 0 3.4-.4 3.4-.3 0-.3-.2-.3-3.4m76.2-4.1-.8-.1V131q-.1-1.6.1-1.5.3 0 .4.4c.1.4.3.4 1.6.4s1.6 0 1.6-.4q0-.7.5-.2.3 0 0 .6t0 .6q.5.2 0 .6 0 .5 0 .8c.1.4-1.4.6-3.4.3m2.8-.8-.1-.6q-.2-.3-1.6-.2c-1.2 0-1.4 0-1.4.5s0 .5 1.4.5q1.4 0 1.7-.2m7.3.9v-3.9c0-3.5 0-3.7.3-3.7.4 0 .4.1.3 3.8 0 3.5-.1 4.2-.6 3.8m-19-1.3c0-1.2.1-1.3.6-1.3s.4 0 .4.8v.9h2.1c1.9 0 2 0 2 .3s-.3.4-2.5.4l-2.5.1zm15.6 0c-1-.6-1.3-1-1.3-2.6 0-2 .1-2.5.8-2.9q1-.7 1.8.2c.6.4.6.5.6 2.3s0 2-.5 2.4q-.7 1-1.4.5m1-1.3c.3-.8.3-2.4 0-3.2s-1.1-.7-1.4.2c-.4 1-.3 2.3.2 3q.5 1.2 1.1 0m-169.4-1v-1h-2q-2 0-1.7-.3 0-.3 2.2-.3l2.2-.1v1.3c0 1.3 0 1.4-.3 1.4q-.5.2-.4-1m3.3.7q-1-.7-.2-1.9c.3-.3.5-.4 2.2-.4 1.6 0 1.9 0 2.1.4q.6 1 0 1.8c-.4.3-.7.4-2 .4q-1.5 0-2-.3m2.6-.5.8-.2q.4-.2 0-.6c-.6-.8-3.1-.6-3.1.3q0 .2.6.4.6 0 .8.3.1.3.2 0zm4.8-.7v-1.4h2q2 0 1.9-.2V126l-.1-1H34q-.7 0-.7-.3t.7-.3c.8 0 .8 0 .8-.8q0-.8.3-1h.3v7.6H31zm3.7 0 .1-.6h-1.6c-1.6 0-1.6 0-1.6.5v.6h1.6c1.5 0 1.5 0 1.5-.5m137.8.8q0-.2 1.4-.3h1.4v-.8q-.1-.8.4-.6.4-.1.4.7v.7h1.3c1.2 0 1.4 0 1.4.3s-.4.3-3.2.3c-2.5 0-3.2 0-3.1-.3m7.5-.4q0-.3.4-.8l.7-.6.6-1.2-.8-.2q-.8 0-.7-.5c0-.3 0-.4 1.7-.4s1.8 0 1.8.4q0 .6-.6.5-1.5 0 0 1.6.8.8.7 1-.5.2-1.4-.7l-.5-.5-.1.4q-.2.5-.7.7l-.6.4q-.2.4-.5-.1m4.9-1.8c0-2 0-2 .3-2q.4-.2.4.7-.1.7.4.7.3 0 .4.4 0 .4-.4.4t-.4.9-.4 1c-.3 0-.3-.2-.3-2m-11.8 1q-.2-.4.3-.6c.4 0 1.9-1.5 1.9-2q-.1-.6.4-.5t.5.6c0 .6 1.2 2 1.8 2q.7.2.3.6c-.3.2-1.6-.4-2-1l-.6-.7-.6.7c-.4.6-1.7 1.3-2 1M20.4 125c0-2.2 0-2.4.4-2.4q.4-.1.3 1-.1 1 .4 1c.6 0 .7.5.1.5-.4 0-.5 0-.5 1.2 0 1 0 1.1-.3 1.1-.4 0-.4-.1-.4-2.4m-4.7 2q0-.4.7-1.2t.8-1.4q.2-.6-.6-.6-.6 0-.7-.3t1.7-.2q2 0 1.8.2t-.8.3c-.8.1-.8.1-.3 1q.6 1.2 1.2 1.4.4.1.1.5-.4.7-1.3-.3l-.7-.7-.8.8q-1 1.1-1.1.4m6.7-.2q0-.5.9-.4 1.6-.1.6-1.1t-.3-1.9c.6-.8 3.1-1 4-.3.5.5.6 1.5.1 2q-.3.3-.4.8t.8.5.8.4c0 .4-.2.4-3.2.4-3.1 0-3.3 0-3.3-.4m4.2-.7q0-.4-.9-.3c-1.2 0-1.3.6 0 .6q.9 0 .9-.3m.6-1.6q.5-.7-1-1c-1.5-.2-2.6.4-2 1.1.3.5 2.8.3 3-.1m2.7 2.4q-.2-.3.4-.8 1.2-1 1.2-1.7.1-.6-.7-.5-.6 0-.6-.3t1.7-.3q1.9 0 1.7.3 0 .3-.7.3t-.7.3c0 .4.7 1.3 1.4 1.8q.5.3.2.7c-.4.4-.5.4-1.2-.4q-.6-.7-.8-.6l-1.7 1.5q-.1 0-.2-.3" style="fill:#000;stroke-width:.74693"/></svg>