<svg xmlns="http://www.w3.org/2000/svg" xml:space="preserve" width="120mm" height="60mm" viewBox="0 0 120 60"><path d="m132.84 44.51 61.9 27.13" style="opacity:1;fill:#000;fill-opacity:.920746"/><path d="M91.05 6.1c-6.87.04-13.1.06-40.98.14-12.52.04-14.68.06-14.8.14-.1.09-.12.31-.1 1.3.04 1.39.06 1.36-.84 1.34-.55-.01-.96.1-.9.25q.05.08.83.1c.49.01.81.05.86.1.07.1.07 2.07 0 2.23-.02.05-.2.1-.39.13-.45.06-.46.27-.01.3.16.02.32.08.36.15.1.15.13 1.65.04 1.76-.05.05-.4.1-.86.14q-.8.04-.83.14c-.08.16.03.19.8.18.4 0 .78.03.84.07.13.08.14.46.06 1.5l-.06.68h-.3q-.3 0-.36.12c-.06.13.11.23.4.23.34 0 .4.22.33 1.28-.07 1.13 0 1.06-1.08 1.06-.63 0-.9.1-.64.22.06.04.44.06.84.07q.74 0 .83.1c.11.1.06 2.15-.06 2.25-.04.02-.2.05-.38.07-.42.03-.42.22 0 .26.52.03.53.06.47 1.13-.02.53-.06.98-.08 1-.02.01-.36.03-.75.04-.67.01-1 .1-.85.23.04.03.42.07.84.09l.77.03.03.99c.01.55-.01 1.01-.06 1.05s-.22.09-.38.12c-.38.06-.4.23-.02.29.48.08.48.07.48 1.2 0 1.21.07 1.13-1.04 1.13-.63 0-.9.1-.64.22.06.04.42.07.79.07.36 0 .72.02.78.06.08.04.1.3.09 1.04l-.03.99-.4.08-.43.09q0 .03.08.11c.06.06.21.1.35.1.41 0 .45.1.45 1.15 0 1.15-.01 1.17-.87 1.14-.66-.02-.99.07-.82.24.08.07.31.1.85.1.43 0 .76.03.8.07.04.06.06 1.05.04 2.03 0 .04-.17.13-.38.18-.45.12-.5.28-.1.34.15.03.32.07.37.1.12.05.13.83.03 1.56l-.06.43-.7.07c-1.23.12-1.25.27-.06.35.49.03.8.08.82.13s.01.56-.01 1.15l-.05 1.06-.3.03c-.25.03-.33.08-.35.2-.02.14.01.16.29.16.47 0 .52.14.46 1.14-.02.47-.07.88-.1.92-.03.03-.36.06-.74.07-1.24 0-1.24.28 0 .32.4.02.76.06.8.1.03.05.05.55.04 1.12 0 1.14.01 1.1-.63 1.25-.18.05-.18.05 0 .15.14.08.56.1 2.21.1 1.21 0 2.08.02 2.13.06s.1.3.12.6.05.58.08.61q.23.3.23-.48c0-.83-.07-.8 1.82-.8.87.01 1.62.03 1.66.05.05.02.08.14.08.26 0 .13.04.27.08.33.12.14.28.03.28-.2 0-.39.06-.43.62-.43q.5 0 .62.1c.07.07.1.66.09 2.08a19 19 0 0 0 .04 2.06q.17.17.26-.04c.03-.07.05-1.01.04-2.1q0-2 .1-2.05c.05-.04.4-.07.81-.07.93 0 1 .05 1.01.72.02.65.2.66.2 0q-.01-.48.13-.59c.1-.08.44-.1 1.68-.12 1.69-.01 1.7 0 1.7.4q0 .21.06.27c.1.09.3-.1.3-.3 0-.34.15-.38 1.8-.4 1.88-.04 1.85-.05 1.85.76 0 .5.02.56.16.54.13-.02.16-.12.2-.6.03-.42.08-.61.18-.66.16-.08 3.2-.1 3.36-.01.06.03.14.18.18.33.1.4.32.37.38-.04l.04-.32 1.6-.01c.92-.01 1.67 0 1.74.05q.14.05.18.64c.03.3.09.57.13.57s.11-.25.14-.55c.02-.3.08-.6.11-.64.1-.13 3.37-.13 3.52 0 .06.04.11.17.11.28 0 .26.23.26.31 0 .03-.1.1-.23.15-.28.13-.13 3.11-.13 3.26 0 .07.05.11.3.11.63q0 .76.22.49c.03-.04.07-.29.08-.56.02-.27.06-.52.1-.57.04-.06.56-.08 1.74-.08 1.53 0 1.7.01 1.77.13q.08.12.08.23c-.03.46.22.45.29-.01l.04-.32 1.71-.01c1.65-.02 1.72-.02 1.81.12.06.08.07.25.04.4-.08.32.03.73.19.73.17 0 .25-.29.18-.67-.04-.18-.02-.37.04-.46.09-.13.17-.14 1.9-.14 1.99 0 1.93-.01 1.93.42 0 .1.03.21.06.24.11.09.3-.12.3-.34q.01-.44.37-.32c.15.07.16.2.16 2.12 0 2 .05 2.34.28 2.05.04-.05.07-1 .08-2.1v-2l.24-.08a7 7 0 0 1 2.34.08c.05.06.08.32.08.59 0 .28.03.52.1.56.18.15.28-.1.24-.6-.06-.7-.08-.7 1.73-.7 1.38 0 1.52.02 1.68.15q.17.14.18.29c0 .2.21.13.25-.08.06-.34.13-.35 1.65-.35.8 0 1.5.03 1.56.06q.13.05.14.62c0 .47.03.56.16.58.14.02.16-.04.16-.53 0-.34.04-.6.1-.65.15-.1 3.34-.12 3.42 0 .03.03.07.16.1.29.04.28.19.41.3.26.07-.09.16-41.43.1-42.21-.02-.14-.07-.27-.13-.3-.06-.04-3.21-.04-7-.02m.63.27c5.45-.05 5.85-.04 5.99.07s.15 1.32.15 20.58c0 16.56-.02 20.47-.11 20.53-.08.05-2.34.09-6.98.12-6.25.04-6.87.04-6.98-.07-.1-.1-.1-3-.06-17.47.04-9.55.08-17.4.1-17.43.1-.13.46-.04 1.19.28.6.27.92.48 1.6 1.06l.86.73h.76l1.51-.06c.64-.04.77-.07.8-.18.05-.24-.1-.26-1.36-.19-.67.04-1.31.06-1.42.04a3 3 0 0 1-.78-.58c-1.28-1.19-2.86-1.78-4.07-1.52-.89.2-2.07 1.04-3.34 2.4-.51.55-1.33 1.19-2.33 1.82-.48.3-1 .65-1.15.77-.16.13-.58.41-.93.64a7 7 0 0 0-.67.46c-.01.03-.6.46-1.32.96l-1.93 1.38a97 97 0 0 1-2.48 1.8 82 82 0 0 0-3.96 2.9c-.23.13-.65.44-.95.66-.52.41-1.04.8-2.71 2.01-.46.34-1.1.81-1.42 1.07l-2.1 1.6a430 430 0 0 0-5.58 4.29 35 35 0 0 1-2.3 1.69l-1.16.85-3.2 2.35c-.3.22-.6.4-.67.4s-.21.1-.3.21-.49.43-.9.71-.82.57-.9.64l-1.02.75q-1.81 1.3-1.83 1.45c0 .31.72-.12 3-1.81.5-.38 1.52-1.02 1.6-1.02.14 0 .13 6.27 0 6.41-.09.1-.65.12-4.39.14s-4.3.02-4.4-.07c-.08-.08-.1-1.56-.1-6.85.04-16.82.12-34.23.16-34.28.02-.03 5.94-.06 13.16-.06 12.64 0 30.74-.08 42.92-.18M31.7 8.67a1 1 0 0 0-.5.16c-.36.27-.18.47.24.26.14-.07.2-.07.29 0s.02.15-.31.4q-.58.44-.36.63c.04.03.29.04.56.03.38-.02.5-.05.52-.14q.03-.13-.15-.13-.46 0 .03-.36c.36-.25.4-.4.13-.66a.7.7 0 0 0-.45-.18m-1.68.08q-.15 0-.34.14c-.21.16-.18.32.08.38.14.02.17.1.17.4 0 .19.03.35.08.35.08 0 .21-1.11.14-1.21a.2.2 0 0 0-.13-.06m.56 1.27c-.17 0-.25.2-.11.32.13.13.13.13.3 0 .11-.1.12-.14.04-.22a.4.4 0 0 0-.23-.1m-5.87.25c-.22 0-.37.03-.65.15-.95.37-1.22 1.34-.5 1.81.27.18.96.17 1.3-.03.27-.16.35-.4.13-.4-.07 0-.27.05-.45.11-.25.1-.35.1-.53.04-.2-.07-.23-.13-.23-.39 0-.7.7-1.09 1.27-.7.25.17.44.05.4-.25-.02-.26-.03-.27-.48-.32zm1.2 1.1-.06.01c-.22.02-.24.05-.27.35-.01.19-.08.37-.15.42-.16.1-.17.36-.03.48.25.2 1.14-.02 1.14-.28 0-.13-.03-.14-.31-.1l-.32.05.06-.27c.04-.15.1-.31.15-.36.14-.14.02-.3-.22-.3m57.15 1.29h.01l.19.02.02 17.42c.01 12.87 0 17.44-.08 17.51-.06.05-.23.1-.38.1l-37.14.09c-.6.01-.79 0-.82-.08-.03-.05-.05-1.64-.05-3.51 0-3.56 0-3.55.37-3.7.08-.04.52-.34.97-.67l2.18-1.59 1.91-1.38c.98-.7 2.1-1.55 5.85-4.46 2.63-2.04 5-3.83 7.3-5.5.54-.38 1.4-1.02 1.91-1.41a83 83 0 0 1 4.1-2.97l3.95-2.83 1.58-1.13a39 39 0 0 1 2.31-1.59c.9-.56 2.36-1.72 2.9-2.28a8 8 0 0 1 2.08-1.71c.37-.2.73-.33.84-.33M31.54 13.8q-.14 0-.36.18c-.23.18-.27.26-.27.58 0 .33.04.4.28.61.16.13.35.24.43.23.18 0 .49-.2.62-.4.21-.34.02-1.15-.29-1.15l-.3-.05zm-1.55.06c-.22.01-.57.32-.44.43.06.04.11.24.11.44s.05.4.11.45a.5.5 0 0 0 .27.08c.14 0 .16-.07.16-.67 0-.55-.03-.68-.14-.72zm1.65.3h.06c.14.07.2.43.1.63-.08.2-.13.21-.33.14-.16-.05-.15-.62.02-.73q.07-.05.15-.05m-1.06 1q-.06 0-.16.06c-.15.08-.15.12-.05.21.06.07.17.12.23.12.17 0 .24-.23.1-.33q-.06-.06-.12-.06m1.3 3.75q-.15-.01-.3.04c-.3.09-.45.33-.33.53q.08.16.01.25c-.16.2-.09.48.15.63.27.17.42.18.82.07.33-.1.45-.34.31-.63a.4.4 0 0 1 0-.34c.16-.27-.23-.55-.66-.55m-2 0c-.5 0-.66.22-.66.82 0 .44.02.5.23.63q.48.3.9-.04c.21-.17.22-.21.18-.68-.05-.58-.18-.72-.65-.72m2.02.32q.07.01.08.1c0 .12-.1.15-.2.07-.08-.06 0-.17.12-.17m-2.03.08q.04 0 .1.02c.11.03.14.12.12.38q-.02.34-.17.36-.29.06-.28-.4 0-.34.23-.36m1.94.57h.06q.14.03.15.13-.02.1-.15.13-.16.03-.16-.13 0-.13.1-.13m-1.02.42q-.16-.02-.15.15 0 .17.07.22c.13.1.33 0 .33-.17q.01-.18-.2-.2zm1.14 3.67a1 1 0 0 0-.47.17c-.18.15-.23.27-.27.62-.03.38 0 .45.18.6.11.1.29.21.39.25.22.06.6-.1.76-.34.1-.13.1-.22.01-.4l-.04-.13h-.06l-.07-.07-.06-.04-.14-.02-.2-.01-.24-.04-.04-.03q-.06-.05-.05-.13l.01-.03q.03-.07.1-.1l.18-.02.46.04.1.02c-.01-.2-.23-.33-.48-.34zm-2.07.02a1 1 0 0 0-.39.12c-.19.12-.2.2-.2.67 0 .42.03.56.16.68.37.32.97.1 1.09-.4.14-.6-.21-1.07-.66-1.07m.03.45c.15 0 .17.04.17.35 0 .32-.02.36-.2.38-.2.02-.2 0-.18-.36.02-.32.05-.37.2-.37m2 .46q.18 0 .18.14c0 .15-.3.2-.4.07-.08-.1.03-.21.23-.21m-1.09.51-.08.02c-.12.06-.1.3.03.34.14.04.34-.08.34-.2 0-.09-.16-.16-.29-.16m-.97 3.68q-.16 0-.39.17c-.23.17-.24.2-.2.74q.01.58.16.64c.22.1.68.07.9-.07.18-.12.2-.2.2-.65 0-.48 0-.51-.26-.67q-.25-.16-.41-.16m2.2.08-.05.01c-.18.06-.84.88-.84 1.06q-.01.1.13.16l.06-.02h.27l.24-.02h.1q.07 0 .11.05.02.04.03.1v.05h.04l.13-.01v-.06q0-.06.03-.11a.2.2 0 0 1 .1-.07h.13q.02-.13-.13-.24-.13-.08-.08-.38c.05-.3-.08-.53-.26-.52m-2.2.41h.04c.21.03.29.24.2.53-.06.2-.37.23-.43.04a1 1 0 0 1 0-.36c.03-.16.07-.2.18-.2m2.13.07q.05 0 .02.06l-.02.01q.03 0 .03.05v.01h.02q.03 0 .04.02 0 .04 0 .07l-.02.01-.04.03v.14l-.01.02q-.02.04-.05.05l-.07.01h-.08l-.13-.05q-.02 0-.03-.02-.02-.05.03-.08l.04-.07.06-.08.1-.08.07-.07zm-.03.11-.02.02h.01zm-.05.11-.02.02h.02zm.05.1V30l-.02.06.01-.01v-.08m-.1 0-.03.03q.03 0 .04-.02m.62.46h-.02v.03zm-.07.02v.04l.04-.03zm-.61.04h-.04l-.03.01.05.01zm.18.03-.02.01.02.01zm-1.08 0q-.19 0-.21.2c-.03.18 0 .2.18.19.27-.04.3-.38.03-.38m-.96 3.77c-.26 0-.53.07-.62.2-.13.15-.08 1 .07 1.16q.13.16.45.16c.63 0 .8-.25.69-1.01-.05-.38-.08-.41-.35-.48zm-.11.4h.07c.17.01.2.06.2.37 0 .3-.03.36-.2.38-.16.02-.2-.02-.23-.29-.04-.34 0-.46.16-.47m1.06.9c-.16 0-.26.17-.18.32.05.12.28.14.36.04.09-.11-.04-.36-.18-.36m.95 3.7h-.04q-.15 0-.37.2c-.2.16-.26.3-.3.6-.03.37-.02.4.28.64.36.28.49.3.8.1.51-.32.5-1.1-.02-1.4a1 1 0 0 0-.35-.14m-2 .01a1 1 0 0 0-.28.08 1.1 1.1 0 0 0-.5.79c0 .25.34.7.57.74.53.1.86-.18.88-.77.01-.37-.02-.47-.2-.61q-.25-.23-.47-.23m-.06.4q.05 0 .14.1c.15.16.17.42.04.61q-.1.13-.23.14c-.15 0-.18-.6-.03-.78q.04-.06.08-.06m2.13 0c.1 0 .1.09.08.43q-.03.44-.14.47-.23.08-.18-.52c.02-.26.06-.35.19-.37zm-1.06 1c-.2 0-.31.14-.23.32s.36.08.4-.13q.05-.22-.17-.2m-1 3.75c-.31-.01-.57.15-.62.42-.03.17-.06.18-.74.2q-1.16.02-.72.27.18.1.83.1c.6 0 .65 0 .65.15 0 .09.08.23.2.32.23.2.44.2.78.01.25-.15.26-.18.26-.7 0-.5-.01-.55-.21-.66a1 1 0 0 0-.44-.11m1.98 0c-.38 0-.62.14-.62.36s.26.25.44.06c.16-.16.36-.14.36.03 0 .05-.17.2-.37.33-.62.42-.64.74-.05.8.57.05.67.04.77-.06.15-.14.04-.25-.22-.25q-.45 0 .1-.42c.35-.28.38-.4.12-.67-.14-.14-.26-.18-.53-.18m-1.99.35h.01c.26 0 .38.44.2.71-.15.21-.34.17-.4-.1-.06-.22.06-.6.2-.61m1.06 1.02c-.17 0-.33.14-.27.28.07.14.23.15.38.03q.22-.2-.04-.3zm55.34 4.65c-.22 0-.77.36-.77.51 0 .05.05.14.1.18q.15.08 0 .23c-.2.27-.12.54.21.7.1.04.33.07.5.07.27 0 .37-.03.53-.21.18-.2.19-.25.1-.45-.06-.13-.1-.33-.1-.44 0-.27-.31-.6-.57-.6m8.06 0-.12.02c-.26.05-.6.54-.6.85 0 .27.21.66.41.75.27.12.47.09.7-.12.18-.16.22-.27.22-.63 0-.39-.03-.47-.25-.67-.15-.14-.24-.19-.36-.2m-15.97.08q-.21 0-.44.2c-.22.2-.26.29-.26.6q0 .53.4.76c.05.03.23.05.4.04.26-.02.34-.06.49-.28.14-.2.16-.28.09-.38a.2.2 0 0 1-.1-.08l-.07-.08q-.07-.07-.17-.11l-.19-.07q-.09 0-.18-.02h-.04q-.12-.04-.1-.16 0-.04.03-.07.08-.07.17-.08l.12-.01h.04q.08 0 .14.04.07.03.12.1l.07.1.05.01h.04c.02-.13-.02-.21-.18-.34q-.24-.18-.43-.17m-15.87.06a1 1 0 0 0-.4.1c-.25.15-.28.47-.04.47q.17-.01.28-.11.22-.2.32 0c.03.05-.11.21-.36.4-.38.27-.5.52-.34.65.04.03.29.04.56.03.42-.02.5-.04.5-.16q-.01-.15-.2-.16c-.27-.03-.26-.06.06-.3.35-.26.36-.57.03-.77a1 1 0 0 0-.41-.15m30.77.02q-.06 0-.19.09c-.19.13-.23.35-.09.42.05.02.1.23.1.45 0 .23.02.43.05.46q.08.04.2.03c.21-.03.26-1.27.06-1.4q-.08-.05-.13-.05m-38.95.05c-.3 0-.77.41-.85.75-.07.28.25.83.53.94.46.17.98 0 1.08-.36.2-.76-.13-1.33-.76-1.33m-7 0c-.3.02-.57.15-.57.37 0 .18.24.24.43.1a1 1 0 0 1 .27-.12c.22 0 .09.22-.3.5-.4.3-.48.47-.3.62.14.1.76.12.84.01q.03-.08-.13-.11c-.26-.06-.23-.15.13-.43.37-.28.41-.58.11-.8a1 1 0 0 0-.49-.13m23.4.01c-.15 0-.27.1-.58.48-.35.42-.4.52-.32.64q.1.15.4.14c.17 0 .33.04.36.08q.1.1.3.05-.01-.06.04-.12l.05-.05q.06-.05.1-.05l.05.01q.03-.07.01-.17-.04 0-.1-.03-.09-.05-.1-.14l-.01-.13.01-.14.06-.08-.03-.18c-.01-.23-.06-.29-.21-.3zm-31.39.07q-.15 0-.32.26c-.25.38-.43.49-.64.38-.23-.11-1-.1-1.2.01q-.4.26.58.26c.55 0 .62.02.75.18.08.1.2.18.27.18s.22.06.33.13c.27.19.3.18.51-.04q.2-.18.1-.31a1 1 0 0 1-.09-.46q-.02-.6-.29-.6m46.9.03.13.02.1.03q.02.03.06.04t.03.06l-.01.05q0 .03-.03.05l-.06.05q-.03.03-.07.03l-.05.02q0 .04-.06.03l-.12-.04-.07-.04a.1.1 0 0 1-.07-.1v-.07q0-.04.04-.07l.06-.05zm.03.14.04.02.06.02.03.02h.02l-.05-.02-.07-.03zm-.18 0v.05l.03.01-.02-.03zm-7.75.01h.01v.01m7.82.01.02.02.01.01h.02zm.33 0v.02zm7.8.05c.16 0 .18.05.18.35 0 .28-.03.36-.15.38q-.3.06-.23-.46c.02-.22.06-.27.2-.27m-39.94.03c.17 0 .35.5.27.73-.13.4-.55.3-.55-.14 0-.25.15-.58.28-.59m32 .02-.03.03.03-.01zm-.16.02h.01m-46.98.1h.04c.17-.04.26.12.07.23a.4.4 0 0 1-.08.21l-.05.04q-.08.04-.17.03h-.04q-.16-.1-.08-.25a.4.4 0 0 1 .15-.15l.05-.04q.05-.08.11-.08m31.4.06q.04 0 .06.02.05.03.05.12v.18q-.02.13-.15.13-.08 0-.15-.02l-.03-.01q-.1-.07-.04-.18.02-.08.08-.12l.08-.09zm-24.52.1c-.67-.02-.9.05-.81.23.04.1.17.11.74.1.63-.02.7-.04.7-.17 0-.12-.07-.14-.63-.16m40.2.13c.17 0 .24.13.12.25-.13.12-.32.13-.4.03-.07-.1.11-.28.27-.28m-7.94 0q.15.01.2.16.03.12-.15.12-.2 0-.19-.14.01-.12.13-.13zm7.09 2.06-.1.04c-.1.08-.1.15.08.38.04.06.15.29.24.51.15.39.15.43 0 .66-.07.14-.14.32-.14.4q-.02.16-.14.3-.14.14-.03.23c.2.19.39.07.66-.4.31-.53.3-1.18-.03-1.66q-.33-.47-.54-.46m9.23.01c-.58.03-.95.24-.95.54 0 .17.18.37.39.46h.1l.13.02.15.01.15.01h.14l.15.03.15.02h.19l.13-.06c.12-.05.3-.18.4-.29l.18-.2-.18-.19c-.28-.3-.55-.38-1.13-.35m-9.96.06h-.1c-.2.03-.2.05-.25.76l-.04.74-.56.02q-.55.03-.62-.06c-.04-.05-.06-.3-.04-.55.02-.52-.05-.66-.35-.62-.21.02-.22.04-.24.74-.03.92.01.97.9.93.35-.01.7-.04.77-.06q.14-.04.17.22c.01.13.07.29.12.33.26.25.51-.09.51-.68 0-.4.03-.48.18-.56q.16-.08.18-.2-.01-.1-.18-.15c-.14-.03-.18-.1-.18-.36q.02-.52-.27-.5m-2.66.02c-.17 0-.45.18-.45.31a.5.5 0 0 1-.14.26c-.15.16-.19 1.2-.05 1.28q.09.05.14.25c.04.11.13.24.21.28.33.15.62.02.38-.18-.27-.21-.27-1.55 0-1.94q.1-.16 0-.23zm10.73 0c-.17 0-.18.06-.18.72 0 .26-.02.5-.04.64h.3l.1.02c.05-.26.12-.35.27-.44.26-.15.27-.22.06-.38-.08-.07-.2-.22-.24-.34q-.1-.21-.27-.21m5.87 0c-.15 0-.17.06-.17.73v.73h-.73c-.39 0-.7-.01-.74-.03 0-.03.12-.1.27-.17.55-.27.92-1 .6-1.2-.16-.1-1.23-.05-1.33.07q-.23.3.45.39c.43.05.46.12.13.32q-.36.24-.6.3v.07l-.02.1.01.12q.13.06.14.19c0 .2.29.27 1.06.27h.72v.2c0 .21.2.4.34.33.14-.06.21-.56.11-.76-.12-.26.03-.67.26-.72s.23-.3 0-.4a.6.6 0 0 1-.25-.3q-.07-.24-.25-.23m-7.83.04c-.11 0-.13.11-.1.61q.02.6.14.67c.2.1 1.13.08 1.25-.03.13-.13.19-.87.08-1.08s-.33-.21-.43.01q-.09.18-.3.18a.5.5 0 0 1-.36-.18c-.08-.1-.21-.18-.28-.18m-45.54.01q-.03 0-.07.02c-.12.03-.14.2-.14 1.24 0 .65.02 1.21.06 1.24.2.16.38-.12.38-.63 0-.35.03-.4.22-.46a1 1 0 0 0 .27-.14c.09-.1-.12-.28-.32-.28-.14 0-.17-.06-.17-.41q0-.59-.23-.58m.84.01-.08.04c-.09.06-.06.17.13.53.3.55.3.82.01 1.4-.12.25-.2.5-.18.55q.04.08.13.09c.13 0 .54-.43.54-.56a.3.3 0 0 1 .1-.2c.14-.11.13-1 0-1.1a.3.3 0 0 1-.1-.21c0-.07-.12-.23-.26-.36q-.2-.18-.29-.18m-3.44.06h-.07c-.25.04-.6.66-.64 1.16-.03.33.01.52.16.82.1.21.24.41.3.44s.15.05.22.05c.16 0 .08-.53-.12-.84a1 1 0 0 1-.14-.4c0-.1.07-.27.14-.39s.16-.35.2-.53c.03-.24.03-.3-.05-.31m52.12.13c.26 0 .52.08.52.23 0 .11-.07.13-.49.13q-.78 0-.44-.24a1 1 0 0 1 .4-.12m-50.49.05h-.15c-.91.08-.98.1-.95.26.03.14.1.16.5.18.34.01.47.05.47.12 0 .2-.45.68-.77.83-.31.14-.42.43-.2.5.33.1 1.33-.73 1.44-1.19l.11-.36c.08-.2-.1-.34-.45-.34m47.12.46h.04q.14.04.15.13-.02.1-.15.13-.16.03-.16-.13 0-.13.12-.13m2.58.27c-.46.04-.52.06-.55.2q-.03.14.1.2.02-.03.08-.04h.29l.38.02h.12l.13-.02.16-.01h.19l.21.02a7 7 0 0 0 .78.01l.2-.02.18-.02-.03-.2-.13-.04-.15-.04-.05.01h-.32l-.13.01-.13.01-.13.02-.3-.02-.14-.03h-.14l-.16-.01-.14-.01-.13-.02h-.13q-.05 0-.06-.02m2.4.13h-.03l.01.07zm-3.92.33c-.08.02-.36.04-.65.04-.33 0-.63.04-.69.09-.13.1-.14.51-.02.7.09.12.2.13.99.13.71 0 .9-.02.94-.1.1-.23-.14-.32-.83-.32-.52 0-.65-.02-.65-.1 0-.1.13-.11.67-.11.35 0 .64-.03.67-.05q0-.15.03-.26l-.11-.02h-.2zm2.23.01-.14.01-.13.02h-.15l-.37-.01h-.17q.01.07-.02.3c-.04.28-.02.38.11.5.14.11.27.13.97.13.45 0 .87-.03.95-.07q.13-.05.13-.49 0-.26.02-.35a2 2 0 0 1-.4.01h-.2l-.2-.02-.22-.02zm.06.39c.29 0 .52.03.54.06v.01c-.01.04-.23.07-.49.07s-.5-.03-.54-.07q-.03-.07.49-.07" style="fill:#000"/></svg>