<svg xmlns="http://www.w3.org/2000/svg" xml:space="preserve" width="120mm" height="60mm" viewBox="0 0 120 60"><path d="m132.84 44.51 61.9 27.13" style="opacity:1;fill:#000;fill-opacity:.920746"/><path d="M35.4 56.13c0-.18.06-.42.14-.54s.32-.55.52-.97c.2-.4.48-.9.61-1.07.13-.19.24-.5.24-.7 0-.4.4-1.42.77-1.92.14-.18.24-.55.24-.82s.12-.6.25-.73c.14-.13.25-.41.25-.63 0-.21.14-.47.29-.56.26-.16.27-.12.18.37-.07.42-.04.55.17.6.15.05.35 0 .46-.12s.56-.32.98-.46c.43-.14.83-.32.9-.4.09-.1 1.4-.58 4.36-1.6.44-.15 3.62-.9 4.8-1.15 1.69-.34 2.6-.45 4.2-.54 1.99-.1 1.97.1-.02.32a40 40 0 0 0-5.7.94c-1.92.35-3.95 1-4 1.28-.06.26 1.32 1.3 3.29 2.5 1.21.75 1.57.79 3.58.4 1.28-.26 2.53-.42 4.95-.63a7 7 0 0 0 1.56-.26q.23-.15.26-1.03c.01-.49.07-1.31.13-1.82.1-.9.11-.85.25.96.12 1.59.18 1.9.42 1.96.15.03 1.26.12 2.46.2 2.63.15 4 .3 4.45.48a6 6 0 0 0 1.44.14c.86 0 1.1-.05 1.1-.19 0-.1.17-.24.36-.32.2-.08.65-.34 1.02-.58 1.06-.71.92-.4-.2.46-.94.71-1.18 1.12-.66 1.12a30 30 0 0 1 3.65 1.21c1.24.46 1.63.54 1.97.46.73-.18 3.81-2.28 3.81-2.6 0-.18-.15-.25-1.63-.8a9 9 0 0 1-1.06-.45 19 19 0 0 0-2.85-1.06 4 4 0 0 0-1.03.58c-1.02.7-1.53.68-.57-.03.78-.58.98-.87.69-1-.34-.16-2.32-.66-3.66-.94a8 8 0 0 1-1.52-.41 3 3 0 0 0-.92-.24l-2.53-.27c-3.36-.36-3.94-.36-4.52-.05l-.5.28-.28-.27c-.21-.21-.43-.27-.9-.24a2 2 0 0 1-.73-.06c-.31-.23.91-.27 4.1-.13 3.28.14 5.83.43 6.04.68a28.41 28.41 0 0 1 4.86 1.17c.2.09.6.2.9.25s.66.15.78.25c.12.09.74.35 1.39.59 2.4.88 3.03 1.13 3.48 1.36.42.22.48.22.57.05.06-.11-.02-.3-.17-.43a.8.8 0 0 1-.27-.55c0-.18-.08-.36-.17-.4s-.17-.24-.17-.44-.11-.55-.24-.77a76 76 0 0 1-2.14-4.77 6 6 0 0 0-.48-1 6 6 0 0 1-.51-1.06 5 5 0 0 0-.7-1.26l-.32-.34-15.2.05-15.2.06-.39.27c-.21.15-.39.4-.39.56 0 .3-.56 1.72-.94 2.38a2 2 0 0 0-.24.75c0 .18-.12.48-.25.65s-.24.44-.25.6c0 .16-.1.47-.23.69-.25.43-.7 1.51-.92 2.19-.15.48-.54.67-.54.27 0-.14.11-.47.24-.73s.29-.64.34-.84.21-.54.34-.75.33-.71.44-1.12c.23-.86.61-1.8 1.33-3.3.28-.59.5-1.18.51-1.33.01-.6.84-1.62 2.05-2.55a16 16 0 0 1 5.88-3.12c3.85-1.23 5.08-1.43 8.76-1.39 2.12.02 2.69.07 4.23.39 1.8.37 2.05.44 4.37 1.24q1.78.62 3.7 1.82c.63.39 2.2 1.81 2.2 1.99 0 .06.21.31.47.56.27.25.62.85.8 1.33.16.48.39.98.5 1.12s.33.58.5 1l.44 1c.07.13.19.44.25.68s.17.5.24.56.3.54.5 1.06c.4 1 .8 1.9 1.02 2.3.08.14.19.42.24.63.06.2.2.54.33.74.34.56.78 1.54 1.04 2.31.13.38.4 1 .6 1.37s.43.91.53 1.19.23.6.31.74c.32.56 1.14 2.5 1.08 2.54-.33.24-1-.9-1.87-3.2-.13-.32-.62-.12-1.63.66-.57.45-1.13.81-1.25.81-.24 0-2.63-1.09-3.13-1.42-.16-.1-.38-.2-.47-.2-.25 0-1.52-.48-2-.76a2 2 0 0 0-.65-.23c-.13 0-.48-.08-.78-.18-1.8-.6-5.43-1.27-7.83-1.44-6.92-.5-12.81.43-20.14 3.2-.82.3-1.52.53-1.56.5-.04-.02.16-.2.43-.4.28-.2.5-.4.5-.47s-.56-.54-1.24-1.07a32 32 0 0 1-1.62-1.3c-.48-.46-.72-.43-1.04.13-.7 1.23-.7 1.59-.02 2.12l.87.7c.4.32.7.45 1.06.45.54 0 .59.2.1.42-.2.1-.48-.03-1.31-.65a5 5 0 0 0-1.29-.77c-.3 0-.9 1.03-1.53 2.61-.34.84-.71 1.15-.71.58M79 53.05c.58-.42 1.1-.87 1.15-1 .14-.33-.43-1.6-.71-1.6-.2 0-.75.31-1.74 1l-1.15.68c-.48.27-.88.59-.88.71 0 .13.27.32.66.47.37.14.71.3.77.38q.4.46 1.9-.64m-34.18-.93c.6-.23 1.17-.42 1.26-.42.3 0 2.62-.8 2.62-.9 0-.05-.4-.36-.88-.69-.49-.32-1.45-1-2.14-1.5-1.39-1-1.66-1.06-2.8-.65-1 .37-2.13.85-2.43 1.04-.14.1-.42.21-.62.26-.52.11-.78.39-.66.68.14.32 3.03 2.48 3.51 2.63s.8.07 2.14-.45m28.74-14.5c.3-.7-3.67-3.46-6.26-4.33a5 5 0 0 1-.99-.42c-.05-.06-.26-.12-.46-.12s-.89-.13-1.54-.3c-2.04-.5-3.13-.63-5.41-.63-3.62 0-6.5.53-9.44 1.76l-1.9.78c-.46.18-3.03 2.07-3.7 2.72-.85.82-1.65.78 14.8.78 14.47 0 14.8 0 14.9-.24M38.94 47.67c0-.16.1-.4.24-.53.25-.24.25-.24.25 0 0 .38-.18.82-.35.82-.08 0-.14-.13-.14-.3m15.45-19.93c-.29-.16-.3-.46-.3-4.76 0-2.53.07-4.65.15-4.7.08-.07.83-.1 1.65-.08l1.5.03.05 4.63c.04 4.15.01 4.64-.23 4.8-.4.24-2.43.3-2.82.08m4.9 0c-.26-.14-.3-.61-.3-4.75-.01-2.63.05-4.65.13-4.71.09-.07.83-.1 1.66-.08l1.5.03v4.71c0 4.05-.03 4.73-.25 4.83a7 7 0 0 1-2.75-.03m-4.8-10.58c-.29-.08-.36-.22-.41-.8-.03-.39-.01-.76.04-.82.05-.07.4.18.76.54.48.47.8.67 1.13.7q1 .09.2-.9c-.37-.47-.42-.61-.25-.76.12-.1.31-.19.43-.19.39 0 .41-.2.06-.48-.43-.34-1.16-.34-1.75 0-.38.22-.49.24-.6.1-.1-.1-.16-.22-.16-.27 0-.19-.46-.1-.76.15-.6.5-1.07.34-2.77-.92-1.02-.76-1.54-1.24-1.48-1.36.05-.1.73-.57 1.5-1.05s1.82-1.16 2.33-1.51c.5-.35 1.19-.7 1.51-.77.38-.09 2.04-.12 4.57-.1l3.98.04.95.55c2 1.13 3.84 2.41 3.79 2.62-.06.22-3.22 2.5-3.48 2.5a3 3 0 0 1-.8-.37c-.35-.21-.72-.36-.82-.34-.11.03-.2.65-.23 1.66a7 7 0 0 1-.17 1.7c-.17.11-7.16.2-7.58.08m5.98-.76c.93-.72 1.15-1.56.52-2.05a1.5 1.5 0 0 0-1.62-.1q-.77.41.13.66c.6.16.63.32.17.83-.34.38-.44.82-.23.98.23.16.5.07 1.03-.32m-6.87-4.15c0-.52-.07-.93-.16-.93-.3 0-1.36.77-1.35.98 0 .18 1.08.87 1.38.88.07 0 .13-.41.13-.93m9.99.29c.25-.13.46-.3.45-.39 0-.18-1.13-.83-1.43-.83-.24 0-.48 1-.33 1.38q.18.44 1.3-.16m-17.13 4.3c-.25-.05-.3-.14-.21-.43.08-.3-.08-.55-.92-1.45a6 6 0 0 1-1.79-3.46q-.17-1.18.73-1.03c.28.04.37.25 1.05 2.47.21.7 1.19 2.1 1.6 2.3.22.11.51.16.65.12.32-.09.8.26.8.57 0 .12.05.3.1.4.23.45-.88.72-2.01.5m21.85 0c-.25-.07-.29-1.13-.06-1.4q.16-.16.62-.1c.58.08 1.12-.31 1.79-1.3.5-.73 1.14-2.4 1.15-2.94q0-.71.68-.63.9.1.51 1.43a6.5 6.5 0 0 1-2.26 3.45c-.56.44-.63.57-.54.92s.05.42-.34.53c-.46.13-1.2.15-1.55.04M55.79 8.21a4.4 4.4 0 0 1-2.2-1.35c-.1-.08-.38-.15-.64-.15-.68 0-.87-.22-.87-1.03 0-.68.03-.73.47-.86.25-.07.7-.1 1-.06.58.06.79-.05.95-.56.17-.51.87-1 1.42-.96.27.01.78-.09 1.15-.23q.66-.25 1-.16a8 8 0 0 0 .98.18c.78.1 1.9.8 2.05 1.3.1.33.16.36 1.13.4 1.2.07 1.48.27 1.48 1.01s-.23.97-1.02.97c-.48 0-.75.07-.96.27-1.46 1.35-3.67 1.8-5.94 1.23m3.56-.65a3.2 3.2 0 0 0 1.72-1.1c.16-.25.36-.33.96-.38.62-.05.76-.1.76-.3 0-.24-.18-.27-2.62-.4-1.43-.08-2.89-.2-3.23-.26-.47-.1-.67-.09-.85.05-.13.1-.76.2-1.4.25-1.43.1-1.87.23-1.59.49.11.1.38.17.6.17.28 0 .49.15.77.53.56.75 1.52 1.1 3.1 1.1.66 0 1.46-.07 1.78-.15" style="fill:#000"/></svg>