<svg xmlns="http://www.w3.org/2000/svg" xml:space="preserve" width="120mm" height="60mm" viewBox="0 0 120 60"><path d="m132.84 44.51 61.9 27.13" style="opacity:1;fill:#000;fill-opacity:.920746"/><path d="M87.84 55.42c-.06-.18-.18-.97-.27-1.75a8 8 0 0 0-.35-1.78c-.1-.2-.15-.44-.09-.53.14-.22 1.09-.23 1.22-.01.06.09.1.68.12 1.32 0 .63.08 1.15.16 1.15.33 0 1.24-1.58 1.19-2.06-.05-.41.02-.5.43-.54.3-.03.52.04.58.2.11.3-2.38 4.33-2.68 4.33-.11 0-.25-.15-.31-.33m4.12-6.16c-.19-.35-.4-.35-29.79-.4l-29.6-.04.01-20.33V8.17l-.37-.4c-.37-.4-.37-.42-.08-1.6.16-.66.37-1.31.47-1.45.27-.42.6.18.94 1.63l.28 1.26-.44.32-.44.33V28.1c0 12.2.06 19.95.17 20.1.14.24 3.56.26 29.38.21 24.81-.05 29.25-.1 29.48-.3.37-.33.87-.31 2.36.07 1.29.33 1.6.69.8.9-2.23.63-2.91.66-3.17.18m-49-6.6c-1.01-1.29.34-3.1 1.76-2.34.19.1.34.37.34.61 0 .48-.45.79-1.13.79q-.74 0-.24.49.42.43.91-.06c.15-.15.36-.23.45-.17.52.32-.29 1.14-1.12 1.14-.44 0-.7-.12-.97-.46M44 40.92q-.02-.24-.18-.16c-.1.06-.13.18-.07.27q.24.36.25-.11m40.6 1.98c-.3-.3-.24-1.02.11-1.3q.34-.27.1-.34c-.42-.17-.24-.75.31-1.04.5-.25.58-.25.97 0 .35.23.42.42.42 1.14 0 .48.09.92.19.98s.16.24.13.4c-.04.22-.29.3-1.04.32-.56.03-1.07-.04-1.18-.16m1.18-.84c-.04-.1-.14-.2-.23-.2-.1 0-.2.1-.23.2-.04.1.07.19.23.19q.26-.02.23-.2m-.06-1.19c0-.32-.34-.26-.4.07q-.06.27.17.22c.13-.05.23-.18.23-.29m-38.9 1.02c-.48-.47-.46-1.3.03-1.65.57-.4 1.14-.34 1.58.16l.38.44h5.8c5.38 0 5.9-.04 6.78-.36 2.06-.75 2.18-.75 2.31-.08.07.35.23.36 7.53.4 4.1.03 7.59 0 7.73-.07.3-.13.26-.14-2.99-.92-1.2-.28-2.86-.77-3.68-1.07-2.23-.82-2.49-.9-3.25-1.06-.4-.08-1.14-.3-1.67-.5l-2.17-.79c-1.3-.47-1.47-.57-1.28-.75.13-.14 1.49.3 3.89 1.26 1.3.52 2.75 1 4.21 1.39.87.23 2.18.59 2.9.8.72.2 1.63.45 2.02.53 1.48.32 2.3.51 2.9.69.91.27 1.2.23 1.68-.26.59-.58.54-1.64-.15-3.42-.66-1.7-.68-1.96-.13-2.1.33-.07.46-.23.5-.63s-.11-.7-.66-1.3a6 6 0 0 1-.7-.88c0-.04.37-.27.82-.49q1.49-.71 2 .4c.18.39.16.53-.17.93-.85 1.06-.89 1.68-.12 1.97.55.21.55.44 0 1.7-.27.59-.5 1.5-.56 2.17-.1 1.11-.08 1.17.48 1.8.57.66.58.67.29 1.27-.16.33-.4.6-.54.6s-.38.05-.52.1c-.17.07-.44-.07-.7-.35l-.42-.45h-17.1l-.17.46c-.2.52-.48.51-2.1-.1-.9-.33-1.37-.35-6.77-.36h-5.81l-.6.44c-.72.53-1.11.55-1.58.08m15.08-5.72a21 21 0 0 0-1.43-1.31l-1.18-1.02 1.97.1c1.09.06 2.02.15 2.07.2.19.16.12 1.62-.08 1.62-.1 0-.33.16-.5.35-.36.43-.54.44-.85.06m23.01-2.73c-.52-.2-.67-.45-.68-1.13 0-.94.27-1.4 1.02-1.69.6-.24.68-.33.6-.74-.08-.42-.04-.46.42-.4l.5.05v3.86l-.72.1c-.4.05-.92.03-1.14-.05m.99-1.38c0-.6-.07-.78-.3-.83-.5-.1-.75.78-.4 1.32.4.61.7.41.7-.49m-28.46 1.25c-.05-.1-.4-.3-.75-.47a110 110 0 0 1-5.45-2.65c-.22-.15-.36-.3-.32-.35.05-.04 1.1.43 2.34 1.05a49 49 0 0 0 3.21 1.52c.15.1.6.3 1.01.48s.75.37.75.45c0 .2-.66.17-.79-.03m20.82-1.94a20 20 0 0 1-2.9-.97c-.3-.13-.99-.39-1.55-.57-.92-.3-1.67-.74-1.25-.73.33 0 3.65 1.2 3.83 1.39.1.1.38.19.63.19s.88.16 1.41.34 1.1.35 1.27.35.34.08.4.18c.16.25-.5.18-1.84-.18m-35.02-1.42c-.21-.3-.3-.8-.3-1.85 0-.8-.07-1.49-.17-1.55-.3-.19 0-.44.53-.44.44 0 .51.08.56.57.05.5.12.58.62.63.7.07 1.1.59 1.1 1.44 0 .78-.56 1.37-1.44 1.51-.51.08-.67.03-.9-.3m1.43-.94c.03-.3-.07-.69-.22-.88-.23-.3-.29-.31-.44-.09-.2.3-.24 1.29-.06 1.47.27.27.67 0 .72-.5m5.16.5c-.4-.27-.6-.27-2.1.04-1.16.23-1.71-1.03-.82-1.86.42-.4.44-.51.4-1.91-.06-1.43-.08-1.5-.5-1.6-.56-.13-.54-.54.07-2.19.38-1.02.45-1.53.46-3.01 0-1 .08-1.84.18-1.9.1-.07.17.53.17 1.66a9 9 0 0 0 .99 4.44c.31.56.12.95-.5 1.04-.35.05-.37.15-.36 1.5.02 1.37.06 1.5.56 2.07.3.34.54.69.54.78s.4.37.88.61c.48.25.88.48.88.53 0 .18-.47.07-.85-.2m21.38-.76c-.24-.2-.32-.35-.19-.35.26 0 1.27.48 1.27.61 0 .22-.71.05-1.08-.26m-1.03-.47c-.15-.05-.66-.27-1.14-.49-1.13-.5-2.65-.96-3.43-1.02-.5-.03-.66-.14-.86-.6s-.62-.76-2.18-1.58a41 41 0 0 1-2.48-1.37c-.3-.2-.9-.54-1.33-.77a7 7 0 0 1-1.06-.64c-.15-.13-.74-.5-1.32-.8-.57-.3-1.35-.76-1.73-1.01l-1.4-.9a31 31 0 0 1-3-1.94 8 8 0 0 0-1.3-.77c-.68-.3-.76-.3-1.05-.04-.3.27-.35.25-.88-.29-.88-.9-.64-2.05.43-2.05.7 0 1.1.31 1.29 1.03.13.48.39.82.93 1.2.4.29.82.56.92.6s.87.54 1.72 1.12 1.78 1.18 2.07 1.34c.3.16 1.22.72 2.06 1.23a21 21 0 0 0 2.67 1.55c.24.11.47.26.52.34a40 40 0 0 0 5.34 2.82c.13 0 .41-.2.64-.44s.46-.44.52-.44.35.32.63.71a8 8 0 0 0 2.85 2.56c.5.24.92.51.92.6q0 .15-.05.15zm-26.86-12.3c-.5-.4-.74-1.29-.49-1.8.12-.22.43-.56.7-.76.45-.33.53-.34.96-.1.54.3.74.87.31.87-.15 0-.43-.1-.63-.22-.3-.18-.38-.17-.52.04-.27.42-.2.98.15 1.3.28.25.35.25.65.02.46-.34.6-.33.6.08 0 .37-.61.88-1.07.88-.16 0-.46-.13-.66-.3m-17.06-3.3c0-.15.29-1.07.64-2.04.13-.37.24-.9.24-1.17 0-.3.11-.55.28-.61a4 4 0 0 1 2.08.07c.38.14.45.28.45.86 0 .6-.08.74-.63 1.07q-.62.4-1.12.29c-.48-.1-.5-.07-.65.72-.14.77-.2.83-.72.88-.31.03-.57 0-.57-.07m2.63-2.43c.3-.35.1-.8-.34-.8-.2 0-.36.06-.36.14 0 .07-.05.3-.1.52-.1.32-.04.4.24.4.19 0 .44-.12.56-.26" style="fill:#000"/></svg>