<svg xmlns="http://www.w3.org/2000/svg" xml:space="preserve" width="120mm" height="60mm" viewBox="0 0 120 60"><path d="m132.84 44.51 61.9 27.13" style="opacity:1;fill:#000;fill-opacity:.920746"/><path d="M77.4 5.94q-1.67 0-2.41.95c-.67.85-.4 1.82.71 2.52.96.6 3.37.17 2.94-.53q-.12-.2-.46 0c-.18.1-.7.15-1.13.13-.68-.05-.84-.13-1.1-.58-.25-.45-.27-.62-.1-1.08.29-.77.94-.96 1.78-.53q1.09.56 1.08-.15c0-.53-.36-.73-1.32-.73m-24.01.95-.05 2.2a10 10 0 0 0 .13 2.53c.2.38.21.39.59.24.2-.08.27-.35.27-1.1q0-1 .25-1.2c.33-.27.33-.6.01-.86-.13-.11-.27-.57-.3-1-.04-.74-.09-.81-.48-.81zm3.16.07c-.35 0-.67.06-.84.17-.3.19-.13.7.23.7q.1 0 .16.03l.08-.01.15-.02h.02q.1.01.1.08h.05l.06-.05c.11-.07.3-.13.47-.13q.14-.01.23.04c.08.05.1.16.04.25-.1.16-.5.2-.72.1a1 1 0 0 1-.26.03h-.26l-.2.08c-.4.1-.47.95-.2 1.48l.3.02h.35l.37.02.4.02.35.01a6 6 0 0 0 .93 0q-.02-.07.07-.12l-.02-.06.01-.1V9.5l-.01-.08v-.03l-.04-.06q0-.04-.04-.09l-.06-.08q-.03.04-.1.04h-.07l-1.32-.03h-.3c-.15 0-.15-.17 0-.17h.3a8 8 0 0 1 .85.03h.34q-.01-.07.12-.1h.09l.01-.14.02-.26.04-.35a4 4 0 0 0 .06-.63v-.08l-.19-.14c-.28-.23-.98-.36-1.57-.36m-10 .02c-.7.02-1.44.09-1.68.2q-.25.1-.4.29l.01.5.03.04a2 2 0 0 1 .2.46l.05.03q.11.08.2.17.07.1.17.17l.11.09q.06.04.06.1.12.07.05.13.04.06-.05.07h-.2q-.06 0-.08-.02l-.12-.01-.26.01c-.58 0-1.16.39-.99.66.07.11.44.2.83.2h.71l-.55.48c-.54.45-.55.48-.28.87.16.22.45.46.65.55.2.08.86.15 1.47.15 1.86.02 2.8-.87 1.78-1.68l-.43-.35.65-.05c.51-.04.65-.12.65-.4 0-.26-.14-.36-.56-.4-.3-.03-.54-.08-.55-.12l.02-.06h-.02q0 .07-.13.08l-.09-.01c-.14-.02-.14-.14-.04-.16q0-.05.07-.1l.17-.13.08-.08.03-.03q.05-.05.1-.05l.03-.03.17-.23.07-.09a.9.9 0 0 0-.36-1.12c-.15-.1-.85-.14-1.56-.13m13 .02a.5.5 0 0 0-.3.13q.02.03.01.1 0 .16-.1.28l-.06.04-.06.01h-.11a.3.3 0 0 1-.23.08l-.03.09-.02.03-.02.03V8h.01q.04 0 .1.04l.05.05.02.03.21.01q.17.03.24.2l-.01.07q-.07.1-.18.11h-.1l-.06.01-.24.02-.1.08v.45q.03 0 .05.02.06.01.09.06.05.02.07.1v.04q.1 0 .17.08v.02h.13c.2 0 .36.07.36.16 0 .2-.14.3-.3.24l-.08.02h-.13l-.06.02h-.03l-.28.08a3 3 0 0 1-1.15.03l-.33-.01-.4-.02h-.37l-.35-.02-.2-.01.1.1c.18.17.3.37.25.45-.18.3.63.5 1.96.5 1.32 0 1.37.02 1.37.4 0 .22.05.46.12.52.18.19.57.13.65-.1.04-.12.02-1.22-.05-2.45-.11-2.13-.14-2.24-.5-2.3zm-16.73.06c-.33 0-.35.13-.4 2.23-.02 1.22 0 2.33.04 2.45.14.36.6.26.7-.16.05-.22.07-1.32.05-2.45-.05-1.94-.07-2.07-.4-2.07m-2.93.24q-.55.02-1.07.66a2 2 0 0 0 .53 3.08c.5.28.59.28 1.05.04.88-.46 1.14-.86 1.14-1.78 0-.76-.08-.96-.53-1.43q-.58-.6-1.12-.57m11.28.1c-.58 0-1.17.08-1.28.27-.24.37-.2 2.8.04 3.06.12.11.68.2 1.34.2.89 0 1.17-.06 1.25-.27.16-.43.11-2.71-.07-3-.11-.18-.7-.27-1.28-.27m-4.9.09q.5 0 1.01.19c.46.17.47.19.15.43-.53.39-2.14.25-2.14-.18 0-.28.44-.44.98-.44m39.86.17.03 1.77.05 1.8c0 .03.58.05 1.29.05 1.48 0 2.45-.39 2.77-1.12.27-.59.26-.86-.04-1.45-.38-.73-1.2-1.05-2.76-1.05zm-29.7.3-.04.03h.06zm-4.66.02v2.26H50.4v-.93c0-1.03.01-1.04.81-1.21zm-11.87.04q.23 0 .5.3c.33.37.38 1.58.08 1.89a.8.8 0 0 1-.48.2c-.63 0-.89-.96-.51-1.96q.15-.42.41-.43m47.6.24.56.03c.76.04 1.22.5 1.22 1.2q.02.58-.38.82c-.21.14-.6.3-.85.37-.59.15-.68-.06-.6-1.4zm-28.46.05v.04l.04-.02zm.05.04.01.03zm-10.93.48h-.01l-.04.03-.01.02.04-.01q0-.03.02-.04m-1.45.06q.1.01.1.08c.1.03.08.14-.03.15q.03.05-.06.06h-.05l-.11.02-.15.02-.23.01q-.07 0-.06-.06h-.02c-.07.03-.1-.05-.02-.07h.02c-.13 0-.15-.14 0-.17l.28-.03.19.01h.02l.06-.01h.03zM58.37 9v.02l.04.04V9zM92 9.04c-.1 0-.24.2-.33.43-.09.24-.24.43-.33.43-.16 0-.26.16-1.01 1.64-.65 1.28-.91 1.3-4.12.46a43 43 0 0 0-15.05-.91c-2.01.24-6.75 1.44-7.9 2-.3.14-.6.25-.65.25-.31 0-3.15 1.4-3.3 1.62-.05.08.18.1.52.03.33-.06.65-.04.7.04s-.1.64-.35 1.24c-.42 1.05-.42 1.1-.12 1.31.18.12.42.3.53.4.17.15.22 1.47.22 5.5v5.3l-.45.2c-.5.23-.5.37.09 1.91.2.52.32 1.05.28 1.16-.11.3-1.91.28-4.36-.04-2.97-.4-3.45-.53-7.07-1.97-1.48-.59-5.2-2.66-5.2-2.9 0-.05.12-.23.28-.4.4-.46.2-.56-.41-.2-.52.3-.52.3-1.48-.37a4 4 0 0 1-.95-.81c0-.08-.12-.15-.26-.15-.51 0-.22.45.77 1.2a4 4 0 0 1 1.02.97c0 .22-1.5 2.28-1.93 2.63-.3.25-.39.71-.13.71.16 0 1.55-1.6 1.55-1.8 0-.24.62-.76 1.05-.87.35-.09.84.1 2.22.82 3.39 1.8 8.03 3.4 9.9 3.4.5 0 1.28.12 1.75.25.84.25 3.27.26 5.03.03 1.94-.26 4.05-.68 4.47-.9.25-.13.65-.24.88-.24.24 0 .47-.07.52-.15.05-.09.3-.21.56-.27 1.2-.3 4.43-1.98 6.62-3.42a33 33 0 0 0 5.33-4.2c.82-.78 1.5-1.42 1.52-1.42.29-.02 5.68-6.19 5.68-6.5s1.38-1.6 1.8-1.7c.45-.1 1.87.36 3.79 1.24.91.42 1.57.53 1.57.27 0-.17-1.37-.79-3.9-1.76-.6-.23-1.12-.5-1.16-.62-.05-.11.27-.71.7-1.33s.78-1.18.78-1.24c0-.05.15-.3.34-.53.33-.42.32-.74-.01-.74m-46.91.07-.02.03h.02l.04-.02zm1.43 0-.01.02h.02zm12.05.21v.1q0-.04.03-.06v-.02zm.3.31-.02.01h.08zm-25.05.1c-.18 0-.04 21.57.13 21.86.05.07.09 4.26.1 9.3.02 5.06.06 9.25.1 9.31.1.17 40.4-.03 41.15-.2.33-.08-2.45-.15-6.28-.16-4.53-.01-6.99-.08-7.21-.2q-.34-.2-.84-.01c-.31.1-3.5.17-8.47.17-4.39 0-8.25 0-8.58.02l-4.79.1c-3.3.07-4.23.04-4.38-.14-.29-.35-.55-12.94-.55-26.9 0-6.94-.04-12.73-.1-12.88s-.18-.27-.28-.27m12.7 1.01c.6 0 1.19.18 1.11.41s-2.02.4-2.22.2c-.24-.25-.11-.38.52-.54q.28-.07.59-.07m30.74.59c2.98.07 7.77.58 8.26.88.1.07.86.3 1.68.5 1.95.51 2 .74.55 2.43a9 9 0 0 0-1.02 1.32c0 .2-2.01 2.4-4.64 5.1-2.61 2.67-4 3.74-4.67 3.61-.36-.07-.44 0-.58.54-.15.54-.38.76-1.83 1.66-2.1 1.3-3.98 2.3-4.32 2.31-.15 0-.36.1-.47.21-.32.33-3.24 1.35-4.98 1.75-1.54.35-3.52.53-3.64.32-.06-.09.01-.58.16-1.09.49-1.74.49-1.68 0-1.86l-.44-.17-.04-2.29c-.02-1.25-.02-3.7 0-5.44.04-3.02.06-3.17.41-3.46l.38-.3-.3-1.02a9 9 0 0 1-.34-1.52c-.02-.46.05-.54.64-.74a33.67 33.67 0 0 1 5.3-1.73 33 33 0 0 1 9.9-1.01m-45.93 1q-.15 0-.36.28-.38.47-.73.35v.77a1 1 0 0 1 .21-.04c.2 0 .34.07.34.17s-.15.17-.34.17l-.2-.03v.55q.04 0 .07.03.03.04.04.07l.04.05.04-.06.11-.03c.2 0 .44.29.39.54q-.1.39-.28.37 0 .04-.08.04h-2.01l-.16.05c-.82.23-.96.42-.5.66.24.14.8.18 1.57.12 1.18-.08 1.19-.08 1.37.41.2.55.78.69.82.2l.02-2.34c0-1.65-.1-2.35-.36-2.34m-2.91.16c-.67.03-1.3.14-1.3.34q-.02.26.82.34c1.01.1 1.07.41.09.48-.88.07-1.16.28-1.16.88 0 .67.3.87 1.27.9H29l-.03.02h1.16v-.27l.01-.34-.26-.07q-.1.13-.82.12c-1 0-1.63-.24-1.14-.43q.18-.07.49-.07c.47-.02 1.07.06 1.35.18l.11-.01.27-.01v-.62l-.03-.07.01-.05v-.9l-.18-.18c-.16-.19-.86-.26-1.52-.24m-3 0-.19.02-.44.06-.03 2.23c-.02 1.23.04 2.34.12 2.46.39.54.8 0 .8-1.06 0-.62.1-.96.34-1.23l.35-.37-.35-.44a2 2 0 0 1-.34-1.07c0-.47-.03-.6-.25-.6m51.33.42c-.26 0-.35.13-.4.59-.03.34.04.64.17.72.35.21.68-.2.62-.78-.04-.4-.13-.53-.39-.53M22.42 13c-1.3 0-1.34.01-1.45.44-.12.5 0 2.36.19 2.65.07.12.62.17 1.5.14l1.4-.05.05-1.35c.03-.85-.03-1.44-.15-1.6-.14-.16-.6-.23-1.54-.23m.26.51c.34.01.45.36.4 1.16-.04.97-.06 1-.56 1.05-.68.06-.76-.04-.76-1.03 0-.72.05-.87.41-1.03q.32-.15.51-.15m7.46 1.15h-.03zm.21.28.02.1v-.08zm58.93.12c-.27 0-.34.12-.34.58 0 .31.05.62.12.68.18.19.32.14.64-.21.23-.26.25-.4.1-.69-.1-.2-.34-.36-.52-.36m-30.76.17c-.23 0-.47.09-.54.2-.06.1-.39.3-.72.44-.34.14-1.02.52-1.52.84-1.26.82-1.5.78-1.84-.28-.2-.62-.41-.92-.71-1.03-.7-.28-.91-.2-.91.32 0 .49.8 1.42 1.4 1.63.48.17.35.53-.32.9-.34.18-.86.56-1.15.84a14 14 0 0 1-1.35 1.1c-.45.3-.95.7-1.11.87-.16.16-.6.52-.96.8-.9.7-3.67 3.49-3.67 3.7 0 .34.58-.14 2.13-1.73.84-.87 1.8-1.76 2.13-1.97.33-.22 1.06-.82 1.62-1.35a7 7 0 0 1 1.17-.97c.18 0 2.54-1.56 2.69-1.77.1-.15.5-.38 2.67-1.54 1.35-.72 1.63-1 1-1m18.12.06q-.33 0-.32.74c0 .53.05.6.39.55.49-.07.65-1.06.2-1.24a1 1 0 0 0-.27-.05m-46.24.08-.01.08h.01v-.01l.01-.06m-.12.03v.02zm-.04.03v.02zm59.14 2.04c-.5 0-.71.51-.44 1.03.2.39.2.39.59.24q.26-.1.27-.69c0-.5-.06-.58-.42-.58m-12.74.22q-.31.02-.32.75c0 .53.05.6.39.55.46-.07.62-.84.23-1.16q-.16-.13-.28-.14zm12.73 2.28c-.27 0-.35.13-.4.66-.04.6-.02.65.35.6.32-.05.39-.16.39-.66 0-.49-.06-.6-.34-.6m-12.62.43q-.48 0-.31.66c.12.46.5.48.65.03.13-.4-.01-.7-.34-.7m-34.43.17h-.03q-.25.01-.41.37c-.1.22-.25.54-.34.7l-.34.6c-.1.17-.24.47-.33.66-.08.2-.27.45-.43.58-.2.18-.23.29-.08.47.37.44 1.28.18 1.09-.32-.13-.35.35-.82.83-.82s.8.3.8.79q-.02.59.95.58.91 0 .14-1.14a9 9 0 0 1-.6-1c-.43-.94-.89-1.45-1.25-1.47m-.1 1.38a.17.17 0 0 1 0 .34.17.17 0 0 1 0-.34m47.32.58c-.18 0-.36.15-.4.43-.03.22.04.47.17.55.3.19.61-.11.59-.58-.01-.27-.18-.4-.36-.4m-12.8.3c-.26.02-.4.37-.22.7.13.26.22.29.41.13.33-.28.31-.67-.03-.8zm12.77 2.21c-.29 0-.47.42-.34.78.12.31.57.34.67.04.12-.35-.07-.82-.33-.82m.03 2.27h-.07c-.28.06-.45.68-.29 1.1.1.27.54.33.69.1.05-.1.05-.4-.01-.7q-.1-.5-.32-.5m-12.52.31c-.5 0-.76.43-.53.85s.56.46.85.1c.27-.32.06-.95-.32-.95m-33.25 1.43q-.12 0-.28.13c-.25.21-.34 1.05-.13 1.25.06.07.25.12.42.12.25 0 .31-.14.31-.68q0-.81-.32-.82m45.76.67q-.06 0-.14.02c-.27.1-.4.98-.16 1.21.26.27.7.1.78-.31.09-.48-.16-.92-.48-.92M77 29.89h-.04c-.3.04-.4.19-.44.64-.03.35.04.64.18.73.34.22.45.18.66-.21.28-.54.07-1.18-.36-1.16m-33.23 1.74q-.12 0-.28.13c-.25.21-.34 1.05-.13 1.26.06.06.25.11.42.11.25 0 .31-.13.31-.68q0-.81-.32-.82m24.67.04q-.44-.02.07.88c.2.36.46.72.56.8.36.25 1.07.13 1.16-.2.11-.44 0-.57-.95-1.13a2 2 0 0 0-.84-.35m21.32.61-.17.02c-.29.04-.4.19-.45.55-.03.29.04.56.17.65.39.24.57.06.62-.61.04-.48.03-.6-.17-.6m-12.8.06-.19.03c-.27.1-.39.93-.16 1.16.3.31.9-.08.9-.59a.6.6 0 0 0-.55-.6m-13.62 1.13q-.33.02-.52.1c-.17.06-.2.44-.16 1.56.04.93-.01 1.54-.13 1.66-.1.1-.19.26-.19.33 0 .26 2.72.16 3.24-.12.6-.31.8-.87.45-1.26q-.27-.28-.17-.98c.1-.66.07-.7-.52-.99a5 5 0 0 0-2-.3m7.23.38q-.04 0-.04.08c0 .1.05.23.11.29q.1.09.2.03c.05-.05 0-.18-.11-.3q-.1-.1-.15-.1zm-6.27.17c.35-.02.64.65.39.96a.6.6 0 0 1-.41.22c-.52 0-.53-1.08-.02-1.18zm-20.53.19q-.12 0-.26.12c-.27.22-.37 1.22-.15 1.45.3.3.65-.02.7-.65q.06-.92-.3-.92m17.31.14q-.08 0-.21.02c-.47.05-.52.2-.42 1.35 0 .1.19.16.4.13.32-.04.4-.18.44-.8.04-.58.04-.7-.2-.7m10.29.33q-.15.02-.08.17.1.16.18.17.08-.01.08-.17-.02-.16-.18-.17m17.25.86c-.52 0-.75.44-.62 1.16.06.35.15 1.23.2 1.94.04.7.1 1.38.15 1.5.11.33.56.26.67-.11.06-.19.09-.66.07-1.06-.04-.6.03-.78.33-.98.48-.33.48-.7 0-.76-.3-.04-.38-.16-.36-.49.06-.75-.1-1.2-.44-1.2m-24.42.17c.83 0 1.1.39.57.8q-.63.5-.79-.15c-.15-.59-.13-.65.22-.65m30.38.01a1 1 0 0 0-.2.07v.23l-.03.17q-.05.12-.15.17l-.15.02-.16.08a.4.4 0 0 1-.21.05l-.14.09-.04.04-.01-.02h-.07l-.08.16.01.06v.1q.11 0 .22-.02h.16l.05-.04.12-.04v-.01l.02-.04c.03-.04.07-.1.13-.1l.05.01q.07.07.06.15 0 .03-.02.04v.02l.01.04q.03.11-.03.19l-.04.02h-.05l-.1-.05h-.1q0 .02-.04.06h-.08l-.27.02q-.04.05-.09.08t-.07.02l-.1.06v.06q0 .09.03.17.04.08.06.2h.03q.01-.07.03-.06h.03v.01l.05.02q.1.05.2.06c-.04-.04-.01-.1.07-.1h.2l.16-.01h.06c.1.02.11.1.12.18v.2q0 .07-.05.09l.02.03q.07.05.11.11l.02.04q0 .1-.1.13l-.1.02-.15.03c-.02 0-.15 0-.16-.03l-.24.07a4 4 0 0 1-1.23.1l-.35-.02a5 5 0 0 1-1.18-.15h-.08c.24.1.43.3.43.42 0 .18.34.23 1.35.23 1.34 0 1.35 0 1.52.52.2.56.65.7.76.21a43 43 0 0 0-.03-3.95q-.02-.22-.18-.21m-2.25.01h-.41c-1.57.05-1.95.67-.4.67.45 0 .83.08.83.17s-.26.17-.58.17c-1.06 0-1.46.26-1.46.95 0 .37.05.55.22.69h.29l.36.06a4 4 0 0 0 .8.1l.37.01.36.01a4 4 0 0 0 .83-.1l.09-.03h-.01q-.47.07-.38-.17l.05-.07q-.02-.06-.03-.12-.04-.1-.12-.2l-.17-.22-.04-.05c-.46.25-1.83.26-1.73-.04.04-.13.46-.23 1.07-.27l.48-.02c-.05 0-.06-.07.02-.11l.08-.04.04-.02.04-.02a.4.4 0 0 0 .16-.13l.01-.07v-.24l-.01-.24-.03-.18-.03-.17c-.2-.22-.36-.3-.7-.32m-11.36.16c-.68.03-1.34.2-1.65.5-.6.56-.55.92.17 1.53.53.44.6.56.43.86-.12.22-.4.37-.74.4q-.56.06-.6.36c-.06.29.12.3 2.55.26 2.19-.04 2.61-.09 2.61-.3 0-.14-.17-.29-.38-.32a1 1 0 0 1-.64-.42c-.23-.34-.22-.4.17-.81.61-.65.56-1.3-.13-1.73a3.3 3.3 0 0 0-1.8-.33m-3.6.1c-.16 0-.3.3-.33.97v.12a1 1 0 0 1 0 .36l.05.21v.08l.01.04.14.13q.1.05.18.14c.03.04.08.11.05.17l-.03.04-.04.01q-.1.02-.2 0h-.26l-.12.01-.02.01q-.04.05-.08.02l-.26.02-.03.02-.07.05q-.1.03-.11-.04-.11.04-.23.06-.17.02-.35.01h-.4l-.7-.03-.35-.05a2 2 0 0 0-.43-.03c.1.1.11.26.09.63h.28q.24-.01.46.01.2 0 .37.03l.3.03.66.03h.86c.12 0 .12.12 0 .12h-.62l-.9-.04-.31-.02-.36-.04q-.23-.02-.46 0h-.3v.05c-.03.45.02.92.12 1.04.28.34 3.8.22 3.8-.14q-.02-.17-.3-.27l-.05.02-.13.01-.25.05a1 1 0 0 1-.27.05l-.52-.02-.34-.03q-.15 0-.31-.02l-.36-.07-.32-.04c-.1 0-.11-.11-.02-.12h.02l.34.05.08.02q.02-.03.07-.03l.17-.02.3-.02h.2q.06 0 .08.03h.3q.03-.03.07-.03.18 0 .35-.02h.08l.37-.13c.58-.2.6-.23.62-1.18.04-1.28-.32-2.24-.6-2.24m16.7.04-.06.06.04-.02.02-.02.01-.02m-8.17.02c-.53 0-1.06.07-1.2.23-.16.21-.12 2.2.07 2.83.1.34 2.4.3 2.53-.06.23-.58.11-2.45-.16-2.72-.17-.18-.71-.27-1.24-.28m-11.2 0c-.82.01-1.62.07-1.62.18s.12.23.26.28q.19.07.22.2a1 1 0 0 1 .05.27q.04.05.06.14a.3.3 0 0 1-.15.24l-.05.03a1 1 0 0 1-.26.05l-.06.05c-.46.43-.43.51.26.68v-.01l.01-.01h.73l.06-.03.13-.01v-.08c.1-.03.26 0 .39.01q.18-.01.38-.01.07 0 .1.04l.52.05h.1c-.05-.03-.03-.1.06-.1h.57l.04-.02.06-.02h.04l.08-.14v-.03l-.01-.11c0-.1-.09-.24-.2-.34l-.08.05q-.1.03-.16-.05h-.02a.2.2 0 0 1-.13-.08l-.02-.04v-.02l-.03-.03-.03-.03a.2.2 0 0 1-.03-.18l.02-.17v-.04q.02-.21.25-.3c.14-.06.21-.18.16-.26-.07-.11-.9-.16-1.7-.15m18.58.4v.04-.04m-18.58.12c.32 0 .46.25.33.59-.06.15-.2.27-.33.27-.25 0-.47-.47-.33-.7.06-.09.2-.16.33-.16m6.42 0c.39 0 .78.06 1.01.18.33.18.45.6.2.74-.22.13-1.48.25-1.86.17-.5-.1-.66-.6-.29-.87.18-.13.56-.2.94-.21m12.95.23h-.01m-.02.01v.01m-33.06.1c-.43 0-.66.75-.35 1.13.33.4.59.2.65-.5.04-.53 0-.62-.3-.62m24.6.02q.13 0 .33.02c.49.05.56.12.6.62.03.32-.03.68-.14.82-.22.26-.7.33-.9.13a2 2 0 0 1-.12-.87c0-.56 0-.7.24-.72m-41.7 0q-.06 0-.17.02c-.46.06-.64.85-.3 1.27.34.41.59.18.64-.6.04-.55.03-.69-.17-.69m49.35 0-.03.04h.05zm0 .12.01.02zm-17.16 0v.03l.01-.01zm-2.53.08-.04.05-.1.11h.02l.04-.03q.06-.06.08-.13m19.32.1q-.02.03-.05.03l-.03.01h.1zm-16.55.06.03.01h.01v.01h.01l-.01-.01zm16.75.19-.04.05.05.04v.01zm1 .33zl.03.08v.01-.08l-.02-.02m-.12 0-.05.01v.03q.03 0 .05.03zm-.61.15.02.05.05-.02-.05-.02zm.69.04v.07q.03 0 .04.02v-.01c0-.01-.01-.07-.03-.08zm-.58 0v.03h.01l.01-.01zm.33.02-.02.02h.01zm.33.06zm-.8.05v.01m-15.94.01v.01h.02zm16.73.13v.09q.03-.04 0-.09m-18.34.01v.03l.28-.02zm18.24.05v.01m-.04.03zm-12.77.1c.62 0 .84.39.32.59q-.66.26-.82-.17c-.16-.4-.15-.42.5-.42m-20.28.9c-.3-.02-.55.65-.38 1.08.05.15.26.26.45.26.31 0 .35-.09.3-.64q-.04-.66-.34-.7zm-17.16.05c-.27 0-.44.78-.26 1.23.18.49.52.13.52-.55 0-.49-.07-.68-.26-.68m17.22 2.5c-.41 0-.58.36-.43.94q.1.43.44.43c.28 0 .34-.11.34-.69 0-.57-.06-.68-.35-.68m28.78.02h-.17c-.39.06-.59.61-.4 1.1.05.14.25.25.44.25.3 0 .35-.1.35-.7 0-.5-.03-.65-.22-.65m-12.56.02q-.12 0-.28.13c-.25.22-.34 1.05-.13 1.26.06.06.25.12.43.12.25 0 .3-.14.3-.68q0-.82-.32-.83M43.75 42q-.26-.02-.3.73c-.05.65-.01.74.3.74.32 0 .36-.09.31-.74q-.05-.74-.3-.73m45.86 2.4a.4.4 0 0 0-.24.1c-.27.22-.35.88-.14 1.1.28.27.82 0 .87-.43.05-.45-.2-.8-.49-.78M61 44.4c-.37 0-.6.5-.47 1q.12.46.46.46c.3 0 .34-.09.3-.73q-.06-.72-.3-.73m16.2.13h-.02q-.12.01-.28.17-.29.28-.17.73c.16.62.68.52.76-.15.05-.46-.08-.74-.29-.75m-33.45.22c-.27 0-.43.62-.27 1.04.05.14.21.25.36.25.21 0 .26-.15.22-.65q-.05-.64-.3-.64m33.44 2.02q-.11 0-.26.12c-.27.23-.34.8-.16 1.3.2.52.66.2.72-.5q.05-.92-.3-.92m12.44.04c-.35 0-.44.1-.49.48-.03.27.04.6.15.74.42.5.89.14.82-.64-.05-.49-.12-.58-.48-.58M61 46.9c-.52 0-.75.92-.34 1.34q.53.52.62-.63c.04-.61 0-.71-.28-.71m-17.26.25c-.27 0-.44.78-.26 1.24.18.48.52.12.52-.56 0-.49-.07-.68-.26-.68m46.12 2.28q-.19 0-.35.06c-.46.17-11 .23-11.87.06-.64-.12-1.38.2-1 .43.1.06 3.45.1 7.47.1 12.52-.02 15.74-.07 15.74-.26 0-.1-1.67-.17-4.65-.18-2.56 0-4.8-.08-4.99-.15a1 1 0 0 0-.35-.06M86.15 51l-.44.51c-.24.29-.68.64-.99.8-.3.15-.55.4-.55.55 0 .27.19.27 1.15-.03.29-.1.38-.05.38.16 0 .3-.03.3-1.19.34-.56.01-.78.1-.82.3-.05.26.2.28 2.55.23 1.62-.04 2.63-.13 2.67-.24.07-.2-.07-.23-1.12-.19-.53.02-.75-.04-.83-.25-.16-.42.02-.49.7-.24.45.17.65.17.8.02s.06-.27-.36-.5c-.3-.18-.87-.57-1.26-.89zm5.82.4-2.09.06-.05.83c-.06.97.13 1.28.87 1.35.41.04.56.15.6.43.05.35-.03.38-.94.43-.78.04-1 .12-1.04.36-.06.27.16.3 2.6.3 2.46 0 2.67-.03 2.62-.3-.05-.24-.27-.32-1.05-.36-.9-.05-.98-.08-.93-.43.04-.3.2-.4.73-.46q.69-.09.68-.35c0-.2-.33-.27-1.62-.34-1.6-.09-1.64-.1-1.56-.69.02-.1.61-.17 1.38-.17 1.5 0 1.89-.1 1.89-.45 0-.2-.37-.24-2.09-.2m-5.92 2.84c-.92.03-1.8.1-1.86.15-.24.24.53.42 1.88.42 1.32 0 1.48.04 1.56.35.05.2.23.34.44.34.3 0 .36-.1.36-.58 0-.41-.09-.6-.3-.66-.2-.05-1.15-.05-2.08-.02" style="fill:#000"/><path d="m49.83 12.6.23.24q.37.38.72.78l1.75 1.93" style="fill:none;stroke:#000;stroke-width:.169008px;stroke-linecap:butt;stroke-linejoin:miter;stroke-opacity:1"/><path d="m69.71 33.13.26.23q.4.38.77.77l1.9 1.88" style="fill:none;stroke:#000;stroke-width:.173825px;stroke-linecap:butt;stroke-linejoin:miter;stroke-opacity:1"/></svg>