<svg xmlns="http://www.w3.org/2000/svg" xml:space="preserve" width="192" height="122" viewBox="0 0 192 122"><path d="M91.8 10q-.5 0-.5 2.4 0 2-.4 2.5-.3.5-2.3.7c-2 .3-4.9 1.4-5.2 2l-.7.2c-.7 0-3.3 2.5-4.9 4.6-1.3 1.7-1.6 3-.8 3q.3 0 .4.8c0 1-.7 1-.8 0s-.7-.5-.8.5q-.1.8-.5 1.3c-.6.5-.5 2.8 0 3.3q.4.2.4.6t-.4.5c-.6.2-.6 3.3 0 4.6l.7 2c.6 2 2.1 3.9 5.3 6.6.7.7 4.4 2.6 4.9 2.6l1 .5.7.6v5.3c0 4 .2 5.4.5 6q.3.6.4 2.9c0 1.9.1 2.5.7 3.6.6 1.3.7 1.4.2 1.7s-5.6.3-29.2.2L32 68.8l-.2.8v5.1c0 4.9 0 5-1.8 4.2-1.2-.6-1.5-1.2-2.2-4.1-.5-2.2-.5-2.3-1.4-2.6s-2-1.4-2-2l-.4-1-1.8-3.6q-2.1-4.3-2-2.6c0 .5.3 1.2 2 4.4l1.1 2.2q0 .4.6 1.3t.4 2.2c0 1.3 0 1.4 1.3 2.8 1.9 2 1.8 2.1-1.5 2.2q-6.2.1-6.5-.5-.3-.4-.1-5.7c.1-6.8.3-6.5-3.5-6.5q-4 0-3.4.8.3.2 2.7.3t2.8.3c.3.5.3 13.8 0 14.5-.3.4-.8.5-3.4.5s-3.2.2-3.2.5.6.4 3.3.5c2.8 0 3.3.1 3.4.5V97c0 9.4 0 13.2.3 13.4l51.7.3h97.6c.3-.3.8-15.5.9-31.5 0-6.6 0-12 .2-12.1l3-.3a10 10 0 0 0 3-.4 26 26 0 0 0-6.9-.3c-.1 0-.3 2.8-.3 6q0 6-.3 6.3t-5.8.3c-5.1 0-5.5 0-6.5.5q-1 .6-1.5.4c-.5-.1-.5-.6-.4-5.2v-5l-28.9-.2c-15.8 0-28.9-.1-29-.2-.2-.2.1-1.5.6-2.2s.5-1.4.5-3.5c0-2.2.1-2.6.6-3 .5-.5.5-.9.5-5.7 0-3.7.1-5.3.4-5.6l1.4-.7c1.5-.5 4.9-2.5 6.5-3.9 1.3-1.1 3.1-3.6 3.1-4.3l.4-.7c.7-.5 1.3-2.8 1.4-5 .2-3.1.5-3.4 3.1-2.6q3 .9 3.6-.3c.4-.6.5-.6 4.3-.5 3.5 0 4.6-.1 4.1-.6l-4-.3c-3.7 0-4.1-.1-4.5-.7s-1.3-.6-4.3.2c-2.1.6-2.4.5-2.4-1.2q0-1-.4-1.8l-1.3-2.6c-1-2.1-3.7-4.8-6-6.2-1.7-1-6.7-2.6-7.7-2.5-.5 0-.6-.1-.7-2.4 0-1.3-.2-2.5-.3-2.6zM90 16.5q.7 0 .6.3l-.7.2-.6-.2q0-.3.7-.3m3.9 0q.7 0 .7.3t-.5.2l-.7-.2q-.1-.3.5-.3m-10 1.3q.4 0 .4.4t-.5.4-.4-.4q.1-.3.5-.4m6 0q.6 0 1 .3t.4 2 .4 1.5c.4 0 .8-1.6.6-2.5-.3-1.1.1-1.4 2.3-1.2q2 .2 2.7.7l2.4 1.5q1.6 1 1.6 1.6t-2.6 3l-6 5.8c-.5 0-.7-1.3-.5-2.8v-1.8q-1-1.1-1 2.5-.2 2.5-.6 2.8-.9 1 0 2 .4.4.5 2 .2 2.5 1 1.7.4-.4.1-1.5-.2-1.3.4-2 .6-1 .6-1.4.1-1 6.5-6.9 1.6-1.5 1.9-2 0-.1.8-.2c.9 0 1.5.7 2.8 3.2q.8 1.6.8 2.7 0 1 .4 1.5.8.7.2 1.4c-.2.1-.4 1.2-.5 2.4-.4 4.9-3.9 9.3-8.7 11.2-2.2.9-4.6 1.3-5 1-.2-.2-.3-1.4-.3-2.7 0-2 0-2.4-.4-2.4-.3 0-.4.4-.4 2.2 0 2.5-.2 3-1.5 2.9-1.7 0-7.6-2.4-8-3.3l-1.3-1.6c-1.7-1.8-1.9-2-2.1-3.2l-.5-1q-.3-.4-.6-2-.5-3.3-.8-.8c0 2.3-.5 2.6-.5.3 0-1.1.1-2.1.3-2.2.3-.2.3-1.6 0-2-.5-.4-.5-2.6 0-2.3l.2 1.4q0 1.4.4.9t.6-1.5c0-.6.4-1.6.7-2.2l.9-1.8c.6-1.3 1.1-2 2.6-3.3 2.4-2.1 6.1-3.8 8.1-3.8m9.4.1q.5 0 .6.5c0 .3-.8.3-1 0q0-.3.2-.4zm1.3 1.1c.4 0 2 1.2 2 1.5q.1.7-1.3-.5-1-.7-.8-1m-18.1.2q.2 0 .1.3t-.5.4q-.3 0-.2-.2t.5-.5m-1.5 1q.5 0 .5.4c-.2.5-1 .6-1 0q0-.3.5-.4m22 1q.4 0 1 .6.8.8.7 1c-.3.1-2-1.4-1.7-1.6m-23.6.5q.2 0 .2.3t-.3.5q-.2.1-.3-.2zm-.7 1.6v.3q0 .6-.4 1c-1.1 1-1.3.3-.2-.8zm13 0-.1.4q0 .7.3.4.3-.4 0-.7zm14 .8q.3.2.3.6t-.3.4-.3-.6zm.7 1.6.2.2.2.9q0 .4-.2.4-.7-.1-.4-1 0-.5.2-.5m71.3 1.6h-.8l.2.4h.3q0-.3.3-.4m-70.5.5q.5 0 .5 1.2 0 .9-.3 1c-.3 0-.7-1.6-.4-2zm.1 5q.3 0 .4 2 0 2.5-.7 2c-.2-.3-.2-2.5 0-3.3zM77 37.3q.3 0 .4.6c0 .9-.5 1.1-.7.4-.2-1-.2-1 .3-1m29.4 0q.5.2.3 1.2-.1.6-.4.7c-.4 0-.4-1.6 0-1.8zm-14.6 1.6q-.2 0-.2.3t.2.2.3-.2-.3-.3m-13.9.5q.3 0 .3.6t-.3.5-.2-.5.2-.6m.7 1.5.4.4.6.9q-.1.5-.8-.4-.5-.8-.2-.9m26.4.1q.2 0 .1.4l-.4.4q-.3 0-.2-.3.2-.5.5-.5m-.8 1.1-.1.5c-.3.5-1.2 1-1.2.6 0-.2 1-1 1.3-1m-11 6.8h.5l.8.3-.1 4.9c0 2.6-.2 4.9-.3 5-.2.3-1.3.2-1.7-.1q-.2-.4-.3-1.2 0-.9-.3-1c-.3-.2-.8.9-.6 1.3q0 .3-.5.8-1.1.6-1.5.2a48 48 0 0 1-.2-7.1v-3h.9q1.4-.1 1.4 2.1c.1 1.8.7 1.7.8-.2q0-2 1-2m-1.6 5q-.8.3-.5 1.3c.3.6 1.1.3 1.1-.5q0-.7-.4-.7zm-31.1 1.5H59q.1.7 2.1 3l3 3.6q1 1 .3 1.8c-.4.4-.3.5 2.6 2.5l2.6 1.6q1.2.1-1.6-5c-.5-1.1-.6-1.2-1.4-1q-1 .2-1.3-.5c-.2-.3-.9-1.3-1.6-2zm49.4 2.8q-.8 0-.8.3l-.5.4c-.3 0-2 1-3.8 2.1-2.7 1.7-3.3 2-3.5 1.6q-.4-.3-.7-.3c-.6 0-4.6 4-4.6 4.6s.5.6 3.8-.5c2.5-.8 2.7-1 2.7-1.5q.1-1.4 1.2-1.6.4 0 .7-.3l2.9-1.8 3-1.8q1-1.1-.4-1.2m29 1.6-.2.1-.2.1v.1zm-48.5.6q.2 0 .5.4.4.5.1 4.5l-.6.2c-.5 0-.5-.2-.5-2.4q0-2.7.5-2.7m2.1 0q.4 0 .4 2.8 0 3.4-.6 2.3c-.3-.4-.3-4.5 0-4.9zm-1.4 7.2q.6.2.7 1c0 .2-.7.1-.9 0q-.4-.8.2-1m-57 2.3h4.5l58.4.3c38.7.1 52.8.3 53 .5s.2 23.1 0 23.7-56.6.5-57.5 0c-.6-.4-.7-.6-.6-3 0-1.5 0-2.9-.2-3q-.7-1.4-.7 2.6 0 3.1-.4 3.2c-.3.3-6.7.4-29 .4l-28.4.1-.4-.6c-.4-.5-.5-5.2-.4-15.3l.3-8.7q.1-.2 1.4-.2m57.2 1.8c-.6 0-.7 1.2-.9 5.3l-.1 4.7-2.4.2c-2 0-2.3.2-2.3.6 0 .5.2.6 2.2.6 1.8 0 2.2.1 2.7.6.8.7 1 .7 1.5 0 .4-.4.9-.5 3-.5q2.3 0 2.6-.3c.6-.7 0-1-2.7-1l-2.7-.2v-4.8c0-4.2 0-4.8-.4-5zm-68.7 7.3c4.1 0 4.6.1 5 .6q.6.8-.1 1.7c-.4.5-.6.6-4 .6-3 0-3.4 0-3.3.4 0 .5.5.5 3.5.6 2 0 3.6.2 3.8.3.4.4.4 1.2 0 1.5a52.4 52.4 0 0 1-9.9.2c-.5-.2-.3-1.6.4-2l.6-.5-.6-.4c-.7-.5-.9-2.3-.3-2.8q.5-.2 5-.2m137.7.4c3.3 0 4.7 0 5 .3.5.4.6 1.4.1 2.1q-.3.5 0 1.6.6 2-.7 2.3H157q-1.5 0-2-.7-.7-.7-1.2-.4c-.7.3-2.5-.7-2.3-1.3.2-.5 1.6-.4 2.1.2.5.5.6.5 1.6 0s1.7-.5 4.2-.4c2.6.2 3.2.1 3.5-.2.6-.7 0-.8-3.5-.8-4.5 0-5.6-.5-4.3-2 .5-.6.8-.6 5.2-.7m-130.7.4c.6 0 1.7 1 1.7 1.6q0 .6-1 .5l-1-.2c-.4-.4-.3-1.7.2-1.9m123.4.2c.3 0 1 .8 1 1l-.3.6c-.6.5-2.2.5-2.3 0-.2-.3 1.1-1.6 1.6-1.6m-28.8 1.8c-3.2 0-6.3.2-6.4.5v.6l5 .3c6.6.2 8.1 0 7.7-1 0-.2-3.2-.4-6.3-.4m-89.7 0q-1.3 0-.9.9l.9.2q.7 0 .6-.5t-.6-.5m16.4 0q-1.4.1-.7 1c.5.6 1.2.4 1.3-.3q.2-.7-.6-.6m8.1 0c-6 0-6.6.2-6.2 1 .2.6 11.8.6 12.3 0 .8-.8 0-1-6-1m8.2 0q-1.2.1-.6 1 .2.4.6.4c.5 0 1.1-.7.9-1q-.2-.3-.9-.3m8 0c-5.4 0-6.2.1-6.3.5q-.1.3.2.7l6 .2c5.8 0 6.6-.1 6.3-1-.2-.3-1.4-.3-6.3-.3m24.4 0q-1.1.1-.5 1 .5.7 1 .1.5-.8-.5-1m16.4 0q-1 .1-.7 1t1.3 0q.5-.9-.6-1m24.7 0c-5.3 0-6.1.1-6.3.5q0 .3.3.7l6 .2c3.2 0 6-.1 6.1-.2q.3-.4.2-.7c-.1-.4-.9-.4-6.3-.4m29.6 0c-2.6 0-3.2.3-2.6 1 .5.6 5 .6 5.6 0q1-1-3-1m-87 .1q-.3 0-.4.2-.3.3-.1.7c.2.6 1 .4 1.2-.2q0-.7-.6-.7zm49 0q-.3 0-.5.2t0 .7q.9.7 1.1-.2 0-.7-.6-.7m16.8 0q-.7.2-.5.9.2.3.6.2c.5-.1.6-.7.1-1zm-106.5 0c-5.5 0-6.5.2-6.5.5s.9.4 5.7.6c3.1 0 5.9.1 6 .2q1.1 0 1.2-.8c0-.5-.2-.5-6.4-.5m65.3 0c-5.4 0-6.1 0-6.3.4q0 .4.3.7c.2.1 3 .2 6.2.1 5.6 0 5.8 0 5.8-.6s-.2-.5-6-.6m-77.6 1q.9 0 1 .4 0 .3-.9.8c-1 .6-1 .6-1.5 0q-.8-.5 0-.8.6-.4 1.4-.4m.3 2.2h.1q.5 0 .7.2c0 .2.2 2.4.2 4.9 0 3.5.1 4.7.4 5s5 .4 29.3.4l29.2.1.2 1.3c0 2.2 1 2.4 1 .3q0-1.2.3-1.4c0-.1 13.4-.3 29.5-.3l29.4-.2.1-5 .3-5.2c.1 0 1 .2 1.8.6 1.6.7 1.8.7 6.7.8 2.7 0 5.2 0 5.4.2.4.2.4 1.5.4 11.2 0 9.8 0 11-.5 11.4s-2.7.5-24.8.5c-37 0-121.7-.3-122.5-.5l-.7-.1V97.8c0-6.4 0-11.5.2-11.6s2.8-.2 5.9-.2c4.6-.1 5.7-.2 6-.6q.6-.4 1.4-.4m60.7.1c-.8 0-1.1.8-.6 1.4.6.7 1.5.2 1.4-.7q-.1-.7-.8-.7m-.5 15.5q-.4-.1-.4 1-.1 1 .7.8.7 0 .6-.9t-.6-.9zm.3 2.7h-.2c-.4.2-.5.6-.5 2.5 0 2.1 0 2.3.6 2.3q1 0 1.1-2.7 0-1.9-1-2.1" style="fill:#000;stroke-width:.27323"/><text xml:space="preserve" x="129" y="33.6" style="font-size:9.44064px;writing-mode:lr-tb;direction:ltr;fill:#000;stroke-width:1.0115" transform="scale(.99 1.01)"><tspan x="129" y="33.6" style="stroke-width:1.0115">다이얼게이지</tspan></text><text xml:space="preserve" x="113.5" y="57.5" style="font-size:9.44064px;writing-mode:lr-tb;direction:ltr;fill:#000;stroke-width:1.0115" transform="scale(.99 1.01)"><tspan x="113.5" y="57.5" style="stroke-width:1.0115">측정자</tspan></text><text xml:space="preserve" x="46.4" y="49.6" style="font-size:9.44064px;writing-mode:lr-tb;direction:ltr;fill:#000;stroke-width:1.0115" transform="scale(.99 1.01)"><tspan x="46.4" y="49.6" style="stroke-width:1.0115">측정물</tspan></text><text xml:space="preserve" x="6.5" y="56.6" style="font-size:9.44064px;writing-mode:lr-tb;direction:ltr;fill:#000;stroke-width:1.0115" transform="scale(.99 1.01)"><tspan x="6.5" y="56.6" style="stroke-width:1.0115">센터</tspan></text></svg>