<svg xmlns="http://www.w3.org/2000/svg" xml:space="preserve" width="120mm" height="60mm" viewBox="0 0 120 60"><path d="m132.84 44.51 61.9 27.13" style="opacity:1;fill:#000;fill-opacity:.920746"/><path d="M104.48 52.38c-.63-.59-.64-.61-.64-1.48 0-.82.03-.92.52-1.43.55-.58.94-.7.94-.3 0 .14-.07.26-.15.26s-.25.18-.38.4c-.37.61-.21 1.9.3 2.35q.6.53.21.71c-.08.05-.44-.18-.8-.51m7.15.26c-.05-.1.03-.28.16-.4.6-.51.7-1.82.22-2.6-.53-.84-.04-.9.66-.1.3.37.36.58.36 1.3 0 .94-.16 1.26-.87 1.71-.38.24-.46.25-.53.1m-5.97-.57c-.05-.07-.04-.2.02-.28.15-.2.07-1.38-.1-1.56-.24-.24.01-.3 1.66-.34 1.98-.07 2.14.01 2.14 1.03 0 .4.08.78.17.86.35.3-.32.55-.96.34-.2-.07-.2-.1 0-.34.3-.38.28-1.33-.03-1.43q-.24-.07-.44.15c-.24.28-.26 1.09-.03 1.28.24.21.02.41-.46.41s-.68-.18-.44-.43c.1-.1.15-.45.12-.78-.04-.51-.09-.61-.34-.61-.26 0-.29.08-.28.82 0 .45-.06.86-.15.9-.22.14-.77.12-.88-.02m-66.58-.18c-.05-.1-.02-.28.05-.41a6 6 0 0 0 0-2.17c-.03-.24.05-.34.37-.44.58-.18.68.02.68 1.44 0 .72.07 1.26.17 1.34.27.24 0 .42-.61.42q-.57 0-.66-.18m62.41.15c-.21-.7-.67-2.83-.62-2.9.03-.05.3-.1.57-.1.47 0 .5.03.41.33-.11.39.06 1.44.24 1.44.16 0 .92-1.1.94-1.37q.04-.52.59-.52.8-.02.1.73a6 6 0 0 0-.52.66c-.38.69-1.29 1.76-1.5 1.76q-.18 0-.2-.03m-14.92-.36a.5.5 0 0 1-.25-.39c0-.23.06-.25.65-.17.58.07.67.05.9-.24.23-.32.23-.34-.1-.64a2 2 0 0 0-.82-.44c-.54-.16-.55-.18-.33-.71q.27-.67 1.4-.67c.4 0 .5.04.46.22-.03.12-.24.24-.53.3-.7.12-.7.19-.05.48.48.2.61.35.69.7.15.7-.02 1.03-.72 1.38-.68.34-.9.38-1.3.18m23.35-1.35q-.55-.5.2-.37c.54.07.69-.1.36-.4-.15-.15-.21-.34-.16-.49q.12-.25-.23-.31c-.27-.06-.29-.1-.13-.27.23-.24.82-.26.98-.04.07.09.13.3.15.47.01.18.07.5.12.7.09.36.04.43-.4.67-.62.32-.6.32-.9.04M27.59 47c-.04-.1-.08-6.68-.09-14.63s-.04-16.11-.07-18.13c-.05-3.42-.07-3.7-.34-3.98-.27-.3-.28-.36-.07-1.08.17-.6.27-.77.49-.77.15 0 .33.13.4.29.49 1.12.5 1.5.08 1.65-.31.1-.3 6.7 0 7.04.19.21.18.3-.02.63-.22.36-.23 1.27-.15 9.47.07 6.62.14 9.15.26 9.4.14.25.14.37 0 .51-.4.42-.3 8.93.1 9.28.22.19 10.56.15 11.23-.03.33-.1.56-.1.78.01.31.14 17.64.1 38.32-.09a1277 1277 0 0 1 20.73-.05c10.41 0 10.51 0 10.76-.26.21-.21.36-.24.88-.17.81.1 1.74.45 1.67.62-.03.08-.53.22-1.11.31-.94.16-1.11.16-1.45-.01-.41-.21-6.01-.22-34.84-.04-30.32.19-47.49.2-47.56.03m12.11-1.43c-.14-.13-.12-1.02.03-1.1.23-.13.48.27.43.7-.05.39-.25.58-.46.4m48-.09c-.05-.1-.07-.37-.04-.6.03-.33.11-.42.34-.42.25 0 .29.08.29.56 0 .44-.06.58-.26.6-.14.03-.3-.03-.34-.14m-48-1.92c-.05-.05-.1-.31-.1-.58 0-.4.05-.48.26-.45.19.03.25.17.25.53 0 .47-.18.7-.4.5m48-.09c-.05-.1-.07-.37-.04-.6.03-.33.11-.43.34-.43.25 0 .29.09.29.57 0 .44-.06.57-.26.6-.14.03-.3-.04-.34-.14m-48.07-2.3c.03-.44.1-.61.26-.61.35 0 .31 1.11-.04 1.17-.23.04-.26-.03-.22-.56m48.06.29c-.04-.1-.06-.38-.03-.6.03-.33.11-.43.34-.43.25 0 .29.09.29.57 0 .43-.06.57-.26.6-.14.03-.3-.04-.34-.14m-48.14-1.8c-.14-.13-.11-.83.04-1.04.21-.29.6-.06.6.35 0 .64-.3.97-.64.69m48.06-.07-.06-.56c-.03-.38.02-.55.19-.6.37-.13.64.18.6.67-.04.36-.12.46-.38.5zm-62.96-.83c.22-.4.25-2.06.04-2.39-.17-.27-.16-.33.1-.48.6-.39.72-.2.8 1.27.05.76.14 1.48.2 1.6.1.2.04.22-.57.22-.6 0-.67-.02-.57-.22m4.77-1.12c-.36-.12-.2-.52.25-.6.43-.09 1.03.1 1.03.3 0 .28-.81.47-1.28.3m2.55 0c-.14-.03-.25-.17-.25-.3 0-.2.1-.24.66-.24q.67 0 .75.2c.05.1.06.21.02.24-.11.1-.9.17-1.18.1m2.3-.08c-.4-.26-.13-.46.59-.46.35 0 .68.06.74.14.13.18-.33.49-.74.49-.17 0-.43-.08-.58-.17m2.34-.1c-.16-.2.22-.48.64-.47.67.02.9.12.9.37 0 .2-.11.24-.73.24-.4 0-.76-.06-.81-.13m2.8-.03c-.05-.1-.02-.38.06-.6.08-.24.14-.8.13-1.24l.01-1.07c.02-.2.01-3.61 0-4.6l-.1-6.03a78 78 0 0 0-.21-6.06q-.12-.2.05-.33c.11-.09 2.28-.13 6.02-.14 3.21 0 10.44-.03 16.06-.07 19.82-.12 26.34-.1 26.54.04.16.11.2 1.93.18 10.05v9.9l-.37-.02c-.85-.08-3.83-.07-22.65.01-13.08.06-19.84.05-19.9-.04-.05-.07.1-.2.34-.31.45-.2 1.17-.7 2.76-1.92.51-.4 1.24-.93 1.63-1.2s.74-.56.79-.67.18-.18.3-.18.27-.08.33-.17a5 5 0 0 1 .85-.65c.4-.26.76-.52.8-.57s.54-.4 1.1-.8c.56-.38 1.25-.88 1.54-1.11s1.04-.78 1.66-1.23c.63-.45 1.93-1.42 2.9-2.14 3.92-2.94 5-3.74 5.91-4.37.52-.37 1.02-.74 1.11-.83s.5-.38.9-.66c.8-.55 1.3-.9 2.17-1.59.33-.25.76-.57.96-.7.2-.15.32-.3.27-.34-.2-.17-1.3.09-1.63.37-.17.15-.94.72-1.7 1.26a64 64 0 0 0-2.44 1.81 34 34 0 0 1-2.04 1.5c-.55.36-1.39.97-1.86 1.35s-.9.69-.93.69-.38.23-.75.52l-1.1.85-1.98 1.46c-.84.62-1.62 1.2-1.72 1.29l-1.07.74c-.49.32-1.2.82-1.57 1.12q-.96.76-3.01 2.27c-2.03 1.5-2.96 2.18-3.28 2.39-1.11.76-1.77 1.37-1.73 1.61.04.26-.03.27-2.22.34-1.24.04-2.43.12-2.64.17-.28.07-.4.04-.47-.1m2.02-.57c.24-.13.86-.55 1.38-.94l2.77-2c1-.7 2.22-1.6 2.7-1.98l1.68-1.26 2.85-2.1c.51-.4 2.61-1.93 3.14-2.3 2.17-1.54 2.72-1.95 2.81-2.09.06-.08.46-.37.88-.63s1.12-.76 1.55-1.11c1.1-.9 1.02-.84 1.99-1.5.48-.34 1.14-.82 1.46-1.07s.85-.62 1.17-.83q2.1-1.33.98-1.33c-.3 0-.83.3-1.86 1.02a22 22 0 0 0-1.68 1.24c-.12.13-.55.44-.95.7s-1.15.8-1.68 1.2c-.52.4-1.8 1.33-2.84 2.07a88 88 0 0 0-2.63 1.94c-.4.31-.96.72-1.24.9s-.78.56-1.1.83-.94.72-1.38 1.01c-.45.29-1.08.76-1.42 1.04s-.67.5-.74.5-.32.19-.55.4-.9.71-1.46 1.1l-1.38 1c-.4.31-1.6 1.2-2.69 1.97l-1.41 1.04c-.4.29-.85.59-1 .66q-.52.26-.13.6c.23.2.26.2.78-.08m8.96-.3c.62-.37 1.39-.92 3-2.17.4-.3 1.16-.85 1.69-1.21.52-.36 1.12-.8 1.33-.98.4-.33.93-.74 2.04-1.54 1.91-1.38 3.3-2.4 4.34-3.19l2.3-1.7c.63-.44 1.34-.97 1.59-1.16 1.01-.8 2.4-1.8 3.21-2.34.49-.31.95-.64 1.03-.72s.67-.53 1.31-1l1.47-1.12c.17-.14.71-.53 1.2-.87.86-.58 1.07-.86.77-1.02q-.33-.19-2.9 1.68c-.92.67-2.04 1.46-2.5 1.77s-1.11.82-1.47 1.12-1.23.96-1.96 1.46-1.52 1.1-1.75 1.3c-.24.22-.49.4-.55.4a1 1 0 0 0-.4.22l-.76.6-3.56 2.65c-.84.63-2.33 1.72-4.82 3.51-.96.7-1.95 1.44-2.19 1.65-.24.22-.54.44-.67.5-.13.07-.54.35-.9.62-1.91 1.43-2.33 1.8-2.23 1.94q.2.3 1.38-.4m-6.57.15c.28-.14.87-.54 1.32-.87l2.56-1.9c.97-.72 1.84-1.4 1.95-1.53.1-.12.4-.31.65-.42.25-.12.98-.63 1.63-1.15a27 27 0 0 1 2.87-2.12c.6-.4 1.19-.8 1.32-.92.71-.61 1.69-1.37 2.08-1.62.44-.28 1.54-1.08 2.2-1.6.78-.63 3.42-2.56 3.95-2.9.32-.2.97-.69 1.46-1.08.48-.4 1.46-1.12 2.19-1.62.72-.5 1.33-.94 1.35-1q.02-.1-.17-.25c-.17-.12-.31-.1-.7.07-.27.11-.52.25-.56.3s-.6.45-1.24.89-1.5 1.06-1.9 1.38-.83.64-.96.7c-.23.11-1.67 1.19-2.74 2.05-.3.23-.82.63-1.19.87-.36.25-.98.72-1.38 1.05-.4.32-1.36 1.02-2.12 1.55a67 67 0 0 0-3.51 2.58l-1.03.76c-.35.24-1.43 1.03-2.4 1.76-.96.73-2.17 1.62-2.7 1.98-.52.37-1.4 1.02-1.95 1.45s-1.26.94-1.57 1.14c-.3.2-.56.44-.56.53 0 .26.58.22 1.15-.08m4.42-.18c.35-.24.9-.6 1.22-.79s.85-.57 1.18-.85c.6-.5.9-.73 2.08-1.53.37-.26.78-.56.9-.68.25-.24 1.44-1.12 2.27-1.68.59-.4 2.87-2.12 3.3-2.49a6.04 6.04 0 0 0 1.36-.95c.48-.4 1.03-.82 1.21-.93.19-.1.7-.47 1.14-.8a60 60 0 0 1 3.2-2.38c.4-.26.8-.55.87-.62a24.63 24.63 0 0 0 2.04-1.51c.49-.39.92-.7.96-.7.05 0 .32-.19.6-.41l1.79-1.35c1.27-.96 1.5-1.26.96-1.26q-.6 0-2.41 1.4c-.57.44-1.51 1.14-2.1 1.55l-2.67 1.95-2.22 1.64c-1.29.9-2.52 1.81-3.23 2.37-.4.32-1.1.84-1.53 1.15-.44.3-1.13.81-1.54 1.13a74 74 0 0 1-3.34 2.44c-.97.67-2.33 1.65-3.38 2.45-.33.25-.89.66-1.24.9-.96.68-2.67 2.03-2.8 2.22q-.15.18.31.17c.28 0 .67-.16 1.07-.44M53 36.2c1.33-.91 3.28-2.33 3.91-2.86.24-.2.7-.52 1.02-.71.32-.2.72-.48.88-.63s.75-.6 1.31-1 1.06-.77 1.1-.81.5-.4 1.02-.77c.52-.38.97-.73 1-.78.02-.05.37-.29.77-.54.4-.24.97-.64 1.27-.87a81 81 0 0 1 2.96-2.21 148.56 148.56 0 0 1 4.97-3.65c.35-.24.88-.64 1.17-.88.3-.24.63-.5.74-.56l.86-.63c.36-.28.85-.62 1.08-.76.86-.52.99-.75.52-.88q-.55-.15-1.76.82c-.36.29-.96.73-1.32.98-.78.55-2.78 2.04-2.99 2.24-.08.08-.57.43-1.1.8a65 65 0 0 0-2.8 2.04l-.82.6c-.23.18-.67.5-.98.7s-.8.57-1.08.82c-.28.24-.68.53-.88.64-.2.12-.84.57-1.4 1.01-1.3 1-1.88 1.43-2.62 1.97-.92.66-2.11 1.55-2.84 2.1-.36.29-1.07.79-1.56 1.11-.5.32-1.19.81-1.54 1.1-1.58 1.25-2.1 1.63-2.33 1.7-.27.07-.46.4-.33.57.18.26.69.07 1.77-.66m1.81.32c.4-.25.71-.5.71-.56s.12-.14.26-.18.66-.4 1.16-.79a26 26 0 0 1 2.74-2.04c.1-.04.37-.25.58-.48.22-.22.5-.4.6-.4q.2-.02.21-.12c0-.06.67-.58 1.49-1.16s1.8-1.32 2.18-1.65.74-.6.81-.6.38-.2.7-.46a35 35 0 0 1 2.24-1.65c.24-.16.96-.69 1.59-1.17.62-.49 1.42-1.06 1.75-1.28.34-.23.66-.5.7-.63.06-.12.26-.25.45-.3.2-.04.45-.17.55-.3s.64-.55 1.2-.95 1.4-1 1.89-1.37c.48-.37 1.34-1 1.9-1.4q1.51-1.07 1.53-1.34c0-.2-.72-.07-1.23.22-.58.34-2.98 2.07-3.95 2.84-.77.61-1.32 1.02-2.14 1.6-1.34.93-6.04 4.35-6.26 4.55-.38.34-1.82 1.44-2.4 1.83-.63.42-1.95 1.38-2.63 1.92-.24.19-.84.63-1.32.97L58 33.19a43 43 0 0 1-3.23 2.35c-.64.3-1.48 1.06-1.4 1.24.15.32.67.22 1.43-.26m2.28-.16c.5-.33 1.38-.97 1.96-1.41a99 99 0 0 1 3.76-2.82c.6-.42 1.48-1.07 1.99-1.45.5-.38 1.45-1.09 2.12-1.57.66-.49 1.38-1.02 1.6-1.2.21-.17.7-.53 1.1-.8l1.08-.81c.2-.17.67-.5 1.03-.76l.73-.53a92 92 0 0 1 4.74-3.43c.08-.08.67-.51 1.3-.96 1.88-1.33 3.52-2.64 3.52-2.8 0-.46-.98-.07-2.22.87-.26.2-.72.52-1.02.73s-.87.64-1.28.96c-.4.31-1.59 1.18-2.63 1.93-1.05.75-2 1.45-2.12 1.57-.12.11-.58.44-1.02.72-.44.29-1 .7-1.24.93a23 23 0 0 1-1.83 1.36 50 50 0 0 0-3.29 2.4c-.68.53-1.3.98-2.55 1.86-.75.52-1.3.94-1.73 1.3-.21.18-.77.6-1.25.94l-1.31.98c-.25.2-1.03.76-1.73 1.25-.75.53-1.28 1-1.28 1.13 0 .4.62.25 1.57-.39m1.34.43c.22-.1.63-.36.9-.58.28-.22.66-.5.86-.6.2-.12.76-.53 1.25-.92a34 34 0 0 1 2.48-1.85l1.17-.85 5.62-4.14 4.01-2.97a148 148 0 0 0 2.85-2.12c.08-.09 1.92-1.39 2.73-1.92.3-.2.87-.62 1.28-.95s1.16-.88 1.65-1.22c.49-.35.9-.7.9-.79.02-.3-.7-.33-1.05-.05-.18.15-.76.56-1.28.93-.52.36-1.11.8-1.31.95-.36.29-3.43 2.56-4.98 3.67-2.75 2-3.73 2.71-3.85 2.84-.08.07-.74.56-1.46 1.07a61 61 0 0 0-2.92 2.2c-1.53 1.09-2.93 2.12-3 2.19-.04.04-.6.45-1.24.9-.64.44-1.96 1.4-2.93 2.14s-1.94 1.44-2.15 1.56c-.52.29-.51.56.02.68.02 0 .22-.07.45-.17m2.18 0c.21-.1.52-.3.68-.45s1.31-1 2.56-1.9a507 507 0 0 0 9.06-6.65c.34-.2.8-.54 1.52-1.12.24-.19.83-.63 1.31-.97s1.1-.81 1.4-1.04c.27-.23.77-.57 1.1-.77.32-.2.8-.54 1.09-.76.27-.23.8-.61 1.16-.86s.82-.6 1.02-.77.78-.6 1.28-.95 1.2-.84 1.53-1.1c.34-.28.97-.72 1.39-.99q1.31-.85.33-.86c-.31 0-.8.26-1.86 1-.78.55-1.7 1.22-2.01 1.49-.32.26-1.47 1.1-2.56 1.86a53 53 0 0 0-2.34 1.7c-.2.17-.76.6-1.24.93-1.34.94-3.7 2.68-4.6 3.39-.76.6-1.18.92-2.42 1.77-.81.56-3.1 2.28-3.8 2.84-.33.27-.64.5-.7.5-.1 0-2.54 1.8-3.8 2.81-.39.32-.76.58-.83.58q-.11.02-.12.25.01.45.85.08m2.43-.18c.37-.25.66-.46 1.84-1.36a147 147 0 0 1 4.08-2.95 58 58 0 0 0 3.22-2.44c.35-.27.86-.63 1.14-.79.48-.29 2.73-1.95 3-2.23.09-.08.78-.6 1.54-1.13.76-.55 1.7-1.23 2.07-1.53.38-.3.8-.54.92-.54q.2-.01.22-.13c0-.07.18-.25.4-.4l1.56-1.17c.65-.49 1.5-1.1 1.91-1.38 2.3-1.57 3.12-2.36 2.68-2.6-.26-.14-.57 0-1.3.61-.38.3-.82.64-1 .74-.17.1-.52.36-.78.57s-1.16.87-2 1.47-1.82 1.32-2.16 1.61-.76.57-.92.61-.29.13-.29.2c0 .12-2.03 1.5-2.21 1.5q-.11.02-.12.2-.01.16-.13.18A29 29 0 0 0 73.57 28a.4.4 0 0 1-.3.16c-.1 0-.47.24-.83.54s-1 .79-1.45 1.1c-.44.3-.87.62-.95.7l-.95.68a30 30 0 0 0-2.48 1.85c-.6.48-1.65 1.26-2.34 1.73-2.06 1.44-2.62 1.88-2.62 2.05 0 .22.98.07 1.38-.2m2.7-.4 1.54-1.1a298 298 0 0 1 7.3-5.43 23 23 0 0 1 2.22-1.56c.12-.06.46-.32.75-.58.52-.46 1.78-1.38 2.8-2.03.27-.19.86-.63 1.3-.99s1.06-.8 1.36-.97c.3-.18.54-.37.54-.42s.68-.54 1.5-1.1q3.43-2.33 2.43-2.51c-.25-.05-1.01.47-3.84 2.59-.95.71-1.89 1.36-2.08 1.43-.18.07-.37.23-.42.34a2 2 0 0 1-.67.57c-.32.21-.7.48-.83.6s-.3.22-.4.22c-.08 0-.25.1-.38.22s-.72.59-1.3 1.04c-.6.45-1.3 1-1.56 1.23-.27.22-.53.4-.59.4s-.6.4-1.2.88c-.6.49-1.16.88-1.24.88s-.45.25-.81.54A64 64 0 0 1 68 33.58c-.65.44-1.6 1.14-2.12 1.56s-1.17.92-1.45 1.1q-.5.33-.4.53c.16.36.59.22 1.7-.57m3.05-.7c.94-.65 1.96-1.4 2.29-1.66.32-.25 1.37-1.03 2.32-1.72l2.84-2.08 1.8-1.29c.37-.26 1.14-.83 1.7-1.26a54 54 0 0 1 3-2.22c.16-.1.83-.58 1.49-1.07a42 42 0 0 1 2.91-2.12c.3-.14.68-.83.59-1.04q-.19-.44-.97.27c-.28.25-1 .8-1.6 1.23a175 175 0 0 0-4.53 3.29c-.45.34-1.34 1-1.98 1.44l-2.93 2.14-2.77 2.05c-.55.4-1.2.87-1.44 1.07s-.93.7-1.53 1.12a43 43 0 0 0-2.85 2.18c-.17.14-.38.25-.48.25s-.28.15-.42.33c-.2.26-.2.34-.05.43.33.17.86-.1 2.61-1.33m2.72 1.03c.46-.28 1.02-.67 2.62-1.9.55-.41 1.1-.8 1.22-.86.24-.13.82-.54 1.63-1.18.68-.53 2-1.5 3.73-2.74 2.8-2 6.96-5.13 7.03-5.3.05-.1 0-.25-.1-.35-.14-.15-.27-.11-.85.26-.37.25-1.2.85-1.83 1.35s-1.26.95-1.39 1.02c-.13.06-.5.32-.82.58s-.81.63-1.1.82c-.6.42-1.96 1.43-2.48 1.85-.2.16-1.08.8-1.97 1.4a65 65 0 0 0-3.72 2.71c-.85.6-2.47 1.84-2.9 2.24q-.36.33-.15.41c.21.12.5.04 1.08-.31m2.04.05c.39-.22.8-.5.94-.62.24-.23 2.54-1.9 5.16-3.75a87 87 0 0 0 3.25-2.4l2.25-1.62c.65-.45 2.3-1.75 2.47-1.95.44-.53-.28-.83-.8-.33-.15.15-.8.65-1.44 1.12s-1.41 1.04-1.7 1.27-.92.68-1.37.99-1.12.8-1.47 1.1-.7.53-.78.53-.3.13-.48.29c-.19.15-.73.56-1.2.9l-1.02.76-1.47 1.07c-.72.51-1.64 1.2-2.04 1.54-.4.33-.84.63-.98.67-.4.11-.53.81-.14.81.06 0 .43-.17.82-.38m11.83.26c.05-.07.23-.13.4-.13.56 0 2-1.09 2-1.53.01-.43-.44-.34-1.19.25-1.09.85-1.58 1.3-1.58 1.42 0 .15.26.14.37-.01m-14.6-1.3 2.7-1.96c.52-.37 1-.75 1.07-.85.06-.1.19-.17.28-.17.08 0 .53-.3.98-.66a40 40 0 0 1 1.82-1.35c.55-.38 1.14-.81 1.3-.95l1.03-.74c.39-.27.91-.66 1.17-.86s.88-.67 1.4-1.04c.52-.36 1.15-.82 1.39-1.02s.65-.5.9-.68c1.65-1.11 2.97-2.18 2.97-2.39 0-.37-.28-.43-.64-.14-.18.15-.4.27-.47.27-.08 0-.3.15-.5.34a27 27 0 0 1-1.83 1.38c-.8.56-2.27 1.63-3.28 2.36-1 .74-2.28 1.66-2.84 2.05-.57.4-1.58 1.14-2.27 1.66-.68.53-1.67 1.26-2.19 1.64-1.34.96-1.26.9-2.55 1.9A23 23 0 0 1 69 35.9l-.56.42c-.38.26-.29.53.17.53.3 0 .85-.33 2.16-1.3m5.07.96c.3-.18.55-.37.55-.43s.18-.2.4-.3.7-.42 1.07-.72 1.33-1 2.13-1.57 1.56-1.13 1.67-1.25.56-.44 1-.72.97-.65 1.19-.83c.5-.41.81-.64 2.27-1.68 1.2-.86 1.66-1.31 1.66-1.66 0-.23-.53-.26-.69-.03-.06.09-.64.53-1.28.97-.65.45-1.43 1.02-1.76 1.28-.32.25-1.27.96-2.11 1.57l-1.9 1.38-3.2 2.35c-1.8 1.3-2.2 1.62-2.2 1.8 0 .28.6.2 1.2-.16m1.9.05c.48-.28 1.24-.8 1.79-1.2.16-.13.62-.45 1.02-.72s.78-.56.84-.65.46-.36.88-.62 1.12-.77 1.57-1.13 1.19-.92 1.66-1.26c1.15-.8 2.28-1.74 2.28-1.91 0-.08-.12-.2-.26-.26-.2-.1-.37-.01-.87.43-.34.31-.66.56-.71.56-.06 0-.51.3-1.01.66l-1.96 1.42c-.58.41-1.12.85-1.2.97s-.2.22-.3.22c-.08 0-.43.21-.77.47l-2.39 1.78a9 9 0 0 0-1.69 1.42c.14.2.65.11 1.13-.18m2.24-.04c.35-.18.7-.4.75-.47.06-.08.4-.34.77-.58.36-.24 1.38-.98 2.26-1.64.89-.66 2.15-1.6 2.82-2.07.92-.65 1.2-.92 1.17-1.12-.03-.15-.14-.29-.26-.3-.19-.03-1.11.56-2.2 1.4-.94.72-1.9 1.44-2.21 1.65-.2.13-1.12.79-2.02 1.44l-2.01 1.46c-.38.27-.35.56.06.56.12 0 .51-.15.87-.33m2.19.03c.28-.16.81-.55 1.19-.85s1.02-.78 1.43-1.06c.89-.6.99-.67 2.11-1.58.9-.71 1.1-1.12.6-1.12-.27 0-1.34.72-3.36 2.24-.43.32-.88.6-.98.63q-.18.05-.2.15c0 .06-.46.4-1.02.76s-1.02.73-1.02.8c0 .42.56.43 1.25.03m1.86.09c.25-.11.5-.25.54-.3.07-.08.56-.45 2.1-1.57.72-.51 1.18-1.11 1.03-1.32-.12-.18-.47-.16-.6.04-.07.08-.49.4-.93.72a53 53 0 0 0-2.6 1.91c-.81.6-.51.95.46.52m3.57-.19c-.23-.12-.48.07-.34.27q.1.15.32-.01c.17-.13.17-.18.02-.26m-46-1.22c.47-.36 1.37-1.02 2.02-1.47l1.38-.98 2.34-1.73 2.19-1.64a154.2 154.2 0 0 0 3.58-2.58l7.66-5.65 1.45-1.07c.35-.24 1-.73 1.45-1.1a6 6 0 0 1 1.06-.72c.34-.1.46-.43.2-.52q-.56-.18-1.47.5l-1.52 1.13-3.08 2.26a65 65 0 0 0-3.17 2.36c-.22.18-.72.54-1.12.8-.8.53-.88.59-2.27 1.7-.52.42-1 .76-1.05.76s-.35.2-.65.45-.79.59-1.07.75-.97.67-1.53 1.13-1.3 1-1.63 1.2c-.34.2-.63.41-.66.47s-.6.49-1.29.97c-3 2.13-4.38 3.23-4.38 3.52 0 .6.18.53 1.56-.54m-.23-1.34 1.37-1.06c.24-.2 1-.74 1.68-1.2 1.16-.8 2.25-1.61 3.98-2.96.4-.31.83-.62.96-.68.14-.07.56-.38.95-.7s.77-.6.85-.62.37-.22.64-.44c.61-.48 1.21-.91 2.22-1.6.42-.3.76-.58.76-.64s.17-.16.37-.23c.2-.06.36-.17.36-.24s.35-.36.77-.64c.77-.5 2-1.38 2.81-2l1.17-.82c.4-.28.84-.63.99-.78.14-.15.58-.48.97-.74q.72-.45.64-.63c-.2-.48-1.23-.02-2.85 1.28a5 5 0 0 1-.94.67c-.07 0-.56.36-1.08.79-.97.8-1.93 1.51-2.99 2.23a49 49 0 0 0-2.84 2.08c-.53.41-1.13.87-1.33 1a70 70 0 0 0-3.2 2.34c-.68.53-2 1.5-2.92 2.17l-4.07 2.95c-.46.32-.6.5-.6.8 0 .53.27.46 1.33-.33m-.1-1.51c.5-.38.95-.7 1-.7.03 0 .54-.39 1.12-.87a7 7 0 0 1 1.2-.88c.15 0 .55-.28 2.36-1.67.85-.65.94-.72 2.22-1.67.56-.42 1.28-.93 1.6-1.13s.68-.47.8-.58c.46-.44 2.3-1.8 3.3-2.44.56-.36 1.38-.93 1.8-1.27l2.13-1.66c.16-.13.55-.4.87-.6 1.31-.84 1.56-1.19.83-1.19-.4 0-1.48.57-1.92 1.01-.12.13-1.04.79-2.04 1.48a33 33 0 0 0-2.03 1.46c-.1.11-.29.2-.4.2-.1 0-.3.18-.44.38s-.31.38-.38.38c-.06 0-.52.31-1.02.7l-1.74 1.32c-.45.34-.88.62-.95.62s-.49.3-.93.67c-.88.73-2.28 1.8-3.04 2.33l-.88.65c-.21.17-.68.52-1.04.77s-.95.7-1.31.98c-.37.3-.83.6-1.04.7-.58.27-1.3 1.04-1.3 1.4 0 .16.07.3.16.3s.57-.3 1.07-.69m.42-1.87a60 60 0 0 0 2.38-1.73c.57-.44 1.55-1.17 2.19-1.62s1.55-1.13 2.04-1.51c.48-.38 1.5-1.13 2.26-1.66s1.6-1.15 1.89-1.38a31 31 0 0 1 2.2-1.62c.27-.17.92-.64 1.44-1.04.53-.4 1.12-.83 1.32-.95.7-.4 1.35-1 1.26-1.13-.24-.33-1.08.05-2.7 1.23l-3.68 2.65c-.12.1-.51.39-.86.63s-.84.6-1.1.82l-2.06 1.5a216 216 0 0 0-4.94 3.68l-1.53 1.08c-.69.48-1.36 1.02-1.5 1.2-.29.37-.34.78-.11.78.08 0 .76-.42 1.5-.93m-1.19-.69c.03-.05.4-.34.84-.63 1.04-.7 3.16-2.25 3.73-2.72.24-.2.94-.71 1.54-1.13a44 44 0 0 0 2.4-1.76c.27-.21.86-.64 1.32-.95.45-.31 1.2-.85 1.67-1.2l2.43-1.8c.7-.54 1.48-1.1 1.89-1.34.27-.16.27-.19.05-.38-.21-.19-.27-.19-.73 0-.62.24-2.57 1.6-4.1 2.86-.14.13-.3.22-.34.22s-.39.26-.75.57c-.36.32-.83.65-1.05.75-.2.1-.56.33-.77.53s-.74.62-1.17.94l-1.9 1.41c-.62.46-1.18.84-1.25.84s-.3.14-.49.32-1.05.84-1.9 1.45c-1.44 1.05-1.88 1.5-1.88 1.94 0 .2.38.26.46.08m.24-1.75c.21-.12.63-.42.92-.66.28-.24.97-.75 1.51-1.13a205 205 0 0 0 7.19-5.23c.41-.3.79-.56.83-.56s.24-.13.43-.28l.71-.54c1.1-.77 2.16-1.6 2.16-1.7 0-.42-1.43-.04-2.11.57-.24.21-1.13.89-1.97 1.5-.85.6-2.04 1.5-2.66 2-.61.48-1.24.94-1.39 1.01s-.4.24-.56.39c-.17.14-.5.37-.72.51-.23.14-.68.47-1 .74-.33.27-1.06.8-1.63 1.2-1.7 1.17-2.41 1.78-2.41 2.1 0 .36.17.38.7.08m.28-1.73c.29-.24.57-.44.62-.44s.44-.29.87-.64c.42-.35 1.57-1.19 2.55-1.86s2.22-1.58 2.76-2.02 1.13-.9 1.31-1c.74-.44 2.59-1.8 2.59-1.92 0-.06.16-.18.36-.26.2-.07.37-.18.37-.24 0-.18-.54-.24-.94-.11-.53.17-2.7 1.66-2.7 1.86 0 .08-.1.15-.2.15s-.47.25-.84.54c-.36.3-.98.76-1.37 1.04-.4.27-.89.63-1.1.8-.2.16-1.37 1.03-2.6 1.92-2.28 1.68-2.66 2.02-2.66 2.4 0 .35.4.26.98-.22m.22-1.73c.5-.37 1.28-.91 1.72-1.21s1.24-.9 1.78-1.32l1.16-.9c.92-.6 2.3-1.6 2.34-1.67.03-.05.46-.37.96-.72 1.09-.75 1.18-1 .32-.9-.43.05-.79.22-1.35.65-.75.6-1 .78-2.38 1.79l-4.16 3.06c-1.42 1.03-1.82 1.51-1.5 1.8.15.12.13.14 1.11-.58m.33-1.8a45 45 0 0 0 1.57-1.12 81 81 0 0 1 2.81-2.04c.16-.13.7-.52 1.2-.86 1.04-.7 1.15-.94.43-.94-.38 0-.73.18-1.71.88l-2.21 1.58c-.55.38-1.14.82-1.34.97l-1.31 1.02q-.97.74-.97 1.01c0 .45.15.47.66.1zm-.26-1.34c1.31-1 3.38-2.5 4.09-2.97.34-.22.63-.46.63-.53s-.26-.12-.58-.12c-.5 0-.73.11-1.8.91l-1.8 1.32c-1.67 1.18-2.08 1.65-1.71 1.96.17.15.29.1 1.17-.57m.35-1.74c.72-.5 1.3-.95 1.3-1 0-.07.2-.2.44-.31s.44-.28.44-.38c0-.32-.88-.23-1.5.15-.74.44-2.14 1.54-2.31 1.82-.15.24-.04.6.19.6.08 0 .73-.4 1.44-.88m-.56-1.17c.55-.37.7-.7.36-.72-.71-.06-1.42.35-1.42.83 0 .53.14.52 1.06-.11m-17.24.96c.04-.17.2-.22.68-.22.99 0 1.25-.58.4-.9-.62-.21-.64-.33-.16-.6.2-.12.37-.3.37-.4 0-.25-.41-.38-.62-.2-.23.2-.7.18-.7-.03 0-.27.67-.58 1.24-.58.66 0 1.09.47.84.94-.13.24-.11.4.06.7.28.47.15 1.06-.28 1.32-.18.1-.64.19-1.1.19-.66 0-.77-.04-.73-.22m5.43-1.48c-.13-.3.14-.47.7-.42.38.03.49.1.49.3s-.11.25-.55.28c-.4.03-.57-.01-.64-.16m2.46-.16c.05-.27.77-.37 1.07-.15q.56.38-.45.37c-.56 0-.66-.04-.62-.22m2.33 0c.06-.25.8-.36 1.12-.17.34.19.04.4-.58.4-.48 0-.58-.05-.54-.23m2.34 0c.04-.16.2-.22.63-.22s.59.06.63.22c.04.19-.07.22-.63.22s-.67-.03-.63-.22m-24.46-5.82c-.6-.45-1.05-1.46-.9-1.98l.1-.34-.31.25c-.18.13-.62.27-1 .3l-.69.07.02.65c.02.64.01.65-.43.7-.26.02-.58.02-.72 0-.31-.05-.33-.35-.03-.45.12-.04.22-.23.22-.42 0-.2.1-.5.21-.66.12-.18.22-.62.22-.98v-.66h.92q1.58-.01 1.57.85c0 .33.02.32.62-.25.52-.5.73-.6 1.3-.67.67-.08.71-.07 1.32.47.35.3.78.71.95.92.27.32.35.35.47.19.22-.28.18-.66-.08-.98-.32-.4-.16-.66.38-.66.51 0 .71.28.42.59q-.2.2-.2 1.4c0 .73-.07 1.22-.16 1.25a4 4 0 0 1-1.14-.97c-.53-.55-1.04-1-1.12-1-.07 0-.14.3-.14.66 0 .52.07.73.3.91.29.22.3.25.05.4-.3.19-.77.2-1.07.04-.18-.1-.18-.17-.03-.4.1-.17.2-.75.21-1.3.03-.99.02-1-.32-1-.52 0-.93.55-1 1.37-.07.7.16 1.24.64 1.49.11.05.2.18.2.27q-.02.51-.78-.06M10.2 9.47q.1-.32-.1-.43c-.27-.15-.57.1-.57.46 0 .43.55.4.67-.03m13.93 2.66c0-.1.08-.23.18-.28.44-.24.7-.8.7-1.54 0-.66-.06-.81-.43-1.17l-.43-.41-.38.3c-.38.32-.38.32-.08.42q.31.1.26.32c-.03.17-.2.22-.7.22-.79 0-.9-.22-.37-.75.49-.48.5-.88.03-.78s-.59-.04-.3-.32c.36-.34 1.02-.3 1.31.09.13.17.35.31.49.31.37 0 1.1.75 1.32 1.35.24.66.02 1.38-.63 2.01-.43.43-.97.55-.97.23m-7.38-.92c.06-.26.23-.72.38-1.02.16-.3.28-.63.28-.73 0-.32.44-.92.68-.92q.42.01-.16 1.45c-.5 1.19-.8 1.7-1.04 1.7-.2 0-.22-.09-.14-.48m1.65-.56c.04-.57.15-1.08.24-1.13s.84-.08 1.68-.06c1.8.04 1.84.08 1.95 1.38l.07.85h-.99l.1-.76c.09-.7-.06-1.13-.38-1.13-.23 0-.38.6-.29 1.13.05.31.07.6.04.66-.04.05-.61.1-1.28.1h-1.2zm1.64-.03c0-.68-.28-.92-.65-.57-.2.18-.24.35-.17.64.21.93.82.88.82-.07" style="fill:#000"/></svg>