<svg xmlns="http://www.w3.org/2000/svg" xml:space="preserve" width="120mm" height="30mm" viewBox="0 0 120 30"><path d="m132.8 44.5 62 27.1" style="opacity:1;fill:#000;fill-opacity:.920746"/><path d="m11.2 18.2-.4-.6-.7-1.2-.7-1.2v-.3l.1-.2 1.3-1 1.2-.9 1.1-.8 1-.8.3-.4.1-.3.5-1 .5-1.2h.2L16 8h6.6l.8.3.8.2 1.5.5 1.6.5 4.6.1 4.5.1 9 .2 9 .1 1.3.1 1.5.1 9.5.2 9.5.1H80l.1-.2.3-.2h5.3l1.4.2 1.4.2 1.2-.2 1.1-.2H97l1.9.2 2 .2h1l1 .2 1.6.3 1.6.2 2.5-.1 2.5-.1h.9l.2.2.2.2v5.1l-.1.2-.2.1-.8.1h-1.9l-1-.2-1-.3-.6.1h-.5l-1.6.4-1.5.3-2.1.2-2.1.2h-6.9l-1-.2-1-.2h-.9l-.1-.2-.1-.1h-3.8l-3.7-.1-.7-.2-.7-.2-.7-.1-.7-.2-5.2-.2h-7.8l-9-.2H48l-2.1-.1-2.2-.1-8.2-.1-8.2-.2-1.7.5-1.7.4H23l-.6.2h-6.7l-.5.3-.4.2-.6.4-.7.5-.6.5-.7.5h-.6zm1.5-.5.4-.4 1-.6.9-.7-.1-.3v-.3l-.3-1.4-.2-1.4-.2-.2-.1-.1h-.2l-.3.1-.5.4-.5.4h-.3l-.5.5-.5.4-.5.4-.5.3v.7l.4.7.4.8h.2v.1l.7-.4.6-.4h.7v.3l.1.2-.6.3-.6.3h-.7v.2l.2.2.2.2h.4zm88.3-.9 2.5-.2 1-.2h.9l.4-.2.4-.2h1.5l.6.2.6.2h.8l.2-.2.2-.2v-1.6l.1-1.5-.2-.6-.2-.5h-.2l-.3-.2-1 .2-.9.1h-1l-.9-.2-1.1-.2-1.1-.1-1-.1-.9-.2-2-.1-1.9-.2-.5-.1-.5-.1h-4.8l-1.3.2-1.2.3-.2.1-.1.2v2.4l-.1 2.5.1.1.2.1.7.2.7.2h1.2l1.1.2h5.7zm10.1-1.6.1-1v-1.1l-.1-1.2-.2-.1-.1-.2-.2.1-.1.1v1.7l.2 1.6-.2.5-.1.5.1.3.2.2.1-.2.2-.3zm-28.3 1V16l.2-2.5V11l-.2-.1-.2-.2H81l-.1.1-.2.1v4.2l-.3.4-.1.3v.2l.1.2h.8V16l.2-.2v-.7l.1-.7h.3l.1.1.1.3-.1.6-.2.6v.2l.2.2h.4l.4-.1zm1.9-.5.2-.6V11l-.3-.2-.3-.1h-.5l-.1.2-.1.2v2.3l-.1 1.4-.2 1.4.1.1v.1h1.1zm1.7.3.2-.3v-1.4l.1-.2.2-.2h.1l.2.2v2.3h.9l.1-2.5v-2.6l-.3-.2-1-.1-1-.1h-.3l-.2.2v4.4l-.2.5v.2l.1.3h.5l.4-.1zm25.6 0 .2-.2v-3.5l-.2-.2h-.3v4.1h.2zm-89.9-.3.2-.2V9.2L22 9H22v1.2l-.1.6h-.2v.2l-1 .2-1 .1-1.2.2-1 .2h-.1v.2l.6.4.6.3.1.4.1.3v1.1l-.2.3-.3.3-.3.2-.3.2h-.9l-.4-.3-.4-.2-.2-.3-.1-.4v-1.2l.2-.2.3-.3.5-.3.5-.3H16l-.5.2-.5.2-.1.3v.3l.2 1.1.3 1.1.2.4.2.3H22zm57.5 0 .3-.2v-.6l.1-.5.1-1.5.1-1.6h-.1l-.2-.2h-3l-3-.1H66l-8-.2H58l-.3-.1-8.6-.1-8.7-.2-6.5-.1-6.5-.1-.3-.2-.4-.1-1.3-.4-1.2-.4h-1.3v6.3l.2.2.2.2 1-.3.8-.2.4-.2.3-.2v-.5l-.2-.6v-1.2h.4v1l.2 1 3 .2h3l9.3.2 9.2.2 3.4.1 3.4.1 5.9.1 6 .1 4.9.1 4.9.1h.3zm-61.8-1.2.5-.4-.2-.5-.3-.5-.3-.1-.4-.1-.4.3-.3.4v.4l.2.4.3.3.2.2h.2zm-1.3-3.1.4-.1.9-.1h.8l.7-.3.7-.2h.6l.5-.1.2-.2.1-.2V8.7h-2.6l-2.4-.1-.3.2-.2.2-.6 1.2-.7 1.2.1.1.1.2.7-.1h.7z" style="fill:#000"/></svg>