<svg xmlns="http://www.w3.org/2000/svg" xml:space="preserve" width="120mm" height="60mm" viewBox="0 0 120 60"><path d="m132.84 44.51 61.9 27.13" style="opacity:1;fill:#000;fill-opacity:.920746"/><path d="M108.34 52.17c-2.79-1.01-3.04-5.86-.38-7.33.28-.15.97-.27 1.54-.27 1.22 0 1.98.5 2.76 1.8.4.66.47 1 .44 2.02-.03 1.24-.5 2.57-1.1 3.1a3.3 3.3 0 0 1-3.26.68m2.42-1.2c0-.34-.62-.55-1.68-.57-.92-.03-1.33-.4-1.36-1.3l-.05-.9q-.02-.25 1.17-.34c.9-.07 1.19-.17 1.19-.39 0-.23-.22-.28-1.03-.24-.73.03-1.1-.03-1.26-.24q-.9-1.17-.73 2.13c.05.89.8 1.9 1.6 2.13.89.26 2.15.1 2.15-.28m1.11-1.85c.07-.27.06-.88 0-1.36-.17-1.2-1.33-2.42-2.29-2.41-.72 0-1.5.35-1.6.72-.06.18.3.24 1.38.24 1.6 0 1.68.06 1.68 1.25 0 .8-.37 1.13-1.29 1.13-.4 0-.81.11-.93.26-.27.35-.02.43 1.48.51.66.04 1.25.08 1.33.1.07.02.18-.18.25-.44m-42.97.8c-.2-.17-.5-.3-.65-.31-.37-.01-1.09-.8-1.09-1.2a1 1 0 0 0-.27-.55c-.32-.28-.38-2.05-.09-2.52.3-.49.54.15.54 1.46 0 1.1.05 1.22.7 1.88.85.89 2.06 1.05 2.85.39 1.33-1.1 1.7-2.52 1.03-3.9-.35-.74-1.54-1.57-2.25-1.57-.24 0-1.39.47-1.75.71-.04.03.14.32.4.65.31.38.49.84.49 1.23 0 .97.39 1.38 1.3 1.38.45 0 .8.1.84.24.1.33-2.16.34-2.47.01-.12-.13-.22-.69-.22-1.24 0-.85-.07-1.08-.46-1.4-.25-.2-.45-.5-.45-.65 0-.32.74-1.12 1.04-1.12.1 0 .43-.13.71-.29.46-.25.57-.25.93 0 .23.16.6.29.84.29 1.19 0 2.7 3.24 1.9 4.1-.12.14-.4.6-.6 1.03-.58 1.2-2.5 2-3.27 1.37m40.25-7.22c-.07-.07-.13-1.2-.13-2.5v-2.37l-.5-.18a8 8 0 0 0-2.42-.03c-3.82.31-7.99.57-9.6.58-.9 0-2.14.1-2.74.2-1.1.17-7.16.58-14.26.94-3.43.18-9.06.53-9.18.57-.03 0-.05.4-.05.87 0 1.02-.14 1.47-.46 1.47q-.45 0-.45-1.38c0-.44-.1-.8-.23-.85s-4.5-.13-9.74-.18c-5.22-.04-11.02-.17-12.88-.28s-4.5-.25-5.85-.3a84 84 0 0 1-8.78-.7c-.45-.1-2.15-.3-3.77-.47a45 45 0 0 1-3.84-.5c-.49-.12-1.3-.29-1.8-.38a49 49 0 0 1-7.95-2.12c-.56-.23-1.23-.5-1.5-.58-1.45-.48-4.54-2.83-4.54-3.46 0-.39-.53-.6-1.73-.7-2.02-.15-2.16-.81-.19-.92 1.02-.05 1.1-.1 1.15-.54.42-4.31 2.75-8 6.79-10.8 1.58-1.08 6.08-2.94 7.15-2.94.26 0 .55-.08.64-.18.24-.25 3.2-.99 3.95-.99.34 0 1.27-.14 2.08-.3 1.17-.26 2.92-.33 8.77-.38l7.31-.05.06-2.73c.03-1.67-.03-2.89-.15-3.12-.18-.37-.4-.38-4.98-.39-4.94 0-5.62-.06-5.62-.48s.69-.48 5.98-.48c4.91 0 5.17.02 5.35.37.1.22.19 1.75.19 3.59 0 2.4.05 3.23.23 3.3.21.08 2.36.31 6.26.68 3.16.3 11.55 2.2 16.26 3.69l2.56.8c.7.21 1.5.5 1.77.66.27.14.65.26.86.26s.65.13.98.27 1.05.42 1.6.6c.56.19 1.42.5 1.92.69s1.29.46 1.74.6 1.28.45 1.83.7c.55.26 1.61.68 2.35.94l1.35.48 1.3-.72c1.46-.8 2.96-1.65 4.05-2.31 1.95-1.18 2.14-1.28 2.33-1.08.31.33-.14.73-2.13 1.88-3.49 2.02-4.03 2.36-4.1 2.57-.06.23 1.23.95 2.98 1.66.6.25 1.65.72 2.33 1.05.67.34 1.27.61 1.32.61.08 0 1.17.53 4.21 2.05 2.4 1.2 8.01 4.4 9.71 5.53.62.4 1.18.74 1.26.74.07 0 .38.23.69.5.54.48.62.5 3.04.47 3.15-.03 2.94-.06 2.94.37 0 .52-.33.6-2.55.6-1.5 0-2.02.07-2.2.28-.13.17-.26 1.23-.32 2.62-.1 2.2-.23 2.65-.65 2.2m-42.08-3.92 2.2-.12.1-1.06c.15-1.63 0-2.18-.7-2.4-.62-.18-.79-.63-.31-.82.27-.11 3.72.17 6.37.51q2.06.28 1.39.79c-.35.25-4.15.04-4.72-.26-.8-.42-1.04-.01-1.04 1.72v1.52l1 .07c.56.03 3.56-.07 6.68-.24l9.87-.52c4.1-.21 5.52-.46 4.48-.77a10 10 0 0 0-1.83-.17c-.75 0-2.36-.14-3.56-.3s-3.06-.29-4.12-.3c-2.2-.01-4.53-.26-4.76-.5-.09-.1-.1-.28-.02-.41.17-.28 5.09-.07 9.72.42 1.46.15 4.38.38 6.49.5 2.5.15 4.11.34 4.62.53.65.25.95.26 1.74.08a7 7 0 0 1 1.4-.2c.26 0 1.53-.02 2.84-.06 1.96-.05 2.38-.11 2.38-.35 0-.16-.3-.46-.67-.68l-2.9-1.71a161 161 0 0 0-5.94-3.37 122 122 0 0 0-8.9-4.29c-2.29-1.13-3.83-1.62-4.37-1.37-.67.3-2.03 1.14-2.35 1.43-.15.15-.48.33-.73.4a8 8 0 0 0-1.28.68c-.46.3-1.39.85-2.06 1.24-.79.46-1.34.93-1.52 1.3-.3.62-.88.74-1.45.3-.65-.5-.22-.88 3.2-2.75.55-.3 1.11-.64 1.25-.75a32 32 0 0 1 2.01-1.2c1.86-1.03 2.24-1.51 1.36-1.74a5 5 0 0 1-.97-.38c-.88-.5-2.18-1.05-2.45-1.05-.29 0-3.28-1.07-3.78-1.35-.17-.09-.86-.3-1.56-.48s-1.5-.43-1.8-.58-1.17-.45-1.93-.67l-4.11-1.26c-.5-.15-1.28-.34-1.74-.41a16 16 0 0 1-2.1-.58 30 30 0 0 0-4.57-1.13c-.7-.14-1.6-.35-2-.47a56 56 0 0 0-7.57-1.02c-2.36-.2-2.83-.18-2.97.04-.09.15-.16 2.6-.16 5.45v5.18l.45.22c.54.26.57.48.14.99-.27.3-.33.83-.38 3.16-.04 2.18 0 2.8.18 2.87.14.05 1.44.18 2.9.3 1.46.1 3.68.29 4.93.4 1.26.11 3.7.31 5.44.44 3.14.24 3.98.47 3.34.92-.3.2-3.93.08-6.3-.22-.81-.1-2.58-.27-3.94-.38s-3.41-.28-4.57-.38a52 52 0 0 0-3.47-.2c-1.7 0-2.23-.14-2.16-.56.04-.22.33-.34 1.06-.4.87-.1 1.02-.16 1.13-.59.24-.9.52-7.8.52-12.62v-4.8l-.45-.1c-.74-.2-13.6.03-15.46.28-2.13.28-4.12.7-5.59 1.2-.6.2-1.3.36-1.55.36-.46 0-3.08.93-3.73 1.32-.2.12-.78.4-1.28.62-1.1.48-1.01.42-2.59 1.65-1.47 1.13-3.54 3.37-3.54 3.83 0 .4-.07.4 1 .01a4.4 4.4 0 0 1 3.97.49c.82.58 1.48 1.3 1.9 2.06.11.21.5.39 1 .46.97.14 1.1.6.25.83-.53.14-.59.24-.75 1.31a4 4 0 0 0-.04 1.38c.07.13.53.25 1.02.29 4.03.26 7.22.6 7.4.8.34.36.03.89-.44.75-.23-.07-1.77-.2-3.43-.31-1.65-.1-3.5-.25-4.08-.32-1.03-.12-1.08-.1-1.73.55-1.09 1.09-1.7 1.51-2.18 1.51q-.45 0-.38.3c.11.6 5.1 2.1 9.56 2.88 4.1.71 5.42.89 6.83.89.83 0 1.7.1 1.91.23 1.23.71 27.22 1.56 34.95 1.14m35.65-2.3c-.2-.05-.56-.17-.8-.26-.36-.15-.4-.22-.2-.47.24-.3 1.36-.22 1.72.13.26.26-.28.7-.72.6m-3.78-.9c-.48-.24-.7-1.08-.28-1.08.43 0 1.4.6 1.4.87 0 .36-.62.48-1.12.22m-34.33-.97c-.34-.43-.06-.69.74-.69q.73 0 .84.31c.22.61-1.14.94-1.58.38m30.83.05c-.69-.27-.59-.81.17-.9.71-.07 1.3.45.97.86-.25.31-.43.32-1.14.04m-3.17-.68c-.45-.1-.73-.64-.43-.83.11-.07.5-.08.88-.02.51.1.67.21.67.5q.01.6-1.12.35m-3.54-1.01c-.33-.28-.4-.44-.25-.6.27-.28 1.6.28 1.49.63-.12.4-.74.37-1.24-.03m-51-.24c-1.47-.18-2.1-.25-4.66-.5-1.27-.11-1.64-.21-1.64-.44 0-.38 1.8-.48 3.5-.2.69.12 2.08.21 3.09.2 1.47-.02 1.89.04 2.08.28s.2.36 0 .6c-.24.3-.3.3-2.37.06m48.17-.36c-.06-.1-.32-.19-.57-.19-.6 0-.53-.65.08-.74.5-.08 1.31.44 1.31.84 0 .32-.64.4-.82.1m-56.99-.53c-.76-.1-.64-.63.14-.63q.64 0 .64.28c0 .36-.16.43-.78.35m53.24-.22c-.25-.07-.48-.28-.51-.46-.05-.26.07-.33.54-.33.77 0 1.16.25 1.01.65-.12.33-.3.36-1.04.14m-3.6-.73c-.38-.16-.27-.63.18-.75.55-.15 1.41.21 1.41.58 0 .22-.18.3-.68.28a4 4 0 0 1-.92-.1M72 29.6c-.43-.33-.21-.7.42-.7.66 0 1.03.28.89.66s-.85.4-1.3.05M69 29.1c-.25-.07-.48-.3-.52-.49-.06-.32.02-.34.72-.22.92.15.98.2.83.59-.11.32-.3.34-1.03.12m-3.74-.66c-.43-.34-.21-.71.42-.7.65 0 1.02.27.89.65-.14.37-.85.4-1.3.05m-3.07-.36c-.62-.24-.65-.7-.06-.85.7-.18 1.2.07 1.2.6s-.28.59-1.14.25m-3.75-.58c-.35-.37-.27-.72.22-.85.56-.15 1.24.23 1.16.66-.07.4-1.05.54-1.38.2m-2.97-.33a.7.7 0 0 1-.51-.57c-.06-.39 0-.42.45-.31 1.06.25 1.18.32 1.12.63q-.08.55-1.06.25m-3.62-.42c-.68-.29-.38-.67.53-.67.69 0 .8.06.8.39 0 .45-.64.58-1.33.28m-30.9-.32c.08-.42 1.19-.79 1.47-.48.33.35-.18.81-.9.81-.49 0-.61-.07-.56-.33m3.38-.2c-.07-.06-.12-.27-.12-.47 0-.3.15-.35.92-.35.8 0 .91.05.91.38 0 .22-.06.4-.13.4-.8.12-1.5.14-1.58.04m23.72-.14c-.14-.38.06-.68.45-.68.42 0 1.16.56 1.02.78-.17.3-1.36.22-1.47-.1m-6.09-.08c-.54-.16-.66-.47-.32-.77.2-.17.42-.15.94.08.56.25.64.35.46.58-.24.3-.39.31-1.08.11m-14.09-.27c0-.34.82-.75 1.2-.6a.4.4 0 0 1 .22.43c-.07.42-1.42.57-1.42.17m3.41.11a.5.5 0 0 1-.12-.28c0-.25 1.1-.78 1.39-.67.32.13.34.68.03.79-.64.2-1.2.28-1.3.16m3.48-.26c-.26-.17-.28-.27-.11-.5.3-.37 1.6-.35 1.75.03.06.17.07.35.02.4-.21.22-1.35.27-1.66.07m3.45-.06c-.47-.36-.2-.7.55-.7q.64 0 .75.3c.21.6-.7.87-1.3.4m-24.14 6.93a3 3 0 0 0 1.2-.58c.45-.58.07-.8-1.6-.93-.88-.07-2.17-.18-2.85-.25-1.12-.11-1.23-.09-1.23.24 0 .63 1.93 1.7 3.26 1.8a6 6 0 0 0 1.22-.28m2.45-2.4c.2-.12.26-.51.24-1.37-.07-2.38-.52-3.23-2.18-4.08-.68-.35-1.04-.4-2.16-.32-1.78.12-2.47.6-3.2 2.2-.6 1.3-.66 1.86-.3 2.6.21.45.35.5 3.05.8 3.4.37 4.21.4 4.55.17m-5.54-1.14c-.06-.1.18-.38.54-.62.5-.32.7-.37.87-.2.33.34-.1.88-.74.95-.31.03-.61-.03-.67-.13m3.24-1.1c-.14-.4-.05-.47.74-.6.58-.1.66-.07.66.27 0 .59-1.2.87-1.4.33M96.7 21.6c-1.22-.68-2.29-2.3-2.29-3.47 0-.76.9-2.55 1.56-3.07.53-.43.8-.5 1.98-.5 1.17 0 1.48.08 2.05.49.38.27.87.76 1.1 1.1.8 1.15.48 3.88-.56 4.66q-2.23 1.69-3.84.79m2.4-.88c.29-.13.75-.5 1.02-.81.45-.5.5-.73.5-1.86 0-1.21-.03-1.31-.64-1.95-.62-.62-.73-.66-1.9-.66-1.43 0-1.82.25-2.4 1.53-.41.9-.43 1.14-.12 2.05.31.94.45 1.14 1.11 1.56.65.42 1.69.48 2.44.14m-.86-1.12c-.38-.25.36-.78 1.1-.78s1.08.4.67.76c-.25.22-1.44.23-1.77.02m-1.81-.38c-.1-.2-.2-.9-.2-1.54 0-1.16.01-1.16.6-1.28a9 9 0 0 1 1.7-.06c.95.06 1.09.11 1.09.45s-.14.4-1.04.45c-.86.04-1.08.13-1.33.53-.27.44-.27.52-.01.9.15.24.28.55.28.68 0 .4-.88.3-1.1-.13M26.6 9.52c-.24-.2-.67-.69-.96-1.08-.5-.66-.53-.8-.46-2.1.08-1.51.36-2.16 1.18-2.74.6-.43 1.64-.84 2.15-.84 1.13 0 3.17 1.35 3.19 2.12 0 .16.12.47.27.67s.27.65.27.98-.12.77-.27.98-.27.5-.27.65c-.01.29-.58.9-1.3 1.4-.7.47-3.24.45-3.8-.04m3.15-.6c.1-.08.09-.25-.02-.4-.11-.13-.19-.7-.18-1.25.02-1.44-.23-1.68-1.57-1.52-.9.1-1.14.07-1.44-.21-.3-.3-.38-.3-.53-.06-.26.44-.18 1.57.16 2.25.77 1.51 2.56 2.1 3.58 1.2m1.6-2.44c.04-.95 0-1.07-.66-1.78-.39-.42-.76-.73-.82-.69s-.37-.06-.69-.22c-.53-.27-.65-.26-1.55.09q-2.3.88.77.96c2.1.07 2.2.15 2.2 2.06 0 1.35 0 1.36.35.98.24-.26.36-.7.4-1.4" style="fill:#000"/></svg>