<svg xmlns="http://www.w3.org/2000/svg" xml:space="preserve" width="120mm" height="60mm" viewBox="0 0 120 60"><path d="M18.9 55.3h-1l-.6-.2-.5-.3v-.6h.2l1-.8.8-.8.6-.4.6-.5.3-.3.3-.3v-1.3l-.2-.4-.2-.5-.5-.2-.4-.2h-.7l-.7.4-.7.4-1 1-1.1 1-.4.2-.3.1-.3-.1-.2-.2V49l.7-1 .6-1 .4-.4.4-.4.9-.3.8-.3.5-.2.6-.2V45h.3l.3.2.2.2h.8l.2.3.2.2h.8l1.7-1.4 1.6-1.3 1.4-1.2 1.4-1.2.5-.5.6-.5.6-.5.6-.4 1-.8.8-.8.7-.6.7-.6 1.4-1.2 1.5-1.2 1.3-1.2 1.2-1 .9-.8.9-.8-.1-.4-.1-.5-.1-1.3-.1-1.2.4-1 .5-.8 1-1 .8-.8.7-.3.6-.3 1-.2.9-.2.5.1.6.2 3.3.1 3.3.2h1.6l1.5.2 1.6.1 1.5.2 2.8.1 2.8.2 3.8.2 3.7.3 1-.4 1-.3h1.5l.9.4 1 .3.7.8.9.7h3.5l3.5.1.6.4.5.4h10.6l.3-.2.2-.2V12.2L99 12l-.2-.2-.5.3-.5.2h-1.3l-.4-.4-.3-.3v-.2l.5-.3.6-.2 1 .2 1 .3.2-.2.2-.2h.3v14.7l.2.2.2.1h10l.7.3.5.3.2.4.1.4-.1.5-.2.5-.5.3-.6.2H88.5l-.8.4-.9.4h-6.5l-.3.2-.3.1-.5.6-.5.5-.5.3-.5.4-1 .2-1 .3-1-.2-.9-.2-.7-.4-.8-.4-2.3.2-2.2.1-3.7.4-3.6.3-2 .1-2 .2-1.8.2-1.8.2H50l-.7.2-.7.2h-1.8l-1.8.2-1-.4-1-.3h-.4l-1.2 1-1.2 1.1-.5.4-.6.5-1.8 1.5-1.9 1.6-.6.5-.7.6-1 1-1.1.9-1 .8-1 .8-.8.7-.8.6-1.2 1-1.3 1.1-.6.6-.7.6h-.2l-.3.5-.2.4V50l.2 1.2-.4.9-.4.9-.6.6-.6.6-1 .6-1.2.5zm-.2-.6h.8l.8-.3.7-.3.8-.5.7-.6v-.3l.4-.4.3-.4.2-1 .2-.9-.3-.7-.3-.8v-.4l-.7-.7-.7-.6-.6-.4-.7-.3L19 46h-1.4l-.5.3-.5.3h-.3l-.8 1-1 1v2h.4l1-1 1.1-.8.8-.5.7-.4h1.2l.5.4.5.4.3.4.2.5v1.7l-.8.8-.8.7-.8.7-.8.6v.6zm5-6.8h.3l.4-.4.4-.3 2-1.8 2-1.7 1-.9 1-.8h.3v-.3l1.5-1.2 1.4-1.2.8-.7.8-.7h.2l1.6-1.5L39 35l.5-.5.6-.4 1-.9 1-1V32h-.8l-.8.7-.8.7h-.4V33l.9-.8.8-.7v-.6h-.6l-.9.7-.9.7-.6.6-.5.5-.4.4-.4.3-.3.2-.3.1-1.1 1-1.1 1-.6.5-.6.5-.4.3-.3.3-1.7 1.4-1.7 1.5-1.2 1-1 .9-.5.3-.3.2-1.4 1.2-1.4 1.2-.2.1-.2.1v.6l.2.2.4-.2.5-.3.1-.2 1.4-1.2 1.5-1.3h.6l.2.2v.2l-1.7 1.6-1.8 1.7h-.4v.2l-.1.2v.2l.1.2zm7.3-7.2h-.2l-.2-.2V40l.9-.7.8-.7 1.2-1 1.2-1.1h.8v.5L34 38.4l-1.6 1.3-.6.5-.6.5zm15.1-8.2h1.2l1-.5 1-.4.4-.7.6-.7.3-.7.3-.7v-1l.2-.9-.5-.9-.4-.9H50l-.1-.2-.2.1-.2.1.4.6.4.6-.1 1.5-.1 1.4-.3.4-.4.3-.2.4-.1.3-.6.4-.6.4-1.1.3-1.2.3-.5-.1-.6-.2H44v.5l.4.2.5.1zm5.5-.4H53l1-.2 1-.1 5.2-.5 5.3-.5h1.6l1.5-.2 1.3-.2 1.2-.1.2-.1V30l-.2-.3-.2-.4-.2-.8-.2-.9.3-1 .2-1 .4-.4.4-.4-.3-.2-.3-.3h-2l-1.9-.2h-1.7L64 24H64l-.1-.2-3.7-.2-3.7-.2-1.8-.2-1.8-.1h-2.9v.3l.7 1 .8.9.2.8.3.8v1.5l-.3.7-.2.7-.7 1-.7 1v.5zm-8.9-.7h.3V31h-.2l-.2.1v.2l-.2.2zm33.2 0 .7-.1.6-.3.6-.2.8-1 .8-1v-2.4l-.4-.6-.4-.6-.6-.5-.5-.6-1.2-.2-1-.2-.5.1-.5.2-.8.4-.7.4-.3.4-.3.4-.3.7-.3.6v1.5l.2.4.1.3.6.7.6.8.6.3.6.3h.5l.5.2zm-29.4-.5 1-.1.5-.4.5-.3.2-.3.3-.4.2-.5.2-.6v-1.9l-.3-.3-.4-.2-.5.3-.6.3.1.9v.8l-.2.2-.2.2v.4l-.5.3-.4.3-.6.5-.5.5v.2l.2.2zm-4.8-.5h.2V30l.1-.3h-.2l-.2.1v.3l-.1.3zm2.3 0h.2l.5-.3.4-.3v-.4l-.5-.6-.6-.5h-.4l-.5.4-.5.4v.3l.6.5.5.5zM41.2 29h.1v-.2l.1-1.2v-1.1l.6-.9.5-.8.7-.5.6-.5 1-.3.9-.2.8.2.8.2.7.3.7.4h.6l-.1-.3v-.2l-1.1-.6-1-.5h-1.4l-1 .2-1 .3-.5.2-.5.3-.6.6-.6.6-.4 1-.4.9v.5l.1.6.1.5.1.5zm42.3 0h3l.5-.3.6-.3v-.5l.2-.5-.1-.2-.1-.3-.7-.4-.8-.4h-5.8l.1 1.4v1.4h.1zM46 28.7h.2l.4-.3.4-.3v-.9l-.4-.3-.4-.4-.4.1-.4.1-.2.3-.3.2v.3l-.2.4.1.1.2.2.4.3.4.2zm60.8-.4h3.2l.4-.4.4-.3v-.4l-.4-.2-.4-.2H89.2l-.3.1-.3.1v.4l-.2.4.1.2.1.3h14.9zm-64.3-.5h.2l.4-.4.4-.3.7-.5.7-.6.5-.1.5-.2.5.2.6.2.6-.4.6-.4v-.5l-.6-.3-.6-.2H45l-.8.3-.9.4v.3l-.2.3h-.5v.4l-.1.4-.2.3-.2.3v.8zM15.3 54.3H15l-.2-.2v-.4l1-1 1-.8 1-.9.9-.8h.6v.3l.2.2-2 1.8-2 1.8zM18.9 44h-.1v-.6h.3v.5zm0-20.5h-.1V5.8h.1l.2-.2V11l.2.3.2.4.8-.2.7-.2.3-.1h.2l.5.3.6.5-.5.3-.5.4H21l-.7-.2-.6-.2-.3.1-.3.2v11zm24.7-11-.4.1-.4-.3-.3-.4v-.4l.3-.2.3-.3h.6l.7.3.6.2h.9l.8-.1.8-.2.8-.2.2.1.3.2.2.3.2.3-.2.3-.2.3H48l-.8-.2-.7-.1-.4.1-.4.1h-.2l-.3-.2-.6.1-.6.2zM25.3 12h-2.5H24zh1.3l1.3.1zm9.5 0h-1.6.8l1-.1h.7l.8.1zm57.5-.3h-3l1.8-.1 1.7-.1h2.4v.3zm-61.2-1-.2.1-.4-.2-.5-.2v-.6h1.8l.1-.3.2-.2v-.5l-.3-.3-.3-.4h-.6l-.5-.2v-.4l-.1-.4.3-.6.4-.6h1.8v.7h-.6l-.6.1V7l.3.2.4.2.3.5.3.5v1.2l-.4.4-.3.5h-.5l-.4.2zm68.2.1H99V6.4l.2.1.2.1v4.1zm-70.7-.3H28l-.3-.1-.2-.2.3-.4.2-.3V7l-.2-.4-.3-.3.1-.3.1-.2h.9l.1 2 .1 1.7v.4l.2.4zm5.5 0h-.5v-.2l-.2-.1.2-.4.2-.3-.1-.6-.1-.7v-.4l-.1-.4h.9v.2l.1.3.1 1.3v1.2zm1.6 0h-.3v-.1l-.2-.1v-2l-.1-.3-.2-.3.3-.3.2-.2h.4l.4.1.1-.1.1-.2h.7l.4.3.3.2.1 1.1v1.2l.1.2.1.2-.3.2-.2.1h-.4l-.5-.2.1-1 .1-1-.2-.2-.2-.1-.2.2-.2.1v1.3l.1.3.2.3-.2.2H36zm34 0h-2.3l-.2-.2-.2-.3.6-.6.6-.6.3-.6.3-.6v-.7l-.3-.2-.3-.2-.4.4-.5.3-.1-.1-.2-.2.2-.5.3-.4.5-.2.5-.2.5.2.5.3V6l.2.2v1.4l-.5.8-.6.8.1.1.1.2.5-.2.4-.1.9.2.9.2.2-.2.3-.2v-.8l-.3-.3-.4-.3-.5-.2-.5-.3v-.6l.4-.5.4-.6.6-.1.6-.2.2.3.3.2-.1.3-.1.2h-.9l-.2.2-.2.1.6.4.6.4v1.1l.1 1.2-.4.3-.3.3zm5 0h-1.3V7.1l.2-.1.3-.2.2.2.2.1v2.3l.1.3h.6l-.1-1.3-.1-1.3.3-.1.3-.2h.9l.8.1.3.4.3.4V9l.1 1.2h-.5l-.6.1-.2-.2-.2-.1-.1.1-.1.2zm1.7-.6h.2v-2H76v2l.2.1zM34.2 6.6H34l-.1-.1-.2-.1v-.6h.8v.7zm39.8 0h-.2l-.2-.1-.2-.2V6l.1-.3h.8V6l-.1.4z" style="fill:#000"/><circle cx="49.2" cy="12" r=".4" style="fill:#000;stroke:none;stroke-width:.264583"/><path d="M22.3 11.8H43" style="fill:none;stroke:#000;stroke-width:.240382px;stroke-linecap:butt;stroke-linejoin:miter;stroke-opacity:1"/><path d="M45.7 5.8v15.8" style="fill:none;stroke:#000;stroke-width:.255486px;stroke-linecap:butt;stroke-linejoin:miter;stroke-opacity:1"/><path d="M19 22.8V37l-.1 8" style="fill:none;stroke:#000;stroke-width:.421522px;stroke-linecap:butt;stroke-linejoin:miter;stroke-opacity:1"/><path d="M49 11.7h47.4" style="fill:none;stroke:#000;stroke-width:.298506px;stroke-linecap:butt;stroke-linejoin:miter;stroke-opacity:1"/></svg>