<svg xmlns="http://www.w3.org/2000/svg" xml:space="preserve" width="120mm" height="62mm" viewBox="0 0 120 62"><path d="m132.8 44.5 62 27.1" style="opacity:1;fill:#000;fill-opacity:.920746"/><path d="M64.4 52.6h-7l-6.6-.1-.7-.7-.8-.7-.2-.2-.1-.3h-.3l-.6-.7-.6-.6-1.5-1.6-1.6-1.7-.6-.4-.5-.4-.1-.3-.1-.4-.4-.1-.4-.2-1-1-1-1.1-1.1-1.1-1.1-1.2v-.2l-.2-.3V21.8l.1-.4.2-.4 1.4-1.4 1.4-1.4 1.3-1.3 1.2-1.3.4-.4.4-.3 2.4-2.6 2.4-2.5.9-.7.8-.7h8.8l8.9-.1.3.1.4.2v.3l.1.2h.4l.5.6.5.5h.2l1.3 1.4 1.3 1.4 1 .9.9.8v.2l1 1 1.1 1 1.4 1.5 1.4 1.4.3.3.4.2.4.5.3.4v18.5l-.1.2-.8.7-.7.6v.2l-.5.4-.5.3-1 1.1-1 1-.5.5-.5.4-.2.2-.2.3-.4.4-.4.5-.5.5-.5.4-1.4 1.5-1.4 1.5h-.2l-.2.2-.4.5-.5.5v.2l-.6.3-.4.3h-2l-2.1.1zm-5.2-.6h8.3l.7-.2.8-.1.4-.4.4-.3.5-.6.6-.6.7-.7.8-.8 1.4-1.4 1.4-1.4.4-.3.5-.4.4-.5.4-.6.8-.8.9-.8 1-1 .9-1 .4-.4.4-.5v-.8l.2-.9V22l-.2-.4-.2-.3-.8-.8-.8-.8-.8-.8-.8-.8-.4-.4-.4-.5-1-.9-.9-1-.4.1-.4.1-.5.4-.5.4-1.2 1-1.2 1-.6.5-.5.4-.2.1v.2l-.8.5-.7.5-.1.3-.2.3h-.3l-.4.3-.3.3h-.5v-.2l.7-.6.7-.6.8-.6.9-.7.6-.6.7-.6.5-.4.5-.4.5-.4.5-.4.7-.7.8-.6v-.3l-.7-.9-.8-.8-.2-.3-.3-.2-.4-.3-.3-.3-1.2-1.2-1.1-1.1v-.3l-.9-.2-.9-.2h-8.2L51 9l-.3.2-.2.1-.8.8-.9.9-.2.3-.3.2-.5.6-.5.6-.3.2-.4.2v.3l-.1.2-.8.7-.9.7v.2l-.1.2-.8.7-.8.7-1.3 1.4-1.3 1.4-1 1-1 1v18l.4.4.4.4v.1l.2.1.2.3.3.3 1 1 .9 1 .6.6.7.7h.7l1-1 1-1 .8-.8.9-.7 1-1.1 1.1-1.1.7-.6.7-.6 1-1 .8-.9h.4v.2l.2.1-.5.5-.5.5-.5.5-.5.4-1 1-1 1-.7.6-.7.6-1.3 1.2-1.3 1.3-.6.7-.6.6v.3l.2.4.2.3.3.3 1.2 1.1 1 1.1 1.2 1.2 1 1.2.8.6.7.7z" style="fill:#000"/></svg>