<svg xmlns="http://www.w3.org/2000/svg" xml:space="preserve" width="120mm" height="60mm" viewBox="0 0 120 60"><path d="m132.84 44.51 61.9 27.13" style="opacity:1;fill:#000;fill-opacity:.920746"/><path d="M91.34 53.55c-.22-.12-.5-.32-.63-.44l-.22-.23-.23.23c-.48.45-1.21.64-2.06.5l-.4-.05.03-.9c.03-.62 0-.94-.1-1.06q-.36-.46.6-.45c1.04.01 1.46.12 1.83.48l.34.32.32-.31c.4-.39.72-.49 1.54-.49.74 0 .97.12.97.52 0 .34-.25.4-.56.12-.18-.16-.34-.22-.64-.22q-.84 0-.83.81c0 .49.17.73.6.88.27.1.37.09.77-.07l.5-.18c.13 0 .04.33-.12.43-.6.4-1.13.44-1.71.11m-1.85-.51c.3-.22.43-.6.29-.87-.19-.38-.55-.61-.88-.58l-.3.03-.02.7c-.02.4.01.75.07.81.13.13.6.08.84-.1m10.46.55c-.33-.17-.36-.24-.33-.72.01-.14-.03-.29-.09-.32-.18-.1-.12-.37.1-.47.3-.14.7-.03.76.2.03.1-.01.33-.1.5-.28.55.05.67.5.18.26-.27.27-.3.12-.45-.38-.34-.05-.75.34-.43q.5.43-.4 1.3c-.4.37-.53.4-.9.2m-15-.15c.05-.12.1-.55.12-.95.04-.59.01-.78-.12-.95-.1-.12-.14-.25-.1-.3a4 4 0 0 1 1.76 0c.44.13.67.5.5.8-.09.17-.08.27.06.52.21.37.14.75-.17.91-.13.07-.61.13-1.17.15l-.95.04zm1.56-.37c.15-.15-.23-.67-.47-.63-.18.02-.29.4-.19.62.07.15.51.16.66.01m-.25-.96q.16-.06.16-.3c0-.2-.04-.24-.24-.24-.34 0-.51.2-.37.42.12.19.2.2.45.12m-48.02 1.37a2 2 0 0 1-.77-.47l-.36-.34-.3.27c-.47.41-1 .56-1.77.5-.6-.04-.66-.07-.63-.22.13-.57.13-1.66 0-1.78-.1-.12-.14-.11-.3.06l-.18.2-.16-.2q-.17-.16-.31-.18c-.16 0-.22.63-.17 1.63l.03.5-.44-.03c-.4-.03-.43-.04-.39-.24.03-.12.05-.57.06-1 0-.9-.09-1-.49-.64q-.47.38-.48-.14c0-.44.24-.5 2.29-.5 2.05.01 2.4.08 2.97.62l.3.28.32-.33c.5-.49.83-.6 1.57-.53.35.03.66.1.7.16.13.16.09.53-.06.64-.12.07-.19.04-.36-.16s-.3-.26-.55-.26c-.37 0-.47.05-.7.34-.23.26-.23.75 0 1.14.15.27.2.3.62.3.28 0 .53-.06.64-.14.2-.15.49-.1.49.08 0 .14-.53.42-.92.5-.13.03-.43 0-.65-.06m-2.15-.64a1 1 0 0 0 .2-1.05c-.07-.17-.67-.41-.92-.37-.15.02-.19.13-.21.58-.02.3 0 .67.03.82.05.24.1.28.35.28q.29 0 .55-.26m62.62-2.75-.26-.21-24.52-.01c-31.88-.01-45.71-.08-45.92-.22-.14-.1-.15-2.56-.12-22.17l.04-22.06-.21-.19c-.24-.2-.24-.38 0-1.34q.38-1.5.9.17c.28.86.28 1.02 0 1.15a1 1 0 0 0-.3.2c-.05.04-.08 5.68-.08 12.52s-.03 16.67-.07 21.84c-.05 7.86-.04 9.41.08 9.54s.44.14 3.58.15c3.75.01 3.6.03 3.61-.48 0-.31.21-.5.4-.35.06.05.11.22.11.36s.05.31.1.38c.09.11 3.14.13 26.28.15 14.4.02 26.28 0 26.4-.02.2-.04.23-.09.18-.36-.06-.37.06-.58.3-.5.18.06.2.33.06.56q-.1.15.03.24c.08.06 1.74.1 4.66.1l4.54.03.26-.23c.13-.12.28-.22.31-.22.2 0 2.04.45 2.13.52q.26.2-1.07.48c-1.07.23-1.11.23-1.42-.03M88.54 45.5l.01-.9c.02-.67 0-.85-.14-.98-.17-.15-.16-.17.06-.28.67-.37.77-.22.79 1.27v.95h-.35c-.2 0-.36-.02-.37-.06m.12-3.15a3 3 0 0 1-.63-.4c-.25-.23-.35-.26-1.47-.35l-1.81-.18a30 30 0 0 1-2.8-.41c-.14-.04-.55-.1-.9-.14a44 44 0 0 1-3.8-.55c-.16-.05-.5-.09-.78-.09-.27 0-.62-.04-.78-.09a6 6 0 0 0-.8-.17l-2.28-.41c-.97-.19-2.03-.38-2.34-.42s-.82-.14-1.12-.2c-.72-.18-2.2-.49-2.58-.54-.17-.02-.65-.13-1.07-.24s-1-.24-1.32-.3l-1.32-.3c-.41-.11-.85-.2-.95-.2-.22 0-1.64-.35-2.45-.6-.28-.08-.71-.2-.96-.24s-.7-.14-1.01-.21q-.54-.13-.73-.05c-.31.14-.53.09-1.26-.3a6 6 0 0 0-1.12-.48c-.83-.2-3.05-.84-3.45-1-.11-.04-.82-.25-1.57-.45s-1.92-.56-2.6-.78l-1.82-.6a84 84 0 0 1-4.93-1.7c-.42-.16-.98-.37-1.26-.46-.76-.25-1.4-.49-1.71-.63-.24-.11-.37-.12-.77-.04q-.48.1-.74.02c-.38-.13-.8-.58-.8-.88 0-.26.35-.83.52-.83.27 0 .35-.44.4-2.26.07-2.56.23-2.53.3.04l.05 1.97.37.28c.46.33.6.55.6.93 0 .34.03.36.91.69l2.14.82a19 19 0 0 0 2.05.7l1.14.37 2.18.73c.76.26 1.43.47 1.5.47s.29.06.47.14c.37.16 1.6.54 2.7.84a56.75 56.75 0 0 0 3 .87c1.47.4 2.01.51 2.74.56.93.05 1.2.15 1.33.48q.07.15.43.2c.36.05 1.78.39 3.63.85l1.32.3c.28.04.99.2 1.57.34l1.58.37a266 266 0 0 0 9.04 1.74c.1 0 .46.05.8.11 1.6.3 3.43.58 4.94.74.42.04.99.13 1.26.2.28.07.7.13.92.13s.67.06.98.12c.31.07.88.15 1.27.18.38.03 1.13.1 1.67.18a6 6 0 0 0 1.22.08c.13-.03.4-.2.58-.4l.34-.34-.16-.33c-.23-.48-.2-.64.13-.84.38-.22.53-.22.85.03.24.18.25.24.17.49-.17.48-.12.7.2.96.58.46.47 1.23-.21 1.53-.37.15-.57.14-1-.05m5.72-1.06c-.03-.07.02-.2.12-.3.17-.15.17-.16-.01-.21q-.88-.22-.86-.48c0-.27.4-.89.69-1.08.31-.2 1.15-.24 1.38-.05.12.1.19.09.48-.12.2-.14.43-.25.53-.25.31 0 .96.4 1.1.69l.13.28.04-.37c.04-.39.23-.53.48-.35q.15.1.15.6c0 .38.04.52.16.55.24.08.3-.03.3-.63 0-.47.03-.57.18-.6.37-.05.48.15.48.88 0 .57-.03.71-.16.75q-.16.05-.25.01c-.05-.02-.21 0-.36.05a1 1 0 0 1-.57-.01c-.27-.1-.33-.18-.41-.63-.03-.13-.08-.1-.27.18-.13.19-.37.41-.54.5-.27.13-.31.13-.48 0a1 1 0 0 0-.38-.13c-.26 0-.44-.16-.44-.4q0-.17-.1-.23c-.18-.1-.35.24-.4.83l-.06.6-.43.03c-.32.02-.45 0-.5-.1M97 40.26c.23-.17.24-.56.02-.83-.2-.27-.42-.27-.54-.01-.12.27.08.98.28.98.03 0 .14-.06.24-.14m-2.04-.37c.18-.3.19-.34.04-.39-.31-.1-.82.48-.59.68q.24.2.55-.29m-36.84 1.18c-.06-.05-.08-.32-.05-.7l.05-.6-.4.3c-.53.4-.76.46-1.12.3-.45-.2-.63-.4-.66-.81-.03-.3-.08-.39-.22-.41-.29-.05-.35.11-.3.7.06.53.05.54-.21.6a.5.5 0 0 1-.48-.1c-.17-.13-.24-.13-.4-.05s-.26.09-.47 0c-.26-.1-.27-.14-.3-.87-.01-.67.01-.79.2-.95q.39-.37.59.02c.1.19.16.2.76.19.48-.01.69.02.81.12.16.13.2.13.53-.02.5-.23.72-.2 1.16.1q.4.27.38.12c0-.17.25-.27.89-.33.49-.06.56-.04.8.16s.26.26.2.73c-.05.58-.19.74-.69.82-.3.06-.34.1-.34.34 0 .37-.44.58-.73.34m-.86-1.49c.02-.37 0-.44-.18-.49-.55-.14-.82.4-.4.78q.53.47.58-.29m1.93.38c.18-.15.15-.74-.03-.8-.37-.11-.6.37-.36.74.13.19.22.2.39.06m-4.51-.11c.15-.33 0-.8-.25-.8-.1 0-.21.76-.14.85.09.13.32.1.39-.05m45.47.7c-.06-.05-.12-.32-.12-.58 0-.27-.04-.6-.1-.72-.09-.18-.07-.26.06-.38.23-.21.37-.2.63.04.26.23.28.33.07.48s-.2.7.05.88c.16.12.18.18.1.27-.15.14-.52.15-.69.01m-47.42-.17c-.06-.06-.13-.36-.14-.66-.03-.42-.07-.54-.19-.54s-.15.11-.15.56c0 .3-.04.6-.08.63-.05.04-.2.01-.36-.06-.25-.12-.27-.16-.24-.6q.07-.87-.25-.5c-.12.15-.24.18-.58.16-.4-.02-.42-.02-.42.23 0 .24.02.25.45.25q.73.01.41.34c-.15.16-1.03.17-1.3.03-.16-.08-.28-.07-.62.05-.5.2-1.05.1-1.1-.18-.04-.24.25-.32.4-.1.16.2.29.2.29.02 0-.08-.16-.27-.36-.42q-.68-.51-.06-.87c.4-.24.68-.23.97.03s.31.26.64.04q.49-.3 1.1 0c.24.11.33.13.42.05.2-.18 1.14-.24 1.41-.09.21.12.25.2.25.64 0 .29.04.6.1.68.2.31-.32.58-.6.3m-3.27-1.03q-.02-.12-.23-.18a1 1 0 0 1-.3-.15q-.07-.08-.15-.03c-.04.04.06.16.23.27.34.24.45.26.45.09m10.9 1.07c-.15-.08-.25-1.5-.1-1.62.06-.05.2-.09.33-.09.27 0 .34.19.34 1 0 .5-.03.61-.2.69-.22.1-.22.1-.37.02m.97-.27c-.22-.18-.3-.32-.3-.55 0-.67.89-1.18 1.48-.86.32.18.35.56.05.56-.12 0-.3-.04-.4-.1-.28-.14-.52-.03-.52.26q-.01.47.69.42c.36-.03.4 0 .35.25-.03.11-.5.27-.8.27-.14 0-.38-.1-.55-.25m-14.26.12c-.06-.02-.1-.48-.1-1.16L47 38l.33-.03q.6-.05.4.4c-.06.12-.1.6-.07 1.07l.03.85-.25.01c-.14.01-.3 0-.36-.02m13.26-2.02c-.17-.17-.05-.3.26-.3.2 0 .25.03.22.19-.04.22-.3.29-.48.11m28.07-1.2c-.6-.53-.62-.55-1.77-.85-.65-.16-1.21-.34-1.27-.38a1 1 0 0 0-.35-.08c-.15 0-.38-.05-.52-.12a2 2 0 0 0-.56-.12c-.17 0-.4-.06-.5-.12a7 7 0 0 0-.97-.33l-1.32-.4c-.3-.1-.93-.3-1.4-.43a23 23 0 0 1-2.81-1.01l-1.47-.55c-.48-.17-1.3-.5-1.81-.73-.53-.23-.98-.41-1.02-.41s-.77-.3-1.61-.67-1.73-.72-1.98-.77c-1.04-.23-1.4-.35-1.4-.5 0-.21-.29-.4-1.48-1l-.5-.24a17 17 0 0 1-1.07-.54c-.42-.23-1.04-.56-1.38-.72a4 4 0 0 1-.74-.42 3 3 0 0 0-.65-.35 8 8 0 0 1-.84-.42c-.54-.34-5.17-2.96-5.55-3.14l-.47-.31c-.15-.12-.75-.5-1.34-.86a178 178 0 0 1-4.42-2.77c-.32-.2-3.1-2.11-3.45-2.36l-.56-.43c-.2-.15-.54-.4-.76-.54-.4-.27-.83-.56-1.67-1.2l-1.37-.96a30 30 0 0 1-1.69-1.27c-1.54-1.27-3.14-2.45-3.32-2.45-.42 0-.43.05-.43 3.99v3.79l.27.85.26.86-.26.31c-.25.3-.27.4-.27 1.18 0 .71-.03.87-.15.87-.13 0-.15-.16-.15-.93 0-.82-.03-.96-.2-1.1-.26-.22-.26-.4 0-1.15.18-.55.2-.84.2-4.61V9.63l-.36-.28c-.58-.48-.57-1.14.03-1.53.27-.18.26-.22-.1-.37-.33-.14-.31-.44.02-.42.14 0 .32.03.41.06q.15.06.4-.2l.23-.27-.43-.36-.43-.37.27-.14c.46-.26.21-.73-.26-.48q-.4.21-.4-.07c0-.4 1.11-.6 1.48-.25.17.15.18.22.08.52-.1.28-.08.4.03.59.24.38.18.77-.14 1.01-.15.12-.35.24-.45.27-.3.09-.2.28.22.39.68.16.99.7.7 1.23-.16.3-.05.45.78 1.07.39.29 1.42 1.09 2.28 1.78.87.69 1.8 1.39 2.06 1.55.27.17.48.34.48.38s.31.26.69.5.91.6 1.2.82c.27.21.67.49.88.6.2.13.38.25.38.28s.42.34.93.69 1.1.76 1.32.92.78.55 1.26.85 1.16.74 1.5.98.77.5.95.59.73.43 1.24.76c.5.32 1.24.78 1.64 1.01s.86.52 1.01.64c.24.18.6.4 2.24 1.3l.66.38c.22.14.64.37.94.52s.76.41 1.03.6c.28.18.54.33.57.33.04 0 .51.25 1.06.55s1.04.55 1.1.55q.36 0 .3-1.13a6 6 0 0 0-.13-1l-.07-.24h1.16l-.08.27c-.14.46-.12 1.95.03 2q.12.01.13-.1c0-.22.2-.25.44-.06.13.1.26.17.3.17.17 0 .05-.24-.23-.46-.55-.44-.33-1.06.36-1.06.49 0 .74.36.41.58q-.14.12-.27-.03c-.16-.16-.31-.16-.24 0q.07.12.2.13c.08 0 .22.1.3.2q.35.45.35-.08c0-.23.08-.36.33-.55.4-.3.63-.31 1.12-.04.62.35.41.72-.4.72-.41 0-.45.02-.42.2q.02.19.32.21c.17.02.35-.01.4-.06.2-.16.38-.1.38.12 0 .17-.1.25-.46.4l-.45.18-.42-.2-.41-.19-.44.2c-.38.16-.48.18-.72.09-.22-.09-.33-.09-.57 0-.4.15-.36.28.13.5a75 75 0 0 1 2.66 1.3c.19.08.49.15.72.14.35-.01.46.05 1.02.48.6.46 1.47.95 1.7.95a3 3 0 0 1 .63.28c.29.16.75.37 1.03.47l.66.26a107 107 0 0 0 4.11 1.64c.41.1.95.27 1.08.37.08.05.51.21.96.35 1.1.34 2.07.67 2.4.82.14.07.36.12.47.12.2 0 .49.1 1.4.44.23.08.47.16.54.16.13 0 .97.2 1.53.37a41 41 0 0 0 2.3.61c.05.02.3-.1.54-.26.37-.26.5-.3.96-.3.5 0 .56.02.8.29.43.46.3 1.13-.27 1.37-.17.08-.37.19-.45.25q-.14.11-.2.12c-.05 0-.35-.25-.69-.55m.6-2.2c-.12-.15-.25-.2-.5-.2-.18 0-.4-.03-.5-.05-.26-.09-.18-.45.18-.83.19-.2.44-.49.57-.66.22-.31.52-.47.72-.37.06.03.1.35.1.71q0 .65.14.82c.13.14.12.2-.07.48-.26.37-.4.4-.64.1m-.06-.86c.05-.24-.23-.26-.38-.02-.15.23-.13.27.12.24q.23-.04.26-.22m-53.86-1.24c-.07-.15.1-.41.54-.87.27-.27.34-.42.31-.63-.03-.3-.1-.32-.74-.23-.28.04-.31-.22-.04-.43.35-.27 1.03-.24 1.3.05.3.32.27.65-.15 1.14-.2.24-.33.45-.3.48.04.04.22.06.4.06.24 0 .31.04.31.17 0 .23-.4.38-1.04.38q-.54 0-.6-.12m39.72-5.18c-.07-.02-.1-.49-.1-1.2l.02-1.16.44-.05c.25-.03.52-.08.61-.1q.16-.07.5.16c.31.23.32.25.28.78-.03.48-.07.56-.33.72-.16.1-.41.2-.56.23-.21.04-.25.09-.22.29.04.31-.26.47-.64.33m1.12-1.27c.08-.36-.05-.75-.26-.75q-.15.01-.23.38-.15.7.23.68.2.02.26-.31m-2.9.52c-.46-.28-.5-.36-.5-.83 0-.33-.04-.4-.2-.4-.36 0-.46.22-.35.75.13.55.06.64-.42.56a5 5 0 0 0-.73-.04c-.22 0-.46-.04-.51-.1a4 4 0 0 1-.13-1.85c.14-.22.26-.2.64.06.28.2.38.21.85.17.3-.02.67 0 .84.05.25.08.37.08.64-.05.31-.14.34-.14.75.02.47.2.54.3.54.82 0 .31-.06.43-.37.71-.43.4-.58.42-1.05.13m.7-.29c.18-.1.18-.8 0-.98-.3-.3-.66.03-.56.53.05.28.22.53.35.53q.08-.01.21-.08m-2.45-.2c.22-.17.15-.6-.14-.83-.21-.17-.27-.18-.35-.07-.1.14-.13.67-.04.88.08.15.36.17.53.03m-3.08.55a4 4 0 0 1 0-1.7c.03-.05.2-.1.34-.09.15 0 .37-.02.48-.05.16-.04.3.02.54.2.3.24.32.28.32.93 0 .72-.06.82-.46.74-.23-.05-.24-.08-.22-.68.02-.71-.13-.98-.4-.68-.16.18-.18.64-.05 1.03.08.21.06.28-.05.32q-.3.1-.5-.02m8.66 0c-.03-.03-.01-.3.03-.6.06-.42.05-.6-.06-.72-.18-.21-.02-.39.33-.39q.24 0 .36.21c.13.24.2.26.38.09.07-.07.32-.2.55-.3.4-.16.45-.16.76-.03q.34.13.3.31c-.04.25-.36.28-.65.05l-.24-.18-.17.3c-.14.25-.15.35-.06.52.1.18.18.21.58.21.37 0 .46.03.46.16 0 .08-.14.22-.31.3-.4.2-.75.13-1.2-.23l-.33-.26.03.29c.03.28.01.3-.34.32-.2.01-.4 0-.42-.04m.06-2.26c-.03-.08.01-.2.1-.27.21-.18.5-.08.46.16s-.46.32-.56.1M30.1 20.19l.1-.36q.02-.12-.33-.15c-1.12-.08-.87-1.1.4-1.65.34-.14.4-.15.74-.02.31.1.38.17.38.36 0 .13-.07.36-.16.5-.15.24-.3.7-.42 1.29-.05.25-.08.27-.4.27-.34 0-.36-.01-.3-.24m.43-1.33c.22-.31.24-.4.14-.51s-.15-.1-.32.03c-.1.08-.26.25-.34.37-.37.6.1.7.52.11m1.3.75q-.15-.03-.07-.5.06-.45-.06-.7c-.1-.21-.1-.29 0-.4.16-.15.57-.16.64 0 .08.19.1 1.45.02 1.56-.07.1-.31.12-.54.04m.94-.02c-.04-.05-.01-.22.06-.38.1-.23.1-.39 0-.73-.06-.24-.1-.47-.06-.51.03-.05.2-.08.38-.07s.43 0 .56-.04c.28-.08.79.08.88.27.04.08.08.44.1.8.03.63.03.66-.21.7-.48.1-.54.02-.48-.62.05-.54.04-.6-.15-.69q-.47-.19-.41.79l.03.52-.32.02c-.17.02-.35-.01-.38-.06m-.9-2c-.22-.19.02-.48.3-.4.22.06.17.45-.05.45-.1 0-.22-.03-.25-.06M23.9 5.17c.18-.61.32-.99.46-1.25.09-.17.15-.5.15-.77l-.01-.48.51-.04c.29-.03.73 0 .98.05.52.11.69.36.57.86-.07.34-.45.55-1 .55-.2 0-.43.06-.51.13-.16.13-.3.58-.27.8.05.3 0 .34-.47.34-.43 0-.46-.02-.41-.2m1.9-1.6c.17-.27.04-.6-.23-.57q-.23.02-.3.32c-.03.17-.05.33-.02.36.1.13.44.07.55-.1" style="fill:#000"/><text xml:space="preserve" x="41.75" y="14.91" style="font-size:5.64734px;writing-mode:lr-tb;direction:ltr;fill:#000;fill-opacity:.920746;stroke-width:.605073" transform="matrix(1 .3 -.7 .7 0 0)"><tspan x="41.75" y="14.91" style="stroke-width:.605073">=&gt;</tspan></text><text xml:space="preserve" x="89.97" y="40.42" style="font-size:4.7329px;writing-mode:lr-tb;direction:ltr;fill:#000;fill-opacity:.920746;stroke-width:.507097" transform="matrix(1 0 -.1 1 0 0)"><tspan x="89.97" y="40.42" style="stroke-width:.507097">=&gt;</tspan></text></svg>