<svg xmlns="http://www.w3.org/2000/svg" xml:space="preserve" width="120mm" height="60mm" viewBox="0 0 120 60"><path d="m132.84 44.51 61.9 27.13" style="opacity:1;fill:#000;fill-opacity:.920746"/><path d="M97.4 54.23c-.8-.19-5.98-2.83-7.27-3.7-.36-.25-1.79-1-3.17-1.68a71 71 0 0 1-3.18-1.62 24 24 0 0 0-1.72-.9c-.58-.27-1.65-.83-2.38-1.24-.72-.41-1.56-.87-1.85-1.01-.76-.38-1.14-.58-2.9-1.59a85 85 0 0 0-5.17-2.7l-3.7-1.88c-1.68-.85-3.1-1.61-3.18-1.68-.07-.08-.9-.53-1.85-1.01a442 442 0 0 1-12.04-6.32c-1.4-.83-4.08-1.51-4.46-1.15-.12.12.28 1.06.88 2.09.61 1.02 1.29 2.43 1.5 3.13.46 1.5.27 3.54-.39 4.15-.93.87-2.37 2.02-2.54 2.02-.1 0-.96.6-1.92 1.32-1.7 1.28-1.8 1.32-3.53 1.32a9 9 0 0 1-2.8-.42 48 48 0 0 1-3.36-1.47l-1.5-.78c-.56-.3-1.77-1.23-2.7-2.07a7.4 7.4 0 0 1-2.4-3.42c-.8-2.1-.95-4.17-.35-5.3.2-.38.51-1.06.68-1.52s1.37-1.85 2.68-3.11c2.3-2.21 2.7-2.95 1.48-2.69-.88.2-2.42-.67-2.52-1.4-.14-.95.16-1.81.68-2 .25-.1 1.77-.92 3.37-1.84 2.02-1.16 3.04-1.9 3.31-2.44.22-.43.61-1.07.86-1.43.26-.36.46-.86.46-1.12 0-.25.29-1.09.64-1.86.35-.76.75-1.7.9-2.07.36-.93 4.06-3.42 5.08-3.42 1.47 0 1.36.86-.77 6.08-.82 2-1.42 3.99-1.26 4.15.09.09.5.02.91-.15 1.04-.43 1.92-.05 3.01 1.3.49.61 1.43 1.39 2.1 1.73 1.38.7 2.89 2.27 2.89 3.02 0 .62 1.36 1.75 3.36 2.78.84.44 1.71.92 1.93 1.07s1.17.63 2.12 1.05c.94.42 2.07 1.02 2.51 1.33.44.3 2.1 1.22 3.7 2.01 1.6.8 3.8 1.94 4.9 2.53 1.09.6 3.53 1.88 5.42 2.87 1.9.98 4.22 2.2 5.16 2.7 2.29 1.24 5.86 3.12 9.26 4.9 13.1 6.84 12.88 6.7 13.5 8.85.44 1.46.06 2.4-1.53 3.8-1.22 1.07-1.45 1.13-2.85.8m1.78-.98c.49-.44.67-1.41.26-1.41-.12 0-.36.3-.53.66-.16.36-.49.66-.72.66s-.34.12-.25.26c.24.4.69.33 1.24-.17m-1.37-1.68c0-.24-2.69-2.11-3.03-2.11-.7 0 1.02 1.49 2.5 2.16.54.25.53.25.53-.05m2.66-2.88c-.3-.42-1.5-1.26-2.72-1.9-1.2-.61-2.25-1.2-2.32-1.3-.08-.09-.55-.33-1.06-.54-.84-.34-5.1-2.56-6.09-3.18-.22-.13-1.35-.73-2.51-1.33a91 91 0 0 1-2.94-1.57c-.46-.26-2.18-1.19-3.84-2.06s-4.62-2.43-6.58-3.48c-3.73-1.99-4.9-2.6-6.88-3.6-.66-.33-2.03-1.05-3.04-1.6l-2.91-1.52a8 8 0 0 1-1.2-.7c-.07-.08-1.44-.8-3.04-1.58-3.94-1.94-6.18-3.68-6.2-4.82-.02-.47-2.51-2.6-3.06-2.6-.18 0-.48.19-.67.41-.56.68-4.02 2.6-5.02 2.78-.78.14-.84.2-.4.37.3.12 1.01.42 1.6.69.58.26 2.27.6 3.75.75 2.9.31 2.6.19 9.47 3.74 1.75.9 3.22 1.75 3.27 1.88s.26.23.47.23 1.04.42 1.84.93c.8.5 1.5.92 1.57.92.22 0 5 2.39 6.08 3.03.58.35 2.2 1.2 3.57 1.9 1.39.68 3 1.55 3.58 1.92s3.13 1.72 5.67 3c2.53 1.29 4.74 2.45 4.9 2.58.17.14 1.66.95 3.33 1.8 1.67.87 3.86 2.02 4.88 2.57s2.39 1.27 3.04 1.6a9 9 0 0 1 3.32 2.9l.52.8.08-1.13c.06-.81-.07-1.35-.46-1.89m-6.75.39c.7-.52.52-.66-3.2-2.56a62 62 0 0 1-3.43-1.83c-.15-.12-1.81-1-3.7-1.97-1.9-.96-5.47-2.81-7.94-4.1-7.87-4.13-9.68-5.04-9.96-5.04-.15 0-.65-.27-1.1-.59a29 29 0 0 0-2.7-1.55l-5-2.58A66 66 0 0 1 53.26 27c-1.04-.81-5.2-2.74-6.2-2.87a3.5 3.5 0 0 1-2-.92 2.3 2.3 0 0 0-1.69-.75c-.5 0-1.23-.17-1.61-.38a22 22 0 0 0-3.45-1.47c-.13 0-.31-.18-.4-.4-.08-.22-.28-.4-.45-.4s-1.03-.34-1.92-.76c-3.45-1.6-6.23-1.76-6.86-.38-.4.89.13 1.29 2.06 1.53 2.04.25 2.87.74 5.36 3.1 2.51 2.4 3.93 3.13 6.46 3.32 1.47.12 1.9.05 2.65-.4.75-.47 1.11-.53 2.34-.36.8.1 1.92.45 2.5.75s1.48.71 1.98.9c.51.18 1.23.53 1.6.78.36.25 1.84 1.07 3.3 1.83l4.23 2.24c3.33 1.8 6.12 3.23 7.01 3.59.51.2 1.4.7 1.96 1.11s1.16.74 1.3.74.46.17.7.37c.22.2 2.28 1.33 4.56 2.5 2.29 1.18 4.64 2.44 5.23 2.81.58.37 1.55.87 2.14 1.1s2.36 1.16 3.91 2.03c1.55.88 3.21 1.78 3.69 2 .47.23.86.51.86.63 0 .33.64.24 1.2-.17m-53.82-9.4c.34-.27.53-.59.42-.7-.1-.11-.34-.06-.51.1-.38.38-1 .42-1 .08 0-.14.2-.45.43-.69.4-.4.36-.42-.6-.24-.56.1-1.23.29-1.47.41-.72.37-1.23.27-1.4-.3-.1-.29-.4-.53-.69-.53-.77 0-.6-.44.29-.75.95-.33 1.01-.76.15-1.09a2 2 0 0 1-.88-.68c-.21-.37-.4-.39-1.32-.14-1.6.43-2.6-.13-1.4-.78.53-.28.75-1.05.3-1.05-.13 0-.37-.36-.52-.8-.28-.8-1.14-1.1-1.5-.53-.2.34-1.18.35-1.18.01 0-.14.35-.44.79-.67.44-.22.8-.52.8-.65 0-.36-.57-.64-.76-.37-.1.13-.62.47-1.17.75-.99.53-1.33 1.2-.6 1.2.32 0 .34.12.1.65-.23.5-.22.75.04 1.06.44.53.87.51 2.18-.13 1.27-.6 1.26-.6 1.26-.26 0 .15-.15.26-.35.26s-.69.37-1.11.81l-.78.8 1.06 1.04c.95.93 1.98 1.38 1.98.85 0-.28 1.82-1.23 2-1.04.1.08-.33.48-.93.87-.6.4-1 .82-.89.93.47.44 2.24 1.3 2.68 1.3.26 0 .58.1.72.24.7.67 3.06.7 3.86.05m4.7-2.44c1.25-.75 1.61-1.22 1.61-2.13 0-.69-.05-.73-.56-.45-.44.23-.49.35-.21.52.27.17.18.36-.41.83a5 5 0 0 1-1.31.76c-.59.15-.93 1.04-.4 1.04.17 0 .75-.25 1.27-.57m-3.79-1.31c-.1-.6-.34-1.34-.56-1.65a2 2 0 0 1-.39-1.02c0-.26-.12-.47-.27-.47s-.39-.32-.53-.7a8 8 0 0 0-1-1.66c-1.3-1.66-2.09-3.3-2.28-4.66-.4-2.74-1.5-3.25-2.87-1.3a7.4 7.4 0 0 0-1.43 3.96c-.17 1.43.88 3.64 2.4 5.1 1.37 1.3 5.4 3.42 6.61 3.47.44.02.48-.11.32-1.07m3.02-.9c.18-.21.47-.4.65-.4s.6-.3.95-.66c.53-.57.58-.76.31-1.2a2 2 0 0 1-.32-.89c0-.76-.53-.68-1.97.27-1.4.93-1.84 1.7-1.2 2.1.14.08.26.39.26.67 0 .62.84.7 1.32.12m-.1-1.85c.09-.21.38-.4.66-.4.6 0 .66.42.08.64q-1 .4-.73-.24m-1.68-.62c.07-.27.68-.77 1.35-1.1s1.23-.76 1.23-.94c0-.53-.88-.72-1.22-.26-.32.44-.9.56-.9.17 0-.13.18-.3.4-.39.4-.15.56-1.62.19-1.85a4 4 0 0 0-1.48.12c-1.24.23-1.29.21-2.23-.75s-.97-.97-1.06-.37c-.1.68 1.06 2.55 1.85 2.98.26.14.48.42.48.63 0 .46.86 2.24 1.1 2.24.08 0 .22-.21.29-.48m-.86-2.42c0-.14.12-.26.26-.26s.27.12.27.26-.12.27-.27.27a.3.3 0 0 1-.26-.27m-14.6-.06c0-.7-.1-1.26-.22-1.26s-.23.74-.23 1.65q0 1.6.23 1.26c.13-.2.23-.95.22-1.65m1.51-.22c.24-.4-.04-.61-.54-.42-.24.1-.36.29-.27.43.22.35.6.34.81-.01m2.5-.78c0-.3-.17-.53-.4-.53-.44 0-.46.05-.23.64.23.6.63.52.63-.1m-1.47-1.88q-.17-.25-.53.05c-.57.47-.45.83.16.5.3-.15.46-.4.37-.55m1.63-.17c.08-.25.43-1.08.78-1.84.73-1.6.44-2.13-.58-1.04-.35.39-.73.7-.83.7-.42 0-.9 1.11-.6 1.4.15.16.28.5.28.77 0 .61.77.62.95.01m8.18-8.05c-.05-.7-.43-.86-1.4-.62l-.72.18.63.51c.85.7 1.54.66 1.49-.07m2.91-1.83c.02-.92-.04-1.05-.51-.98-.71.1-.83.8-.27 1.66s.75.69.78-.68m-3.8-.36c.65-.29.74-.39.34-.4-.3 0-.77.17-1.06.38q-.97.74.72.02m-4.4-.55c.9-.75.76-.81-.56-.26-.52.22-.86.51-.77.66.24.39.44.33 1.33-.4m3.57-.65c0-.15-.05-.27-.12-.27s-.19.12-.28.27c-.09.14-.04.26.12.26.15 0 .28-.12.28-.26m3.44 0c0-.15-.24-.27-.53-.27s-.53.12-.53.27c0 .14.24.26.53.26s.53-.12.53-.26m3.63-.43c-.09-.08-.32-.1-.5-.02q-.32.14.15.16c.28.01.44-.05.35-.14m-5.84-1.9c.07-.25.47-.7.88-.98.9-.6 1.23-1.45.58-1.45q-.45 0 .63-1c1.5-1.37 1.62-1.83.56-2-.95-.14-2.03.4-2.03 1.05 0 .23-.28.97-.62 1.65s-.7 1.68-.8 2.22c-.16.81-.12.99.24.99.24 0 .5-.22.56-.48m2.76-7.4c1.4-.88 2-1.65 1.31-1.65-.36 0-3.19 2.15-3.19 2.42 0 .37.25.27 1.88-.76" style="fill:#666"/><path d="M31.1 33.5c.34-.26.73-.37 1.01-.65M29.44 31.83c-.15.07-.52.04-.46.19s.62-.24.46-.19q-.37.15-.73.28c-.03.01-.07-.02-.1 0s.02.07 0 .1c-.1.19-.51.45-.73.45M31.83 34.87q-.17.2-.36.37-.62.49-1.3.83c-.2.1-.02.38-.36.55" style="fill:#4d4d4d;stroke:#4f4f4f;stroke-width:.264583px;stroke-linecap:butt;stroke-linejoin:miter;stroke-opacity:1"/><path d="M35.2 35.65c-.47.46-1.02.7-1.53 1.06-.1.08-.19.24-.3.3-.07.04-.15-.04-.2 0-.04.03 0 .1 0 .16" style="fill:#4d4d4d;stroke:#4f4f4f;stroke-width:.35811px;stroke-linecap:butt;stroke-linejoin:miter;stroke-opacity:1"/><path d="M42.7 30.55c-.13 0-.38-.13-.38 0 0 .12.48-.06.37 0-.22.11-.5.11-.73.18-.25.07-.5.22-.74.28-.06.01-.14-.05-.18 0-.05.04.01.12 0 .18-.02.05-.32.44-.37.55" style="fill:#4d4d4d;stroke:#4f4f4f;stroke-width:.264583px;stroke-linecap:butt;stroke-linejoin:miter;stroke-opacity:1"/><path d="M40.27 30.58c.32-.3.56-.64.97-.9.17-.11.45-.06.66-.13.55-.19 1.86-1.08 2.08-1.13" style="fill:#4d4d4d;stroke:#4f4f4f;stroke-width:.508606px;stroke-linecap:butt;stroke-linejoin:miter;stroke-opacity:1"/><path d="M38.23 29.8c.57-.22 3.73-1.9 3.8-1.87.14.09-.15.58-.16.6" style="fill:#4d4d4d;stroke:#4f4f4f;stroke-width:.409771px;stroke-linecap:butt;stroke-linejoin:miter;stroke-opacity:1"/><path d="M42.53 34.15c.33-.29 1.22-.48.98-.86-.25-.38-1.38.96-.98.86.47-.1 2.41-1.28 3.17-1.72" style="fill:#4d4d4d;stroke:#4f4f4f;stroke-width:.760991px;stroke-linecap:butt;stroke-linejoin:miter;stroke-opacity:1"/><path d="M27.89 34.28c.32.1.78-.52 1.12-.62.07-.02.14.03.2 0 .19-.07.35-.39.52-.5.03-.01.08.04.1 0 .06-.06.04-.18.1-.24.18-.16.44-.1.62-.25.03-.02-.03-.1 0-.12.06-.04.14.03.2 0 .23-.1.39-.5.62-.5" style="fill:#4d4d4d;stroke:#4f4f4f;stroke-width:.323028px;stroke-linecap:butt;stroke-linejoin:miter;stroke-opacity:1"/><path d="M31 36.8c.13-.12.5-.24.37-.37-.12-.12-.49.5-.36.37.6-.6.57-.59 1-.92.12-.08.4-.03.47-.09.34-.34-.22-.04.27-.37.11-.07.26-.02.37-.09.28-.17.59-.44.74-.74" style="fill:#4d4d4d;stroke:#4f4f4f;stroke-width:.264583px;stroke-linecap:butt;stroke-linejoin:miter;stroke-opacity:1"/><path d="M37.44 11.48c1.18-.3 2.57-1.08 3.9-1.08" style="fill:#4d4d4d;stroke:#4f4f4f;stroke-width:.759946px;stroke-linecap:butt;stroke-linejoin:miter;stroke-opacity:1"/><path d="M38.04 10.26c.81-.79 1.92-1.03 2.84-1.52.26-.14.65 0 1.03-.42" style="fill:#4d4d4d;stroke:#4f4f4f;stroke-width:.384371px;stroke-linecap:butt;stroke-linejoin:miter;stroke-opacity:1"/><path d="M37.3 12.87c1.03-.33 1.83-.52 2.77-1" style="fill:#4d4d4d;stroke:#4f4f4f;stroke-width:.474259px;stroke-linecap:butt;stroke-linejoin:miter;stroke-opacity:1"/></svg>