<svg xmlns="http://www.w3.org/2000/svg" xml:space="preserve" width="120mm" height="60mm" viewBox="0 0 120 60"><path d="m48.3 55.1-.8-.2-.9-.1-.8-.2-1.4-.6-1.5-.7-.6-.3-.7-.3-1.8-1.4-1.7-1.4-1.2-1.3-1.2-1.4-.3-1-.3-.9h-.2l-.2-.1v-.7l-.2-.8h-.2l-.2-.2v-3.4l.5-.9.5-.8.6-.8.6-.7.5-.4.5-.5v-.4l.4-.2.4-.2v-.5l.3-.2.2-.1.8-1 .7-1 1.4-1.5 1.4-1.6h.5l.3-.3.4-.4.7-.2.7-.2.2-.1.2-.2h1.6l.3-.2.3-.1V10.7l.3-.5.2-.5.5-.5.5-.6 1-.7 1-.6h.7l.4-.3.4-.2 1.2-.3 1.1-.2h5.8l1.3.3 1.2.3 1.3.6 1.2.5.9.9 1 .9v.7l.2.8V30l-.2 1.2-.1 1.2-.4.1-.4.2h-.9l-1 .1-.6-.4-.6-.4v-.5L64 31h-.6v3l-.1 3 .1.4.2.4.4.8.3.9v3.4l-.3.7-.3.6-.5.7-.6.8-1.5 1.7-1.5 1.7-.4.5-.4.5-1.4 1.7-1.4 1.7-.7.4-.6.5-.7.3-.7.3h-1l-1 .2-.4-.2-.5-.3-.4.3-.5.3h-.4zm6.5-1.6.8-.6.6-.9.6-.8v-3.8l-.5-1-.6-1V45l-.7-.9-.6-1v-.2l-1-.9-1-1H52v.3l.4.4.5.4.5.6.6.7.6 1.2.7 1.2.4 1.1.5 1.1-.2 1.4-.1 1.4-.4.6-.3.6-.5.6-.5.6-.9.4-.8.5h-.4l-.3.1-.3.2.2.2v.2l1.1-.3 1-.3zm-4.2.4v-.2l-.5-.2-.4-.3-1.2-.2-1.2-.2H45v.4l.9.2.8.2 1 .2.8.2h2zm1.8-2.3.7-.8 1-1.3.8-1.3v-.7h-1l-1.2-.2-.3-.2-.4-.2h-2l-.6.5-.5.5-1 1-1 1.2-.7.6-.8.7.1.2.1.1h1.6l1.4.2 1.5.2.4.2.4.1h.8zm2 .3.4-.6.3-.2.2-.3v-.2l-.1-.3-.2-.2-.3.5-.2.5-.3.6-.2.6v.2h.1zM47.2 49l1.2-1.2.3-.3.2-.4h-.2l-.3-.2-.7.7-.7.7-.6.6-.5.6-.8.8-.8.7v.8l.9-.8.8-.8zm-3.5 2 .1-.3 1-1 1-1 1-1 1-1v-.6h-.9l-.6.7-.7.7-1.3 1.5-1.4 1.4v.6l.2.1.1.1h.3zm-2.6-.6-.2-.5-.6-.7-.5-.7-1.1-1-1.2-1h-.3v.4l.9 1 .8 1 1 1 1 1h.4zm18.2-1.7 1.4-1.6 1.1-1.3 1.2-1.3.5-1 .5-1V40l-.4-1.1-.4-1.1-.5-.7-.4-.6-.8-1-.7-1.1-1.6-1.4-1.5-1.3-1.4-.8-1.4-.8-1-.4-1-.4-1.5-.4-1.6-.4H46l-1.2.5-1.2.6-.5.5-.5.5-1 1-1 1.1-1.4 1.7L38 36v.2H39l.4-.2h2.5l2.4.2 1 .3 1 .3 1.4.6 1.4.6.9.7.8.6h.4l1.5 1.4 1.5 1.3v.3l.5.5.5.5.6 1 .7 1 .4 1.1.5 1.2v1.3l.1 1.3v.1h.3zM44 48.3l1.5-1.6.5-.6.4-.5-.2-.6-.3-.6-.3-.3-.4-.2v-.4l-1.4-1.3-1.4-1.3h-.5l-.2.3-.2.3-1.5 1.7-1.6 1.7v.2l-.2.2 1 .9 1 .8.7 1 .7 1 .3.5.2.5h.3zm11-1.5v-.2l-.4-.2-.3-.1h-.5l-.4.2v.2l.4.1.5.1h.6zm-4.5-.7V46l-1-.5-1-.4-.9-.6-.9-.6v.3l.2.5.3.5.7.5.8.5h2zm3.3-1 .4-.2-.5-.6-.4-.6h-.6l-1.2-.3-1.2-.4-.5-.3-.6-.4H49l-1-1-1-.8-.5-1-.6-1.1-.5-.2-.5-.2h-.6l.1.8.1.8.6 1 .6 1 .9.7.8.7.7.6.8.5 1 .5 1.2.4.8.2.9.1h.8zm-18.1-.2.2-.2.1-.6.1-.6.6-1 .5-1 .6-1.4.5-1.5V38l.4-.2.5-.2 1.3-.2h3.1l1.9.2.7.4.8.3h.8l.1.3.2.2.5.2.5.3 1.1.7 1.2.8h.4v-.3l-.4-.1-.4-.2-.6-.4-.6-.5-.6-.4-.6-.4H48v-.2l-.2-.1-.8-.4-.9-.4h-.6l-.2-.1-.2-.2-1-.2-1-.2-1.5-.1H40l-1.1.2-1.1.4-1 .6-.9.5-.6.9-.5.8-.2 1-.1.8.2 1.2.2 1.1.1.6.2.6h.3zm4.4-3.3 1.4-1.4v-.5h-.6v.3l-1.2 1-1.2 1.1v.3l-.5.5-.5.5v.6l.7-.6.6-.5zm-1-.7.8-.8.8-1 .8-1-.2-.3v-.1h-1l-1 .1-.2.4-.4.4-.1.7-.2.8-.2.6-.3.7.1.1.2.1h.1zm4.5-.6-.3-.4-.3-.8-.2-.9-.3-.2-.2-.2-.3.5-.2.5.3.7.3.8.6.4.7.4.1-.2v-.2zm18.6-8 .1-2.3.2-1 .2-.8.5-1.4.5-1.3-.1-.7-.1-.6-.7-.6-.6-.6-.7-.4-.7-.4H58l-1 .5-1 .4-.5.5-.6.5-.7.5-.8.5-1.5 1-1.4 1.1h-.4l-.2.2-.2.3.2.2.1.2 1 .2 1 .1 1 .4 1 .3 1.1.6 1.2.5 1.2.8 1.3.8 1.5 1.5 1.6 1.5h.1zM57 27.5l-1-.3-.4-.5-.4-.5v-1.8l.1-.1.1-.2.7-.3.7-.3H59l.8.4.7.5.4.5.3.5v.9l-.3.5-.4.4-.7.4-.8.3H58zm1-1 .2-.2.4.3.5.3.6-.3.6-.4.1-.2.1-.3-.3-.4-.3-.4-.3-.2-.4-.1-.8-.2h-.9l-.7.1-.7.3v.3l-.2.3.1.3.1.3.7.4.6.4h.3zm9.5 5.5.3-.2v-1.3l-.3-.4-.3-.4h-2l-.2.3-.3.2v1.3l.2.3.2.4h2zm0-3.7V28l-.3.1-.2.1v.7h.4zm0-1V27l-.4-2.2-.3-2.1-.2-.3-.1-.3V21l-.5-1.2-.6-1.2-.2-.5-.3-.5-.3-.3-.4-.2h-.6l.2 1v1.2l.3 1.6.2 1.6v.8l.1.8.2 1.4.1 1.5h1l1 .2.2.2.2.3h.3zm-17-.7.9-.7.3-.5.3-.6.2-1.5.1-1.5.3-2 .2-2v-.1l.1-.2-.1-.3-.2-.2-.5.3-.5.3-.5.7-.5.6v.6l-.2.5-.3 1-.3 1.1-.2 1-.2.8-.2 1.5L49 27l.1.2.1.1h.2zm3.8-2.7.6-.5V23l-.6-.2-.7-.2h-.8v1l-.2 1 .2.1.3.2.3-.3.3-.2zm9.3-1.2-.1-.1H63v.3h.6zM49.8 20l.2-.2V19h.2l.1-.2.2-.5.1-.4.5-.6.5-.6.8-.3.9-.4 1-.3 1.1-.2 1.6-.1 1.6-.2 1.7.3 1.7.2 1 .3 1.2.4.7.6.8.7.3.6.3.6.4 1 .3 1 .1.6.2.5h.4V11.3l-.2-.8v-.7l-.7-.5-.6-.6-1.1-.6-1.1-.6-1.4-.3-1.4-.4h-6l-1.1.4-1.2.3-1 .4-.8.4-.8.6-.8.5-.3.6-.4.6v10.7l.2.4.3.4.1-1 .2-.9z" style="fill:#000"/></svg>