<svg xmlns="http://www.w3.org/2000/svg" xml:space="preserve" width="192" height="60" viewBox="0 0 192 60"><path d="M126.8 48.4a27 27 0 0 0-5.1-.6c-4.4-.2-7.3-.5-18-2l-7.2-.6a174.6 174.6 0 0 0-26.8-1.4c-2.8 0-5.9.4-6.9.7a101 101 0 0 1-26 1.8c-15.1 0-15.8 0-16.5-.6l-.7-1c0-.9 2-2.6 3.6-3 .9-.2 6.4-.5 12.3-.6C46 40.9 48 40.6 48 39.7c0-.2-1.2-.4-2.8-.4s-4-.3-5.3-.6c-4.3-.9-12.6-2-15.3-2.1q-4.4 0-4.3-1.3 0-1.3 3.5-2.5a49.5 49.5 0 0 1 21.5 1.4c3 .6 13.9 1 14.6.4.6-.4 4.3-1 9-1.3 2 0 4.4-.4 5.5-.7s3.4-.5 5.2-.5 4.6-.2 6.3-.5l17.8-2.7q0-.3 0-.4l-2.4-.4c-4.1-.6-8-1-13.2-1.4l-5.7-.5c-.9-.3-2.8-.4-15.6-.7a87 87 0 0 1-9.3-.5 72 72 0 0 0-8.5-.6 52 52 0 0 1-9.7-.7c-1-.3-3.3-.6-5.1-.6-2.8 0-3.3.1-4 .8a5 5 0 0 1-4.7 1.5c-2.4-.3-3-.6-4-2-1-1.6-1-6.6 0-8.8 1-1.8 1.7-2.2 4.6-2.2 3.1 0 3.9.2 4.8 1.6l.8 1.3 3.8-.2 7-.5c2-.1 6.3-.2 9.8 0l19.6.6 19.3.7c9.8.6 18 .5 23.4-.3 5.5-.8 7.7-1.3 8.2-1.5l3.8-.4c1.9-.2 3.7-.4 4-.6 1-.4 10-.8 10-.4s-2 1-3.3 1q-1.6 0-10 1.2l-5.7.7c-1.5.2-3.4.6-4.2 1q-1.6.4-2.7.2-1-.1-1.6.2c-.8.6-9 .8-16.9.4l-19-.5c-6.4-.1-11.9-.4-12.3-.5-1.1-.6-23.8-.9-25.4-.4-1.4.5-1.4.5-1.5 3 0 1.4 0 2.6.3 2.8.7.7 6.5 1.3 14.2 1.5a544 544 0 0 1 53.7 4.1c4.5.5 12.7 2.4 13.8 3.2a76 76 0 0 0 21 4.4c4 0 5-.4 7.8-2.9a14 14 0 0 0 3.4-5.1q0-.6.6-1 .5-.6.6-1.1l.7-3q2.4-7.1 2-7.7c-.5-.8-2.7-1.1-8.8-1.1-3.5 0-6.4-.2-6.4-.3 0-1 7.5-1.8 11.3-1.2a57 57 0 0 1 19.2 7c2.3 1.4 6.4 5.3 8 7.8s2.7 6.2 2.4 7.6c-1 3.4-8.6 8.2-14.5 9l-2.8.6-10 .4a59 59 0 0 0-20 3.2c-1.4.7-7.3 1.6-7.7 1.2m3.9-2.1q1.2-.9 1.3-2.5c.4-3 .2-3.2-3-4.2-6.7-2-6.6-2-7.6-.7q-.7 1-.8 1.7 0 .7-.5 1.4c-.7.8-.8 2.7-.2 3.3.5.4 4.2.6 4.2.2l-.8-1.2q-1.5-1.8 1-3.4 1.4-1 2.3-.7c1.3.3 2.6 1.7 2.6 2.9 0 1-2 3-3 3q-.6 0-.3.3c.3.3 1 .4 3.2.7zm-12.8-1.6c0-1.2 2-6.5 2.9-7.6.9-1.2.8-2.9-.3-4-1-1.3-4.1-2.4-7.7-2.8q-4.2-.5-2.4.8c2.4 1.5 2 4.8-.9 6.2-1.3.6-1.4.6-2.7 0-1.7-.7-3-2.6-2.7-3.8 0-.5.7-1.3 1.2-1.9q1-.8.7-1.2a27 27 0 0 0-8.4.4l-4 1-4 .6c-.9.2-3.4.6-5.7.8l-16.3 2.1q-1 0-8 3a37 37 0 0 1-6 2L47 42c-.9.2-4 .4-6.9.5l-10.9.3c-7 .2-7.4.3-7.4 1.3v.8H38a126 126 0 0 0 27-2 145 145 0 0 1 34.8 1.3l5.1.5c2.4.2 4.7.5 5 .7l4.3.4h3.7zm17.8.5q.8-.5 1.7-.6a51.8 51.8 0 0 1 16.2-1.8 70 70 0 0 0 15.7-1.8c1 0 4.8-1.7 4.8-2.1q.2-1-3.1-.2c-2.2.4-2.7.4-5.8-.2q-7.2-1.2-7.1-4c0-.9-1-1.3-4-2l-3-.5-1.8 1.5c-3.8 3-5.9 3.5-11.1 2.7-4.6-.8-5.6-.5-6 1.3-.2 1 0 1.4.6 2.3q1.5 1.8.6 5-.5 1.1.6 1 1 0 1.7-.6M127 44q1.3-1.1-.1-2.2c-.8-.6-.9-.6-1.7.1q-.8.8-.5 1.7c.3 1 1.4 1.2 2.3.4m-70.2-6.2q3-1 3.1-1.5 0-.6-1-.5c-5 .4-12.8 0-17.5-1-3-.6-7.5-1-11.3-1-4 0-7.8.3-7.8.7s1 .7 2.1.7l1.1.2c.1.1 1.9.3 3.9.4 2 0 4 .3 4.6.5s2.6.5 4.5.7l5.6.7c1.8.4 6.6 1 8.8 1 .5 0 2.2-.4 4-1m74.1-1c.3-1.7-.2-2.2-2.8-2.5-1-.1-2.5-.5-3.3-.7-1.8-.7-2.2-.5-2.2 1s.6 2 2.6 2.3c.8.1 2 .4 2.6.7 2.2.8 2.8.6 3.1-.9m47-.2q2.7-2.6-3.9-2.4c-7.4.5-10.1.3-12.5-1q-2.1-1.5-1.8.5c0 2.5 1.5 3 9.3 3.3l7.2.3q.8 0 1.7-.7m-115.4-1q-.1-.4-.8-.4-.6 0-1 .4-.1.3.8.3t1-.3m47.5-.5c1-1 1.1-1.6 0-2.6-2.1-2.2-5.3.1-3.8 2.7.6 1 2.6 1 3.8 0m61.5-2.8c.4-.3-.4-1.8-1-1.8-.3 0-1.3-.5-2.2-1-1.6-1.2-1.8-1.2-5.5-1.2-2.1 0-4 .1-4.3.3-.8.4-.4 1.2.7 1.6l3.2 1.3c3 1.3 8 1.8 9 .8m8.4-.8c0-1.1-.3-1.5-2-2.1-.7-.3-2-1.1-3-1.8-2-1.6-5-2.9-7.8-3.5-2-.4-2.1-.4-2.9.3q-1.8 1.5 1.7 2a9 9 0 0 1 3.1 1l1.5.6q.5.2 2.3 1.4a15 15 0 0 0 6.3 3q.8 0 .8-.9m-23-.6c-1.1-.7-4.3-1.1-4.5-.5q0 .3 2 .8c3.4.5 3.5.5 2.5-.3m.8-3.6q1.4-.8.2-.9L156 26q-1-.3-1.5-.1c-.6.4-.5 1.5.3 2q1.3.8 2.8-.4m20.3-.6c-.6-1.4-5-5.4-8-7.2-3.2-2-10-5-11-5s-1.9 1.4-2.2 3.3c0 .6-.4 1.8-.7 2.7q-.5 1.7-.3 2.2c.2.3 1.5 1 3 1.4l2.8.9 1.3-1.4c1.2-1.3 1.4-1.4 3-1.2 2.5.2 7.2 2 8.4 3 .7.7 3.4 2.3 3.7 2.3q.3 0 0-1M28.2 23.4q0-.6-.6-1.5c-1.2-1.5-1-4.3.3-6.1 1.2-1.7 1.3-2 .3-2-1.2 0-2.7 2-3 3.8-.3 2 0 4.3.8 5.4.6.9 2 1.1 2.2.4m-4.2-.7c-.5-1.5-.2-6.3.4-7.2.7-.8.8-2 .3-2-2.2 0-3.9 6.9-2.2 9 1 1.2 2 1.3 1.5.2m11.8-1.5c.4-.5.5-5.2 0-5.2q-5.7-.2-6.6.4c-.4.2-.8 1.2-.9 2.1-.2 1.4-.1 1.8.6 2.4.7.7 1.3.8 3.7.8q2.8 0 3.2-.5m95 .9c-1-1.4-1-3 0-4 1.3-1 3.6-1 4.6 0 1.3 1.3 1.4 2 .3 3.6-1 1.2-1.2 1.4-2.6 1.4-1.2 0-1.6-.2-2.3-1m3.4-.8q1-1.2-.3-2.3c-1-.8-2.3-.2-2.3 1.2q0 1 .2 1.2c.4.4 1.9.3 2.4-.1" style="fill:#000"/></svg>