<svg xmlns="http://www.w3.org/2000/svg" xml:space="preserve" width="120mm" height="62mm" viewBox="0 0 120 62"><path d="m132.8 44.5 62 27.1" style="opacity:1;fill:#000;fill-opacity:.920746"/><path d="M61.7 56h-.1l-.4-.5-.4-.4-1.8-2-1.8-1.9H57l-1-1-1.1-1-.5-.4-.5-.4h-.2l-1-.8-.9-.8-.8-.6-.9-.5-.8-.5-.9-.5-.7-.4-.7-.4-.5-.3-.6-.2V43h-.4l-.3-.2-.6-.2-.5-.3-.6-.2-.6-.3-.4-.3-.4-.2-1.6-.6-1.5-.5-.5-.2-.5-.3h-.6l-.7-.3-.7-.4H35l-.7-.3-.7-.2-1-.3-.9-.2-2-.5-2-.4-2-.3-1.9-.2-1.6-.1-1.7-.1-.2-.2-.2-.3.1-.2.1-.1h.7l.8.1.7.2.8.2h1.3l1.3.2 1 .1.9.2.9.2 1 .1 1 .4 1.1.3h.9l2.4.7 2.3.7.6.3.5.2 1 .4 1.1.4.5.2.6.3h.4l.4.2.3.3h.6l.6.4.6.4.4.1.5.1.2.3.2.2h.5l.6.5.6.4 1.2.6 1.2.7.4.3.4.3h.4l.8.7.7.7.7.4.6.4v.2l.9.6.9.6 1.4 1.4 1.4 1.3 1.2 1.3 1.1 1.3h.9l-.1-.3-.1-.3h.3v.4l.2.3.3.1.3.2.2-.2.3-.2 1.5-1 1.4-.8.3-.2.2-.1.8-.5.8-.4.5-.3.5-.3 1-.7.9-.7 1.2-.7 1.3-.6V48l.2-.2.7-.3.8-.3.3-.3.3-.3 1.6-1 1.6-1 1-.6 1-.6 1.6-1 1.7-1 .7-.5.7-.4 1-.7.9-.6.4-.2.5-.2 1.8-1.1 1.8-1.1 3-1.9 3-1.8.6-.5.7-.5h.4l.8-.6.8-.6.7-.3.6-.4.3-.5.2-.5v-.8l-.1-.8h-1.3l-.3.4-.4.3-1 .7-1 .7h-.3l-.5.4-.5.4h-.5l-.2.3-.2.3-1.2.7-1.3.7-.6.3-.6.4-1 .7-1.2.8-.8.5-.8.5-.5.3-.6.4-.8.4-.8.5-.2.1-.3.2-.8.5-.8.6h-.2l-1.2.8-1.3.8-.7.5-.7.4-1.6 1-1.5 1h-.3l-.5.4-.5.4-.8.5-.8.5-.3.2-.3.2-.6.4-.6.4-1 .6-1 .5-1.4 1-1.4 1-1.5.9-1.5 1h-.2l-1.1.8-1.2.7-.1.2-.1.1-.4.4-.3.5-.4-1-.4-1-.9-.7-.8-.8-.8-.9-1-.8-.5-.5-.5-.4-1-.8-.8-.9-1.2-.8-1.2-.8-.8-.6-.8-.7-.6-.3-.6-.3-1-.6-1.2-.6-.7-.5-.7-.4-.6-.3-.6-.3-1.2-.6-1.3-.5-.9-.4-.8-.3-.6-.2-.5-.2-1-.3-1-.3-.6-.2-.5-.3h-.9l-.7-.3-.7-.4h-1.2l-.6-.2-.6-.3h-2.3l-.7-.2-.7-.3-1.7-.1-1.7-.1-1-.2-1-.2-.7.1-.6.2-.4.3-.3.4v-.8l.1-.7.7-.4.7-.3.1-.2.2-.2 1.7-1 1.7-1 1.2-.8L28 29l1.3-.9 1.3-.9.3-.1.4-.2 1.2-.8 1.2-.8 1-.5.9-.6.6-.5.7-.5h.6l.1-.2.1-.3.4-.1.5-.2 1.5-1 1.6-1 .7-.7.6-.6v-.7l.2-.4.2-.3-.4-.3-.3-.3v-.2l.5-.2.6-.2h.2v1.2l-.2.5-.2.4-.3 1-.3 1.1-.2.2-.1.1v.2l.2.3-.3 1-.3 1-.2-.2-.2-.2.2-.4.2-.4v-.7l.2-.6h-.6l-.7.3-.7.4-.3.2-.3.2-.9.6-.8.5h-.3l-.3.3-.3.3-1.7 1-1.7 1-.9.7-.9.5-.3.1-.4.2v.2l-1 .6-1 .6-.4.3-.5.2-1.7 1.2-1.7 1.2h-.2l-1.2.7-1.1.8H22v.2l.1.3h.7l.7.2 1 .2 1 .2h2.3l.5.1.5.2 1.2.2 1.2.2 1.4.2 1.3.1.4.2.3.2.6.1.6.2.6.2.6.2.6.2.5.3h.9l.7.3.6.4h.6l.3.1.3.2 1 .5 1.2.5 1.9.9 1.9.9.2.2.3.1 1.6 1 1.6 1 .5.4.4.3.7.5.8.5 1 .8 1 .8.8.7.8.7 1.5 1.4 1.4 1.4.4.5.3.4.7.5.6.5.2-.3.2-.3.8-.4.7-.4.8-.5.8-.5 1.1-.7 1.1-.8 1.3-.8 1.2-.8h.2l1-.7 1.1-.7.9-.6.8-.5.6-.3.5-.3.3-.2.4-.2.5-.4.6-.5 1-.5 1-.5.9-.6 1-.7.3-.2.3-.2.5-.3.5-.3.8-.5.8-.6 1-.5.9-.6.7-.5.8-.5.4-.2.4-.2.1-.1.1-.1 1-.6 1-.7.9-.5.9-.6 1.1-.7 1.1-.8h.3l.2-.2 1-.7 1-.7.9-.4.7-.5 1-.5 1-.6.3-.3.5-.2.4-.4.5-.4V26l-.6-.8-.7-.8-1.4-1.5-1.5-1.4-.5-.3-.4-.2v-.4l-.6-.2-.5-.3-.6-.6-.6-.6-1.1-.7-1.1-.8-1.6-.8-1.5-.9-1-.5-.8-.6h-.3l-1.1-.6-1.1-.5-.7-.3-.7-.3-.7-.3-.7-.3-1.4-.5-1.4-.5H79l-.3-.3-.3-.2h-.9l-.5-.3-.5-.2-1.5-.4-1.4-.4-.8-.2-.8-.3-1.3-.1-1.3-.2-1-.2-1-.2h-.3L67 8l.2-.1.3-.2.8.1.7.1 1.5.3 1.5.4h1l.1.1.1.2h1l.7.3.8.2 1 .3 1 .3.6.2.5.2.8.3 1 .3 1.1.4 1.2.3.4.3.4.2h.5l.4.3.5.2 1.1.5 1.2.6.4.1.4.2.3.2.2.1.4.2.3.2.4.2.3.2.5.3.5.3.9.5.8.5.6.4.6.4.6.4.5.3v.3l.6.3.6.2.6.6.6.7h.4l.2.4.3.4.7.4.6.5.8 1 .7.9h.4l.6.7.7.8.3.4.4.5V30h-.3l-1 .7-.8.7-1.1.7-1.2.7-1.2.8-1.2.8-1.8 1-1.8 1.1-.3.2-.2.1-2.5 1.5-2.5 1.5-.5.3-.5.3-1.3.8-1.4 1-1.3.7-1.3.8-1.4.9-1.4.9h-.4l-.3.4-.3.3h-.3l-1.1.8-1.2.7-.2.3-.2.3h-.7l-1 .7-1.1.8-1.2.7-1.2.7-2.4 1.5-2.4 1.5-.7.5-.7.5-.7.3zm1.6-8.1h-.6l-.8-.5-.7-.4-.5-.4-.4-.4-.8-.6-.8-.5-1.5-1.5-1.4-1.5v-.3l-.6-.3-.6-.2-1.3-.3-1.4-.3-.8-.4-.7-.4-.8-.8-.8-.9-.9-1L47 36l-.8-.7-.8-.7-.7-.5-.6-.5h-1.8l-1.9.2-1-.2h-1.2l-.7-.4-.6-.2-.6-.6-.5-.6v-2.2l.3-.6.3-.6.3-.5.2-.4.6-.6.6-.7.7-.2.7-.2v-.3l1-.3 1-.3h.2l.2-.1.1-.3.1-.4h.3l.2.4.3.4.1.5.1.4.2.2.2.1.4.5.4.5.7.4.7.4.8.3.8.4.8.1.7.1h.9l.5.2.5.2.9.4.8.4.3.2.2.2.8.3.8.4 1 .6 1.2.6.3.3.4.3.7.3.7.4.5.4.6.5.5.3.6.2.6.5.6.4 1 .7 1.2.8.5.4.5.4.5.3.4.3 1.9 1.2 1.9 1.3h3.3l.9-.4.9-.3.6-.3.5-.3.5-.3.5-.2 1.3-1.2L80 37h.4l.7-.5.8-.5 1-1.2 1-1.2.3-.1.3-.1h.9l.4-.3.5-.3.5-.4.5-.3.7-.9.7-.9.2-.4.2-.5-.3-1.3-.2-1.2-1-1-1.1-1h-.9l-.3-.2-.3-.2v-.3h1l.2.2.2.3.1-.1.2-.1-.3-.5-.3-.4-.3-.3-.4-.3h-.6v.2l-.1.2-.1.5-.1.5h-1.2l-.2-.6-.2-.5h-.5l-.2-.4-.2-.4-1.3-1.1-1.3-1.1-.4-.4-.5-.4-1.6-.7-1.6-.6L74 18l-1.2-.3-.4-.3-.4-.2h-1.7l-1-.6-.9-.5v-.3l-.4-.1-.3-.1-.5-.4-.4-.4-.7-.4-.7-.4-.6-.5-.6-.4-.7-.2-.8-.3-.5-.3-.6-.3-2-.2-2-.2h-1.9l-2 .2-.7.2-.7.3h-.7l-.3.2-.2.3-.9.2-.8.2-.7.3-.7.3-.5.2-.4.1-1 .5-1 .5-.6.5-.6.6V16l-.2-.1.2-.3.2-.2v-.8l-.3-.7-.4-.8-.4-.2-.4-.2v-.3l-.9-1-.8-1-.6-.3-.5-.3-.6.2-.5.1-.3.3-.2.3-.1.7-.2.6-.6 1.1-.7 1.1-.4 1-.4 1 .2.2.2.2h3.1l3.1.2v.2l-.3.1-.3.1H36l-.3-.6-.3-.5.2-.6.3-.5v-.6l.7-1.2.8-1.2.1-.7.1-.6.1-.1.2-.2.8-.6.8-.6.4.1.5.2 1.4 1.4 1.5 1.5v.3l.7.8.7.8h.6l1.8-.8 1.8-.7 1-.4 1.2-.4.3-.1.3-.2 1.2-.2 1.2-.3h1.4l.4-.4.5-.3h.4l.5-.5.5-.4h.3l.8-.6.8-.6.8-.4.8-.3.2-.3.3-.2h.6v.4l-.5.2-.6.3-.5.4-.6.3-.8.6-1 .5-.4.3-.4.4.1.2.1.2 1.3.1 1.4.1.4.3.5.2 1-.3 1.1-.2.3-.3.3-.2.6-.1.6-.1.7-.1.8-.1-.3.3-.4.2-.4.1-.4.1-.7.2-.7.2h-.2l-.2.1v.6l.8.4.9.4h.8l.6-.8.7-.8-.1-.4-.1-.4.4-.1.4-.1.7.3.6.4.5.4.5.4.6.3.6.3h1l1 .2 1 .4 1.1.5.6.2.5.3.6.4.6.4.2.6.2.5.6.2.7.3h3.8l.2.1.3.2.5.2.5.2.4.7.4.6v.8l-.6-.6-.6-.7H84l-.5.6-.4.5v.5l.2.4.2.4.3.2.4.1.2.4.1.4.4.1.4.1h.3l.2-.2v-1l-.2-1 .2.2h.2v.5l.3.3.2.2 1 .4 1 .4h.9l1.1.5 1.1.6.6.8.6.8.5.8.4.9V27l-.1 1.2-.2.2h-.6l-.5.3-.5.4-.2-.1-.3-.1-.7.3-.8.3-.5.8-.6.8-.4.4-.3.4-.4.4-.3.5-.6.3-.5.4-.5.1-.5.2-.4.2-.5.2-1.2 1.3-1.3 1.3-1 .6-1 .5-.4.4-.4.4-.3.2-.3.3-1.2.8-1.2.8-1.3.5-1.3.5h-1l-1-.1h-1l-.9.2-.5.5-.5.6-.5 1-.6.8-1 1.2-1.1 1h-.4l-.4.4-.5.4zm-.8-.9h.3l-.2-.4-.2-.3h-.6v.3l.2.2.2.2zm2.3-.4.5-.3.6-.6.5-.6v-.8l-.7-.6-.8-.5h-.5l-.4.6-.4.6-.4.2-.4.2v1.1l.5.4.4.5h.3l.2.1zM61 46h.2V45l-.6-.7-.7-.7-.5-.1-.6-.1v-1.1l-1-1-1-1h-.9v1l.5.6.5.6.5.5.6.6h.8l.2.6.2.5.8.6.8.6zm1-1.2h.5l1-1 .8-1v-.4L64 42l-.3-.5-.5-.4-.4-.5h-.5l-1 1-1 1v.7l.4.4.4.4.2.4.1.5zm5-.8h.2l.5-.7.5-.7.4-.5.4-.5-.3-.5-.4-.4H68l-.5-.1-.6.6-.7.6h-.4v-.2l.6-.7.6-.7v-.4l-.3-.3-.3-.3H66l-.3-.4-.3-.3h-1l-.6.6-.6.5v.7l.8.8.8.7.4.1.4.1v.8l.6.6.5.6zm-7.4-1.9h.5l.7-.8.6-.9h.4v-.9h-.3l-.3-.2V39l-.7-.7-.7-.7h-.3l-.3-.2-1 1-1 1v.7l1 1 1 1.1zm-5-1.5h.4l.5-.3.4-.2v-.5l-.8-1-1-1h-.6l-.9 1-.8.8.2.3.2.3 1 .4 1.1.3zm8-1.4h.3l.5-.5.4-.5v-.3l-.2-.4-1.2-.8-1.2-.8h-.6l-.2.2-.2.2v.8l.5.6.6.5.1.2.2.2.3.3.3.3zm-6-.2h.2l1-1 1-1v-.5l-.4-.4-.5-.5-.5-.5-.4-.6h-.4l-1 1-1 1-.1.3-.2.4 1 1 1 .8zm-5.4-.2h.4l.7-.7.7-.7v-.9l-.7-.8-.8-.8h-.4l-1 .8-.8.9v.4l.4.6.5.6.3.3.4.3zm-2.6-2.6h.2l.9-.8 1-1V34l-1.1-1-1-1h-.4l-.8.9-.9.9v.4l1 1zm5.2 0h.2l1-1 1.1-1.1v-.8h-.3l-.8-.7-.7-.7h-.4l-1 1-1 1v.7l.9.8.8.8zm5.5-.1h.2l.3-.3.3-.2-.1-.4-.2-.3h-.3l-.7-.6-.8-.5h-.5v.5l.8.9.7.9zm-8-2.6h.2l1-1 .8-1v-.2l-.1-.2-1.1-.6-1.2-.7h-.6l-.6.7-.6.6v.5l1 1 1 .9zM39.7 33h.7l1-1 1-1v-.5l-1.1-1-1.1-1.2h-.7v.4L38 30.2l-1.4 1.4v.3l.1.3.4.1.4.2.2.2.2.2.5.1h.6zm3.4 0h1.2v-.5l-.5-.5-.5-.5h-.6l-.5.5-.5.5v.2l.2.3zm2.8 0h.3l.8-.7.7-.7v-.9l-1-.9-1-1h-.5l-.8.9-.8.7v.7l1 1 .9 1zm-9.2-2.4 1.4-1.3 1.2-1.3v-.8l-.5-.1-.5-.2-.3.2-.3.1-.2.5-.3.5H37v.4l-.2.5-.3.5v.8h.1zm11.7 0h.2l.3-.4.4-.4v-.2l-.1-.3h-1l-1-.1v.5l.6.4zM44 29.4l.8-.9v-.3l-.5-.5-.4-.5-.5-.3-.5-.4V26h-.3l-.5.2-.6.2-.1.4-.2.4h-.5v1l.9 1 .9.8.3.2.4.1zm45.8-.6.3-.1v-.4l.1-.4-.3-.3-.3-.4h-.2l-.1.6-.1.6.2.2.2.2zm2.2-.4.1-.1h.6l.1-.3.1-.3v-.5h-.2l-.3-.2-.4.4-.4.4v.7l.2.1zm-1.2-.8h.4l.6-.6.7-.5.2-.6.2-.5-.6-1-.7-1h-.4l-.4-.2-.3.4-.4.3h-.4l-.4.6-.5.6v.7l.7.6.6.6.1.3.1.3zM40 27.2l.6-.4.6-.5v-.6h-.4l-.6.3-.7.4v.6l.2.1zM88 24.8h.2l.4-.4.4-.4.3-.2.2-.2.3-.3.3-.4-.1-.2-.1-.3-.8-.3-.8-.3h-1l-1.1-.1-.3.2-.3.3v.4l1.1 1 1.1 1.2zm-4.8-1.4h.3l.5-.3.4-.4V22l-.4-.4-.5-.5-.3-.4-.3-.5-.4-.1-.4-.1-.5.3-.4.3v.6l.8.8.9.8v.5zm-2.7-3h.5l.3-.4.4-.4v-.4l-.4-.4-.5-.4V18h.5l.3.4.2.3h.9l.3-.4.4-.4v-.8h-1.2L81 17l-.2.4-.2.5-.7-.4-.6-.3H79l-.6.4-.5.5v.5l.3.4.4.4h.6l.4.5.5.6zm-4.1-2.2h.1l.6-.2.6-.3.2-.4.2-.4-.2-.4-.2-.4h-.3l-.2-.6-.2-.6-.5-.1-.5-.2-.5.2-.5.3v-.6l.1-.5-.6-.3-.6-.3-.7-.1-.8-.2-.5.3-.5.2v.1l.2.4.2.4.7.7.7.8h.5l.4-.4.5-.4v.2l.1.2-.3.3-.2.3v.7l.4.5.5.5h.7l.2.1.3.2zM72.3 17h.2l.2-.2.2-.3-.7-.9-.6-.9h-.4l-.4-.2-.6.6-.6.7v.3l.5.3.5.3h1l.3.1.2.2zm-3.5-1.6h.2l.7-.6.6-.6v-.7l.4-.2.4-.3H71l-.1-.2-.5.2-.4.2-.9-.8-.9-.8H68l-.8.8-.9.7v.5l.5.5.4.4.4.1.4.2.3.3.3.3zm5 23h-.1l-.8-.7-.7-.6-.6-.1-.5-.2v-.4l-.1-.5h.5l.6.2.5.3.5.3.5.6.5.5v.3l-.2.2zm1.8-4h-.3L75 34l-.2-.4-.5-.5-.5-.4-.5-.3-.6-.3-.8-.4-.8-.3v-.5h1l1 .4 1 .5.9.9.9.8v.8zm-11.4-1.8H64l-.1-.2v-.1l-.8-.1-.6-.1-.2-.3-.2-.2h-1l-.2-.3-.2-.3h-.5l-.7-.4-.7-.4-.4-.2-.4-.3v-.6h.5l2.1 1 2.1 1.1h.6l.7.4.6.3.2.2v.2l-.2.1-.2.2zm16.6-2.3h-.3l-1-1-1-1-1.3-.5-1.1-.6-.6-.2-.5-.3h-.4l-.4-.2v-.3l.1-.3h.8l.4.2.4.3h.5l1.3.6 1.3.7 1 1 1.1 1.1v.5zm-29.3-2h-.4l-1-.4-.8-.2-.8-.5-.8-.4-1.4-1.3-1.3-1.3-.3-.4-.2-.5v-.6h.6l.6.8.6.9.2.2.2.2 1.3 1 1.2 1h.6l.6.2.7.3.8.3h.2l.3.2-.2.2-.2.3zm14.5-.6h-.2l-1.1-.4-1.1-.4-.6-.2-.5-.2-.7-.3-.6-.4-.5-.2-.5-.3v-.5h.2l.2-.2 1.2.6 1.2.6h.6l.3.3.3.3h.7l.4.2.3.3h.7l.2.2.2.2-.2.2-.2.2zm17.8-1.2h-.2l-1-1-1-.9-.6-.3-.5-.3-.6-.2-.6-.2h-.6l-.2-.3-.3-.3.2-.2.2-.3h1.1l.3.3.3.3h.5l1 .7 1 .7.7.8.7.7v.2l-.1.2zM69 24.3h-.2l-.3-.6-.4-.6-1-.8-1-.8-1-.5-1-.6v-.6l.2-.1.2-.1 1 .6 1.1.7.9.7.8.7.5.5.5.5v1zm-15.7-1.4h-.2l-1-.9-1.2-.8h-.4l-.2-.3-.2-.3h-.9l-.4-.2-.3-.3h-1.7v-.8l.7.1h.8l.9.3.9.2.9.5 1 .4.3.3.4.3.5.5.6.4-.1.3-.2.3zM71 20.8h-.3l-.9-.5-.8-.5-.4-.2-.4-.2-.3-.2-.2-.3h-.8l-.3-.3-.2-.2h-.9l-.5-.2-.4-.2v-.7h.3l.2-.2.5.3.5.3h.5l1.3.6 1.2.6 1 .5.9.5.1.3.2.2v.4zm-13.1-2h-.4l-.5-.2-.5-.3-.5-.2-.4-.2h-.9l-.6-.3-.6-.2-2.4-.2-2.3-.2-.3-.2-.3-.2v-.3l.2-.2.3-.2 1.5.2 1.5.2 1.5.3 1.5.2 1 .3.8.2.9.5.9.4v.7zm.7-4.2H58l-.3-.3-.3-.2h-4l-.5-.2-.4-.2-.3.2-.2.1H51l-.1-.2-.2-.3.3-.3.3-.2h3.2l1.6.3 1.6.2h.7l.6.2.2.1.2.2-.1.3-.1.3zm7-6.6h-1l-.3-.1-.3-.1h-.4l-.4-.2v-.5l.4.1.4.1H66l.2.2.3.2-.1.1-.1.2z" style="fill:#000"/></svg>