<svg xmlns="http://www.w3.org/2000/svg" xml:space="preserve" width="120mm" height="60mm" viewBox="0 0 120 60"><path d="m132.84 44.51 61.9 27.13" style="opacity:1;fill:#000;fill-opacity:.920746"/><path d="M108.27 52.42c-.07-.03-1-.14-2.06-.23-1.05-.1-2.5-.27-3.22-.4s-1.92-.32-2.68-.42c-.75-.1-1.71-.3-2.13-.42-.41-.13-1.22-.31-1.78-.4s-1.56-.27-2.2-.4l-2.2-.4c-.56-.11-1.43-.3-1.92-.42a39 39 0 0 0-3.26-.67c-.4-.06-.76-.18-.8-.26-.04-.07-.27-.14-.52-.14-.24 0-.75-.1-1.12-.23s-1.45-.39-2.4-.58c-.94-.18-1.96-.44-2.26-.57s-.79-.24-1.08-.24c-.68-.01-3.53-.75-4.55-1.18a7 7 0 0 0-1.3-.3c-.8-.12-1.65-.33-4.4-1.09l-1.23-.32c-.6-.14-5.4-1.52-5.9-1.7l-2.06-.71a31 31 0 0 1-6.31-3.03 5 5 0 0 0-.68-.35 6 6 0 0 1-1.13-.74c-.36-.3-.7-.54-.74-.54-.19 0-2.1-1.83-2.72-2.6l-.66-.83H37.6l-.45.57c-.66.83-1.16.72-1.16-.26 0-.3-.2-.31-7.38-.33-5.92-.02-10.4-.01-12.07.02-.1 0-.18.2-.18.47 0 .93-.37.76-1.6-.72-1.83-2.23-1.8-1.91-.26-3.76 1.41-1.7 1.7-1.83 1.93-.93l.13.53h5.16l-.09-1.13c-.07-.88-.04-1.23.12-1.52.11-.2.18-.58.14-.86-.04-.36.05-.67.37-1.18.23-.38.42-.75.42-.82s-.2-.22-.42-.32q-.44-.19-.38-.48c.08-.5.5-.43 1.02.18l.49.58-.1 1.1a6 6 0 0 1-.28 1.47c-.1.2-.2.53-.2.73s-.09.74-.2 1.19c-.1.45-.14.87-.09.93s3.06.16 6.7.22c7.34.11 6.74.2 6.98-1.07.13-.67.17-.74.6-.79.58-.06.88.23.53.54-.62.54-.02 1.2 1.19 1.3.8.06.86.02.32-.3-.37-.23-.43-.96-.07-1.04.13-.03.52.1.86.28.52.27.62.39.55.65-.12.45.1.54.8.31.51-.16.77-.15 1.49.07 2.07.62 3 .94 3.26 1.1.4.25.51.21 1.07-.38.92-.97 1.92-1.44 3.69-1.73 1.42-.23 5.77-.25 6.85-.02.45.1 1.17.17 1.59.17s1.07.11 1.44.25c.37.13.82.24 1 .24.6 0 2.58.58 4.5 1.31 1.16.44 1.56.28 1.56-.65 0-.76.28-2.12.44-2.12s.13.3-.1 1.64c-.24 1.35-.18 1.78.25 1.78.4 0 .78-.31 1.88-1.53.49-.55 1.29-1.4 1.77-1.9a62 62 0 0 0 2.36-2.49c.67-.75.94-.87 1.05-.5.02.1-.38.61-.89 1.14l-2.44 2.58c-.83.89-1.8 1.87-2.16 2.18-.36.3-.65.66-.65.78 0 .31.94.3 1.3-.02.14-.13.43-.24.65-.24s1.05-.25 1.86-.56c2.71-1.03 3.31-1.23 3.63-1.23.18 0 .44-.1.59-.23.15-.12.55-.28.88-.34.55-.11.6-.1.44.13-.1.14-.37.3-.61.36s-.63.21-.85.33c-.52.27-2.28.87-3.05 1.04-.32.07-.66.2-.75.29-.1.09-.55.25-1 .36-1.14.27-1.6.5-1.56.79.03.14.89.57 2.17 1.1l3.57 1.46c.8.32 1.56.67 1.72.78s.45.24.68.3c.62.2 1.55.62 2.18 1 .31.18.78.4 1.05.46.26.08.91.33 1.44.57s1.46.65 2.07.9c.6.24 1.22.53 1.37.63s.51.29.81.41c2.88 1.19 4.24 1.8 6.32 2.79.68.33 1.6.74 2.06.92 1.32.53 2.95 1.32 3.03 1.48.04.07.17.14.28.14s.74.26 1.4.58c.65.33 1.44.7 1.74.84s.8.4 1.1.56.61.3.67.3 1.2.63 2.53 1.4c3.36 1.93 3.31 1.9 3.82 2.35l.75.67c.25.2.27.3.14.6-.09.19-.36.42-.6.5-.5.19-2.3.38-2.5.27m1-1.21c.17-.27.3-.56.3-.66s-.41-.4-.92-.67l-2.23-1.25c-.72-.4-2.14-1.13-3.16-1.61s-2.02-1-2.22-1.13-.45-.24-.56-.24-.28-.1-.38-.24a.7.7 0 0 0-.5-.25c-.2 0-.51-.1-.71-.23-.56-.35-2-1.06-3.01-1.48a58 58 0 0 1-3.26-1.47c-.22-.12-.81-.37-1.3-.56-.5-.2-1.02-.42-1.17-.5-.25-.15-.96-.46-2.62-1.15a9 9 0 0 1-.96-.45c-.14-.1-.63-.3-1.08-.46a6 6 0 0 1-.96-.41 12 12 0 0 0-1.3-.6c-.65-.26-1.42-.6-1.72-.77a40 40 0 0 0-2-.9c-2.3-.99-4-1.72-4.66-2.02-1.46-.66-3-1.29-3.64-1.48-.38-.12-1.02-.37-1.43-.55-.8-.37-1.12-.34-1.96.16-.62.37-.74.62-.83 1.77-.04.5-.12 1.03-.17 1.18q-.1.3.33.9c.5.71.53 1.15.14 1.74-.54.8-1.56.43-1.84-.68-.08-.3.02-.5.46-1.03.46-.55.56-.8.64-1.52.1-.92-.02-1.17-.45-1-.14.04-.37.3-.52.57s-.44.56-.65.65c-.33.14-.38.24-.38.87 0 1.29-1.03 2.02-1.74 1.23-.2-.22-.32-.54-.32-.86 0-.82.28-1.1 1.19-1.24.69-.1.9-.21 1.41-.79q.63-.69.47-.85c-.23-.26-.98-.22-1.26.07-.14.15-.44.27-.66.27a1 1 0 0 0-.67.33 1 1 0 0 1-.66.33c-.57 0-1.33.34-1.33.6 0 .12.12.21.26.21.34 0 .58.36.44.64q-.12.24-.55.12a1.1 1.1 0 0 0-.83.14c-.7.43-1 .32-1.64-.58-.32-.45-.55-.92-.51-1.04.13-.41 1.24-.54 2.84-.33.6.08.8.05.95-.16a.7.7 0 0 1 .5-.26c.2 0 .5-.1.71-.21.2-.12.86-.35 1.44-.5 1-.27 2.19-.9 2.37-1.25.15-.3-.21-.79-.66-.9-.24-.05-.72-.2-1.06-.33a34 34 0 0 0-10.49-1.98c-2.78-.1-4.3.08-5.78.7q-2.75 1.14-.59 1.75c2.3.65 5.3 1.65 5.74 1.9.11.07.2.23.2.35 0 .2-.5.22-3.05.17-3.55-.07-3.57-.06-2.22 1.28a20 20 0 0 0 4.04 3.05c.76.44 1.5.9 1.65 1 .36.25 2.94 1.39 3.98 1.75 1.08.38 2 .73 2.33.9a4 4 0 0 0 .83.23c.3.06 1.26.31 2.12.57a172 172 0 0 0 8.1 2.21c1.04.24 2.22.56 3.91 1.05.3.09 1.17.28 1.93.43.75.14 1.65.36 1.99.48s1.23.34 1.99.5c.75.14 1.72.36 2.16.5a6 6 0 0 0 1.3.23c.3 0 .59.06.66.15s1.24.38 2.6.67l3.57.75c1.16.24 2.94.6 4.53.88.53.1 1.18.25 1.44.34.27.08 1.03.22 1.69.3.66.09 1.26.2 1.34.26.07.05.77.17 1.54.26 6.77.76 6.15.75 6.53.15m-2.06-.46c-.6-.28-.7-.7-.17-.7.4 0 1 .6.81.8-.07.08-.36.03-.64-.1m-2.7-.93c-.22-.3-.08-.58.31-.58.34 0 .64.28.64.6 0 .3-.75.28-.96-.02m-2.35-.83c-.13-.19-.14-.3-.02-.44.22-.25.9.04.96.41s-.69.4-.94.03m-2.13-.56a1.4 1.4 0 0 1-.45-.38c-.29-.4.2-.64.7-.33.61.37.39 1.02-.25.71m-2.53-.8c-.2-.06-.37-.24-.4-.4-.03-.21.07-.27.44-.27.55 0 .96.42.63.66-.22.17-.2.17-.67 0m-2.45-.92c-.53-.28-.52-.63.03-.7.44-.06.77.21.77.64 0 .36-.18.38-.8.06m-2.68-.68c-.34-.4.13-.78.67-.54.51.23.44.65-.12.65-.25 0-.5-.05-.55-.1m-2.33-.98c-.25-.3-.07-.56.35-.51.6.07.73.62.14.62-.22 0-.44-.05-.5-.1m-2.35-.6c-.34-.29-.19-.76.25-.76.39 0 .7.39.59.74-.1.3-.5.31-.84.02m-2.38-.86c-.09-.05-.17-.2-.17-.33 0-.35.74-.22.8.15.05.28-.24.36-.63.18m-2.47-.75c-.43-.5.07-.95.6-.53q.57.43.11.63-.46.23-.71-.1m-2.47-.97q-.4-.47.22-.46c.37 0 .7.25.7.52 0 .2-.74.15-.92-.06m-2.5-.7c-.2-.3-.07-.58.27-.58q.67.02.69.5c0 .4-.7.44-.96.08m-2.45-.8c-.13-.17-.12-.27.06-.44.18-.18.28-.18.57.02.2.13.36.3.37.4.01.26-.82.28-1 .03m-2.17-.6q-.62-.29-.25-.65c.28-.28.93.05.86.44q-.06.5-.61.22m-2.35-.82c-.32-.15-.41-.55-.16-.73.19-.14.85.38.78.62q-.1.38-.62.11m-2.6-.75c-.1-.04-.18-.23-.18-.4 0-.27.08-.32.45-.28.34.04.44.13.44.38 0 .33-.36.48-.72.3m-12.14-3.93c-.45-.08-.73-.44-.61-.8.07-.2.2-.23.6-.15.28.06.6.21.7.34.22.25.11.74-.15.7-.1 0-.34-.05-.54-.09m-19-1.77c.33-.15 1.06-1.53.94-1.76a6 6 0 0 0-.66-.8c-.4-.42-.61-.55-.76-.44-.1.08-1.52.16-3.15.17s-3.32.07-3.77.13l-.83.1.04 1.13c.01.62.06 1.16.1 1.21s1.76.14 3.81.2c2.06.05 3.81.11 3.9.13.09.01.26-.02.38-.07m46.65-3.12c-.05-.15-.03-.3.05-.33s.26-.16.4-.29c.21-.18.23-.26.1-.43-.1-.11-.18-.41-.18-.66q0-.46-.22-.46t-.14-.26c.05-.14.09-.29.09-.33 0-.03.18-.06.4-.06.34 0 .43.08.5.45.03.24.16.65.27.9.28.65.25.86-.18 1.33s-.96.55-1.09.14m-3.19-.77q-.16-.23-.03-.53c.28-.6.6-1.96.67-2.75.08-.93.18-1.05.9-1.06.78 0 1.47.4 1.49.85.03.66-.03.85-.39 1.3l-.35.44.26.84c.22.72.22.85.05.98a1 1 0 0 1-.28.16c-.23 0-.57-.48-.73-1.03-.23-.8-.43-.77-.43.06 0 .4-.09.72-.21.81-.3.23-.76.2-.95-.07m2.1-2.92c.11-.2.1-.32-.02-.47-.23-.27-.65.21-.53.6.1.32.35.26.56-.13m-48.6 1.27a1 1 0 0 1-.31-.58c0-.44.82-.44 1.16 0 .5.67-.19 1.13-.86.58m23.51 0a1 1 0 0 0-.62-.25c-.2 0-.47-.1-.62-.24-.14-.13-.35-.24-.46-.24-.1 0-.38-.1-.62-.22-.78-.4-1.93-.78-2.72-.9-.87-.14-1.49-.54-1.49-.97q0-.69.86-.68c.29 0 .7-.1.9-.23s.63-.27.95-.32.68-.17.82-.25c.14-.09.68-.32 1.2-.5.54-.2 1.3-.54 1.7-.76.87-.48.9-.48 1.14-.04.2.34.21.34.67.06.26-.16.8-.57 1.19-.91 1.12-1 1.96-3.07 1.96-4.85 0-.56.1-.81.5-1.34.84-1.11 1.98-1.03 2.58.18.34.7.32 2.68-.04 3.94-1.12 3.83-3.42 6.42-6.57 7.4-.1.03-.17.26-.17.52 0 .8-.59 1.11-1.16.6m.43-1.55c.13-.4.23-.49.6-.49.23 0 .6-.1.8-.22l.9-.53c.81-.45 2.01-1.43 2.42-1.96.68-.89 1.64-2.67 1.64-3.06 0-.21.09-.6.2-.86s.2-.74.2-1.08.07-.74.15-.9c.11-.2.1-.44-.07-.9-.2-.57-.25-.6-.83-.6h-.61v.85c0 .47-.1 1.07-.21 1.33-.11.25-.2.6-.2.79 0 .17-.13.5-.28.73s-.28.55-.28.7c0 .54-2.4 3.1-2.92 3.1-.09.01-.28.12-.43.25-.34.31-.82.3-1.04 0-.1-.14-.28-.25-.41-.25s-.32.11-.41.25c-.1.13-.3.24-.46.24-.15 0-.53.15-.84.32s-.92.43-1.37.57-.87.32-.94.4c-.11.13.73.56 1.69.83.72.21 1.5.58 1.68.8.08.1.32.18.51.18.27 0 .4-.12.51-.49m9.79.53c0-.26.09-.83.2-1.28.11-.44.2-1.04.2-1.34.01-.74.4-2.31.59-2.31s.04 1.4-.24 2.35c-.11.36-.2 1-.22 1.4-.01.93-.15 1.5-.36 1.6q-.17.05-.17-.42m-36.43.08a.5.5 0 0 1-.14-.5c.08-.24.19-.27.66-.18.62.12 1 .43.85.71-.13.25-1.07.23-1.37-.03m-2.19-.7c-.5-.33-.44-.79.13-.85.52-.06 1.1.44.97.84-.1.33-.58.33-1.1 0m-2.39-.72c-.32-.16-.42-.72-.16-.9.08-.07.29-.04.45.05s.4.2.54.26c.37.14.23.66-.18.7-.19.02-.48-.03-.65-.11m-2.33-.76c-.75-.37-.53-1.15.26-.92.66.2.88.72.42 1q-.24.14-.68-.08m54.05-.95c-.14-.2-.08-.38.28-.98s.42-.78.27-.95q-.2-.24-.24 0c-.1.32-.45.25-.45-.1 0-.6.74-1.04 1.19-.7.3.22.36.99.13 1.41-.29.52-.28.58.05.58.34 0 .35.35.02.7-.3.34-1.03.36-1.25.04m-3.07-.69c-.14-.16-.11-.78.05-.97.17-.2.43-1.7.45-2.55.01-.73.25-.86 1.34-.74 1.2.14 1.6 1.04.81 1.87-.44.47-.53 1.04-.2 1.36.23.23.27.9.06 1.07-.34.25-.76-.09-.96-.78-.24-.85-.46-.9-.52-.13-.03.32-.11.67-.19.78-.15.22-.69.28-.84.1m2.02-3.02c.08-.15.1-.33.04-.4-.15-.18-.56.16-.62.5-.06.37.37.29.58-.1m-22.1-.64c-.04-.1-.02-.33.05-.53.32-.82.58-1.71.73-2.55l.2-1.1c.07-.28.68-.26.87.01.09.12.2.67.24 1.22.05.55.15.96.21.91.07-.05.29-.4.48-.77.57-1.09 1.02-1.58 1.45-1.58.44 0 .49.26.2.95-.1.24-.3.97-.43 1.63-.19.92-.2 1.23-.08 1.42q.4.57-.7.57c-.8 0-1.04-.35-.53-.8q.28-.28.25-.6c-.04-.25-.14-.16-.52.46-.59.98-.9 1.01-1.02.13-.04-.36-.15-.66-.22-.66-.22 0-.33.5-.18.8.08.15.11.36.08.47-.07.25-.94.27-1.07.02m15.41-1.08c-.06-.12-.14-2-.1-2.45.02-.3.65-.25.75.05.05.15.08.65.08 1.13s-.03.99-.08 1.13c-.08.26-.54.36-.65.14m-22-.52a3 3 0 0 1-.65-.69c-.29-.48-.29-1.74 0-2.54 1.2-3.37 2.37-4.95 4.58-6.2a5.7 5.7 0 0 1 3.07-1.01c.98-.08 1.25-.16 1.34-.39l.23-.56c.06-.15.17-.3.25-.33a6 6 0 0 1 1.56 1.1c.23.28 1.26 1.15 1.77 1.49.63.4.7.45 1.62 1.16.32.25.62.45.67.45.24 0 .88.72.88 1q.01.75-1.85.55c-1.33-.13-1.29-.13-3.84.06l-2.06.14-.3-.42-.3-.43-.73.32a6 6 0 0 0-3.64 3.92c-.17.45-.31.96-.32 1.14-.01.47-.45 1.03-1.01 1.31-.63.31-.75.3-1.27-.07m1.16-1.07c.23-.31.46-.85.52-1.18.36-2.4 3.13-5.01 5.55-5.23.7-.06.8-.03 1 .34s.28.4.66.27c.24-.09 1.29-.17 2.33-.18a9 9 0 0 0 1.9-.14c0-.15-1.08-.98-1.29-.98-.09 0-.34-.22-.56-.5-.21-.26-.47-.48-.56-.48s-.26-.1-.36-.2l-.63-.69-.43-.47-.34.43c-.31.4-.43.44-1.41.44q-1.07 0-1.34.25a1 1 0 0 1-.64.24c-.33 0-.77.2-1.5.68l-.47.29a7 7 0 0 0-2.13 2.37c-.38.62-.69 1.2-.69 1.3a6.9 6.9 0 0 0-.85 2.83c0 .33.52 1.17.73 1.17.05 0 .28-.25.51-.56m17.33.83c-.12-.17-.11-.38.03-.86.42-1.34.63-2.44.55-2.87-.08-.5-.08-.51 1.26-.45.94.04 1.3.31 1.3.98 0 .43-.46 1.19-.8 1.33-.14.05-.1.26.13.82.35.86.28 1.33-.18 1.25-.27-.05-.43-.3-.78-1.25-.15-.41-.35-.27-.43.3-.04.32-.12.67-.18.78-.14.27-.7.25-.9-.03m2.12-2.87c.1-.39-.01-.66-.28-.66-.21 0-.4.57-.27.82.14.27.45.18.55-.16" style="fill:#000"/></svg>