<svg xmlns="http://www.w3.org/2000/svg" xml:space="preserve" width="120mm" height="62mm" viewBox="0 0 120 62"><path d="m132.84 44.51 61.9 27.13" style="opacity:1;fill:#000;fill-opacity:.920746"/><path d="M64.35 55.3c-.69-.28-.92-.7-.65-1.16.1-.15.12-.45.07-.66q-.07-.4.1-.5.2-.1-.32-.32l-.5-.21-.05-1.17c-.05-1.32.12-1.54.84-1.07.68.44.89.46 1.32.1.5-.4.8-.37 1.07.12.3.55.82.44.92-.18.07-.38.14-.47.44-.47q.82.01.46 1c-.16.45-.17.64-.01 1.02.22.55.01.89-.5.82-.23-.03-.32-.15-.36-.47-.04-.38-.1-.43-.47-.43-.36 0-.45.07-.64.61l-.23.62.74-.08c.66-.07.8-.04 1.11.25.4.35.46.72.19.97-.14.12-.12.21.07.4.3.3.32.63.06.79-.1.05-.65.1-1.23.11-.57.01-1.21.05-1.42.1-.23.05-.61-.02-1-.18m.71-3.58c0-.08-.23-.14-.52-.14s-.52.06-.52.14c0 .07.23.13.52.13s.52-.06.52-.13m13.52 3.16q-.2-.12-.21-.68c0-.76-.15-.85-.6-.35-.28.3-.55.44-1 .49-.77.1-1.21-.12-1.49-.71a1.25 1.25 0 0 1 .5-1.6q.6-.36-.25-.47c-.52-.06-.58-.47-.1-.64q.38-.12.42-.5c.05-.35.09-.37.8-.37.7 0 .74.02.82.4.06.32.15.4.45.4.32 0 .38-.07.42-.49q.07-.94.88-.68.41.14.76 0c.2-.09.4-.1.48-.02.16.15.25 5 .1 5.23-.13.17-1.62.16-1.98-.01m-1.46-1.63c.1-.26-.2-.6-.56-.6s-.63.44-.4.65c.25.22.85.19.96-.05m1.07-1.57c.05-.22-.02-.23-.52-.15-.68.1-.71.12-.58.32.17.24 1.04.1 1.1-.17m-9.37 2.79c-.14-.15-.15-.27-.03-.47.15-.25.33-.28 1.91-.31l1.75-.04.15-.36c.08-.2.09-.41.03-.47a9 9 0 0 0-1.71-.17c-1.4-.06-1.6-.1-1.65-.32-.08-.39.24-.48 1.72-.48 1.56 0 1.84-.06 1.84-.4s-.28-.4-1.96-.4c-1.24 0-1.5-.04-1.58-.22-.19-.44.36-.58 2.37-.58 2.4 0 2.45.04 2.32 1.4a21 21 0 0 1-.19 1.4c-.07.41-.04.5.3.66.46.22.62.56.35.74-.12.07-1.36.15-2.82.18-2.2.04-2.64.01-2.8-.16m12.64-.18c-.06-.04-.1-.2-.1-.33 0-.23.17-.24 2.6-.24 2.63 0 3 .06 2.62.47-.14.15-.66.2-2.6.2-1.33 0-2.47-.05-2.52-.1m.43-1.58c-.17-.16-.24-.48-.24-1.25 0-1.45.05-1.48 2.44-1.48 1.69 0 1.9.03 2.04.25q.16.26-.04.48c-.15.18-.51.25-1.71.3-1.75.09-1.97.2-1.68.84.2.44.22.45 1.8.4.77-.01 1.2.04 1.4.17.57.38.14.5-1.85.5-1.55 0-1.97-.04-2.16-.21m-3.52-5.78c0-.07.06-.17.15-.21q.13-.06.14.05c0 .07-.06.17-.14.21q-.14.07-.15-.05m.08-.88c-.16-.1-.54-.2-.84-.2s-.81-.08-1.13-.18a4 4 0 0 0-1.34-.12c-.77.06-2.94-.09-6.12-.43-.98-.1-2.2-.2-2.69-.2-.5 0-1.43-.09-2.1-.2-.65-.1-2.4-.22-3.88-.26s-3.1-.15-3.58-.22c-.5-.07-1.92-.19-3.17-.25-1.24-.07-2.66-.21-3.14-.32a28 28 0 0 0-3.41-.28 72 72 0 0 1-3.74-.22c-.66-.07-1.67-.15-2.24-.19a78 78 0 0 1-5.37-.4c-.9-.1-2.02-.2-2.5-.2-.47 0-1.05-.06-1.28-.14s-1.2-.16-2.14-.18q-2.84-.07-3.05-.56c-.08-.19 0-.2.7-.13 1.39.16 3.72.33 5.72.42 1.07.05 2.14.14 2.39.2.24.07 1.46.18 2.69.26a38 38 0 0 1 3.12.29c.87.15.89.15 1.17-.2.4-.5 1.04-.48 1.45.03l.3.38 2.21.09c1.22.05 2.89.18 3.7.28.83.1 2.34.22 3.37.27 1.03.04 2.16.13 2.51.19.88.15 1.2.05 1.26-.37.03-.28.12-.36.42-.36.32 0 .37.06.37.43 0 .52-.01.52 3.51.7 2.95.17 6.73.45 9.78.74 1.22.12 2.5.2 2.84.17.6-.04.61-.05.61-.5s.03-.47.52-.47.53.03.62.5c.05.28.12.53.17.57.04.04.53.14 1.08.21 1.47.2 1.54.02.28-.8-.99-.65-2.34-1.9-3.26-3-.61-.74-2.17-3.28-2.17-3.54 0-.11-.13-.4-.3-.63a3 3 0 0 1-.38-.93 3 3 0 0 0-.47-1.02c-.32-.44-.42-.5-.91-.48-1.14.04-8.55-.16-10.35-.28-1.03-.07-4.05-.16-6.73-.2a866 866 0 0 1-15.38-.36c-.32-.03-.39.03-.5.5s-.09.55.26.77c.21.14.38.38.38.55s.15.4.37.53c.2.12.37.34.37.49s.22.45.49.66c.4.33.45.44.32.63q-.17.22-.67.23c-.48 0-.5-.03-.48-.4.03-.35-.04-.44-.4-.56s-.45-.23-.45-.56q0-.4-.3-.55t-.3-.51c0-.21-.13-.48-.28-.6a1.4 1.4 0 0 1-.39-.7q-.08-.46-.42-.51c-.36-.07-10.5-.26-11.64-.22-.39.01-1.29-.05-2-.13-1.25-.15-1.3-.15-1.65.15-.43.36-.45.53-.13 1.08l.24.4.29-.4c.44-.66 1.03-.51 1.03.25 0 .35-.51.58-.9.4-.39-.2-.39-.02 0 .67.31.53.6.69.6.32 0-.1.14-.32.3-.47.42-.36.9-.15.9.4 0 .31-.08.42-.37.48-.2.05-.43.05-.52 0-.32-.18-.32.3 0 .78.38.57.6.56.77-.02q.22-.74.85-.35c.43.27.4.53-.15.98-.35.28-.44.44-.36.65.14.42 0 .36-.84-.34a6 6 0 0 1-1.7-2.06c-.06-.17-.2-.4-.3-.52-.21-.2-.46-.96-.66-2-.18-.94-.1-5.82.11-6.8.27-1.2.77-2.53 1.1-2.9.15-.18.27-.46.27-.62 0-.17.17-.5.37-.75s.5-.66.66-.92a20 20 0 0 1 3.47-3.37c.5-.42 1.2-.9 1.53-1.05.35-.15.73-.36.86-.46.35-.27 5.35-.7 8.51-.72 2.1-.02 2.58-.17 2.75-.87.4-1.68.53-1.93 1.08-2.16.61-.26.73-.18.89.66.08.46.03.57-.45 1.04-.29.3-.53.66-.53.81 0 .26.06.28.56.2.3-.04 1.43-.1 2.5-.16 1.07-.04 2-.11 2.08-.15.19-.1 2.66-.05 4.7.1 2.15.15 3.2.46 4.96 1.44.84.46 1.45.39 2.46-.31.48-.33 1.54-.9 2.36-1.27l1.48-.66h2.15c1.17 0 2.48.07 2.9.15 1.11.23 1.43.06 1.55-.82.1-.78.37-1.22.93-1.55q.7-.4.9.3c.14.45-.37 1.42-.9 1.73-.2.12-.38.3-.38.4s.6.45 1.32.78a13 13 0 0 1 1.8.94c.8.6 1.8 1.02 2.1.87.33-.16.96-.61 1.49-1.08.98-.87 3.3-1.96 5.14-2.42a20 20 0 0 1 5.44-.26c.97.17 2.15.43 2.52.57l.86.3c.58.22 1.85.92 2.87 1.62.85.58 1.62 1.28 3.44 3.17.13.13.44.23.73.23.41 0 .57.09.9.5.21.29.4.58.4.65s.13.25.29.38c.16.14.3.31.3.39s.2.48.43.88c.5.84 1.21 2.7 1.21 3.17 0 .16.14.78.31 1.37.27.93.3 1.35.25 3.25-.05 1.73-.12 2.24-.31 2.49q-.25.31-.25 1.08 0 .78-.3 1.27c-.16.27-.3.62-.3.76s-.13.42-.3.6c-.15.19-.29.41-.29.5a16 16 0 0 1-3.97 4.84l-1.5 1.08c-1.3.95-4.36 2.3-5.9 2.6-.79.16-2 .23-4.18.26-1.68.02-3.27.07-3.51.12a1 1 0 0 1-.74-.13m8.21-.86c1.23-.27 2.84-.84 3-1.08.05-.07.19-.12.32-.12.32 0 1.42-.62 2.31-1.3.41-.32 1-.72 1.3-.9 1.1-.61 2.84-2.68 3.93-4.67l.4-.67c.65-1.04.94-2.05 1.28-4.5.34-2.34-.05-5.77-.78-6.99-.1-.16-.17-.43-.17-.61s-.13-.47-.29-.65c-.15-.17-.3-.46-.33-.64-.08-.45-.4-.5-.52-.07-.06.23 0 .53.15.82.13.25.24.6.24.77s.15.69.32 1.16c.28.73.33 1.2.37 3.47.04 1.99 0 2.8-.17 3.37-.12.42-.22.9-.22 1.08 0 .55-.89 2.57-1.75 4l-.51.85a16 16 0 0 1-2.31 2.59c-.86.8-2.81 2.22-3.05 2.22a6.59 6.59 0 0 1-2.94 1.08c-.42.06-1 .2-1.3.32-.4.14-1.1.2-2.64.2-1.27 0-2.1.05-2.1.13 0 .43 3.66.52 5.46.14m-.15-1.16a8 8 0 0 0 1.72-.45c.2-.13.53-.27.72-.32.96-.27 4-2.43 4.34-3.07.1-.19.24-.34.32-.34.16 0 1.2-1.33 1.97-2.51.54-.83.48-.69 1.36-3.09.5-1.32.61-2.01.68-3.93.07-2.25-.15-4.3-.58-5.38a4 4 0 0 1-.29-.9c0-.17-1.26-2.55-1.8-3.38a23 23 0 0 0-2.68-2.9 15 15 0 0 0-5.5-2.7c-2.61-.54-3.08-.59-4.54-.44-1.96.2-3.46.72-6.12 2.13-1.1.58-3.72 2.98-4.28 3.92-.25.4-.62.98-.83 1.26s-.43.74-.48 1c-.06.25-.24.65-.4.87a2 2 0 0 0-.27.68c0 .15-.14.62-.31 1.05-.25.64-.33 1.24-.4 3.12-.08 2.56.08 4.12.5 4.9l.28.5 1.2.02c1.67.03 1.6 0 1.54.4-.04.29-.16.4-.54.48q-.84.19-.18.88c.28.3.3.3.68.07.4-.23.41-.23.68.07.4.45.35.65-.24.87-.29.11-.52.23-.52.26 0 .2.77 1.55.88 1.55.08 0 .18-.12.24-.26.2-.6 1.34-.42 1.24.18-.04.21-.17.3-.54.33-.27.02-.53.12-.58.22-.1.25.88 1.68 1.84 2.67.6.6 1.06.92 1.95 1.32 1.86.83 2.11.91 2.36.83.38-.13.26-.45-.22-.6-.49-.15-.56-.3-.24-.54q.2-.15.6-.02c.33.11.47.06 1.08-.4 1.13-.88 1.54-.51.97.9-.22.54-.26.8-.15.92.22.24 2.76.14 4.54-.17M84 43.92q-.45-.4 0-.8c.3-.27.4-.26.81.14.28.26.32.39.2.56-.22.31-.71.36-1.01.1m2.32-.58c-.1-.07-.17-.28-.15-.5.04-.31.13-.39.43-.39s.38.08.42.39c.04.33-.15.6-.42.6a1 1 0 0 1-.28-.1m-9.22-.96c-.22-.22-.24-.32-.1-.6.2-.39.63-.43.98-.08.33.32.31.5-.09.74-.42.27-.46.27-.79-.06m11.98-.04c-.52-.33-.03-1.18.56-.98.33.11.34.97.01 1.08-.3.1-.26.1-.57-.1m-9-1.19c-.08-.09-.36-.8-.63-1.56-.27-.77-.65-1.85-.86-2.4s-.37-1.11-.37-1.25-.07-.37-.17-.53c-.17-.26-.4-.9-.92-2.62a5 5 0 0 0-.34-.87c-.1-.15-.21-.56-.26-.92a3 3 0 0 0-.3-.94 3 3 0 0 1-.31-.8c-.06-.3-.2-.7-.32-.9a2 2 0 0 1-.21-.84c0-.29-.13-.63-.3-.83a1.2 1.2 0 0 1-.3-.63c0-.3.7-1 1-1 .1 0 .36-.15.6-.32s.82-.51 1.31-.75 1.4-.72 2.02-1.07a80 80 0 0 1 3.6-1.88c.26-.13.57-.31.7-.42.15-.1.38-.23.53-.28.15-.04.63-.3 1.06-.55 1-.59 1.7-.74 1.81-.38.05.13.22.47.38.74s.3.63.3.8.13.56.29.87a5 5 0 0 1 .39 1.07c.05.27.18.62.28.77.1.14.23.56.3.92.05.36.2.78.3.93s.25.55.3.88c.06.33.17.66.23.74.07.07.2.37.28.66.29 1 .91 2.93 1.15 3.53.34.87.53 1.76.44 2.08a6 6 0 0 1-1.38 1.16l-6.48 4.4c-3.45 2.4-3.8 2.6-4.13 2.2m3.07-2.6A150.47 150.47 0 0 0 90 33.91c1.02-.7 1.31-1.11.93-1.32-.08-.05-.15-.4-.15-.8 0-.5-.07-.76-.24-.89-.2-.15-1.38-.17-6.54-.14-3.8.02-6.34.08-6.43.16q-.14.14.1.6c.14.26.26.6.26.74s.13.49.3.76.3.69.3.92.09.48.2.57.25.5.3.93c.06.44.2.86.3.94.11.08.25.4.3.7.06.3.2.67.32.82s.22.5.22.75c0 .29.15.67.38.97l.38.5.84-.57a23 23 0 0 0 1.38-1m6.95-9.04c.05-.12-.05-.41-.21-.65-.17-.24-.3-.58-.3-.75s-.14-.58-.3-.9c-.17-.32-.3-.7-.3-.85a2 2 0 0 0-.2-.68 68 68 0 0 1-1.74-4.84c0-.07-.1-.24-.2-.37-.18-.22-.22-.22-.78.06-.33.17-.7.38-.82.47-.12.1-.56.32-.97.52-.41.19-1.22.61-1.8.94-.57.33-1.24.69-1.49.8-.48.2-.65.3-1.75.96-.39.24-.8.44-.9.44-.45 0-.55.3-.46 1.32.04.55.18 1.34.29 1.74s.2.97.2 1.27.05.6.1.64 2.68.1 5.82.1c5.12 0 5.72-.03 5.8-.22m-12.97-2.08a16 16 0 0 0-.16-1.94c-.1-.1-.97.4-1.05.6-.04.1.09.64.29 1.2.2.57.37 1.1.37 1.19 0 .31.3.84.47.84.13 0 .15-.48.08-1.89m-1.69 13.43a.6.6 0 0 1 .28-.8c.2-.1.33-.08.58.14.26.24.28.34.14.57-.2.33-.87.39-1 .09m15.4-.13c-.22-.52.32-1.06.8-.8.57.32.32.99-.36.99-.2 0-.4-.09-.44-.2m1.6-1.2c-.31-.34-.14-.8.31-.85.49-.05.75.3.56.74-.14.34-.6.4-.88.1m1.1-1.46a1 1 0 0 1-.04-.5c.04-.25.14-.32.48-.32.53 0 .84.36.6.7-.21.3-.93.39-1.04.12m.84-1.74c-.34-.36-.13-.68.44-.68.38 0 .53.07.57.24.07.3-.23.63-.57.63a.7.7 0 0 1-.44-.2m.77-2.3c.09-.67 1-.76 1.14-.11.07.3-.22.46-.77.46-.37 0-.42-.04-.37-.35m-24.38-1.27c-.18-.41.06-.8.46-.75.44.06.69.45.48.74-.26.37-.79.38-.94.01m24.9-.25c-.51-.27-.2-.92.44-.92.48 0 .7.41.41.78-.24.31-.44.35-.84.14m-25.2-1.98c-.13-.19-.1-.32.1-.55.47-.5 1.22-.08 1 .56-.12.34-.9.34-1.1 0m25.4-.2a.7.7 0 0 1-.13-.5c.04-.24.15-.3.5-.3.41 0 .45.03.45.46 0 .37-.07.47-.31.5a.7.7 0 0 1-.5-.16m-24.93-1.76c-.34-.12-.53-.58-.33-.79.41-.44 1.28-.06 1.07.47q-.2.51-.74.32m24.87-.49c-.57-.36.03-1.27.62-.94.35.2.4.63.1.9-.29.26-.38.27-.72.04m-24.58-2.25c-.4-.36-.09-.9.53-.9q.61.01.43.73c-.1.36-.64.46-.96.17m24.01-.17c-.2-.4.04-.74.56-.74.5 0 .71.41.42.78-.3.39-.77.37-.98-.04m-.72-1.86q-.25-.64.3-.78c.44-.1.78.2.72.64-.04.32-.13.4-.46.44-.32.03-.44-.03-.56-.3m-21.92-.4a1 1 0 0 1-.03-.5c.04-.25.16-.32.6-.35.67-.05.83.22.4.7-.33.37-.84.45-.97.15M93.1 21.5c-.28-.24-.28-.26-.08-.6.18-.29.6-.33.86-.1.27.25.22.62-.1.77-.38.18-.4.18-.68-.07m-18.74-.21c-.27-.24-.22-.9.06-1 .55-.2 1.04.54.65.96q-.34.36-.71.04m17.47-1.5a.7.7 0 0 1-.13-.5c.03-.25.14-.31.5-.31.4 0 .44.04.44.47 0 .37-.06.47-.31.5a.7.7 0 0 1-.5-.16m-15.75-.3c-.21-.18-.1-.7.18-.84.42-.2 1.05.28.82.62-.17.25-.81.4-1 .23m13.6-1.07c-.18-.16-.1-.8.11-.97.52-.38 1.14.47.65.9-.2.18-.6.22-.76.07m-10.7-.42c-.1-.07-.17-.28-.14-.5.06-.47.66-.62.98-.24.25.3.24.39-.04.64-.27.24-.5.26-.8.1m8.23-.77c-.43-.27-.41-.69.04-.87.52-.21.83-.06.83.41 0 .52-.42.75-.87.46m-6-.38c-.32-.34.04-.9.54-.85.51.06.79.43.56.75-.21.3-.85.36-1.1.1m3.04-.54c-.12-.28.34-.86.7-.86.4 0 .65.45.44.8-.2.32-1 .37-1.14.06M68.9 33.92c.05-.12.01-.35-.08-.5a8 8 0 0 1-.47-2.3c0-.24-.08-.5-.19-.57-.1-.08-1.56-.18-3.32-.23-3.06-.1-3.15-.1-3.42.18-.16.15-.34.57-.41.92-.08.35-.26.78-.41.97s-.32.49-.37.68c-.18.65.07.7 3.98.81 1.97.06 3.63.14 3.67.17.17.16.93.06 1.02-.14m-15.36-.32c.18-.1.18-.24.01-.9-.46-1.81-.42-4.25.08-5.12.12-.21.22-.6.22-.88 0-.7.56-2.12 1.15-2.92.27-.38.5-.76.5-.85 0-.1.18-.37.4-.6.23-.25.75-.8 1.15-1.26a9 9 0 0 1 1.72-1.4 10 10 0 0 0 1.27-.87c.16-.15.35-.28.43-.28s.43-.1.76-.25c1.5-.6 3.44-.82 4.95-.54a8.7 8.7 0 0 1 4.08 2.16c.55.57.96.48 1.59-.33.3-.39.54-.78.54-.87 0-.25-1.86-1.63-2.19-1.63-.04 0-.56-.2-1.15-.45-2.05-.86-6.3-1.3-7.9-.81-.58.17-1.86.72-3.74 1.61-.49.23-2.36 1.94-3.4 3.09-.4.46-.89 1.18-1.06 1.6a6 6 0 0 1-.44.89c-.39.43-1.1 2.27-1.45 3.73a36 36 0 0 0-.27 6.3c.05.19.28.4.56.5a4 4 0 0 0 2.19.08m3.39 0c.42-.04.96-.68.96-1.13q0-.44.22-.53c.3-.1.31-1.32.01-1.55-.24-.17-3.65-.25-3.94-.08-.27.15-.21 1.14.12 1.98.16.42.3.84.3.94 0 .34 1.04.5 2.33.37m2.14 0c.15-.08.31-.33.37-.57s.19-.52.3-.63c.25-.25.63-1.57.84-2.95.19-1.2.04-3.78-.25-4.29-.11-.2-.2-.48-.2-.64 0-.28-.43-1.26-.82-1.86l-.5-.81c-.55-.88-.7-.9-1.38-.26-.64.62-.7.9-.38 1.45.57.92.96 1.88 1.06 2.55.06.4.18.88.26 1.07.15.33.27 1.01.58 3.28.16 1.18.15 1.27-.24 2.3-.5 1.35-.4 1.72.36 1.35m-9.3-.18c.08-.1.16-.76.17-1.5.02-1.89.2-1.8-3.33-1.8-1.58.01-2.98-.02-3.1-.07-.43-.14-1.21.33-2.48 1.5-.86.78-1.23 1.22-1.23 1.45 0 .17.08.33.19.34.53.05 5.84.2 7.6.22 1.48.02 2.08-.02 2.18-.14m-11.66-.26c.33-.27.34-.38.35-2.1 0-2.99.2-4.76.65-5.66.22-.43.4-.85.4-.93 0-.2.74-1.52 1.11-2 .76-.96 2.1-2.26 2.53-2.43.25-.1.74-.39 1.07-.63a7.6 7.6 0 0 1 4.1-1.08c1.93 0 3.1.19 4.33.69 1.27.51 1.68.5 2.02-.1.32-.55.29-.7-.22-1.04-1.62-1.07-4.13-1.6-6.87-1.44-2.46.15-4.06.6-5.79 1.68-.98.6-3.19 2.51-3.19 2.75 0 .1-.17.34-.37.56s-.37.45-.37.51c0 .07-.17.34-.37.6-.46.6-.98 1.8-.98 2.25 0 .18-.11.6-.24.93-.2.47-.24 1.12-.23 3 0 2.86.22 3.94.87 4.42.53.38.76.39 1.2.02m-2.42-.02c.26-.17.26-.24.08-.77-.14-.42-.2-1.43-.19-3.52 0-2.48-.03-2.96-.23-3.16s-.66-.23-5.25-.23c-5.96 0-5.84-.03-6.12 1.28-.5 2.28-.35 5.75.26 6.24.21.17.88.2 4.06.24l5.45.07c1.22.02 1.73-.02 1.94-.15m-12.56-3.1c0-2.33.06-3.03.25-3.48.35-.84.16-1-1.27-1.04-.9-.03-1.22.01-1.46.19-.54.38-.75 1.48-.84 4.3l-.08 2.62.47.22c.34.15.67.2 1.1.14.35-.05.8-.03 1 .04.79.27.82.16.83-3m17.24 1.53c.37-.37.82-.83.98-1.01.38-.44.56-1.5.38-2.28l-.3-1.35c-.18-.81-.8-2-1.05-2-.4 0-.73.29-.73.65 0 .2-.14.76-.31 1.22-.45 1.21-.65 4.86-.3 5.25.32.34.6.24 1.33-.48m27.74-2.02c.33-.22.52-1.06.53-2.35 0-.94.34-2.24.85-3.3.11-.23.2-.54.2-.69s.17-.45.38-.66c.41-.44.47-.72.19-.93-.13-.1-1.77-.1-5.03-.03-4.08.08-4.87.13-5.06.3-.25.23-.27.17.53 2.17.5 1.24.62 1.97.62 3.43 0 .85.07 1.7.15 1.89l.15.34h3.11c2.33 0 3.18-.04 3.38-.17m-24.36-.37c.44-.47.46-.72.18-1.73-.12-.4-.25-.97-.31-1.26a6 6 0 0 0-1.33-2.68q-1.23-1.28-1.52.25c-.09.4-.05.57.18.8.77.78 1.23 2.18 1.24 3.79 0 .44.09.63.41.9.53.44.68.43 1.15-.07m5.97.13q.67-.45.76-2.2c.03-.5.2-1.17.44-1.7.52-1.16.88-2.43.77-2.74-.14-.38-.4-.42-1.99-.28-.8.07-2.58.13-3.95.13s-2.6.04-2.73.08c-.33.12-.3.34.16.94.47.6 1.1 2.3 1.1 2.92 0 .23.1.68.23 1 .12.3.22.8.22 1.1 0 .95.2 1.03 2.55 1.03 1.84 0 2.08-.03 2.44-.28m8.38.07c.29-.26.3-.68.01-1.13a2 2 0 0 1-.22-.73c0-.55-.71-2.8-1.06-3.38a2 2 0 0 1-.29-.65c0-.2-.04-.2-.51-.01-.23.09-.44.33-.55.63-.1.26-.36.8-.6 1.18s-.43.87-.43 1.08-.13.65-.3.97q-.49.98-.16 1.76c.16.38.42.43 2.58.47 1 .01 1.35-.03 1.53-.2m-36.02-4.6c.37-.12.38-.14.16-.42q-.51-.68.15-.85c.4-.09.82.12.82.41 0 .1-.14.32-.3.5-.25.29-.27.35-.08.42.13.04 3 .04 6.38 0 5.86-.06 6.18-.08 6.58-.33q.84-.52-.11-.87c-.45-.16-.53-.25-.49-.56.05-.33.1-.36.76-.35.39 0 .7-.03.7-.08 0-.04-.16-.21-.36-.37-.83-.64-.14-1.47.73-.89.21.14.34.16.49.05q.45-.34-.18-.7c-.69-.4-.32-.88.48-.6.56.18.85-.1.38-.38-.18-.11-.33-.34-.33-.51 0-.4.5-.55.97-.27.2.11.46.21.59.21.33 0 .28-.37-.08-.54q-.32-.14-.26-.5c.04-.3.13-.37.55-.4.28-.03.58.02.67.1.2.17.8.18.92.01.04-.07-.19-.38-.52-.68-.55-.51-.64-.54-1.01-.41-.23.08-1.6.17-3.03.21-5.42.14-7.4.24-7.85.42-.25.1-.6.2-.8.26-.57.15-3.08 1.71-3.13 1.96-.04.19.04.21.48.15.46-.07.55-.04.7.27.14.27.14.39-.01.55-.37.4-1 .14-1.25-.5q-.1-.25-.32-.14c-.26.13-1.72 1.72-1.72 1.88 0 .06-.27.36-.6.68-.33.31-.6.63-.6.7 0 .08-.1.34-.24.6-.27.5-.18 1.11.16 1.11.12 0 .39-.06.6-.13m1.08-1.74c-.58-.3-.07-1.18.55-.97.27.09.46.52.32.72-.18.26-.6.38-.87.25m.92-1.38c-.24-.46-.07-.74.46-.74.6 0 .79.48.31.83-.44.32-.57.3-.77-.09m2.42-2.19c-.23-.38-.04-.68.44-.68.53 0 .87.34.65.64-.23.34-.9.36-1.09.04m1.84-1.16c-.13-.29.19-.56.42-.36.19.18.07.57-.17.57-.09 0-.2-.1-.25-.2m68.56 3.75q0-.33-.22-.34c-.24 0-.28.12-.14.46.14.32.36.25.36-.12m-46.93-.33c1.1-.07 2.2-.19 2.43-.26.45-.16.95-.93.8-1.26a3 3 0 0 0-.87-.67c-.71-.42-.97-.49-2.4-.62a8 8 0 0 0-2.76.08c-1.61.31-3.09 1-4.05 1.88-.78.71-.87.85-.68 1.02.12.1 4.56 0 7.53-.17m16.21-.74 3.55-.07c.47 0 .32-.6-.22-.92-2.07-1.2-2.61-1.48-2.9-1.48-.2 0-.62-.1-.95-.21-.49-.18-.72-.19-1.3-.07-.4.08-1.17.2-1.73.27-.73.1-1.14.22-1.47.47-.25.19-.54.35-.63.35-.31.02-1.52.87-1.57 1.11-.03.13.06.35.2.48.22.23.44.25 2 .2zm-23.86-3.81c.53-.17.62-.46.17-.59-.53-.15-1.14.34-.8.64.13.12.07.12.63-.05M73.77 43.9c-.28-.1-.24-.97.06-1.07.55-.2 1.04.54.64.96-.18.2-.37.23-.7.1m-1.14-1.18a1 1 0 0 1-.24-.61c0-.34.05-.4.43-.4.78 0 1.01.65.37 1.03-.28.17-.35.16-.56-.02m-16.84-.28c-.2-.45-.2-.44.23-.59.66-.22 1.12.16.81.68-.23.39-.86.33-1.04-.09m-14.34-.78c-.28-.3-.13-.8.24-.85.45-.06.92.55.65.84a.6.6 0 0 1-.89.01m13.36-.27c-.2-.27-.21-.38-.06-.54.23-.24.6-.25.95-.03.23.15.24.23.08.54-.23.45-.65.46-.97.03m16.69.14c-.4-.43.18-1.09.7-.8s.33.99-.26.99a.7.7 0 0 1-.44-.2m-45.6-.36q-.27-.14-.04-.2c.11-.05.39-.26.62-.48q.43-.4.67-.33c.38.13.28.55-.2.87-.5.32-.72.35-1.05.14m14.34-.66c-.25-.42-.04-.8.45-.8.58 0 .85.32.63.75-.21.41-.84.45-1.08.05m-15.6-.11q-.26-.26-.09-.35c.1-.05.23-.24.3-.42.12-.27.23-.32.64-.29.62.06.74.52.24 1q-.59.57-1.1.06m29.32.1c-.34-.17-.33-.74.02-.9.57-.28 1.2.48.74.9-.22.19-.41.19-.76 0m16.51-.27a.7.7 0 0 1-.18-.47c0-.16-.13-.36-.3-.44q-.3-.14-.3-.57c0-.34-.1-.48-.44-.66-.33-.17-.45-.32-.45-.6a.6.6 0 0 0-.3-.54c-.42-.23-.38-.67.07-.85.5-.2.88.07.77.56-.06.29 0 .39.3.51.34.14.37.21.3.61-.1.4-.06.46.24.5.26.03.36.15.41.5.06.36.16.48.41.52.45.05.7.47.49.82-.18.3-.74.35-1.02.1M23.3 39.6c-.05-.07.01-.3.13-.5s.26-.49.3-.62c.12-.37 1.04-.26 1.1.13.09.52-1.25 1.39-1.53.99m15.94-.04c-.45-.4.17-1.07.78-.86.5.16.19 1.02-.36 1.02a1 1 0 0 1-.42-.16m13.53-.32c-.06-.06-.1-.27-.1-.47 0-.23-.11-.43-.3-.51q-.28-.15-.33-.64c-.04-.4-.12-.5-.42-.57-.44-.09-.56-.48-.26-.85.3-.36.86-.08.86.44 0 .27.1.41.37.52.28.12.37.26.37.56s.1.44.39.54c.32.1.37.2.33.56-.04.35-.12.44-.42.47-.21.02-.43 0-.49-.05m-2.2-3.46c-.3-.3 0-.66.54-.66.38 0 .43.05.43.4 0 .33-.06.4-.38.44-.23.02-.48-.05-.6-.18m-9.72-23.25c0-.3.42-.7.62-.6.17.1.02.62-.22.76q-.41.25-.4-.16m3.27-1.24-.06-.3-.05-.3c-.01-.12-.54-.17-2.09-.17-2.16 0-2.53-.09-2.32-.58.1-.23.51-.35 1.09-.3.2 0 .42-.08.52-.22.14-.2.1-.3-.2-.5-1.08-.76-1.25-1.05-1.03-1.8.15-.51.64-.92 1.34-1.12.74-.2 1.58.1 2.04.73.5.7.43 1-.41 1.8-.41.38-.75.75-.75.81 0 .27.76.39 1.27.2l.52-.2.04-1.77.04-1.78.4-.04q.4-.04.54.2c.16.29.15 5.1-.02 5.34-.06.1-.28.17-.48.17s-.38-.08-.39-.17M42.24 8c.46-.33.5-.6.15-.95-.3-.3-.77-.32-1.21-.04-.43.27-.42.53.03.93s.53.4 1.03.05m7.95 3.17c-.04-.17-.09-.47-.11-.68l-.04-.39-1.53-.05c-.84-.02-1.7.01-1.9.08-.55.19-.77-.12-.47-.65.3-.52.3-1.98 0-2.34-.11-.14-.21-.4-.21-.56 0-.38.58-.5 2.16-.42 1.45.06 1.54.15 1.2 1.14-.14.42-.3 1.02-.33 1.33-.07.51-.04.57.32.65.78.17.83.06.83-1.6 0-.84.04-1.62.1-1.73.12-.3.76-.27.94.04.2.33.2 4.68.01 5.14s-.86.48-.97.04m-2.1-2.9c0-1 0-1-.4-1.04l-.42-.05.02.91c.03.96.18 1.28.57 1.22.19-.04.23-.24.23-1.04m18.39 1.96c-.94-.4-1.21-.84-.91-1.48.15-.33.39-.5.97-.73.42-.16.76-.34.76-.4 0-.11-.64-.68-.76-.68-.04 0-.34.2-.67.47q-.59.47-.96.43-1.09-.1.56-1.27c.18-.13.37-.4.42-.6.1-.33.05-.39-.37-.52q-.47-.15-.43-.36c.07-.3 2.62-.48 2.94-.21.32.26.1.59-.4.59-.27 0-.48.08-.54.22-.12.28.28.82.75 1 .36.15.42.25.37.67-.02.2.5.64.78.64.12 0 0-1.02-.14-1.23-.04-.05-.2-.1-.34-.1a.6.6 0 0 1-.58-.7c.04-.23.16-.31.53-.34.41-.04.5-.1.57-.5q.16-.72.68-.46c.3.17.36 2.88.07 3.27q-.2.28-.07.47c.07.1.13.45.13.76 0 .5-.05.6-.57.9-.85.5-1.85.56-2.8.16m2.41-.94c.18-.16-.3-.5-.87-.61-.87-.18-1.8.31-1.35.71.14.13 2.07.04 2.22-.1m3.67.97c-1.22-.43-1.59-1.18-.85-1.7.2-.15.38-.31.38-.38 0-.06-.27-.25-.6-.42-.5-.25-.6-.37-.6-.7 0-.23.07-.52.15-.66.12-.2.1-.28-.15-.4-.46-.22-.37-.61.17-.78.26-.09.57-.27.69-.42.26-.34.96-.35 1.3-.01.3.3 1.67.73 1.97.62.11-.03.2-.15.2-.25s.11-.27.24-.37c.37-.27.49.04.45 1.2A5 5 0 0 0 76 7.3c.08.2.06.48-.05.75-.14.34-.13.53.01.84.25.53.04.87-.73 1.22a4.7 4.7 0 0 1-2.67.13m2.15-.87c.21-.13.33-.27.26-.33a9 9 0 0 0-2.17-.14c-.43.02-.3.35.22.59q.84.37 1.7-.12M75.3 8c.16-.23-.39-.56-.87-.52-.65.06-.61.42.06.53l.63.1c.05 0 .14-.04.18-.1m-2.24-.93c.1-.13-.3-.54-.51-.54s-.61.4-.52.54c.05.07.28.12.52.12s.46-.05.51-.12m1.79-.4c.09-.12-.65-.46-.78-.35-.11.1.28.47.5.47.11 0 .24-.05.28-.11m6.82 3.34a4 4 0 0 1-.15-1.34c0-.87-.05-1.08-.23-1.08s-.22.2-.22.92q0 1.69-.77.9c-.18-.2-.44-.35-.58-.35s-.44-.18-.67-.4c-.55-.5-.82-.5-1.2.04q-.3.42-.7.47c-.37.03-.42 0-.42-.33 0-.23.17-.53.47-.8.39-.36.5-.58.55-1.16.06-.67.03-.75-.33-.96-.5-.3-.5-.7 0-.81.22-.05.9-.05 1.52-.01.82.05 1.2.03 1.44-.11.47-.28.66-.08.72.73.02.42.12.74.23.77.13.04.19-.17.19-.8 0-1 .26-1.47.65-1.17.22.15.24.52.2 2.92-.03 2.45-.06 2.75-.28 2.8-.14.01-.33-.09-.42-.23m-1.43-2.83c0-1.1-.1-1.32-.6-1.32q-.76 0-.62.94c.08.58.77 1.5 1.05 1.42.11-.03.17-.41.17-1.04" style="fill:#000"/></svg>