<?xml version="1.0" encoding="UTF-8" standalone="no"?>
<!-- Created with Inkscape (http://www.inkscape.org/) -->

<svg
   width="120mm"
   height="40mm"
   viewBox="0 0 120 40"
   version="1.1"
   id="svg1"
   xml:space="preserve"
   inkscape:version="1.4.3 (0d15f75, 2025-12-25)"
   sodipodi:docname="image119.svg"
   xmlns:inkscape="http://www.inkscape.org/namespaces/inkscape"
   xmlns:sodipodi="http://sodipodi.sourceforge.net/DTD/sodipodi-0.dtd"
   xmlns="http://www.w3.org/2000/svg"
   xmlns:svg="http://www.w3.org/2000/svg"><sodipodi:namedview
     id="namedview1"
     pagecolor="#ffffff"
     bordercolor="#000000"
     borderopacity="0.25"
     inkscape:showpageshadow="2"
     inkscape:pageopacity="0.0"
     inkscape:pagecheckerboard="0"
     inkscape:deskcolor="#d1d1d1"
     inkscape:document-units="mm"
     inkscape:zoom="1.4378367"
     inkscape:cx="168.65615"
     inkscape:cy="-38.599654"
     inkscape:window-width="1920"
     inkscape:window-height="1009"
     inkscape:window-x="-8"
     inkscape:window-y="-8"
     inkscape:window-maximized="1"
     inkscape:current-layer="layer1"
     showguides="true" /><defs
     id="defs1"><pattern
       id="EMFhbasepattern"
       patternUnits="userSpaceOnUse"
       width="6"
       height="6"
       x="0"
       y="0" /></defs><g
     inkscape:label="Layer 1"
     inkscape:groupmode="layer"
     id="layer1"><path
       style="opacity:1;fill:#000000;fill-opacity:0.920746"
       d="m 132.83845,44.511313 c 61.89854,27.124081 61.89854,27.124081 61.89854,27.124081"
       id="path9" /><path
       id="path1"
       style="fill:#000000"
       d="m 89.69469,2.9282742 c -0.350146,-0.00667 -0.720729,0.043847 -1.109493,0.160197 -3.094981,0.926269 -3.692088,6.2345195 -0.904338,8.0398198 1.77436,1.149047 2.189653,1.143668 3.612183,-0.04444 C 94.519373,8.3891806 93.07943,2.9927083 89.69469,2.9282762 Z m -0.33538,0.6733439 c 0.247224,0.00692 0.504436,0.047961 0.768945,0.1271241 0.67866,0.20311 1.603175,1.0412948 2.054655,1.8629354 0.70512,1.283237 0.723765,1.737015 0.131775,3.216858 -0.5421,1.3551284 -1.093992,1.7632144 -2.586922,1.9115114 -1.55994,0.154952 -2.051405,-0.09046 -2.759005,-1.3782103 -1.475817,-2.6858151 7.13e-4,-5.8071078 2.390552,-5.7402186 z m -0.805636,1.7952395 c -0.798286,0.02379 -1.301729,0.201505 -1.301729,0.489892 0,0.357441 0.811914,0.65009 1.804024,0.65009 1.5805,0 1.804024,0.190169 1.804024,1.53634 0,0.845015 0.24635,1.5363411 0.54777,1.5363411 0.30783,0 0.47724,-0.8753881 0.38654,-1.9972951 -0.15159,-1.874719 -0.295864,-2.009053 -2.351794,-2.186429 -0.32399,-0.02795 -0.62274,-0.03687 -0.888835,-0.02894 z m 2.6479,7.5003174 c -0.339302,0.02422 -0.0046,2.100969 0.764295,4.587834 0.65696,2.124719 0.565832,2.4011 -0.942578,2.852539 -0.76047,0.227594 -2.043045,1.076057 -2.849955,1.885673 -0.8069,0.809617 -2.326927,1.664479 -3.378089,1.899626 -3.02403,0.676479 -10.939923,-0.736191 -20.993034,-3.747059 -20.356979,-6.096836 -24.674256,-6.448911 -31.953605,-2.603458 -5.451744,2.879986 -8.715212,3.921092 -15.075049,4.809525 -6.219294,0.8688 -7.3110826,2.137121 -1.288293,1.49655 4.703203,-0.500222 11.12034,-2.280056 14.335559,-3.975985 0.436739,-0.230366 0.845706,-0.429155 1.193726,-0.583427 0.01888,-0.0752 0.05838,-0.157427 0.122989,-0.242879 0.101882,-0.134739 0.2349,-0.234523 0.371037,-0.331763 0.133254,-0.08513 0.237944,-0.20165 0.345716,-0.315226 0.156271,-0.182918 0.350285,-0.312746 0.565857,-0.414962 0.227233,-0.08819 0.46753,-0.134208 0.701249,-0.201538 0.166594,-0.04398 0.320393,-0.118898 0.471289,-0.199988 0.159734,-0.09392 0.315681,-0.190957 0.483691,-0.270267 0.163735,-0.07649 0.321212,-0.166855 0.479041,-0.254765 0.24625,-0.128758 0.499732,-0.237823 0.766878,-0.314193 0.250543,-0.05339 0.498536,-0.118443 0.743624,-0.192753 0.202283,-0.05912 0.402401,-0.126606 0.597379,-0.206706 0.230928,-0.09976 0.470161,-0.176412 0.712618,-0.242362 0.314163,-0.07143 0.624867,-0.157086 0.939995,-0.224276 0.302305,-0.06088 0.61061,-0.0815 0.91674,-0.114205 0.286475,-0.02958 0.573743,-0.04803 0.861446,-0.05994 0.272389,-0.0096 0.544993,-0.01237 0.817521,-0.01447 0.235325,-0.0016 0.470571,-0.0022 0.7059,-0.0026 0.03292,-4.3e-5 0.06579,4.4e-5 0.0987,0 0.138756,-1.83e-4 0.247552,0.02972 0.326595,0.077 3.083435,0.163954 12.718844,2.40609 20.728451,4.95577 8.445457,2.688423 14.747039,4.056859 18.825207,4.088639 4.031215,0.03141 5.529743,-0.481306 7.459493,-2.553332 0.56692,-0.608717 1.670877,-1.296411 2.453597,-1.528072 1.17417,-0.347524 1.367762,-0.248035 1.104842,0.568957 -0.17526,0.544611 -0.52542,0.990121 -0.77773,0.990121 -0.25232,0 -1.374358,0.986594 -2.493388,2.192114 -1.68243,1.812462 -2.507803,2.232896 -4.768701,2.430343 -3.456731,0.30188 -9.138955,-0.894097 -17.680058,-3.72122 -14.420931,-4.773349 -18.175237,-5.845305 -21.791949,-6.223383 -1.404222,-0.146792 -2.694585,-0.390255 -3.425631,-0.626318 -0.01935,-1.2e-5 -0.03845,-2.6e-5 -0.05788,0 -0.23405,4e-4 -0.468236,9.83e-4 -0.702282,0.0026 -0.265263,0.002 -0.530688,0.0048 -0.795818,0.01395 -0.102316,0.0042 -0.204781,0.0093 -0.306958,0.0155 0.303777,0.13578 -0.223578,0.236726 -1.265555,0.230477 -0.156907,-9.41e-4 -0.299803,-0.0041 -0.427881,-0.0093 -0.191459,0.04689 -0.382316,0.09635 -0.574642,0.139527 -0.216918,0.05836 -0.430864,0.127571 -0.637171,0.217041 -0.214079,0.08687 -0.432817,0.162529 -0.65474,0.226859 -0.249189,0.07536 -0.500542,0.143271 -0.755509,0.196371 -0.21906,0.06031 -0.424368,0.153641 -0.626836,0.256315 -0.171232,0.09525 -0.341605,0.192785 -0.519348,0.275435 -0.157799,0.07282 -0.300402,0.169468 -0.451652,0.254248 -0.191517,0.102853 -0.388738,0.195101 -0.599446,0.252181 -0.203049,0.05846 -0.410063,0.102188 -0.610816,0.167948 -0.143799,0.06084 -0.262757,0.152358 -0.364319,0.271302 -0.136367,0.143509 -0.272357,0.28765 -0.439249,0.396875 -0.08192,0.0585 -0.168197,0.110076 -0.228927,0.192236 -0.147749,0.199897 -0.31688,0.264018 -0.446484,0.237712 -0.587593,0.374998 -1.414367,0.856143 -2.326473,1.346171 -3.634538,1.952652 -8.770493,3.460351 -13.914913,4.085022 -1.913352,0.232332 -3.478858,0.695102 -3.478858,1.028361 0,0.663683 4.09038,0.310274 8.761223,-0.75706 4.092087,-0.935083 8.975148,-2.964267 10.932149,-4.542875 1.179255,-0.951242 1.944895,-1.536132 2.319755,-1.762167 0.13194,-0.127647 0.268334,-0.250883 0.406177,-0.37207 0.17037,-0.159838 0.361882,-0.292833 0.559656,-0.415995 0.226508,-0.133956 0.463434,-0.245671 0.710034,-0.336931 0.214975,-0.08542 0.426673,-0.178353 0.641304,-0.264583 0.317596,-0.125853 0.653336,-0.190958 0.98392,-0.271818 0.295019,-0.07466 0.593475,-0.136489 0.892968,-0.190169 0.290948,-0.05239 0.586297,-0.06898 0.881083,-0.0832 0.255359,-0.01177 0.5113,-0.01414 0.766879,-0.01654 0.241547,-0.0021 0.482949,-0.0022 0.724503,-0.0026 0.3894,-1.1e-4 0.777662,0.04043 1.165821,0.06821 0.335862,0.02731 0.672863,0.03016 1.008207,0.06253 0.363791,0.04454 0.722693,0.119079 1.081588,0.191719 0.347824,0.0827 0.700212,0.141189 1.052132,0.203089 0.349588,0.06668 0.695063,0.152731 1.045414,0.215491 0.297537,0.05693 0.593341,0.125271 0.893485,0.167431 0.313689,0.03198 0.628591,0.04291 0.943612,0.05271 0.296212,0.0016 0.5917,0.02638 0.887284,0.04289 0.293346,0.01603 0.582616,0.06543 0.872815,0.108003 0.268438,0.03027 0.535411,0.07122 0.800985,0.120406 0.297673,0.06085 0.594957,0.12449 0.890902,0.19327 0.310134,0.05789 0.60998,0.155356 0.906921,0.259933 0.334197,0.117428 0.661396,0.253344 0.991154,0.382405 0.296418,0.110032 0.584952,0.241648 0.870748,0.376722 0.234281,0.1261 0.485963,0.209903 0.740523,0.283703 0.288082,0.08211 0.577549,0.158955 0.867131,0.235645 0.182848,0.06553 0.373815,0.09423 0.56379,0.129191 0.247766,0.0427 0.490779,0.109078 0.735355,0.166398 0.2712,0.04524 0.532656,0.127019 0.794784,0.207739 0.257559,0.07294 0.517748,0.135346 0.77928,0.192236 0.342223,0.07364 0.68339,0.152089 1.022677,0.238229 0.308912,0.06237 0.598379,0.183459 0.879016,0.323494 0.254345,0.13478 0.50875,0.270246 0.75551,0.418579 0.200082,0.133929 0.416544,0.23645 0.633036,0.340031 0.290111,0.127862 0.584648,0.248464 0.883667,0.353984 0.237225,0.09418 0.483019,0.160002 0.730188,0.221692 0.234103,0.04621 0.454079,0.140726 0.681095,0.211356 0.198023,0.06887 0.398655,0.130816 0.595313,0.203606 0.126553,0.04442 0.245128,0.105875 0.363285,0.168465 0.08292,0.04393 0.156225,0.09078 0.220658,0.140043 8.793855,2.940022 15.184746,4.419368 19.095476,4.419368 3.187035,0 3.493566,-0.131082 5.748486,-2.458248 1.31005,-1.352024 2.690927,-2.458247 3.068547,-2.458247 0.83487,0 1.45265,1.667987 0.79685,2.151289 -0.57232,0.421776 -0.08587,2.150774 0.605131,2.150774 0.27223,0 0.347879,-0.553371 0.167949,-1.229383 -0.37457,-1.407243 0.36305,-1.637152 1.23455,-0.384989 0.80751,1.160227 0.264303,2.520946 -1.391647,3.487125 -3.91184,2.2824 -20.69623,0.670155 -25.869739,-2.485119 -0.749364,-0.45703 -2.259067,-1.228165 -3.980635,-2.046904 -0.100649,-0.03098 -0.20715,-0.07795 -0.318327,-0.14366 -0.0042,-0.0025 -0.0087,-0.0043 -0.01292,-0.0067 -0.06353,-0.02997 -0.130331,-0.05832 -0.194303,-0.08837 -0.171028,-0.06386 -0.345721,-0.116876 -0.517798,-0.177767 -0.202669,-0.06398 -0.399685,-0.147496 -0.608232,-0.190686 -0.287512,-0.07239 -0.574085,-0.149574 -0.850594,-0.257865 -0.341048,-0.122257 -0.678429,-0.25671 -1.008724,-0.40566 -0.25435,-0.121704 -0.508017,-0.245137 -0.744141,-0.400493 -0.218254,-0.132496 -0.444829,-0.250351 -0.669726,-0.371036 -0.194714,-0.100471 -0.395921,-0.182879 -0.612366,-0.223759 -0.325004,-0.08254 -0.651437,-0.157373 -0.979268,-0.227893 -0.297071,-0.06493 -0.592963,-0.135912 -0.885217,-0.220142 -0.23418,-0.07213 -0.466586,-0.146325 -0.709518,-0.184485 -0.224343,-0.05283 -0.447195,-0.113679 -0.674377,-0.153479 -0.222264,-0.04143 -0.445887,-0.07654 -0.660425,-0.150895 -0.300197,-0.07972 -0.600545,-0.159536 -0.89917,-0.244946 -0.319752,-0.09426 -0.636423,-0.200532 -0.932243,-0.356568 -0.258355,-0.122802 -0.519693,-0.241904 -0.788065,-0.341064 -0.3161,-0.123833 -0.630091,-0.253908 -0.95033,-0.366903 -0.251378,-0.08908 -0.504772,-0.172265 -0.767912,-0.219625 -0.27732,-0.06446 -0.555672,-0.124164 -0.834574,-0.181384 -0.249069,-0.04679 -0.499621,-0.08306 -0.751376,-0.112138 -0.251628,-0.03697 -0.502786,-0.08106 -0.757059,-0.09612 -0.284928,-0.01597 -0.569187,-0.04014 -0.854729,-0.04134 -0.363293,-0.0114 -0.727455,-0.02399 -1.088822,-0.06511 -0.315323,-0.04605 -0.626628,-0.112423 -0.938961,-0.175183 -0.348291,-0.06327 -0.692604,-0.145378 -1.03973,-0.214458 -0.362844,-0.06383 -0.725989,-0.124946 -1.084688,-0.209806 -0.317789,-0.06434 -0.635226,-0.130969 -0.957047,-0.172599 -0.320829,-0.037 -0.646463,-0.02572 -0.9679,-0.05891 -0.356567,-0.02553 -0.713114,-0.0631 -1.070736,-0.0646 -0.238189,4e-4 -0.476503,5.68e-4 -0.714685,0.0026 -0.238844,0.0022 -0.477589,0.0042 -0.716235,0.01499 -0.238953,0.01139 -0.479215,0.02297 -0.715202,0.0646 -0.272797,0.04854 -0.54371,0.105106 -0.812353,0.173116 -0.27103,0.06606 -0.547305,0.11736 -0.809253,0.21549 -0.22734,0.09076 -0.450745,0.190533 -0.679029,0.279053 -0.164886,0.05873 -0.320783,0.135509 -0.472839,0.222209 -0.136916,0.0832 -0.267765,0.174778 -0.383956,0.28577 -0.142366,0.125161 -0.282119,0.252822 -0.418062,0.38499 -0.131075,0.11777 -0.269942,0.226516 -0.398425,0.347265 -0.156083,0.155004 -0.315174,0.306295 -0.463021,0.469222 -0.184438,0.172026 -0.370608,0.344137 -0.577743,0.48886 -0.195321,0.137944 -0.391661,0.274627 -0.580326,0.421679 -0.135961,0.09766 -0.285667,0.179006 -0.409278,0.291455 -0.07786,0.09286 -0.143457,0.195517 -0.196887,0.304374 -0.03889,0.09408 -0.07109,0.186618 -0.08475,0.287838 v 5.17e-4 c -0.02281,0.169006 -0.06286,0.315714 -0.115239,0.440283 0.675389,0.991898 -6.309677,3.09294 -14.550016,4.375444 -5.272376,0.820577 -6.4786,1.190709 -5.946924,1.824695 0.536838,0.640143 13.022202,-1.748366 18.868099,-3.609599 2.452688,-0.780893 3.659425,-0.87508 5.154208,-0.40256 2.379881,0.75231 9.879047,1.623758 21.536153,2.503207 4.818812,0.363546 10.036647,0.765657 11.595674,0.893485 1.559028,0.127828 4.806174,0.66373 7.215581,1.190625 2.409406,0.526896 5.192526,1.079664 6.184635,1.228349 2.886739,0.432629 9.88953,-0.09896 11.85354,-0.899687 2.54541,-1.037765 3.092318,-1.690853 3.092318,-3.693314 0,-1.369313 -0.289211,-1.843413 -1.311031,-2.149223 -2.36509,-0.707828 -0.997119,-1.773281 2.898531,-2.257743 2.103346,-0.261571 5.099496,-0.709769 6.658516,-0.996322 l 2.83445,-0.520898 -2.57659,-0.04083 c -1.41729,-0.02249 -4.31656,0.178121 -6.442503,0.445968 -2.12595,0.267813 -4.213287,0.269114 -4.638477,0.0031 -1.16624,-0.72964 -0.173029,-0.988075 7.08691,-1.845882 3.47238,-0.410283 6.31331,-0.998763 6.31331,-1.307414 0,-0.308651 -0.98586,-0.401011 -2.19056,-0.205155 -2.26486,0.368213 -11.210118,1.549144 -11.802388,1.558044 -0.18433,0.0028 -0.613211,-1.378508 -0.953431,-3.06958 -0.34021,-1.691072 -0.836435,-3.235033 -1.102775,-3.431315 -0.03858,-0.02843 -0.07253,-0.04133 -0.101286,-0.03927 z m -52.270711,6.634737 c 1.032847,-0.0363 2.25355,-0.0047 3.716569,0.0801 6.132186,0.355432 11.119981,1.815921 19.260323,5.638932 5.29979,2.48898 5.420156,2.472505 -8.928654,1.206128 -16.192039,-1.429057 -21.053151,-2.509053 -19.746598,-4.386297 1.191484,-1.711913 2.599819,-2.429953 5.69836,-2.538863 z m 67.769507,3.789433 c -0.38743,-0.0041 -1.03506,0.03107 -1.93166,0.09818 -3.48003,0.260493 -5.147495,0.751427 -5.147495,1.515153 0,0.244281 1.449375,0.09944 3.220995,-0.321944 3.83918,-0.913152 5.02046,-1.278984 3.85816,-1.291394 z m -0.0491,2.25516 c -2.26318,0.0094 -7.160615,1.776642 -10.127033,3.959965 -5.46076,4.019176 -9.472543,4.140969 -30.660661,0.931209 -21.45483,-3.250163 -26.627241,-3.370147 -41.745772,-0.966349 -3.118055,0.495761 -7.349985,1.090746 -9.404077,1.321883 -2.05676,0.231437 -3.603012,0.67414 -3.441651,0.985469 0.33983,0.655665 3.414115,0.313505 14.907101,-1.658813 11.16954,-1.916811 21.380916,-1.675271 37.623026,0.890385 6.51957,1.029852 12.665456,1.977735 13.657565,2.106331 4.049049,0.524833 13.271807,0.381074 15.136027,-0.236161 1.09666,-0.3631 2.93229,-1.470462 4.07882,-2.460832 2.39398,-2.0679 6.366875,-3.632336 9.224765,-3.632336 1.08239,0 1.96783,-0.276944 1.96783,-0.61495 0,-0.437162 -0.46155,-0.628937 -1.21594,-0.625801 z m 0.23099,2.430342 c -1.86067,-0.03862 -6.01885,1.460153 -9.511046,3.63492 l -4.587834,2.85719 -8.563818,-0.04806 C 77.621062,34.413635 72.699066,33.932853 62.771269,32.356969 46.629891,29.794776 39.687498,29.725566 25.321358,31.983865 19.747186,32.860103 14.368649,33.57705 13.369116,33.57705 c -0.999534,0 -1.983259,0.32007 -2.185913,0.711068 -0.471367,0.909453 5.06343,0.39286 15.31121,-1.429371 11.498891,-2.0447 22.239313,-1.885029 38.338745,0.570508 7.086489,1.080855 13.928155,2.060957 15.203723,2.178162 8.63651,0.793565 12.624299,0.01766 18.320329,-3.56464 3.50216,-2.202556 4.92194,-2.767273 6.95513,-2.767273 1.53559,0 2.55488,-0.273801 2.55488,-0.685747 0,-0.38644 -0.36472,-0.570036 -0.98495,-0.58291 z" /></g></svg>
