<svg xmlns="http://www.w3.org/2000/svg" xml:space="preserve" width="120mm" height="40mm" viewBox="0 0 120 40"><path d="M69.3 31.6a60 60 0 0 1-18.7-4.9l-2.5-.4a55 55 0 0 0-9-1.2v-.2l1-.7 1.4-.9 1.6-.9 4.6-2.8q.3-.4.6-.4.6-.1 2-1.4l.6-.6v-1.3l-.2-2.4v-1.2h-.6l-5.5 1-1.4.2q-.6.3-5.2.6h-1.7l-.9.4-1.6.7-.6.3-.6 1-.7 1v1l-.3.2-.8.5-.4.2-.4-.2-.4-.3h-2.2v-.2q0-.2-.5-.6l-.4-.5-1.1.1-2.8.5q-.3 0-.3.2l-.4.2-.5.1v.9l.4.2.6.3c0 .2 2.4.7 3.3.7h.5V22H23c-.9-.2-2.4-1-2.8-1.6l-.3-.3h-2.4l-2.5-.1v-1l.5-.1H20l.5-.5.9-.8.4-.3L23 17q1.3 0 1.6-.3h.7l.2-.4v-.9l-.2-.4.3-.8.2-.7-.2-.5-.3-.5-1 .1-1.2.3-.6.2c-.3 0-1.7.6-3 1.2l-.8.3q-.3 0-.3.2c0 .2-1 .6-1.1.5-.4-.3.6-1.6 1.2-1.6.2 0 1.4-.6 1.9-1 .3-.2 2-.8 3.2-1 .6 0 1.8-.3 2.6-.5L28 11h4.5l.8.2 2.2.5 2.3.8 1 .5h1.7l.1-.2.1-.2h1.2q1.3 0 2.5-.3l5-1 1.2-.3 1.5-.5c1-.5 2.5-1 5.6-2l3.8-1c.5-.2 2.1-.6 3.5-.8l2.6-.5L72 6l4.6-.2 2 .3a55 55 0 0 1 18.7 5.2q.3 0 .8.7l.4.7v1.4l-.5.6q-.5.7-1.4 1.2l-1 .5h-.8l-8.4-1.9c-3.2-.7-5-1-7.4-1.3l-2.4-.2H69l-2 .3a34 34 0 0 0-11 3.2 21 21 0 0 1-5 2.4q-.4 0-.4.3l-.1.2 1 .3 1.6.4 1 .4a34 34 0 0 0 14 4l2 .2h4l4-.2 2-.4L86 23l8.2-1.8c1.4 0 1.8.2 3.4 1.8l.6.5v1.2l-1 1-1 1-1.5.7a45 45 0 0 1-11.3 3.5c-3.5.7-4.7.8-8.5.9H71zM27 27.3l-1.3-.2q-.6 0-.7-.3v-.1h3.5q5 0 7-.5h.8v.4h-.4l-1.5.3-1.2.4-2.7.1-2.8.1zm9.3-3.3a3 3 0 0 1-1.7-2l-.3-.7.2-.6q.1-.7.4-1.1l.4-.5-.1-1.2-.1-1.2.3-.7.3-.7.6-.3.6-.3h1.9v.2l.4.6.7.7.3.4-.3 1-.3.9.3.3q.4.4.6 1.1l.3.7-.1 1-.2.8-.3.3-.2.4-.3-.1-1-.3-.6-.2-.2.3-.3.3v.4l.2.5-.4.2c-.4.3-.3.3-1.1-.2" style="fill:#000"/><path d="m28.8 29.6-.7-.7q-.3 0-.6-.2l-.1-.5q-.6-.8-1.2-1.5.2-.3-.1-.4c-.3 0-.3.9-.4 1.1" style="opacity:.941432;fill:#fffff4;fill-opacity:.920746;stroke-width:.264583"/><path d="M26.4 26.9q-2.5 0-4.6-1c-.6-.3-1.2-1-1.7-1.1h-.4q0-.2-.2-.4h-.4c-.4-.1-1.4-.9-1.7-1.3q0-.3-.2-.6H17l-.2-.2c-.3-.4-.7-1.2-1.1-1.5h-.2s-.1-.7-.4-1" style="fill:none;stroke:#000;stroke-width:.272902px;stroke-linecap:butt;stroke-linejoin:miter;stroke-opacity:1"/><path d="M40.2 25q-1.1.3-2.2.8h-1c-.6.1-.4.5-1.4.5" style="fill:none;stroke:#000;stroke-width:.264583px;stroke-linecap:butt;stroke-linejoin:miter;stroke-opacity:1"/><path d="M18 14.7c-.2.2-.8.3-.6.5.1.3.7-.7.6-.5l-1 1.4c-.4.5.8-.1-.4.6h-.3v.5q-.4.5-.6.5L15 19" style="fill:none;stroke:#000;stroke-width:.237345px;stroke-linecap:butt;stroke-linejoin:miter;stroke-opacity:1"/><path d="M26.1 21h1.1l.9-.5v-.1l1-.2.7-.4c.1-.1 1-.7.6-.7" style="fill:none;stroke:#000;stroke-width:.2205px;stroke-linecap:butt;stroke-linejoin:miter;stroke-opacity:1"/></svg>