<svg xmlns="http://www.w3.org/2000/svg" xml:space="preserve" width="120mm" height="60mm" viewBox="0 0 120 60"><path d="m60.2 55.8-.3-.3v-.9l-.3.1-.4.2-.2-.2-.2-.1.3-.6.3-.7-.3-.4-.3-.5v-.3l.2-.3.5.2.4.1v-.5l.1-.6h.5l.4-.2v1.3l.5-.2.6-.1v1l-.2.2-.2.3.3.4.3.4v.4l-.2.3-.3.3-.2-.2-.3-.3H61l-.1.7-.1.7h-.2l-.2.1zm-2.4-3.7-.2-.4-1-.9-1-1-.4.1h-.4l-.5-1-.6-1v-.5h.4l.6.4.5.3h.5v.9l1.2 1.1 1.1 1.1.3.3.2.4-.2.3-.2.2zm-24.7-5.8-.4-.4-.2-1-.3-.8.4-1.2.4-1.1h1.2l.4.5.4.5v2.7l-.5.6-.4.7h-.6zm1-.7v-2.9l-.3-.1-.3-.1v.1l-.2.2V45l.1.5.1.4h.4zm8 .5v-.4l.6-.9.5-.9v-1.2l-.2-.1-.2-.2-.3.6-.4.5-.1-.3-.2-.3.3-.6.2-.6.5-.2.5-.1.4.7.5.6v.7l-.5 1-.5.8v.3l.5-.1.5-.2v.6l-.1.5-1 .1-1 .1zm19-.3-.4-.5v-2.1l.3-.7.4-.6.6-.4.6-.4h.1v.9l-.4.2-.4.1.7 1 .7.8v.9l-.4.7-.5.7h-.7zm1.2-.6v-.9l-.1-.4h-.6v1.4l.1.1.2.2h.2zm8.2.6-.4-.5v-.7l.3-.5.2-.5-.2-.3-.3-.3V42l.5-.5.4-.5h.6l.4.6.5.6-.3.6-.2.7.2.5.2.4v1l-.3.4-.4.4H71zm1-.6.1-.4-.2-.2-.3-.3v.2l-.2.3.1.4.1.4h.3zm0-2.8v-.3H71v.7h.4zm10 3.5-.3-.3-.3-.6-.3-.6V43l.2-.7.3-.7.4-.4.4-.5.4.4.5.4.3.8.4.9-.2.8v1l-.5.6-.5.6h-.5zm.8-1.2V42h-.1l-.1-.2-.3.2-.3.1V45l.2.2v.1h.6zm-29.8 1v-.5h-1.3v-.8l.7-1.4.6-1.3h.8V44l.2.3.2.3-.2.3-.2.3v.9h-.8zm.1-1.7v-.3h-.4v.4l-.1.4.3-.1.2-.2zm26 1.8v-.3l.3-.1.2-.2v-2.8l-.3-.3-.2-.3.2-.3v-.2h1v3.1l.1.8.2.8h-1.4zm-30.9-7.3v-8.2l-.2-.6-.2-.5h-.7l-.7.1v2.5l-.1 2.4h-.4l-.1-2.4-.1-2.5h-.7l-.6-.1-.3.3-.2.3v9l-.2-.1-.3-.2v-8.9l-.3-.2-.3-.2h-1v.4l-.2.4v4.7h-.4v-.6l-.2-.7v-1.7l.2-1.7-.2-.4-.2-.4h-1.2l-.2.3-.3.3v8.7h-.3v-8.7l-.3-.3-.3-.3h-.5l-.6.2V32l-.1 2.7-.3.1-.2.1v-3.9l-.2-.8-.1-.9H35l-.7-.1h-.1L34 34v4.6h-.5V34l-.2-4.5h-12l-11.9.2h-4l-.2-.1-.1-.2V15.3h.1l.2-.1.1 6.8.1 6.8.8.1.9.2v-.3l.2-.3v-8h.2l.3-.1v8.1l.1.3.2.3H9l.8-.2.1-.3.2-.3v-7.8h.1l.2-.1v4.2l.2 4.2h.7l.7.1.2-.3.3-.2v-7.6l.2-.1.2-.1v4l.1 4.2h.7l.8.1.2-.3.3-.3v-7.9l.2.5.2.3v7.3l.2.3.2.2.7-.1.7-.2.1-2.6.1-2.6-.1-3-.1-2.9h.6v10.5l.2.4v.4h1.5l.2-.4.1-.3v-7.5l.2-.1.2-.1V24l.1 3.6.1.6.1.6.8-.1.8-.1v-4.2l.1-4.2h.2l.3.2v4.1l.2 4.1h.7l.7.1.3-.2.2-.3v-3l-.2-3 .1-.8.2-1h.3v7.7l.3.3.2.3H27l.2-.4.3-.3-.1-3.8v-3.7h.3l.1 4 .1 4 .7.1.8.1.2-.3.2-.2V15.2l.2-.1h.1l.1 6.7v6.7l.5.2.5.1h.4l.5-.1v-8l.2-.4v-.4l.2.3.2.2v7.8l.2.2.1.3h1.4l.2-.3.2-.2v-7.9l.2-.1.2.2v4l.1 4 .8.1.7.2.3-.3.2-.2v-7.7h.3l.1 4v3.8l.8.2.7.2.3-.2.3-.3v-8h.1l.2-.2v4.5l.1 3.9h1l1 .1V17.2l.2-.1.1-.1.2.5v11h1l.9-.2v-8l.3-.1h.1l.1.6.1.5v7H47v-8.1l.2.1.2.2v6l.2 1v1l1-.1.8-.1v-4l-.1-4.1h.6V27l.2.6.1.6h1.6V20l.3-.1.2-.1V24l.2 4.2h1.9l-.1-6.7-.1-6.6.2-.2.2-.2.1.1v.1l.1 6.5V28l.3.2.3.3h.7l.7-.1V20l.2-.2v-.1l.2.1v.2l.1 4v4.2h2V20h.3l.2.2.1 4 .1 4h1.7l.1-4.1.1-4h.4v8h.4l.4.2h.6l.5-.2v-4l.2-4.1h.4v8.1h1l1 .2V16.8h.2l.2.2v5.6l.1 5.6h1.8l.1-4 .1-4 .1-.3.2-.2v.4l.2.3v4l.1 3.8h1.7v-4L72 20h.3l.2 4v4l.4.1.3.1.6-.2.6-.2v-8l.2.2.2.1.1 4 .1 4h.7l.7.1.3-.4.3-.4v-.3l-.2-.2.1-3.4.1-3.3h.4v7.9h1.5l.2-.2.2-.1V14.4h.3l.2-.2V27l.2.6.2.6h1.5v-8.5l.3.1.2.1v4l.1 4 .2.1.3.2H84l.1-.7.2-.6v-7.3l.2.3.3.4v3.9l.2 4h1.2l.3-.2.3-.3v-7.8l.2.1.2.1v7.5l.2.3.2.3h.7l.7-.1v-8.7l.3.1.2.1.1 4 .1 4 .2.3.2.2h.7l.7-.2V17.3l.2-.3.1-.4.1.1.2.2v10.8l.2.1.1.2h.6l.6.2.3-.4.3-.4v-8l.1.1.2.2.1 4 .2 4.1.2.3.2.3-.1.2H95l-6.8.2h-6.8l-.3.3-.2.2v8.5l-.2-.2-.2-.1.1-4.2.1-4-.3-.2-.3-.2h-1.3l-.2.1v5.3h-.2l-.2-.2v-2.5L78 29l-.2-.1-.2-.2-.6.2h-.6v.9l-.1 4.1-.1 4.1-.1.1v.2l-.2-.1V38l-.1-4.4v-4.4l-.3-.2-.2-.3-.6.2-.7.2V34l-.2.1-.3.1V29h-1.9v9.4l-.2.4-.2-.1-.1-.2v-9.4h-1.8v4.5l-.2.6-.1-2.5-.1-2.5h-2v9.1h-.4V31l-.1-1-.1-1-.8.1-.8.1v4.9l-.2.2v.2l-.3-.4-.1-.4v-4.6h-1.8v9.3h-.4v-4.7l-.2-4.6H61l-1 .1v5l-.1.4-.1.4-.2-.4-.2-.4v-5.1h-1l-.8.2v8.9l-.2.3-.3.2v-9.4h-1.8v5.1h-.3l-.2-.2v-4.4l-.2-.3-.2-.3H53l-.1.5-.1.6v8.2l-.2-.2-.2-.3v-4.3l-.1-4.4h-1.5l-.2.9-.2.8.2 1.6V34l-.1.3-.2.4-.1-.2-.1-.2V30l-.2-.4-.2-.3h-1.3v.5l-.2.6V39h-.3zM28.1 14.1l-.1-.3.1-.1.2-.2v-2.9l-.2-.3-.2-.3.3-.4.4-.3.2.4.3.4v3.4l.1.4.1.4h-1.1zm2.2-.3-.3-.6v-2.9l.4-.6.5-.7h.4l.5.5.5.5v.8l.2.8-.1.8-.1.8-.4.6-.4.5h-.8zm1.1-.7.2-.4v-1.9l-.2-.4V10h-.6v.9l-.2.9.1.7.2.7v.1l.1.2h.3zm24 .6-.5-.3-.2-.5-.2-.5v-1H54l-.4.7-.4.7h.6l.6.1v.4l-.2.3-.3.3h-1.8v-.5l.6-1 .5-.9.1-.5.1-.5-.1-.3-.2-.4-.4.3-.4.3h-.2v-1l.5-.3.5-.3.5.4.5.3.1.8.1.7.3-.9.3-1 .5-.1.5-.2.5.4.4.4.2 1.1v1.7l-.2.6-.2.3-.2.4-.3.2-.3.2zm.8-1.2.2-.7-.1-1-.1-1-.4.1-.3.1-.1.9-.2.9.2.7.2.6h.4zm20.7.7v-.4h1.3v-1l-.4-.4-.5-.4.5-.4.4-.4v-.5l-.6.1-.6.1v-.5l.1-.5.6-.1.5-.2.4.3.4.4-.2.9v.8h.3l.3-1 .3-1 .5-.3.5-.2.5.5.5.4V11l.1 1.4-.3.6-.3.6h-.7l-.7-.1-.3-.9-.4-.9v1.1l-.4.4-.5.4H77zm4.1-1.8v-1.1l-.2-.6-.2-.5-.3.4-.2.5V12l.1.4.1.4.3-.1h.3zm-76.3 2-.4-.3-.2-.8-.2-.8v-1.3l.2-.8.3-.7.4-.1.4-.2.3.1.4.2.3.7.3.7V12l-.3.7-.4.7h-.4l-.3.2Zm.9-1.7.1-.8-.2-.9-.1-.8-.3.1-.3.2v.7l-.2.7.1.9.2.9h.3l.3-.2z" style="fill:#000;stroke-width:1.91144"/></svg>