<svg xmlns="http://www.w3.org/2000/svg" xml:space="preserve" width="192" height="122" viewBox="0 0 192 122"><path d="M103.4 27.1q0 .3.3.4v-.1zM66.6 38.7l-4.7.1v1.4c0 2.4.1 2.3-5.4 2.3h-5.7v8.8c0 8 0 9-.4 9.2-.3.3-1.6.4-7.5.3-6.7-.1-7.3 0-8 .4q-1.1.5-1 1.2 0 .8.5 1.5c.4.6.6 2 .2 2-.5 0-.7 1-.4 2l1.1 4c.2.2 1.9.3 7.4.3 5.7 0 7.2 0 7.4.3q.3.1.3 10.8v10.5l1 .4 7.5 2.7q2.5 1 5.7-1.3c1-.7 3.5-.8 4.6-.2l1.2.7q.7.5 3.7.8c1.2.2 1.3.2 2.2-.7l1-1 1.6.5q2.3.7 3.6-1c.5-.8.5-.8.5-4.2 0-2.9 0-3.5.3-3.8.3-.4 1.1-.4 7.7-.4 16.3 0 35 .2 35.4.4q.4.1.5.7t1.3 1.3c.6.4 1.4.7 1.6.7q.5 0 .6.3l.8.4c.3 0 1.7.6 3 1.3l2.5 1.1 8 .1c8.5.2 10.7 0 10.7-.5L155 91c-.3-.8-.3-.8.2-1.4q.4-.6 1-.8.4-.1.8-.8 1-1.3-1.2-3.8c-1.5-1.8-1.4-2.1.2-3.2q1.7-1 1.8-2.8c0-.8-1.1-2.5-1.7-2.5-.3 0-1.1-1.4-1.1-2.2s.6-2.3 1-2.4q.4 0 1-.6t.7-1.8l.1-1.3-1.4-1.7-1.4-1.9 1.2-1.4a5 5 0 0 0 1.6-3.9c0-.8-1-2.2-2.1-3q-1-.9.2-2 .7-.8 1-1.7c.3-.8.2-1-.2-1.8l-1.2-1.5-.7-1q.1-.5 1.1-1.6c1.5-1.4 1.8-2.4 1.4-4q-.3-1.3-1-1.8l-.6-.6-9.4-.1c-7.9-.1-9.5 0-10.1.3l-3.5 1.5c-3.8 1.5-4.8 2-5.4 2.7l-.6.6h-12a492 492 0 0 1-27.1-.3q-.6.3-2.3.1c-1.6-.1-1.7-.2-2-1l-.4-.7-5.3-.1c-4.3-.1-5.2-.2-5.4-.5q-.2-.5-.1-1.7c.1-1.3 0-1.4-.4-1.5zm4.5.8h.1q.6.5.2 2.8l-.4.9c-.3 0-1.6-1.4-1.6-1.8s1.3-1.9 1.7-1.9m-5 .2q.4 0 1.1.9l.8.9-.9 1-1 1c-.3 0-1.7-1.8-1.7-2.2 0-.6 1.1-1.6 1.7-1.6m80.4.5h9l.5.6q1.7 2-.6 4.4c-1.4 1.7-1.4 2.3 0 4.3l.9 1.7c0 .3-.7 1.4-1.3 2.1s-.6 2.3 0 2.7c1.2.8 2.1 2.3 2.1 3.4 0 .6-.2 1-1.2 2.2q-1.3 1.4-1.3 2c0 .5.8 2.3 1 2.4a7 7 0 0 1 1.6 3q-.2.5-1.4 1.5c-1 1-1.2 1.4-1.4 2.3q-.4 2.4 1.5 3.8 2 1.6.2 3.1c-2 1.8-2.2 2.2-2 3 0 .4.7 1.4 1.3 2.3 1.6 1.9 1.6 2.5.5 3.1q-.8.3-1.4 2l-.6 1.6h-16.4l-.1-.6V66.2l1.9-.1q3.7-.4.1-.7-1.7 0-2-.4c-.1-.3-.2-23.7 0-24.3.1-.5.7-.5 9-.5m-10.6.5q.6 0 .7.3c.1 1.2 0 3.4-.2 3.7l-1.1.4-3.2.7c-4.2 1-4.1 1-4.4.6v-1.1c.1-1 .5-1.2 5.5-3.3l2-1q.1-.3.5-.3zm8.3 1.1q-.7 0-1 1c-.3.8-.3 1 .6 1.6q1 .6.7 1.8 0 .8-.9.5-1-.2-.8.6c.2.5 1.5.3 2.1-.3q.6-.4.6-1.5 0-1.5-1.2-2t.2-.8c1 0 1-.6.2-.8zm-3.6.2h-.2c-.4.1-.4.4-.4 2.6l.2 2.8q0 .2.6.1c.4 0 .5-.2.4-2.6 0-2.3-.2-2.9-.6-2.9m-71.9.3q.3 0 .7.7c.8 1 .8 1.5-.1 2.5l-.9.8c-.3 0-1.6-1.6-1.6-2q0-.6 1.5-1.8zm-5.2.2c.4 0 1.8 1.5 1.8 2l-.8 1q-.6.7-1 .8c-.1 0-1-1.3-1-1.8-.2-.6.6-2 1-2m13.8 1c4 0 4.8 0 5 .4s.4 3.5.2 44c0 7.2 0 7-2.1 7l-2.5-.3c-1-.1-1.1-.1-2 .7-.9.9-1 1-2 .8-.7 0-2-.6-3.2-1q-2-1-3.5-1c-1.3-.1-1.6 0-2.8.6l-2.8 1.5-1 .3-3.7-1.3-3.2-1.2-2.5-1.2c-.3-.4 0-49 .3-49.2s10-.2 10.1 0c.3.4.3 2 .1 25.9v14q.2.3.7.3t.5.4q-.2.2-.7.3c-.5 0-.5 0-.5 2.2l.1 2.3q.2.2.6-.3.8-.9 1.2-.3c.2.4-.8 1.3-1.4 1.2q-.5-.1-.6.5c-.1 1.3.1 1.3 5 1.3 2.6 0 4.8-.1 5-.2.3-.3.4-1 .4-10.3q0-36 .3-36.8c.1-.6.2-.6 5-.6m9.5 1.3.9.3q.4.5.9.2c.4-.3 37.9 0 38.1.2s.3 19.2.1 19.5-3.6.4-4 .1l-.3-.7-.2-.5-.1.5q0 .5-.4.7c-.1.1-2.9.2-6 .2h-6l-.3-.6-.4-.7-.3.6-.3.7h-12l-.1-.7q-.5-1-1 0c-.3.7-.3.7-3.3.7q-2.7 0-3.2-.2 0-.2 0-.8h-.4l.3.2q0 .6-.6.5-.3 0-.3-.3l-.2-.1v.5q-.2.3-1.7.2-1.8 0-1.6.3c0 .3.7.3 5.2.3 4.1 0 5.3 0 5.6.2.3.4.4.8.4 5.1s0 4.8.3 4.8.3-.6.3-4.8 0-4.7.3-5q1-.8 2 0c.2.2.3 1 .3 5 0 2.8.2 4.8.3 4.7s.2-2.2.2-4.9v-4.8l1.2-.1h1.3c.1.2.2 2.4.2 5.2 0 4.2 0 5 .3 5s.4-.9.4-5v-5l.7-.3h1.3l.7.3v4.2c-.2 4.6 0 6 .4 6 .2-.2.3-1.6.3-5.2l.1-5 .7-.2h1.4l.7.3V71c-.1 3.4 0 4.7.1 4.8.2 0 .3-1.3.3-4.8v-4.9h2.9c1.5 0 3 0 3.2.2q.5.2.6 0c.3-.4 2.1-.4 2.5-.1q.3.1.3.7c.1 1 0 7.3-.1 8.2-.2 1 .4 1 .6 0 .3-1.5.2-8-.1-8.3q-.6-.7 1.3-.6h4.7v4.9l.1 5.2c.4.5.6-.6.6-5l.1-5q.2-.3.5-.3c.3.1.3 1.2.3 9.6 0 7.1 0 9.6-.3 9.7-.1.1-9.9.2-21.6.2-17.3-.1-21.5-.2-21.7-.4s-.3-2.3-.2-9.8v-10c0-2.3 0-19.5.2-19.8l1.3-.4zm-20.8.5c.4 0 1.7 1.4 1.7 1.8q-.1.4-.8 1.2l-.8.8c-.1 0-1.7-1.8-1.7-2 0-.3 1.4-1.8 1.6-1.8m5 0h.3q.4 2.6 0 3.3l-.6.5c-.2 0-1.5-1.7-1.5-2s1.4-1.8 1.8-1.8m65.4.6c.3.3.3 18.7 0 19.1q-.2.3-4.3.3-4.2 0-4.3-.3c-.3-.4-.3-2 0-2.8l.2-.7h7.2c.5-.6-.4-.7-3.8-.7h-3.6l-.1-1.4v-2c.2-.5.4-.6 1.4-.7l1.4-.2q.6-.3 2.1-.5 2.8-.2 2.7-.8.1-.6-5 .5c-1.2.2-2.3.4-2.4.3l-.1-2v-1.8l1.3-.1c3-.4 5.5-.8 5.9-1q1.2-.9-2.5-.3c-4.3.6-4.7.7-4.8.3v-2c.1-1.5.1-1.5.7-1.5l1.2-.3c1.2-.4 6.6-1.5 6.8-1.4m-73 2.2c.4 0 1.9 1.5 1.9 1.9q0 .3-.9 1l-.8.9-.6-.8-.5-1.3c0-.6.6-1.7 1-1.7m5 0c.3 0 1.6 1.4 1.6 1.8q0 .3-.7 1.1t-1 .9c-.2 0-1.5-1.5-1.5-1.7 0-.4 1.3-2.1 1.6-2.1M66 50.9l.9.8.7 1-.6.8q-.6.9-.9 1c-.3.2-1.8-1.3-1.8-1.7s1.4-2 1.7-2m4.6 0q.2 0 .4.4.7 1.1.1 2.3-.3.8-.7.8c-.4 0-1.3-1.2-1.3-1.7q0-.4.8-1zm-7 2.8.9.9.7.9-.6.8q-.5.8-.9.9c-.3 0-1.3-1.6-1.3-2 0-.5.8-1.5 1.2-1.5m5 .2q.2 0 .3.2 0 .4.4.4.9.5-.3 2l-.8.7-.8-.8c-.8-.7-.8-1 0-2q.5-.5 1.1-.5m53.2 2q-.7 0-1 .7-.5.6.5.4.8 0 .9.3c.2.7-.4 2.5-1 3q-.6.5-.7.9c0 .5 2.3.4 2.6 0q.4-.5-.5-.4-1.5 0-.2-1.5 1.3-1.4.4-2.8a1 1 0 0 0-1-.5m-13.2.1h-.3c-.3.2-.3.6-.3 2.7l.1 2.7h.5c.3 0 .4-.5.4-2.5 0-2.2 0-2.9-.4-2.9m-13.6 0q-1.3 0-1.2 2.9c0 1.8 0 2 .7 2.5l.8.6.8-.8c.6-.7.6-.9.6-2.4 0-2-.3-2.6-1.3-2.8zm-29.2.2.8.8.7 1q0 .4-.6 1c-.7 1-.9 1-1.6 0s-.7-1 0-2zm4.7 0q.6.1.8 1.9 0 .8-.4 1.4l-.5.5-.8-.8-.7-1c0-.5 1.3-2 1.6-2m24.7.2.4.4c.3.6.4 2.9 0 3.8q-.2.6-.4.7c-.6 0-.9-3.6-.3-4.5zM68.2 59c.3 0 1.4 1.3 1.4 1.8q0 .4-.5.9l-.7.7c-.4.2-1.6-1-1.6-1.6 0-.5 1-1.8 1.4-1.8m-4.4 0q.6 0 1 .6l.5 1-.6 1.1-.6 1-.9-1-.8-.8.4-.9q.4-1 1-1m2.1 2.4.7.8q1.2 1 .1 2-.9 1.2-1.6 0c-.6-.9-.6-1.2.2-2zm4.7.2q.4.1.6.8c.2.7.2 1 0 1.7q-.3.9-.7 1c-.3 0-1.5-1.4-1.5-1.8s1.2-1.7 1.6-1.7m-27.1.2 7 .1.1 1a50 50 0 0 1-.2 8.2c-.5.4-13.8.4-14.2.1-.2 0-.5-.9-.9-1.8q-.9-2.5 0-3.6.7-.7 0-1.8-.6-.4-.5-1.3t.9-1zM145.9 63q-.4 0-.6.4t-.8.7c-.5.1-.8 1-.3 1.2l.2 1q0 .5.2.8h.5c.6-.2.7-.2 1.5 0q.8.4.5-.5 0-1 .2-1.1.7-1-.2-1.4a1 1 0 0 1-.7-.7q-.1-.5-.5-.4m-77.7 1.2c.4 0 1.4 1.2 1.4 1.7l-.6.9q-.5.7-1 .7c-.3 0-1.2-1.1-1.2-1.6s1-1.7 1.4-1.7m-4.4 0q.5 0 1 .8.9 1.1-.6 2.1c-.8.5-.7.5-1.3-.3q-.6-1 .2-2.1.3-.5.7-.5m67.8 1.8 4.5.1c.4.1.5.3.5 1.6l-.2 1.7c-.4.5-8.3.5-8.6 0l-.2-1.8v-1.5zm-65.5.7c.3 0 1.3 1.4 1.3 1.8q0 .4-.7 1l-.7.7-.8-.7-.8-1c0-.4 1.4-1.8 1.7-1.8m56.2 0c-.3 0-.4 1-.3 5.1l.1 4.3.2-.1a53 53 0 0 0 0-9.3m-6.4.2c-.2 0-.3 1-.3 4.5a23 23 0 0 0 .1 4.4 27 27 0 0 0 .2-9m-45.5.1q.5 0 .8.6c.4.6.4.8.1 1.5l-.4 1c-.3.4-2-.9-2-1.6 0-.6 1-1.5 1.5-1.5m73.6 1.2-.6.3c-.9.6-1.3 2.4-.8 4q.3.8.6 1.1c.5.5 1.6.3 2-.4.8-1.5.5-4-.6-4.7zm-2.9.3h-.5c-.6.1-.6.2-.6 2.7q0 2.5.2 2.8c.9.4 1-.1 1-3zm2.9 0c.5 0 .9 3.2.5 4.4-.3 1-1.4-.2-1.4-1.5 0-.8.6-2.8.9-2.9m-80.5.7.8.6q1.4 1 .2 2.4l-.8.6c-.3 0-1.2-1.4-1.2-1.8q0-.4.5-1.1zm4.7.1q.3 0 .7.7.9 1.4 0 2.3-.9 1.1-1.6-.2c-.7-1-.6-1.3.1-2.1q.6-.7.8-.7m60.5 1.3a40 40 0 0 1 7.7.3c.3.3.3 18.9 0 19.7q-.5 1-1.2.4-.4-.4-1.4-.8l-3.9-1.8c-2.1-1-2.3-1.2-2.3-2.4-.1-1.6 0-1.6 3-.6l4.1 1q.7.3.6-.2c0-.5-.7-.8-6.1-2.2-1.5-.4-1.7-.6-1.7-2.2s.3-1.9 1.8-1.6l5.8.8c.6-.5-.4-1-1.7-1l-2.4-.3-2.1-.4c-1.2-.2-1.4-.7-1.3-2.5v-1.3h.8l3.6.5 3 .3c.4-.4-.7-.9-2.1-1-2.9-.4-5-.9-5.2-1.2-.3-.6-.2-2.6.1-3.2q.2-.3.9-.3m-62.8 1.5q.4 0 1 .7l.6.8-.6.9-.9.9a5 5 0 0 1-1.6-1.7c0-.4 1.2-1.6 1.5-1.6m4.5 0q.3 0 .5.4A2 2 0 0 1 71 75q-.5 1-1.5 0-.7-.7-.4-1.3t.8-1.1zM68 74.7c.4 0 1.6 1.2 1.6 1.7l-.7 1-.9.9a7 7 0 0 1-1.4-2c0-.4 1-1.6 1.4-1.6m-4.4 0q.6 0 1 .8c.5.8.5.8.1 1.7q-.7 1.5-1.8.1-.7-1 0-2 .4-.5.7-.6m2.2 2.7c.4 0 1.4 1 1.4 1.6q0 .4-.6 1.1l-.7.7c-.2 0-1.2-1.4-1.3-1.8q0-.7 1-1.6zm4.7.1q.3 0 .5.4.6.8 0 2c-.2.8-1 .8-1.6 0q-1-1 .2-1.9.5-.5.9-.5M68 79.8l.8.7q.7.5.7.9 0 .2-.6 1t-.8 1l-1-.8c-.7-.9-.6-1.3.4-2.3zM64 80q.5 0 .5.4l.3.6q.7.3-.2 1.6c-.9 1.1-1.1 1-2-.7-.3-.5.8-1.9 1.4-1.9m6.6 2.6q.8 0 .8 2.8c0 1.8-.2 1.9-1.5.2l-1-1.2.6-1q.7-.8 1.1-.8m-4.6 0q.3 0 1 .9l.6.8-.6.8q-.6.7-.9.8c-.3 0-1.6-1.4-1.6-1.8s1-1.5 1.5-1.5m2.3 2.5c.5 0 1.9 1.8 1.8 2.2q-.2.3-.4.3l-1.2-.1q-2-.2-1.8-.7c0-.4 1.2-1.7 1.6-1.7m-2.2 3c.5 0 2.2 2 2 2.4s-4.2 0-4.2-.3c0-.6 1.6-2 2.2-2m3 .1c.8 0 2 .2 2.1.5q.5.8-.1 1.6l-.7.4c-.7 0-2.2-1.5-2.2-2.2q0-.3.9-.3" style="opacity:.978;fill:#000"/><path d="M112.3 65.8h.5v10.3h-.5z" style="opacity:.941432;fill:#0f0e0c;fill-opacity:.920746;stroke-width:1.58113"/><path d="M108.9 74.6h.5v3.2h-.5zM122.1 74.6h.5v3.2h-.5z" style="opacity:.941432;fill:#0f0e0c;fill-opacity:.920746;stroke-width:.878664"/></svg>