<svg xmlns="http://www.w3.org/2000/svg" xml:space="preserve" width="120mm" height="50mm" viewBox="0 0 120 50"><path d="m132.84 44.51 61.9 27.13" style="opacity:1;fill:#000;fill-opacity:.920746"/><path d="M18.27 47.13c-.2-.18-.36-.4-.36-.48s-.1-.23-.24-.33q-.25-.17-.25-1c0-.7.09-.94.53-1.51.3-.38.62-.72.74-.75.28-.07.26.47-.02.67-.66.48-.73 2.46-.1 2.95.32.25.44.78.19.78-.08 0-.3-.15-.5-.33m66.79-.17c-1.03-1.1-1.01-2.4.04-3.46.7-.7.87-.54.34.34a2.5 2.5 0 0 0-.1 2.62c.18.3.4.6.5.64.24.14.2.36-.07.36-.13 0-.45-.23-.71-.5m5.35.23c0-.07.14-.4.32-.75.42-.8.42-1.68-.02-2.49-.19-.35-.3-.68-.24-.73.16-.14.7.36 1.08.98q.6 1.01.04 1.98c-.48.82-1.18 1.42-1.18 1.01m-66.62-.13c0-.06.1-.24.24-.4q.24-.26.24-1.38c0-.93-.05-1.19-.35-1.54-.26-.31-.3-.47-.17-.59.27-.23.88.4 1.24 1.3.27.65.28.82.1 1.38-.23.73-.72 1.35-1.07 1.35q-.21 0-.23-.12m-4.2-.41c-.26-.08-.27-.5-.02-.72.23-.2 1.28-2.3 1.28-2.57 0-.33.46-.2.8.23.2.23.34.48.34.56 0 .07.26.6.58 1.15.31.56.57 1.07.57 1.14 0 .16-.8.3-1.1.2-.14-.04-.2-.19-.15-.36.13-.45-.18-.82-.69-.82q-.82.01-.84.67c0 .34-.43.62-.77.52m1.72-1.93c-.06-.4-.46-.52-.46-.15q0 .45.37.46c.08 0 .12-.14.1-.3m65.87 1.78-.53-.06-.03-1.42-.04-1.74c0-.29.08-.32.84-.36 1.45-.08 2.32.6 1.9 1.44-.13.24-.1.4.16.7.28.34.3.44.12.81-.13.27-.39.49-.7.58-.5.16-.71.16-1.72.05m1.43-.65c.23-.38.23-.42-.08-.62-.5-.32-.97-.2-1.03.28-.03.22-.01.5.04.62.14.33.79.16 1.07-.28m-.17-1.6c.15-.15.14-.28-.08-.57-.15-.2-.37-.36-.5-.36-.25 0-.47.6-.33.93.12.27.66.27.91 0m-68.3-5.94a3.3 3.3 0 0 1-1.94-1.4l-.27-.46h-2.06c-1.64 0-2.27.06-3.12.3l-1.07.3-.36-.3c-.34-.28-.55-.3-3.1-.3-2.3 0-2.72-.03-2.72-.21s.42-.22 2.77-.22c2.66 0 2.77 0 3.02-.31l.25-.31 1.11.31c.95.27 1.5.31 3.5.31 2.56 0 2.52 0 2.82.79.25.63 1.27 1.1 2.25 1.03q1.23-.1 1.6-.92c.18-.4.64-.43.64-.03 0 .52-.76 1.23-1.51 1.42l-.85.2a4 4 0 0 1-.96-.2m1.23-1.92c-.9-1.32-2.37-4.9-3.05-7.37a37 37 0 0 1-.85-6.07c-.14-2.5.37-6.86 1.11-9.44.96-3.32 2.67-6.87 3.32-6.87.49 0 1.17 1.23 2.5 4.5a29 29 0 0 1 1.98 12.44c-.07.9-.09 1.68-.04 1.75.04.06.26.11.48.11.28 0 .51-.16.8-.57.51-.7.51-.76 0-1.34-.44-.51-.53-.95-.19-.95.38 0 .71.35.9.96.41 1.24-.3 2.37-1.65 2.6-.56.1-.61.22-.92 1.8-.67 3.4-3.11 8.92-3.95 8.94-.06 0-.26-.22-.44-.5m1.6-3.25a27 27 0 0 0 2.25-10.63 24 24 0 0 0-.97-8.43c-.25-1.01-1.55-4.42-1.94-5.1-.26-.45-.38-.54-.55-.42-.34.25-1.64 3.48-2.2 5.45-1.3 4.7-1.3 11.16.04 15.58a29 29 0 0 0 1.85 4.77c.52.9.65.8 1.52-1.22m1.87 2.59c-.06-.09.19-.41.54-.72.66-.57 1.44-2.02 1.25-2.3-.06-.09-.4-.12-.81-.07-.85.1-1.1-.12-.57-.5a1.5 1.5 0 0 1 1.6-.04c.3.18.37.36.37.91 0 .44-.09.76-.25.87-.13.1-.24.27-.24.39 0 .32-.85 1.29-1.27 1.46-.47.19-.48.19-.62 0m58.47-1.8C80 33.59 76.2 32.6 73 31.25a34 34 0 0 1-5.79-3.17c-.85-.68-2.48-.8-4.16-.33l-1.07.31-.37-.3c-.29-.24-.58-.31-1.22-.31-.62 0-.85-.06-.85-.2q-.02-.39 1.15-.38.64 0 .97-.28c.3-.26.35-.27 1.1-.05a13 13 0 0 0 3.2.47c.67 0 .93.1 1.71.62 2.48 1.65 3.77 2.32 7.46 3.82 2 .82 4.94 1.5 8.03 1.86 2.69.32 11.01 0 12.78-.5a23.56 23.56 0 0 0 8.31-3.04c.57-.34 1.07-.6 1.12-.6s.34-.2.65-.44l.57-.44 2.64.02c1.73 0 2.82-.05 3.15-.17.43-.14.67-.13 1.44.08 1.15.32 1.16.61 0 .97-1.02.32-1.13.32-1.69-.04-.44-.28-.58-.3-3.1-.2-2.38.1-2.7.14-3.1.42-.23.17-.61.41-.84.54l-1.06.64c-.67.41-3.25 1.54-4.4 1.93-1.71.57-3.34.93-5.03 1.11l-2.49.28c-1.06.13-7.7.17-8.81.06m-66.67-1.36a.6.6 0 0 1-.2-.4c0-.3-1.25-.86-1.9-.86-.26 0-.9.13-1.4.28-.52.16-1.1.29-1.3.29a.8.8 0 0 1-.59-.29c-.19-.27-.38-.28-2.99-.28-2.15 0-2.77-.04-2.72-.18s.8-.2 2.86-.22c2.22-.03 2.82-.08 2.98-.25.26-.27.82-.27 1.41 0 .3.14.93.22 1.7.22 1.33 0 2.03.25 2.53.91.42.57.11 1.2-.38.78m67.9-.57a21 21 0 0 1-2.7-.32c-.45-.11-1.16-.24-1.57-.3a13 13 0 0 1-2.04-.52c-.7-.24-1.44-.47-1.62-.51a45.06 45.06 0 0 1-8.95-4.45 10 10 0 0 0-1.48-.82c-.58-.2-1.86-.17-3.33.1-.65.13-.94.13-1.22 0a6 6 0 0 0-1.35-.28c-.7-.07-.98-.16-.98-.31 0-.17.25-.23 1.04-.26.64-.03 1.14-.13 1.28-.25.3-.26.61-.26 1.62 0 .44.12 1.4.22 2.13.22.98 0 1.4.06 1.59.22.87.76 5.98 3.78 6.4 3.78.04 0 .35.16.7.34 1 .56 3.87 1.55 5.9 2.04 2.9.7 6.1 1 8.56.77a35 35 0 0 0 11.25-2.8c3.12-1.35 5.3-2.56 6.85-3.77.45-.35.55-.36 2.89-.39 1.88-.02 2.51-.08 2.82-.25.4-.23.6-.2 1.89.22.64.22.37.6-.66.9l-.93.29-.51-.33c-.49-.31-.6-.33-2.62-.26l-2.1.07-1.03.7a33 33 0 0 1-4.39 2.5l-1.38.67c-2.54 1.2-4.8 1.87-8.72 2.58a42 42 0 0 1-5.2.56zm-57.9-2c-.07-.09.1-.31.4-.5.67-.47 1.54-1.59 1.42-1.85-.05-.11-.24-.2-.42-.2q-.33 0-.33-.27c0-.36.37-.47.97-.29.58.18.82.72.48 1.1-.13.13-.37.49-.55.79-.34.6-1.27 1.38-1.63 1.38a.5.5 0 0 1-.34-.16m55.93-.97c0-.07.24-.3.53-.5.76-.53.4-.66-1.47-.56-1.43.09-1.5.08-1.5-.2 0-.24.13-.3.85-.37a8 8 0 0 1 2.97.07c.55.22.68.64.31 1-.54.53-1.69.9-1.69.56m2.39-.38c-.26-.58.84-1.78 1.62-1.78.21 0 .84.31 1.41.7l1.03.69.64-.4c.78-.5 1.03-.52 1.27-.06.26.5.84.47 1.28-.07.35-.44.86-.56 1.08-.26.16.24-1.38 1.4-1.86 1.4-.21 0-.56-.16-.78-.37l-.4-.37-.43.3c-.24.17-.57.3-.74.3a4 4 0 0 1-1.76-.9c-.5-.55-1.81-.02-1.81.73 0 .36-.4.43-.55.1m-54.48-.25c0-.73 1.22-1.8 2.7-2.37.6-.23 3.27-.58 4.5-.58.54 0 1.03-.1 1.22-.22s.47-.2.65-.2.47.09.64.2.51.21.75.21.56.13.72.28c.27.27.26.28-.34.43-.35.08-.75.15-.9.15s-.33.07-.38.14c-.15.22-.83.18-1.06-.06-.16-.17-.6-.2-2.5-.13-1.47.06-2.48.16-2.76.28-.25.11-.53.2-.64.2-.36 0-1.57.98-1.85 1.5-.31.58-.75.67-.75.17m-15.46-1.46c-.66-.62-1.24-.8-1.6-.52-.1.07-.51.2-.94.31-.73.17-.81.16-1.15-.11-.33-.28-.55-.3-2.85-.3a23 23 0 0 1-2.65-.09c-.5-.27.06-.36 2.45-.36 2.44 0 2.66-.02 3.1-.31.47-.3.5-.3 1.06-.07.32.13 1 .28 1.5.33a2.3 2.3 0 0 1 1.54.62c.61.51.86 1.16.43 1.14-.11 0-.51-.3-.89-.64m61.58.3c-.36-.32-.55-.94-.28-.94.06 0 .26.13.45.28.52.43 1.05.43 1.42 0q.64-.73-.57-1a31 31 0 0 1-7.53-3.17c-.4-.21-.74-.48-.74-.6 0-.21 1.06-1.03 1.8-1.39a47 47 0 0 1 6.03-2.4 29 29 0 0 1 9.4-1.22c4.15 0 6.6.37 10.16 1.51l1.36.44.65-.3c.36-.16.79-.3.96-.3.46 0 1.2.83 1.08 1.24-.09.28.04.4.91.87 1.25.67 2.13 1.38 2.01 1.63-.09.2-2.26 1.36-3.83 2.06a36 36 0 0 1-4.78 1.64c-.16 0-.55.1-.87.21-1.06.38-4.48.82-7.1.9-2.59.07-5.97-.2-7.08-.58-.42-.14-.5-.12-.73.17-.83 1.03-1.2 1.3-1.75 1.3q-.57 0-.97-.35m14.95-1.85c3.5-.6 7.15-1.78 9.55-3.09.8-.43.93-.58.72-.8-.34-.37-5.16-2.35-5.7-2.35a1 1 0 0 1-.41-.13c-.24-.2-3.86-.95-5.6-1.16a34 34 0 0 0-4.65-.1c-2.82.09-3.36.14-5.42.59a30 30 0 0 0-5.88 1.75l-1.71.8c-1.08.49-1.38.73-1.26 1.01.14.32 4.18 2 6.21 2.6 1.75.52 2.34.64 4.93 1.01 1.8.27 7.36.18 9.22-.13m8.5-6.15c0-.3-.4-.52-.66-.38-.19.1-.19.17-.01.35.26.28.66.3.66.03m-6.21 8.14c0-.12.26-.27.64-.36.36-.09.82-.34 1.05-.58s.49-.42.58-.42c.38 0 .15.67-.36 1.11-.43.37-.68.46-1.23.46-.49 0-.68-.06-.68-.21m5.14-.6c-.19-.12-.5-.18-.74-.14-.92.16-1.1-.52-.18-.7.31-.05.67 0 .98.14.7.32.81.28.93-.28q.22-.94.68-.41c.3.36.13.91-.41 1.3-.52.38-.8.4-1.26.1m-26.22-.33c-1.09-.5-2.57-2.37-2.17-2.73.3-.26.62 0 1.1.86.54.99.68 1.12 1.38 1.24q.53.1.58-.1c.22-.64.27-.7.5-.62.63.21.48 1.1-.24 1.42-.56.25-.43.26-1.15-.07m-42.66-.68c-.06-.05.25-.42.7-.82q.8-.72.98-1.33c.2-.67.6-.81.75-.27.07.24-.06.57-.43 1.1-.77 1.13-1.6 1.67-2 1.32m71.02-.57c-.25-.22-.07-.61.31-.7.23-.05.64-.34.91-.64q.75-.83 1.05-.42c.22.31-1.97 2.02-2.27 1.76M68 23.2c-.53-.5-.98-1.43-.76-1.56.18-.1.96.47.96.7 0 .06.19.33.41.59.63.72.13.94-.6.26m36.78-.59c0-.37-.08-.76-.18-.84-.2-.17-.07-.47.19-.47.08 0 .3.13.48.28.53.47.35 1.72-.25 1.72-.18 0-.24-.18-.24-.69m-65.54.05c-.07-.18-.49-.22-2.29-.22-1.84 0-2.3-.04-2.9-.28-.76-.3-2.27-1.22-2.45-1.48-.32-.44.49-.52.93-.1.17.17.68.49 1.15.72.82.42.9.43 3.1.43 1.86 0 2.3-.04 2.55-.24.27-.22.35-.22.91-.02.34.13.9.28 1.27.35.98.18.86.53-.23.64-.48.05-.95.17-1.05.25-.26.23-.88.2-.99-.05m-24.4-.57q-.67-.97-2.37-.45c-.77.24-.8.24-1.15-.02-.3-.23-.56-.27-1.65-.24a8 8 0 0 1-1.85-.12c-.41-.13-.6-.13-.85 0-.46.25-1.3.23-1.41-.04-.05-.12-.06-.26 0-.3.04-.04 1.25-.07 2.68-.06 2.41 0 2.63-.01 3-.29.42-.32.57-.32 2.23.12 1.34.34 2.16.9 2.16 1.47 0 .58-.38.55-.8-.07m46.75-.36c-.23-.23-.5-.29-1.25-.29-.85 0-.95-.03-.95-.29 0-.3.04-.32 1.14-.29.54.02.85-.05 1.13-.27.22-.17.48-.27.57-.23.27.1 1.27.34 1.8.44l.5.1-.46.34c-.25.19-.66.34-.92.34-.25 0-.55.1-.66.22-.28.29-.55.27-.9-.07m5.14-.83c0-.2 1.57-1.47 1.69-1.37.25.22.08.62-.47 1.04-.53.4-1.22.6-1.22.33m36.14-.46a1.2 1.2 0 0 0-.75-.53c-.65-.11-.57-.47.11-.47.42 0 .66.1.98.44.49.5.51.6.2.84-.2.13-.3.08-.54-.28m-74.83-.14c0-.07.23-.43.51-.8.4-.51.48-.73.35-.9-.3-.42-.68-.35-1.04.18-.4.59-.57.64-.72.23-.1-.3.48-1.07 1-1.34.4-.2 1.02.03 1.29.5.21.36.22.52.06.96-.25.68-.8 1.3-1.17 1.3q-.26 0-.28-.13m84.82-.59c-.58-.25-.91-.28-2.94-.23-2.46.06-3-.05-4-.82a10 10 0 0 0-.75-.52l-1.22-.77a32 32 0 0 0-4.97-2.55 28 28 0 0 0-6.45-2.17l-2.77-.6c-1.78-.42-7.24-.1-9.96.57l-1.79.44c-1.22.3-3.24 1-4.42 1.53-3.66 1.65-4.16 1.93-6.73 3.73-.37.26-.68.32-1.8.33-.74.02-1.51.1-1.7.2-.47.21-1.24.2-1.5-.01-.1-.1-.6-.19-1.1-.2-1.61-.05-1.66-.63-.05-.63.71 0 1-.06 1.07-.22.05-.11.29-.21.54-.21s.77.1 1.15.21c.38.12 1.15.22 1.72.22 1 0 1.07-.03 2.21-.79a10 10 0 0 1 1.3-.78c.07 0 .43-.23.8-.5.39-.28.76-.5.83-.5.08 0 .6-.26 1.17-.58.57-.3 1.1-.57 1.2-.57s.77-.25 1.5-.57a25 25 0 0 1 5.51-1.67c1.12-.24 1.1-.23 3.19-.55 1.89-.29 5.85-.22 7.6.12l2.03.4c.5.1 1.41.33 2.04.52s1.37.4 1.64.45c.65.15 5.46 2.26 5.87 2.58.18.14.44.3.58.35s.9.51 1.71 1.02l2.34 1.44.87.5h2.53c1.95-.02 2.61-.07 2.9-.23.33-.2.5-.2 1.37-.02.54.12 1.07.25 1.16.3.36.2.16.48-.52.7-1.13.37-1.47.38-2.16.08m-82-1.06c-.77-.57-1.43-1.42-1.28-1.64.2-.26.5-.15.8.28.16.24.61.67 1.01.96.4.3.73.62.73.72 0 .34-.59.19-1.27-.32m39.08.26a.4.4 0 0 1-.1-.26c0-.27 1.77-1.75 2.21-1.85.85-.18 1.62.5 1.4 1.25-.1.37-.56.24-.68-.18-.05-.2-.22-.38-.37-.4-.37-.07-1.12.41-1.6 1.03-.38.5-.63.61-.86.41m-29.76-.54c-.24-.15-1-.22-2.69-.26-2.73-.07-3.26-.16-4.15-.65-.98-.53-2.7-2.1-2.7-2.44 0-.17.09-.3.18-.3.1 0 .74.5 1.44 1.1a6 6 0 0 0 2.46 1.52c1.07.37 1.33.4 2.52.33 1.72-.1 2.4-.22 2.76-.49.26-.2.37-.2 1.17.02.9.25 1.34.55 1.16.8-.06.08-.27.15-.47.16-.2 0-.54.1-.76.2-.51.26-.51.26-.92.01m72.71-.93c-.46-.32-.34-.32-5.17-.29-.53 0-2.16-.8-3.19-1.59-.18-.13-1.15-.7-2.17-1.26a37 37 0 0 0-10.16-3.94c-.46-.25-3.17-.55-5.46-.6-2.01-.05-2.94-.01-4 .17a66 66 0 0 0-6.54 1.46c-1.73.56-5.56 2.3-6.87 3.12-.66.43-1.52.97-1.9 1.2-.4.26-.89.44-1.18.44-.73 0-2.75.3-3.73.54-.83.2-.87.2-1.23-.09-.26-.21-.58-.3-1.07-.3-.57 0-.69-.05-.64-.26.04-.19.22-.25.74-.25.4 0 .8-.1.99-.25.38-.3.82-.31 1.66-.02a5 5 0 0 0 2.01.18c1.27-.05 1.4-.08 2.08-.57.4-.28 1-.63 1.3-.77.32-.13.75-.38.96-.55.69-.56 5.47-2.74 6.47-2.96.27-.06.75-.19 1.07-.28L78 10.2c1.04-.32 2.74-.64 3.39-.64.35 0 .97-.1 1.39-.22.98-.3 6.26-.2 8.12.13 2.1.39 3.01.59 3.24.72.13.07.46.18.74.24.81.18 1.8.52 3.3 1.14.78.31 1.43.57 1.46.57.28 0 5.57 2.99 6.62 3.74 1.11.8 1.44.86 3.9.82 1.72-.03 2.34-.1 2.8-.3.58-.24.63-.24 1.44.01 1.42.44 1.5.73.26 1l-.99.23q-.33.08-.78-.21m-15.62-.13c0-.43-.38-.62-.9-.45-.6.2-1.06.18-1.06-.05 0-.3.34-.48 1.15-.59.6-.07.81-.04 1.03.14.34.3.36 1.22.02 1.22-.13 0-.24-.12-.24-.27m-70.5-.03c-.14-.13-.07-.3.29-.68.69-.76.41-1.8-.58-2.2-.47-.18-.53-.47-.13-.6.62-.2 1.85 1.13 1.84 2 0 .41-.72 1.5-1.06 1.6-.1.02-.25-.03-.36-.12m50.68-.45c-.38-1.23-.74-1.4-1.46-.68-.25.24-.52.4-.6.35-.33-.17-.15-.63.38-.99.6-.4 1.2-.46 1.61-.18.41.27.77 1.16.6 1.44-.19.28-.46.31-.53.06m-66.2-.34-.32-.4-2.43.04c-1.43.02-2.53-.03-2.67-.12-.3-.18-.34-.17 2.66-.15 2.2.02 2.25.02 2.76-.35.28-.21.63-.35.77-.31s.68.2 1.2.38c.91.3.98.3 1.64.07a3 3 0 0 0 1.02-.6c.2-.22.43-.33.54-.27q.43.24-.2.9c-.35.35-.52.4-1.36.41a6 6 0 0 0-2.26.45l-.75.24q-.26.11-.6-.3m68.27-.01c-.42-.07-.77-.4-.63-.6.06-.09.44-.1.93-.06 1 .1 1.28-.11 1.28-.98 0-.63.28-.85.6-.46.37.42.13 1.2-.52 1.73-.54.45-.82.51-1.66.37m11.39-.26-.64-.46c-.27-.23-1.38-.24-2.1-.01q-.93.3-.55-.29c.18-.3.97-.6 1.6-.6.46 0 1.24.3 1.99.8.73.46 2.1.5 2.55.06.6-.58 1.1-.23.52.36-.35.36-.48.4-1.66.4-1.06.02-1.37-.02-1.71-.26m-7.85-.92c0-.33 1.15-1.44 1.49-1.43.42 0 .91.5 1.02 1.03.1.48.08.54-.22.54q-.32 0-.33-.27a.6.6 0 0 0-.24-.45c-.2-.15-.34-.1-.8.34q-.91.87-.92.24m-57.04-3.4c-.45-.2-.82-.66-.65-.8.19-.17.6-.1.9.14.29.23.33.22.75-.05.34-.22.46-.43.5-.9.05-.67-.3-1.13-1.16-1.52-.44-.2-.59-.53-.3-.69.21-.12 1.43.65 1.89 1.2.5.6.52 1.14.05 1.86s-1.34 1.06-1.98.77m-14.76-.5c-.34-.3-.48-.3-2.77-.28a13 13 0 0 1-2.66-.11c-.3-.18-.34-.18 2.69-.15l2.28.02.42-.46c.42-.44.44-.45.92-.23 1.08.5 4.65.56 5.17.1.3-.26.63-.17.57.17-.08.51-.71.68-2.51.68-1.2 0-1.91.08-2.62.29-1.19.35-1.06.35-1.5-.03m-.04-5.04c-.16-.17-.75-.22-2.8-.25-3.48-.05-3.54-.31-.08-.37 2.51-.03 2.62-.05 2.97-.38s.39-.34 1.1-.15c.41.11.9.27 1.07.35.19.09 1.27.15 2.47.15 2.12 0 2.15 0 2.75-.42 2-1.39 4.46-1.4 5.87-.03.75.73.18.96-.68.26a3 3 0 0 0-1.2-.57c-.84-.12-2.46.05-2.67.28-.1.1-.27.2-.36.2-.1 0-.35.14-.57.32-.36.3-.57.32-3.35.4-1.8.05-3.11.15-3.33.25-.48.23-.95.21-1.19-.04" style="fill:#000"/></svg>