<svg xmlns="http://www.w3.org/2000/svg" xml:space="preserve" width="120mm" height="60mm" viewBox="0 0 120 60"><path d="m132.84 44.51 61.9 27.13" style="opacity:1;fill:#000;fill-opacity:.920746"/><path d="M36.89 12.54c-.1 0-.18.19-.18.41 0 .23.08.41.18.41s.17-.18.17-.4-.08-.42-.17-.42m61.46 1.22q-.07 0-.19.1c-.15.1-.26.3-.26.43 0 .3.29.28.42-.04q.2-.5.03-.49m-.63 2.07c-.18 0-.36.3-.36.67 0 .26.08.48.17.48.18 0 .45-.96.3-1.1a.2.2 0 0 0-.11-.05m-60.32.37h-.03c-.21.07-.25 2.05-.05 2.55.2.47.27.12.27-1.2 0-1-.05-1.36-.19-1.35m59.7 2.1c-.18 0-.43.65-.33.89.18.45.42.27.42-.32 0-.32-.04-.58-.08-.58m-16.13 1.25q-.29.02-.65.15a7 7 0 0 1-1.75.24c-.56 0-1.3.1-1.66.24s-.75.25-.9.25c-.14 0-.52.12-.84.26-.45.2-.68.22-.95.08-.29-.14-.4-.11-.61.17a6 6 0 0 1-2.4 1.14c-.15 0-.87.19-1.59.4-1.16.37-1.6.4-4.03.4-1.95 0-2.9-.07-3.33-.24-.45-.18-1.45-.24-3.96-.24-2.6 0-4.42-.1-8-.5-7.95-.84-9.7-.99-10.6-.87-.76.09-.97.05-1.42-.26-.44-.3-.62-.34-1.04-.2-.5.16-1.45.08-3.37-.29-1.8-.35-7.8-.2-8.06.2q-.3.43 1.7.45c1.37.01 3.11.33 2.9.54-.07.06-.35.11-.62.11-.76 0-.87.4-.88 3.09s-.12 3-1.09 3c-1 0-2.84.55-5.02 1.5-1.8.8-3.42 2.2-3.42 2.96 0 1.03.77 1.84 2.7 2.83 1.13.57 4.16 1.47 5.66 1.67.46.06.88.18.94.27.06.08.13 1.27.16 2.63.05 1.9.12 2.53.32 2.72.3.29 2.17.35 2.45.08.11-.1.23-1.06.27-2.2.09-2.4.15-2.77.5-2.77.3 0 .32.13.28 2.67-.04 1.93-.03 1.94.4 2.1.54.18 2.16.03 2.4-.23.08-.1.18-1.12.22-2.27q.06-2.08.28-2.3c.47-.43.63.13.65 2.2l.01 2.02 1.41.1c1.29.1 1.45.08 1.74-.22.17-.2.26-.46.2-.6-.17-.4-.1-3.35.09-3.52.09-.09.29-.11.44-.06.2.08.28.37.3 1.22l.05 1.73c.02.78.28.94 1.56.94 1.27 0 1.32-.1 1.27-2.18-.04-1.27.01-1.65.23-1.86.45-.41.58-.06.63 1.75.02.95.1 1.81.19 1.93s.46.2.98.18c.47-.02.94.02 1.05.08.1.07.35.04.54-.05.33-.16.37-.4.58-3.05.02-.18-.03-.45-.1-.6s.01-.4.21-.64c.33-.38.35-.38.53-.06.13.22.13.74.01 1.66-.25 1.93-.15 2.05 1.58 1.99l1.36-.05.1-2.09c.09-2.12.24-2.57.78-2.38.23.09.27.43.27 1.99 0 1.12.08 1.93.19 1.99.38.22 2.13.15 2.3-.1.09-.12.16-1.02.16-1.98 0-1.25.07-1.8.24-1.93s1.6-.16 4.64-.12c4.6.07 5.9.24 6.66.87.33.28.36.27.65-.1.27-.32.4-.36.92-.26.33.07.69.18.79.26s.2.85.22 1.73c.02.87.08 1.65.13 1.73.15.21 1.63.18 1.78-.04.06-.1.17-.98.23-1.93.1-1.53.15-1.75.43-1.8.18-.04.4 0 .5.09s.2 1.18.25 2.44.15 2.34.22 2.41.51.08.97.02c.8-.1.83-.12.85-.7.16-4.07.14-3.96.66-3.96q.6 0 .43.85c-.04.23 0 .58.11.76.19.33.22.33.73.06.52-.26.55-.26.8.05.23.28.23.35 0 .57-.22.2-.38.2-.8.06-.4-.14-.57-.14-.7.02-.27.3-.13 3.37.15 3.54.25.14 1.6.03 1.82-.14.07-.06.15-1.32.18-2.82l.05-2.7h.44c.43 0 .44.04.48 1.14l.1 3.34.07 2.2-.62.38c-.57.36-.65.38-1.11.16-.27-.13-.6-.24-.74-.24s-.45-.14-.69-.32a3 3 0 0 0-.95-.44 63 63 0 0 1-5.2-2l-.98-.42-4.8.04c-3.29.03-4.84-.02-4.92-.14-.06-.1-.21-.12-.33-.06-.11.07-1.16.18-2.33.25a62 62 0 0 0-5.21.48c-.73.09-2.09.22-3 .3-.93.07-1.9.2-2.14.3s-1.12.17-1.95.16c-.82 0-2.33.12-3.35.27-1.02.14-2.57.33-3.45.42-.87.1-2.76.3-4.19.49-1.43.17-3.54.36-4.69.42-2.33.12-2.87.2-2.87.4 0 .24.47.33 2.66.53 2.15.19 2.71.16 10.24-.53l4.07-.33c1.31-.1 3.54-.28 4.95-.41 5.14-.47 9.52-.77 9.8-.67q.28.1.28.7c0 .76.4.68.53-.11l.1-.56 5.12.05c5.03.05 5.13.06 5.43.41q.3.34.31.13 0-.23.5-.13c.9.16 2 .44 2.3.6.17.08.74.3 1.27.48l2.48.9 1.5.55 2.57-.08c1.82-.06 2.64-.14 2.84-.3.15-.13.47-.23.7-.23s.66-.07.95-.15l1.93-.52c.77-.2 1.6-.45 1.86-.58s.61-.23.79-.23.88-.22 1.57-.5c.68-.26 1.42-.49 1.63-.49.22 0 .55-.1.74-.24s.5-.24.7-.24.52-.12.71-.25.48-.24.64-.25c.16 0 .52-.1.8-.23l2.74-1.23a19 19 0 0 0 2.34-1.16c.24-.35-.28-.3-1.95.18l-3.75 1.06c-1.1.3-2.14.63-2.33.72s-.5.17-.68.17c-.2 0-.74.18-1.21.41-.48.23-1.18.46-1.57.51-.38.05-1.02.24-1.42.4-.4.18-.84.32-1 .32-.42 0-2.5.5-2.7.66-.33.24-1.84.53-2.27.43-.49-.12-.91-.9-.75-1.4.06-.17.14-1.48.18-2.9s.15-2.65.24-2.74c.2-.2 3.18-.44 5.33-.45.82 0 1.73-.09 2.03-.17.44-.14 2.4-.6 3.82-.92.71-.15 1.47-.4 1.65-.54.11-.09.67-.29 1.24-.44 1.39-.37 2.77-1.03 2.77-1.31 0-.32-.14-.38-2.56-1.16-1.17-.38-2.57-.86-3.1-1.05s-1.33-.42-1.77-.5c-.44-.07-1.04-.21-1.33-.3-.9-.3-2.25-.53-3.45-.62-2.93-.2-3.45-.29-3.97-.63-.3-.19-.6-.42-.66-.5-.07-.1-.1-1.57-.07-3.27.06-3.34.1-3.48.97-3.23 4.03 1.2 5.63 1.64 6 1.64.25 0 .62.15.83.33s.76.4 1.25.48c.48.09 1.23.3 1.67.5.43.18 1.01.33 1.29.33.73 0 1.54.63 1.54 1.19 0 .25.07.46.17.46q.17-.02.18-.23c0-.12.11-.31.26-.42.2-.16.7-.06 2.48.47 2.38.72 2.8.8 2.7.47-.06-.2-.84-.6-3.58-1.8l-1.24-.56.06-.77c.06-.89-.2-1.04-.44-.25-.14.47-.24.53-.86.56-.52.02-.82-.08-1.15-.36-.52-.44-1.17-.7-2.38-.9a8 8 0 0 1-1.77-.6c-.9-.43-4.03-1.4-6.88-2.1a6 6 0 0 0-1.65-.3m15.47 1.21q-.1 0-.23.17c-.06.1-.07.28-.02.41.16.39.47.28.47-.17q-.02-.4-.22-.4m-17.9.35q.44 0 .62.32c.12.22.17 1.39.13 3.4l-.05 3.08-.49.05c-.56.06-.52.28-.55-3.09l-.02-2.05-.86-.06c-1.3-.07-1.34-.01-1.3 2.62.02 1.92-.02 2.33-.27 2.55-.61.57-.77.2-.81-1.84-.02-1.17-.12-2.02-.24-2.16-.43-.47-.83-.56-1.38-.3-.53.26-.54.29-.56 1.61-.06 3.5 0 3.16-.6 3.16h-.53v-1.48c0-.81-.07-1.56-.14-1.67s-.5-.18-1.05-.16l-.93.03-.05 1.55a6 6 0 0 1-.24 1.77c-.11.12-.57.21-1.1.21-.5 0-1.54.11-2.32.24-.78.14-1.79.25-2.25.25s-.87.08-.93.17c-.17.24 1.16.2 2.85-.1 1.66-.28 3.45-.26 3.56.06.04.11-.08.2-.28.2-.19 0-1.2.27-2.27.6-1.76.55-2.11.6-4.22.65-2.54.05-3.47-.06-4.75-.58q-.88-.34-.75-.59c.07-.18-.03-.24-.4-.24-.84 0-.95-.3-.94-2.5l.02-2.24c.01-.17 1.31-.2 6.9-.16 5.73.04 6.92.01 7-.18q.09-.23.6-.13.52.1.73-.14c.12-.13.4-.24.64-.24s.75-.15 1.15-.34.88-.3 1.08-.26q.36.1.7-.31c.19-.23.52-.4.75-.4s.54-.12.69-.25a1 1 0 0 1 .5-.25c.12 0 .63-.18 1.11-.4q.81-.38 1.25-.4m-72.83.33q-.13 0-.04.14c.06.1.29.16.5.16a1 1 0 0 0 .28-.03q.02-.03-.25-.13a2 2 0 0 0-.5-.14m26.82.01q.3 0 .7.06c.5.06.8.16.65.22a6 6 0 0 0-.77.41c-.43.28-.48.4-.39.87.06.3.06 1.29 0 2.19-.12 1.5-.25 1.89-.5 1.5-.18-.26-.24-5.13-.07-5.22q.07-.04.38-.03m47.95.05c.29 0 .36.13.4.74.04.4.01.97-.05 1.27s-.21.54-.35.54c-.3 0-.49-.81-.41-1.81.04-.61.11-.74.4-.74m-44.63.4q.2 0 .7.06c1.26.14 1.55.6.58.94-.39.14-.42.25-.45 1.35-.03 1.09-.05 1.45-.12 2.3-.02.16-.1.3-.18.3-.4 0-.53-.55-.52-2.34 0-1.05-.06-2.08-.13-2.28-.07-.22-.1-.31.12-.32m-5.43.01c.52 0 .83.6.77 1.5-.05.8-.09.89-.5.92-.73.07-1.05-.22-1.05-.95 0-.7.41-1.47.78-1.47m-22.92.02q-.21 0-.28.05c-.07.06 0 .18.14.27.34.2 1.46.2 1.32 0-.1-.15-.78-.31-1.18-.32m4.27.09-.44.39q-.76.66-.16 1.22c.22.2.68.25 2.11.25 1 0 1.88-.06 1.93-.15s-.28-.3-.74-.5l-1.77-.79zm27.51.3c.79-.02 2.47.26 2.71.48.36.34.1.64-.36.4-.55-.26-.67.06-.66 1.67 0 .77-.04 1.53-.11 1.68-.11.27-.62.4-.81.22-.05-.04-.06-.84-.03-1.77s-.03-1.8-.11-1.92c-.09-.13-.38-.24-.65-.25-.6-.02-.77-.35-.25-.47q.1-.03.27-.03m-30.1.1c-.27 0-.22.05.02.23.42.3 1.22.33 1.12.04-.04-.11-.39-.22-.77-.25zm25.56.27c.26.01.33.13.44.48.09.3.1.79.04 1.11-.1.54-.17.59-.73.59-.71 0-.87-.22-.87-1.26 0-.82 0-.83.78-.9q.2-.02.34-.02m9.36.3c.37-.02 1.12.05 1.8.2.75.16.48.39-.61.52l-.71.1-.02 1.5a8 8 0 0 1-.15 1.68c-.15.22-.4.23-.53.02-.14-.2-.14-3.75 0-3.96q.04-.05.22-.06m33.05.3q.2.02.35.14c.18.17.18.34 0 .92q-.4 1.21-.74-.32c-.1-.48-.06-.62.2-.7a1 1 0 0 1 .2-.03m-28.47.16q.21 0 .5.1c.5.18.5.2.17.37-.2.1-.4.2-.44.25a10 10 0 0 0-.18 1.74c-.07 1.32-.14 1.68-.35 1.72-.46.08-.7-.28-.5-.71q.2-.38.01-.86c-.1-.28-.12-.58-.03-.71.08-.12.1-.54.05-.92-.1-.62-.06-.72.32-.88q.23-.1.45-.1m-9.68.07c.2 0 .25.14.29.69.02.4-.03.86-.13 1.03-.33.57-1.92.24-1.92-.4 0-.8.2-1.09.77-1.17zm3.05.12q.17 0 .47.15c.5.24.56.34.56 1.07 0 .92-.06.98-.8.84-.5-.09-.53-.14-.56-.93-.03-.82.04-1.14.33-1.13m10.44.43c.71.02 1.73.28 1.73.48 0 .08-.28.16-.61.16-.34 0-.67.08-.73.18-.07.1-.13.93-.12 1.85 0 .92-.08 1.76-.18 1.87-.23.27-.4.26-.66-.04q-.21-.25-.24-2.34l-.03-2.1.56-.05q.13 0 .28 0m-6.46.27q.16 0 .36.02c.59.1.67.16.69.6.01.26-.01.61-.06.77-.12.44-1.2.39-1.55-.07-.51-.7-.22-1.28.56-1.32m4.23.45c.47 0 .51.05.56.68.06.72-.1.86-.8.75-.46-.07-.73-.76-.45-1.17.1-.14.4-.26.69-.26m-27.5.03-.12.44c-.09.33-.23.43-.58.44-.26.01-.63.08-.82.16-.27.1-.14.14.5.15q.85 0 1.3.34c.25.18.46.33.48.33.07 0 2.71-1.1 2.9-1.22q.73-.42-1.88-.55zm51.09.3q.26 0 .26.48c0 .52-.38.77-.54.36-.17-.39-.01-.84.28-.84m6.55.08c.22 0 .5.67.39.94-.11.28-.49.26-.75-.03-.23-.26.03-.91.36-.91m-26.37.16c.63 0 .7.1.6.76-.08.43-.17.51-.6.52-.49.02-.52-.02-.52-.63 0-.6.03-.65.52-.65m29.53 0c-.5 0-.7.07-.7.25 0 .19.22.25.88.25.88 0 1.3-.21.79-.4a4 4 0 0 0-.97-.1m-52.68.04c.47.01.64.21.35.53a.8.8 0 0 1-.6.23c-1.36-.08-1.53-.46-.3-.7q.31-.06.55-.06m39.6.18c.21 0 .35.3.36.8 0 .53-.46.73-.7.3q-.4-.64.1-1a.4.4 0 0 1 .23-.1m-3.4.26c-1.06-.03-3.19.23-3.28.5-.14.38-.62.67-1.28.77-.39.06-.7.18-.7.26 0 .18 1.13.1 1.62-.1q.3-.14.7.3c.38.41.4.41.87.13 2.24-1.35 2.64-1.61 2.64-1.72 0-.09-.23-.13-.58-.14m-49.16.02c-.36 0-.66.07-.66.16 0 .21.7.21 1.06 0 .2-.12.1-.16-.4-.16m68.87.02h-.25c-.54.05-.5.09.57.42.63.2 1.74.65 2.47 1a8 8 0 0 0 1.76.67c.57.03.3-.18-.7-.54a5 5 0 0 1-1.06-.5 5 5 0 0 0-1.15-.5 7 7 0 0 1-1.09-.45 1 1 0 0 0-.55-.1m-52.38.14c.83 0 .99.4.25.66-.73.26-.96.18-.96-.36 0-.24.14-.3.71-.3m42.77 0c.38 0 .6.36.44.74-.05.14-.25.25-.44.25-.38 0-.6-.37-.44-.74.05-.14.25-.25.44-.25m-38.48.33c.4 0 .61.48.29.67a1 1 0 0 1-.42.14c-.35-.02-.98-.31-.98-.46s.6-.34 1.11-.35m4.14.4q.2 0 .28.06c.08.08.05.21-.08.3-.26.18-1.2.1-1.2-.1 0-.14.62-.27 1-.26m3.72.18h.14q.45.03.44.42c0 .25-.12.3-.66.29-1.27-.05-1.5-.35-.47-.62q.32-.07.55-.09m65.67.04c-.12 0-.33.23-.5.52q-.3.56-.71.59c-.5.03-.97.4-.5.4.17 0 .46-.07.65-.16.29-.15.38-.1.55.24.2.42.57.55.75.28.05-.08.67-.31 1.38-.51 1.8-.51 2.12-.64 2-.83-.07-.1-.45-.16-.86-.15a13 13 0 0 1-2.76-.38m-38.5.07c.16-.01.36.08.42.25q.06.2-.29.21c-.22 0-.37-.1-.37-.26q.02-.2.24-.2m-43.4.11c.5.01 1.07.26 1.07.61q0 .43-1.02.22c-.71-.14-.82-.23-.68-.56.08-.2.34-.27.63-.27m28.44.03c-.8 0-1.56.05-1.63.14-.05.08 0 .19.13.24.57.21 3.67-.02 3.28-.25-.16-.09-.98-.13-1.78-.13m21.66.14c.17 0 .31.23.31.67 0 .55-.06.66-.36.66-.46 0-.59-.32-.36-.87q.2-.46.41-.46m-30.51.03q.1 0 .27.02c.32.02.58.12.58.21 0 .1-.26.19-.58.22-.43.04-.57-.02-.57-.22q-.02-.22.3-.23m44.84.08q-.1.01-.29.46c-.16.35-.25.69-.2.76s.6.18 1.24.24c.88.09 1.22.2 1.38.44.27.41.74.36 3.82-.46.47-.12-.07-.37-1.37-.62-1.62-.32-2.05-.32-2.33-.01-.32.36-1.75.33-1.88-.04q-.24-.78-.36-.77m-40.8.25c.25-.01.53.13.58.36.04.2-.06.28-.39.28-.5 0-.77-.27-.5-.52q.13-.11.3-.12m-19.72.01c.44.01.9.19.84.44-.04.2-.27.29-.79.32-.82.06-1.13-.19-.71-.58.14-.13.4-.18.66-.18m36.1.01c.31 0 .7.29.58.48-.06.08-.3.14-.53.14-.49 0-.6-.44-.17-.6zm-32.03.3c.76 0 .9.04.84.28-.04.22-.26.3-.9.34-.74.04-.83.01-.83-.29s.1-.34.9-.34m54.21.02q-.18 0-.25.05-.08.1.15.26c.34.2 1.28.2 1.15 0-.1-.14-.7-.3-1.05-.3m-15.38.04c.25.01.4.26.3.53-.05.13-.25.23-.43.23-.42 0-.45-.59-.04-.73zm-34.77.26c.29 0 .53.08.53.17s-.24.16-.53.16-.53-.07-.53-.16c0-.1.24-.17.53-.17m31.45.07h.04q.13 0 .24.09c.15.12.28.28.28.35 0 .21-.67.18-.81-.03s.03-.4.25-.41m35.7.11c-.33 0-1.01.19-1.01.33 0 .2 1.01.19 1.15-.03q.1-.17.03-.26-.05-.03-.17-.04m-63.13.08c.6-.02 1 .17.83.42-.05.08-.5.14-.97.14-1.13 0-1.23-.4-.13-.54zm3.9.16q.21-.01.36.04c.11.03.2.2.2.38 0 .23-.11.31-.48.3-.65-.02-.93-.14-.93-.4 0-.15.46-.3.86-.32m56.12.24c-.8 0-1.26.13-1.26.35 0 .24 1.81.1 1.9-.15q.08-.2-.64-.2m-76.4.02q.15 0 .47.06 1.11.18.85.56c-.13.2-1.2.25-1.4.07-.06-.06-.12-.25-.12-.43s.03-.25.2-.26m40.35.33h.08c.19.04.33.24.37.51.04.37-.02.45-.31.45-.3 0-.37-.1-.37-.5 0-.34.05-.46.23-.46m-36.24.23c.42.01.91.16.87.33-.05.26-1.08.38-1.39.17-.25-.17-.25-.22-.02-.4q.12-.09.36-.1zm46.56 0q.1 0 .19.05.2.1-.2.57c-.4.47-.64.44-.64-.07 0-.28.36-.55.65-.55m-42.83.18c.44 0 1.17.15 1.21.3.05.24-1.4.31-1.56.08-.07-.1-.05-.24.03-.32q.09-.06.32-.06m4.5.23c.3 0 .55.07.55.16 0 .19-.87.15-1-.04-.05-.07.16-.12.46-.12m31.58 0c.15 0 .27.07.27.15 0 .2-.28.36-.42.22-.2-.18-.12-.37.15-.37m3.12.05c.13 0 .26.15.3.41q.04.34-.2.36c-.35 0-.45-.14-.35-.51q.1-.27.25-.26m-30.47.3c.4 0 .6.12.47.31-.13.2-.98.2-1.31 0-.19-.1-.09-.17.39-.26q.25-.04.45-.04m-23.79.08q.3.02-.15.46c-.34.31-.6.33-.6.04 0-.12.19-.3.43-.41a1 1 0 0 1 .32-.09m27.46.06q.62 0 .57.2c-.09.23-.27.27-.8.17-.63-.1-.47-.37.23-.37m3.9.33q.43 0 .38.2c-.12.32-.84.36-.84.06q0-.26.45-.26m-23.96.08q.15 0 .46.12c.56.2.8.62.36.62-.13 0-.39.05-.6.1-.5.12-.84-.28-.55-.65q.14-.2.33-.2m40.44.25q.22 0 .2.33c0 .24-.1.32-.43.32-.5 0-.61-.4-.17-.55q.26-.1.4-.1m-36.49.07.24.03c.68.12.72.34.1.56-.59.2-.7.2-.93-.07-.27-.3.05-.55.6-.52m4.08.11.21.01c.37.03.67.13.67.22 0 .2-1.02.31-1.2.14q-.37-.36.32-.37m4.06 0c.22 0 .46.08.5.2.01.09-.19.18-.46.2q-.49.07-.48-.2c0-.13.21-.2.44-.2m-29.62.15c-.38 0-.76.1-.89.24-.17.2-.7.25-2.68.25-1.9 0-2.46.05-2.4.2.05.15.72.22 2.44.23 2.18.02 2.39.05 2.64.36.38.49.4.49 3.77-.32.79-.19.7-.47-.13-.47-.32 0-.92-.11-1.34-.25a6 6 0 0 0-1.41-.24m53.68.19q.16 0 .48.05c.4.07 1.03.14 1.37.15.5.01.63.08.68.4.03.22-.05.46-.18.54s-.28.13-.33.12c-1.39-.24-1.71-.35-1.98-.67-.35-.43-.4-.6-.04-.6m-7.33 0c1.69-.04 3.64-.04 4.81.05 1.77.12 1.95.22 1.48.8-.2.27-.68.3-4.77.38l-4.54.08-.2-.43c-.17-.31-.17-.47-.02-.61.13-.12 1.55-.22 3.24-.26m18.12.3c.27.01.43.31.22.7q-.31.55-.66-.02-.18-.3.03-.5.22-.19.41-.18m38.08.03q-.54-.02-.62.2c-.1.23-.61.26-4.24.26-2.56 0-4.16.06-4.23.17-.07.1 1.26.16 3.86.16 4.03 0 4.54.04 4.54.4 0 .1.08.27.18.37.2.17.31.16 2.64-.32 1.23-.25 1.57-.55.77-.7-.27-.04-.86-.17-1.3-.27a9 9 0 0 0-1.6-.27m-69.01 0q.34.01.62.15c.39.2.4.2.05.33-.62.22-1.56.07-1.45-.24.06-.17.4-.25.78-.24m33.96.02c.22 0 .5.25.66.73.1.29.05.37-.2.36-.57-.03-.76-.17-.76-.57 0-.35.13-.51.3-.52m-29.98.02c.3 0 .6.1.64.3.05.23-.06.29-.56.29-.67 0-.95-.2-.6-.44a1 1 0 0 1 .52-.15m3.95.26c.24 0 .44.07.44.16 0 .1-.2.17-.44.17-.25 0-.44-.08-.44-.17s.2-.16.44-.16m42.88.16q.17.02.18.17-.02.15-.18.16-.16-.01-.18-.16.01-.16.18-.17m-66.88.38q.2-.01.46.04c.47.08.64.19.6.38-.08.39-1.34.47-1.5.1q-.17-.48.44-.52m12.25.11q.54 0 .48.21c-.12.32-1.02.37-1.02.05q0-.27.54-.26m31.38 0q.08.02.09.17-.02.15-.2.16-.16-.01-.07-.16.1-.14.18-.17m-35.3.04c.36 0 .72.14.72.31 0 .09-.31.14-.7.12-.76-.04-.93-.22-.36-.38q.16-.05.35-.05m-4.3.03q.2 0 .43.04c.62.12.7.47.13.61q-1.2.3-1.2-.31c0-.22.26-.34.64-.34m-11.86.48.09.03q.16.1.17.17-.02.07-.17.08a.2.2 0 0 1-.18-.18q0-.1.08-.1m27.87.11c.63 0 .7.04.51.25-.12.13-.45.25-.73.25q-.5 0-.5-.25c0-.18.19-.25.72-.25m3.87 0q.53 0 .53.25t-.53.25-.53-.25.53-.25m-7.87.05q.98 0 .97.2c0 .12-.12.26-.28.31-.15.05-.29.09-.3.07a6 6 0 0 0-.7-.09c-1.08-.1-.84-.5.31-.5m30.77.28q.66-.02.33.73c-.14.34-.29.32-.55-.07-.33-.49-.27-.66.22-.66m3.18.17c.15 0 .27.14.27.32 0 .19-.12.33-.27.33-.14 0-.26-.14-.26-.33 0-.18.12-.32.26-.32m-18.53.04a8.7 8.7 0 0 1 4.25.9c.64.31.71.45.3.6-.47.17-1.2.1-1.84-.17-.52-.2-1.11-.23-3.56-.13-2.16.08-3.04.06-3.33-.09-.53-.26-.3-.45.8-.67 1.31-.27 2.4-.42 3.38-.44m6.77.12c.2 0 .33.07.27.16-.06.1-.18.17-.27.17-.08 0-.2-.08-.26-.17s.06-.16.26-.16m5.4.16c.14 0 .26.08.26.17s-.12.16-.26.16-.27-.07-.27-.16c0-.1.12-.17.27-.17m-31.16.02q.31.01.3.22c0 .19-.18.26-.64.26-.8 0-.73-.4.08-.47zm-4.7.11q.16 0 .4.02c.9.05.97.09.8.34-.06.1-.47.17-.91.17-.66 0-.79-.05-.74-.28.03-.17.14-.24.46-.25m32.48.03c.23-.01.46.12.46.34q0 .32-.34.33c-.4 0-.62-.25-.46-.5q.13-.17.34-.17m-40 .17c.36 0 .72.1.79.26.05.14.07.28.03.31-.03.03-.34.1-.68.17-.67.11-1.1-.12-.94-.51.07-.16.43-.24.8-.23m3.63.11h.12c.62.05.8.2.45.4a2 2 0 0 1-.67.15q-.44.01-.35-.29.05-.25.45-.26m16.15.22c.6 0 .71.05.66.29-.04.2-.25.3-.72.34-.57.04-.66 0-.66-.29s.11-.34.72-.34m3.6.03c.24 0 .48.16.41.34-.1.28-.6.35-.75.12-.07-.1-.04-.27.06-.36a.4.4 0 0 1 .28-.1m-7.15.06q.68.02.47.48c-.07.18-.35.25-1 .25-.74 0-.88-.04-.88-.3 0-.25.17-.33.84-.4q.33-.05.57-.03m27.03.4c.26 0 .6.47.48.66-.14.2-.29.2-.61.02-.26-.15-.15-.68.13-.68m3.3.33c.35 0 .44.09.44.41 0 .44-.32.54-.67.22s-.24-.63.23-.63m-34.69.01c.37-.01.74.12.74.32 0 .34-.86.41-1.14.1-.19-.21-.18-.28.04-.36q.17-.06.36-.06m-3.53.28c.32 0 .38.07.38.29 0 .28-.12.33-.78.33-.47 0-.8-.09-.86-.21-.12-.3-.06-.33.84-.4zm31.88.05c.16 0 .23.07.3.24.11.27-.37.57-.72.46-.32-.1-.28-.49.05-.6q.24-.1.37-.1m9.6.03c.18 0 .37.13.37.3 0 .2-.48.2-.62 0-.05-.08-.02-.2.08-.25a.3.3 0 0 1 .17-.05m-46.03.13c.34 0 .68.16.68.4q.01.35-.44.38c-.59.06-.96-.19-.82-.53.07-.18.32-.26.58-.25M54 36.4c.33.01.62.25.5.44-.07.1-.33.18-.57.18-.33 0-.43-.07-.39-.28.03-.16.18-.3.32-.33zm-23.64.13c.33 0 .87.42.87.67 0 .22-1.55.19-1.7-.04-.15-.22.4-.63.83-.63m19.71.07.15.03c.16.06.27.19.23.3-.08.23-.77.33-.9.12-.13-.19.17-.43.47-.45zm17.33.32q-.1 0-.1.45c0 .32.06.64.13.71s.16-.11.2-.4c.03-.3-.03-.61-.14-.71q-.05-.05-.09-.05m-20.8 0q.6.05.42.54c-.16.4-1.65.16-1.65-.26 0-.07.34-.18.74-.24q.3-.05.5-.03m33.6.1q.17.02.28.17.07.15-.17.16c-.15 0-.28-.07-.28-.16q.02-.16.17-.17m-6.35.2c.21.01.4.24.27.45-.07.1-.19.18-.27.18-.28 0-.4-.35-.2-.54a.3.3 0 0 1 .2-.08m-31.47.13c.43 0 .66.48.32.67-.36.22-.68.19-.8-.08-.13-.34.07-.59.48-.59m28.12.5c.37 0 .44.33.16.83-.25.43-.5.4-.63-.09q-.2-.74.47-.74m-32.66.01q.16 0 .4.02c.6.03.86.12.86.28 0 .29-.19.33-.96.2-.33-.06-.64-.2-.68-.32s.05-.17.38-.18m15.99.15c.56 0 .75.33.44.76-.4.58-.76.5-.76-.18 0-.45.07-.58.32-.58m-3.59.16c.52 0 .75.6.45 1.14-.29.5-1.03.46-1.17-.05-.15-.56.2-1.09.72-1.09m-16.15 0c.28.02.55.1.61.26.06.14.08.28.04.3-.44.37-1.6.05-1.32-.37.1-.14.38-.2.67-.18m-3.7.07q.22-.01.43.04c.47.1.55.63.13.78-.37.13-1.05.13-1.2 0-.06-.07-.11-.25-.11-.4 0-.24.33-.41.75-.42m49.78.19c.16-.01.33.12.37.38.03.21-.02.46-.1.54-.23.2-.63-.26-.55-.63q.07-.29.28-.3m-33.46.07c.38 0 .36 1.58-.02 1.71-.72.26-1.5-.24-1.5-.97 0-.34.1-.4.53-.4.28 0 .57-.08.63-.17s.22-.17.36-.17m27.02.22c.22 0 .46.52.47 1.39 0 .1-.2.2-.44.2-.41 0-.43-.04-.37-.78q.1-.82.34-.81m-14.54.11c-.21 0-.38.63-.25.94.08.2.13.2.25.02.2-.29.2-.96 0-.96m8.68.02q-.03 0-.03.24c0 .2.05.4.12.47.21.2.27-.2.07-.52q-.12-.2-.16-.2m-25.33.31c.33 0 .37.08.33.62-.04.38-.16.63-.33.66-.35.06-1.06-.41-1.06-.7s.55-.58 1.06-.58m-3.7.28c.21 0 .24.11.21.54-.03.32-.08.67-.13.78-.05.13-.4.2-.88.2-.86 0-.91-.08-.64-.97q.12-.42.55-.46zm-4.75.4c.44 0 .61.2.73.75.08.37.03.6-.16.78-.34.32-1.11.33-1.24.03a3 3 0 0 1-.04-.87c.05-.53.12-.64.5-.67zm42.86.34q.48 0 .4.81c-.05.47-.13.56-.54.6-.46.06-.49.02-.49-.6 0-.52.08-.68.37-.77zm-46.89.01q.31 0 .73.33l.5.4-.42.51c-.23.3-.49.53-.57.53-.21 0-.7-1.13-.63-1.46q.09-.3.4-.3m50.06.83q.1 0 .1.33c0 .5-.14.58-.3.18a.4.4 0 0 1 .1-.44q.06-.06.1-.07m.04 1.02q.21 0 .23.46c0 .59-.25.84-.53.53-.18-.2-.19-.35-.03-.68q.16-.3.33-.3M69.1 43.47q-.03 0-.03.15c0 .15.04.31.1.37.22.2.28-.02.09-.33q-.12-.2-.16-.19m.43.86c-.13 0-.02.51.38 1.75.26.77.3.83.36.44.03-.26-.07-.64-.22-.86a2 2 0 0 1-.28-.8c0-.23-.09-.46-.19-.51zm-12.14.27c-.1 0-.18.19-.18.42s.08.37.18.32c.1-.06.18-.25.18-.43s-.08-.31-.18-.31m-.53 1.8q-.16.02-.18.15c0 .09-.05.27-.1.42q-.12.26.17.26t.29-.42c0-.22-.08-.4-.18-.4m13.67 1.35c-.1 0-.08.22.07.57.13.3.13.3.2 0 .03-.17-.03-.39-.13-.49q-.08-.08-.14-.08m-14.25.54q-.07 0-.15.11a1 1 0 0 0-.15.43q0 .13.08.17h.19q.11-.05.19-.2c.1-.27-.01-.52-.16-.5" style="fill:#000"/><path d="M36.76 12.66c.03.1.09.18.1.29.18.88.22 1.8.32 2.7l.57 4.93c.02.2.33 2.15.27 2.33q-.03.01-.08 0" style="fill:none;stroke:#000;stroke-width:.218825px;stroke-linecap:butt;stroke-linejoin:miter;stroke-opacity:1"/><path d="M66.36 34.63c.13.13.32.25.4.38.59 1.17.71 2.39 1.07 3.56l1.98 6.53c.08.26 1.16 2.83.94 3.06-.04.03-.18.01-.27.01" style="fill:none;stroke:#000;stroke-width:.468962px;stroke-linecap:butt;stroke-linejoin:miter;stroke-opacity:1"/><path d="M98.46 14.04c-.11.13-.27.26-.33.4-.51 1.22-.62 2.5-.92 3.73l-1.68 6.85c-.07.27-1 2.97-.8 3.22.03.03.15 0 .23.01" style="fill:none;stroke:#000;stroke-width:.44279px;stroke-linecap:butt;stroke-linejoin:miter;stroke-opacity:1"/><path d="M74.17 14.1c-.06.09-.16.17-.18.26-.15.77.03 1.57.05 2.35l.08 4.32c0 .17-.17 1.87.04 2.03.02.02.12 0 .18 0" style="fill:none;stroke:#000;stroke-width:.314454px;stroke-linecap:butt;stroke-linejoin:miter;stroke-opacity:1"/><path d="M59.36 38.7c-.09.1-.22.2-.27.3-.4.85-.49 1.75-.73 2.61L57 46.42c-.05.2-.79 2.09-.63 2.26.02.02.12 0 .18 0" style="fill:none;stroke:#000;stroke-width:.332661px;stroke-linecap:butt;stroke-linejoin:miter;stroke-opacity:1"/><path d="M17.57 25.85c.7.03 1.45-.07 2.12.1.06.01.13-.03.18 0 .03.01-.02.07 0 .09.07.03 1.6.02 1.66 0 .19-.07.19-.1.37-.1M5.61 21.53c.2.07.44-.05.65 0 .24.06.78.22 1 .37.23.15.36.27.56.37.06.02.13-.03.18 0 .17.08.39.1.56.18q.04.05.09.1c.14.04.32-.05.46 0q.09.03.18.08.23.11.46.19c.39.1.98 0 1.38 0M59.8 27.33c.16 0 .46.15.46 0 0-.16-.6 0-.46 0h2.03M84.46 25.67c.28-.02 2.49-.02 2.49.37M91 27.79c.67.06.95.53 1.56.73.27.1.85 0 1.1 0 .17 0 .83-.12.83.1M107 29.26c.16 0 .46.15.46 0s-.6.05-.46 0c.24-.08.5-.03.74-.1.03 0-.02-.06 0-.09q.08-.05.18-.09c.09-.04.31.06.37 0 .02-.02-.02-.07 0-.09.06-.06.3.06.37 0 .02-.02-.02-.07 0-.1.05-.04.3.03.37 0 .47-.15 1.15-.45 1.65-.45" style="fill:none;stroke:#000;stroke-width:.264583px;stroke-linecap:butt;stroke-linejoin:miter;stroke-opacity:1"/><text xml:space="preserve" x="30.71" y="11.58" style="font-size:3.88522px;writing-mode:lr-tb;direction:ltr;fill:#000;fill-opacity:.920746;stroke-width:.416274"><tspan x="30.71" y="11.58" style="stroke-width:.416274;fill:#000">압축기</tspan></text><text xml:space="preserve" x="69.96" y="12.1" style="font-size:3.88522px;writing-mode:lr-tb;direction:ltr;fill:#000;fill-opacity:.920746;stroke-width:.416274"><tspan x="69.96" y="12.1" style="fill:#000;stroke-width:.416274">터빈</tspan></text><text xml:space="preserve" x="49.81" y="53.6" style="font-size:3.88522px;writing-mode:lr-tb;direction:ltr;fill:#000;fill-opacity:.920746;stroke-width:.416274"><tspan x="49.81" y="53.6" style="fill:#000;stroke-width:.416274">연소실</tspan></text><text xml:space="preserve" x="68.19" y="53.3" style="font-size:3.88522px;writing-mode:lr-tb;direction:ltr;fill:#000;fill-opacity:.920746;stroke-width:.416274"><tspan x="68.19" y="53.3" style="fill:#000;stroke-width:.416274">축</tspan></text><text xml:space="preserve" x="94.37" y="12.34" style="font-size:3.88522px;writing-mode:lr-tb;direction:ltr;fill:#000;fill-opacity:.920746;stroke-width:.416274"><tspan x="94.37" y="12.34" style="fill:#000;stroke-width:.416274">노즐</tspan></text></svg>