<svg xmlns="http://www.w3.org/2000/svg" xml:space="preserve" width="192" height="122" viewBox="0 0 192 122"><path d="m104.1 94.6-.1-.2.4-.2.4-.2v-2.6l-.3-.3-.3-.4.3-.3.4-.4h.3l.4.1v2l.1 2.1h.4v.6h-1.9zm4.9-.4-.6-.6-.1-.6-.1-.7v-.6l.6-1.1.5-.6h1.6l.3.7.4.6.5-.6.5-.7h1.7l.2.7q.3 1 .8 0l.4-.7h1.6l.3.4.4.4.1 1 .2.9-.3.7-.3.8-.4.3-.5.4-.5-.1h-.5l-.5-.8-.4-.7-.3.5-.2.6-.5.2-.5.3-.6-.2-.5-.2-.3-.5q-.3-.9-1 .2l-.3.6h-1.2zm-43.1-2.8-.2-.2v-3l.1-3h.9v2.5h2.1l-.3-.3-.4-.4v-.4q0-.5.3-.8l.2-.4h2l1.8.1v.5h-2.9l-.3.3-.2.2v.2l.2.2h3.3v.4l-.2.4h.8v.8l-.3.2-.2.2-.2.8v1l.1.1.3.2-.2.4v.3h-2.2l-2.2-.1v-.7l.3-1 .2-.1h2.8v-.4h-3.1l-.2-.4-.3-.5-.6.1h-.5l-.1 1.5-.1 1.5h-.3l-.2.1zm12 .2-.2-.2v-6.2h.9v2l.4.5.5.5-.4.3-.4.3-.1 1.4-.2 1.4H78m6-.1-.2-.7v-.5l-2 .1H80l-.3-.2-.2-.3.3-.3.2-.2h1.9l1.9-.1v-4l.4-.1.3-.2.1.3v6.3h-.3l-.2.1zm10.6 0V89h4.1v2.5h-2l-2 .1zm-5.9-1v-1h.3l.3-.1.3.6.2.7h.7V90l-.2-.8-.2-.3h-1.9l-.2-.2.1-.3.1-.4H91l2.7.1.2-.2.3-.3h3.7v-1.2H96l-1.6-.1v-.9h4.1v2.2l.4.1.4.1v.7l-.5.1-.5.1H96l-2.4-.2v.4h-1l-1 .1-.3.2v.6l-.1.6.8.2h.8l.1.4v.4h-4.4zM63 90.4l-.5-.3-.3-.5-.3-.5.1-1.3.1-1.2.6-.5.5-.4h.9l.5.5.5.6v2.6l-.6.6c-.7.7-.8.7-1.5.4m10.6-.4v-.4h.2c.3 0 1-1.1 1.2-1.8l.2-.7-.6-.2q-.5-.1-.6-.4l-.2-.2.3-.4.2-.3h1.4l1.4.2v.4l.1.5-.6.1-.7.2.2.6q0 .7.6 1.4l.5 1.1v.3h-.2l-.8-.6-.7-.7-.5.7-.6.6h-.8zm7.6-1.2h-.5l-.4-.6-.4-.5v-.9l.5-.6.5-.5h.5q.6 0 1 .2l.6.2.1.5.1 1v.5l-.3.3a2 2 0 0 1-1.7.4m21.5-.6c0-.4.4-.4 8.4-.5h8.1l.1.3v.4h-16.6zm-12.2-.5h-1.7v-1.3l-.2-1.2h.9v.4q.3.2.2.8v.5h1.6l1.6.1.1.3v.4h-2.5m19.6-1.6-.2-.3.3-.3.3-.4V84l.1-1.2-.3-.3-.4-.2.5-.4.6-.4.2.2.2.1v3.7l.3.2q.5.4-.7.6h-.8zM30 69.8l-.7-.4-.1-.5q-.2-.8-.1-1.8v-.6l.5-.6.6-.7h.6c.8 0 1 .2 1.5.9l.3.5v2l-.2.4q-.9 1.8-2.4.8m1.5-1.1.3-.8-.2-.9-.3-1-.2-.2-.3-.2-.2.1-.4 1-.1.8.1 1 .2.9h.7zM53.9 70l-.4-.2v-.3l.2-.4.2-.1.5.3.4.3.4-.2.4-.2v-.6q.1-1-1-1.2l-.8-.2v-.4l-.1-.3.4-.6.5-.7h1.9v.9H55v.2q0 .1.2.2.3 0 .8.5l.4.4v.9c0 1.4-1.4 2.4-2.5 1.7m50.4 0-.5-.3V69h.4q.4 0 .6.2l.2.2.4-.2.5-.3v-.3l-.2-.7-.2-.3-.6-.2h-.7v-.5l.3-1 .2-.5h.5q.4-.3.8-.1h.4v.8l-.5.2h-.5l.6.6.5.5.1.5.1.6-.2.5-.2.6-.7.3-.8.3zm-27 0v-4.5h1l.1 1.7.2 2.3v.4h-1.3m3-.3q-.4-.4-.7-.9l-.2-.4v-1.7l.5-.7.4-.7h.8l.8-.1.4.7.4.7v2l-.4.6-.5.6-.5.1-.6.1zm21.3-2v-2.2h1v3.4l.3.3.3.5v.3h-1.6zm27.5 2-.8-.7-.3-.5V67h-.2s-1.3 1.5-1.4 2h1.4v.7h-.3l-1.3.2h-1v-.3l-.2-.3.9-1 .9-1v-.9l-.4-.2h-.3l-.4.2q-.3.4-.6.4h-.2v-.3l.4-.8.4-.4h1.2l.5.6.5.6.6-.6.7-.6h.3v.3l-.2.5h-.2v3l.3.1.3.1.3-.2.2-.3v-2.6l-.3-.3-.2-.3.2-.2.2-.1.5.5.5.5.1.8.2.9-.4.8-.3.8-.5.3c-.6.3-.5.3-1.1 0m23.5 0-.4-.1v-.7l.7.1.8.2.2-.4.2-.4-.2-.6-.2-.5h-1.1l-.1-.3-.1-.4.3-.7.4-.7h.8l1 .1v.7h-1l-.7.2.6.2.8.7.3.3v1.3l-.3.4-.3.5h-.5q-.3 0-.7.2l-.1.2zm-3.6-.1-.2-.2.4-.5 1.5-2 .1-.4-.1-.2-.6-.2h-.4l-.2.3-.2.3h-.3l-.4-.2.3-.5.8-.7.6-.3.4.2h.5l.3.7.3.5-.3.7q-.3.8-.7 1.1l-.4.4v.2l.2.2.6-.1.6-.2v.3l-.2.6-.3.2h-2.2zm-94-6.8V52.3l-.1-.2-.2-.2H51l-.1 4.4c-.1 4.6-.1 4.3-.4 4.3h-.2v-8.2l-.3-.3-.3-.2h-3.7l-.1 4.3-.1 4.1h-.4l-.1-4.1L45 52h-4l-.1.6-.2 4.3v3.6l-.3-.1-.2-.1v-4l-.1-4.2V52h-4l-.1.3-.1 4.3v4h-.4l-.1-1.3c-.1-.8-.2-2.6-.1-4v-2.8l-.1-.3-.2-.2h-3.7l-.1.2-.2.2v10.2l-.3.2h-.2l-.1-5.3V52l-2.8-.1-2.8-.1v-.4l1.2-.1h1.1v-2.5l.1-4V43l.3-.1.2-.1V47l.1 4.2h4.3l.1-4.2c.1-4.1.2-4.6.6-4l.1.2v8h4.3v-6.8l.1-6.7h.7v13.6h2.1l2.1-.1.1-4 .2-4h.2l.3-.1v8.2h2.2l2.3-.1-.1-.5v-3.9l.2-3.5h.4v4L48 51h.4c.2.1 1.3.2 2.3.1h1.9v-4l.2-4h.2l.3-.1v4l.1 4h4.3V38l.3-.1.3-.1v13.1l.1.4H63v-4l.1-4 .2.1.2.1v3.9l.1 3.9h4.4v-8.1h.3l.2.2v4l.1 4h2.2l2.3-.1v-3.7l-.1-3.7.1-.3.4-.4h.1v4l.1 4H78v-6.6L78 38l.3-.1.3-.1v13.5H83v-7.8l.3-.3.3-.3v.2l.2 7.8v.5h2.1l2.1-.1.2-4.1v-4h.5v8.1l2 .1h2.5v-8l.3-.1.3-.1v8l.4.1.3.2h1.2l1.8-.1h.7V37.7h.6v13.5l.4.1c.6.2 2.8.2 3.4 0l.6-.2v-7.7h.5v3.8l.1 4 .3.1.2.2h3.7l.1-.3.2-.2v-3.5l-.1-3.4.1-.4q0-.4.3-.4h.2v8h.5c.2.1 1.2.2 2.1.1h1.7v-4l.2-4.1.3-.1.2-.1v4l.1 4h4.4v-8.9l-.6-.6q-.7-.6-1.7-1.2l-1.1-.7v-1.5l-.5-.4-2.5-2.7-6.8-7.8q-1-1-1-1.3c0-.2.7-.2.8 0 0 .2 4.2 5 8.8 10.1l1.7 2 .6-.1.5-.1.7 1.4.7 1.3h.2l.2-.1v-2.2l.1-.6.2.1.2.2v13.2h4.5v-7.8h.4l.1 3.9.1 3.9h4.4v-7.3l.1-.5.2-.4.1.3c0 .2.2 2 .2 4.1v3.8h4.4l.1-4v-4l.3-.2.2-.2v8.4h4.5V37.8h.3l.2.1v3.8l.2 6.7v3h2.1l2.1-.1.2-4.1v-4h.5v4l.2 4h4.2V43h.3l.3.2v4l.2 4 2.1.1h2.2v-8.1h.5v4l.1 4h.3l.8.3h.6l-.1.2-1.7.3h-1.5v11h-.3c-.3 0-.4-.8-.4-5.8v-5.2h-4v.6l-.2 4.3v3.7l-.2-.1h-.2l-.1-4.1c0-2.2-.2-4.1-.2-4.2l-.1-.2H143l-.2.2-.2 4v4h-.3l-.2.2V56L142 52h-4V56l-.2 4.2h-.2l-.3.2v-8.3l-.2-.1-.3-.2h-3.1l-.4.2-.4.2v8.2l-.2-.1-.3-.1-.1-4.2-.1-4.1h-3.6l-.5.1v10.7h-.4l-.2.2V52l-.2-.2h-3.9v4.2l-.2 4.2h-.2l-.3.2v-8.1l-.3-.3-.3-.2H119v4.3l-.2 4.1h-.4v-3.8l.1-3.7-.2-.5-.2-.4h-3.5l-.3.2-.4.3v8h-.5l-.1-4.2-.1-4.2h-2l-2 .2-.3.1v8.1l-.2.1-.2.1-.1-.4-.1-.4v-3.5l.2-3.4-.2-.4-.2-.4h-3.7l-.2.4-.1.3v10h-.5v-5.2l-.1-5.3-.3-.1-1.7-.2h-1.5l-.3.1-.4.2v8.1H99c-.3 0-.2.2-.2-4.2v-3.7l-.3-.2-.3-.2h-3.6l-.2.2v8.1h-.2l-.3-.1v-4l-.1-3.9-.2-.2-.2-.2H90l-.4.1v8h-.3l-.2-.2v-7.8h-.5l-2-.1H85l-.2.1-.1.2v7.9l-.2.1-.2.2-.2-.2-.1-.1v-3.8l.1-3.8-.2-.3-.2-.3h-3.5l-.3.2v10.3h-.3l-.2.1-.1-5.3-.1-5.3h-4v.2l-.2 4.1-.1 4-.2-.2-.2-.1v-7.6l-.3-.3-.2-.2h-3.4l-.3.3-.2.1v8l-.2.2-.2-.2-.1-.1v-7.5l-.2-.7h-3.7l-.4.1v8.4l-.3-.1-.2-.1v-4l-.1-4-.3-.2-.2-.2h-1.6l-2 .1-.3.1v8.4l-.2-.1h-.3v-8l-.2-.3-.2-.2h-3.4l-.3.2-.2.3v10.3l-.2.1zM37.8 36.3h-.3v-.9h-1.2l-.2-.3-.3-.3.3-.7 1-1.4.9-1 .2-.2h.2l.2.2V34l.3.4.4.4-.4.4-.3.7q-.2.7-.8.4m18.7-.1-.2-.3.1-.3.2-.2h.8l.9.1v-.7l.1-.6-1-.5c-1-.5-1-.3-.4-1.4l.4-.9 1 .1h1v.8h-1.6v.2q0 .2.5.4l.8.7.3.5v1.1l-.6.7-.6.6h-1.4Zm21.1-.3-.5-.6.1-1.2.1-1.2.5-.5q1-1 2-1.1.8 0-.4.8c-1 .6-1 .6 0 1l.6.3v1.2l.1 1-.3.5-.4.4H78zm20.3-.1q.1-.8.5-1.5l.3-1q0-.3.2-.5l.2-.3v-.2h-.7l-1.1.3-.5.2v-.9l.4-.2.4-.2 1.1.1 1.1.2v.7q-.1 1.2-1 3.1l-.4.7-.3.1-.3.1zm19.7.2c-.7-.7-.7-1-.1-1.7l.4-.5-.3-.3-.3-.2V32l.4-.3.5-.3h1.3l.4.4q.6.9 0 1.5l-.3.3.4.6q.7 1 0 1.7l-.5.5H118zm19.7.2v-.3l.6-.3.6-.5v-.3h-.2l-.8-.4-.6-.4v-.6l-.2-.5.5-.7.4-.6.7-.1h.7l.5.4.5.5v2.4l-.8.8-.9.9h-1zM91.6 23.8l-.1-.8v-.7l.2-.1.2-.2-.2-.2-.2-.3v-.2l.2-.3h3.1v-3l.3-.3.3-.2.2.2v5.4l.1.2.2.4v.3h-4.1zm9.3-.2v-6.1h.6V24h-.6zm11.3 0-.3-.1v-1.6l.4-.2h.4l.2.6v.5l1.5.1 1.6.1v.3l.1.2-.2.1-2 .2-1.5.1zm-8.8-.3-.3-.4.3-.5.2-.5-.6-.2h-.7v-.4l.1-.4h1.6v-.3q0-.2-.5-.4l-.6-.2.1-1v-1l1.4-.2 1.3-.1.3.2.3.3v.2l-.1.2-1.2.2h-1l-.2.4v.4h2.3l.1.2.1.2-.7.3-.6.3.3.1.4.2.5-.1.5-.2v-1.4l.1-1.4h.7v4.6h-.3l-.3.1-.2-.5-.2-.5-1 .1-1.2.2h-.2v.6l.2.5h1.5q1.4 0 1.7.3l.1.1-.1.2-.2.3h-3.7zm-6.8-.7-.1-.3.4-.4c1-.8 1.2-1.9.3-1.9h-.5v-.8l.3-.2h.3v-1l.4-.2H99l.2.2.2.5v.2l.4.4.5.4-.1.3-.2.2h-1l-.1.2-.1.2.3.5.7 1q.7.7.1 1h-.2l-.7-.6-.6-.7-.6.7q-1 1-1.2.3m18.8-.4-.1-1.1v-1l-.7-.3-.6-.2v-.3l.2-.2.5-.1.5-.2.1-.6.2-.7h.6v4.8h-.3zm-4.3-1 .5-.8.6-.5.1-1 .2-.9h.3l.3-.1.2.7.1.7.8.9.7.9-.2.2-.2.2-.6-.4-.8-.6-.3-.2-.4.6-.5.6h-.8zm-20-.9-.4-.5V19l.5-.7.5-.6H93l.4.5.5.5v1.5l-.5.3-.4.3h-1.2Z" style="fill:#000"/></svg>