<svg xmlns="http://www.w3.org/2000/svg" xml:space="preserve" width="120mm" height="60mm" viewBox="0 0 120 60"><path d="m132.84 44.51 61.9 27.13" style="opacity:1;fill:#000;fill-opacity:.920746"/><path d="M36.74 54.64c-.42-.07-1.46-1.22-1.46-1.61 0-.2-1.4-2.21-1.65-2.38-.33-.22-.12-.96.5-1.85.37-.51.66-.99.66-1.06s.4-.76.9-1.54 1.05-1.72 1.24-2.1.47-.77.64-.87 1.37-.18 2.69-.18h2.37l.95-1.18c1.01-1.25 1.37-1.61 1.58-1.61.3 0 .09.43-.69 1.38a5 5 0 0 0-.82 1.2c0 .16 3.63.21 14.94.21 12.96 0 14.93-.03 14.93-.25s-1.4-1.78-8.9-9.94a10 10 0 0 1-1.55-2c-.13-.55.06-25.7.2-25.93q.1-.15.25-.07c.08.06.15 5.49.15 13.05v12.95l2.04 2.3c1.13 1.26 3.62 4 5.54 6.1l3.5 3.82h3.06c2.1 0 3.14.07 3.3.2.29.25 1.08 1.5 1.62 2.55l.6 1.19c.13.23.33.47.46.52s.23.23.23.4.15.45.33.62c.45.43.41 1.03-.14 2.08-.25.5-.67 1.42-.93 2.08a7 7 0 0 1-.84 1.62l-.38.43-22.44-.03c-12.35-.02-22.64-.06-22.88-.1m43.34-.55 1.89-.11.53-.87c.3-.48.54-1.03.54-1.21 0-.19.1-.47.25-.64.13-.16.2-.42.14-.58-.1-.26-2-.29-24.45-.29H34.63v.36c0 .48 1.53 2.85 2 3.1.2.12.67.23 1.03.27 1.16.11 40.46.08 42.42-.03m3.16-4.35c.73-.07.78-.11.78-.58 0-.27-.08-.54-.17-.6-.1-.07-.35-.4-.57-.76l-.85-1.34c-.26-.38-.6-1-.79-1.36-.44-.9-.89-1.31-1.48-1.36-.27-.02-9.95-.03-21.52-.01l-21.03.02-.28.57-.54 1.1a19 19 0 0 1-1.7 2.64c-.18.21-.34.64-.35.96-.03.54.02.6.54.7.67.12 46.79.15 47.96.02m-37.78-9.91c0-.17.22-.54.49-.83s.5-.57.5-.62c0-.12 1.1-1.43 3.15-3.76a24 24 0 0 0 2.08-2.58c.15-.15.55-.63.88-1.08l.61-.82V17.28c0-11.32.03-12.86.25-12.86.21 0 .24 1.55.24 12.9v12.92l-.4.65c-.8 1.24-2.4 3.18-5.16 6.25-.85.95-1.63 1.89-1.73 2.1-.1.2-.34.48-.54.62-.34.24-.37.23-.37-.03" style="fill:#000"/></svg>