<svg xmlns="http://www.w3.org/2000/svg" xml:space="preserve" width="120mm" height="30mm" viewBox="0 0 120 30"><path d="m132.84 44.51 61.9 27.13" style="opacity:1;fill:#000;fill-opacity:.920746"/><path d="M14.33 26.02c-1.16.11-1.71.05-2.02-.25-.35-.34-.46-.98-.56-3.44-.12-2.75-.2-3.11-.8-4.08a4 4 0 0 1-.67-1.75c0-.62.1-.7.98-.7h.99l-.9-1.16c-.5-.64-1.18-1.2-1.51-1.25-.46-.07-.63-.28-.68-.88-.05-.54.09-.92.46-1.25.3-.26.74-.47 1-.47.27 0 .85-.29 1.3-.63a3.6 3.6 0 0 1 1.78-.67c.62-.02 1.13.16 1.42.48.24.28.96.64 1.6.8.63.15 6.57.42 13.2.6 6.61.16 16.64.33 22.28.37l10.25.07.44-.69c.24-.38.44-.86.44-1.06 0-.3-2.78-.42-13.26-.58-7.3-.1-16.1-.31-19.57-.46-4.4-.18-6.7-.4-7.6-.72s-2.29-.45-4.56-.43c-1.8 0-4.1.1-5.1.22s-1.87.13-1.92.02.12-.44.39-.74c.35-.4.91-.56 2.15-.62.92-.05 2.96-.23 4.52-.42 2.22-.26 3.1-.25 4.09.04.69.2 1.39.51 1.56.69s2.22.41 4.68.54c2.4.13 7.93.35 12.3.5 4.37.14 10.74.24 14.14.22l6.2-.04 2.21-1 2.21-1 4.68.07c2.58.04 9.42.11 15.2.16 6.15.06 11 .23 11.69.4l1.94.52c.43.1.84.39.91.63s-.01.55-.19.7c-.18.13-.7.25-1.16.26-.45 0-.95.15-1.1.34-.2.26-.35.26-.6-.01-.2-.2-.8-.37-1.36-.4-.56-.01-1.14-.15-1.3-.3-.16-.16-.48-.18-.7-.05-.23.12-.94.2-1.58.15-.65-.04-1.27-.19-1.38-.32-.11-.14-.38-.1-.6.06q-.4.3-.8.04c-.22-.16-1-.2-1.73-.1-.74.11-2.39.11-3.67 0-1.29-.1-2.44-.08-2.55.04-.12.13-.4.1-.64-.06q-.42-.28-1.48.05c-.79.25-1.14.25-1.38 0-.17-.18-.63-.25-1.02-.15-.41.1-.77.05-.87-.14q-.15-.36-.62-.02c-.25.17-.67.23-.93.12-.26-.1-1.44-.22-2.62-.25a8 8 0 0 0-2.6.2c-.33.22-.52.16-.74-.22-.26-.45-.34-.46-.84-.05q-.55.47-.9.18a2 2 0 0 0-.94-.28q-.6 0-1.13.9c-.5.85-.51.96-.18 1.99.26.81.47 1.06.84 1.01.26-.04.48.05.48.2s.24.38.53.5.9.24 1.34.25 1.12-.22 1.48-.53c.36-.3.71-.48.79-.39.08.1 0 .38-.16.62-.24.37-.23.45.03.44.17 0 .52-.2.77-.44s.54-.43.64-.43.2.2.2.44c0 .25.2.44.48.44.3 0 .54-.23.61-.59.07-.32.22-.59.33-.59s.2.13.2.28-.1.36-.23.46c-.12.1-.23.3-.23.46 0 .15.15.28.32.28s.72-.54 1.2-1.2c.47-.67.9-1.14.98-1.06.06.09-.1.46-.37.82-.27.37-.5.77-.5.9 0 .14.15.24.32.24s.5-.26.74-.59.5-.59.6-.59.12.27.05.6-.01.58.12.58c.14 0 .46-.34.73-.77.39-.63.55-.7.82-.42.19.2.58.31.88.26.4-.08.52.03.47.43-.06.45.07.4.91-.29q1-.85 1.09-.46c.05.2.19.37.3.37.13 0 .43-.27.69-.59.47-.59.47-.59.47.03 0 .48.1.57.4.4.23-.1.52-.19.65-.17l1.28.13c.58.06 1.27-.06 1.53-.26.4-.3.64-.26 1.4.21.7.44 1.03.5 1.34.26.3-.22.53-.21.86.04.34.27.52.27.77.01.2-.2.42-.23.55-.08.12.15.7.36 1.3.47.65.12 1.14.08 1.23-.1q.15-.3.84.13c.38.24.76.57.83.73q.16.28.48-.05c.25-.27.4-.26.68.02.28.3.42.3.7 0 .2-.21.42-.3.5-.21.07.1-.1.47-.36.83-.27.37-.44.72-.39.8.06.06.47-.16.92-.51.51-.4.86-.52.96-.33.08.17-.1.44-.4.6-.53.3-.53.31 0 .18q.5-.11.52.27c0 .22.12.49.26.6s.48-.1.76-.46c.35-.46.41-.7.2-.8-.15-.07-.29-.24-.29-.36s.3-.39.65-.59c.52-.3.58-.29.35.02-.16.2-.3.47-.3.58s.22.14.47.05c.26-.08.47-.27.47-.41s.21-.26.47-.26.47.12.47.28a3 3 0 0 0 .55 1.03c.3.41.62.75.7.75s.15-.32.15-.71c0-.4-.13-.76-.28-.83s-.2-.27-.1-.47c.13-.25.3-.26.63-.04.26.18.66.24.9.14.25-.1.52-.03.6.15.1.18.03.3-.15.27a3 3 0 0 0-.6-.02c-.17.02-.3.36-.3.76s-.19.85-.41 1.01c-.3.22-.34.38-.14.63.19.25.3.25.42.02.09-.17.3-.32.5-.32.18 0 .33.2.33.44 0 .25.1.45.24.45s.34.33.46.73c.12.41.38.74.58.74s.36-.26.36-.6-.18-.68-.4-.79c-.21-.1-.59-.44-.83-.75-.25-.3-.39-.76-.31-1 .12-.39.18-.38.5.02.2.26.48.47.62.47s.39.23.56.51c.28.48.3.48.32.02 0-.4.24-.49 1.29-.49.96 0 1.28.1 1.28.42 0 .23-.18.43-.4.44s-.71.07-1.08.13-.72.18-.8.27c-.06.08-.05.35.03.6s.24.46.38.46c.13 0 .24-.2.24-.45 0-.24.1-.44.23-.44s.24.2.24.43c0 .26.28.45.76.51.63.08.75.21.75.83v.74h-3.98c-3.45 0-4.07-.07-4.63-.54-.36-.3-.61-.74-.57-1.02.04-.26.33-.56.66-.67.32-.1.79-.05 1.05.11.25.16.6.5.75.77.24.39.32.4.5.05.13-.24.42-.34.7-.25q.5.17.5-.26a.8.8 0 0 0-.4-.61c-.22-.11-.43-.04-.48.15-.05.2-.28.35-.5.35-.24 0-.53-.4-.72-1.03-.18-.57-.41-1.03-.51-1.03s-.2.2-.2.44-.18.44-.42.44-.54-.15-.69-.34c-.2-.26-.3-.23-.42.15-.08.27-.28.49-.45.49s-.43-.2-.6-.45c-.26-.4-.35-.39-.8.14-.27.33-.65.6-.84.6-.18-.01-.52-.2-.74-.4-.23-.22-.41-.54-.41-.72s-.22-.52-.5-.76c-.3-.27-.44-.62-.36-.9.08-.25.06-.46-.04-.46s-.38.18-.62.4c-.42.4-.42.42.08.75.28.19.5.47.5.63a.3.3 0 0 1-.3.28c-.16 0-.5-.3-.75-.66s-.42-.84-.39-1.05c.06-.3-.03-.32-.42-.06l-.5.33.53.53c.32.33.46.7.36 1.01-.08.27-.25.5-.39.5-.13 0-.24-.2-.24-.43s-.29-.69-.64-1.02-.51-.6-.35-.61c.16 0 .5-.28.76-.6.26-.33.47-.72.47-.89 0-.16-.11-.3-.25-.3-.13 0-.3.2-.37.45-.08.24-.28.44-.45.44-.18 0-.43.27-.57.6s-.16.58-.05.58.42.53.7 1.18c.49 1.17.49 1.18.03 1.49-.25.17-.4.43-.33.58s.84.23 1.7.17a8 8 0 0 0 1.96-.3c.22-.12.61-.07.88.11.37.25.64.22 1.2-.14.39-.25.92-.38 1.17-.28s.45.37.45.6c0 .24-.16.43-.36.43s-.65.18-1 .41c-.41.27-1.56.44-3.32.48-1.47.03-7.15-.04-12.61-.16-5.47-.12-11.72-.24-13.9-.26-3.67-.04-4.07-.1-5.15-.74-.64-.39-1.96-.97-2.92-1.28-1.65-.54-2.54-.58-15.2-.53-7.38.03-14.9.1-16.7.16s-3.87.24-4.6.4c-.74.17-1.57.46-1.85.65s-.8.44-1.14.57c-.36.13-1.41.06-2.45-.17-1.26-.28-1.96-.3-2.26-.1-.24.16-.45.45-.47.65s0 1.76.03 3.47c.03 2.46-.03 3.19-.3 3.48-.2.2-1.08.44-1.96.53m88.03-7.56c.13 0 .24-.2.24-.45 0-.24-.11-.44-.24-.44s-.23.2-.23.44c0 .25.1.45.23.45m-12.72-.6c.2-.22.62-.2 1.36.03.84.27 1.16.26 1.43-.02.3-.31.23-.46-.41-1-.42-.36-.76-.9-.76-1.23q0-.56.45-.57c.24 0 .48-.15.53-.33s-.07-.5-.27-.7c-.3-.3-.36-.3-.36.1 0 .27-.11.48-.25.48-.13 0-.46-.14-.72-.32-.37-.24-.57-.2-.91.2q-.43.5-1.15.32c-.39-.1-.86-.1-1.06-.01a.7.7 0 0 0-.35.58c0 .23-.1.41-.23.41s-.24-.26-.24-.59-.13-.59-.3-.59-.43.16-.58.36q-.31.42-.29-.17c0-.43-.12-.5-.65-.35-.36.1-1.69.24-2.94.3l-2.29.11.16-.78c.15-.76.14-.76-.31-.25-.26.29-1.07.63-1.83.76-.75.12-2.2.18-3.22.12-1.03-.05-1.92-.23-2-.4s-.42-.18-.87-.02c-.55.2-.8.15-1.1-.22-.37-.45-.41-.45-.63.03-.13.28-.38.51-.57.51s-.34-.2-.34-.44-.06-.44-.13-.44-.35.14-.6.32c-.26.17-1.1.31-1.86.3h-1.38v1c0 .78.15 1.14.62 1.53.55.46 1.29.51 6.78.48 3.38-.02 6.15.07 6.15.2 0 .15.63.2 1.4.15s2.26-.13 3.33-.15c1.06-.02 2.82.04 3.9.13 1.09.1 2.02.24 2.09.31s.24.01.4-.16m.3-1.47c-.1 0-.2-.26-.2-.59s.14-.59.31-.59.38.09.47.2c.08.1.04.37-.1.59s-.36.4-.47.4m2.37 0c.13 0 .24-.12.24-.28 0-.15-.1-.35-.24-.45s-.23.02-.23.27c0 .26.1.46.23.46m-70.87-.72c3.44-.13 11.3-.25 17.47-.28s13.78.01 16.9.1c3.14.1 5.8.08 5.94-.02s.18-.53.1-.96l-.16-.76-17.93-.13a621 621 0 0 1-19.64-.33c-1.25-.14-1.8-.09-2.07.2-.27.27-1.09.35-2.94.29-2.53-.09-2.58-.08-3.25.73a3 3 0 0 0-.67 1.1c0 .18 2.24.2 6.25.06m76.89.01c.06-.07.04-.27-.05-.45s-.26-.31-.4-.31q-.24.02.05.45c.16.24.34.39.4.31m4.07-.47c.1 0 .2-.26.2-.59s-.16-.59-.36-.59-.35.18-.35.4c0 .21.07.48.16.59s.24.2.35.2m-27.62-.59c.13 0 .24-.13.24-.3 0-.15-.1-.29-.24-.29-.12 0-.23.14-.23.3s.1.3.23.3m-8.28-.88c.06 0 .1-.13.1-.3s-.1-.3-.24-.3-.19.14-.1.3c.07.17.18.3.24.3m1.4 0c.06 0 .1-.13.1-.3s-.1-.3-.24-.3-.18.14-.1.3c.08.17.19.3.24.3m5.95 0c.13 0 .23-.13.23-.3s-.1-.3-.23-.3-.23.14-.23.3c0 .17.1.3.23.3m22.14 3.22c-.48.01-.87-.11-.87-.27s.18-.29.4-.28.63.14.88.28c.38.2.3.25-.4.27m14.75-1.45c-.12 0-.28-.21-.35-.46a2.3 2.3 0 0 1 .12-1.18c.14-.4.36-.72.5-.72.13 0 .23.32.23.71a5 5 0 0 1-.14 1.18c-.08.26-.24.47-.36.47m-3.5-.6c-.08 0-.27-.19-.43-.42-.23-.36-.15-.5.5-.85.43-.22.81-.37.86-.32s-.11.42-.35.83-.5.75-.58.76m1.94-.65c-.15.06-.27-.1-.27-.35 0-.26.16-.47.37-.47s.32.16.27.35c-.05.2-.21.4-.37.47m-9.87-.86q-.25.08-.19-.24c.06-.2.17-.34.27-.33s.18.12.18.24c.01.12-.1.26-.26.33M66.5 11.38c-.2 0-.35-.13-.35-.3s.15-.29.35-.29.35.13.35.3-.16.29-.35.29m1.15 0c-.05 0-.1-.13-.1-.3s.11-.29.25-.29c.13 0 .18.13.1.3s-.2.29-.25.29m41.03-.59c-.13 0-.23-.13-.23-.3s.1-.29.23-.29.24.13.24.3-.11.29-.24.29m-35.52-.3c-.13 0-.24-.2-.24-.44s.11-.44.24-.44.23.2.23.44c0 .25-.1.45-.23.45m2.6-.29c-.13 0-.3-.13-.38-.3s-.04-.29.09-.29.3.13.38.3.04.3-.1.3m33.65-.3c-.12 0-.26-.13-.3-.3-.05-.17-.92-.34-1.96-.38-1.03-.05-2-.19-2.17-.31-.16-.13-.44-.08-.62.11-.18.2-.44.26-.58.15-.14-.1-.93-.2-1.76-.2-1.06-.01-1.52-.13-1.52-.39 0-.2.13-.5.3-.64.15-.15.7-.45 1.2-.66.61-.26 2.11-.38 4.64-.37 3.17.02 3.8.1 4.17.52.25.28.44.75.44 1.06q-.02.55-.8.99c-.45.23-.92.43-1.04.43m1.84 0c-.13 0-.23-.13-.23-.29s.1-.3.23-.3.24.14.24.3-.1.3-.24.3" style="fill:#000"/><path d="M110.9 7.9c.2.24.32.9.59.72.27-.17-.59-1.01-.59-.71-.01 1.34.5 1.02.78 1.78.17.47-.12 1.1-.01 1.6.32 1.49 0 0 .39.7.13.24-.14.66-.01.9.04.07.16.1.2.17.01.03.02 3.11-.03 3.2-.04.07-.16.1-.2.17-.06.1.09.45 0 .53-.05.05-.15-.04-.2 0-.19.17.08.49 0 .71-.03.06-.16-.04-.2 0-.25.21-.62 1.6-1.2 1.59" style="fill:none;stroke:#000;stroke-width:.269737px;stroke-linecap:butt;stroke-linejoin:miter;stroke-opacity:1"/><path d="m97.56 7 1.32.08c.5.02 1.22 0 1.65.02.12 0 .21.04.33.04.58.02 1.23 0 1.82 0" style="fill:none;stroke:#000;stroke-width:.17186px;stroke-linecap:butt;stroke-linejoin:miter;stroke-opacity:1"/><path d="m97.7 19.17.99.01 1.12.05h2.8" style="fill:none;stroke:#000;stroke-width:.13751px;stroke-linecap:butt;stroke-linejoin:miter;stroke-opacity:1"/><path d="M12.04 7.32c-.11 0-.34-.1-.34 0s.4-.08.34 0c.39 1.5-.63.24-.87.45-.04.03.02.1 0 .15 0 0-.48.53-.52.6-.03.05-.1.3-.17.37-.02.01-.08-.02-.09 0-.02.04.02.1 0 .15-.03.07-.37.4-.43.52-.04.06.02.15 0 .22-.06.14-.2.3-.27.45-.03.1.04.2 0 .3-.1.3-.2.26-.34.52-.1.15 0 1.16 0 1.34 0 .3-.1 1.27 0 1.49.05.14.12.17.17.37.02.08-.06.17 0 .23.02.01.07-.02.09 0 .04.03.22.37.26.44.08.17.08.36.17.52.02.03.07-.02.09 0 .1.13.02.29.09.38.07.08.2.13.26.22.14.25.25.51.43.75.05.05.14.08.18.14.07.13.1.33.17.45.06.1.23.05.44.23" style="fill:none;stroke:#000;stroke-width:.327528px;stroke-linecap:butt;stroke-linejoin:miter;stroke-opacity:1"/></svg>