<svg xmlns="http://www.w3.org/2000/svg" xml:space="preserve" width="120mm" height="60mm" viewBox="0 0 120 60"><path d="m132.84 44.51 61.9 27.13" style="opacity:1;fill:#000;fill-opacity:.920746"/><path d="M111.25 5.14c-1.03 0-1.16.03-1.48.32-.3.28-1.12 1.9-1.63 3.24l-.48 1.22c-.17.42-.31.84-.31.94s-.3.6-.67 1.1c-.76 1.05-1.56 1.55-2.58 1.6-.69.04-2.36.28-3.14.45-.29.07-1.46.25-2.6.4a28 28 0 0 0-2.4.4c-.2.06-.63.12-.97.12a6 6 0 0 0-1.34.2c-.68.19-1.6.36-4.04.77-.61.1-1.3.25-1.53.32s-.7.13-1.03.13-.65.06-.69.13-.32.13-.62.13c-.31 0-.82.09-1.14.2-.7.23-1.3.24-1.46.03a6 6 0 0 1-.36-1c-.4-1.36-.84-2.77-.95-3.05-.23-.6-.5-1.62-.5-1.92 0-.19-.04-.37-.1-.41-.16-.1-.4-1.05-.46-1.75l-.03-.1-.02-.14-.05-.12-.06-.13-.04-.1-.02-.07V8l.01-.04.02-.02.07-.04.06-.03-.02-.07-.06-.12q0-.04-.04-.09l-.03-.06c-.1-.1-.21-.32-.29-.51-.08-.22-.21-.39-.3-.39l-.06.01-.01.1-.03.18-.05.24-.03.15v.06l.01.3v.15l.01.2.07.18.06-.02.1-.03h.04l.05.04.03.02q.04.04.05.09l.01.05.04.07.02.11v.03h-.03l.01.04q.13.17.18.47c.03.26.17.7.3.99.14.28.24.6.24.72a1 1 0 0 0 .18.46c.1.14.17.37.17.51s.12.64.26 1.1c.13.46.29 1.05.34 1.3s.23.86.4 1.37c.5 1.54.49 1.58-.37 1.94-.91.38-1.86 1.24-2.1 1.92-.3.8-.87 1.64-1.12 1.64-.13 0-.43.1-.68.2-1.26.6-1.55.75-2.04 1-.3.16-.8.48-1.15.7-.34.24-.65.43-.69.43-.17 0-1.81 1.12-2.3 1.58-.3.27-.6.5-.68.5-.07 0-.2.07-.3.17-.08.1-.32.27-.53.39-.45.25-.56.6-.39 1.17q.21.71 1.65.9c1.3.16.73.76-1.31 1.4-.75.22-1.74.76-1.43.76.28 0 1.28-.3 1.98-.6 1.32-.54 2-.7 3.08-.7.97-.02 1.94-.2 3.92-.71.4-.1.82-.2.93-.2.1 0 .37-.09.59-.2s.6-.18.84-.16c.37.03.46.1.5.32.01.16.11.36.21.45.16.14.18.1.15-.38-.02-.3.01-.6.07-.66.07-.06.65-.27 1.3-.46.65-.2 1.36-.43 1.57-.53s.5-.19.62-.19c.25 0 .47.36.39.62-.03.08 0 .16.06.16.07 0 .14-.13.16-.28s.1-.3.16-.33c.14-.05.88 1.85.88 2.26 0 .16.05.4.11.52s.25.75.42 1.4c.17.63.42 1.45.56 1.8.49 1.3.44 1.85-.2 2.18-.23.12-.68.22-1 .22-.48 0-.6-.05-.76-.32-.11-.19-.25-.3-.31-.26-.07.05-.12 1.13-.12 2.57q0 1.22-.02 1.8l.03.11.02.27v.51l-.03.18a.3.3 0 0 1-.1.18q-.08.05-.16.05h-.05c-.01.16.03.38.13.8l.07.4.03.06.05.15.02.12.02.1.02.1v.12l-.02.12-.03.1-.01.05v.02c.03.76.05 1.9.06 3.72.01 2.33.06 4.26.11 4.3.06.03.1-1.62.1-3.67a85 85 0 0 1 .08-4.12v-.18l-.02-.14v-.3l.02-.08.03-.07.03-.09.02-.03q0-.14.03-.26v-.04q.07-.38.14-.64.1-.28.02-.55l-.16-.03q-.13-.04-.17-.16l-.03-.16v-.46q-.02-.18.06-.26c-.03-.33-.04-.79-.05-1.5 0-1.95.1-2.46.46-2.25.39.22 1 .15 1.65-.2.5-.28.65-.31.79-.18q.19.2.17-.14c0-.33-.12-.8-.53-2-.4-1.22-.54-1.66-.64-2.08-.05-.21-.17-.6-.28-.84-.1-.25-.29-.83-.42-1.3-.7-2.57-.7-2.52.02-2.73.27-.07 1.03-.34 1.68-.58.9-.34 1.44-.45 2.3-.5 2.09-.11 12.33-.09 12.44.03.07.07.05.44-.04.92-.13.67-.12.85.01 1.09.14.23.17 2.18.21 10.92.05 9.59.04 10.65-.13 10.8-.22.2-.25.77-.07 1.47.2.8.52.56.66-.52q.07-.68-.06-.86c-.18-.23-.19-21.45-.01-21.65.16-.17.15-.97-.01-1.48-.24-.73-.08-.8 1.85-.8 1.38 0 1.7-.03 1.7-.17 0-.16-1.16-.17-7.55-.12-7.8.07-8.28.04-7.93-.43.08-.1.24-.18.36-.18.3 0 1.78-.54 2.65-.97l1.18-.58c.26-.13.78-.33 1.15-.45s.7-.27.75-.34c.04-.07.2-.12.34-.12a.6.6 0 0 0 .42-.2c.09-.1.24-.2.36-.2a.5.5 0 0 0 .35-.18c.07-.1.29-.22.48-.27.18-.04.4-.16.47-.26.08-.1.33-.22.57-.27s.7-.22 1.04-.39c.76-.37.94-.23.82.63-.1.68-.41 1.8-.56 2q-.34.44.78.43c.88 0 1.34-.22 1.84-.88.29-.38.36-.6.36-1.1 0-.52-.06-.7-.35-1-.3-.34-.4-.38-.85-.32-.56.08-.9-.07-.75-.33.05-.09.5-.36.99-.6l1.43-.72a172 172 0 0 0 5.76-3.2c.15-.08.27-.2.27-.27s.13-.13.29-.13c.24 0 .3-.08.37-.44.04-.25.05-.57 0-.72-.09-.27-.09-.27-.44.05-.2.18-.41.33-.48.33q-.1.02.08.25c.2.25.2.27-.13.58-.19.18-.4.33-.46.33-.07 0-.44.19-.83.4a136.9 136.9 0 0 1-7.62 4.03l-2.74 1.4c-.3.15-.63.27-.73.27s-.22.06-.26.13q-.03.04-.14.09l-.07.06-.16.08-.13.04-.06.03q.03 0 .03.02l-.02-.02h-.01v-.02l-.04.03.04-.01-.04.02-.08.03-.05.02-.19.06-.05.02a1 1 0 0 1-.26.17l-.12.06-.12.07-.17.06h-.03l-.18.07a.2.2 0 0 1-.13.07 1 1 0 0 1-.22.06c-.15.03-.34.1-.4.15-.07.06-.33.17-.6.26-.55.2-1.4.59-1.84.85-.17.1-.4.2-.51.2s-.39.1-.63.23-.6.28-.8.32l-.91.27c-.3.1-.53.16-.56.13 0-.15.54-.56.73-.57.1 0 .23-.06.28-.14.11-.2.96-.6 3.48-1.61q.45-.18.83-.3.03-.11.24-.12h.1l.08-.02.16-.04.1-.03.06-.03q.03 0 .06-.04a1 1 0 0 1 .27-.08h.05l.09-.05.02-.01h.01q.06-.02.08.04l.04.13q0 .06.04.12l.03.07v.02h-.01.02l.1-.09.04-.02.02-.01.03-.03.16-.12.15-.07.12-.07v-.01l.03-.03.02-.03.04-.03h.01l.07-.08.04-.05q-.02-.04.05-.09h.01l.02-.03q0-.02.03-.03l.05-.04.06-.09.08-.1.04-.06.07-.1.07-.1c-.22-.25-1.18-.08-1.5.3l.01.07-.01.1q-.02.07-.08.1l-.12.03-.1.05-.16.03h-.05c-.52.28-1.35.58-2.39.85-.4.1-3.05-.35-3.61-.62a4 4 0 0 0-.95-.19l-1.6-.2a7 7 0 0 0-1.38-.04c-.27.04-.58.03-.7-.01-.16-.07-.15-.12.1-.34.17-.14.35-.26.4-.26s.2-.18.32-.4c.2-.39.22-.4.42-.2.43.42.77.13.37-.31-.3-.32-.24-.87.13-1.23.4-.4 2.69-.7 3.21-.42.31.16.25.68-.13 1.1-.3.32-.5.4-1.4.54-1.25.2-1.34.23-1.34.4 0 .3 2.22-.04 2.78-.44.6-.43.88-1.75.42-2.02-.29-.17-1.74-.17-1.84 0-.09.16-.53.17-.53.01s.89-.53 1.27-.53c.3 0 .9-.1 2.34-.4 1.27-.27 2-.39 2.9-.5.48-.05 1.27-.2 1.75-.31.47-.12 1.56-.3 2.42-.42l2.39-.32 1.71-.24c.49-.08 1.84-.23 3-.34 1.17-.11 2.17-.23 2.22-.27s.59-.1 1.18-.12c.59-.04 1.13-.1 1.2-.14.2-.14-.18-.31-.52-.24-.54.13-.63-.17-.4-1.4l.36-1.97c.33-1.82.34-1.92.17-1.86-.1.04-.26.52-.38 1.15l-.45 2.15c-.13.58-.23 1.24-.23 1.46 0 .3-.06.41-.27.46-.25.06-2.16.33-2.36.33-.21 0-.06-.54.27-.93.2-.23.38-.54.42-.69.1-.36.39-1.13.53-1.36.12-.22.33-.7.84-1.94.19-.47.4-.93.46-1.04s.18-.36.26-.55q.15-.36.4-.36c.27 0 .58.43.46.64-.04.06-.03.22.01.34.08.21.1.2.24-.01.09-.13.16-.37.16-.54q-.02-.3.48-.63c.82-.57.88-.48.84 1.3-.02.86-.09 2.22-.15 3.03q-.14 1.49 0 1.6.11.15.18-.17c.06-.34.33-4.91.35-6.08l.01-.71zm-.63.33c.15 0 .29.03.33.11s-.02.21-.12.33c-.23.25-.3.25-.6.01-.19-.17-.2-.2-.04-.32a1 1 0 0 1 .43-.13m-25.68.9c-.37 0-.42.03-.35.26s-.24 1.59-.55 2.44c-.05.17-.08.35-.04.41.08.15 1.98.13 2.16-.03.2-.19.18-.75-.04-.75q-.16.02-.24.2c-.08.22-.82.5-1 .38-.15-.1-.07-.58.25-1.65.34-1.1.31-1.26-.2-1.26m-4.9 1.82L80 8.2h.06m-.01.22h-.01m7.07 8.27h.05q.28.2-.24.5c-.19.11-.37.32-.4.46-.07.3-.39.36-.48.08-.04-.1-.25-.25-.49-.33-.53-.2-.54-.4-.02-.4.21 0 .65-.08.96-.18.26-.08.5-.14.62-.13m-3.3.63c.22 0 .52.13.58.29.03.1.24.18.51.18.75 0 1.06.22 1.06.76-.01.76-.52 1.2-1.66 1.47-.29.07-.83.15-1.2.19-.76.07-.92-.09-.92-.92 0-.38.06-.5.34-.66.2-.1.43-.2.53-.2s.43-.12.74-.27l.57-.28-.39-.1c-.47-.11-.58-.21-.41-.4q.08-.08.24-.06m-1.22.37q.28 0 .3.22-.02.13-.18.14c-.1 0-.29.11-.42.25-.12.14-.24.25-.26.25-.46-.16-.43-.46.08-.72q.26-.14.48-.14m-1.45 1h.36l-.08.62c-.05.38-.17.72-.34.89-.3.31-1.1.52-1.2.31-.1-.15-.08-.18.5-1.14.34-.57.46-.68.76-.68m22.37.52h.01c.15 0 .77.71.76.89 0 .45-.3 1.1-.68 1.44-.44.4-.78.5-.91.26-.07-.12.14-.95.56-2.23.06-.2.18-.35.26-.36m-21.59.85q.14 0 .14.24c0 .2.51.34 1.25.34.28 0 .54.06.59.14s-.1.33-.32.57-.55.66-.73.95c-.2.32-.43.54-.57.54-.12 0-.32.05-.43.12l-.74.35c-.3.12-.62.31-.73.41s-.29.16-.38.11c-.2-.08-.69-1.05-.59-1.16s-.23-.6-.4-.6-.2.28-.02.46c.06.08.14.26.16.4.03.15.13.54.24.87s.18.68.18.78-.24.4-.54.69c-.55.5-.55.5-.35.84s.2.35-.04.48c-.13.08-.31.14-.4.14-.17 0-1.8.55-2.27.77l-1.18.44c-1.58.54-1.76.55-2.03.15-.2-.3-.34-.36-1.06-.42-.87-.08-1.47-.4-1.47-.79 0-.27.55-.93.77-.93.1 0 .24-.11.32-.25.09-.13.48-.43.87-.65a15 15 0 0 0 2.45-1.7c.04 0 .78-.36 1.65-.82s1.86-.92 2.22-1.03c1.1-.34 1.58-.47 2.07-.55q.46-.06.85-.53.32-.36.5-.36m3.1.2q.16-.01 0 .17c-.18.25-.64.28-.57.05.03-.1.2-.19.39-.21zm11.48 0h-.01v.01q0 .02-.02.04h.02zm-.04.11h-.01m1.17.25-.02.02h.01zm-10.82.2c.74 0 1.54.05 2.1.15 2.25.4 2.52.7.62.7-.7 0-1.43.05-1.62.11q-.35.1-1.24-.13a9 9 0 0 0-1.35-.27c-.56-.04-.69-.28-.22-.42.3-.1.98-.14 1.71-.14m9.72 0-.01.01m.36.27-.01.01zm-.28.07v.01zm-11.95.57c.44 0 .86.06.95.21s-.03.2-.57.28c-.37.05-.8.16-.95.23-.35.17-.44.17-.6-.04-.1-.14-.07-.24.12-.42.16-.16.61-.25 1.05-.26m6.78.25q.17 0 .2.03.15.09-.14.33c-.5.44-3.32 1.86-4.83 2.45-.42.16-.82.34-.89.39-.06.05-.4.19-.77.3l-.88.34c-.13.06-.75.23-1.36.38-1.1.26-1.68.32-1.98.18-.17-.07-.56-.99-.67-1.55-.06-.32-.02-.41.31-.65.6-.43 1.31-.82 1.5-.82.1 0 .32-.08.49-.18s.64-.21 1.06-.26c.94-.12 1.73-.24 3.19-.5 1.22-.23 3.97-.47 4.77-.44m-11.91 3.45q.16.01.14.16c-.08.24-.33.28-.33.05q.01-.19.19-.2m-16.05.4c-.36 0-.37 0-.29.41.04.23.13.9.19 1.5.05.58.13 1.12.17 1.2.17.28.38.07.89-.86 1.23-2.25 1.23-2.26.77-2.26-.16 0-.3.07-.3.16 0 .1-.18.56-.4 1.05q-.42.93-.46.65a10 10 0 0 1-.22-1.7q.02-.16-.35-.16m16.2.8h.14q.47.03.44.31c-.03.2-1.21.69-1.67.7-.11 0-.36.08-.55.19s-.7.26-1.15.34c-1.67.3-1.76.3-1.58.07.08-.12.25-.22.36-.22s.24-.04.29-.09c.1-.11 2.52-1.02 3.24-1.22q.25-.06.48-.08m5.54 2.4c-.02-.94-.04-.2-.04 1.65s.02 2.63.04 1.73.02-2.43 0-3.37m-17.12.96c-.4 0-1.67.6-1.82.88-.04.06-.32.16-.62.21s-.97.26-1.5.47q-1.84.73-3.2 1.07c-.4.1-1.09.34-1.54.53-.46.2-1.28.49-1.84.65q-2.05.61-2.29.81c-.07.06-.37.18-.66.27l-1.07.34a99 99 0 0 0-4.9 1.76c-.07.05-.52.2-1 .32-.5.12-1.1.32-1.37.45-.26.12-.78.32-1.15.43-.37.12-.7.28-.74.35-.16.28.9-.02 3.02-.87.42-.17.82-.3.88-.3.15 0 1.93-.61 3.25-1.11.62-.24 1.66-.59 2.3-.78.66-.2 1.27-.43 1.38-.53s.3-.18.45-.18.44-.08.64-.18.64-.25.97-.34.99-.3 1.48-.47c2.76-.95 3.98-1.39 4.2-1.51.12-.08.47-.18.76-.23s.99-.27 1.54-.5a8 8 0 0 1 1.87-.48c.73-.07.92-.14 1.16-.42.35-.42.3-.59-.16-.64zm20.3 4.84-.05.4c-.02.23.04.63.14.9.1.26.19.6.19.76 0 .15.08.41.19.57q.13.2.14.52l.02.03.04.06.04.1.02.1.02.06v.04q-.04.08-.12.1l-.04.01a2 2 0 0 0 .3 1.05q.7 1.4.69-.1c0-.64-.04-.82-.26-1.05l-.03.01q-.06.02-.12.02h-.02l-.09-.03-.02-.01-.06-.1-.04-.15-.01-.08-.02-.08-.02-.08-.02-.18v-.07q-.17-.45-.42-1.38c-.1-.42-.26-.92-.33-1.1zm17.12.49-.21.03c-.25.07-.3.15-.25.38.04.15-.02.66-.13 1.12-.1.45-.22 1.05-.25 1.32-.06.42-.04.48.18.48.2 0 .28-.12.38-.57.12-.51.5-1.11.63-.97.02.03 0 .34-.05.7-.05.4-.04.7.03.8q.26.36.63-.1c.18-.21.2-.3.08-.5a1.5 1.5 0 0 1-.07-.82c.08-.68-.14-.98-.55-.74-.34.2-.37.14-.22-.45q.19-.7-.2-.68M80.62 36.7q-.48 0-.46.18c0 .1.05.23.11.27.07.05.12.38.12.74 0 .56.06.94.3 1.89.03.08.1.16.16.16.14 0 .49-.59.49-.82 0-.1.08-.26.18-.36.25-.22.4.03.4.62 0 .46.16.64.34.4.06-.1.37-.7.67-1.33s.63-1.26.72-1.37q.34-.4-.4-.38c-.37 0-.4.02-.32.33.07.32-.34 1.35-.54 1.35-.17 0-.2-1.1-.03-1.3.21-.28.1-.38-.44-.38-.45 0-.7.17-.47.32.07.04.12.2.12.34 0 .36-.34 1.05-.47.95-.16-.1-.15-1.01.01-1.19.22-.24 0-.42-.49-.42m6.98.14-.27.01c-.43.04-.51.1-.82.66-.29.51-.35.76-.36 1.51 0 .57.05.97.14 1.1.2.25.37.26.78.06.37-.2.75-.88.96-1.78.15-.61.15-.74-.03-1.14-.13-.3-.2-.4-.4-.42m-.24.27q.15 0 .1.6-.03.92-.55.56c-.12-.1-.1-.21.1-.65q.23-.5.35-.51m-43.38 1.55-.18.01c-.49.1-2.44.73-2.69.89-.11.06-.3.12-.41.12-.12 0-.58.15-1.04.33s-1.23.44-1.71.59a4 4 0 0 0-1 .38.5.5 0 0 1-.3.12c-.24 0-1.96.6-2.43.84-.2.1-.61.25-.92.32-.3.08-.75.22-1 .32-.24.1-1.08.4-1.86.66s-1.6.56-1.81.66-.48.18-.6.18-.55.12-.97.27l-1.41.46c-.36.11-.81.28-1 .38-.2.09-.84.32-1.43.5l-1.63.54c-.32.1-.67.19-.78.19a.5.5 0 0 0-.31.1c-.13.14-.73.36-2.71 1-2.31.76-2.46.81-3.14 1.08-.98.38-2 .72-3.9 1.31-1.93.6-2.25.72-2.25.9 0 .07.23.15.5.17a26366 26366 0 0 0 81.2-.05c2.96 0 7.17-.02 9.34-.05l5.7-.06c1.03 0 1.76-.05 1.76-.12 0-.1-1.85-.22-3.85-.25l-2.95.1c-1.5.06-5.42.12-8.7.13l-6 .01-.17-.29-.18-.29-.29.3-.28.28H61.1c-15.92 0-21.77-.02-23.22-.1h-.06l-.1-.01c-.03 0-.14-.02-.17-.01l-.04.01q-.17.13-.23-.12c-.01-.04.05-.08.08-.1h.01l.06-.06.05-.1.08-.16.05-.16q.07-.12.14-.12l.02-.03c.24-.4.33-.6.32-.76a.2.2 0 0 1-.17-.12l-.02-.05v-.18q-.13-.12-.26-.1.02.05 0 .11l-.01.07-.06.06c-.07.04-.16.02-.23.02h-.04q-.18.29-.25.82l-.03.22v.1l.03.18q.02.1.03.19l-.01.15-.03.05-.04.03c-.07.06-.2.05-.3.06h-.12l-.06-.01c-.74.1-3.42.13-12.92.15-7.13.02-12.97 0-12.97-.05 0-.16.62-.62.84-.62q.2 0 .28-.12c.03-.06.27-.15.52-.19s.88-.23 1.39-.4c.51-.19 1.23-.43 1.58-.55.36-.11.79-.27.95-.36s.93-.35 1.71-.58a14 14 0 0 0 2.57-.93c.12-.06.33-.11.48-.11.16 0 .38-.09.5-.2.13-.1.37-.19.54-.19.16 0 1.2-.32 2.3-.71 1.81-.64 2.68-.94 4.14-1.43 1-.33 1.78-.61 2-.71s1.23-.44 3.55-1.2c.46-.14.95-.32 1.09-.4.37-.18.61-.03.82.53.14.36.4.76.64 1l.2-.08q.1 0 .16.05l.02.04.04.12q.09-.12.13-.33v-.01q-.04-.13 0-.2l.03-.03-.03-.2a2 2 0 0 0-.54-.55 2 2 0 0 1-.48-.46c-.01-.17.88-.71 1.3-.78.97-.16 6.48-2.1 6.7-2.35q.04-.06-.08-.06m42.98.11q.52.02.1.72c-.32.53-.6.34-.46-.33.06-.3.14-.39.36-.39m2.65 2.07c-.1 0-.28.08-.41.18-.34.24-.9.41-1.22.4h-.03l-.07.03-.06.03-.06.03h-.02l-.13.02-.14-.01-.02-.01-.03-.02q-.04-.06-.05-.12l-.02-.1h-.19l-.07.02-.13.02h-.03q-.03 0-.05.02l-.07.02-.06.02q-.03 0-.06.02l-.06.01-.07.02-.06.01-.06.02-.05.01-.06.02-.07.03-.1.01-.07.02-.05.01-.05.02-.05.02-.1.03h-.05q-.15.22.71.46c.55.17.83.21 1.02.14v-.03l-.02-.08.01-.1.01-.02.08-.05.07-.03.06-.03.18-.05.12-.03.16-.05.09-.04.07-.03.04.01.28-.14c.84-.4 1.25-.7.94-.7m-49.3 3.24c-.39 0-.51.08-.77.44-.38.55-.74 1.98-.54 2.2.07.07.13.24.13.36 0 .13.1.3.2.36.28.18.3.18.6-.06.68-.52 1.14-2.01.93-2.96-.07-.29-.14-.34-.55-.34m-.06.36c.18.04.21.67.05.88-.16.22-.42.25-.52.06-.1-.16.3-.93.46-.94m-.37 1.48c.14 0 .23.26.13.6-.15.46-.53.55-.53.13 0-.17.08-.43.17-.56q.12-.17.23-.17m-2.52 4.45-.02.01z" style="fill:#000"/><path d="M37.02 43.46c.06.09.1.32.2.26.08-.07-.23-.37-.2-.26.09.35.31.48.39.78.02.07-.06.4 0 .46.13.13 0-.21.13.06.02.04-.01.09 0 .13.08.25-.02.54.06.78.03.07.1.13.13.2.02.03.06.23.07.26.08.23 0 2.09 0 2.47M68.31 29.72q0 .03.02.04l-.02-.04q0 .04.03.07.01.07.03.16v.03l.02.03v.11l.03.1v.03l.01.03v.03l.03.11v.06l.04.1v.05l.05.11v.02q.01 0 .02.03h-.1l-.13-.04h-.35l-.05.01" style="fill:none;stroke:#000;stroke-width:.264583px;stroke-linecap:butt;stroke-linejoin:miter;stroke-opacity:1"/><path d="m68.42 29.68-.16.13-.04.05-.09.06h-.02l-.01.02h-.01l-.04.02v.03l-.02.02v.02c-.06.03-.05 0-.1.02q-.02 0-.05.03h-.04c-.01 0-.05.05-.1.07 0 0-.07.02-.08.04q0 .03-.02.06l-.1.08q0 .02-.03.03" style="fill:none;stroke:#000;stroke-width:.302148px;stroke-linecap:butt;stroke-linejoin:miter;stroke-opacity:1"/><path d="m69.1 30.1-.09.04q-.04 0-.08.03h-.06c-.26.08.05.03-.2.08h-.05q-.04.01-.08.03h-.05c-.04.02-.11.09-.16.09" style="fill:none;stroke:#000;stroke-width:.264583px;stroke-linecap:butt;stroke-linejoin:miter;stroke-opacity:1"/><path d="m89 38.47.01.03.02.02.02.06.02.02v.04h.01l.01.03q0 .04.02.07h.01v.02l.03-.01.08-.04.02-.02h.01q.02-.03.04-.03" style="fill:none;stroke:#000;stroke-width:.29717px;stroke-linecap:butt;stroke-linejoin:miter;stroke-opacity:1"/><path d="M89.9 38.48h-.02l-.03.02-.06.01-.02.02h-.04l-.02.01h-.06l-.01.02c-.01.01 0-.02-.02.01v.34" style="fill:none;stroke:#000;stroke-width:.367184px;stroke-linecap:butt;stroke-linejoin:miter;stroke-opacity:1"/><path d="M96.68 20.45q0-.05-.03-.05c-.01.01.03.06.03.05l-.07-.14v-.07c-.01-.03-.15-.18-.13-.2.03-.04.04 0 .07-.02h.37q.07-.03.14-.03M85.22 34.3q.02-.16-.02-.3v-.16q-.03-.11-.07-.21v-.12l-.02-.04c-.03-.11 0-.47 0-.6l-.03-.9c0-.09.03-.43 0-.5q-.03-.17-.02-.35-.02-.27 0-.53.02-.1.05-.2v-1.13c0-.12-.03-.27 0-.4l.02-.04v-1.15l.02-.04c.03-.07 0-.19 0-.26v-.64" style="fill:none;stroke:#000;stroke-width:.264583px;stroke-linecap:butt;stroke-linejoin:miter;stroke-opacity:1"/></svg>