<svg xmlns="http://www.w3.org/2000/svg" xml:space="preserve" width="120mm" height="40mm" viewBox="0 0 120 40"><path d="m132.8 44.5 62 27.1" style="opacity:1;fill:#000;fill-opacity:.920746"/><path d="M27.7 32.9h-4l-3.1-.1-1.4-.2-1.4-.1-1.2-.2-1.1-.1-.4-.1-.4-.2h-.8l-.8-.2-.8-.2-.5-.3-.4-.3-.3-.1-.2-.1-.5-.5-.4-.5-.2-.3-.1-.3v-.5l.2-.4.2-.3.2-.3.6-.3.7-.4.8-.1.8-.2 1.6.1 1.7.1h8.1l2.2-.1 2.3-.2.8-.2.9-.1 1-.1.9-.1 2-.4 2.2-.3h.3l.4-.1 1-.3 1-.2h.4l.3-.2 1-.2.9-.3 1-.3 1-.3 1-.3 1.2-.3.8-.3.8-.4.6-.2.7-.2 1.2-.5 1.3-.5 2-.9 1.8-.9 1.8-.6 1.9-.6h.5v-.2l-.3-.3-.3-.2h-.5l-.4-.2-.5-.2-1.6-.4-1.6-.4-1.4-.3-1.4-.4-.7-.2-.8-.1-1.4-.3-1.4-.3h-.8l-1-.1-1.3-.3-1.3-.2-2-.2-1.8-.2h-3.6l-3.6-.1-2.8.3-2.8.4-.8.1-.7.1-1 .2-.8.1-.8.2-.7.1-.3.1-.4.2h-1.2l-1-.3-.8-.3-.6-.3-.5-.4-.2-.2-.1-.3v-.7l.1-.5.2-.5.3-.3.2-.4.1.1.1.1-.2.6-.2.5v.9l.2.3.2.4.7.3.7.3.6.1.7.2h.5l.5-.1 1.5-.4 1.5-.3h.2l.6-.1.6-.2 2-.3 2-.3H34l4.4-.1 1.5.1 1.4.2 1.1.1 1 .2h1l1 .2 1.3.2 1.4.2 1 .2 1.2.2.5.1.6.2 2.2.5 2.1.5 1 .2.8.3.1.1.1.2h.8l.4.1.4.2.5.1.4.2.4.1h.4l.6-.1.6-.2 1.1-.3 1-.3.4-.1.3-.1.5-.2.4-.1h.8l-.2.1v.1l-.5.2-.5.1-1.2.4-1.2.4h-.6l-.1.2h-.1l-1.3.5-1.4.4-1 .4-1 .3-.1.1-.2.1-.3.1h-.4l-.5.2-.5.2-2 1-2 .8-1.6.7-1.6.6H48l-.4.2-.5.2-1.4.4-1.5.5-1.2.4-1.2.3-1.5.4-1.5.4h-.7l-.8.2-.8.2-1.5.2-1.4.3-1 .2-1.1.1h-.9l-.3.2-.4.1-2.9.2-2.9.2h-8.3l-1.2-.1-1.2-.1-.6.1-.7.1-.6.2-.6.2-.5.5-.4.5v.3l.2.4.6.6.7.7.9.3.8.4.9.1.9.1 1 .2 1 .1.9.1.8.2 2.1.1 2.1.2h3.3l3.3-.2 2.3-.2 2.4-.2 1.5-.2 1.5-.2 1-.2 1.1-.2 1.4-.3 1.4-.3 1.3-.3 1.3-.3.8-.2.8-.3.8-.1.8-.2 1.4-.5 1.4-.5.8-.3.8-.3.5-.1.4-.2h.2l1-.5 1.1-.4.8-.4.8-.3 2-.6 1.9-.5 1.3-.4 1.3-.4h.7l1.2-.4 1.2-.3h.8l1-.2.8-.2.5-.2.5-.1h1.3l.2-.2.2-.2V20l.1-1v-1l-.2-.2-.2-.2h-.4l-.4.1-2 .5-2.2.5-.8.2-.9.2-.3.1-.3.2-1.5.3-1.5.4-.7.2-.7.2-1.2.4-1.1.4h-.5l-.4.2-.3.2-.4.1-1 .3-.9.2-1.4.4-1.5.3-.5.2-.5.1h-.2l-.2-.2V23l.8-.2.8-.3 1.5-.4 1.5-.4h.5l.5-.2 1.3-.4 1.2-.4 1-.3.8-.4 1.3-.3 1.3-.3.9-.2.8-.2.7-.2.6-.2 1-.1.8-.2 1.1-.3 1.2-.3 1.2-.2 1.2-.2h1l1-.1.6-.1h.6l1.2-.4 1.1-.4.4-.2.3-.2.7-.4.6-.4.6-.7.5-.6.5-.4.5-.3.5-.2.4-.2h4.3l2.1.1 2.2.2 3 .1 3.2.2h3l3.2.2 1.8.1 1.8.2h4.7l.1-.1.1-.2v-.2l-.1-.2-1-.1-1-.1h-1.5l-2.8-.2-2.7-.1-2.8-.2h-2.8l-.7-.2H96l-2.8-.2-2.9-.1-2.3-.2-2.4-.1h-4.8l-1.7.1-1.7.2-1.3.1-1.2.1-1 .2-1 .1-1 .4-.9.4-.6.5-.6.4-.3.6-.3.6h-.6l-.1-.4-.1-.3h-1.1l-1.8-.1-1.8-.2-1-.3-1-.2-.2-.2h-1l-.2-.3-.2-.2h-.7l-.7-.1-.8-.3-.9-.3-.6-.2-.6-.2v-.4h.2l.1-.1.4.2.3.2.8.2.9.2.7.2.7.2.3.1.2.2h.5l.4.2.5.2 1.1.3 1.2.2 2 .2H68l.4.2.3.1h.2l.3-.1.6-.5.6-.5V13l-.2-.2h-1.5l.2-.1.2-.1h1.1l.6-.2.7-.1 1-.2 1-.2h.8l.6-.1.9-.2.8-.1 2.9-.2 2.8-.3H85l4.7.3 4.7.3 1.4.2 1.5.1 4.7.2 4.8.2h1.2l1.2.1 1.5.1h1.4l.2.2.3.1V14l-.2.1-.1.1-2 .4-1.8.3-1.4.3-1.5.3-.1.1-.2.1-.8.1-.7.1-1 .2-1 .2h-.1v.2l.1.2h8.7l.5.1h.5l.1.3.2.3-.1.5-.1.6-.7.2-.6.2H109l-.9.2-.8.2-1.3.1-1.2.2-1.1.2-1.2.2-1.5.2-1.5.2-2.5.3-2.4.4-1.3.2-1.3.1-1 .2-.9.1-.2-.1-1.3.2-1.2.2-1.5.1-1.4.2h-2l-2 .1h-2.7l-2.6.2h-2.5l-.1.1-.1.1h-2.4l-.2.2-.2.1-.8.1-.7.1-1 .3-1 .2h-.8l-.7.2-.4.2-.4.1-1.8.5-1.7.5-1.4.4-1.5.4-.5.1-.5.2-.3.2-.3.1h-.4l-.8.4-.8.4-.6.2-.5.2h-.2l-.1.1-1 .4-1 .4-1 .3-.9.2v.2h-.9l-.6.3-.7.2-.3.1-.3.1-.9.3-1 .3-.9.2-1 .2-1.1.2-1.3.2-.7.2h-.7l-.8.2-.8.2-1.2.2-1.2.2-2.8.2-2.7.2zm47.4-11h2.3v-.1h.2v-.4l-.2-.4-.3-.1-.2-.2v-.4h-.3l-.2-.2h-1.6L73 20l-.3.2-.3.3v1.1l-.1.3h.2l.3.1zm4.9 0 1.1-.1 2.3-.1h2.2l1-.2 1.1-.1 1.4-.2 1.4-.1 1-.2 1-.1 1-.2 1.2-.2 1.6-.2 1.5-.2 1-.1 1-.2 2.4-.3 2.4-.3.4-.1h.3l1.4-.3 1.4-.2 1.2-.2 1.2-.1.2-.1.2-.1v-.2l-.1-.2h-19l-18.9.1-.1.1h-.1v1.7h.1l.1.1h3.8l.3.3.3.3.5.7.4.6.3.2.3.2zm7.4-4.6h10.4v-.1l.1-.1-3.5-.2-3.5-.2h-6.6l-6.5-.1-.4.2-.4.3v.2zm11.8-.7.7-.3.6-.4h.9l.3-.1.3-.2h.9l.9-.2.6-.1.7-.2.5-.1.5-.1 1-.2 1.2-.3v-.2h-2.7l-1-.1-1-.2-3.8-.1-3.8-.2h-3.6l-3.6-.2-1.7-.2h-4.5l-.1.2-.6.1-.6.2v.2l-.8.7-.8.7-.4.3-.3.4.2.2H91l3 .2 3 .1h2zm-23.9-.3H75l-.7-.1-.6-.2-.4-.2-.4-.3-.2-.3-.2-.3v-.6l.1-.6.3-.2.3-.3.5-.2.6-.2h.7l.8-.1.1.2.2.2h.7l.4.3.4.3v.6l.1.6-.3.4-.3.4-.6.2-.6.3zm-.3-.6h1l.5-.4.5-.3v-.3l.2-.2-.3-.4-.2-.5h-.3l-.2-.1-.1-.2v-.2l-1 .1h-1l-.6.4-.5.3-.1.4-.1.3.3.4.3.3.3.2.4.2zm-7-.2h-.2l-.2-.2h.5zm-1.5-2.4h-1.7l-1.4-.3-1.5-.2-2.7-.8-2.7-.9-1-.3-1-.2-.5-.1-.6-.1-1.2-.3-1.2-.3-.8-.2-.8-.2-.9-.1-.8-.2-1.4-.2-1.4-.2-1.2-.1-1.2-.2-2-.2-1.8-.2h-7.2l-1 .2-1 .1-1 .1-1.2.2-1 .1-1.1.1-1 .2-1 .2-1 .3-.8.2H21l-.4.2-.8.2-.7.2-.3.2-.3.1h-.6v-.3l.5-.2.4-.1.1-.1.1-.1.5-.2h.5l2-.5 1.9-.5 1-.2.8-.1 1-.1 1-.2 1.5-.2 1.6-.2H39l1.5.2 1.4.1 1.6.2 1.6.2 1.4.2 1.5.2 1.3.2 1.2.2.8.2.7.2 1.2.3 1.2.3.8.2.7.2 1.5.4 1.5.4.4.1.5.1 1.3.5 1.2.4 1.8.2 1.7.3h2l.3.1.3.1-.1.1H68z" style="fill:#000"/></svg>