<svg xmlns="http://www.w3.org/2000/svg" xml:space="preserve" width="120mm" height="60mm" viewBox="0 0 120 60"><path d="m132.84 44.51 61.9 27.13" style="opacity:1;fill:#000;fill-opacity:.920746"/><path d="M58.08 54.74a8 8 0 0 1-.5-2.32c-.97-8.14-1.25-10.3-1.4-11.1-.11-.5-.3-1.8-.41-2.9-.22-2.02-.43-2.58-1.24-3.23-.93-.76-1.47-.89-4.41-1.05-1.61-.09-4.36-.33-6.11-.53s-3.61-.36-4.13-.37c-.52 0-1.39-.12-1.93-.27-.54-.14-1.76-.4-2.72-.55-.95-.16-2-.37-2.31-.46s-.9-.21-1.3-.27-.72-.18-.72-.28c0-.23 1.48-.22 1.63.01.07.1.33.18.6.18.5 0 2.98.43 4.8.82.64.14 1.68.3 2.32.37 5.35.53 6.97.67 9.83.83 6.88.4 28.12.13 29.47-.36.3-.11 1.15-.2 1.9-.2s2.07-.13 2.93-.27l3.78-.65c2.2-.37 4-.83 4.32-1.1.09-.07 0-.21-.2-.31-.23-.12-9.83-.21-27.12-.26-20.96-.06-26.8-.13-27-.3-.18-.18 4.37-.2 22.33-.12l24.3.12c5.57.05 7.81-.03 7.81-.27 0-.3-.33-.57-.87-.7-2.5-.67-3.36-.86-5.01-1.12-1.06-.17-2.35-.38-2.86-.48s-1.31-.17-1.79-.17c-.47 0-1.65-.12-2.63-.26-2.88-.41-7.53-.56-17.79-.56-9.1 0-10.86.06-18.12.64-1.06.08-2.67.27-3.57.42-2.78.47-5.26.87-6.17 1-.48.08-1.06.24-1.3.36-.5.26-1.79.28-1.79.03 0-.1.11-.22.24-.25l1.11-.28c1.06-.27 2.45-.53 3.86-.72.58-.08 1.58-.23 2.22-.34a53 53 0 0 1 5.69-.68c.9-.06 2.28-.18 3.08-.28.8-.09 2.48-.2 3.74-.26 2.5-.1 2.69-.16 4.27-1.66.78-.73.7-.43 1.33-5.33A568 568 0 0 1 57.6 9.2c.27-1.98.59-3.72.7-3.86.34-.37 6.78-.36 7.19.02.36.34.51 1.33 1.58 9.9a284 284 0 0 0 .97 7.2c.1.76.3 1.1 1.17 2.08l1.05 1.16 2.06.12c3.24.2 9.06.67 10.65.87 1.43.19 1.45.18 1.86-.29.23-.26.82-1.34 1.32-2.4s1.12-2.27 1.37-2.69c.26-.42.46-.89.46-1.05s.22-.5.48-.74c.4-.38.65-.45 1.74-.45 2.16 0 2.03-.33 2.03 4.97 0 3.4.06 4.66.24 4.86.13.15.6.5 1.05.76.8.48.84.48 4.87.53 2.58.03 4.04.12 4 .23-.02.12-1.5.2-3.84.21-4.78.04-5.2.1-5.83.88-.5.61-.5.62-.5 4.42 0 2.1-.05 3.94-.11 4.1-.1.23-.45.29-1.83.29-2.02 0-1.69.32-3.54-3.45a39 39 0 0 0-1.55-2.97c-.26-.33-.38-.33-3.32-.05-5.82.55-8.41.74-11.43.83-.58.02-1.98 1.46-2.38 2.43-.07.18-.26 1.37-.42 2.63l-.57 4.21a595 595 0 0 0-1.08 7.67c-.12.87-.31 1.97-.44 2.45l-.22.87-3.5.04c-3 .05-3.52.01-3.74-.24M28.58 30.6c-.81-.4-1.08-.44-4.43-.48l-3.57-.04 3.86-.1c3.16-.08 3.96-.16 4.47-.42.78-.4 1.34-.4 1.58 0 .16.27.5.32 2.27.33 3.99.03 4.72.07 4.59.28-.1.13-1.27.18-3.63.14-3.48-.05-3.5-.05-3.56.35-.08.51-.48.5-1.58-.06" style="fill:#000"/></svg>