<svg xmlns="http://www.w3.org/2000/svg" xml:space="preserve" width="120mm" height="60mm" viewBox="0 0 120 60"><path d="m132.84 44.51 61.9 27.13" style="opacity:1;fill:#000;fill-opacity:.920746"/><path d="M67.35 53.04a24 24 0 0 1-2.66-.42c-.05-.04-.6-.21-1.2-.37a8 8 0 0 1-1.67-.6c-.17 0-1.7-.8-2.42-1.27-.35-.22-.7-.43-.8-.47a7 7 0 0 1-1.49-1.06c0-.18-.57-.09-.75.12-.1.12-.25.22-.33.22-.2 0-1.4-1.15-1.48-1.42q-.07-.22.14-.45c.29-.33.27-.43-.18-.95a27 27 0 0 1-2.49-3.67 18 18 0 0 1-1.34-3.33 18 18 0 0 1-.67-5.84c.03.03.07.41.08.86.02.44.1 1.01.16 1.27.08.26.13.72.13 1.02s.07.74.15.98.15.6.15.81.07.45.16.53c.08.07.15.2.15.3 0 .37.38 1.37 1.1 2.91.76 1.62 2.6 4.2 3.1 4.36.2.06.3 0 .51-.24.15-.17.43-.44.63-.6.6-.49.58-.62-.2-1.6L55.3 43a12 12 0 0 1-1.26-2.23 2 2 0 0 1-.14-.42c0-.06-.06-.19-.13-.28s-.22-.46-.32-.82l-.41-1.34a13 13 0 0 1-.41-4.34c.06-1.81.13-2.58.26-2.9.05-.11.21-.67.36-1.23a16.5 16.5 0 0 1 3.03-5.77c.24-.28.43-.58.43-.67 0-.19-1.02-.52-1.87-.6-.5-.05-.52-.05-.87.41-.48.64-1.88 2.87-1.88 3 0 .07-.1.34-.24.61-.3.62-.48 1.07-.76 1.9l-.35.96a3 3 0 0 0-.19.75 38 38 0 0 1-.31 2.38q-.05.12-.38.07c-.25-.04-.53.03-1.03.28-.83.4-.9.4-1.12.05-.17-.27-.2-.27-.88-.2-.4.05-.9.1-1.12.1-.9.05-3.25.29-3.81.38-1.12.2-2.16.17-1.95-.05.02-.02.83-.12 1.8-.21l2.86-.3c.6-.07 1.5-.15 1.97-.18.48-.04.9-.09.91-.12s.1-.2.16-.36c.1-.25.17-.3.35-.24.55.17 1.32.29 1.66.26.36-.03.37-.05.44-.57.07-.59.27-1.43.66-2.84.3-1.12.33-1.18.72-2.04.7-1.52 1.3-2.53 2.44-4.04.27-.34.48-.7.48-.79s-.27-.32-.6-.53c-.33-.2-.6-.4-.6-.45 0-.17.3-.08.8.23.28.18.6.32.7.32.12 0 .47-.25.8-.56.55-.51.8-.74 1.91-1.67a18 18 0 0 1 5.32-2.93c.68-.26 3.14-.95 3.4-.95.1 0 .25-.07.32-.17q.14-.14.3-.1c.08.05 1.12.07 2.31.06 3.52-.02 5.7.38 8.53 1.57.64.26 1.36.6 1.6.74s.48.26.54.26c.05 0 .3.14.54.32s.52.32.6.32c.14 0 1.07-.86 1.49-1.39.11-.14.74-.84 1.38-1.55l1.7-1.89.73-.75c.19-.15.19-.14.04.17-.09.17-.76.97-1.5 1.77q-3.39 3.68-3.4 3.9c0 .07.33.38.73.68s.92.76 1.16 1.04c.24.27.46.49.5.5.2 0 2.53 2.83 2.53 3.06 0 .04.24.47.54.94.3.48.7 1.26.91 1.73.2.47.44.98.52 1.14s.14.39.14.52c0 .12.06.36.14.51s.17.51.2.78c.07.48.11.7.42 2.06.18.82.2 4.15.03 5.02-.06.26-.14.76-.18 1.1-.11.82-.35 1.12-.27.34.02-.3.1-.77.15-1.07.13-.68.13-3.65 0-4.99-.2-2.08-.24-2.46-.37-2.59a.5.5 0 0 1-.12-.3c0-.1-.09-.36-.2-.6-.11-.22-.2-.5-.2-.6q-.01-.17-.1-.25c-.06-.04-.1-.18-.1-.32s-.04-.28-.1-.32a6 6 0 0 1-.5-.94 9 9 0 0 0-1.1-1.96c-.14-.18-.46-.64-.7-1.02a6 6 0 0 0-.86-1.07 8 8 0 0 1-.76-.82 2 2 0 0 0-.43-.46c-.05 0-.3-.2-.55-.44a8 8 0 0 0-1.76-1.28 8 8 0 0 0-1.48 1.58c0 .06.22.26.49.43.26.18.61.45.78.61.16.17.63.62 1.04 1a13 13 0 0 1 1.37 1.48c.71.78 2.45 3.92 2.45 4.43 0 .1.06.27.14.39.07.12.16.33.2.48.02.15.12.53.2.86.42 1.53.56 4.08.35 6a8 8 0 0 1-.48 2.3c-.06.06-.11.23-.11.38a1 1 0 0 1-.15.48 1 1 0 0 0-.15.5c0 .16-.07.35-.15.42a.6.6 0 0 0-.15.37c0 .14-.07.3-.15.38a.5.5 0 0 0-.15.31.5.5 0 0 1-.11.3c-.13.14-.34.5-.5.87-.1.24-.72 1.12-.95 1.36s-.65.9-.65 1.04c0 .2 1.35 1.48 1.55 1.48q.16-.02.22-.15a.4.4 0 0 1 .25-.23c.1-.03.19-.1.19-.16 0-.1.69-1.18.82-1.28.12-.1.57-.8.68-1.05l.45-.83a5 5 0 0 0 .65-1.38c.36-.82.59-1.47.72-2.05.14-.6.3-.72.3-.23 0 .22-.1.58-.2.8s-.25.59-.31.82a19 19 0 0 1-2.78 5.07c-.35.48-.63.94-.63 1.02s.1.26.25.4.25.33.25.43c0 .25-1.3 1.5-1.56 1.5-.04 0-.2-.12-.37-.26-.39-.36-.58-.34-.94.06-.16.18-.43.4-.6.48s-.48.3-.7.48-.7.48-1.05.68l-.96.53c-.61.35-1.92.97-2.2 1.05a35 35 0 0 0-1.91.6c-1.24.4-2.52.57-4.57.61-1.14.03-2.5 0-3.02-.05m4.12-.22c1.8-.17 4.31-.74 5.12-1.16.2-.1.58-.25.86-.33.27-.08.62-.23.77-.34s.6-.37 1-.58a14 14 0 0 0 2.76-1.78c.63-.64.62-.66-.11-1.44-.76-.82-.82-.82-1.66-.16-.67.54-2.44 1.62-2.65 1.62a.5.5 0 0 0-.28.13c-.37.38-2.56 1.12-4.6 1.57-.85.19-3.47.31-4.37.2-1.5-.16-2.4-.32-3.32-.57-1.12-.3-2.66-.87-2.86-1.06a1 1 0 0 0-.4-.22 4 4 0 0 1-.65-.32l-.76-.45c-.83-.5-1.09-.7-1.13-.83-.03-.08-.17-.17-.32-.21-.23-.06-.37.03-1.01.64-.68.65-.95 1.12-.64 1.12.06 0 .23.1.38.22a19.98 19.98 0 0 0 7 3.42c.52.22 1.19.36 2.2.45.6.05 1.38.13 1.7.18.66.1 1.05.08 2.97-.1m-.44-2.45a7 7 0 0 1 1.14-.2c.47-.06 1.1-.18 1.41-.28l.9-.27c.2-.05.51-.15.7-.23l1.16-.45a11 11 0 0 0 1.46-.69 16 16 0 0 0 2.65-1.78c.14-.1.26-.23.26-.29s-.16-.27-.36-.48c-.4-.44-.37-.6.23-1.1.2-.16.49-.44.64-.6.31-.35.44-.33 1.02.16.27.23.27.23.49.03a20 20 0 0 0 2.01-3.01c.16-.25.29-.54.29-.65s.04-.25.09-.3c.12-.14.7-1.94.8-2.47a3 3 0 0 1 .2-.68c.18-.35.28-2.6.2-4.36a8 8 0 0 0-.38-2.5 8 8 0 0 1-.31-1.23 1 1 0 0 0-.15-.44 1 1 0 0 1-.15-.45c0-.13-.07-.26-.15-.3a.3.3 0 0 1-.15-.22c0-.23-.64-1.5-1.01-2.04-.17-.24-.46-.67-.64-.97-.81-1.27-3.84-4.03-4.23-3.87-.17.07-.2.24-.05.33.24.16.08.44-.37.7-.27.14-.65.37-.86.5-.39.26-.68.32-.68.15 0-.06.14-.34.3-.62.18-.28.36-.7.42-.93.1-.4.12-.41.45-.35.29.05.35.03.32-.11-.03-.2-.03-.2-1.28-.83-1.72-.86-2.6-1.14-5.28-1.67-1.25-.25-4.75-.17-5.02.12-.11.12-.12.5-.03 2.24.06 1.15.13 2.92.17 3.94.07 1.97.12 2.15.57 2s2.11-.17 3.02-.05c.53.07 1.26.25 1.63.4s.76.3.87.33c.45.14 2.46 1.65 2.46 1.84 0 .04.2.29.43.56 1.17 1.35 2.02 4.37 1.58 5.6-.06.17-.1.41-.1.55a8 8 0 0 1-.88 2.52 9 9 0 0 1-3.87 3.45c-.76.42-1.83.6-3.54.57a6 6 0 0 1-2.91-.59c-.23-.1-.53-.23-.68-.26a1 1 0 0 1-.38-.23c-.07-.08-.18-.15-.24-.15-.18 0-.98-.68-1.73-1.48a7 7 0 0 1-1.49-2.43 5 5 0 0 0-.26-.65 10 10 0 0 1 .15-4.73 8 8 0 0 1 1.08-1.97c.04 0 .14-.12.2-.26a11 11 0 0 1 1.94-1.8 28 28 0 0 0 1.6-.94l.39-.25L67 24.3a77 77 0 0 0-.22-3.44c-.07-.85-.14-1.83-.14-2.17v-.62h-.38c-.44.01-1.4.24-1.7.42a1 1 0 0 1-.4.12c-.41 0-2.02.76-3.85 1.81-.92.53-2.92 2.3-3.7 3.26a20 20 0 0 0-2.13 3.28c-.1.16-.2.41-.24.56-.04.14-.12.33-.19.4q-.22.3-.61 1.79l-.28 1.02c-.3.88-.5 3.27-.37 4.29l.18 1.29c.04.32.13.75.19.96.21.72.43 1.58.43 1.72 0 .15.26.81.6 1.5.6 1.22.75 1.51 1.13 2.07.24.33.58.84.77 1.12.18.28.5.64.68.8.32.27.38.28.62.14.14-.08.35-.24.46-.37.1-.12.24-.22.3-.22s.4.29.74.64c.36.36.68.64.73.64.2 0 .07.36-.26.72-.37.41-.4.46-.27.62.1.17 1.22.96 1.73 1.24l.8.45c1.19.68 2.18 1.06 3.82 1.46a21 21 0 0 0 3.31.55c.98.12 1.94.13 2.27 0m-2.28-3.5c-.38-.26-.7-.81-.7-1.24 0-.3.1-.48.4-.83.4-.43.43-.44 1.06-.44.57 0 .7.04.96.3.58.54.57 1.56-.02 2.09-.27.24-.42.29-.88.29-.33 0-.66-.07-.82-.18m1.11-.4c0-.09-.07-.22-.15-.3-.2-.16-.48-.02-.53.27-.03.13.05.17.33.17q.35 0 .35-.15m-.87-.58c.17-.21.07-.47-.25-.6-.12-.04-.17.02-.2.28-.04.2-.04.38-.01.42.07.14.3.1.46-.1m1.48-.2c0-.33-.03-.38-.23-.35-.26.04-.35.35-.17.58.22.28.4.18.4-.23m-.53-.76c.04-.15-.36-.26-.65-.18q-.44.11 0 .4c.18.15.25.15.41.03.11-.08.22-.2.24-.25m4.44 1.04c-.47-.26-.6-.44-.7-.94-.12-.53.16-1.23.59-1.47a2 2 0 0 1 1.51 0c.34.18.71.8.71 1.2 0 .65-.8 1.43-1.48 1.42-.15 0-.44-.1-.63-.21m.96-.44c.04-.07 0-.2-.08-.28-.2-.21-.58-.09-.58.19 0 .16.07.2.3.2.16 0 .33-.05.36-.11m-.82-.66c.09-.15.07-.23-.1-.42l-.22-.22-.11.23c-.25.49.16.87.43.41m1.47-.14c0-.3-.04-.37-.19-.37-.1 0-.24.07-.3.15-.16.2.06.6.31.6.14 0 .18-.09.18-.38m-.62-.78c-.05-.25-.57-.3-.65-.07-.1.27.23.5.49.36.1-.06.17-.2.16-.29m-13.32.99a2 2 0 0 1-.51-.67c-.17-.35-.17-.42-.04-.82.42-1.3 2.02-1.38 2.67-.14.2.38.2.4.03.88-.35.98-1.43 1.35-2.15.75m1-.16c.27-.15.23-.4-.07-.49q-.26-.06-.43.12c-.16.16-.15.19.03.33.23.19.22.18.46.04m-.78-.68c.21-.18.19-.47-.06-.64-.13-.09-.21-.07-.35.07-.14.16-.15.21-.03.45.16.31.18.32.44.12m1.47-.23c0-.3-.04-.38-.17-.35-.26.06-.4.36-.24.56.23.3.4.2.4-.21m-.6-.64c.15-.2.13-.23-.2-.31-.36-.1-.59.08-.41.3.16.22.44.22.6.01m16.3-1.09c-.12-.02-.4-.2-.6-.4-.37-.34-.39-.4-.38-.96 0-.48.05-.65.25-.88.51-.6 1.22-.73 1.83-.33.71.46.9 1.3.42 1.96a2 2 0 0 1-.43.46 2 2 0 0 1-1.1.15m.75-.59c.02-.1-.07-.23-.19-.3-.28-.17-.67.15-.48.4.16.2.63.13.67-.1m-.85-.65c.09-.15.06-.23-.12-.43-.2-.2-.24-.22-.32-.08-.11.19-.13.58-.03.68.11.12.35.04.47-.17m1.47-.13c0-.4-.09-.45-.4-.27-.34.19-.18.64.22.64.14 0 .18-.08.18-.37m-.67-.58q.35-.36-.35-.34-.6.02-.27.41c.18.19.43.16.62-.07m-22.1.86c-.5-.27-.62-.53-.62-1.26 0-.54.03-.69.22-.87.32-.31.82-.57 1.12-.57.39 0 1.03.41 1.26.8.32.56.27 1.02-.17 1.48-.61.63-1.18.76-1.8.42m.85-.3c.29-.08.3-.31.02-.47s-.66.16-.48.4c.13.16.15.16.46.07m.81-.84c.05-.38-.11-.57-.33-.38a.44.44 0 0 0-.03.63c.18.19.33.1.36-.25m-1.45.03c.08-.14.06-.23-.08-.4q-.36-.43-.36.28c0 .29.04.36.17.34a.5.5 0 0 0 .27-.22m.77-.67c.17-.22.04-.38-.3-.38-.32 0-.4.18-.18.4q.25.27.48-.02m21.58-3.03c-.3-.2-.7-.89-.7-1.21 0-.3.23-.75.52-1.03.48-.46 1.5-.42 2 .07.26.26.3.37.3.91 0 .59-.02.64-.42 1.03-.38.37-.47.41-.93.4a2 2 0 0 1-.77-.17m1.07-.36c.04-.07 0-.2-.1-.3-.19-.2-.49-.07-.54.24q-.06.18.27.17c.17 0 .33-.05.37-.11m-.92-.56c.24-.19.13-.61-.15-.61-.15 0-.2.07-.2.37 0 .41.07.45.35.24m1.57-.23q0-.7-.41-.27c-.2.22-.2.24-.04.43.27.32.45.26.45-.16m-.72-.59c.08-.05.12-.17.08-.27-.07-.18-.43-.22-.66-.07-.12.08-.12.13-.02.27.15.19.39.22.6.07m-24.4.85c-.56-.32-.8-.7-.8-1.29 0-1.43 1.7-1.9 2.56-.71.49.68.21 1.53-.65 2-.48.26-.64.26-1.11 0m.92-.53c0-.05-.08-.18-.17-.27-.14-.15-.19-.15-.37-.03q-.54.4.13.4c.22 0 .4-.04.4-.1m.54-.5c.19-.52-.05-.83-.37-.49-.2.22-.2.23-.03.44.23.27.32.28.4.05m-1.38-.11c.07-.19-.06-.48-.24-.55-.15-.05-.36.37-.3.57.08.21.46.2.54-.02m.71-.7c.2-.21.14-.4-.13-.48-.32-.08-.49.08-.4.38.07.25.35.3.53.1m21.82-3.62c-.52-.3-.73-.59-.78-1.13-.06-.59.1-.9.68-1.3q.74-.51 1.4.01c.72.56.85.98.54 1.67-.2.42-.44.63-.94.82-.45.17-.48.17-.9-.07m.93-.4c.04-.04 0-.16-.1-.27-.28-.34-.73-.2-.6.18.06.16.58.22.7.09m-.93-.58c.1-.06.2-.16.2-.23 0-.14-.3-.52-.4-.52-.12 0-.2.4-.13.65.06.25.07.25.33.1m1.58-.28c.04-.42-.18-.53-.48-.23-.2.2-.2.22-.04.42.25.3.49.21.52-.19m-.68-.75c0-.16-.56-.2-.65-.04-.03.05.04.17.16.26.24.18.49.07.49-.22m-22.4 1.45q-.93-.83-.37-1.73c.31-.51.7-.72 1.32-.72.47 0 .56.04.88.4.2.22.4.54.43.7.1.43-.1.99-.46 1.3-.4.37-1.4.4-1.8.05m1.31-.3c0-.34-.72-.43-.78-.09-.03.16.04.19.37.19.23 0 .41-.04.41-.1m-.95-.65c.17-.2.17-.24.02-.4-.2-.22-.47-.1-.47.22q.02.66.45.18m1.5.1c.12-.2-.04-.65-.21-.62-.27.06-.4.37-.24.56.15.2.36.23.46.06m-.6-.95c.08-.15-.32-.35-.55-.28-.25.09-.26.33-.03.47.18.1.46 0 .58-.2m16.07-2.54c-.78-.2-.96-.44-.96-1.32 0-.4.06-.56.23-.73.95-.93 2.39-.5 2.39.7 0 .48-.26 1.04-.54 1.17a2 2 0 0 1-1.12.18m.65-.36c.13-.1.12-.14-.06-.33-.18-.2-.24-.2-.47-.1-.29.15-.36.37-.15.46s.52.08.68-.03m-.8-.64q.23-.46-.11-.66c-.31-.18-.52.07-.43.52.07.4.37.47.53.14m1.48.08c.18-.19.15-.73-.03-.8-.19-.08-.65.24-.65.44 0 .14.36.49.5.49q.08-.01.18-.13m-.68-.9c.15-.18.09-.27-.32-.45-.29-.13-.38-.08-.38.19 0 .4.47.57.7.26m-13.73 1.5c-.43-.2-.65-.58-.69-1.24-.03-.5 0-.58.29-.89.18-.18.52-.4.76-.49.4-.13.47-.13.8.06.72.39.92.67.92 1.28 0 .6-.16.87-.71 1.23-.39.25-.9.27-1.37.05m1.05-.4c.1-.1-.18-.4-.37-.4-.25 0-.48.31-.32.43.14.08.6.06.7-.04m.61-.77c.05-.44-.13-.58-.4-.3-.21.23-.22.24-.03.46q.37.42.43-.16m-1.48.1c.1-.13.09-.2-.06-.37-.23-.28-.33-.27-.4.05-.11.45.19.67.46.32m.75-1.07c-.46-.37-.9.02-.45.4.23.2.23.2.44-.02s.2-.23.01-.38m5.75 1.13c-.6-.2-1.18-.9-1.18-1.44 0-.37.4-.97.8-1.19.93-.5 2.1.19 2.1 1.24 0 .85-.97 1.63-1.72 1.39m.72-.64c0-.05-.1-.17-.2-.26-.18-.12-.26-.13-.41-.03-.32.21-.22.4.21.4.22 0 .4-.05.4-.1m-.84-.65c.07-.14-.24-.53-.43-.53-.13 0-.2.65-.07.78.08.08.4-.09.5-.25m1.35-.11c0-.35-.04-.43-.17-.4-.3.06-.4.37-.19.61.27.33.36.28.36-.21m-.62-.72c.02-.2-.02-.24-.27-.24-.36 0-.49.16-.31.39s.54.14.58-.15M56.37 48.6c.03-.1.27-.35.54-.57.8-.68 2.41-2.32 2.41-2.45s-.34-.51-.8-.88l-.31-.26-.4.3c-.21.16-.72.62-1.12 1.03-.4.4-.8.76-.9.79-.08.03-.21.17-.28.3a1 1 0 0 1-.37.38c-.35.17-.3.48.19 1.02.45.51.92.66 1.04.34m27.98-.64c.26-.26.48-.54.48-.63s-.24-.36-.53-.62a35 35 0 0 1-2.18-2.16c-.2-.22-.42-.4-.49-.4-.16 0-1.12 1-1.12 1.16 0 .12 1.06 1.3 1.17 1.3.03 0 .45.41.92.91.53.57.94.91 1.07.91.1 0 .42-.21.68-.47m-12.53-6.52c.5-.13.97-.28 1.06-.35.08-.07.5-.3.93-.54a8 8 0 0 0 2.55-2.46c.08-.18.25-.5.39-.7s.34-.7.45-1.12c.12-.42.25-.87.3-1 .12-.32.13-2.68 0-2.76a4 4 0 0 1-.35-.97c-.16-.54-.4-1.1-.61-1.4a3 3 0 0 1-.35-.55 9 9 0 0 0-1.52-1.49c-.2-.14-.4-.3-.44-.37-.1-.17-1.16-.7-1.83-.9l-.94-.3c-.2-.06-.98-.11-1.72-.12-1.18-.01-1.38.01-1.56.18-.2.19-.43.82-.57 1.55-.04.19-.11.37-.17.4-.15.11-.37-.15-.44-.52a3 3 0 0 0-.24-.64c-.14-.27-.2-.3-.51-.23-.37.07-2.23 1.33-2.5 1.7l-.39.44c-.12.13-.22.28-.22.32s-.15.27-.32.5c-.4.54-.89 1.82-.9 2.33 0 .21-.06.58-.14.82a2.3 2.3 0 0 0 0 1.6c.08.2.15.52.15.69 0 .5.46 1.7.94 2.48a8 8 0 0 0 2.07 2.21l.96.56c1.05.6 2.85 1 4.22.92.44-.03 1.2-.15 1.7-.28m-3.61-2.03a6 6 0 0 1-3.32-2.25 5 5 0 0 1-.95-3.15c0-2.06 1.05-3.72 3.05-4.86a6.3 6.3 0 0 1 4.35-.36c1.67.53 3.33 2.24 3.66 3.77.32 1.5.31 1.45.15 2.14-.1.37-.16.75-.16.86a5.78 5.78 0 0 1-3.82 3.8c-.65.14-2.49.17-2.96.05m2.2-.42c.38-.06.9-.18 1.14-.26a5.6 5.6 0 0 0 2.74-2.58c.33-.63.34-.66.34-2.05 0-1.4 0-1.4-.34-2.12a5.1 5.1 0 0 0-3.36-2.8 5 5 0 0 0-2.36-.1c-.18.09-.45.16-.58.16-.27 0-1.15.49-1.84 1.02-.73.56-1.5 1.68-1.51 2.17 0 .1-.07.28-.15.4-.2.29-.2 2.17 0 2.46.09.11.15.32.15.46 0 .3.79 1.45 1.3 1.92a5.1 5.1 0 0 0 4.47 1.32M57.38 22.47A15.13 15.13 0 0 1 62.29 19c.11-.08.47-.23.8-.33s.66-.23.75-.28c.22-.13 2.07-.63 2.34-.63.38 0 .47-.2.47-1.1 0-.47.04-.83.1-.83q.18-.02.23 1.07c.02.59.03.6.32.58 1.32-.08 3.57-.09 4-.03 2.25.34 3.08.52 4.06.9.4.15.77.27.83.27.17 0 2.38 1.15 2.46 1.28.03.06.2.11.38.1.27 0 .43-.12.96-.75.64-.74.64-.75.46-.97-.2-.24-2-1.2-3.11-1.65-.63-.26-1.14-.42-2.96-.97-.95-.29-2.07-.4-4.64-.44-2.44-.05-2.48-.04-2.78.2-.27.2-.33.22-.55.1-.21-.13-.36-.12-.98.04-1.9.48-2.7.75-3.53 1.2-.16.08-.35.14-.44.14a16 16 0 0 0-3.4 1.94c-.33.2-.73.48-.9.63-.78.74-1.55 1.55-1.55 1.65 0 .13 1.22 1.56 1.34 1.57.05 0 .24-.1.43-.22M42.36 50.66a2 2 0 0 1-.11-.86v-.74l-.43.06c-.43.07-.96.15-1.1.16-.05 0-.08.12-.06.25.03.22.09.24.69.24.5 0 .65.04.65.17s-.17.16-.96.16h-.95v-.8c0-.86.09-1.3.28-1.42.22-.15 1.14-.1 1.27.06.17.22-.2.42-.6.33-.23-.05-.31-.02-.36.11-.04.1 0 .23.07.29.14.1 1.38.04 1.48-.08.03-.03.05-.21.04-.4-.02-.43.1-.67.32-.58.14.06.16.29.16 1.56 0 1.17-.03 1.5-.14 1.55-.07.03-.19 0-.25-.06m-13-.04c-.03-.04-.06-.71-.06-1.48 0-1.42.06-1.72.36-1.6.1.05.14.4.14 1.6 0 1.43-.02 1.55-.19 1.55q-.17-.01-.25-.07m6.33 0c-.04-.04-.07-.21-.07-.38v-.3l-.9.05c-.67.04-.91.01-1-.1-.07-.1-.1-.5-.09-1.1.03-.93.04-.95.28-.95s.26.03.29.84q.02.82.15.84c.06.01.4.03.74.03l.62.01.07-.66c.03-.36.03-.8 0-.98q-.08-.33.08-.38c.21-.08.26.02.26.53 0 .35.05.5.2.58.26.14.5.14.5-.02 0-.07.12-.28.26-.48.34-.47.8-.5 1.18-.06.23.25.27.4.27.87q0 1.2-.8 1.2c-.3 0-.44-.08-.64-.34a1 1 0 0 1-.26-.54q-.02-.37-.48-.03c-.2.14-.23.26-.23.8 0 .55-.02.64-.18.64-.1 0-.21-.04-.25-.07m2.26-1.08c.21-.2.25-.88.06-1.08-.2-.22-.55-.16-.62.1-.09.37-.07.72.04.95q.18.39.52.03m1.13 1.02c-.03-.09-.04-.78-.02-1.54.02-1.3.04-1.39.23-1.39s.2.07.2 1.5c0 1.34-.02 1.5-.18 1.54q-.17.02-.23-.11m-8.46-.4c-.63-.12-.32-.28.66-.33l.98-.05.08-.63c.12-.93.1-.95-.83-.9-.83.02-.97-.02-.88-.29.05-.12.24-.14 1.04-.1.55.04 1.05.11 1.12.17.15.13.17 1.33.02 1.42-.14.1-.12.38.03.38.06 0 .19.05.27.1.13.1.14.13 0 .22-.16.1-1.94.12-2.49.01m-3.24-.34c-.31-.47-.3-1.4.02-1.77a.8.8 0 0 1 1.18-.01c.17.2.21.38.21.92 0 .58-.03.7-.26.93-.4.38-.86.35-1.15-.07m.9-.33c.06-.08.11-.33.11-.57q0-.71-.42-.7c-.37 0-.52.84-.22 1.2q.28.34.52.07m15.29-.51c-.22-.15-.03-.33.34-.33.18 0 .46-.05.61-.11.16-.07.8-.14 1.44-.17 1.18-.05 1.54-.09 1.7-.2.06-.04.62-.09 1.24-.11 1.47-.06 2.32-.26 2.37-.54.06-.35.17-.39.63-.22.24.08.8.19 1.22.23 1.17.11 1.1.24-.65 1.01-.78.35-1.08.36-1.08.06 0-.26-.5-.42-.9-.29-.32.1-2.28.33-2.77.32-.1 0-.4.03-.65.07-1.9.27-3.34.39-3.5.28M35.23 35.1q-.11-.14-.09-1.64c.03-1.4.04-1.49.23-1.49.2 0 .2.08.23 1.51.02 1.2 0 1.54-.11 1.64q-.14.16-.26-.02m-13.02-.21q-.14-.1-.14-.6c0-.47.04-.56.5-1.05.27-.3.5-.6.5-.67 0-.24-.4-.11-.52.17-.18.4-.65.76-.8.6q-.11-.09.18-.45c.22-.28.24-.37.13-.44a1 1 0 0 0-.22-.1c-.16 0-.07-.32.1-.33.71-.04 1.5.04 1.61.16.16.16 0 .66-.31.93-.25.22-.14.42.22.42.42 0 .51-.19.51-.99 0-.58.04-.73.15-.73q.14.02.15.22c0 .11.1.3.2.42.12.12.2.26.2.3q-.01.09-.2.22-.19.14-.2.44c0 .18-.04.35-.1.39q-.09.06 0 .27c.15.29-.17.44-.85.41-.3-.01-.58 0-.62.05-.03.04.28.07.7.07.68 0 1 .11.84.28-.08.1-1.88.1-2.03 0m4.83-.01-.1-.33c-.03-.12-.26-.16-.93-.19-.83-.03-.88-.04-.85-.26q.03-.22-.19-.28c-.41-.12-.15-.35.44-.38q.58-.02.57-.18c0-.27-.3-.36-.61-.18-.22.14-.3.15-.4.05s-.08-.2.1-.4c.2-.22.22-.3.11-.43-.07-.1-.1-.24-.06-.33.05-.14.24-.16 1.19-.14 1.08.03 1.13.04 1.16.28.02.13-.02.24-.08.24-.18 0-.11.29.12.46.18.13.2.19.1.3s-.18.1-.46-.04c-.25-.13-.37-.14-.45-.05q-.42.41.49.4c.53 0 .6.02.6.21q0 .22-.18.22-.4.01-.21.28c.16.21.07.84-.14.88a.2.2 0 0 1-.22-.13m-.57-2.2c.18-.12.06-.33-.18-.33q-.39.01-.2.28c.14.17.2.18.38.05m-5.96 2.1c-.03-.07-.04-.76-.03-1.53.03-1.3.04-1.39.23-1.39.16 0 .2.09.23.45.02.25.1.5.18.58.18.16.18.47 0 .63-.1.08-.16.37-.18.74-.02.48-.07.61-.2.64q-.17.02-.23-.11m10.83-.02a2 2 0 0 1-.01-.58c.05-.44-.06-.76-.27-.76-.07 0-.32.24-.55.54-.4.51-.72.66-.87.42-.03-.07.1-.28.3-.47q.6-.6.15-.6c-.27 0-.2-.24.1-.32.29-.07.28-.26-.01-.3-.59-.1-.4-.56.23-.56q.69.01.7.65c0 .34.13.43.23.15.04-.1.06-.36.06-.6q0-.42.15-.41t.2.1q.08.11.27 0c.42-.24.5-.07.46.87-.03.47-.08.9-.11.93s-.06.3-.06.58c0 .38-.04.52-.15.52a.3.3 0 0 1-.2-.12q-.07-.12-.19 0c-.15.17-.36.15-.43-.04m.53-.62q-.05-.1-.05.14 0 .23.05.13a.4.4 0 0 0 0-.27m0-.85q-.05-.12-.06.07 0 .17.06.14.05-.08 0-.2m4.2 1.3c-.15-.25.17-.32 1.47-.29 1.12.03 1.35.06 1.35.2 0 .13-.24.16-1.38.18q-1.39.04-1.44-.09m-2.77-.23q-.63-.57-.33-1.5c.09-.28.24-.56.34-.62.3-.17.76-.13 1 .08.43.38.4 1.57-.06 2.02-.33.32-.61.33-.95.02m.73-.54c.16-.32.12-.94-.1-1.18-.16-.2-.17-.2-.39.08a.9.9 0 0 0-.07 1.1q.31.45.56 0m-15.46.48c-.1-.07-.12-.37-.1-1.1.03-.93.05-1.01.23-1.01q.21-.02.23.3c.03.23.09.29.29.29s.28-.09.37-.33q.1-.3.3-.32c.16 0 .17.1.15 1.1l-.03 1.1-.66.03a2 2 0 0 1-.78-.06m.98-.55c.14-.28.14-.3-.09-.43-.23-.14-.7.02-.7.24 0 .4.61.54.8.19m16.7.02c-.04-.1 0-.2.07-.22.29-.1.9-.8.9-1.03 0-.33.2-.52.38-.37.07.06.13.2.13.31 0 .27.58.96.8.96.27 0 .36.2.18.4-.18.18-.45.07-.9-.37l-.26-.26-.47.38c-.52.43-.73.48-.83.2m13.7-.6c-.05-.17.02-.4.14-.4s.12.4 0 .48q-.08.04-.13-.07m2.59-12.84A2 2 0 0 0 52 20a6 6 0 0 1-.83-.49l-.68-.45-1.24-.76c-.5-.32-1.06-.66-1.23-.75a5 5 0 0 1-1.25-.87q0-.3.95.33c.36.24.68.43.7.43s.45.27.95.59.95.59 1 .59.23.11.38.25c.16.13.43.31.62.39.18.08.5.28.72.45s.46.3.53.3c.15 0 .37.21.37.35s-.38.1-.45-.03m-4.66-4.53c-.13-.37-.07-3.06.07-3.2.26-.28.34.09.35 1.65 0 .86-.03 1.61-.07 1.68-.1.19-.25.14-.35-.13m3.27.17c-.03-.04-.06-.22-.07-.4q0-.66-.3-.49c-.24.17-1.66.13-1.8-.04q-.1-.16-.08-1.16c.02-.92.04-1 .23-1 .18 0 .2.1.25.91l.05.91.75-.03c.86-.05.9-.06.9-.34q0-.32-.56-.32c-.28 0-.44-.3-.23-.44.08-.05.26-.1.4-.1.29 0 .4-.17.4-.6q0-.44.34-.3c.24.1.24 3.31 0 3.41-.2.08-.2.08-.28 0m-11.35-.16c-.12-.07-.45-.09-.91-.04-.89.08-.95.03-.92-.85l.02-.64h.52c.3 0 .53-.02.53-.06 0-.1-.46-.53-.57-.53-.06 0-.2.12-.34.26-.25.29-.54.35-.66.16-.03-.07.12-.32.35-.57s.41-.53.41-.62c0-.1.07-.23.15-.3.21-.2.46.03.46.42q0 .28.29.52c.16.12.3.34.33.47q.03.24.23.25c.18 0 .2-.09.23-.9.02-.77.05-.88.2-.85.21.04.27.91.17 2.42-.07 1.02-.12 1.1-.49.86m4.67-.07c-.06-.12-.11-.28-.11-.36 0-.1-.23-.15-.9-.16-.5-.01-.96-.05-1.01-.09s-.1-.3-.1-.58c0-.65.18-.86.7-.86.4 0 .58-.2.38-.42-.07-.07-.3-.12-.53-.12q-.7.01-.44-.29c.14-.17 1.12-.2 1.4-.03.15.09.2.23.2.62 0 .28-.06.57-.12.64-.07.07-.36.13-.65.13-.38 0-.53.05-.58.18-.12.34.12.46.9.44l.73-.03.06-.37c.03-.21.06-.73.06-1.16 0-.69.02-.77.19-.77.24 0 .31.2.31.85q0 .53.15.58c.23.1.18.27-.1.35-.26.07-.27.09-.23.82.03.79-.1 1.05-.31.63m-12.94.02c-.13-.06-.18-.9-.06-1.04.1-.1.34.15.34.36 0 .25.27.32 1.23.32.7 0 .79.02.76.19-.03.16-.18.19-1.1.2-.57.02-1.1 0-1.17-.03m2.6-.4c-.18-.22.15-.39.73-.39.42 0 .46-.02.46-.25 0-.14.07-.32.15-.39.23-.2.45-.05.45.32 0 .31.02.32.49.32.55 0 .97.25.72.43-.08.06-.77.1-1.52.1-1.07 0-1.4-.02-1.49-.14m11.97-.08c-.29-.15-.54-.76-.54-1.33 0-1.55 1.7-1.74 1.72-.2.02.92 0 1.02-.3 1.34-.31.33-.52.37-.88.19m.55-.5c.09-.07.12-.31.1-.83-.03-.6-.06-.75-.2-.78-.21-.04-.58.56-.58.94 0 .14.1.37.21.5.24.28.28.3.47.16m-13.28-.04-.08-.4q-.08-.66-.8-.25c-.24.13-.52.24-.62.24-.33 0-.76-.36-.87-.72-.1-.3-.08-.41.07-.7.17-.31.25-.35.71-.38.33-.02.63.03.82.13.23.13.36.14.57.06.5-.2.55-.1.52 1.04q-.03 1.04-.15 1.08-.12.02-.17-.1m-1.16-1.17c.14-.28-.05-.63-.34-.63-.46 0-.63.5-.25.79q.37.27.6-.16m1.05-.2c.06-.11-.23-.25-.36-.16q-.08.06-.09.16c0 .13.37.13.45 0m1.1 1.05q-.06-.13.15-.3.7-.5.9-1.18c.16-.56.45-.57.5-.02.02.27.16.5.54.89q.53.54.4.64c-.12.14-.58-.09-.87-.43-.1-.13-.24-.23-.3-.23-.07 0-.21.1-.32.23-.2.23-.66.52-.83.52q-.1 0-.17-.12m32.17-.3c-.12-.43-.1-1.03.03-.9.06.06.09.35.07.64-.02.42-.04.47-.1.26m1.64-1.97c-.08-.11-.11-.58-.1-1.59.04-1.35.05-1.43.24-1.43s.2.08.23 1.4c.02 1.03-.01 1.44-.1 1.59-.13.17-.16.17-.27.03m-10.03-.1c-.18-.18-.16-.93.03-1 .2-.09.45.14.45.4 0 .17.08.2.7.2.76 0 1 .06 1 .27s-.24.26-1.19.26c-.55 0-.92-.04-1-.12m13.18 0c-.03-.08-.04-.77-.03-1.53.03-1.31.04-1.4.23-1.4.2 0 .2.08.2 1.5 0 1.35-.02 1.51-.17 1.54q-.17.02-.23-.1m-8.2-.23c-.11-.27-.15-.28-.94-.28-.59 0-.86-.04-.94-.15q-.12-.15-.02-.22c.18-.12.12-.26-.12-.3-.12-.01-.22-.1-.22-.19 0-.12.15-.17.63-.19q.94-.03.4-.39c-.13-.08-.23-.08-.38.02-.45.3-.68.06-.28-.3.22-.18.22-.2.05-.4-.1-.1-.14-.23-.1-.27.03-.04.57-.08 1.2-.08.9 0 1.14.03 1.14.15q-.02.15-.17.22c-.14.06-.13.11.12.39.25.27.26.32.1.38-.09.04-.27.01-.4-.06-.28-.16-.56-.08-.56.15 0 .13.14.17.66.17.58 0 .65.02.65.21q.02.24-.29.22c-.28 0-.28 0-.24.52.06.6-.1.82-.29.4m-.5-2.24q.03-.18-.17-.18c-.23 0-.36.16-.26.32.1.17.39.08.43-.14m4.88 2.36c-.02-.07-.05-.4-.07-.72-.04-.79-.21-.8-.86-.11-.52.57-.69.65-.79.37q-.06-.16.28-.47l.34-.3-.28-.13c-.42-.17-.33-.48.16-.52.44-.04.46-.27.03-.32q-.28-.04-.24-.22c.04-.23.5-.29.9-.12.27.12.33.22.3.5q-.02.13.07.14c.06 0 .12-.2.13-.46q.03-.46.2-.48c.22-.05.24.1.2 1.65-.02 1.08-.05 1.33-.17 1.33a.2.2 0 0 1-.2-.14m4.68-.23c-.07-.09-.1-.21-.06-.27a10 10 0 0 1 3.02 0c.13.23-.12.29-1.47.35-1.13.06-1.4.04-1.5-.08m-2.68-.18c-.28-.15-.54-.65-.54-1.07 0-.75.72-1.44 1.22-1.17q.59.32.59 1.05c0 .99-.59 1.54-1.27 1.19m.67-.6c.14-.4.02-1.21-.18-1.21-.67 0-.72 1.48-.05 1.5.07 0 .18-.13.23-.29m-10.25-.85c0-.77.03-1.01.13-.98.07.02.14.14.15.25.02.12.13.26.25.32.33.15.34.46.03.58-.2.09-.26.18-.26.48q0 .4-.15.38c-.12 0-.15-.18-.15-1.03m12.4.93c-.03-.06.04-.2.16-.3.6-.54.88-.9.93-1.2.1-.47.39-.4.48.1.07.35.23.54.8.97q.22.17.17.35c-.05.14-.12.15-.36.07-.16-.07-.4-.23-.52-.38-.29-.32-.41-.32-.66-.03-.2.23-.66.52-.83.52q-.1 0-.16-.1m14.8-.26c-.19-.1-.24-.21-.24-.55 0-.54.27-.65.47-.2.13.29.18.31.86.34q.74.03.84.2c.1.13.1.18-.01.26-.21.13-1.63.1-1.91-.05m10.6.03c-.05-.1 0-.65.12-1.08q.06-.17-.26-.23c-.17-.04-.3-.13-.3-.2 0-.24.44-.7.73-.77.31-.08.28-.28-.04-.28-.39 0-.13-.27.32-.34 1.36-.2 1.39-.2 1.55-.03q.28.35-.22.37c-.34 0-.25.25.1.3q.27.04.42.34c.2.41.19.5-.06.6-.16.05-.2.12-.14.33.03.15 0 .34-.06.42-.09.12-.09.19 0 .3q.11.16.06.28c-.09.15-2.13.14-2.21 0m1.76-.49c.02-.02-.24-.04-.58-.04-.35 0-.62.05-.62.11 0 .1 1.09.04 1.2-.07m-.12-1.35c-.07-.24-.54-.35-.82-.2q-.52.32.36.33.53.01.46-.13m-41.34 1.61c-.2-.11-.26-.23-.29-.63-.03-.63.2-.87.85-.89.4 0 .5.03.7.31.3.4.31.81.04 1.07-.25.25-.98.32-1.3.14m.88-.7c.03-.33.02-.35-.32-.35-.27 0-.37.06-.42.22-.08.3.13.55.45.51.21-.02.26-.1.29-.38m30.58.57q-.14-.38.42-.38c.4 0 .5-.28.12-.34-.18-.03-.23-.12-.25-.42q-.03-.38.12-.52c.18-.16.86-.2 1.35-.07.3.08.33.07.3-.1s-.15-.22-.86-.27c-.45-.03-.85-.09-.9-.13q-.29-.31 1.18-.27l1.05.03.03.39c.04.58-.16.73-.95.73q-.68 0-.62.13.05.13.84.14c.66 0 .8.03.83.18q.03.18-.2.22c-.41.06-.32.28.14.32.35.03.43.07.43.25 0 .2-.08.21-1.48.24-1.24.03-1.5 0-1.55-.13m1.72-.48q.04-.1-.05-.17c-.15-.1-.43.03-.35.16.08.14.32.14.4.01m2.94.5c-.1-.27.08-.39.63-.42.51-.03.55-.05.55-.3 0-.23-.06-.28-.35-.32-.34-.06-.35-.07-.4-.61-.07-.65-.04-.79.15-.79q.14 0 .17.51l.03.51.9.05q.88.05.93.2.05.13-.3.13c-.41 0-.73.22-.65.46.05.12.22.18.64.2.52.03.6.06.62.27.03.25.03.25-1.42.25-1.12 0-1.47-.04-1.5-.15m-5.52-.57c-.04-.04-.03-.16.03-.28.06-.1.07-.25.04-.3-.1-.16-.58-.13-.94.06-.28.15-.37.15-.74.03-.75-.26-.78-1.14-.06-1.52.37-.19.39-.19.89.04l.5.24.23-.23c.39-.38.49-.17.46.96-.03.8-.07 1.01-.2 1.04-.08.02-.18 0-.21-.04m-.93-1.12c.13-.45-.37-.71-.7-.37-.23.25-.03.59.34.59q.3 0 .36-.22m.85-.21q0-.1-.1-.1-.09 0-.1.1.01.1.1.1t.1-.1" style="fill:#000"/></svg>