<svg xmlns="http://www.w3.org/2000/svg" xml:space="preserve" width="192" height="122" viewBox="0 0 192 122"><path d="M96.8 99.8c-1-.1-2.1-.4-2.3-.5l-1.6-.4a122 122 0 0 1-12.1-2.2l-2.3-.4q-.7 0-1.2-.2l-2.7-.6c-2-.3-5.2-.4-20.7-.4H35.6l-1.2-2a30 30 0 0 1-3.8-8.5c-.2-.7-.2-2 0-2q.5.1.5 1.2l.4 1.2q.3.6.3 1c0 .6.6 2.2 1 2.5l.2.7q0 .5.6 1.2l.5 1c0 .4 1.3 2.2 1.6 2.2 1 0 3.2-5.9 3.9-10.1.4-3.2.2-8.5-.6-12.5-.6-3-2.6-8.6-3.2-8.8-.5-.3-3 5-3.8 7.8l-.6 2.2a23 23 0 0 0-1 8.2q0 1.6-.2.9a32 32 0 0 1 1.2-11.6l.2-.5c0-.5.3-1.2 3.2-7.3q.6-1.3.3-1.6a54 54 0 0 1-3.7-8.8l-.5-2.8a29 29 0 0 1-.2-8.3c.3-.5.3 0 .5 3.6a27 27 0 0 0 3.7 14.4l.7 1.4h4.7l4.8-.1v-5.3c.1-4.8.2-6 .7-5.5.1 0 .3 2.6.3 5.5l.1 5.3h1.3q1.2.1 1.4-.2c.1-.2.2-1.8.2-3.7q0-3.1.2-3.3c.4 0 .5.8.6 4.1v3l1.3.2c1.8 0 1.9-.1 1.9-3.6q0-4 .5-3.5l.1 3.3c0 1.8.1 3.3.2 3.5.1.4 2 .4 2.3 0q.3-.5.4-3.5 0-3.3.3-3.2c.2-.1.3.6.3 3.2 0 3.8 0 3.8 1.6 3.8q1.6 0 1.6-1c-.1-1 0-5.9.2-5.9.1 0 .3 1.6.4 3.4l.2 3.4h1q2.1.4 1.7-1.7c-.2-1.6.2-8.8.4-8.6.2 0 .2 2.3.2 5q0 5 .3 5.1c.4.4 2.1.4 2.5 0q.3-.2.2-3.6c0-2.5.1-3.2.3-3.1q.3-.1.4 3.5l.1 3.4h.9c1.2.2 1.4-.3 1.3-4l.1-3.2c.5-.4.6.5.6 3.5 0 3.3.2 4 .8 3.7.3-.1.4-1.8.4-16 0-8.7-.1-16-.2-16.1s-5.1-.3-18-.3c-16.6 0-17.7 0-18.3.5q-.5.4-.8 1l-1 2-1 2.5q-.7 1.6-.8.8a25 25 0 0 1 3.5-7.1c.4-.3 3.6-.4 19.6-.6 11.5 0 19.6-.2 20.3-.4l20.5-4.2c1.6-.6 4.8-.7 26.8-.9 23-.1 23-.1 23.6.4q.9 1-.3.5c-.3-.2-6.3-.2-23-.2-19.8 0-22.4.1-22.7.5-.2.3-.3 4-.2 19V60l6.2.2c6 0 6.2 0 6.2.6 0 .4-.2.5-6 .6-3.3 0-6.1.2-6.3.3a747.3 747.3 0 0 0-.1 37.6c.1.3 3.5.3 22.3.3 22 0 22.3 0 22.3-.5q0-.4-.6-1a31 31 0 0 1-3.6-6.3c-.7-1.6-1-2.3-1.1-3.3l-.5-3a30 30 0 0 1 2-15.2l.6-2 .6-1.2q.5-.4.5-.8l.5-1.2 2-3.2.5-.7.8-1.8.6-1.5q0-.4.2-.6l.2-.7q0-.5.3-.8l.4-1 .4-1.6a97.2 97.2 0 0 1 1-4.9c.4-1.9.5-2.9.5-7.6a45 45 0 0 0-3-17.8l.3.5.5 1q.3.3.3.7l.3 1q.4.8.6 2.3l.6 3c.8 3 .8 4 .7 9.8a34 34 0 0 1-1.3 11.7q-.2 1.6-.5 2.4l-.7 2-1 2.9q-.3.9.1 1.7l1.5 3c.4.8.9 2.5.9 3q0 .4.3 1c.4.5.5 1.3.1 1.3l-.4-.8-1-2.8-.2-.8q0-.7-.3-1-.4-.3-.4-1t-.2-.7l-.5-.6q-.7-1.2-1.4 0a38 38 0 0 0-5.4 13.3 25 25 0 0 0 3.5 19.8c1.7 2.8 2.5 3.6 3.1 3.4q.9-.3.1.8l-.4.5h-23.8c-19.6 0-24.3 0-25.9-.4m2.5-.6c.2-.2.3-4.8.3-19V61.5h-.7q-.6 0-.7 1-.1.8-.5 1l-2.6-.6-6-1.8c-.2-.3.7-1 1.4-1l2.2-.6c5-1.7 5.3-1.7 5.5-.4q0 1 .7.8h.6l.1-18.7v-19c-.1-.2-1.5-.2-3 .2A174 174 0 0 1 80 25.7q-3 .6 2.5.8 3.8 0 3.6.4c.1.3-.8.3-11.5.4q-2 .1-1.3 1.3c.3.3 1 .4 6.4.3 3.8 0 6.2 0 6.2.2.2.4-1.6.5-7.1.5q-5.4 0-5.5.3t6.1.2c3.4 0 6.2 0 6.3.2.8.5-.2.6-6 .6q-6.3 0-6.5.2-.1.3 0 .8v.6h8.4q8.1 0 8.3.2-.1.3-8.3.4l-8.4.1v2.5l6.3.1c3.5 0 6.4.2 6.4.2v.3q0 .2-6 .2c-6.8 0-7 0-6.8 1.6v1h6.5c5.5.1 6.4.2 6.4.5s-1 .4-6.4.4h-6.3l-.1.5v2.3h6.4c4 0 6.4.2 6.4.3 0 .3.5.3-6.5.3l-6 .1q-.4.1-.4 1.3l.1 1.4q.4.3 6.3.3 6 0 6.1.2-.2.3-6 .3c-4.8 0-6.2.1-6.3.4l-.2 1.2q-.1 1 .5 1.1c.3.1 4 .3 8.5.3s8 .1 8.1.3c.3.2 1.3.2-8.4.3q-8.2 0-8.5.3l-.2 1.2v1h6.3c5.8.2 6.9.3 6.5.7 0 .1-2.7.2-5.9.1-3.5 0-6 0-6.3.3-.6.2-.6.3-.6 1.4v1.1l6.2.1c3.4 0 6.2.1 6.4.2 1 .3-.5.5-6.3.6l-6.2.1v2.5l6.3.1c4.8 0 6.3.2 6.4.4q0 .3-.4.3l-6.4.1h-5.9l-.2.7q-.3.8 0 1.1c.2.4.9.5 6.2.5 3.3 0 6.1.1 6.3.2.9.4-.6.5-6.2.6l-6.1.1v1l-.2 1.1h2l8.5.1c4.9 0 6.5.1 6.6.4s.3.4-9.6.5c-7 0-7.2 0-7.4.5q-.3.5-.2 1.1l.2.6h6c3.2 0 6 0 6.3.2 1 .4-.5.5-6 .5-7 0-6.6-.1-6.3 2.3V74h6.4q6 .1 6.2.4 0 .2-.2.2L73 75v2.3h6.1q8.1 0 6.5.6c-.1 0-3 .2-6.4.2h-6.1v2.7h6c4.2 0 6 0 6.2.2q0 .2 0 .4l-6.1.1h-6l-.2.6q-.3.6 0 1.2l.2.5h8.3q8.1 0 8.3.2 0 .3-8.3.3h-8.4v1.3l-.2 1.3h6.3q12.6.3 0 .7l-6.1.1v1.2L73 90H79c6.8 0 6.7 0 6.8.3q-.1.3-6.2.4l-6.3.1v.7q-.1.7.1.7h5.4c5.3 0 7.3.1 7.2.5q.1.3-5.8.2c-3.5 0-6 0-6.4.2-.7.3-.8 1-.2 1.1l6.2.1c3.2 0 6 .1 6 .2q1.1.6-3.3.6-5.1 0-3.6.6l1.2.1.8.2q.1.3 1 .3a34 34 0 0 1 8 1.5l7.7 1.4c1.2.3 1.5.3 1.8 0m-27-21v-16l-1.1-.1c-1.1-.1-2 .2-1.7.7.2.3-.1 1.5-.3 1.3q-.3-.3-.3-1.1 0-1-.9-1c-1.5-.1-1.8.2-1.8 1.2q0 1-.3 1t-.2-1.5q0-.8-2-.6c-.8 0-.9 0-1 .9q-.1 2-.6.2l-.2-1h-3l-.1.9q-.3 1.7-.8.6l-.1-.8q.3-1-1-.9-1.6 0-1.5 1v.5q0 .4-.3 0t-.1-.7q.1-.8-1.7-.7h-1v1c0 .8-.3 1.4-.6 1l-.2-1v-1h-1.4c-1.6-.1-2 0-2 1 0 .8-.5.7-.6-.2l-.1-.8h-5l-5.3.1c-.1.1 0 1 .4 1.8l1 3 .6 2q.6 1 1 5.8l.3 2.4-.2 4.4c-.3 4.7-.8 6.7-2.5 10.2q-1.2 2.6-.6 2.6h17.7l17.5-.2zm75.2 19.7q0-.4.3-.7.8-.7.5.3-.6.7-.8.4m1.4-2.7q0-.4.3-1l.6-1.3.2-.6v.6q0 .7-.2.8l-.2.8q0 .5-.4.8-.4.5-.3 0m1.4-3.9q0-.6.2-1.3.6-1.5.8-8.1c.1-3.1 0-4.3-.2-5.3-.4-1.5-.5-3-.2-3q.3 0 .4.8 0 1 .4 2a44 44 0 0 1-1.2 15.4q-.2 0-.2-.5m-46.5-4.6q-.2-.6 1-.7 1 0 1-.6t-.6-.8q-1-.6-.2-1.1c.4-.2.4-1.1 0-1.1l-.8.3c-.7.6-.9 0-.1-.9q1.1-1.3 2.2 0 .6.7.2 1-.3.5 0 1.2l.5.8q.1-.1.2-1.3 0-1.3.9-2c.7-.6.7-.6 1.4-.2 1.2.6 1.7 2.7 1 4.4-.6 1.5-2.3 1.7-3 .3q-.7-1.2-.8-.4c0 1-2.4 1.9-2.9 1.1m5.7-1.7c.3-1 .1-2.3-.3-2.9-.6-1-1.2 2.2-.7 3.6.2.6.8.3 1-.7m41-12.3q-.2-.3-.2-1.2 0-1.1.2-.7l.2 1.1q0 .9-.3.8m-46.7-3c-.6-.4-.2-1 .7-.8h1c.4-.1.3-1-.2-1.3q-.8-.7 0-1.4.5-.8-.8-.6l-.8-.1c0-.4 1.2-1.3 1.8-1.3s1.3 1 1 1.8q0 .7.2 1.4c.5 1.7-1.5 3.4-2.9 2.4m3.7 0q-.8-.7.8-.8 1 0 1-.5.4-1-1.1-1.6c-1-.4-1-.6-.3-1.6q.5-.8 1.4-.7 1.3 0 1 .6l-.9.3-.7.2.6.3q.6.4 1 1.3c.3.8.3 1 0 1.6q-.4.7-1 1c-1 .4-1.3.4-1.8 0m.2-17.3c-.6-.8-.6-.8-.9-.3l-.3.6c0 .4-.7.2-1-.2a1 1 0 0 0-.9-.5q-1 0-1.1-1c0-.4 2-3.5 2.5-3.6q.7-.4.7 2 .2 2.5.6.2c.2-2.1 1.7-3 2.9-1.7.5.6.5 1 .5 2.4s0 1.7-.5 2.3q-1.3 1.3-2.5-.2m1.7-.5c.3-.3.4-2.1.2-3q-.2-.6-.6-.6c-.6 0-1 2-.5 3.3q.3 1 1 .3m-4-1.5q0-.4-.3-.4-.5.1-.3.6.5.4.5-.2m-61.1-4.9c-1.4-1.6-1-5 .8-5.4 1.3-.4 2.4 1 2.4 2.9 0 2.5-1.9 4-3.2 2.5m1.7-1q.3-.9.3-1.6c0-.8-.5-2.2-.8-2.2-.7 0-1 3.1-.4 4.1l.4.5zm16.3 1.2q-1-1 .6-.8c2 .4 2.2-1.5.1-2.2q-1.4-.5-.2-1.8.6-.8 1.6-.7c1.3.1 1.3.8 0 1-.7 0-1.2.5-.5.5s1.5 1 1.7 1.6c.4 1.9-1.8 3.5-3.3 2.4m-31.1-6.9c0-1.5.5-3.8.9-4q.3-.1 0 .7l-.4 2.3q-.6 3-.5 1m76.4-3.3c-.7-.4-.3-1 .6-.9q1.4 0 1.2-1 0-.6-.8-.9-1.7-.4-.7-1.7c.4-.8.6-.8 1.5-.8 1.3 0 1.4.6.2.8l-.8.2.6.4c1.5 1 1.5 3.2 0 3.9-1 .3-1.3.4-1.8 0m-2-.2-.3-.7q0-.3-.8-.3-1.5 0-.6-1.4l.6-1q2.3-4 2.2 0 0 1.4.3 1.5.4 0-.2 1-.7 1.6-1.2.9m-.2-2.2q.1-.2-.2-.4-.7-.2-.5.4.4.4.7 0" style="fill:#000;stroke-width:.237626"/></svg>