<svg xmlns="http://www.w3.org/2000/svg" xml:space="preserve" width="120mm" height="60mm" viewBox="0 0 120 60"><path d="m132.84 44.51 61.9 27.13" style="opacity:1;fill:#000;fill-opacity:.920746"/><path d="M43.3 57.72c-.27 0-.57-.13-.67-.29s.1-.48.45-.73 1.38-.82 2.3-1.26 2.02-1.13 2.45-1.55a8 8 0 0 0 1.3-1.77c.3-.56.53-1.39.53-1.83 0-.5.4-1.43 1.06-2.46a9 9 0 0 0 1.06-1.96c0-.17.86-1.13 1.92-2.14 1.05-1 2.6-2.25 3.44-2.77.84-.51 1.82-1.18 2.16-1.47a35 35 0 0 1 2.18-1.61c.85-.6 2.37-1.62 3.39-2.3a25 25 0 0 1 2.09-1.3c.14-.05.24-.44.23-.88-.02-.43.08-.85.22-.93s.32.03.4.24c.1.22.28.39.41.39a15 15 0 0 0 2.29-1.45c1.12-.8 2.81-1.94 3.76-2.55s2.55-1.84 3.57-2.75 2.75-2.35 3.84-3.2c1.1-.85 3.37-2.7 5.06-4.11 1.81-1.5 3.35-3.01 3.71-3.64.47-.8.8-1.08 1.29-1.1.36-.02.87-.12 1.14-.22a.8.8 0 0 1 .88.18c.32.3.64.33 1.5.15.62-.12 1.36-.5 1.7-.85s.6-.78.6-.96.16-.46.36-.61q.39-.29.25-1.34c-.06-.58-.18-1.3-.25-1.63s-.5-.9-.97-1.3c-.6-.52-1.1-.73-1.77-.72-.6 0-1.19.22-1.65.6-.39.32-.9 1-1.12 1.51s-.41 1.3-.41 1.77-.1.84-.23.84-.31-.35-.4-.78a8 8 0 0 1-.17-1.41c0-.35.25-1.12.55-1.7.3-.59.96-1.4 1.47-1.82.5-.42 1.21-.76 1.58-.76.36 0 1.02.17 1.45.38a5.6 5.6 0 0 1 2.51 3.32c.1.5.22 1.1.29 1.32.07.25.28.37.5.29.3-.1.39.07.39.74 0 .49-.12.95-.27 1.04-.14.08-.26.35-.26.6 0 .24-.36.91-.8 1.48a7 7 0 0 1-1.66 1.53c-.47.27-1.5.66-2.3.87s-2.1.66-2.87 1c-.78.34-2.09 1.09-2.91 1.66s-2.16 1.57-2.97 2.22c-.8.65-2.9 2.22-4.66 3.5s-4.5 3.27-6.08 4.44a205 205 0 0 0-3.54 2.67c-.36.29-2.03 1.54-3.7 2.77l-3.7 2.74-1.5 1.06c-.47.3-1.68 1.2-2.68 1.97-1 .78-2.21 1.63-2.68 1.9-.46.26-1.68 1.24-2.7 2.16a22 22 0 0 0-2.77 3c-.5.73-.9 1.43-.9 1.55s-.24.48-.53.8c-.3.31-.53.88-.53 1.26s-.1.76-.23.83-.3.44-.38.82a7 7 0 0 1-1.4 2.02 8.25 8.25 0 0 1-4.62 2.53m-5.81-5.47c-.29 0-.53-.12-.53-.25a15 15 0 0 1 1.66-2.34c.9-1.14 1.93-2.2 2.26-2.36s.77-.28.97-.28.97.69 1.7 1.52a7 7 0 0 1 1.35 1.86c0 .2-.13.35-.3.35s-.8-.5-1.4-1.12c-.61-.61-1.35-1.11-1.65-1.11-.31 0-.96.48-1.58 1.18a25 25 0 0 0-1.5 1.86c-.25.38-.7.69-.98.69m.35-4.7c-.4.3-.42.29-.26-.11.1-.25.18-.56.18-.68 0-.13.12-.23.26-.23s.27.15.27.34-.2.5-.45.68m.68-1.52c-.13 0-.23-.2-.23-.44s.28-.71.62-1.05.96-.89 1.36-1.21 1.1-.69 1.56-.8c.45-.13 1.57-.23 2.48-.23s1.86-.1 2.12-.22c.25-.12.75-.35 1.12-.5.36-.17.9-.43 1.2-.6l1.83-1.02a31 31 0 0 0 2.51-1.58c.66-.48 1.62-1.2 2.13-1.6l3.15-2.4a94 94 0 0 1 3.3-2.37c.6-.4 1.15-.79 1.22-.87.08-.09.75-.63 1.5-1.21a7 7 0 0 1 1.63-1.06c.14 0 .54-.3.89-.68s.91-.88 1.28-1.11l1.64-1.12c.54-.38 1.99-1.45 3.22-2.37a24 24 0 0 1 2.41-1.68c.1 0 .49-.27.88-.6a132 132 0 0 1 6.17-4.87c1.19-.89 2.97-2.29 3.94-3.1.98-.83 2.21-2.03 2.74-2.68s.96-1.29.96-1.42.11-.3.26-.38c.16-.1.25.54.22 1.72l-.04 1.87-1.21.6c-.74.36-1.25.8-1.3 1.1-.04.27-.31.7-.6.94s-.5.53-.5.66c0 .12-.55.72-1.2 1.33-.66.6-1.42 1.1-1.7 1.1s-.85.38-1.26.85a8 8 0 0 1-1.72 1.38c-.54.3-1.06.77-1.15 1.04-.14.4-.32.46-.94.33-.43-.09-.77-.05-.77.08s.18.38.4.55c.21.17.4.44.4.6 0 .17-.36.54-.79.84s-.9.55-1.03.55c-.14 0-.32-.17-.4-.38a.7.7 0 0 0-.56-.37c-.22 0-.4.1-.4.23s-.19.4-.42.62-.74.4-1.15.4c-.55 0-1.05.33-2.03 1.36a6 6 0 0 1-1.6 1.37c-.18 0-.68.2-1.12.43-.57.31-.82.65-.88 1.18-.07.65-.2.77-1 .88-.65.08-.95.27-1.02.62-.06.27-.24.57-.4.67s-.57.11-.89.04c-.46-.1-.66 0-.9.5-.18.36-.49.65-.7.65s-.96.48-1.7 1.06a7 7 0 0 0-1.73 1.99c-.22.51-.5.93-.64.93-.13 0-.31-.17-.4-.37-.08-.2-.25-.37-.38-.37s-.24.21-.24.48q0 .49-1 .92c-.54.24-1.48.82-2.09 1.3a4 4 0 0 0-1.24 1.34q-.13.51-.58.33a1 1 0 0 0-.81.13c-.2.15-.37.52-.37.8 0 .34-.3.7-.81.97-.45.24-.98.44-1.2.44-.2 0-.37.09-.37.2s-.4.63-.9 1.15c-.5.53-1.02.87-1.18.78-.17-.1-.3-.39-.3-.65 0-.27-.12-.49-.27-.49s-.35.2-.44.44-.27.57-.4.73a.6.6 0 0 1-.63.16c-.2-.08-.37-.28-.37-.45 0-.23-.49-.28-1.92-.2-1.2.08-2.25.3-2.8.6-.48.25-1.03.46-1.22.46-.2 0-.5.17-.68.38s-.43.37-.56.37m26.7-12.27c-.43.4-.46.4-.63-.01-.1-.24-.07-.53.06-.66s.4-.12.63.01c.34.2.33.28-.06.66m6.18-4.44q-.35.1-.26-.34c.05-.24.25-.49.44-.55q.35-.1.27.33c-.05.25-.25.5-.45.56M92.25 13.2c-.15 0-.34-.17-.43-.39-.08-.2-.09-.44 0-.52.08-.07.27-.06.42.03.16.09.29.32.29.52s-.13.36-.28.36" style="fill:#000"/><path d="M38.18 45.73c-.09.15-.43.37-.27.46s.37-.61.27-.46c-.83 1.25-.22.54-.46 1.01-.08.16-.17.2-.27.37-.05.08-.05.19-.1.27-.03.08-.14.11-.18.19-.2.38-.3.78-.46 1.2-.08.2-.02.51-.1.73 0 .04-.07.05-.08.1-.03.07.02.19 0 .27q-.05.08-.1.18c-.03.2-.05 1.3 0 1.47.07.21.65.2.65.37M44.26 50.33c.15.06.4.34.46.18.06-.15-.56-.31-.46-.18.18.24.51.33.73.55.03.03.03.59 0 .64-.09.18-.3.27-.46.37-.13.1-.16.26-.27.37-.15.15-.34.18-.46.37-.22.32-.34.69-.56 1.01-.13.2-.35.43-.46.64-.03.08.03.2 0 .28-.11.29-.18.46-.27.74a8 8 0 0 0 0 1.38c.02.08.14.1.18.18.03.06-.04.14 0 .18.02.03.07-.02.1 0 .1.12-.17.28-.28.28M90.35 8.92c0-.12.12-.36 0-.36s-.02.49 0 .36q.06-.45.1-.92c0-.13-.05-.32 0-.46.07-.21.23-.38.27-.64.06-.34.08-.69.18-1.01.03-.08.15-.1.19-.19.02-.05-.03-.12 0-.18.06-.13.2-.25.27-.37.07-.1.2-.48.28-.55.05-.05.13-.04.18-.1.11-.1.14-.3.28-.36.03-.01.07.02.1 0 .01-.02-.03-.07 0-.1q.07-.05.18-.08.03-.11.09-.19c.04-.04.14.05.18 0 .02-.02-.02-.07 0-.09h3.5c.16 0 .57-.06.73 0 .13.04.24.14.37.18.06.02.13-.02.19 0 .04.02.73.64.73.65.02.03-.02.07 0 .09.1.1.3.12.37.28.01.02-.02.07 0 .09s.06-.02.1 0c.37.19-.1 0 .08.18.03.02.07-.02.1 0s-.02.07 0 .1c.03.07.15.1.18.18.02.06-.02.12 0 .18.05.15.22.23.28.37.02.06-.03.13 0 .18.03.07.15.04.18.1.28.55-.01.04.1.46.06.28.33.49.45.73.04.08.03.14.1.28.1.2 0 .78 0 1.01 0 .32.1 1.44 0 1.66-.08.14-.12.03-.19.18-.18.36-.19.75-.37 1.1M91.82 11.6c.06.15.03.51.19.45.15-.06-.28-.6-.19-.46.25.38.4.96.74 1.3.02.01.07-.03.1 0 .1.1.1.34.18.45.01.03.07-.02.09 0s-.02.07 0 .1c.08.16.28.29.37.45.09.18.18 0 .18.19" style="fill:none;stroke:#000;stroke-width:.264583px;stroke-linecap:butt;stroke-linejoin:miter;stroke-opacity:1"/></svg>