<svg xmlns="http://www.w3.org/2000/svg" xml:space="preserve" width="120mm" height="62mm" viewBox="0 0 120 62"><path d="m132.8 44.5 62 27.1" style="opacity:1;fill:#000;fill-opacity:.920746"/><path d="m60.5 58.4-.3.1-2.8-2.7-2.8-2.8-1-.7-1-.8-.5-.4-.5-.4-1.3-.9-1.2-.8-1.3-.8-1.3-.8-2-1.1-2.1-1.2-1.8-.7-1.8-.7-1.1-.6-1.1-.5-.8-.2-.8-.3-1.1-.4-1.1-.4-1.1-.3-1.1-.3-1.3-.4L28 40h-.6l-1-.2-.9-.3-1-.3-1.2-.2-1.2-.2-1.1-.1-1.9-.4-2-.3-1.2-.2-1.3-.2h-2.3l-.6-.3-.6-.4v-1.2l.1-1.3 1.1-.7 1-.7 1-.6 1-.5 1-.6.9-.6.6-.4.6-.4.6-.4.5-.5.5-.2.5-.2 1.8-1.2 1.8-1.1.6-.3.5-.3 1.2-.8 1-.9h.3l2-1.2 1.8-1.2.4-.4.4-.5v-1.1l.4-.3.3-.3h2.7l1.1-.7 1.2-.7.3-.2.3-.2 1.2-.8 1.3-.7.6-.5.6-.4.8-.5.9-.5.4-.3.4-.2.9-.6.8-.6 2.5-1.5L51.5 9l1.4-.9 1.4-.9.5-.3.4-.3 1.9-1 1.8-1.1h.9l.6-.6.6-.5h1l.7.6.7.5h.3l.4.1 2 .1h1.8l.7.3.7.3H72l.8.3.7.2 1.1.1 1 .1.6.3.5.2.8.1.8.1 1.2.5 1.3.4 1.9.6 1.9.6 1 .5 1.2.5.7.2.7.3.8.4.8.3v.2l.1.1.5.1.4.1 1.8 1 1.8.9 1.1.6 1.2.7.6.4.5.5 1.2.7 1.2.7.8.6.8.5 1.7 1.4 1.8 1.4.7.7.7.6 1 1 1.1.8.3.5.3.5-.1.6-.2.5-.2.2h-.2l-.2-.3-.3-.4h-.6l-.7.5-.7.5-1.2.8-1.2.8-1.5 1-1.5.9h-.2l-1.5.9-1.5.9-.9.6-.9.5h-.6l-.6.6-.6.6-.6.3-.6.3-1 .7-.9.6-1.3.7-1.3.8-.7.4-.7.4-1.4 1-1.4.8-.6.5-.6.4h-.3l-1.4 1-1.3 1-1 .5-1 .5-.2.1-.1.2-.7.4-.6.4-1.2.8-1.2.8h-.4l-.2.2-.2.3-1.3.7-1.3.7-.1.2-.1.1-1 .6-.9.5-.6.4-.6.3-.6.4-.6.3-1.1.8-1.1.8-1 .5-.8.6h-.5l-.4.6-.5.7V57h.3l.2.2.4-.3.3-.3 1-.6 1-.6.8-.6.8-.6 1-.5 1-.6.3-.2.4-.3 1-.5.8-.6.6-.3.5-.4 1.5-.9 1.4-.8.7-.5.7-.4 1-.6 1-.7.7-.5.8-.5 2.4-1.5 2.5-1.5.6-.4.7-.5 1-.6 1-.6.8-.6.9-.6.7-.5.6-.5.9-.4.8-.4.8-.5.8-.5.6-.3.7-.4 1.1-.7 1.2-.7.6-.4.5-.3 1.4-1 1.5-.8.7-.5.8-.5.7-.4.7-.3.8-.7.9-.7h.4l1-.6.9-.7.5-.4.5-.3h.2v.6l-.6.5-.5.4h-.6l-.7.6-.7.6-.8.5-1 .4-.6.5-.6.4-.4.3-.3.2-.5.3-.6.3-.5.4-.6.4-1.3.8-1.2.7-.6.4-.6.4-.6.3-.6.4-.5.3-.6.3-1 .5-.8.5-.4.4-.4.4-.6.3-.6.3-.7.4-.6.3-1.4 1-1.5.8-.4.5-.5.4h-.3l-1.6 1-1.7 1-.8.5-1 .6-1 .7-1 .7h-.4l-.5.5-.5.5-1 .6-.8.5-1.7 1-1.6 1-.3.1-.3.1-2 1.3-2 1.2-.6.5-.6.5-1 .6-1 .5-.6.5-.7.4-.7.5-.7.5zm-1-1.8h.2v-.2l.2-.2-.1-1-.1-.9-.7-.5-.6-.5v-.5l-.4-.2-.4-.2-.5-.4-.4-.4-1-.7-.8-.8-1-.8-.8-.7-.8-.6-.9-.5-.6-.5-.6-.4-1.3-.8-1.3-.9H47l-.2-.3-.2-.2h-.4l-.8-.6-.8-.5-1.6-.8-1.6-.7H41l-.2-.2-.3-.3L39 41l-1.4-.5-.2-.1-.2-.1-1.4-.4-1.3-.4-.6-.3-.5-.2-1.3-.4L31 38l-2.5-.6-2.4-.5-1.2-.4-1.2-.3h-1.8l-1.2-.4-1.1-.3-.9.1-.8.1-1.4-.4-1.4-.3h-2.7l-.3.1-.3.1v.8l.4.4.3.3 1.9.2 1.9.1.8.2.8.2H20l.7.2.7.3 2.3.4 2.4.3 1.2.4 1.3.4 1 .2 1 .2.5.3.6.2.6.1.7.1.4.3.4.3.6.1.6.1.6.2.6.2 1 .4.8.4 2.8 1.2 2.7 1.3h.4l1.1.7 1.2.7 1 .5.9.6 1.7 1 1.6 1.2.6.5.5.4h.3l2.1 1.8 2.2 1.8.4.4.5.4.7.8.6.7zm.8-2.6h.5l.5-.3.5-.4.6-.2.6-.3.9-.6.8-.6.6-.3.7-.4.5-.4.5-.4h.3l.6-.4.6-.5.8-.4.8-.4 1.1-.8 1.2-.8.4-.1.5-.1v-.3l1.5-1 1.5-.9.4-.2.5-.2.4-.4.5-.3.5-.3.6-.3 1-.7 1-.6 1.8-1.2 1.8-1 .5-.4.5-.4.4-.2.4-.3.5-.3.4-.3.7-.4.7-.5 2.6-1.5 2.6-1.5.3-.1.3-.1.5-.5.5-.4 2-1.2 2.1-1.3.7-.4.6-.5h.3l1.8-1.2 1.8-1.1.5-.3.5-.2 1-.7.9-.7V24l-1.1-.8-1-.9v-.2l-2.2-1.7-2-1.6-1.5-1-1.5-1-.7-.5-.7-.5-.5-.2-.6-.3-.2-.2-.3-.3-.5-.2-.5-.3-1-.5-1.1-.5-.4-.3-.3-.2-1-.4-1-.4-.1-.2-.1-.1-2.3-1-2.3-1h-.5l-.5-.3-.5-.2-3-1-3-1-1.8-.3-1.8-.4-1.2-.3-1.1-.2-1.2-.2-1.2-.1-2.6-.3-2.7-.2-.4.2-.4.3v.2l.4.5.3.6v.8l-.2.4-.3.3.1.6.1.6.3.3.3.3h1.1l1.2.3 1.2.2 1.5.2 1.5.1 1.3.4 1.3.4h.6l.7.2.5.2.5.3.6.1.5.2.8.2.9.3.5.3.6.2h.3l1.6.8 1.5.7.3.2.4.2.6.3.7.3.7.3.7.4.3.3.3.3.5.2.6.1h.2l.2-.2.2-.6.2-.6.3-.4.4-.4.5.4.6.5.4-.2.3-.2.1-.2.1-.3-.2-.3-.2-.4h-.5l-.5.3-.5.2-.2-.1-.1-.2v-.5l.1-.6.8-.3.8-.2.5.2.4.3.1.9.1.8.4.7.4.7-.1 1-.2.9v1.2l.2 1.3.8.5.9.6 1 .8.9.9v.6l-1 .8-1.2.8h-.3l-.9.5-.9.6-.8.6-1 .7H90l-.6.4-.5.3-.3.2-.3.2-1.2.7-1.1.7-.6.4-.5.3-1.5 1-1.4.8-.4.1-.3.2-.9.6-.8.6-.6.3-.7.4-.1.2-.1.1-1 .7-1 .6-.6.4-.6.3-.8.5-.8.5-.7.5-.8.5-1.5.8-1.6 1-.2.3-.2.3h-.5l-.7.5-.7.5h-.4l-1.3.8-1.2.8-.4.3-.3.3-.4.2h-.4l-1.3-1-1.2-1.2-.6-.5-.6-.6-.8-.5-.9-.5-.4-.4-.5-.4-.9-.4-.9-.5-.4-.3-.3-.3-.9-.5-.8-.4-.2-.3-.3-.2h-.5l-1.6-.8-1.5-.7-.7-.3-.7-.3h-.6l-.4-.2-.3-.3-2-.6-2-.6h-.4l-1.6-.5-1.7-.4-.6-.3-.5-.2h-2l-.4-.2-.3-.1-2.9-.2-2.9-.2-.3-.3-.3-.3.1-.3.1-.3.8-.3.8-.2.5-.5.5-.4h.4l.7-.7.8-.7.2-.4.2-.4v-1l.1-1.1v-1.4l-.2-1.3-.4-.1-.4-.1-.8.6-.9.6H29l-1 .8-1.1.7-1 .5-.9.4-1 .7-.9.7h-.2l-1.3.9-1.3.9-1.2.7-1.2.6-.2.1-.2.1-1.3.9-1.4.8-.5.4-.5.3-.4.1-.5.2v.3l.1.3 1.4.2 1.3.2 1.5.1 1.4.1 1.2.4 1.1.3h.3l.3-.2 1.6.3 1.7.3 1 .1.8.2.7.2.8.3 1 .2 1 .2 1 .2 1 .3h.2l.3.2 1.7.6 1.7.6.8.2.7.2 2.2.8 2.1.9.3.2.3.2 2.1 1 2.2 1.1.3.2.2.2.4.2.4.2.6.3.7.3 1.2.9 1.2.9 1 .8 1.1.8h.3l1 .8 1 .8.8.8.9.7.2.2.3.3.6.6.6.6v.3l.2.4zm2-8.6h.4l.4-.3.4-.2-.2-.2-.3-.1h-1.9v.2l.3.3.3.3zm-2-1.3h.1l-.1-.3-.2-.2-.1-.8-.1-.9.3-.5.3-.5v-2.4l.1-2.3v-.5l-.2-.4h-1.7l-.8-.1-.7-.1-.6-.6-.6-.6v-.7l-.1-.8-.1-.4-.1-.4h-.4l-1.1-.5-1.1-.5-.3-.3-.3-.3-.2-.5-.1-.5v-5.1l.2-.6.2-.5.8-.5.8-.6.6-.2.6-.2 1-.5 1-.4.4-.6.4-.6.2-.5.3-.5.6-.4.6-.4h2.8l1-.4.9-.3H66l1.3.4 1.4.5h1l1.2.2.1.1.1.2h1.2l.5.3.5.4.5.8.6.8v.6l.4 1 .4 1.1v4.6l-.4.3-.2.4-.8.8-.8.8-.5.2-.6.3-.3.1-.2.2-1 .4-1 .4h-.5l-.6.2-.6.2-1.1.3-1.2.2-.4.2-.4.1v.5l.4.9.5.9-.3.7-.3.7.1.5.2.6v1.3l.1 1.3.4.7.3.7V43h.2l.1.2.7-.5.7-.6h.3l.7-.4.7-.4.5-.4.5-.3 1.3-.9 1.4-.8.6-.3.6-.3.5-.4.6-.5.8-.5.8-.4 1.4-.9 1.5-.9.3-.2.3-.3h.3l.5-.5.6-.5h.2l1-.7 1.1-.6.9-.5.9-.5 1.2-.8 1.1-.9.8-.3.7-.4v-.3l.6-.2.7-.3.3-.2.2-.1-.2-.3-.2-.3h-1.7l-.6-.2-.6-.2-.2-.4-.1-.4v-2l.2-.2.2-.3.2-1.7.1-1.6-.6-.6-.7-.5-.5-.4-.5-.4-.5-.1-.5-.1-.3-.3-.3-.4h-.4l-1-.6-.9-.6h-.4l-1.6-.8-1.7-.7-1-.4-1.2-.3-.6-.2-.6-.1-.2-.2-.3-.3H74l-.7-.2-1.3-.3-1.3-.3-.4-.2-.4-.1-1.7-.1-1.6-.1-.4-.3-.4-.2h-1.4l-.3.2-.3.1-.1.5-.2.6.3.5.3.5-.2 1.3-.2 1.3-.6.3-.6.2h-2.7l-.5-.7-.5-.7V14l.2-1.3h-.4l-.3.1-2.3 1.4-2.3 1.4-.3.1-.2.1-1 .7-1 .7-1 .7-1 .6-.8.4-.9.4-1.1.8-1.2.8-.7.4-.6.5-3.4 2.1L37 26l-.6.4-.6.5v.4l-.2.4.4.8.4.7-.1 1-.1 1-.6.3-.6.3-.7.2-.8.2v.3h1.3l1.2.2.4.1.4.2 1.4.3 1.4.4 1.8.5 1.8.4 1 .4 1 .4h.4l1 .5 1 .4.2.2.3.1 1.3.6 1.3.6v.2l.2.2h.6l1 .6.8.5 1.1.7 1.2.7.7.5.8.4 1 .9 1 .8.3.1.3.1.1.4.1.3zm2.5-.6h1.5l.2-.2.3-.2v-.7l-.6.2H61v.7l.2.1v.1zm-.1-2.6h.4l.5-.2.4-.2v-3.9h-.3l-.3-.2h-1l-.2.1-.3.2v1.9l-.2 1.9.3.2.2.2zm0-5.2h1l.4-.2v-.2l.1-.2h-2.5v.5h.3l.3.1zm-3.3-1.4h.9l.4-.4.4-.2v-2.1l.7-.5.6-.5h1l.2.1.2.2.2.4.2.3h.8l.4-.2.3-.3h1.8l.7-.3.7-.4h.9l1.4-.6 1.3-.7.4-.4.4-.3.4-.7.5-.7v-2.8l-.2-.7-.2-.7-.2-1-.2-.8-.4-.7-.4-.6-.3-.3-.4-.3-1.1-.3-1.2-.2h-1.5l-.5-.4-.5-.3H64l-.5.3-.6.2-1.6.1-1.6.1-.3.5-.2.4-.3.6-.3.6-.5.4-.5.3-.7.4-.7.4h-1l-.2.2-.3.3h-.5l-.3.3-.4.4v2l-.3 1-.4 1.2.1.5.1.5.4.6.3.5.7.4.6.3h.5l.6.6.7.5v1.6l.6.6.6.5h.2l.3.2zm3.5-.6h.6v-.2l.2-.1-.1-.4-.1-.3-.4-.2-.3-.2-.3.1-.3.1v.4l-.2.5.1.1.1.2zm-31.7-1.6h.4v-.5l-.3-.7-.2-.7-.3-.2-.2-.1-.6.4-.6.4-.5.4-.6.4.3.3.4.2h.2l.3-.2.6.2.7.1zm2.7-.8h1.4l.2-.4.3-.4v-.1l-.2-.2L34 30h-2v.8l.3.2.3.2zm.1-2.5.6-.1.3-.3.3-.4-.1-1.6L35 25l-.1-.2h-.1l-1-.2-.9-.1-.3.3-.3.3V28l.3.3.2.2.3.1.4.2zm56.5-2.5h.7l.7-.3.6-.2v-.3l.2-.2-.1-.2-.1-.2h-3.7v1l.4.2.5.2zm3.1-.3h.2l.7-.5.7-.4v-.7l-.2-.1-.3-.2-.5-.4-.6-.5h-.3V26zm-56.9-.6.5-.3 1.9-1.2 1.8-1.1 2-1.3 2-1.2.5-.3.6-.3.8-.6.8-.6 1-.5.8-.5 1.4-.9 1.3-.8h.5l.5-.5.4-.5L55 14l1.4-.8 1-.6 1.1-.7.7-.4.6-.5V8l-.2-1 .3-.8.3-.6-.2-.3-.3-.2H59l-.5.2-.6.3-1 .7-1 .7-1.1.6-1 .6-.6.4-.6.4-.8.6-.8.6-1.6.8-1.5.9-.8.5-.8.6-1.2.7-1.3.8h-.3l-.3.4-.4.3-.7.4-.7.3-1 .8-1.2.8-1 .7-1 .6-.7.3-.6.4-.3.4-.3.4v.7l.4.6.4.6-.2 1.4V25l.1.3.3.2zm-3-1.6h.7l.2-.2h.3V23H34l-.9-.2-.2.1h-.2v.7h.2l.2.2zm57-.1.7-.1.3-.2.2-.2v-3.3l-.5-.5-.6-.5h-.5l-.4.2-.3.3-.3.4v3.4l.4.3.3.2zm-57-2h.4l.2-.2.2-.2v-.8l-.4-.2-.3-.2-.6.3-.5.2v.4l.3.4.3.3zm56.5-3.1h.4l.7-.2.7-.2-.1-.2v-.2h-2.5l-.1.1-.1.2.3.2.3.3zM62 15.9l1-.1.3-.3.3-.2-.2-.3-.2-.3h-3.4v.7l.6.3.6.3zm-.5-2.5h.7l.5-.5.5-.4-.2-.9v-1.5l-.4-.7-.3-.6h-.6L61 9l-.3.1-.4.2-.1.7-.1.7v2l.4.4.3.3zm.2-5.3h.5l.3-.1.3-.1v-.3l-.6-.1-.5-.1h-.8l-.7.2.1.1.2.2h.4l.3.1zm-.4-1.7h.2l.4-.2.5-.2v-.8l-.3-.2-.2-.2h-.5l-.5.2-.2.4-.2.5.4.2z" style="fill:#000"/></svg>