<svg xmlns="http://www.w3.org/2000/svg" xml:space="preserve" width="120mm" height="60mm" viewBox="0 0 120 60"><path d="m14.7 53.3-.6-.2h-.2l-.1-.2h-.6l-.4-.3-.4-.2-.2-.5-.1-.5.1-.6.2-.5.1-.4.1-.4-.2-.3-.2-.3-.3-.2-.3-.1-.2-.4-.2-.3.3-.7.3-.6.2-.3.1-.3.5-.5.4-.5.3-.1.3-.2h1l1-.1.3-.3.3-.2v-.5h-.8l-.4-.2-.4-.1-.4-.5-.5-.5-.1-.9-.2-.9.2-1 .1-1.2v-.7l.3-1.4.3-1.5.2-.5.2-.4v-.9h.2l.1-.1v.2l.2.2 1.5 1 1.5 1 .3.3.3.2.4.2.4.2v.2l.7.4.7.5.7.3.6.3h.1l.1.2-.1.4-.2.3.1.6.1.5.2.1.1.1h.1l.1-1.2.1-1.2-.7-.5-.7-.5-1.5-1-1.5-1-.2-.3-.3-.2-.4-.2-.4-.2-.7-.6-.8-.6-.4.1H15v-.8l.3-.2.2-.3V31l.4-.8.3-.7.2-.4.2-.3.1-.3V28l.3-.7.3-.7v-7.5l-.2-.4-.2-.5-.2-.4-.2-1-.3-1v-5.6l.1-1.1.2-1.2.2-.3.2-.3.3-.4.3-.5.6-.5.5-.5.4-.1.4-.2.8-.2.7-.3h17.3l.5.2.5.2.7.3.8.3 1.7.7L44 7h.4l.5.2.8.2 1 .2h12.5l12.5.1 1.9.1h1.9l2 .2 2.2.1 1 .3 1 .2.9.5.9.5.4.6.5.5.4.2.3.3v.2l-.2.2-.2.2-.3-.2-.2-.2H83l-.2.2-.6-.4-.7-.3h-1.2v3.6h1.5l.4-.4.4-.3v-.6h.3v.6l.2.1.2.1h.7l.7-.2.1-.1.2-.2V12h.2l.1.1V14h11.4l.2-.1.3-.1v.2l.2.2-.1.1-.1.1H85l-.4.4-.4.4-.7.6-.6.5-.8.5-.8.4H81l-.2.2-.2.1h-4.6l-.1-.2.1-.2.2-.2-.5-.7-.6-.6-.3-.3-.2-.3H74l-.1.2v.2l.4.6.4.6.5.4.4.4h-.1l-.2.1h-10l-1.7-.2h-1.8V17l.1-.3.1-.2-1-1-.8-1.1-.3-.2-.3-.2-.2.2-.2.2.5.6.5.6.7.7.7.8v.2l-1-.1-.9-.1h-4.2L53 17h-2.5v-.3l.1-.2-.3-.5-.4-.4v-.2l-.4-.3-.3-.2h-.4l-.4.1v.1l-.1.2.6.6.6.6.4.2.4.1-.2.1-.2.1-1-.1-.8-.1h-1.8l-1 .2-1 .2-.4.3-.6.2H43l-.5.2-.5.2-1.6.4-1.6.4h-.5v.6l.2.7.2.2.4-.1.4-.2h1l.2.3.3.2-.4.3-.3.2H40l-.7-.1-.7-.2-.2.2-.1.3v2h-.7l-.7.1h-.6l-.7-.1-.2-.4-.2-.3h-.8l-.2.2-.1.5v.4l-.2.7-.2.6-.3 1-.3 1-.1.2-.2.3-.2.8-.3.7-.2.8-.3.8v.5l-.2.4-.2.5-.2.4-.2.4v.8l-.2.3-.2.3v.4h-.4l-.1-.3-.1-.4-.7-.4-.8-.5h-.3v.9l.2.3.1.2.5.2.4.2h.9v.2l.1.1-.1.5-.1.5-.4 1.2-.4 1.1v1.8l.3.5.4.6.8.4.9.3.2.3.2.3-.2.4-.2.4-.2.1-.2.1-.8.1-.9.2-.9-.2h-1.5l-.6-.1-.1.4v.5h-2.1l-.2-.3V44H24l-.4-.1-.6.2-.6.3H20l-.2.1-.2.5-.2.5.3.3.3.3.4.2.5.1h.5l.5.1.8.1h.8l.5.2.4.2h.6l.5.2.1.1.1.1h-1.3l-1.7-.4-1.8-.3h-.2l-.2.1-.6-.3-.6-.3-.1-.5-.1-.4h-.5v.6l.4.3.4.3.4.4.5.3.7.5.8.6h.5l.3-.2.3-.2h1.7l.8.4 1 .5.4.1.5.2.3-.2.2-.2-.1-.2-.2-.3-.9-.3-.9-.4h.2l.2-.1 1 .4.9.4.2.2.2.1-.3.4-.2.4-.6 1.5-.6 1.6h-2.3l-.8-.3-.8-.2-1.1-.3-1-.3-.7-.3-.6-.4h-.3l-.4.3-.4.4-.4.6-.3.6-.5.4-.5.4-.4.2-.5.1h-.4zm1-.5.4-.3.3-.4.2-.5.1-.3.1-.4-.2-.2-.2-.2-.4-.1-.5-.2h-.3l-.4-.1h-.3l-.2.2v.4l-.3.5-.3.5v.4l-.2.4h.2l.2.2.7.2.7.2h.1zm1.6-.7.4-.3.1-.3.2-.2v-.5l-.3-.2-.2-.2h-.4v.2l.1.3-.2.5-.2.5v.5h.2zm7.5-.6-.3-.2-1.3-.4-1.3-.3h-.2l-.2-.1-.3-.5-.4-.5h-1.1l-.7-.3-.6-.4h-1l-.4.1-.5.1v.3l.6.3.5.3.4.2.4.3.4-.3.3-.2h.4l.6.5.7.6h.7l1.1.4 1.2.3h1.4zm-11.5-.4v-.2H13l-.2-.2v.2l.2.2v.2l.1.2h.2l.1-.2zm.7-1-.4-.4-.3-.3-.1.1-.1.1.2.4.2.5.3-.1h.2zm2.5-.2v-.1l-.7-.5-.8-.4-.6-.3-.5-.3-.9-.5-.8-.5h-.4v.4l1.2 1 1.1 1h.4l.4.1h1v.2l.2.1h.4zm-.8-1.7v-.1l-1.5-.9-1.5-.9-.2.1-.2.2.1.2.2.2 1.2.7 1.3.8h.3l.3-.1zm1.2-.5v-.1l-.2-.3-.2-.2H16l-.4-.1-1-.8-1-.8h-.6v.2l-.1.2v.2l1.5 1 1.6.8h.7zm2.4-.6V47l-.4-.3-.5-.3-.2.2-.3.2.2.2.2.2h.9zm-1.8-.4.2-.2v-.4l.5-.9.5-.9.3-.5.3-.6-.3-.3-.3-.3h-.3l-.3.1-.5.8-.5.8v.3l-.2.3-.4.8-.5.7.3.3.3.2h.7zm-1.2-1.6.2-.5-.7.2-.7.3-.2-.1h-.3l-.2.1-.2.2h.1v.1l.7.4.5.4.3-.4.3-.3zm9.3-1.1v-.7l-.1-.4h-.1l-.2-.2-.2.2-.2.2v.4l.2.5.1.2h.4zm-3-.4.3-.3v-2.2h-.2l-.2.1-.2.6-.3.5-.3.4-.3.4h-1.2l-.4.2-.3.1v.4l.2.1h2.7zm3.8-.2.3-.5v-.3h-.6v.2l-.1.2v.8zm2.5-.5-.1-.3h-.5v.5l.3.2.2.2.2-.1v-.2zm-4.6.2.3-.4-.5-.3-.4-.3h-.2l-.1.1v.5l-.1.5h.2l.2.2h.4zm6.3 0-1-1-.9-1h-.4v.6l.4.4.4.5.5.4.4.4h.6zm-13.2 0 .2-.4-.3-.2-.2-.2h-.3l-.5-.4-.4-.3-.2.1-.2.1-.4.3-.4.2v.5l.4.1.3.2h.6l.6.1h.6zm10.3-.1.1-.2v-5.6h-.5v.2l-.1.2V43l.1.1h.2zm4.2-.1.2-.1-.2-.2-.2-.2-.4-.2-.5-.2v.2l-.1.2.4.3.4.3h.2zM21 42.6h.3l.3-.6.3-.5V41h.1l.2-.1v-.5L22 40l-.2-.4-.6-.2-.6-.2-1.2-.3-1.2-.3h-.6l-.3.2-.2.3v.2l.1.2h.7l.6-.2.6.2.6.2h.7l.7.2.1.2.2.1-.2.5-.2.5-.1.2-.1.2-.4.2-.3.1-.3-.2-.3-.2h-.9l-.7-.3-.8-.2h-.3l-.3.1v.2l-.1.2.7.3.6.3h.5l1 .3 1 .3h.6zm4.4-.5.1-.2v-2.6l-.1-.2-.3-.2-.2.2-.2.2V42l.2.3h.3zm1.1-.3.1-.2V39l-.2-.1h-.3l-.2.3v1.3l-.1 1.4h.3l.2.1h.1zm-12-.2v-.3h-.8v.4l.1.1h.7zm9.9-1.1V39l-.3-.2-.3-.2h-.3l-.3.2V40l.1 1.2.2.4.2.3h.6zm-4 .7.1-.1v-.9h-.5l-.6-.2-.1-.1-.1-.2H18l-.2.4-.2.3.2.2.1.2.7.2.6.2h.3l.2.2h.6zm-4.9-.2v-.2l-.6-.5-.6-.4h-.5v.3l.5.5.5.6h.7zm1.2-.5.3-.2V40l-.2-.1-.2-.1-.3.2-.2.1v.6h.1l.1.1h.2zm12.4-.1v-.2l-.3-.4-.3-.4h-.3v.5l.3.4.3.4h.2l.1-.1zM16 39.8l.3-.3v-.2l-.2-.1-.7-.5-.8-.5-.2-.1-.2.4-.2.4.3.3.2.3.5.3.5.3h.2zm6-1.2V38l-.2-.2-1.2-.3-1.2-.4-.2-.1h-.3l-.3.4-.2.4.1.2.1.1 1.2.4 1.2.4h.8zm7.2 0v-.3l-.2-.3-.3-.2h-.1l-.2.2v.5l.2.2.1.3h.5zm-12.2 0 .2-.2V38l-1.1-.7-1.1-.7h-.6v.8l.4.3.4.4.6.4.6.3h.4zm7.4-.6.2-.3-.1-.5-.1-.5-.3-.3-.3-.3h-.1l-.1.1V38l.1.2.2.2h.4zm2.3 0 .1-.2-.1-.2H26l-.5-.2-.3.1-.3.1v.3l.3.2.2.1h1zm-8.7-.4.1-.2-.7-.5-.7-.6-.9-.6-.8-.5-.2.2-.1.1v.3l.2.3.7.5.8.5.4.3.5.3h.6zm11.6-.4V37l-.3-.4-.4-.5h-.5v.7l.3.4.2.3h.3l.3-.1zm-3.3-2v-1.9h-.6v3.8h.6zm1.6 1 .1-.1-.2-.2-.2-.2h-.3l-.3.1v.2l-.2.1v.7h.2l.2.1.3-.2.3-.2zm-8.9.5h.4v-.1l-.8-.6-.9-.6-.4-.2-.4-.3-.7-.5-.7-.5h-.5v.2l-.1.1.2.4.2.4.4.2.4.1 1 .8.9.7h.3l.3-.1zm4-.7v-.5l-.4-.2-.3-.1-.8-.1-.8-.2-.1.1-.2.1 1.1.8 1 .7h.6zm2.1-3.6v-4l.3-.2.3-.2h.9l.2.1.2.1v.6l-.2.1-.3-.2-.3-.2h-.5l-.1.2-.1.2v3.7l.2.2h.6l.2-.2v-3.4h.4v.4l.1.5h.6l.2-.1.1-.2V29l-.1-1h-.2v-.1h-1.9l-.5-.6-.4-.5.2-.5.2-.4.5-.8.6-.7.3-.2.3-.2.5-.6.5-.5h-.1v-.1l-.7-.1-.7-.1v-1.2l-.1-1.2h-1.9l-.3.2v15.4l.4.4.4.5.2-.1h.1zM30 36v-.4l-.2-.3-.6-.2-.5-.3-.2.1-.1.1.3.5.3.4.4.1.3.2h.2zm-2.4-.9.2-.1v-.5l.2-.5h-.2l-.3-.1-.3.2-.4.2v.8l.1.1.1.1h.3zm-4.2-.3.3-.1V34l-.1-.2-.2-.2-.7-.1-.8-.1-.2-.2-.2-.2v-.6l.1-.6v-1l.2-1v-.7l.1-.7v-1l.1-1 .2-2 .2-2 .1-.5.2-.4v-2.2l.1-2.1.2-.2h.1l.6-.1h1.7l.1-.3.1-.3v-.2l-.2-.1h-5.2l-.2.2.1.3v.3l.7.1h.7v1.2l-.2.8-.1 1.7-.1 1.6-.3 2.4-.2 2.3v.3l-.2.3v1l-.1 1v.4l-.1.5-.1 1.4V33l-.2.5v.6h.1l.2.2 1.4.2 1.4.3h.1zm-3.9-1v-.4l-.9-.6-1-.7-.7-.5-.6-.5H16l-.2.1v.8l1.5 1 1.6 1.2h.3l.2-.1zm8.2-.6.3-.3-.1-.3-.1-.2h-.8v.5l-.1.5.1.1h.4zm3 .1v-.2l-1-.9-1-.8h-.3v.7l.9.7.8.7h.5zm-7.2-.4.2-.2v-.8l-.3-.3-.4-.3-.4-.1H22v.6l-.2.7.2.3.1.2h.5l.5.1h.2zm-4-.8v-.4l-.2-.3-.3-.2-.5-.4-.6-.4-.4-.2-.4-.3h-.6l-.1.2-.1.3.2.2.1.3h.2l.6.4.6.5.6.4.6.3h.4zm11.5.1.1-.1.2-.5V31l.2-.6.2-.6h.1l.2-.2V29l.3-.8.3-.8.5-1.4.5-1.5.1-.6.2-.6v-.7l-.3-.1H30v.7l.2.5.3.6.2.3.1.3.2.2.1.2.3.5.2.5v2.2l-.2.2-.3.3h-1.2l-.7-.3-.6-.3h-.3v2l1.1 1 1 .9h.4zm-3.2-.5.2-.2-.1-.4-.1-.4H27l-.2.4-.2.4.3.2.2.2h.4zm-4.3-.6.2-.1v-.7l-.5-.4-.5-.4h-.3l-.2.1v.7l.3.3.3.2.2.2.2.1zm-3.8-.7-.2-.3h-.2l-.8-.7-1-.7H17v.2l-.1.2.5.4.5.4.4.3.4.2.4.2.4.3.1-.1h.2zm.2-1.2v-.3l-.3-.3-.2-.2-.7-.5-.7-.4h-.5v.2l-.2.2.3.2.2.3.8.5.7.6h.6zm3.8-.2v-.3l-.2-.3-.3-.3h-.8v.6l.4.3.4.4h.2l.2-.1zm7.5-.7.2-.3v-.7l-.2-.8-.3-.7-.3-.8-.2-.2-.2-.2-.3-.7-.3-.7v-1l.2-.2.2-.3V21l-.3-.2-.4-.2-.5.1-.6.1v.9l.2.6v.6l-.8.8-.9.8-.3.3-.3.3-.3.6-.3.5v.7l.2.2.2.1 1.2.2 1.2.2.6.4.5.5.5.1.5.2h.3l.3-.2zM19.7 28l.2-.1-.1-.3-.1-.3-.7-.5-.7-.5H18l-.1.1-.1.2.2.3.3.4.6.4.6.5h.2zm3.9-.5v-.5l-.2-.3-.2-.3h-.8v1l.3.3.4.3h.2l.2-.1zM20 26.2v-.4l-.9-.6-.9-.6H18l-.1.2-.1.2.2.3.2.3.8.5.7.5h.5zm3.6-.8V25l-.3-.3-.3-.3-.2.2-.2.3v.6l.2.2.3.3h.2l.2-.1zm-3.4-1V24l-.4-.2-.4-.2-.6-.4-.6-.4H18v.3l-.2.4.1.2.1.2 1 .7 1 .7.1-.1h.2zm3.3-.7.1-.3-.1-.3-.2-.3h-.5v.5l-.1.4.2.2.1.2h.4zm-3.1-.6.2-.3-.8-.6-.8-.6-.4-.3-.4-.3h-.4v.7l.2.2.2.3.9.6.9.6h.2zm16.2-.4.2-.1v-2.9l-.2-.2-.2-.1-.2.1-.2.2v3l.1.1.1.1h.2zm1.3-1.6v-1.7h-.6V21l-.1 1.6v.2l.1.1h.6zm-14.4 1h.1v-.5l-.2-.3h-.2l-.2.3-.1.3.1.2.2.2h.2zm10.3 0 .1-.1v-1l-.2-1h-4.2v.2l.4.3.4.4v1.2h.9l.9.1h1.6zm1.6 0 .2-.1v-1.6l-.2-.3-.1-.2h-.6l-.2.2-.1 1v1h.1l.2.1h.5zm-7.7-.1v-.2l-.1-.4-.2-.4.6-.4.5-.4-.2-.1-.3-.1h-.9l-.2.2-.2.1V22h.1l.1.2h.8zm-7.1-.3v-.1l-.2-.5-.2-.5h-.4l-.3-.2v-.2l-.7-.5-.7-.5h-.4v.6l.2.4.3.4 1 .7 1 .6h.3zm3-1.7.3-.7-.2-.1-.1-.2h-.4v.7l-.2.6.2.3.1.2.2-.1zm-3-.3v-.5l-.3-.3-.4-.3-.2-.2-.3-.2-1-.8-1.1-.7H17v.6l.1.6.6.5.7.5.3.2.2.2.7.5.7.5h.3zm9.4-.2.3-.2-.4-.5-.4-.5-.5-.4-.4-.4h-.4l-.4.1-.1.1-.1.1.6.8.6.7.3.2.3.2h.4zm-4-.2v-.2l-.7-.8-.7-.8-.4-.1h-.7l-.3.2.2.5.3.5.6.5.6.5H26zm2.1 0-.4-.7-.5-.6-.4-.2-.4-.2h-.7l-.1.1v.2l.3.4.3.4.4.5.4.4h1.1zm4 .1.3-.2-.5-.4-.4-.4-.4-.5-.4-.4h-.9l-.2.2.2.3.2.2.3.5.4.5.3.2.4.2h.6zm1.7-.6v-.5l-.4-.3-.5-.4h-.3l-.4-.2-.2.1h-.3v.5l.7.7.7.8h.5l.2-.2zm1.6.6v-.2h-.1L35 19h-.3l-.3.2-.1.2v.1l.2.1h.7zm0-.8h.2l-.2-.4-.1-.3-.5-.2-.4-.2h-.5v.6l.4.2.3.3h.2l.3.1h.3zm1.8-.3V18l-.5-.3-.5-.3H36l-.3.2v.4l.3.3.4.3h.7zm1.6 0h.2V18l-.5-.2-.4-.2h-.6v.2l.4.4.4.4h.2zm-18-.1.1-.2v-.5h-.2l-.2-.2h-.7l-.3-.3-.2-.4-.7-.5-.7-.5-.3-.2-.3-.3h-.6v.7l.2.1 1.6 1.1 1.6 1.1v.1l.1.2h.6zm19.6-.3v-.2l-.4-.2-.4-.2-.2.1-.2.2.3.3.3.2h.6zm1.6-.5.1-.2h-1v.5h.9zm1.6-.4.5-.3-.2-.1-.1-.1-.6.1-.5.1-.1.2h-.1v.3l.2.1h.5zm-10.2-.4.4-.3V16l-.1-.1h-.2l-.4.1-.4.2-.4.3-.3.3.2.2.2.2.3-.1.3-.2zm4.3.4.1-.1-.4-.5-.4-.4h-.2l-.3.2-.3.3-.4.3.2.2.2.2h.7l.7-.1zm36.7 0v-.3l-.5-.6-.5-.6-.2-.2-.2-.2h-1.2v.5l.7.7.8.8h1.1zM28 16.6l.5-.4V16l-.6.1h-.5l-.3.4-.4.4v.3h.7zm1.7 0 .6-.3v-.2l-.1-.2h-.8l-.5.4-.5.4.1.2.1.1h.5zm1.7 0 .5-.4V16h-.6l-.5.4-.4.3v.4h.6zm4 0 .5-.4-.1-.3v-.3l.6-.2.7-.3V15l.1-.2-.2-.1-.2-.1h-.4l-.5.1-.2.3-.3.3v.2l.1.3-.4.2h-.5l-.4.4-.3.3.1.2v.2h1zm32.8.3.3-.2-.1-.2-.2-.3-.5-.6-.5-.6-.2-.1-.1-.2H66l-.8.2H65l-.1.2.6.8.7.8.1.1h.7l.7.2zm2.2-.1v-.2l-.3-.5-.5-.6-.5-.6-.6-.7H68l-.3-.1-.2.1-.3.2v.4h.2l.8.9.7.8.3.2.2.3h.9zm1.8 0v-.2l-.2-.4-.3-.4-.5-.4-.4-.4H70v.3l.7.8.6.7.2.1h.5l.2.1zm5.6 0v-.1l-.4-.6-.4-.5-.4-.4-.4-.4h-.4l-.2.2h-.2l.3.5.3.5.5.5.6.5h.7zm1.4 0 .1-.2v-2.4L79 14h-.3l-.3.1v2.6l.1.2.1.2h.2zm-39.6-.1v-.2l-.5-.5-.5-.6H38l-.2.2-.2.3.3.3.3.2.3.2.2.3h.9zm23.8-.1v-.2l-.9-1-.8-.9-.3-.3-.3-.2h-.3v.4l.7.8.6.7.5.5.5.5.1-.1h.2zm2.1 0-.4-.6-.4-.5-.4-.4-.4-.5-.4-.3-.3-.3h-1l-.2.2.6.8.6.8.7.5.6.6h1zm-24.3-.1v-.3l-.4-.4-.4-.3-.4-.4-.3-.3-.3.2-.3.1v.3l.4.4.3.4.3.3.3.2h.8zm19 0 .2-.2-.2-.3-.3-.3-.2-.1-.2-.1v-.4l-.2-.1-.3-.2v-.3l-.2-.3h-.6l-.3.1-.3.2v.3l.3.3.2.3.5.5.5.5.3.2.3.1h.2zm20 0 .2-.3.3.1h.2v-1.2h-.3v.4l-.1.4h-.2V15L80 15h-.2l-.1.8v1h.3zm-53.6-.1.1-.3-.1-.1-.2-.2-.2.1H26v.7h.4zm18.7 0h.9V16H46l-.3-.1-.5.1-.5.1-.2.1v.3l.1.1h.6zm7.2 0-.1-.4-.3-.4-.4-.4-.4-.4h-1.1v.4l.3.4.4.3.4.4.4.3h.7zm1.9 0 .2-.2.5.2.6.2h.7v-.1l.1-.2-.5-.5-.5-.5-.2-.2-.3-.3h-.9l-.2.2-.2.2-.3-.2-.4-.2h-.7v.5l.4.4.3.4.3.3.4.2h.5zm-.2-.5-.3-.2v-.3h.3l.2.3.3.3-.2.1zm4 .6h.1l-.2-.4-.3-.4-.3-.4-.4-.4-.3-.1-.2-.1h-.3l-.3.2v.3l.7.7.6.7h.8zm-15-.5.2-.2v-.2l-.4-.4-.5-.4H41v.2h-.2l.6.7.6.7h.5l.6-.2zm5.3.1v-.1l-.6-.6-.5-.6h-.9v.5l.5.5.6.6h.4l.5-.1zm33.2-.3.1-.2v-.3l-.1-.2h-.3v.9h.3zm-62.1-.1v-.2l-.2-.3-.2-.2-1.2-.8-1.1-.7h-.2l-.1.2.2.3.1.3 1.2.8 1.1.7h.2zm25.7 0h.6v-.5l-.3-.2-.3-.2h-1.7l-.1.2h-.1l.2.4.1.3h.3l.2.1h.3l.3-.1zm32.8-.1v-.4l-.2-.2-.2-.2h-.2l-.2.1v.2l.3.4.3.4h.2zm-57-.2.2-.2-.4-.5-.5-.5h-.2l-.2-.1h-.1v.7l.2.6h.3l.3.2h.4zm1.9 0 .1-.1-.2-.4-.2-.4-.4-.3-.4-.4h-.8v.2h-.2l.5.7.4.5.4.2.3.2h.3zm2 0h.2l-.1-.3-.2-.3h-.4l-.1.2v.6h.2zm5.1-.8.5-.5-.1-.1-.1-.2h-.6l-.7.6-.8.6v.4l.1.1.1.1.6-.3.5-.3zm53 .8h.3l.3-.4.3-.4v-.4h-.8l-.2.3-.1.2h-.6v.7l.2.2.1-.1.2-.1zm-55.5-.3.6-.3.3-.4.3-.3V14l-.2-.2h-.3l-.3.2-.2.1-.2.3-.2.3-.4.1-.4.2v.6h.5zm3.5.1.5-.2.3-.5.4-.4V14l-.1-.2h-.7l-.7.7-.7.7v.3h.5zm2-.2.7-.4.1-.3.2-.2v-.3h-.6l-.3.2-.4.1-.5.5-.5.5.1.2.1.2h.4zm2-.1.6-.6v-.5h-.6l-.4.3-.4.3-.2.3-.3.3v.5h.5zm-9 0 .3-.1v-.4l.1-.4-.3-.1-.4-.1-.3.2-.3.3v.2l.3.3.2.3h.2zm-1.8-.6v-.2l-.2-.1-.3-.2H23v.2l-.1.2.3.4.3.4.4-.2.3-.2zm14.2.4v-.1h-.3v.1l-.1.1h.4zm39.3-.3h.2V14h-.3l-.2-.1h-7.6l-.1.3-.1.2h.1l.2.1h7.6zm-58.2-.3V14l-.8-.6-.7-.7-.6-.4-.6-.4-.1.2-.2.2.1.3.1.2 1.2.8 1.2.8h.2zm21.7.2h.3l-.2-.3-.2-.2h-.9l-1-.1v.1l-.2.2.1.2v.1h.4l.3.1h1.2zm3.4 0v-.1h-1l-.8-.1h-.3l-.4.1v.3h1.3l1.2-.1zm2.2 0h-1v.2h.9zm2.2 0h-1.3v.2H49zm2 0h.2l-.3-.1h-.7v.1l-.1.2h.9zm2.3 0v-.1l-.2-.1H53l-.3.1v.2h.6zm1.8 0h.3v-.2h-.8l-.1.1-.1.1.2.2h.2zm11.2 0 .7-.2.2-.3.2-.3v-2.7l-.7-.4-.7-.3h-1.5l-.2.2-.3.2v.3h2.6V13l-.3.1H64l-.2.3-.2.1.2.3.2.4.4.2.5.2h.8zm-27.7-1.7v-2.3l-.1-.7h-1.5l-.3.2v3.8l.1.2.2.3h1.5zm35.7 1h5l.2-.2h.2v-1.9l-.2-.2-.1-.2H68.3l-.3.3-.2.2v1.6l.2.3.3.2h.5l.5-.1zm-53.5-1.5V11l-.1-.3-.2-.2h-.5l-.1.3-.1.3v1l.2.4-.2.2-.1.2-.4-.4-.3-.3-.7-.4-.6-.5-.4-.3-.3-.2h-.4v.5l.6.5.7.5.6.4.6.3h.6l.2.3.2.2h.3l.4-.2zm5.6 1.1.2-.1v-2.5l-.3-.2-.3-.1h-4.4l-.1.2-.2.1V12l-.1 1.1.2.3.2.2h4.6zm6.6 0 .1-.1v-2.6H33l-.2-.2h-4.9l-.3.1v2.8l.2.1.3.1h2.4l2.5-.1zm2.6 0 .2-.2v-2.4l-.3-.2-.2-.1H34l-.3.2-.2.2.2.3.1.3v1.7l.2.2.2.2h.7l.6-.1zm18.3 0 .2-.1v-2.6l-.1-.2-.1-.1H39.7l-.3.1-.3.1v2.7h.2l.3.2h7.1l7.1-.1zm9-.2.3-.2v-2.4l-.3-.2-.2-.2h-4l-3.9.1-.2.2-.1.1v2.6l.2.1.2.1h8zm3.1-.5.3-.2v-.8l-.1-.2-.2-.1h-2.3l-.1.4-.2.4.1.4.2.3h2zm-46.5-1.2v-.2l-.5-.4-.5-.3-.7-.5-.6-.5h-.5v.5l1.1.8 1.2.9h.4zm64.3-.7v-.4l-.4-.2-.4-.3-.4.2-.3.2v.2l-.2.1h.6l.1.2.2.3h.1l.1.1h.3l.3-.1zm-14.8 0 .2-.3L68 9.2l-1.4-1h-1.3l-.2.2.3.1.3.2 1.3 1 1.4 1.2h.6zm8.8 0 .1-.2h-.3l-.2-.1H70l-.1.2v.2h7.8zm1.2 0 .2-.2V9.3h.5v1.3l.2-.3.2-.2V8.9h-.8l-.3-.2-.2-.3-.3.2-.3.1-.4-.1-.4-.2h-1.3v.4l.6.6.5.6h.5l.2-.2.2-.2.1.1h.1v.9h.1l.1.2h.4zm-1-1.7v-.2l.1.1.1.1-.2.2zm-58.6 1v-.4l-.3-.2-.3-.1-.5-.4-.5-.4h-.3l-.1-.2-.2-.2H17l-.2.1v.4l1.2.9 1.2.9h.1l.2-.1zm3.9 0-.5-.5-.6-.5-.6-.4-.6-.4h-.5v.4l1.3.8 1.2.7h.2zm1.7 0V10l-.6-.5-.6-.5-.7-.4-.7-.4-.1.1v.3l.2.3.4.2.4.2.1.1.2.2.6.3.6.3h.2zm3.3 0 .1-.1-.2-.3-.3-.2h-.3l-.3-.1.1.3.1.2.3.2.2.1h.2zm3.5-.2.3.3h.4l.1-.2.1-.2-.3-.5-.2-.5-.4.1h-.5l-.2-.2V8l-.1-.5-.4-.2H30l-.3.2v.3h.4l.4.2v.8l.1 1 .2.1v.2l.5-.4.3-.3zm3 .1.4-.2-.5-.6-.6-.6h-1.5l-.1.1.1.3.2.2.3.4.2.4.5.1.4.1h.4zm29.3.1.2-.2h1.5v-.1l.1-.1-.8-.8-.9-.7h-3l-.2.3h.2l.3.1V9l.6.2.6.3h.6v.2l.2.2v.2l.2.1h.2zm8-.2v-.3l-.6-.7-.6-.7h-1.1l-.1.2-.1.2.5.7.6.7.2.1.3.1h.9zm2 .1h.1l-.3-.6-.3-.5-.5-.4-.4-.3h-.2l-.3.2-.3.2.3.3.2.4.5.5.5.5.4-.1zm2.2 0 .1-.3-.2-.3-.3-.4-.4-.3-.3-.4h-1.1l-.2.3-.1.2.3.3.4.3v.3l.4.3.5.2h.9zm5.4 0v-.3h-.2l-.1.2v.3h.3zm-60.1 0-.4-.4-.4-.3-.4-.2-.4-.3h-.2v.4l.4.3.4.3.3.2.3.1h.4zm8.1 0v-.1l-.5-.4-.6-.4-.4-.4-.5-.3-.6-.4-.7-.4H26v.3l.4.2.4.2.5.4.4.3.4.2.4.2.1.1.1.1.4.3.4.2h.2zM70 9.6v-.2l-.4-.6-.5-.5-.2-.1h-1.3l.8.9 1 .7.2.1h.5zm-43.5.2v-.1l-.5-.5-.6-.4-.5-.3-.6-.3H24v.2l.1.2 1 .6 1 .7h.3zm54.4-.2v-.2l-.2-.1-.1.2-.1.2.2.2h.2zm-21.6 0-.2-.1h-2.7l.2.2h2.8zm-3 0-.2-.1H56l-.2.1h.6zm-4.4-.3h.1zh-.1l-1-.1H50L47.8 9h-2.1l-1.4-.2-1.4-.2h-3.5l-.2-.1h-2v.5h.3l.3.2h6.9l3.7.1h3.4zm-15.4-.2.1-.2-.3-.2-.2-.2H35v.2l.3.3.4.4.3-.1h.3zm-9.2 0-.1-.2-.6-.4-.7-.4h-.2v.4l.6.4.6.4h.4zM53 8.6v-.2l-.4-.2L52 8l-.2.1-.2.2v.1l.5.3.5.2v.4l.2-.2v-.3zm5.5 0-.3-.5h-.4l-.4-.1h-.1l-.1.1v.3l.3.3.3.3.4.1.4.1.1-.1.2-.1zm2.7.5.1-.2-.2-.3-.1-.2-.4-.2L60 8h-.8L59 8l-.2.2.3.3.3.3.4.2.3.1h.9zM29.8 9v-.2l-1-.7-.8-.6h-.6l.5.4.5.3.6.5.6.4h.2zm27-.2v-.3l-.3-.2L56 8h-.2l-.2.1v.2l.4.5.4.3h.4zm-2.6-.3-.2-.2-.3-.1-.3-.1-.1.1.4.4.4.4.1-.1.2-.1zm1.3.3v-.1l-.3-.3-.4-.3-.2.1-.2.2.4.3.4.3h.3zm-36-.3v-.4l-.8-.6-.8-.5-.3.1-.4.1v.4l.7.4.6.4.1.2.2.1h.2l.2.1h.4zm28.3 0v-.1l-.1-.2-.2-.2h-.4l-.1.2v.2l.2.2.3.1h.2zm2.5 0v-.2l-.3-.1-.2-.1-.2.1-.2.1.3.2.2.2h.5zm-1.3 0zl-.2-.1-.2-.2v.1h-.2l.2.3.2.1h.2zm2.5 0v-.1h-.2l-.3-.2v.3l.1.1h.4zm-8-.2V8l-1-.4-1-.5-.2-.1L41 7l-.8-.3-.8-.2h-.2v.7l.7.6.7.5h.5l.6.1h1.8zm-4-.4v-.3l-.4-.1-.3-.1H38l-.2.1-.2.2.2.3.1.2h.7l.6.1h.2zm6.2.2v-.2l-.7-.2-.6-.3h-.5l-.5-.3-.5-.2h-.3l-.3-.2-1.4-.6-1.5-.6h-.3V6l1.2.4 1.1.3 1 .5 1 .4.7.3.6.3h1zm-8.6-.2.2-.2-.2-.2-.1-.2h-5.2l-.2.2-.2.1v.2l.1.1.5.1h5zm-11.7-.5V7H25l-.2-.1h-1V6l-1-.5L22 5h-.3v.2l.5.5.6.5.5.2.4.2v.2h-.1l-.2.1h-3l-.2.1-.3.2v.4h.1l.1.1h5.3zm3.7.1H29v.1zm-9.6-.2v-.4l-.2-.3-.4-.2-.4-.1h-.4v.4l.5.3.5.4h.3zm8.4-.5.1-.2-.2-.1-.2-.2h-1.2l-.1-.1-.1-.1-.3.2-.2.3.2.2.2.2h1.6zm1.6 0 .2-.2-.2-.2-.2-.2h-.4l-.4.2h-.1l-.1.2.2.2.2.2h.6zm2.3.1h.2v-.4l-.4-.2h-1.2l-.1.1-.2.2.2.2.1.2h1.2zm2-.1.2-.2-.2-.2-.3-.2H33l-.6.2v.2l-.1.2h.2l.2.2h.9zm4.6 0 .3-.3-.2-.3-.1-.2h-3.5l-.3.2-.2.2v.5h3.8zm-18-.7-.2-.2-.5-.2-.4-.1-.2.1-.1.1.3.3.3.4h.8l.1-.1zm1.8.3v-.1l-.7-.6-.8-.5h-.4v.3l-.1.2.8.4.8.5h.4zM25 6v-.3l-.5-.4-.6-.3h-.4l-.1.2.6.5.5.5h.5zm1.3-.4v-.2l-.5-.2-.5-.3-.2.2H25l.6.5.7.4v-.1zm3 0v-.2l-.5-.2-.5-.3-.2.2-.2.1h.2l.1.1.5.4.5.3h.1zm-1.5 0v-.2l-.5-.2-.5-.2h-.1v.3l.4.3.4.2h.3zm3 0v-.2l-.5-.2-.4-.3-.2.2-.1.1.3.2.4.3h.2l.2.1zm1.5 0v-.1l-.5-.3-.4-.2H31v.2l.4.2.4.3h.4zm1.4 0v-.2l-.5-.2-.5-.3v.2l-.1.1.4.3.5.2h.2zm4.5-.1.2-.2-.2-.1L38 5h-3.2l-.2.2v.2l.2.2h3.2zm12.7 47.2h-.4l-.2-.3-.3-.2v-.8l.3-.1.4-.2h1.7v-1.2l.1-1.2h.6v.6l.3.1h.3v.2l-.3.4-.3.3v.5l-.1.2-.2.2.3.3.2.3-.1.2-.1.2-.3.2-.2.2h-.7l-.6.1zm1.4-.8.1-.2h-.1l-.1-.1h-1.3l-.1.1-.2.2v.1l.2.1H52zm-6.6.5-.2-.2.2-.4.2-.4-.2-.3-.1-.2h-.2l-.3-.2v-.3l.5-.3.4-.3v-.3h-.6v-.6h2l.2.3.2.3h.2l.2-.1V49l.1-.3h.6v1.7l-.2.6v.6l-.2.1-.1.2h.3l.3.1v.3l-.1.2h-3zm1.2-1.8-.2-.2-.2-.2h-.3l-.2.3-.1.2h1zm1.3-.2v-.2h-.3l-.2-.1-.1.2-.1.2v.1l.2.1h.5zm-.7-.6v-.2h-.2l-.1-.2-.2.1h-.2v.3l.1.2h.6zm9.5 2.5v-3.7h.6v2l.1 2H57Zm-16.5-.1-.1-.1v-.4H42l.2-.1.1-.2v-.2l.1-.3h.3l.1.4v.4h.9l.8.1v.4h-4zm13.4-.5.5-.7.5-.6-.1-.2h-.4l-.4-.1v-.3l.2-.1h.8l.4-.1.5-.2h.2l.3.2v.4l-.4.1-.4.1v.4l.5.4.4.5v.4H56l-.4-.4-.5-.4-.3.4-.4.4h-.5zm-13-.7-.1-.2.4-.2.3-.2.4-.3.4-.4v-.1l-.1-.1h-1.2V49h3v.2l.1.3h-.9v.2l-.2.2.6.4.6.5v.3h-.5l-.6-.4-.5-.4-.4.3-.4.4-.3.1-.3.1h-.2zm-9.4 0-.5-.3h-.5v-.2l.4-.2.4-.2h.7l.7-.2.2.3.1.2h1.2v-.2h4.5v.5h-5.7l-.3.2-.3.2H32zm17.9-.3h-.1l.6-.6.6-.5-.4-.1-.4-.2V49h2.1l.1.2v.2l-.3.1-.4.1v.3l.4.3.5.3v.3h-.7l-.2-.2-.2-.1h-.5l-.3.2-.2.3h-.6zm5.3-1.5-.2-.1.2-.1.1-.2h.5l.4.1v.4h-.8zm33.1-18.3h-.2l-.3-.3-.3-.3v-.5l.3-.3.4-.2v-.1h-1l-.1-.4-.1-.3v-.3l.2-.2.3-.1.4-.2h.7v-.2h-.7l-.7-.1v-.5h2l.2.2v.9h-.2l-.2.2h-1.2v.5h2.1v-.9l.1-.8.2-.1v-.2h.3l.2.2v2.3l-.1.1h-.2l.2.3.1.3v.4l-.3.3-.4.3h-.7l-.7.1zm1.6-.8v-.2h-1.7v.3l.1.1h1.6zm.2-1h-.3l-.2.1h.6zM82 30.3h-4.6v-.5h4.4l4.4.1v.2l-.7.2-.6.1h-.5L84 30l-.5.1-.6.2h-.7zm-4.5-1V29l.7-.4.6-.3.3-.6.4-.6h.3l.1.6.2.5.4.3.3.2.3.2.3.2v.1l-.2.2h-.5l-.5-.5-.6-.4h-.3l-.1.2-.2.3-.4.2-.4.2h-.7zm4.8 0V29l.2-.2.4-.2v-.8l-.3-.2h-.2v-.3l.1-.2H84l1.5-.1.1.2.1.2-.3.2-.3.2v.7l.3.1.3.2v.3h-2.1zm2.2-.8.1-.4-.1-.2-.1-.1h-.9v.9l.3.1.3.1h.3zM83.3 26h-.1V19l-.4-.3-.3-.2.2-.3.2-.4v-.6l.1-.3.2-.3.3.1.3.2v.5l.1.5.2.5-.3.3-.2.4v7.1h-.2Zm-25.7-3.5h-.4l-.4-.4-.4-.4v-.5l.5-.1.5-.2-.6-.2-.6-.1v-1L56 19h.2l.2-.1.3.3.2.3h.8V19l.1-.2h.6v1.8l.1.2h.5v-2.3h.5v.5l.2.2.2.3-.2.5-.2.5v1.1l.1.4-.6.3-.7.3H58zm1.3-.8.2-.1v-.1l-.2-.1h-.7l-.7-.1-.1.2-.1.2.2.1.2.1h.9zm-1.2-1.7v-.2H57l-.1.2.2.2h.6zM68 22.3v-.6h-1.6l-1.5-.1v-.4h1l.1-.4.2-.3h.3l.1.3.1.3h1l.2-.1v-.4h-.8l-.3-.2-.2-.3h-.4l-.3.3-.2.2h-.4l-.1-.1-.1-.1.4-.4.5-.4v-.8h.6l.2.5.2.5.3.2.3.2.2-.1.1-.1v-1.2l.1-.2.1-.1h.4v.2l.2.2V22l-.1.2-.1.2h-.4Zm-4.4-.2v-3.4h.4v.6l.1.6.3.1.3.1v.4h-.3l-.3.1v1.6h-.3l-.1.1zm-2.8-.7-.4-.4v-1.4l.4-.4.4-.3h1l.4.5.3.4v1.1l-.5.4-.5.5h-.6zm1.2-.5.2-.3v-.4l-.1-.5-.3-.1-.2-.2-.2.3-.3.2v.9l.2.2.2.1h.4zm35-7.5v-1.8l-.3-.2-.2-.1h-11V11h7.8L95 11l1.7-.1.2.2.3.1v2.3z" style="fill:#000"/></svg>