<svg xmlns="http://www.w3.org/2000/svg" xml:space="preserve" width="120mm" height="40mm" viewBox="0 0 120 40"><path d="m132.84 44.51 61.9 27.13" style="opacity:1;fill:#000;fill-opacity:.920746"/><path d="M21.85 4.11a.3.3 0 0 0-.24.17q-.05.16.17.17c.13 0 .24-.08.24-.17q-.02-.16-.17-.17m-1.02.19c-.26 0-.35.28-.23.74.12.43.1.52-.2.87-.18.21-.45.39-.6.39-.22 0-.27-.08-.27-.55q.01-.95.5-.96c.43 0 .2-.3-.29-.38-.82-.14-3.28-.04-4.12.17-1.78.45-2.1.53-2.54.69a7 7 0 0 0-1.48.71C9.58 7.55 8.75 8.8 8.75 10.26c0 .87.67 1.77 1.67 2.24l.76.37 23.16-.04c11.61-.01 10.71-.1 13.66-.16q-.16-.05-.15-.2c0-.23.12-.27.65-.23.36.03.66.13.66.22s-.25.17-.56.2c.97-.01 4.61-.02 4.94-.05l-.63-.02c-2.48-.05-2.56-.08-3.25-.95-.31-.38-.33-.6-.11-1.02.2-.39 1.23-.52 1.5-.2.1.13.42.31.71.41l1 .35c.26.09.5.13.56.08.05-.04.25.04.44.18.2.15.51.26.7.26.2 0 .41.1.49.24s.27.28.43.34.29.18.29.27v.04c.05-.02 1.84-.01 1.84-.03a.5.5 0 0 0-.18-.36 6 6 0 0 0-1.78-.62c-.3-.05-.56-.16-.6-.25s-.3-.2-.6-.25c-.28-.04-.68-.19-.89-.32s-.53-.24-.72-.24-.4-.07-.46-.17c-.06-.09-.38-.2-.7-.26-.33-.06-.7-.17-.83-.25s-.5-.22-.83-.3a75 75 0 0 1-4.63-1.47c-.33-.14-.8-.25-1.04-.25s-.63-.11-.86-.25a2 2 0 0 0-.93-.25c-.28 0-.7-.12-.93-.26a2.5 2.5 0 0 0-1.07-.25c-.35 0-.83-.11-1.06-.25a2.5 2.5 0 0 0-1.07-.25c-.35 0-.83-.12-1.07-.26a3 3 0 0 0-1.14-.25c-.4 0-.83-.08-.96-.18s-.74-.21-1.34-.25a5 5 0 0 1-1.45-.26c-.18-.1-.98-.22-1.76-.25-.78-.04-1.93-.18-2.55-.31-.84-.18-1.7-.22-3.46-.15-1.23.06-2.23.15-2.28.21.05.14 3.9.43 5.63.43.61 0 1.23.09 1.36.19s.74.23 1.37.29c.62.05 1.21.14 1.3.2.25.12.84 1.45.8 1.76-.04.28.01.24-2.51 1.94-2.17 1.46-2.71 1.6-3.57.86l-.89-.73c-.67-.51-3.27-2.69-3.98-3.34-.63-.57-.66-.62-.59-1.16.06-.43.03-.59-.11-.66a1 1 0 0 0-.3-.1m34.83 8.29c-.05.01-1.97 0-2.12.02.88.02 1.84.05 1.92.07q.16.01.2-.1m-7.06.08H48q.14.04.5.01zM69.54 4.6c-.14.1-.64.22-1.12.25s-.95.12-1.03.2c-.1.07-.4.19-.7.25-2.44.52-4.9 3.6-4.45 5.54.14.57.7 1.36.99 1.36.08 0 .3.13.47.3.29.27 1.02.3 9.8.37 5.21.05 15.74.09 23.4.09 13.84 0 13.92 0 13.92-.34 0-.26-.1-.37-.47-.47a10 10 0 0 1-1.02-.38c-.3-.14-.7-.25-.9-.25-.19 0-.4-.09-.48-.2-.08-.1-.4-.25-.7-.32-.9-.21-1.86-.52-2.11-.68a4 4 0 0 0-.77-.31c-.54-.16-.85-.27-3.32-1.1a35 35 0 0 0-3.56-1.09c-.35-.08-.8-.22-.98-.33-.19-.1-.5-.18-.71-.18s-.6-.12-.85-.25a3 3 0 0 0-1.03-.25c-.3 0-.77-.12-1.05-.26-.27-.14-.8-.25-1.17-.25s-.73-.09-.8-.19-.66-.22-1.3-.27a5 5 0 0 1-1.4-.27c-.14-.1-.78-.2-1.44-.21a4 4 0 0 1-1.48-.25 4 4 0 0 0-1.59-.25 8 8 0 0 1-1.9-.25c-.81-.28-11.87-.3-12.25-.01m-51.13.32c.25 0 .47.06.54.2.06.14.1 1.52.1 3.07v2.83h.4c.43 0 1 .67.86 1-.12.26-.56.22-.87-.08-.24-.24-.29-.24-.53 0-.31.31-.96.34-1.13.05-.19-.34-.18-6.62.01-6.85.12-.14.38-.22.62-.22m61.04.03c.33 0 .64.06.69.17q.05.15-.39.16c-.25 0-.56.12-.69.25-.12.14-.27.25-.32.25-.18.01-.24-.53-.07-.68.11-.1.46-.15.78-.15m2.4.02q.16 0 .27.03.06.01.06.02v.01q-.02.04-.33.04-.29 0-.32-.04l.06-.03q.11-.03.26-.03m-10.33.12q.37.05-.27 1.26c-.23.42-.41.83-.41.9 0 .09-.18.53-.39 1-.21.45-.49 1.12-.62 1.46-.13.35-.27.63-.32.63-.12 0-.1.25-.17-2.36-.07-2.83-.07-2.82 1.14-2.87.49-.02.96-.03 1.04-.02m-54.87.02c.22 0 .4.03.4.1 0 .05-.31.6-.69 1.2-1.34 2.18-1.63 2.6-1.72 2.48a4 4 0 0 1-.08-1.05c0-1.06.38-2.06.96-2.48.2-.15.74-.25 1.13-.25m58.24.34c.97-.02 1.95 0 2.03.11.04.06.01.22-.07.36-.16.28-.36.74-.62 1.47-.1.28-.3.74-.42 1.01-.13.28-.29.7-.36.93s-.21.56-.32.72c-.1.16-.22.3-.25.3-.1-.01-1.91-4.47-1.91-4.7 0-.1.95-.18 1.92-.2m-6.4 0c.2.02.37.1.4.25s.03 1.38-.03 2.74c-.09 2.31-.12 2.5-.34 2.54-.3.06-.6-.27-.75-.81-.06-.23-.08-1.3-.05-2.36.05-1.5.1-1.98.25-2.15a.7.7 0 0 1 .53-.2m17.05.01q.18 0 .3.16c.06.1.47.22.91.28.91.12 1.06.4.23.4-.31 0-.82.03-1.14.05-.46.04-.6-.02-.69-.28-.09-.24-.08-.36.04-.47a.5.5 0 0 1 .35-.14m-71.5.1c.16 0 .32.04.38.12.13.15.11.24-.1.48-.15.17-.39.3-.55.3-.22 0-.28-.09-.28-.4s.08-.42.39-.48q.07-.02.16-.02m52.7.39c.29 0 .36.25.36.92 0 .47-.06.86-.13.9-.08.03-.3-.32-.5-.79l-.37-.85.29-.1q.21-.08.35-.08m13.38.02c.26-.02.7 0 1.53.06.99.06 1.82.15 1.84.18.03.04-.22.7-.54 1.47l-.67 1.65c-.13.41-.36.96-.53 1.25q-.29.52-.41-.03c-.04-.16-.2-.6-.37-.97s-.34-.83-.4-1.03c-.07-.2-.18-.42-.25-.48s-.12-.22-.12-.36-.12-.47-.26-.73c-.15-.3-.22-.6-.17-.78.03-.13.1-.2.35-.23M33.37 6q.3 0 .83.05c.98.09 1.3.18 1.42.4.13.23.12.32-.1.57-.19.22-.47.3-1.1.3-.79 0-.89-.04-1.18-.48-.43-.63-.47-.84.13-.84m-20.76.17q.38 0 .5.44c.02.11-.29.7-.7 1.3-.97 1.44-1.13 1.45-1.14.05 0-.9.22-1.3.95-1.67a1 1 0 0 1 .4-.12m65.6.14c.12 0 .27.17.33.38.07.2.22.6.35.88s.3.7.36.92c.07.23.17.46.21.51.18.19.63 1.7.56 1.86-.1.21-3.58.23-3.67.01-.08-.17.07-.7.4-1.44.13-.28.33-.78.46-1.1.66-1.73.8-2.02 1-2.02m-6.2.01q.22 0 .45.62l.84 2.21c.34.87.58 1.65.55 1.73-.04.08-.92.15-1.97.15h-1.9l.08-.47c.05-.25.17-.6.27-.76.18-.28.35-.67.62-1.39l.36-.84c.13-.28.3-.68.37-.88q.14-.37.32-.37m-54.9.05q.04 0 .06.03c.06.05.11.68.11 1.4 0 1.1-.04 1.39-.26 1.8-.33.61-.77 1.36-1.12 1.88-.15.22-.3.39-.36.38-.05 0-.3-.27-.57-.6-.55-.7-.56-.65.64-2.62 1.15-1.88 1.4-2.26 1.5-2.27m3.73.03q.27 0 .6.25c.29.2.6.46.7.58s.6.53 1.12.92c.51.4 1.15.92 1.42 1.16.26.24.67.59.9.76s.5.43.61.57c.2.24.2.28 0 .7-.1.25-.3.58-.44.74-.13.16-.26.27-.3.26s-.96-.07-2.08-.12c-2.28-.1-2.17-.05-3.47-1.86-.56-.76-.6-.89-.6-1.62 0-.72.05-.86.48-1.43.47-.62.76-.9 1.06-.9m68.46.05c.33.01.7.09.87.21.12.09.33.12.48.07s.64.03 1.1.18c.45.15 1.04.3 1.3.35.89.13 1.24.24 1.24.38 0 .08-.14.18-.32.23l-.5.18c-.1.05-.36-.07-.58-.27-.3-.27-.61-.35-1.32-.37-.53-.01-1-.1-1.1-.23-.1-.11-.26-.16-.35-.1-.1.05-.22.01-.26-.09s-.35-.18-.68-.18q-.62 0-.54-.2c.03-.13.33-.18.66-.16m-23.73.02q.4.01-.2 1.3c-.52 1.12-.54 1.14-.62.7-.17-.93-.09-1.47.27-1.74q.37-.27.55-.26m-29.06 0 1.39.35c.75.2 1.76.42 2.24.52a4 4 0 0 1 1.09.32c.11.1.47.16.8.16q.58-.01.89.35c.33.37.42 1.06.16 1.29-.25.23-.96.55-1.23.55-.14 0-.49.16-.77.34-.33.21-.78.33-1.23.34-.61 0-.82-.09-1.37-.56-1.31-1.13-2.6-2.4-2.6-2.56 0-.14.54-1.08.63-1.1M86.44 7q.23 0 .6.06l1.37.21c.4.06.72.2.75.32.03.13-.07.48-.23.78s-.44.92-.61 1.36c-.19.45-.41.8-.52.8s-.4-.46-.67-1.05c-.25-.58-.62-1.34-.8-1.69-.32-.58-.33-.8.11-.8m-1.74 0q.2 0 .34.5c.06.27.18.5.24.5.07 0 .13.15.13.34s.19.72.41 1.18c.23.46.42 1 .42 1.18 0 .32-.08.34-1.6.34-1.78 0-1.8-.03-1.33-1.03.15-.32.31-.69.36-.83s.19-.48.32-.76c.13-.27.3-.71.36-.97q.15-.46.35-.45m-71 .36h.02c.15.05.2.34.21 1.49l.03 1.43-.57.9c-.51.83-.62.92-1.15 1-.49.06-.62.01-.81-.28-.39-.6-.12-1.4 1.07-3.1a6 6 0 0 1 1.2-1.44m52.31.1.28.48c.15.27.27.55.28.63 0 .08.19.6.42 1.14.24.54.4 1.06.35 1.16-.04.1-.63.17-1.38.17h-1.31l.08-.46c.05-.26.12-.5.16-.55a6 6 0 0 0 .61-1.28c0-.07.12-.38.26-.7zm-55.1.08.07.02c.1.1.09 1.85-.02 2.1-.04.08-.02.56.04 1.06.09.76.07.94-.09 1.12-.27.3-.37.26-1.06-.4-.57-.55-.62-.66-.62-1.25 0-.53.09-.8.5-1.44.45-.7.96-1.21 1.18-1.21M64 7.86h.02c.43.09.34.5-.28 1.33-.6.79-.82.95-.99.72-.2-.3.88-2.07 1.25-2.05m-29.22.06c.45 0 .6.12 1.1.56 1.4 1.24 2.25 2.07 2.3 2.28.04.13-.09.48-.27.8l-.33.56-3.8.05-3.8.05-.37-.52c-.2-.29-.35-.62-.31-.73.03-.12.42-.46.86-.77.45-.3 1.32-.91 1.94-1.36 1.01-.71 1.24-.8 2.11-.88zm60.77.09c.37 0 .42.04.24.15-.32.2-.33.2-.54 0q-.21-.17.3-.15m-3.67.16c.13 0 .33.08.5.25.22.22.24.32.13.76-.07.27-.16.53-.21.58-.1.08-.6-1.1-.6-1.41q0-.18.18-.18m-15.43.05q.02 0 .05.08c.03.12.03.27-.01.32-.04.06-.07-.04-.07-.22q0-.16.03-.18m21.1.11c.17 0 .33.08.37.17q.05.16-.3.17c-.19 0-.35-.08-.35-.17s.13-.17.29-.17m-7.16.11q.14 0 .33.48l.29.76c.22.56.33 1.05.27 1.2-.1.2-1.8.19-1.9-.03-.04-.1.02-.38.14-.63s.33-.76.46-1.13q.24-.64.41-.65m8.68.4q.2 0 .21.16c0 .1-.17.17-.38.17q-.44.01-.21-.17a.6.6 0 0 1 .38-.16m-4.71.02c.39-.02.4.29.03.79q-.6.8-.54-.18c.04-.48.09-.56.43-.6zm-49.06 0q.12 0 .25.14c.15.18.14.26-.02.61-.26.57-.51.52-.51-.1q.02-.62.28-.65m.8.19.14.03c.14.06.55.18.9.26.37.09.94.25 1.28.36.62.21.63.22.63.84 0 .35-.09.75-.2.9-.2.3-.66.33-1.1.08A7 7 0 0 1 46 9.76c-.19-.42-.14-.72.09-.71m43.1.12c.07 0 .1.12.05.26-.03.13-.09.25-.11.25s-.05-.12-.05-.25q.01-.23.11-.26m11.65.01q.09 0 .09.16c0 .1-.12.17-.27.17q-.3.01-.09-.17.17-.15.27-.16m-24.75.06q.07 0 .08.18c0 .14-.06.26-.12.26q-.11-.01-.12-.16t.12-.26zm21.03 0q.12 0 .29.04c.35.09.44.18.44.48 0 .2-.1.5-.22.65-.3.38-.32.37-.62-.32-.25-.6-.23-.85.11-.85m-32.65.1q.09 0 .09.17c0 .1-.16.53-.35.97-.26.58-.32.85-.22 1 .1.18 1.28.22 5.52.22 5.38 0 5.4 0 5.67-.36.22-.3.28-.32.28-.1 0 .14.08.3.18.36s1.27.1 2.6.1c1.99 0 2.43-.04 2.55-.25.27-.47.47-.3.47.42v.68l-8.08-.02c-6.49 0-8.17-.06-8.5-.24a2 2 0 0 0-.75-.24c-.18 0-.32-.07-.32-.15s-.14-.23-.3-.34c-.43-.28-.37-.75.16-1.17.24-.2.55-.51.67-.7q.22-.33.33-.34m31.28.12q.02 0 .05.02c.06.06.21.38.33.7.11.33.29.72.38.88s.14.36.1.46c-.08.18-1.3.23-1.57.08-.1-.06-.1-.2.03-.54.09-.25.2-.57.23-.7.15-.54.33-.89.45-.9m-9.28.05q.11.02.12.17t-.12.17q-.1-.02-.11-.17.01-.16.11-.17m8.47.06q.03 0 .07.02.1.1.11.18-.01.07-.11.08-.11-.02-.12-.18 0-.1.05-.1m-1.82.1c.1 0 .14.46.16 1.78q.01.48.2.55c.18.05.93-1.13.93-1.47q.02-.16.18-.18c.14 0 .13.14-.07.8-.13.44-.34.93-.46 1.08-.2.24-.89.28-6.25.3-3.31.02-6.06-.02-6.1-.08-.1-.13.08-.68.36-1.13.17-.28.18-.27.34.05.16.31.3.33 2.36.33 1.83 0 2.2-.04 2.25-.25.1-.36.37-.31.46.08.11.49.27.42.74-.3.24-.35.39-.49.34-.3-.16.65.1.77 1.74.77 1.3 0 1.58-.04 1.77-.29.22-.28.24-.28.4.02.23.46.37.22.46-.82.04-.5.13-.92.19-.93m8.7.18q.16.02.18.25c0 .26-.14.33-.28.14-.14-.2-.09-.4.1-.4m-26.13.17q.11.01.12.24c0 .13-.05.29-.12.35s-.12-.06-.12-.25.06-.34.12-.34m25.05.2c.24 0 .45.06.48.13s-.06.32-.2.56c-.27.43-.27.43-.55.1-.37-.43-.25-.8.27-.8m-57.98.04q.35 0 .35.84c0 .39-.06.8-.14.9-.19.27-1.18.27-1.44 0a1.3 1.3 0 0 1-.23-.72c-.02-.46 0-.5.45-.6.26-.05.57-.17.7-.27q.17-.14.3-.15m56.12.13h.01c.09.03.25.26.36.52.17.41.18.49.02.63-.24.21-.68.2-.77-.01-.1-.25.2-1.13.38-1.14m-12 .03q.08 0 .12.09.06.15-.04.26-.1.07-.18-.06-.06-.16.04-.26zm-41.23.17c.15 0 .32.08.6.29.65.46.84.84.65 1.33s-1.5.49-1.85-.02c-.21-.3-.23-.42-.12-.84.07-.26.27-.56.45-.67q.15-.1.27-.1m-28.52.1c.2 0 .2 1.04.01 1.32-.18.25-.76.26-.87.02-.1-.22.63-1.34.86-1.34m23.05.34c.4 0 .43.09.54.43.23.7-.04.85-1.42.76-.3-.02-.66.04-.8.15-.2.16-.25.14-.24-.11 0-.17.1-.5.22-.72.2-.38.34-.43 1.16-.48zm-12.36 0c.84.01 1.4.42 1.27.93-.06.2-.31.25-1.25.25-.72 0-1.21-.07-1.26-.18s.04-.37.19-.6c.23-.35.37-.4 1.05-.4m74.48.04c.15 0 .29.11.29.27 0 .24-.3.35-.49.19-.12-.12-.13-.2-.02-.35a.3.3 0 0 1 .22-.1m-88.22.18q.1 0 .3.18c.16.16.3.4.3.53q.01.26-.48.25c-.38 0-.47-.06-.47-.32 0-.17.08-.4.18-.52q.09-.12.17-.12m30.4.18q.03 0 .05.02a.4.4 0 0 1 .12.26q0 .15-.12.16c-.06 0-.12-.12-.12-.26q0-.17.08-.18m62.67.31q.33-.01.8.28l.5.34-.86.01c-.77 0-.87-.03-.83-.29q.05-.32.39-.34m3.57 6.89.02.04c.05.09.14.12.16.1 0-.02-.03-.07-.18-.14m-90.93 1.2c-.78.03-1.47.1-2.33.2-4.63.63-6.28 1.4-7.8 3.61-.94 1.38-.99 3-.1 3.9.2.19.4.35.44.35s.25.11.45.25c.2.13.59.27.85.3 1.22.16 46.26.1 46.33-.05q.21-.52-.99-.84a4 4 0 0 1-1.03-.38c-.13-.1-.58-.27-1-.39s-1.42-.45-2.2-.75a53 53 0 0 0-5.15-1.68c-.69-.2-1.51-.45-1.84-.58a66 66 0 0 0-4.8-1.37 25 25 0 0 0-1.92-.4c-.5-.08-1.17-.23-1.48-.33s-.83-.22-1.16-.26-1.34-.23-2.25-.43-2.46-.43-3.44-.53l-3.14-.32a98 98 0 0 0-7.44-.3m53.04.07-1.87.11-.42.55-.42.55v2.52c0 2.58.13 3.44.56 3.8.08.08.16.24.16.36s.1.34.21.5c.2.25.89.28 6.84.32l11.07.08a38 38 0 0 0 4.88-.13c.52-.2.64-.6.75-2.52.09-1.46-.06-2.13-.64-2.98-.5-.7-.76-.83-2.56-1.15-.85-.15-1.83-.35-2.19-.44a30 30 0 0 0-1.66-.33 10 10 0 0 1-1.18-.25 20 20 0 0 0-2.09-.24 11 11 0 0 1-2.22-.34c-.18-.1-.98-.18-1.77-.18-.8 0-2.38-.08-3.52-.17a34 34 0 0 0-3.93-.06M22 20.32c1.2.02 2.38.1 3.17.24.78.13 1.8.25 2.28.25s1.57.1 2.43.24 2.2.33 2.98.43 1.72.27 2.08.36c1.1.3 1.9.46 3.31.72.75.13 1.58.32 1.84.42s.93.3 1.48.44c2.55.66 3.06.8 3.67 1.02.36.13.9.28 1.22.34.3.05.58.15.6.22.04.06-.15.37-.41.68-.35.42-.51.52-.61.38-.42-.6-1.55.42-1.27 1.15.07.2.1.43.06.52s-.92.16-2.14.16c-1.62 0-2.07-.04-2.07-.22 0-.12.06-.3.13-.4s.1-.78.09-1.66c-.04-1.42-.06-1.51-.35-1.75-.42-.34-1.08.02-1.03.56.04.35.21.41.6.18.19-.1.2.01.2 1.17 0 .7-.04 1.28-.1 1.28-.23 0-.41-.58-.39-1.24q.04-.74-.09-.44a7 7 0 0 0-.1 2.1c.03.33-.04.34-2.13.38-1.32.03-2.16-.01-2.16-.11 0-.09.2-.33.46-.53 1.16-.93 1.12-3.35-.08-4.41-.63-.56-1.81-.55-2.4.02-.75.75-.93 1.18-.94 2.24 0 .85.04 1.04.38 1.58.2.33.5.68.65.76s.27.23.27.32c0 .12-3.68.17-11.34.17-11.3 0-11.35 0-11.82-.35q-1.73-1.3-.94-2.76a9 9 0 0 1 2.5-2.68c.84-.5 2.89-1.1 4.48-1.3l2.25-.32c.83-.12 2.04-.17 3.24-.16m46.59.06-.12.02c-.17.06-.7.2-1.19.32a7 7 0 0 0-4.5 2.92l-.83 1.08v1.14c0 .96.04 1.18.27 1.48.35.46.95.88 1.62 1.14.31.13 1.33.22 2.4.24l1.88.02.54-.71c.93-1.22 1.21-2.39 1.13-4.6-.04-1.18-.1-1.63-.3-2.02-.37-.73-.63-1.04-.9-1.03m3.51.17c1.16-.14 6.6.03 8.63.27 4.21.5 4.9.6 5 .73q.08.14-.06.23a5 5 0 0 0-1.41 1.56c-.08.23-.15.82-.15 1.32 0 .79.04.95.38 1.4.77 1.03 1.67 1.28 2.58.7.3-.18.63-.5.76-.7.3-.5.44-1.99.24-2.57-.17-.47-.94-1.5-1.13-1.5q-.1-.01-.11-.19c0-.22 1.53-.04 1.71.2.06.09.36.16.65.17.3 0 .78.08 1.08.17.29.09.96.25 1.48.34 1.19.23 1.57.48 2.06 1.38.38.69.39.75.33 1.92-.1 1.93-.08 1.91-1.72 1.93-5.29.06-10.8.06-15.48-.02-4.48-.07-5.5-.12-5.71-.32-.46-.44-.66-1.46-.72-3.6-.05-1.92-.04-2.02.25-2.65l.3-.65Zm-4 .6c.7 0 .71 0 .91.6.17.5.19.92.13 2.45-.07 1.96-.2 2.46-.87 3.42-.31.44-.31.44-2.22.44-1.86 0-1.93-.01-2.63-.49-1.16-.77-1.36-1.44-.79-2.61.55-1.16 2.05-2.78 2.58-2.8.13 0 .34-.12.46-.26a1 1 0 0 1 .55-.25c.18 0 .51-.11.75-.25s.74-.25 1.13-.25m-51.97.02q-.21 0-.51.35l-.35.36v2.5c0 2.37 0 2.5.26 2.74.39.4.89.33 1.22-.15.28-.4.3-.5.3-2.63v-2.21l-.37-.5q-.34-.46-.55-.46m63.8.08q-.3 0-.63.07a1.6 1.6 0 0 0-1.1.7 4.6 4.6 0 0 0-.85 2.18c0 .7.64 1.87 1.35 2.46.14.12.65.21 1.13.21 1.12.01 1.72-.44 2.12-1.55.33-.96.32-1.73-.03-2.55-.42-.97-1.12-1.5-1.99-1.52m-55.34.07c-1.14 0-2.33 1.45-2.33 2.81 0 .9.35 1.72 1 2.32.39.36.6.43 1.29.43 1.42 0 2.11-.84 2.2-2.66l.04-1.07-.56-.76c-.64-.87-.95-1.08-1.64-1.07m49.38.27c-1.18.04-1.95 1.06-1.95 2.58 0 .96.22 1.52.8 2.07.23.21.56.3 1.13.3.9 0 1.33-.23 1.76-.97.23-.4.28-.64.27-1.53-.02-.86-.07-1.13-.3-1.48-.43-.65-1.04-1-1.71-.97m-54.15.24q-.18 0-.48.02c-1 .07-1.47.5-1.93 1.72l-.3.77.27.5c.14.28.26.58.26.66 0 .2.47.79.89 1.1.7.53 1.83.25 2.39-.6.14-.21.35-.68.45-1.04.18-.6.18-.72 0-1.36-.1-.43-.37-.9-.68-1.25-.36-.4-.49-.5-.87-.52m60.1 0q.4 0 .76.25c.76.57 1.11 1.46.97 2.5-.08.66-.21.9-.77 1.4-1.14 1.03-2.96-.1-2.93-1.83.02-1.28 1.01-2.3 1.97-2.32m-63.84.18h.1c.2.06.22.28.25 2.24q.03 2.17-.1 2.4c-.17.27-.42.3-.53.05-.12-.26-.07-4.43.05-4.6q.08-.1.23-.1m8.57.1c.81.02 1.2.39 1.6 1.48.26.74.26.75.03 1.16-.13.23-.23.49-.23.58s-.21.36-.47.6c-.55.52-1.53.62-1.78.2-.08-.15-.22-.26-.3-.26-.24 0-.77-1.19-.77-1.7 0-.25.08-.55.18-.66a1 1 0 0 0 .18-.43c0-.12.2-.4.44-.6.34-.3.6-.4 1.12-.38m49.28.05c1.49 0 2.22 2.01 1.21 3.33-.24.31-.42.38-1.09.38-.75 0-.82-.04-1.16-.55-.2-.3-.4-.68-.43-.84-.1-.43.1-1.14.54-1.77.32-.47.45-.55.93-.55m-54.59 0c.2 0 .45.1.6.26.13.13.33.24.45.24s.26.19.32.41.17.45.24.52c.22.19.13 1.16-.15 1.65a3 3 0 0 1-.73.8c-.26.18-.55.33-.65.33-.27-.01-.98-.58-1.25-1-.46-.74-.18-2.35.47-2.7a1 1 0 0 0 .36-.33c.04-.12.18-.17.34-.17m10.15.21-.22.04c-.72.26-1.56 1.6-1.56 2.5 0 .88.77 1.94 1.6 2.2.13.03.3.04.37.01l.57-.16c.65-.18 1.25-1.26 1.25-2.24 0-.66-.06-.84-.47-1.4-.42-.56-1-.93-1.46-.95zm56.72.24c.75 0 .78 0 1.23.7.6.9.6 1.35-.03 2.31-.48.74-.5.75-1.22.75-.86 0-1.22-.27-1.6-1.21l-.27-.68.25-.48c.13-.26.25-.54.25-.61 0-.08.14-.28.3-.45.23-.23.53-.32 1.09-.33m-20.57.36c-.37.02-.48.12-.73.46-.3.4-.35.61-.35 1.28 0 .69.05.88.38 1.32s.47.51 1.04.51q1.2 0 1.62-1.25c.16-.48.17-.66.04-1.08-.27-.95-.58-1.2-1.52-1.24zm-31.16.1q.76 0 1.26.66c.33.45.38.63.38 1.38 0 1.02-.24 1.44-1.05 1.85-.61.3-.64.3-1.29-.05a2.5 2.5 0 0 1-1.1-1.82c0-.2.18-.7.4-1.1.3-.57.49-.76.85-.85q.29-.07.55-.07m-4.86.1c.6 0 .74.07 1.1.52.6.74.58 1.4-.04 2.14-.4.45-.57.55-1.06.55q-1.26 0-1.26-1.58c0-1.15.37-1.63 1.26-1.63m-16.74 0a1.2 1.2 0 0 0-.9.33c-.48.43-.62.83-.57 1.63l.06.86c0 .11.2.4.45.64.39.39.54.43 1.2.38.7-.06.78-.11 1.09-.64.5-.87.53-1.28.15-2.05-.34-.72-.91-1.12-1.48-1.15m77.69.08a1.6 1.6 0 0 0-1.3.85 2.24 2.24 0 0 0 .62 2.95c.56.41.75.41 1.32 0 1.26-.92 1.27-2.9.01-3.65q-.3-.16-.65-.15m-24.4.14q.15 0 .37.18c.51.38.66 1.1.38 1.77-.21.49-.28.53-.87.53-.65 0-.81-.13-.95-.79q-.23-1.05.58-1.5c.23-.12.36-.18.48-.19m30.42.08h-.49c-.3.03-.44.17-.7.75-.3.67-.32.84-.3 2.22.04 1.8.2 2.25.83 2.34.77.12 12.75.13 13.69.02.77-.1.9-.16.9-.42q0-.31-.32-.4l-.8-.28c-.26-.1-.66-.23-.89-.3a18 18 0 0 1-1.95-.72c-.2-.1-.6-.23-.9-.3-.28-.06-.64-.2-.78-.31s-.4-.2-.55-.2a2 2 0 0 1-.72-.25 2 2 0 0 0-.77-.26c-.19 0-.53-.11-.77-.25a2 2 0 0 0-.88-.25c-.25 0-.51-.09-.58-.2-.08-.1-.37-.2-.65-.2a2 2 0 0 1-.8-.26 1.6 1.6 0 0 0-.77-.26 1.5 1.5 0 0 1-.72-.21c-.18-.15-.6-.24-1.08-.26m-83.62.2q.38 0 .75.6c.43.71.46 1.24.09 1.74-.4.53-1.36.52-1.72-.03-.44-.66-.32-1.4.33-2.03q.3-.27.55-.27m77.65.04c.14 0 .28.12.51.35.5.5.55.62.56 1.23 0 .56-.2.9-.75 1.22-.42.26-.43.26-.85-.1-.83-.73-.87-1.52-.12-2.26.3-.3.48-.44.65-.44M37.9 24c-.75-.04-.96.23-.96 1.22 0 .5.07.72.33 1 .25.29.42.35.8.28q.93-.18.8-1.43c-.09-.87-.24-1.03-.97-1.07m58.45.06q.18 0 .56.05c.41.06.86.18.99.26s.53.23.89.31c.36.1 1.18.36 1.83.6s1.5.54 1.9.66c.39.13 1.13.4 1.65.6.51.19 1.07.35 1.24.36.17 0 .44.11.6.24.17.14.46.25.66.25s.43.09.53.18c.15.15.15.2-.04.4-.18.2-.89.24-3.8.22-4.25-.03-5.55-.09-5.67-.26-.05-.07.04-.38.2-.7.29-.54.29-.58.1-1.03-.22-.54-.74-.9-1.07-.76-.36.17-.74.76-.74 1.15 0 .2.11.53.25.74.3.46.2.74-.23.74-.52 0-.61-.27-.61-1.86 0-1.31.02-1.49.28-1.83.16-.21.26-.3.48-.32m-58.48.52q.21-.01.43.19c.3.27.3.32.15.66-.21.44-.82.57-1.03.21-.3-.52.03-1.05.45-1.06m4.85.48q-.21 0-.5.33c-.42.47-.41 1.19.02 1.67.24.27.42.34.68.26.45-.13.53-.25.6-.92.03-.43-.03-.64-.27-.96q-.29-.4-.53-.38m5.22.27.5.09c.63.12.7.25.36.61q-.42.46-.19 1.5c.09.37.08.37-1.05.37-1.08 0-1.37-.12-1.2-.52q.1-.17.64-.07c.48.1.58.06.83-.32.23-.35.26-.52.2-1.04zm-5.26.46c.19 0 .42.22.42.44 0 .2-.39.46-.56.37-.22-.1-.18-.67.04-.79zm4.64.26c.22 0 .29.07.26.3-.04.3-.34.47-.49.27-.18-.27-.06-.57.23-.57m3.11 0c.23 0 .42.38.29.57-.17.24-.51.09-.51-.23q0-.34.22-.34m46.7 0q.44 0 .3.77-.07.4-.3.4t-.3-.4q-.15-.77.3-.77m-47.85.45h.02c.2 0 .45.23.4.44-.02.11-.16.23-.3.26-.3.06-.5-.44-.25-.65a.2.2 0 0 1 .13-.05m-3.58.05q.24 0 .24.32c0 .37-.24.56-.47.36s-.05-.68.23-.68m6.91.07q.06 0 .11.06c.2.23 1 .54 1.81.7.33.05.58.18.57.27-.04.2-2.78.33-2.91.15-.22-.3.15-1.17.42-1.18m-1.54.1c.21.01.6.26.59.42-.03.3-.62.3-.7 0-.04-.14-.03-.31 0-.37q.05-.04.11-.04m-.84.51zc.25 0 .48.29.4.49-.15.32-.55.21-.55-.15 0-.18.06-.33.14-.34m-3.7 3.8a1 1 0 0 0-.46.1z" style="fill:#000"/><text xml:space="preserve" x="42.87" y="31.83" style="font-weight:700;font-size:4.04632px;font-family:sans-serif;-inkscape-font-specification:&quot;sans-serif Bold&quot;;writing-mode:lr-tb;direction:ltr;fill:#000;stroke-width:.433535"><tspan x="42.87" y="31.83" style="stroke-width:.433535">스탬프형</tspan></text><text xml:space="preserve" x="102.46" y="16.71" style="font-weight:700;font-size:4.04632px;font-family:sans-serif;-inkscape-font-specification:&quot;sans-serif Bold&quot;;writing-mode:lr-tb;direction:ltr;fill:#000;stroke-width:.433535"><tspan x="102.46" y="16.71" style="stroke-width:.433535">스탬프형</tspan></text><text xml:space="preserve" x="45.27" y="16.24" style="font-weight:700;font-size:4.04632px;font-family:sans-serif;-inkscape-font-specification:&quot;sans-serif Bold&quot;;writing-mode:lr-tb;direction:ltr;fill:#000;stroke-width:.433535"><tspan x="45.27" y="16.24" style="stroke-width:.433535">조립형</tspan></text><text xml:space="preserve" x="102.18" y="31.57" style="font-weight:700;font-size:4.04632px;font-family:sans-serif;-inkscape-font-specification:&quot;sans-serif Bold&quot;;writing-mode:lr-tb;direction:ltr;fill:#000;stroke-width:.433535"><tspan x="102.18" y="31.57" style="stroke-width:.433535">스탬프형</tspan></text></svg>