<svg xmlns="http://www.w3.org/2000/svg" xml:space="preserve" width="120mm" height="60mm" viewBox="0 0 120 60"><path d="m132.84 44.51 61.9 27.13" style="opacity:1;fill:#000;fill-opacity:.920746"/><path d="M56.72 52.8c-.52-1.6-.87-2.81-.88-3.03 0-.1.2-.22.47-.28.45-.1.49-.18.53-1.36.07-1.81.17-2.1.68-2.04.4.05.43.16.48 1.6.04 1.3.11 1.58.46 1.85.34.27.38.44.27 1.13-.07.44-.2.85-.29.9s-.21.51-.29 1.04c-.25 1.81-.88 1.9-1.43.19m-9.93-7.55c-1.51-.72-2.02-.77-3.67-.35-1.73.44-3.22.42-3.88-.04-.51-.37-.53-.45-.5-1.72.15-4.8.2-5 1.18-5.48.34-.17.83-.23 1.3-.17.54.07.84.02 1-.17.18-.2.23-2.15.19-8.11l-.05-7.85-1.48-.1a8 8 0 0 1-1.55-.17c-.65-.8-.8-1.29-.82-2.63-.02-1-.14-1.63-.37-2.05-.26-.46-.3-.74-.18-1.16.3-.97.65-.82.65.28q0 .99.29 1.21c.21.17.29.63.29 1.8 0 .85.07 1.65.15 1.77.23.34 2.71.38 2.93.05.1-.15.18-.98.18-1.84 0-.96.09-1.62.22-1.7.12-.07.96-.16 1.88-.2 2.22-.12 2.36-.01 2.36 1.74 0 1.4.19 2 .65 2 .44 0 .62-.54.66-2.07.02-.89.12-1.5.26-1.58.35-.21 3.57-.17 4 .04.32.16.37.4.37 1.82 0 1.34.05 1.64.32 1.74q.83.3.83-1.95v-1.4l.61-.2a9 9 0 0 1 2.11-.2c1.82 0 1.9.1 1.9 2.05 0 1.41.24 1.88.78 1.57.2-.12.28-.55.29-1.66 0-1.4.04-1.52.48-1.73.64-.3 3.77-.3 3.97 0 .09.12.2.92.26 1.76.09 1.45.12 1.55.55 1.6.7.1.85-.2.92-1.72.04-.78.11-1.52.16-1.64.06-.16.64-.23 2-.23 2.35 0 2.4.04 2.45 2.05.03 1.17.1 1.5.33 1.54.6.11.86-.7.87-2.81 0-1.12.1-2.19.2-2.37.27-.48-.13-1.63-.7-1.98s-1.74-.21-4.1.5c-.98.3-2.14.54-2.57.53-.88 0-2.73-.38-3.3-.67-.21-.1-1.08-.25-1.94-.32-1.4-.12-1.77-.07-3.56.42-2.91.8-3.7.85-5.73.37l-1.71-.4-1.22.44c-1.32.46-3.67.58-5.68.27-.8-.12-1.1-.08-1.58.18-.65.37-1 .24-.68-.24.39-.57 1.65-.77 3-.46q2.67.6 4.28-.5l.87-.59 1.11.24c.61.12 1.35.34 1.63.48.92.44 3.11.3 4.97-.3 2.2-.72 4.6-.75 6.7-.08 2.16.68 4.48.53 7.17-.46q1.73-.65 2.88-.08l.57.27-.03 2.94c-.02 1.61.03 3.11.1 3.33.2.57-.35 1.46-1.13 1.8-.35.17-.69.47-.74.68-.15.6-.16 11.35-.02 13.2l.13 1.69.83.42q1.72.9 1.26 2.61a4.4 4.4 0 0 0-.03 1.96c.36 2.17.32 2.98-.18 3.48-.39.39-.62.45-1.62.45-.64 0-1.73-.17-2.42-.37s-1.82-.42-2.51-.48c-1.12-.09-1.56-.01-3.76.64-2.82.83-3.92.9-5.73.4-.65-.18-1.9-.43-2.76-.54-1.57-.2-1.58-.2-2.75.35-1.8.86-2.53.88-4.14.1m3.77-.67c1.07-.53 1.22-.56 2.53-.45.77.06 1.87.24 2.45.4s1.7.33 2.48.39c1.42.1 1.8.03 4.07-.7 2.2-.7 5.92-.69 6.85.04.13.1.91.16 1.74.13l1.51-.05-.04-1.72c-.12-4.5-.14-4.65-.52-5.05-.5-.53-1.04-.49-1.2.09a8 8 0 0 0 .01 1.8c.12 1.2.09 1.37-.26 1.7-.31.3-.65.37-1.6.38-.66 0-1.37.04-1.59.1-.89.22-1.15-.56-1.24-3.75 0-.36-.72-.56-1.17-.33-.27.13-.33.44-.33 1.81 0 2.14-.04 2.18-2.34 2.19-.99 0-1.87-.07-1.96-.15-.1-.1-.21-.93-.26-1.86-.1-1.85-.3-2.26-.83-1.76-.27.26-.32.59-.28 1.82.04 1.09-.01 1.56-.2 1.7-.3.25-3.62.44-3.97.23-.16-.09-.3-.77-.38-1.84-.1-1.46-.17-1.7-.48-1.76-.55-.1-.7.29-.7 1.8 0 1.02-.08 1.45-.3 1.61-.36.29-3.47.42-3.96.17-.3-.15-.36-.4-.36-1.52 0-1.56-.1-1.9-.59-1.9-.52 0-.65.33-.6 1.55.05.86-.02 1.19-.31 1.52-.33.38-.55.43-1.98.47-2.37.06-2.3.11-2.3-1.52 0-.77-.07-1.5-.16-1.63-.26-.39-1.68-.49-2.22-.15-.41.25-.47.44-.56 1.87-.06.88-.18 1.92-.27 2.32-.17.73.04 1.67.43 1.94.31.22 1.85.15 2.98-.13 1.73-.44 3.02-.36 4.14.26 1.31.73 2.3.72 3.77-.02m-6.65-3.79c.07-.1-.05-.37-.28-.58l-.4-.39v.47c0 .66.39.95.68.5m5.75.04c.06-.09-.03-.4-.2-.72-.32-.6-.2-1.01.54-1.77.3-.31.34-.47.17-.76-.14-.25-.21-3.13-.21-8.93l-.01-8.56-.45-.51-.45-.52-.11.43c-.2.78-.14 20.79.07 21.15.2.37.48.45.65.2m5.88-.16c0-.07-.17-.24-.38-.36-.34-.2-.39-.18-.39.14q0 .36.39.36c.21 0 .38-.06.38-.14m5.78-.05c0-.21-.55-.45-.7-.3-.17.16.11.49.42.49.15 0 .28-.09.28-.19m5.81-.59c-.29-.75-.28-.8.13-1.33l.43-.54-.05-7.68c-.03-4.22-.03-8.27-.01-9 .03-1.12-.03-1.42-.38-1.89-.38-.5-.43-.52-.57-.2-.2.47-.16 20.5.04 21.01.1.23.29.4.44.4.23 0 .22-.12-.03-.77m-22.08-.49c0-.14-.15-.3-.33-.33q-.35-.07-.34.33-.01.4.34.33c.18-.03.33-.18.33-.33m5.78 0c0-.14-.15-.3-.34-.33q-.34-.07-.34.33-.01.4.34.33c.19-.03.34-.18.34-.33m5.74.25c.2-.2-.26-.6-.56-.49-.4.14-.34.6.08.6.2 0 .4-.05.48-.11m5.86-.28c-.12-.34-.54-.4-.54-.07 0 .15.14.28.3.28.18 0 .28-.1.24-.21m6.15-.01c-.12-.35-.72-.4-.72-.06 0 .17.17.28.4.28q.38-.01.32-.22m-24.55-.9c.45-.45.54-.65.4-.95-.09-.2-.14-4.16-.11-8.78.05-8.15.04-8.43-.33-8.9-.45-.6-.5-1.54-.09-1.96.27-.28.27-.33-.02-.55-.75-.6-.79-.14-.8 10.73 0 5.7.03 10.5.08 10.67.13.43.2.4.87-.26m12.08-.58c0-.1-.11-.3-.26-.45-.22-.23-.23-.6-.1-1.92.1-.9.16-4.74.15-8.55-.03-7.2-.07-7.5-.84-7.22-.25.1-.29 1.3-.29 9.6v9.5l.67-.4c.37-.22.67-.47.67-.56m5.08.5c.5-.43.54-.55.42-1.28-.17-1.04-.15-16.17.01-16.58q.13-.32-.41-.85c-.3-.3-.6-.53-.67-.53s-.13 4.43-.13 9.86.06 9.86.12 9.86.36-.21.66-.48m-13.08-1.56c.06-.22.12-3.8.12-7.94 0-7.92-.02-8.12-.84-7.83-.28.1-.31.89-.31 8.03 0 4.35.05 7.96.12 8.03.28.26.8.1.9-.29m5.68-.02c.16-.17.2-2.4.17-7.9-.05-7.1-.08-7.66-.4-7.84-.26-.16-.38-.14-.52.07-.26.38-.25 15.11 0 15.57.24.41.45.44.75.1m5.87-.43c.06-.17.09-3.64.06-7.71-.04-6.78-.07-7.42-.37-7.6-.72-.42-.75-.05-.73 7.76 0 4.16.06 7.63.12 7.71.18.28.82.17.92-.16m5.86.16c.21-.13.26-1.43.24-6.92l-.01-7.71c0-.87-.05-.96-.5-1.06-.27-.07-.58-.04-.69.06-.3.28-.22 15.46.08 15.64s.56.18.88-.01M45.05 18.92c0-.15-.15-.3-.33-.33q-.35-.07-.34.33-.01.4.34.32c.18-.03.33-.18.33-.32m5.8.16c.14-.22-.3-.56-.54-.41-.09.05-.16.2-.16.35 0 .3.5.35.7.06m5.62-.18c-.04-.1-.15-.2-.25-.2s-.22.1-.25.2c-.04.1.07.2.25.2s.29-.1.25-.2m5.9.03c.14-.22-.22-.43-.48-.28-.21.12-.07.45.2.45.09 0 .22-.08.28-.17m6.07-.1c0-.15-.13-.28-.29-.28s-.29.13-.29.28c0 .14.13.27.29.27s.29-.13.29-.27m-1.13-1.41c-.34-.31-.8 0-.8.56q0 1.14.63.19.36-.57.17-.75m-17.74.78q.45-.75-.17-.73c-.39 0-.7.58-.5.9.19.28.45.22.67-.17m11.84-.57c0-.14-.2-.28-.43-.31-.48-.06-.74.33-.55.8.11.26.17.27.55.03.24-.15.43-.39.43-.52m-5.87.09c0-.33-.5-.33-.64 0-.05.14-.05.3 0 .35.18.17.64-.09.64-.35m.23-5.72c-.13-.12-.23-.73-.23-1.45 0-1.14-.03-1.25-.46-1.4-.65-.23-.73-.44-.4-1.03.15-.28.28-.68.29-.87 0-.53.68-2.15.94-2.23.24-.07.98 1.42.98 1.98 0 .2.14.6.3.9q.6 1.05-.3 1.24c-.45.1-.48.19-.54 1.46-.06 1.42-.2 1.76-.58 1.4" style="fill:#000"/></svg>