<svg xmlns="http://www.w3.org/2000/svg" xml:space="preserve" width="120mm" height="60mm" viewBox="0 0 120 60"><path d="m43 50.7-.2.3-.1-.3-.1-.3v-3.8l.2-3.8V41L43 39l.2-.2.2-.3v-1l.3-.1.4-.1V37h-10l-.7-.4-.7-.5h-1.2l-1 .5-1.2.4h-.2l-.2-.2v-.3l1.5-.6 1.5-.7-.1-.3-.2-.4-.2-.3-.2-.4v-1.6l-.2-.6-.2-.5H30l-1 .6-.8.6-.2-.1-.2-.1v-.4l1.1-.6 1.2-.7h.9l.6-.6.5-.6 1.2-1.2 1.3-1.1.6-.5.6-.5 1.3-.6 1.3-.6.4-.1.4-.2 1.3-.4 1.3-.5h.6l.8-.3 1-.3 1.3-.4 1.4-.4.3-.4.3-.4h1.3l.4-.2.3-.2v-.5l-.2-.5.3-.3.4-.3h1.6l.2-.3.2-.2v-.3l-.2-.4.5-.4.4-.5.7-1 .6-1.1 1-1 1-1 2-2 2.2-1.9h.4l1 .7 1 .8h.4l.7-1 .6-.8.9-.8.8-1h.5l1 1 1 .8.7.4.6.5v.6l-.4.5-.4.4-1 1.3-1 1.2v.5l.5.4.6.5v.8l-.7.5-.6.6-.1.4-.1.3.4.4.4.3.7.6.7.7V21h1l.5.1.6.5.5.4 1.3.4 1.4.4 1.1.3 1.2.3.6.3.6.2h.5l1.6.7 1.6.6.6.4.6.4.6.4.6.4.8.8.7.9 1 .5 1 .6 1.4 1.3 1.3 1.3.1.5.2.4-.1.1-.1.1-1.4-1.4-1.3-1.4h-.6l-.5.2-.6-.8-.5-.8-.7-.7-.8-.7-1-.9-1-.8-1.2-.5-1.2-.5-1.3-.4-1.3-.5-1.7-.4-1.6-.5-1-.2-1-.2-.2.1-.2.2v8.5h-2.1l-.4.2-.3.2v3.8l.2.2.3.2h7.2L83 36l.8-.3.8-.3.7-1.2.7-1.3v-.8l.1-.9.2-.1.1-.1.2.2.2.3-.1.4-.2.3-.1.8-.1.7-.4.7-.3.6-.3.3-.3.3.3.2.2.2 1.2.2 1.1.1 1 .3 1 .3.3.2.2.2-.3.2-.2.1-1.2-.4-1.2-.4-2-.2-2.2-.2-1.4.2-1.4.1H74l-.1.2-.1.2.6.6.6.7v1l.4 5.4.3 5.4h-.1l-.1.1-.2-.2-.2-.2-.2-3.8-.2-3.8-.2-1.8-.2-1.8-.4-.5-.4-.6-.7-.4-.6-.4h-2.4l-2.4-.2-.1-2.2-.1-2.2-.2-.2-.1-.1-.8-.1-.8-.1v-.4l-.1-.4h.7l.7.2H70l.2-.2.2-.2v-8.3l-.2-.3-.2-.3H68l-1.8.1-.2.2-.2.1v1.3l-.2 1.2v5.7h-.2l-.2.1v-4.8h-.5l-.4 1.1-.4 1.2-.3 1.8-.4 1.7-.4 1.7-.4 1.6-.2 1.4-.3 1.4-.2.9-.2.9-.2.2-.3.2h-.7l-.7-.5-.7-.6-.4.1-.5.1-.5.4-.5.3-.6.2h-.7l-.2-.1-.2-.2-.3-.9-.2-.9-.4-1.9-.4-2-.3-.6-.2-.8v-1.3H53l-.2.2-.2.3h-1.3l-.4.4-.4.3.1 2.1v2.1l-.5.1-.6.1h-2.9l-.7.3-.7.2-.8.7-.8.6-.2 2.4-.1 2.3-.2 3.6v3.6zm-3.8-14.3 4.8-.1H50l.1-.4.2-.3-.1-1.8V32H50l-.1-.1-1.2-.1h-1.2l-.2-.3-.2-.1v-8L47 23l-.3-.2-.8.2-.8.2-1.6.5-1.7.4-.7.3-.8.2-1.1.4-1.1.4-1.5.8-1.5.8-1.3 1.4-1.3 1.4-.4.6-.3.6v2.2l.2.1.2.2v.7l.6.7.6.8.6.4.6.3zm10.5-5.2h1.9l.3-.2.4-.2v-8.4l-.2-.3-.3-.3h-2L48 22l-.1.2-.2.1v4.2l.1 4.2.1.3.1.3zm9.8-1.3h.2l.2-.6.2-.6v-.3h-.5l-.2.4-.2.3v.8zm-1.3-.3.2-.1v-.7H58v.9zM59 28l.6-.7.5-.7v-.4l-.2-.3-.5 1-.5 1zm-.9-.7h.2l.3-.3.3-.3.5-1.3.5-1.3v-1.4l.2-1.3.5-.5.6-.4v-1l.2-1-1.2-1-1.2-1.2h-.3l-.5.8-.5.7V26l.1.7.2.7zm3.8-9.7h.4l2-2 2-2 .8-1 .9-1.1.5-.5.5-.5v-.3l-.2-.3-1.2-.9-1.2-.9h-.5L65 9l-.7.8-2.5 2.8-2.5 2.8v.5l1 .8 1 1zm16.8 21.8h-.2l-.7-.1-.6-.1v-.4l.6.1.6.1h1.2l-.3.2-.3.2zm9.3-.2h-2.2v-.4h4.6l-.1.2-.1.2zm-53-.5h-4.3v-.4h8.7v.4zm-6.5-25.3h-.3l-.4-.5-.4-.5-.3-.6-.2-.6v-.9l.4-.9.5-.9.3-.2.3-.3.1.1.1.2-.2.3-.2.4h-.4v3.2l.5.6.5.6zm6-.2h-.2V13l.4-.6.4-.5v-2l-.3-.5-.2-.4-.4-.4-.4-.4.2-.1.1-.1.5.4.4.4.4.7.4.7v1.3l-.3.6-.3.6-.3.3-.3.3zm-4.8-.7h-.2v-.3l-.2-.2.3-.5.3-.4.1-.6.1-.5.3-.3.3-.2v.6l.2.5.2.2.2.2h-.5l-.4.1-.2.7-.2.6zm3.5-.2-.3.1h-.4l-.3-.1v-.9l-.4-.2-.4-.3.1-.3.1-.4-.5-.6-.5-.6.2-.5.3-.4h.2l.2.1.6 1.2.6 1.2v.5l.4.4.4.5v.3z" style="fill:#000"/><path d="m132.8 44.5 62 27.1" style="fill:#000;opacity:1;fill-opacity:.92074603"/><path d="M36.2 11.4q2.6 1.4 6.2 2.9l2.8 1.3q3.7 1.5 7.1 3.2" style="fill:none;stroke:#000;stroke-width:.176508px;stroke-linecap:butt;stroke-linejoin:miter;stroke-opacity:1"/></svg>