<svg xmlns="http://www.w3.org/2000/svg" xml:space="preserve" width="120mm" height="60mm" viewBox="0 0 120 60"><path d="m51 51.6-1.2-.2-.9-.3-.8-.3-.7-.3-.6-.3-.6-.3-.6-.3-1.3-1-1.4-.8v-.2l-.2-.3h-.5l-.2-.2-.2-.2v-.7l.2-.4.3-.3.1-.8.2-.7.5-.6.4-.6.2-.3.2-.4.8-.3.8-.3h.8l1.4-.5 1.5-.4.8-.2.8-.2 1.3-.3 1.3-.3 1.3-.4 1.3-.4.7-.1.6-.2.3-.4.3-.4V37l.2-.2.2-.2V33l.2-.3-.1-1-.2-1-.1-1-.2-1-.2-.2-.1-.2v-.6l-.6-1-.5-1.1-.5-.7-.4-.7-1-1-.9-1.1-1.6-1.2-1.6-1.1h-.7l-.8.2-1 .2-1 .1-1 .2-.9.2-1.1.2-1.1.2-1.2.1-1 .2-.8.4-.7.3h-1.1l-1.3.3-1.3.3h-2.1l-.2-.4-.2-.4.1-.3.1-.4.5-1 .5-.8.4-.4.3-.4h.3l.3-.2v-.5l.2-.5.4-.6.4-.6 1.6-2 1.7-1.8.8-.7.8-.7.5-.3.5-.4.6-.4.7-.4.8-.4.8-.4.6-.3.7-.3 1.4-.2 1.4-.2 1.7-.1H53l1.2.2 1.1.3.6.2.5.2.3.2.2.3 1 .4.8.5.3.1.3.2.3.2.3.2 1 .6 1 .6.3.2.3.2.7-.2.7-.2.5-.3.5-.2h1l1-.2 1.6-.3 1.6-.2 1.2-.3 1.3-.2.3-.2.3-.2h2.4l.4.4.4.4.4.7.4.8v.5l.2.5.2.5.3.7.2.6v.8l.3.3.2.3.3 1.2.3 1.3.2.3.2.4.5 1.1.4 1.2.1.5.1.6.3.2.2.2v.6l.2.4.2.3.2.8.2.7v1.9l-.9 2-.9 2-.2.8-.3.7-.3.6-.3.6v.4l-.4.4-.3.4h-.4l-1 .5-.9.6-.9.2-.9.2H73l-.6.3-.6.3-.2.4-.2.4-1.3 1.9-1.4 1.9-1.4 1.4-1.4 1.4-1 .8-1 .8-.4.4-.5.3-.2.3-.3.3h-.3l-.6.5-.7.4-1 .6-1.2.7h-.5l-.1.2-.1.1-.4.2-.4.2-1.4.2-1.5.3h-1l-1 .2zm3.5-.7.4-.2.4-.7.4-.6.2-.7.3-.6-.3-.3-.2-.3h-2.5l-.3.4-.3.3h-.2l-.3-.6-.2-.6.2-.1H54l1.7.2 2-.1 1.9-.2.6-.2.7-.3h.6l1-.5 1-.6h.3l1.6-.9 1.5-.9 1.4-1.5 1.5-1.6.7-1.2.7-1.2h.3v-.7l.2-.3.2-.4-.2-.2-.1-.2-1 .2-1 .3-1.4-.1-1.3-.1-.7-.4-.7-.4-.8-1-.7-1-.6-1.1-.6-1.2v-.6l-.2-.1v-.1l-.3.2-.2.2v1.6l-.2 1-.2 1.1v.4l-.2.4-.5 1.3-.5 1.3-.6.3-.6.2-1.8.5-1.8.6-.6.1-.5.1-.8.2-.7.2-2.9.7-2.8.8-.9.2-.9.1-.2.1-.3.1-.2.4-.2.5h-1.1l-.2.5-.1.6-.4.6-.5.6v1l.2.5.2.4.3.1.4.2.2.2.3.2 1.5.8 1.4.8 1.2.6 1.3.5.7.1.8.1.4-.3.5-.4.1.5.1.6 1.1-.1 1.1-.2zm-7.7-4v-.1l.3-.5.3-.6-.6-.5-.6-.6-.6-.5-.7-.5v-.3h.4l1 .7 1 .7 1.6.9 1.7.9h.6l.3.2.3.2-.3.2h-.3l-.7-.3-.8-.3h-.5l-.4-.3-.4-.3-.4.1-.4.1-.1.5-.2.6h-.5zm10 3.6.3-.3h.6l.3-.4.2-.4V49l-.2-.3.3-.4.4-.4v.1l.2.1-.2.5-.2.5-.1.1v.2h.6l1.6-1 1.5-1h.3l.6-.5.6-.6V46H63l-.3.3-.3.3h-.7l-.3.2-.3.3h-1.1l-.4.3-.3.2h-1.9l-.7.9-.7.8-.2.5-.2.5.1.3.1.2h.6zm2.8-12.8.6-.3.2-.7.3-.6-.2-.1-.1-.2h-.8v-.3l-.1-.2h1.1l.3-.3.3-.2-.1-.5v-.5h-.9l-.8-.1-.4.4-.3.4v.9l-.2.8-.1.7-.2.7.2.1.2.2h.5zm14.4-1 .5-.2.1-.2.2-.2v-.9l.2-.4.3-.3v-.7l.3-.5.4-.5-.3-.5-.3-.4.1-.2.1-.2.2.2.3.2h.1l.2-.2V31l-.3-.4-.4-.3-.2.3-.2.3-.3.7-.4.6v.6l-.2.1-.3.1-.3 1-.4.8H73l-.1-.3-.1-.3.2-.5.3-.5v-.6l.5-.7.5-.8v-.5l-.2-.1-.1-.1-.5.2-.5.3h-.5l-.5.6-.5.6-.4.8-.4.8h-.5v-.5l.2-.3.3-.3.2-.8.3-.7H71L71 31h-2.2l-.3.2-.2.3-.3.6-.2.6h-.4l.1-.5.2-.5v-.7l.1-.8-.5-1.4-.5-1.3-.2-.3-.1-.3-.4-1-.4-1.1-.3-1.1-.3-1.2-.3.1-.3.1.1-.8.1-.7-.2-.2-.2-.1-.2.3-.2.3-.1-.3-.1-.3.2-.4.1-.4-.5-1.3-.6-1.3v-.5h-.6v.5l-.3.3-.3.3-.2-.2-.2-.2V17l.4-.1h.4v-.6h-.3l-.3.2-.2.1-.3.1V16l.5-.5.4-.5v-.2h-.4l-.4.4-.4.5-.4.2-.5.3v1.1l.2.7.2.6.1 1.1.2 1.2.1 1.2.2 1.2.6 2 .5 2.2.5 1.4.4 1.4.3.4.3.5.2.7.3.6.7 1.1.7 1.1.7.6.7.6h.7l.8.2 1.6-.2 1.7-.2.4-.1.5-.2h.4v1.3l.1.1.1.2h.4zM62.7 25.3l-.3-.5h-.3v-1l.1-1.2.3-.2.2-.3h.4l.5.2v.4l.2.5.2.2.2.2v1.7l-.3.3-.3.3H63zm.8-.9.1-.2-.2-.2-.2-.3h-.3v.9h.5zm13 11.4.6-.4v-.3h.7l.4-.6.3-.5-.1-.3v-.2H78l-.3.1V33l-.2-.6h-.1l-.4.2-.3.2v1l-.3.2-.2.1-.4.9-.4.8.1.2.1.2h.3zM61.3 33l.3-.3V31l-.2-.2-.2-.1h-1.7v-.3l.1-.2h.8l.8-.2.2-.4.2-.5v-.6l-.2-.6-.2-.7-.2-.6v-.2h-1l-.7-.1v-.5h.6l.6-.1v-.3l.2-.2L60 24l-.5-1.2-.4-.6-.3-.6-.6-.9-.5-.8-.6-.5-.5-.4-.4-.5-.4-.4-1-.8-1-.8-.6-.2-.7-.2-1.4.2-1.5.2-.7.3-.7.2h-.4l-.4-.2-.8.4-.7.4h-1.6l-.4.2-.4.1v.8l.6.2.5.2.2.2.2.2h1.4l1.4-.1.6-.2.5-.2h1.8l1 .7 1 .6.7.7.6.7h1.7v.6l-.2.2-.2.2.2.4.3.3.8 1.3.8 1.4h.2l.2.1v.5l.1.6.1.6.2.6.2.4.2.3V31l.2 1.7.3.3.3.3H61zM45.5 18.4h.3l.1.2h-.6zm31.4 12v-.2l-.2.1-.2.1v.2l-.1.3.2-.1h.2zm-5.5-.2 1-.1.4-.2.4-.1 1.7-.3 1.6-.3 1.1-.1 1.2-.2 1-.2.9-.2.2-.2.2-.1.3-.7.2-.7-.2-.6-.3-.6V25l-.2-.6-.6-1.6-.6-1.6v-.5l-.4-.5-.3-.6V19l-.2-.3-.2-.4-.3-1-.3-.8v-.6l-.2-.2-.2-.2-.3-1-.3-1-.6-1.3-.5-1.3-.3-.3-.3-.4h-1.6l-.9.3-.9.3-1.2.1-1.2.2-.8.2-.8.1-1 .2-1.1.2-1 .1-1 .1-.4.8-.5.7v.4l.2.5.4 1.4.5 1.4.7 2.2.7 2.1.3.7.3.7v.5l.7 1.8.6 1.8.5 1.3.5 1.4.4.4.5.4.5-.1h.6zm-1.2-4.3-.4-.5-.3-.7-.3-.7-.2-.5-.2-.5v-.8l-.3-.3-.2-.2V21l-.3-.7-.4-.7V19h-.1l-.2-.2-.1-.6-.2-.6.2-.5.1-.5.6-.3.6-.3 1.4-.3 1.4-.2.7-.2.7-.2.6-.1.6-.1.5.1.4.1.4.7.4.6v.8l.2.2.3.2v1.2l.2.2.3.2v.4l.3.7.3.7v.5l.3.6.4.6v.8l.1.8-.3.4-.4.5-1.5.3-1.6.3-1.1.2-1.1.1-.3.2-.3.2h-.8zm1.7-.8h.3v-.8l-.2-.1-.1-.1-.1-.7-.1-.7h-.5l-.5.6-.5.6.1.5.1.5.3.2.3.2h.3l.3-.2zm2-.3.6-.2v-.4l-.6-1-.6-1.1v-.3l-.4-.2-.4-.2-.2.2-.2.2.2.3.2.4.1.7.1.8.2.6.3.6V25h.2zm2.2-.4v-.2l-1-2-1-2.2H74l-.2.2v.8l.5 1 .5 1.1.3.6.4.6.1.2.2.1h.2zm1.1-.6v-.1l-.3-1-.2-.8-.1-.2-.2-.2-.7-2-.7-2-.1-.4-.1-.3h-.3v.7l-.2.8 1 2 .8 2 .3.8.4.8h.4zm-6.3-2 .8-.8.8-.5.7-.4.1-1.4.1-1.3.3-.5.2-.6v-.2l-.1-.2h-1.9l-.3.3-.3.2-1.2.1-1.3.2-.4.2-.4.3v1l.3.2.3.2H70l.3.3.3.3v.8l-.7.5-.6.5v.3l.1.7.2.7h.5zm-1.6-2 .1-.3h-.6l-.1.1v.2l.1.2h.4zm-9.6 1V20l-.3-1-.2-1V17l-.2-1.2 1.5-1.4 1.4-1.5v-.1l-.1-.1-1.3-.9-1.2-.8h-.2l-.2-.2-.2-.3-.5-.1-.5-.1-.6-.5-.6-.5L56 9l-.5-.2-.8-.3-.8-.3h-2.3L49.3 8l-.8.2-.8.2-.8.3-.9.3-1.5.7-1.5.8-1 .7-.8.7-1.9 1.9-1.8 1.8-.4.7-.4.6v.6l-.2.6 1.3-.1 1.2-.2h.7l.7-.1.2-.2.1-.1.6-.1.6-.1 2.9-.5 3-.4.7-.2.9-.2 1.7-.2 1.7-.2.7.2.6.2 1 .8 1 .9 1.4 1.5 1.4 1.5.2.4.3.4h.3zm-18-1-.2-.2-.2.2-.2.2h.8z" style="fill:#000"/></svg>