<svg xmlns="http://www.w3.org/2000/svg" xml:space="preserve" width="120mm" height="30mm" viewBox="0 0 120 30"><path d="m132.84 44.51 61.9 27.13" style="opacity:1;fill:#000;fill-opacity:.920746"/><path d="M15.37 22.78c-.38 0-.94-.03-1.23-.07-.42-.07-.62-.22-.88-.67a2 2 0 0 0-.81-.76c-.35-.14-.75-.6-1.47-1.73L8.27 15.4c-.47-.71-.6-1.04-.6-1.6 0-.4.12-.93.25-1.18.14-.26.51-.67.84-.9.32-.25.88-.56 1.25-.7.4-.15.82-.21 1.07-.15a4 4 0 0 1 1.1.63l.7.54 1.95-.02a7 7 0 0 1 2.04.12q.08.13-.03.16l-1.62.07a94 94 0 0 1-4.63.08q-.77-.02-.58-.14c.12-.08.34-.1.49-.07.14.04.35-.03.46-.16.11-.12.16-.3.1-.38s-.26-.15-.45-.15-.5.1-.7.23c-.19.12-.35.32-.35.43s-.14.23-.3.27c-.18.04-.32.17-.32.3 0 .17.42.2 2.55.17l7.82-.15c2.9-.06 7.98-.13 11.31-.14s9.83-.1 14.46-.2l11.15-.23c2.59-.07 2.77-.1 2.93-.39.1-.17.32-.45.5-.64a6 6 0 0 0 1.13-1.96q.01-.2.24-.13.21.07.23-.04c0-.08-.08-.22-.19-.32-.15-.14-.13-.28.07-.66.14-.27.3-.68.36-.93.06-.24.18-.86.28-1.37.1-.57.25-.93.38-.93.15 0 .16.1.04.4-.1.21-.12.58-.07.82.06.24.03.51-.08.63s-.15.4-.12.63l.07.42.12-.49c.07-.26.18-.48.24-.48.07 0 .16-.24.21-.53s.18-.73.3-.97c.15-.33.3-.43.63-.43.24 0 .43.05.43.12s.1.24.22.4c.19.24.46.29 1.85.32.92.03 1.65.11 1.68.2.03.08.18.15.33.15s.38.1.49.23.22.65.25 1.16-.02 1.38-.1 1.95-.21 1.37-.3 1.78c-.1.4-.14.85-.09 1 .05.14.38.46.74.7l.65.46h7c4.58 0 6.92.05 6.77.15-.14.09-2.85.14-6.84.14-3.63 0-6.82.07-7.1.14-.38.1-.55.09-.69-.07-.1-.12-.24-.21-.32-.21s-.27.2-.44.46-.34.7-.4.98c-.08.4-.04.56.17.7.19.14.24.3.17.57q-.1.38.13.46c.13.05.23.19.23.3 0 .13.15.27.33.32.18.06.37.05.43 0s-.09-.26-.33-.45c-.35-.29-.45-.53-.53-1.23-.06-.55-.03-1 .1-1.2.1-.18.23-.3.3-.25.08.04.1.24.06.43-.04.2 0 .4.08.45s3.6.1 7.83.1c6.97 0 7.7-.01 7.87-.24.1-.13.26-.2.35-.15s.2-.08.26-.29c.06-.22.03-.46-.07-.56q-.19-.19-.18.09-.02.23-.15.25c-.09 0-.16-.1-.16-.21 0-.12-.14-.31-.31-.43-.31-.2-.31-.2.07-.37.21-.1.52-.42.7-.74.16-.31.42-.66.56-.77.21-.17.39-.17 1.02-.02.56.14.92.15 1.3.03.28-.08 1.53-.22 2.79-.3 1.25-.1 3.76-.23 5.58-.3 1.81-.09 3.9-.19 4.65-.24.74-.05 2.33-.01 3.53.08l6.14.42c1.26.08 1.7.17 2.05.41.24.17.55.52.7.78.13.26.34.57.45.7q.2.23.2 1.7c.01 1.14-.04 1.54-.26 1.85-.15.22-.5.53-.78.69-.38.22-.79.29-1.7.29-.67 0-1.25.06-1.3.13s-.53.18-1.07.23l-2.32.23c-.74.07-2.57.2-4.07.28-1.8.1-3.35.1-4.56.01l-3.86-.28-3.69-.29c-1.58-.14-1.66-.13-2.32.22-.38.2-.76.36-.85.36s-.47-.2-.84-.45a2.4 2.4 0 0 1-.78-.72c-.05-.15-.26-.34-.46-.43s-.85-.13-1.46-.11l-7.37.23-6.28.18-.44.43c-.4.4-.53.43-1.65.44l-2.16.04c-.9.02-.98.05-1.5.61-.29.33-.7.74-.9.92s-.5.37-.65.42a.6.6 0 0 0-.36.38c-.08.27-.23.29-1.95.29q-1.88 0-2.06-.18a.6.6 0 0 1-.19-.37c0-.1-.13-.32-.3-.47a2 2 0 0 1-.36-.49c-.06-.17-3.24-.2-20.17-.17-11.06.02-20.3.08-20.54.13-.26.05-.43.19-.43.34 0 .13.14.46.32.73s.3.64.3.82-.2.6-.43.92c-.4.54-.5.6-1.14.61m-1.22-.38q.12-.02.13-.14c0-.08-.07-.31-.15-.52-.09-.21-.23-.38-.32-.38q-.17.02-.26.22c-.05.13.03.36.18.52.16.16.34.3.42.3m1.15 0c.13 0 .24-.09.24-.2 0-.1.2-.26.47-.35q.46-.17.47-.47c0-.17-.07-.47-.15-.67a1 1 0 0 0-.47-.47c-.25-.07-.3-.18-.23-.44a1.3 1.3 0 0 0-.16-.8 2 2 0 0 1-.25-.64c0-.1.18-.02.4.18l.41.36 13.23.02c7.27 0 16.43-.02 20.34-.07 4.53-.06 7.12-.15 7.15-.24.02-.09-.35-.19-.82-.23l-.86-.07-.18-.67a10 10 0 0 0-.46-1.26c-.15-.33-.3-.92-.33-1.32-.05-.63 0-.8.42-1.3.26-.32.43-.64.38-.73-.07-.11-1.26-.13-3.75-.08a6359 6359 0 0 1-34.9.69c-1.74.01-3.23.09-3.34.16-.14.11-.03.38.43 1.06.34.5.86 1.33 1.17 1.83s.55.99.55 1.1c0 .15-.04.15-.23 0-.13-.1-.24-.25-.24-.33s-.2-.45-.47-.8c-.26-.37-.47-.71-.47-.76s-.11-.21-.25-.35a6 6 0 0 1-.6-.9c-.2-.35-.44-.66-.52-.69s-.49.19-.89.48-.83.52-.95.52c-.13 0-.25-.17-.28-.4-.04-.38-.1-.4-.62-.37-.43.04-.67-.03-.9-.26-.19-.16-.4-.3-.49-.3s-.16.15-.15.33c0 .19.05.42.12.51s.31.25.55.34c.25.08.62.15.83.15s.38.06.38.14c0 .07-.18.17-.4.22q-.36.1-.38.35c.01.15.29.66.63 1.15l1.47 2.23c.48.74 1.01 1.5 1.2 1.68.23.24.5.33.97.33q.66 0 1.24-.39c.33-.2.67-.34.76-.28.1.05.14.15.1.21-.05.07-.02.33.06.58.08.26.08.5.01.54s-.24-.09-.38-.3-.33-.36-.41-.36c-.09 0-.16.1-.16.2 0 .12.1.25.24.3s.23.25.23.46q.02.37.24.38m45.18-1.88c.47-.04 1.02-.1 1.22-.14s.32-.14.27-.22q-.1-.14-.36 0c-.15.07-.47.1-.7.05a6 6 0 0 0-1.34.04c-.8.1-.85.13-.43.22.26.06.86.08 1.34.05m.24-.69 1.46-.03.68-.7c.37-.39.96-1.08 1.31-1.55s.7-.92.8-1.01c.09-.09.28-.36.42-.6.14-.25.44-.83.66-1.29.22-.45.4-.94.4-1.07s.06-.27.14-.31c.08-.05.18-.3.22-.57s.16-.82.26-1.22c.09-.4.24-.8.32-.89s.17-.38.17-.67c.01-.3.08-.7.15-.9.1-.34.12-.32.14.17 0 .3.06.65.1.78.06.13.18.24.27.24q.15-.01.05-.85a3 3 0 0 0-.25-1 3 3 0 0 1-.14-1.11c0-.52-.06-1-.13-1.07a6 6 0 0 0-1.5-.2c-1.28-.07-1.38-.05-1.84.3-.26.22-.48.53-.48.71s-.25.92-.56 1.66-.62 1.52-.7 1.75q-.13.4.06.56c.1.09.62.42 1.16.74.55.32.99.65.99.73 0 .09-.13.17-.28.18l-1.53.04-1.26.01-.49 1.16c-.27.63-.53 1.2-.59 1.25s-.1.24-.1.41-.06.38-.14.46c-.07.08-.35.73-.61 1.46-.26.72-.55 1.39-.65 1.48s-.17.3-.17.47c0 .18.05.36.1.42s.76.08 1.56.06m1.26-1c-.52 0-.75-.07-.82-.23-.05-.13-.03-.3.04-.36.08-.07.42-.08.77-.03q.62.1.68.36c.04.22-.07.26-.67.26m.27-1.07c-.75.04-.83.02-.83-.27 0-.28.08-.3.83-.27.6.04.82.1.82.27s-.22.24-.82.27m.34-.86q-.7 0-.8-.22c-.04-.12-.04-.28.02-.37s.29-.16.52-.16c.4 0 .4-.02.13-.21-.15-.12-.24-.28-.18-.37s.33-.16.6-.16c.28 0 .68.09.9.2.21.1.39.28.39.4q0 .21-.43.19c-.36-.02-.43.03-.43.33 0 .34-.07.37-.72.37m1.06-1.79c-.5 0-.96-.04-1.01-.09s-.06-.18-.01-.3c.06-.14.36-.2 1-.2.83 0 .93.03.93.3 0 .26-.1.3-.91.3m.25-1.04c-.31 0-.62-.06-.67-.15a.3.3 0 0 1 0-.3c.05-.07.51-.14 1.03-.14.69 0 .93.05.93.2 0 .12-.16.25-.35.3-.2.05-.62.09-.94.1m1.7-1.48c-.23 0-.4-.07-.4-.15s.13-.15.3-.15.35.07.4.15-.08.15-.3.15m-.47-1.07c-.48.02-.9-.03-.96-.12s0-.19.13-.24c.12-.04.57-.06.99-.03s.75.11.73.2c-.02.08-.42.16-.9.19m.08-1.04c-.76.03-.98 0-.92-.15q.06-.2.95-.2c.5 0 .91.07.93.15.03.09-.4.17-.96.2m.27-1.16q-.78 0-.86-.22c-.05-.12-.04-.28.02-.37s.48-.16.94-.16c.47 0 .9.07.95.16.06.08.02.25-.09.37-.12.14-.47.22-.96.22m-.21-1.34c-.38 0-.74-.07-.8-.16a.23.23 0 0 1 .04-.29c.07-.07.45-.13.84-.15s.8-.02.9 0c.11 0 .2.1.2.21 0 .12-.11.25-.25.3s-.56.09-.93.09M58 19c.13-.12.1-.25-.16-.51-.2-.2-.35-.48-.35-.63q.02-.32-.2-.1c-.14.15-.14.24 0 .44.12.14.28.42.36.62.13.27.21.31.35.18m.65.08c.08-.02.2-.14.27-.26a34 34 0 0 0 1.24-3.37q0-.24-.29.13c-.16.2-.58.81-.94 1.38-.4.63-.65 1.22-.65 1.5 0 .26.05.51.1.57a.3.3 0 0 0 .27.05m28.47-.71c.1 0 .22-.03.27-.08s-.3-.45-.79-.89c-.48-.44-.9-.78-.93-.75s.05.24.17.47.43.6.67.82c.25.23.52.42.61.43m13.82-.06c1.9-.02 4.3-.14 5.34-.27l2.73-.33c.51-.07.87-.2.92-.33.05-.12-.02-.43-.15-.69a10 10 0 0 1-.51-1.25 4 4 0 0 1-.19-1.41c.05-.34.15-.93.24-1.3.12-.49.11-.71-.02-.85-.11-.1-1.14-.26-2.47-.37-1.25-.1-3.12-.19-4.16-.19s-3.58.05-5.66.12c-2.07.06-4.55.18-5.5.26s-2.36.22-3.12.31-1.6.23-1.85.31-.54.29-.63.46l-.18.32-.13-.33c-.07-.18-.2-.33-.29-.33s-.16.12-.16.26.11.39.24.55.23.61.23 1.07c0 .7-.04.8-.32.8-.26 0-.3.04-.17.26.08.15.14.39.12.54-.01.15.06.3.16.34q.18.04.24-.43l.05-.5.37.77c.2.42.54.92.75 1.12.35.3.6.36 2.23.44a227 227 0 0 1 7.33.57c.6.07 2.66.1 4.56.08m-2.7-5.44c-.16 0-.44-.07-.64-.14q-.35-.14-.35-.5c0-.22.1-.4.27-.45.15-.04.53-.05.84-.03s.65.1.75.15c.1.06.18.2.18.3 0 .12-.17.31-.39.44-.21.14-.51.24-.67.23m-42.16 5.19c.21-.02.47-.1.57-.16.14-.1.12-.28-.06-.71-.23-.55-.29-.59-.86-.59h-.62l.1.63c.07.35.2.68.3.75s.35.1.57.08m10.23-.27c.39 0 .65-.08.7-.21.05-.12-.02-.38-.17-.58a1.4 1.4 0 0 0-.47-.45c-.13-.05-.35.12-.55.43-.19.28-.3.57-.24.66.06.08.38.15.73.15m-8.52-.3c.16 0 .41-.17.55-.37s.54-.87.87-1.47c.34-.6.78-1.35 1-1.67.2-.32.47-.84.6-1.17.11-.33.3-.73.4-.89.12-.16.21-.55.21-.86q0-.56.23-.65c.12-.04.3-.32.41-.62s.25-.61.32-.69a.7.7 0 0 0 .14-.43c0-.15.14-.5.32-.77.17-.26.27-.59.22-.72s-.2-.24-.32-.24q-.22.02-.22.41c0 .23-.06.48-.13.56s-.32.62-.56 1.21a5 5 0 0 1-.66 1.24c-.12.1-.22.3-.22.44s-.1.5-.24.8-.54.99-.9 1.54c-.38.55-.88 1.38-1.12 1.82s-.61 1.01-.83 1.25-.43.38-.48.33c-.06-.05.02-.33.17-.63s.24-.57.2-.6-.26.17-.5.46q-.42.52-.31.82c.06.17.2.3.33.3.12 0 .22.14.22.3q0 .3.3.3m7.12-.03c.1-.03.21-.14.25-.24q.04-.16-.1-.17c-.08 0-.2.1-.24.23q-.09.23.09.18m3.07.03c.1 0 .2-.08.2-.18s-.15-.36-.32-.56-.3-.5-.3-.65c-.01-.15-.15-.43-.3-.63-.26-.3-.32-.32-.4-.12-.05.13-.1.39-.1.57 0 .19.11.55.25.8.13.26.36.54.51.62s.35.14.46.15m44.33-.01c.12 0 .46-.22.77-.51l.55-.53-.07-1.61c-.07-1.55-.09-1.64-.59-2.23a4 4 0 0 0-.8-.76c-.22-.1-.46-.09-.85.06-.44.18-.58.34-.73.86a5.6 5.6 0 0 0-.07 2.5c.06.29.24.8.41 1.12s.5.7.74.84c.23.13.52.25.64.26m-1.6-.48c.03-.03-.1-.39-.28-.79-.3-.64-.32-.91-.25-2.4.07-1.34.04-1.67-.13-1.67-.12 0-.25.12-.3.26s-.15.7-.24 1.22c-.11.68-.1 1.12.01 1.49.1.29.3.75.43 1.03.15.28.36.6.48.72.11.1.24.17.28.14m-37.36-.11c2.21-.01 5.63-.07 7.6-.13 2.58-.09 3.63-.17 3.82-.32.23-.18.22-.21-.03-.39-.22-.15-1.86-.2-7.75-.2-4.11.01-7.64.05-7.83.1s-.35.16-.35.25.11.28.26.43c.24.26.55.27 4.28.26m-7.53-.66c.09-.05.16-.16.16-.23q-.01-.13-.16-.14-.15.02-.16.23.01.2.16.14m-10.19-.08q.58 0 1.06-.38c.27-.21.49-.45.49-.53s.22-.4.49-.72c.26-.31.44-.64.38-.73-.06-.1-.65-.16-1.41-.16-1.08 0-1.38.05-1.72.3-.36.27-.41.43-.41 1.11 0 .6.06.84.27.95.15.09.54.16.85.16m10.6-.44c.03 0 .06-.15.06-.34q0-.37-.15-.12c-.08.12-.1.27-.06.34q.07.1.14.12m.34-.9c.06 0 .2-.24.32-.55l.3-.84q.1-.3-.13-.21c-.12.04-.24.25-.27.47s-.11.4-.2.4c-.08 0-.14.16-.14.36s.05.38.12.38m-55.54-.48c.1-.03.2-.17.24-.3q.03-.24-.2-.25c-.12 0-.27.06-.33.14a.3.3 0 0 0 0 .3c.06.1.2.14.3.1m-1.39-.59q.46-.04.47-.26.02-.23-.47-.18c-.26.02-.57.08-.7.12-.2.07-.2.1 0 .22.13.07.44.12.7.1m47.47-.44c.95-.03 1.4-.1 1.44-.24.06-.15-.24-.18-1.3-.14-.96.02-1.4.1-1.45.23-.05.15.24.18 1.31.15m10.28-.42c.09 0 .16-.19.16-.43s.1-.46.23-.51.24-.25.24-.45-.04-.47-.1-.6c-.05-.13-.15-.24-.23-.24s-.14.27-.14.59-.07.63-.16.68-.16.29-.16.53.07.43.16.43m-4.85-.6c.24 0 .47-.05.52-.12.05-.08-.09-.24-.3-.37-.21-.14-.5-.24-.63-.24s-.24.12-.24.27.05.32.1.37.3.1.55.1m-.87-3.75q.08-.1.01-.28-.07-.17-.09.09 0 .25.08.2m1.98-1.74c.07 0 .13-.13.13-.3s-.1-.3-.24-.3-.23.1-.23.2.04.25.1.3q.1.1.24.1m-45.68 5.5c-.3 0-.55-.07-.55-.15s.25-.15.55-.15.55.07.55.15-.25.15-.55.15m4.54-.07c-1.54.04-2.95.02-3.12-.05q-.3-.13 1.4-.23c.94-.05 3.89-.1 6.55-.1 3.05 0 4.87.06 4.93.15.06.1-1.11.15-3.42.15-1.94 0-4.79.03-6.34.08m25-.4c-5.59 0-8.82-.04-8.6-.12.19-.08 4.27-.16 9.15-.18 4.84-.03 8.8 0 8.8.05q-.02.1-.2.17c-.11.04-4.23.08-9.15.08m11.3-.14c-.17 0-.47-.07-.69-.13-.37-.12-.37-.12.12-.14l.62-.02q.11 0 .17.15.03.14-.23.14" style="fill:#000"/><path d="M83.17 13.43h.88" style="fill:none;stroke:#000;stroke-width:.264583px;stroke-linecap:butt;stroke-linejoin:miter;stroke-opacity:1"/><path d="M85.85 12.9c-.01.06.01.2-.04.19s.06-.25.04-.19l-.12.5c-.04.17-.22.62-.14.76" style="fill:none;stroke:#000;stroke-width:.267528px;stroke-linecap:butt;stroke-linejoin:miter;stroke-opacity:1"/><path d="m85.74 16.17-.24-1.24" style="fill:none;stroke:#000;stroke-width:.39005px;stroke-linecap:butt;stroke-linejoin:miter;stroke-opacity:1"/><path d="M68.68 14.26c.06-.08.26-.17.19-.23s-.26.3-.19.23q.17-.18.33-.37.04-.04.09-.09v-.04c.03-.04.1-.03.14-.05M56.63 11.6q.12-.06.23-.1c.14-.04.32 0 .46 0h1.06M62.01 4.92c0-.35.26-.08.37-.14.02 0 .03-.04.05-.04.01 0 .84-.04.92 0q.12.05.23.14M57.6 16.42c-.1.2-.17.45-.33.6M84.55 13.99q-.04.31.1.6c.03.06 0 .14.04.22M32.06 11.91q.16-.03.33-.04c.53-.03 1.07 0 1.6 0 .5 0 1-.04 1.48 0q.41.04.83.1.69.01 1.38 0h.5l.23-.06q.16.01.33 0l.18-.09q.27-.08.55-.09M16.38 12.14l.69-.04c.4-.02.57.02 1 .04.6.04 1.2 0 1.8 0M14.81 17.57c.06 0 .19.06.19 0s-.22-.05-.19 0c.09.13.26.17.37.28.05.05-.02.1 0 .14q.1.16.1.37M15.23 20.52c.06-.03.21-.03.18-.1-.03-.06-.24.14-.18.1.23-.19.44-.27.64-.46M9.84 15.09q.35-.24.79-.23" style="fill:none;stroke:#000;stroke-width:.264583px;stroke-linecap:butt;stroke-linejoin:miter;stroke-opacity:1"/></svg>