<svg xmlns="http://www.w3.org/2000/svg" xml:space="preserve" width="120mm" height="62mm" viewBox="0 0 120 62"><path d="m132.84 44.51 61.9 27.13" style="opacity:1;fill:#000;fill-opacity:.920746"/><path d="M39.62 57.55c-.09-.1-.91-.23-4.15-.67-.56-.07-1.65-.24-2.44-.38-1.87-.32-4.3-.7-5.5-.86-.88-.12-1.41-.38-5.95-2.97a523 523 0 0 1-6.16-3.52c-1.14-.61-1.18-.69-1.05-2.25.11-1.31.34-5.13.54-8.89.05-1.07.16-2.45.24-3.07s.15-1.72.14-2.45.05-1.42.1-1.53c.07-.1.16-1.07.2-2.15.06-1.07.16-2.2.25-2.52.1-.37.64-1.17 1.53-2.27a99 99 0 0 0 3.3-4.24c.55-.77 1.54-2.04 1.98-2.52.2-.23.37-.47.37-.52s.23-.36.5-.68c.64-.71 4.4-5.6 4.54-5.87.05-.1.02-.44-.06-.75-.14-.52-.12-.6.24-1.1.8-1.1.78-1.09 5.17-1.22 2.18-.07 4.03-.17 4.1-.22.18-.13 7.31.21 8.65.41.56.08 1.62.22 2.37.3 1.35.15 2.8.4 4.87.84l1.9.4c.44.08 1.2.29 1.69.46l1.69.56c1.4.46 1.72.58 3.04 1.18.71.32 1.82.76 2.47.99.64.22 1.21.48 1.26.56.04.09.18.15.3.15.13 0 .63.19 1.12.41l2.38 1.1a2 2 0 0 0 .64.2c.11 0 .24.08.3.17.04.08.16.15.27.15s.58.2 1.05.45a21 21 0 0 0 2.8 1.42c.08 0 .89.41 1.8.92l3.4 1.87c.98.52 2.18 1.2 2.69 1.5.96.59 2.64 1.33 4.83 2.13.7.26 1.4.53 1.55.6s.67.24 1.15.39c.49.14 1.34.44 1.9.66 1.2.47 2.3.74 4.6 1.14 1.23.2 1.9.12 2.88-.38.58-.3.76-.47.83-.82.06-.25.18-.55.27-.68s.29-.57.42-.97.3-.75.35-.75q.11-.01.12-.16c0-.17.99-2.68 1.22-3.1.28-.52.68-1.48.68-1.66 0-.1.08-.26.19-.37.15-.14.2-.12.24.1s.15.12.45-.42l.47-.86c.22-.5 2.76-4.9 3.15-5.44.58-.82.64-.52.63 3.23l-.01 3.46-1.48 1.48-2.66 2.7c-.65.66-1.27 1.25-1.38 1.3-.33.19-.58-.42-.5-1.23.07-.73-.11-1.03-.27-.47-.22.74-1.63 3.93-1.95 4.4-.94 1.39-3.35 1.44-7.44.16l-2.57-.8c-.56-.17-1.14-.37-1.29-.44-.14-.08-.84-.36-1.55-.63a30 30 0 0 1-4.92-2.24 24 24 0 0 0-2-1.03c-.07 0-.78-.38-1.58-.85a35 35 0 0 0-4.55-2.4 2 2 0 0 0-.72-.41 25 25 0 0 1-1.46-.71q-1.95-1.03-3.32-1.56c-.86-.33-2.24-.94-3.04-1.33a8 8 0 0 0-1.01-.39c-.34-.1-.73-.25-.88-.32-.25-.13-1.5-.67-3.25-1.4a65 65 0 0 0-4.26-1.4c-.26-.09-1.14-.3-1.96-.47s-1.98-.42-2.57-.56c-.6-.13-1.7-.3-2.44-.37l-3.59-.37c-3.3-.37-7.94-.48-11.05-.26l-3.76.24c-1.75.07-2.58.84-2.23 2.05.15.54.15.56-.64 1.52a126 126 0 0 0-3.13 4c-.15.21-.6.79-1 1.27l-1.4 1.78c-.37.49-.97 1.26-1.35 1.71a57 57 0 0 0-1.76 2.34c-.6.83-1.43 1.88-1.86 2.33-1.15 1.2-1.28 1.6-1.45 4.27l-.28 4.3-.26 4.37a94 94 0 0 1-.27 3.68 30 30 0 0 0-.15 2.41c0 .6-.08 1.75-.18 2.57s-.14 1.56-.11 1.66a9 9 0 0 0 2.02 1.45c.06 0 2.3 1.26 4.98 2.8 3.5 2.02 5.08 2.86 5.62 2.96l1.62.32c.48.09 1.78.27 2.87.4 1.1.13 2.15.3 2.35.39.19.08.63.15.98.15s.85.08 1.1.17c.27.1 1 .23 1.63.3s1.62.21 2.2.3c1.03.17 1.44.14 3.9-.31 1.21-.22 2.48-.53 2.63-.64.17-.13 1.22-.42 5-1.38.75-.18 1.6-.44 1.9-.56s1.12-.35 1.83-.53c.7-.17 1.62-.42 2.03-.56.4-.13.9-.28 1.08-.32.73-.16 2.1-.58 2.23-.68.08-.06.6-.2 1.15-.3.56-.11 1.29-.3 1.62-.42s.73-.22.9-.22c.16 0 .52-.1.8-.24.3-.14.9-.34 1.34-.46s1-.28 1.23-.38 1.29-.45 2.37-.8c2.28-.74 2.52-.82 3.52-1.17.75-.26 1.94-.6 2.87-.83.28-.07.58-.2.68-.27.09-.09.5-.25.91-.36s.93-.3 1.15-.4c.23-.11.77-.32 1.22-.47s.92-.33 1.05-.4.32-.14.43-.14.4-.1.65-.22c.24-.12.9-.38 1.46-.56s2.2-.78 3.65-1.32 3-1.1 3.45-1.22l1.37-.41c.3-.1.69-.17.85-.17.15 0 .28-.07.28-.15s-.63-.17-1.45-.2l-1.46-.04.03-1.32c.02-.73.06-1.68.1-2.1.03-.44.1-2.04.14-3.58.04-1.53.12-2.86.19-2.96.06-.1.13-1.15.14-2.35.03-2.93.11-3.03 1.87-2.4.5.17 1.44.5 2.07.7 1.42.5 2.03.79 2.03.98 0 .08-.18.49-.39.9-.7 1.35-1.47 2.91-1.98 4.02-.28.6-.57 1.2-.65 1.3-.16.24-.43.75-.59 1.12-.05.13-.33.68-.61 1.21a9 9 0 0 0-.52 1.07c0 .05-.28.62-.63 1.25-.34.64-.58 1.2-.54 1.26q.08.08.13.03c.1-.15 1.38-2.43 2.58-4.58a83 83 0 0 1 1.41-2.51c.07-.1.17-.3.21-.47.17-.6 1.8-3.26 2.02-3.31.2-.05.23.1.23 1.25 0 .72-.05 1.86-.13 2.54a58 58 0 0 0-.2 3.35 41 41 0 0 1-.15 2.76l-.09.66.52-.1c.3-.04.6-.14.67-.21.08-.08.5-.24.93-.37 1.24-.37 1.2-.43-.3-.47-.45 0-.9-.08-.96-.17-.09-.1-.09-1 0-2.49l.22-4.44c.1-1.94.12-2.1.36-2.1.29 0 .59.52 1.74 3.04 1.69 3.67 2 4.4 2 4.7 0 .2-.14.5-.3.7l-.3.36h.4c.23 0 .77-.1 1.2-.24a17 17 0 0 1 1.83-.4c1.25-.2 2.45-.55 2.64-.77.08-.09.15-.96.17-1.98.12-8.86.2-11.9.3-13.44.19-2.59.18-12.37 0-12.58-.1-.12-.32-.11-.76.04-.79.27-.9.39-1.25 1.24-.26.64-.55.92-.55.53 0-.4.84-1.84 1.12-1.9.16-.05.62-.23 1-.4.52-.23.74-.26.82-.13.13.2-.01 9.78-.22 14.83-.08 1.89-.14 5.87-.15 8.84v5.41l-.5.17a4 4 0 0 1-.88.16c-.2 0-.81.1-1.36.23-3.98.95-5.18 1.27-6.2 1.66-2.1.83-2.5.95-2.97.97-.26.02-.52.11-.58.22s-.3.2-.55.2c-.24 0-.5.07-.58.16-.08.1-.39.24-.67.32l-.93.3-1.15.37c-2.55.8-3.25 1.02-3.8 1.25-.86.36-3.62 1.35-4.23 1.51-.28.08-.61.2-.74.28-.13.07-.6.25-1.05.4a8 8 0 0 0-1.04.4 1 1 0 0 1-.4.15c-.1 0-.48.14-.85.3-.88.4-1.91.78-2.5.94-.78.21-2.8.86-4.61 1.48-.93.32-2.27.75-2.98.96-.7.2-1.4.44-1.55.51s-.64.25-1.09.4c-.44.14-1.27.43-1.83.64s-1.15.38-1.32.38c-.35 0-1.18.22-2.66.71-.6.2-1.6.48-2.24.63-.63.14-1.6.43-2.16.63s-1.17.37-1.37.37-.58.1-.84.23c-.27.13-.65.24-.83.24-.2 0-.46.07-.58.15-.22.15-1.94.62-3.35.94-.64.14-2.56.7-3.52 1.02-1.02.34-2.67.69-3.2.67-.25 0-.63.07-.83.16-.42.2-2.7.24-2.85.07m53.71-17.18c-.1-.19-1.16-.2-1.16 0 0 .07.28.14.62.14s.58-.07.54-.14m3.85-.33c0-.09-.12-.16-.27-.16s-.27.07-.27.16.12.15.27.15.27-.07.27-.15m-.4-1.74c.09-.19.13-.7.1-1.2a3.5 3.5 0 0 0-.64-1.85c-.31-.54-.62-1.01-.69-1.06-.09-.06-.94 1.2-.94 1.4 0 .04-.34.65-.75 1.36-.4.7-.74 1.38-.74 1.49 0 .15.42.2 1.75.2 1.66 0 1.77-.02 1.91-.34m4.73.18c0-.09-.12-.16-.27-.16s-.27.07-.27.16.12.16.27.16.27-.07.27-.16m-9.74-.74c.15-.32.4-.8.54-1.05.14-.26.33-.64.4-.84s.26-.56.4-.78c.13-.23.44-.83.69-1.35l.57-1.17c.1-.17-.17-.74-1-2.21a11 11 0 0 0-1.3-1.99c-.3-.01-.39.54-.43 2.79a19 19 0 0 1-.16 2.62c-.07.2-.12 1-.12 1.74 0 .76-.07 1.6-.15 1.87-.16.51-.1.95.14.95.08 0 .26-.26.42-.58m8.66.18a4 4 0 0 0 1.22-.51l.3-.27-.44-1a49 49 0 0 0-1.05-2.34 38 38 0 0 0-1.39-2.86q-.1-.1-.2.05c-.11.21-.26 6.63-.15 6.94.1.3.54.3 1.71 0m-3.5-3.44c-.44-.94-.8-1.4-.96-1.22q-.13.15.41 1.14.56.99.69.84t-.15-.76m.25-1.83c0-.37.04-.92.09-1.2l.08-.53-.3.3c-.17.18-.39.5-.49.72-.16.36-.15.47.08.9q.54 1.02.54-.19m-2.32-1.84c-.08-.19-.52-.98-.96-1.75-.43-.78-.83-1.57-.87-1.77-.13-.58-1.15-.7-1.24-.15q-.04.26.3.42c.36.16 1.13 1.26 1.85 2.66.65 1.26.82 1.47.97 1.17.07-.14.05-.37-.05-.58m.7-.65c0-.11.18-.5.4-.85.52-.83.53-1.24.03-1.36a18 18 0 0 1-1.59-.45.6.6 0 0 0-.47.06c-.17.12-.15.21.1.62.17.25.3.5.3.55 0 .04.22.43.5.86q.72 1.17.72.57m9.66-11.04c1.95-2.06 2.24-2.42 2.25-2.84l.08-2.55c.04-1.41.02-2.07-.08-2.07-.16 0-2.15 3.45-2.84 4.91a10 10 0 0 1-.63 1.19c-.1.13-.2.35-.2.48a.7.7 0 0 1-.2.44c-.1.1-.2.28-.2.4 0 .1-.1.43-.22.72-.42.96-.45 1.06-.45 1.37 0 .17.05.32.12.32s1.14-1.07 2.37-2.37M38.27 56.24c-.13-.1-.34-.13-.45-.08s-.6-.01-1.08-.14a7 7 0 0 0-1.38-.23c-.28 0-.71-.08-.97-.17s-.93-.23-1.5-.3c-2.16-.3-3.18-.5-3.3-.64-.07-.08-.48-.14-.92-.14-.8 0-1.63-.35-1.97-.82-.11-.16-.18-1.76-.23-5.43-.04-2.87-.1-5.32-.13-5.44s-.13-3.07-.22-6.53c-.14-5.4-.14-6.3.02-6.43.29-.2.4-.17.5.13.04.15.57 1.18 1.15 2.3.95 1.77 2.27 4.4 3.04 6.01.14.3.4.82.6 1.16a207.39 207.39 0 0 0 2.96 5.7l3.12 5.94c2.61 5.03 2.66 5.17 1.61 5.24-.33.02-.71-.04-.85-.13m-.43-.77q.05-.14-.14-.15-.2.02-.13.15.07.15.13.16.06-.01.14-.16m-.68-.15c.08-.14-.85-.78-1.13-.78-.08 0-.67-.29-1.33-.64s-1.74-.9-2.41-1.23-1.8-.91-2.53-1.3a10 10 0 0 0-1.48-.73c-.1 0-.3-.11-.45-.24a1 1 0 0 0-.5-.23c-.24 0-.26.14-.22 1.6l.04 1.58.46.31q.46.3 1.62.43c.64.06 1.71.22 2.38.36l3.04.56c1 .17 1.85.35 1.88.39.12.13.55.08.63-.08m1.55-.4c-.19-.26-1.46-.98-3.3-1.86-.68-.32-1.82-.9-2.54-1.27s-1.63-.83-2.03-1-.78-.38-.85-.45a10 10 0 0 0-1.08-.56c-.52-.25-1.08-.55-1.25-.67-.3-.21-.58-.14-.58.14 0 .08.17.22.37.3.63.27 2.64 1.3 3.27 1.67.33.2.64.36.7.36s.55.23 1.1.52c.54.3 1.96 1 3.15 1.59 1.18.58 2.3 1.15 2.5 1.26.5.3.77.29.54-.03m-.67-1.43a6 6 0 0 0-.4-.9c-.23-.43-.47-.92-.55-1.1a211.2 211.2 0 0 1-3.22-6.1c-.21-.44-.39-.45-2.95-.12-1.03.13-2.28.23-2.77.2-.5 0-.96.03-1.05.09-.1.07-.15.55-.15 1.22q0 1.69.63 1.68a1 1 0 0 1 .42.14 202 202 0 0 0 5.86 3.04c.42.22.82.4.9.4s.44.17.8.38.9.49 1.2.63.63.32.74.4c.25.17.54.2.54.04m-6.48-8.87c1.43-.1 1.7-.2 1.56-.6-.07-.23-.25-.25-1.27-.18-.65.04-1.46.15-1.8.23-.33.1-1.1.17-1.7.17q-1.11 0-1.25.22c-.34.47-.02.48 4.46.16m-2.11-1.15c.3-.08.91-.15 1.37-.15 1 0 1.67-.15 1.67-.36 0-.33-1.38-2.77-1.57-2.77-.12 0-.37.1-.57.23l-.56.31c-.11.05-.81.46-1.56.9-1.18.72-1.36.88-1.4 1.27-.08.85.02.92 1.1.81.54-.05 1.22-.16 1.52-.24m-2.13-2.02 1.11-.65c1.89-1.06 2.15-1.22 2.23-1.38.18-.34-.36-.34-.97 0l-.91.48c-.15.08-.37.2-.48.28s-.45.27-.75.42c-.5.25-.86.61-.87.88 0 .17.36.15.64-.03m1.15-2.08a6 6 0 0 0 1.59-1.08c0-.12-.34-.9-.76-1.76a104 104 0 0 0-2.13-4.19c-.21-.41-.43-.7-.48-.62-.11.18-.02 8.65.1 8.58.05-.04.8-.45 1.68-.93M41.3 56.06c-.32-.2-1.53-2.1-2.03-3.24-.13-.3-.5-1.07-.81-1.71-.68-1.4-.65-1.31-.49-1.38.14-.05.46.5 1.03 1.77.16.34.48.97.73 1.4 1.42 2.54 1.5 2.65 1.87 2.7.22.03.39-.03.42-.15l.2-.91c.42-1.93.6-2.59.7-2.72a1 1 0 0 0 .13-.43c0-.16.05-.4.12-.56.14-.34.36-1.08.7-2.37.41-1.6.7-2.56.8-2.73.2-.3.44-1.82.32-1.95-.13-.15-2.16 0-5.19.38-4.41.56-4.23.5-3.83 1.35.14.3.43.85.66 1.23.65 1.09 1.18 2.3 1.11 2.52q-.06.2-.25-.2c-.1-.23-.6-1.1-1.09-1.95a31 31 0 0 1-1.32-2.5c-.23-.53-.48-1-.56-1.06a2 2 0 0 1-.33-.6c-.11-.27-.54-1.13-.96-1.9a51 51 0 0 1-1.72-3.35c-.09-.21-.47-.99-.86-1.71l-1.01-2a25 25 0 0 0-1.1-2.18c-.7-1.2-1.32-2.5-1.32-2.74 0-.14.07-.26.17-.27.3-.04.7.04.84.16.08.07.43.17.78.22s.94.23 1.29.39 1.1.42 1.65.56c.56.15 1.41.4 1.9.56 2.74.88 3.36 1.07 3.78 1.17.26.06.56.17.68.24s.72.27 1.36.46c1.25.36 2 .6 3.45 1.05.52.17 1.54.5 2.28.72 1.38.43 1.84.64 2.01.94.2.34.1 1.3-.28 2.67l-.7 2.57c-.8 3.05-1.25 4.67-1.5 5.53-.16.52-.34 1.18-.4 1.48-.11.58-.45 1.7-.65 2.15-.07.15-.18.51-.26.82l-.55 2.1c-.23.86-.49 1.85-.56 2.2-.13.61-.6 1.47-.8 1.46a2 2 0 0 1-.41-.2M38.3 43.93c2.06-.22 5.33-.6 6.11-.71.7-.1 1.15-.52 1.01-.93-.07-.2-.24-.23-1.2-.15-.61.06-1.45.17-1.86.25-.4.09-1.47.22-2.37.3l-3.05.3c-1.89.17-2.4.47-1.72 1.02.22.18.49.23.92.17zm-.67-1.4c1.87-.19 5.06-.56 6.5-.76.8-.12 1.2-.25 1.31-.43.12-.2.17-1.1.17-3.17 0-2.1-.05-2.97-.17-3.15a12 12 0 0 0-3.1-1.22c-.13 0-.61.2-1.09.45l-2.4 1.27c-.86.44-2.3 1.21-3.19 1.71s-1.91 1.05-2.26 1.23c-.36.17-.65.4-.65.49 0 .31.65 1.74 1.19 2.6.17.27.3.54.3.6 0 .07.1.26.24.42.2.25.34.28.98.2.4-.06 1.38-.16 2.17-.24m9.12-5.48c.11-1.53-.02-2.05-.5-1.97-.28.05-.3.13-.3 2-.02 1.07.03 2.12.1 2.34.12.37.13.36.37-.32.13-.38.28-1.3.33-2.05m-13.1.8c1.46-.76 2.57-1.36 4.25-2.31.85-.48 1.95-1.06 2.43-1.28.48-.23.89-.48.91-.57.17-.57-1.42-.12-2.85.8-.47.31-.94.56-1.04.56s-.27.09-.39.2-.46.3-.76.41c-.66.25-2.92 1.5-3.62 2-.51.36-.56.66-.1.66.13 0 .66-.21 1.17-.48m-.42-1.12c.66-.3 1.76-.87 3.45-1.8.7-.39 1.66-.9 2.13-1.14s.85-.51.85-.6-.54-.33-1.19-.56l-1.52-.54c-.19-.07-.8-.25-1.35-.4a6 6 0 0 1-1.15-.38c-.15-.13-2.15-.22-4.3-.18-1.04.02-1.32.07-1.32.24 0 .12.27.74.6 1.37s.88 1.77 1.23 2.54c.35.78.7 1.5.79 1.62.24.35.67.47.97.27.14-.1.51-.3.8-.44m-2.32-6.18c.23-.1.22-.14-.13-.3-.58-.26-1.6-.4-2.07-.27-.42.1-.57.45-.25.6.26.12 2.17.1 2.45-.03m14.06 25.12c-.29-.11-.2-.49.2-.77a64.82 64.82 0 0 1 3.33-2.93c1.32-1.12 3-2.57 3.75-3.24.74-.66 1.38-1.2 1.42-1.2s.43-.35.85-.76 1.05-.98 1.4-1.26c.36-.27.8-.65.99-.84s.55-.52.82-.73c.27-.22.83-.71 1.25-1.1s1.1-.98 1.52-1.32c.4-.34 1.2-1.04 1.75-1.56.56-.52 1.45-1.29 1.97-1.7.52-.43 1.23-1.04 1.57-1.37 1.04-.99 1.08-.94.99 1.55-.04 1.18-.1 2.32-.15 2.53-.04.22-.08.82-.1 1.33-.11 2.8-.27 4.28-.56 5.22a9 9 0 0 1-1.18 2.62 9 9 0 0 1-2.54.82c-.4.07-1.1.24-1.55.39-.45.14-1.42.41-2.17.6L57 52.4c-.11.06-.39.14-.61.18-.23.05-.8.2-1.29.34l-3.52 1c-1.46.34-2.91.76-3.3.93-.21.1-.49.14-.62.09s-.4.02-.62.15a2 2 0 0 1-.77.24c-.21 0-.55.1-.75.21-.2.12-.44.18-.53.14m2.94-1.12a37.85 37.85 0 0 1 4.26-1.25c.57-.13 1.01-.25 2.91-.8 1.48-.43 2.31-.66 4.48-1.21.26-.07.56-.18.65-.25.1-.07.55-.18 1-.26.88-.14 1.46-.29 2.6-.66.79-.25.98-.66.38-.8a3 3 0 0 1-.61-.25 1 1 0 0 0-.45-.14c-.11 0-.3-.07-.44-.15-.28-.18-2.2-.87-2.87-1.03a3 3 0 0 1-.67-.23 9 9 0 0 0-1.02-.4c-.82-.27-1.07-.36-1.7-.65-.5-.23-1.14.07-2.3 1.1q-3.1 2.73-3.76 3.26c-.25.2-.68.57-.95.83s-.62.58-.78.7c-.65.52-2.42 2.21-2.47 2.36-.06.19.8.1 1.74-.17m16.98-5.78c.05-.09-.02-.2-.16-.25a40.87 40.87 0 0 0-2.82-1.07c-.89-.3-2.29-.8-3.1-1.1-1.86-.67-2.13-.74-2.36-.56-.25.2-.1.43.36.53.65.15 2.31.71 2.59.88.14.1.4.17.59.17.17 0 .37.06.44.14.11.12 1.68.7 3.38 1.25.58.19.99.2 1.08 0m.42-.74c.34-.26.58-1.14.67-2.4.08-1.13.06-1.36-.13-1.59-.13-.14-.32-.26-.43-.26s-.85-.2-1.65-.46c-.8-.25-1.94-.5-2.53-.56-1-.09-1.13-.06-1.74.31-.7.43-2.18 1.69-2.33 1.98-.14.27.5.75.98.75.24 0 .47.07.5.15.05.07.28.17.52.22.25.04.78.2 1.19.34l1.15.39 1.22.44c2.16.84 2.33.88 2.58.69m.67-4.94c0-.29-.2-.4-1.05-.62-.74-.2-.38-.72.49-.72.65 0 1.05-.61.54-.84-.4-.18-3.87.25-4.62.56-.9.39-.92.7-.07.8.68.08 2.47.54 3.62.93.85.3 1.09.27 1.09-.11m-.24-2.68c.24-.05.48-.17.53-.25.04-.09.1-.82.14-1.62.05-1.1.02-1.46-.1-1.46-.1 0-.57.37-1.06.82-.5.46-1.34 1.2-1.87 1.67-.54.46-.94.9-.9.97.06.13 2.5.03 3.26-.13M43.41 55.06c-.15-.17-.1-.57.11-1.05.11-.24.2-.57.2-.72s.13-.44.28-.64l.28-.37-.08.54-.15.8c-.14.57.23.4 1.36-.6 1.69-1.5 1.56-1.4 3.93-3.38 4.05-3.4 4.77-4.14 4.03-4.15-.13 0-.4-.1-.6-.2a4 4 0 0 0-.87-.33c-.3-.06-.59-.17-.66-.23s-.78-.31-1.56-.55-1.58-.54-1.77-.65a1 1 0 0 0-.74-.08c-.34.1-.43.27-.76 1.43-.2.73-.38 1.41-.38 1.53 0 .11-.09.43-.19.7s-.26.8-.35 1.2a12 12 0 0 1-.76 2.49c-.09.13-.2.5-.25.82s-.15.58-.22.58c-.2 0-.15-.69.07-1.19.11-.25.2-.57.2-.71s.06-.3.13-.35c.06-.05.15-.31.18-.6.04-.27.15-.75.24-1.05.46-1.47.58-1.82.74-2.18.1-.21.2-.69.26-1.05.04-.36.35-1.58.68-2.72.84-2.94.87-3.02 1.06-2.8.08.1.2.18.26.18s.6-.7 1.2-1.56 1.24-1.75 1.43-1.98c.33-.42.27-.75-.12-.65-.24.06-1.66 2-2.22 3.01-.2.38-.43.7-.48.7-.27.02-.1-.9.54-3.06.36-1.2-.01-1.12 6.44-1.17 5.27-.04 6.24-.1 6.03-.35-.15-.17-2.11-.27-6.69-.35-3.13-.05-4.8-.14-4.92-.25-.14-.14-.16-.81-.08-3.53.14-5.14.15-5.37.32-5.44.08-.03.15.11.15.34 0 .72.1.7 1.57-.44.43-.33.92-.74 1.07-.9s.63-.6 1.08-.94a26 26 0 0 0 1.42-1.2c.34-.32 1.16-.97 1.84-1.46 1.2-.87 2.1-1.8 2.26-2.32.1-.34-.33-.71-.98-.85a3 3 0 0 1-.73-.24c-.13-.08-.96-.39-1.82-.67l-2.4-.82c-1.93-.72-2.52-.88-2.74-.72-.24.17-.25.34-.36 5.74-.05 2.2-.13 3.64-.22 3.74-.1.12-.12-.97-.07-3.65.13-7.09.13-7.4-.1-7.92q-.67-1.48-.7.66c-.1 3.71-.37 10.6-.48 12.09-.07.99-.12 3.1-.12 4.7 0 2.76-.01 2.93-.28 3.22-.46.5-2.3.6-3.04.18-.24-.14-2.9-1-4.27-1.4-.9-.25-3.45-1.13-3.67-1.26-.12-.07-.7-.24-1.28-.38s-1.53-.43-2.08-.65c-.56-.21-1.48-.52-2.03-.67a82 82 0 0 1-4.16-1.32c-.16-.06-.19-.23-.13-.64.07-.48.03-.57-.26-.7-.45-.2-.52-.5-.26-1.07.12-.27.15-.48.07-.48a.14.14 0 0 0-.14.15 6 6 0 0 1-1.53 2.26c-.75.3-6.2-.85-6.75-1.43-.6-.62-.09-1.3 2.85-3.82l8.74-7.53a96 96 0 0 1 3.1-2.63c.2-.16.45-.24.57-.2.27.13.12.47-1.25 2.87a66 66 0 0 0-2.88 5.5q-.01.14-.13.15c-.06 0-.24.27-.39.6-.14.32-.56 1.11-.92 1.75q-1.24 2.2-1.03 2.17c.09 0 2.3-3.83 2.47-4.26.08-.22.9-1.66 2.87-5.07.81-1.4 1.7-3.05 1.97-3.65.63-1.4 1.28-1.98 2.22-1.98.37 0 .78.07.92.15.25.15.96.31 2.81.63.47.08.92.19 1 .24s.45.16.83.24c2.8.55 3.07.65 3.07 1.26 0 .16-.1.47-.21.67-.17.3-2.65 2.25-5.25 4.14-.45.32-1.8 1.35-2.47 1.89-.31.24-.6.44-.64.44-.09 0-1.35.96-1.44 1.1-.08.12-1.4 1.08-1.9 1.37-.18.11-.52.37-.74.58-.64.6-.08.48.75-.16.38-.3.72-.55.75-.55s.35-.24.72-.54c.36-.3.7-.55.76-.55s.2-.1.33-.22c.11-.12.57-.44 1.02-.72s.94-.63 1.08-.78.71-.58 1.25-.96c2.68-1.86 5.69-4.1 6.35-4.72.23-.22.49-.4.57-.4.36 0 .26-.33-.17-.57-.61-.33-.72-.71-.35-1.25.4-.58.64-.76 1.6-1.13.95-.37 1.32-.39 1.77-.1.28.18.33.33.34 1.04.01.78.03.84.34.84.27 0 .37.12.48.55.08.3.18.63.24.72.13.23 1.62.36 5.26.46 1.6.04 3.82.14 4.93.22s2.04.12 2.08.08q.24-.26-2.32-1.23a29 29 0 0 1-2.1-.85 8 8 0 0 0-1.66-.65 148 148 0 0 0-4.2-1.1c-1.68-.47-2.14-.3-2.2.8-.04.92-.37 1.03-.36.12.02-.9.13-1.18.59-1.46.44-.26 1.1-.3 1.23-.07.05.09.26.16.46.16s.9.14 1.52.32l2.55.71c.79.22 1.6.5 1.83.61s1.47.6 2.78 1.1c1.3.48 2.42.93 2.5.99.07.06.6.26 1.15.45a33 33 0 0 1 3.01 1.2c.36.15.68.33.72.4s.2.14.37.14.56.14.87.3c.56.3.58.33.58 1.07 0 .42-.09 1.1-.2 1.53-.1.42-.23 1.15-.28 1.62a7 7 0 0 1-.27 1.33c-.1.25-.2.75-.25 1.09-.1.89-.5 2.99-1.12 6l-.32 1.56-.31 1.4a5 5 0 0 0-.15 1.25c.08.6-.35 1.4-.96 1.78l-.6.38c-.04.02.03.12.16.2s.24.24.24.34c0 .24-1.06 1.67-1.24 1.67-.12 0-1.57 1.2-2.42 2l-2.29 2-2.4 2.08-1.74 1.48c-2.01 1.67-2.5 2.09-3.94 3.34-2.35 2.04-3.89 3.35-4.4 3.75-.27.22-.91.76-1.42 1.22a75 75 0 0 1-2.54 2.21q-.04 0-.12-.1m10.94-9.87c.1-.2-1.21-.86-2.44-1.22-2.22-.66-2.54-.83-2.26-1.15.08-.1 1.74-.2 4.05-.27 3.69-.1 3.94-.13 4.39-.45.26-.18.59-.49.73-.67s.4-.4.56-.47c.58-.25.67-.56 1.28-4.25.16-1 .15-1.09-.08-1.28-.55-.47-.83.12-1.15 2.5s-.42 2.96-.52 3.07-1.1.17-7.04.44c-1.96.09-3.6.13-3.66.1-.19-.14-.94.36-1.03.68-.17.59.05.73 2.1 1.4.55.17 1.2.4 1.41.5.64.26 1.58.6 2.17.78.3.09.63.22.74.29.29.18.65.18.75 0m1.26-.94c.77-.47 1.32-1.06 1.17-1.24s-5.61-.03-5.61.15c0 .19 3.08 1.36 3.62 1.39.17 0 .54-.13.82-.3M52.5 41c2.27-.02 5.66-.3 5.98-.5.13-.07.26-.4.3-.72l.22-1.45c.4-2.36.44-2.69.25-2.83-.1-.07-1.84-.11-3.88-.09l-3.7.05-.36.5c-.2.27-.7 1-1.12 1.63l-1.46 2.13c-.63.93-.78 1.26-.63 1.43a6 6 0 0 0 1.26-.03c.65-.06 2.07-.11 3.14-.12m8.86-1.66c.61-.57 2.54-2.24 3.33-2.88.48-.38.67-.63.65-.85-.04-.27-.16-.32-.88-.36-.52-.03-.89-.13-1-.28-.08-.12-.34-.22-.56-.22-.33 0-.38.04-.26.2.22.3.05.42-.6.42-.33 0-.66.1-.78.23-.21.25-.43 1.14-.31 1.28.03.04-.02.4-.11.8-.5 2-.35 2.47.52 1.66M49.4 36.35c.35-.5.36-.83.02-.83-.26 0-.82.9-.82 1.34 0 .31.42.04.8-.5m12.32-1.6c0-.21-.24-.36-.4-.24a.2.2 0 0 0-.06.24c.1.19.46.19.46 0m4.14-.66q.78-.26 1.02-1.97l.25-1.67c.06-.43.18-1.02.26-1.32s.15-.75.15-.99.1-.65.21-.9q.4-.91-.53-2.15c-.24-.31-.61-.85-.83-1.19-.48-.75-.4-.65-1.45-2.15-.62-.9-.9-1.2-1.11-1.17s-.3.18-.32.6c-.03.3-.1.62-.18.71-.07.1-.18.8-.25 1.56-.17 1.77-.35 3-.51 3.5-.07.2-.2 1.01-.29 1.79a45 45 0 0 1-.63 3.96c-.22 1.14-.14 1.36.52 1.46.76.12 3.26.07 3.69-.07m-6.16-.23c.1-.13.23-.6.29-1.05.22-1.73.37-2.72.58-3.92.31-1.71.57-3.42.68-4.44.05-.47.27-1.53.48-2.36.22-.82.4-1.61.4-1.75q0-1-1.58 1.73c-.34.58-.84 1.36-1.1 1.74-.28.37-.79 1.1-1.14 1.63l-.82 1.19c-.1.13-.38.55-.6.95-.23.39-.78 1.2-1.21 1.8-2.11 2.95-2.89 4.23-2.65 4.4.08.05 1.32.12 2.76.15s2.64.08 2.67.12c.16.18 1.08.04 1.24-.19m1.36 0c.1-.13.2-.57.22-.97s.1-.97.17-1.27q.37-1.46.55-2.88c.35-2.74.43-3.31.55-3.67.07-.22.18-.99.25-1.72.19-2.01.34-2.67.74-3.06.2-.2.44-.32.54-.27.17.08.75.86 2.09 2.85 1.12 1.67 1.66 2.36 1.85 2.36.4 0 .21-.67-.44-1.56a50 50 0 0 0-2.83-3.63c-.32-.3-.42-.65-.21-.8.06-.04.38.02.71.14 2.56.93 3.54 1.2 3.7 1.01.28-.32-.14-.68-1.15-.97a5 5 0 0 1-1.13-.44c-.07-.08-.3-.15-.5-.15s-.42-.1-.5-.21c-.1-.12-.45-.25-.8-.29a10 10 0 0 1-1.6-.4l-1.75-.57c-.45-.14-.9-.32-1.02-.39a3 3 0 0 0-.68-.23c-.25-.06-.8-.24-1.2-.4a33 33 0 0 0-2.65-.87c-.48-.13-.77-.36-.67-.55.07-.13 2.14-.1 7.54.1 2.63.1 2.94.06 2.5-.37-.18-.17-2.62-.33-9.98-.64a93 93 0 0 1-4.01-.24q-.84-.1-.93.08c-.17.31.23.56 1.5.92.66.2 1.33.44 1.48.55.15.1.45.24.68.29.67.16 2.68.82 3.08 1.01.21.1.47.19.57.19.37 0 1.4.61 1.55.92.3.65-.26 1.43-2.02 2.78a122 122 0 0 0-6.53 5.5c-.8.72-1.05 1.03-1.05 1.32 0 .64.22.58 1.09-.27.46-.45.93-.89 1.05-.98s.74-.64 1.39-1.24 1.64-1.48 2.22-1.95c1.64-1.34 2.39-1.97 3.02-2.51.76-.66 2.43-1.84 2.64-1.87q.55-.08.45.23c-.08.26-2.17 3.47-2.54 3.91-.15.18-.64.91-1.1 1.64-.45.73-1.3 2.01-1.89 2.85a142 142 0 0 0-3.32 4.91c-.46.7-.85 1.38-.85 1.52 0 .45.45.18.92-.55 1.23-1.89 2.82-4.24 3.16-4.67.2-.24.78-1.1 1.54-2.27.1-.17.6-.88 1.08-1.58s.88-1.33.88-1.38c0-.06.23-.44.52-.83.5-.73.68-1 1.31-2.09.19-.32.51-.68.73-.81.35-.2.41-.2.56 0 .13.18.13.32.02.58-.08.19-.17.6-.21.9a6 6 0 0 1-.48 2.06c-.08.1-.15.37-.15.6 0 .25-.09.95-.2 1.58-.1.62-.29 1.83-.41 2.69-.13.86-.28 1.77-.34 2.03-.07.25-.23 1.2-.38 2.1-.2 1.24-.23 1.69-.1 1.9.18.35.53.37.77.04m-9-1.48 1.14-1.76c.54-.9 1.47-2.27 2.12-3.16.4-.54.72-1.04.72-1.12s.1-.24.22-.35c.13-.12.47-.6.77-1.07s.6-.93.69-1.02.6-.86 1.16-1.71c.56-.86 1.15-1.74 1.32-1.95.3-.4.4-.78.19-.78-.24 0-1.77 1.24-4.93 3.99l-2.57 2.21c-.24.2-.68.6-.98.9l-1.36 1.3-.83.77-.1 2.43c-.04 1.34-.05 2.5 0 2.6.04.07.4.14.79.14h.7zm-5.39.92c.08-.11.18-.76.22-1.45l.08-1.3c0-.02.18-.23.4-.46.49-.52.68-1.24.36-1.35l-.4-.15c-.16-.05-.15-.29.07-1.36.53-2.63.64-3.35.71-4.61.04-.71.04-1.4 0-1.52-.14-.42-.33-.25-.33.3 0 .3-.05.58-.13.63s-.17.44-.22.87-.14.81-.2.86c-.07.04-.12.34-.12.65 0 .32-.09.86-.2 1.2-.1.35-.3 1.2-.42 1.88s-.32 1.5-.44 1.83l-.21.58-3.19.02-5.1-.01c-1.17-.02-1.95.04-2 .13-.05.1.13.2.42.26s.71.17.96.25c.24.09 1.64.15 3.11.13 4.37-.04 4.77-.02 4.77.22 0 .12-.35.38-.78.57-.92.42-1.12.58-1.12.89s1.02.14 1.5-.25c.6-.51 1.24-.83 1.36-.7.06.08.15.5.2.92.1 1.03.15 1.16.37 1.16.1 0 .26-.09.33-.2m-1.19-.68c0-.5-.02-.54-.3-.45-.17.06-.45.21-.63.34-.32.23-.32.25-.08.46.14.11.43.2.63.2.35 0 .38-.04.38-.55m2.29.35c.08-.12.14-.67.13-1.24q-.05-1.74-.6-.82c-.17.3-.18.45-.06.7.09.2.12.54.07.8-.13.69.13 1.01.46.56m-4.55-1.45q.1-.1.07-.25c-.06-.2-2.69-.33-3.6-.19-.67.1-.74.32-.13.43.25.04.84.21 1.32.38.87.3.9.3 1.55 0 .37-.16.72-.33.79-.37m-3.02-2.08c3.98 0 5.29-.05 5.46-.2.22-.18.34-.73.59-2.53.04-.34.15-.72.22-.83s.19-.5.24-.86l.26-1.66c.08-.56.3-1.54.48-2.18.58-2.07 1.14-5.51 1.05-6.5-.08-.85-.09-.87-.68-1.16-.93-.46-1.08-.42-2.76.85l-3.13 2.34c-.87.65-1.65 1.19-1.72 1.19s-.51.31-.96.7c-.46.39-.87.7-.92.7-.1 0-2.58 1.83-3.13 2.3a68 68 0 0 1-4 2.85c-.04 0-.34.24-.66.54s-.61.55-.66.55c-.12 0-1.3.93-1.38 1.1-.05.08-.2.15-.33.15s-.32.1-.42.24c-.33.45.03.73 1.37 1.1 1.51.4 4.05 1.26 4.17 1.4.05.05.44.05.88 0s3.15-.1 6.03-.1m-14.37-3.78.82-1.52c.1-.22.27-.5.37-.64s.2-.3.2-.35.19-.4.42-.79c.36-.58.43-.87.47-1.76l.13-2.13a4 4 0 0 0-.04-1.21c-.1-.12-.83.42-1.8 1.31-.27.26-2.38 2.06-4.73 4.05-3.2 2.72-3.3 2.87-2.16 3.3 1.4.52 2.84.77 4.9.84l.78.03zm2.96.08c-.08-.1-.63.31-.63.46 0 .07.16 0 .35-.13.18-.15.31-.3.28-.33m-.51-.59 1.28-1c.7-.55 3.36-2.56 3.54-2.66l1.97-1.46a763 763 0 0 1 6.3-4.74c.71-.54 1.32-.98 1.36-.98s.27-.17.51-.39c.24-.21.5-.39.56-.39.18 0 .74-.66.74-.87 0-.22-.42-.37-2.17-.77-2.13-.48-2.9-.67-4.33-1.05-.98-.25-1.55-.33-1.83-.24-.44.13-.98.78-1.37 1.65q-.38.87-2.64 4.76c-.43.75-.79 1.4-.79 1.43s-.33.63-.74 1.33-.75 1.3-.75 1.33-.17.36-.39.73l-.9 1.6a8 8 0 0 1-.63 1.03c-.18.14-.66 1.23-.54 1.23.05 0 .42-.24.82-.54m1.17.23q.06-.13-.06-.15-.13.02-.14.15 0 .15.06.16.06-.01.14-.16m.93-.66c.3-.2.6-.44.67-.55.05-.1.16-.19.23-.19s.25-.14.4-.31c.52-.6-.06-.32-1.02.48-.52.44-.97.82-1 .86-.15.17.22.02.72-.29m38.27-2.19c.27-1.16.18-1.67-.3-1.67-.14 0-.46-.1-.7-.21a8 8 0 0 0-1.94-.57c-.3 0-.24.18.31.88.28.35.84 1.1 1.25 1.67s.83 1.02.93 1 .3-.5.45-1.1M29.2 19.56c.15-.38.28-3.3.15-3.45-.04-.05-.17.05-.3.21-.33.42-.5 3.6-.2 3.6.12 0 .27-.16.35-.36m40.27-1.04.18-1.35c.08-.74.07-.76-1.23-1.28-.73-.3-1.3-.34-5.8-.49a91 91 0 0 0-5.07-.09c-.1.12.66.5 1.6.79.48.15 1.08.37 1.35.48.26.11.8.3 1.21.4s1.05.3 1.42.46c.38.14 1.23.42 1.9.6a9 9 0 0 1 1.48.51c.38.25 2.11.73 2.51.7.29-.02.35-.13.45-.73m-39-1.36.57-1.13c.14-.3.4-.76.58-1.03.18-.26.32-.55.32-.64 0-.1.1-.25.2-.36.23-.21.28-.47.1-.47-.07 0-.62.46-1.22 1.03l-1.1 1.02v1.08c0 .6.05 1.08.11 1.08.07 0 .27-.26.44-.58m17.93-4.33c.16-.46-.17-.67-.76-.49q-.9.27-.24.57c.47.21.92.18 1-.08m-.9-.85c.86-.29 1.72-1.2 1.44-1.52-.04-.04-.42-.1-.84-.12-.67-.03-.88.03-1.57.5-.43.29-.78.56-.78.6 0 .05.06.22.14.39.15.34.83.4 1.6.15M23.75 52.3a64 64 0 0 0-3.33-1.68c-.2-.09-.46-.38-.59-.66-.22-.47-.22-.54-.02-1 .12-.27.22-.65.22-.85s.06-.44.14-.52c.07-.09.19-.47.26-.85.12-.64.31-1.44.9-3.66l.35-1.48c.08-.39.2-.77.26-.85.07-.08.12-.37.12-.63s.09-.62.19-.79.22-.55.25-.85c.04-.3.14-.77.22-1.05.37-1.24.46-1.55.52-1.91.03-.22.11-.53.17-.7.06-.18.2-.7.31-1.17 1.04-4.22 1.31-4.7 1.5-2.58l.18 1.95c.04.39.1 2.2.13 4.04s.1 3.44.16 3.58.13 1.43.15 2.87.1 3.2.17 3.9.15 2.07.2 3.03c.1 2.79-.23 3.04-2.46 1.86m1.85-1.42a10 10 0 0 0-.12-1.54 5 5 0 0 0-.97-.6l-2.81-1.47c-.86-.45-.85-.45-.86-.02 0 .2-.08.54-.18.77-.24.53-.39 1.56-.26 1.77.06.1.44.33.85.52l1.63.83 1.35.7c.26.13.56.3.68.37.1.07.32.12.47.1.24-.03.26-.14.22-1.43m-.1-2.56c.11-.2-.33-.6-.94-.85a18 18 0 0 1-2.94-1.64c-.22-.21-.27-.21-.37-.02-.07.13-.13.28-.13.34 0 .13 1.77 1.1 3.04 1.69.45.2.87.42.94.5q.26.24.4-.02m-.05-1.81v-.7h-1.08c-.59 0-1.11.07-1.16.15-.04.09.28.33.7.55.44.21.88.45 1 .53.41.3.54.19.54-.53m-.16-1.41c.03-.03.02-.17-.03-.32-.08-.22-.23-.24-1.2-.13-1.67.19-1.92.18-1.96-.1-.03-.16.41-.49 1.48-1.09.96-.53 1.54-.95 1.57-1.12q.03-.25-.15-.27c-.32 0-3.34 1.69-3.4 1.9-.03.11-.1.47-.14.8l-.1.6 1.95-.1a21 21 0 0 0 1.98-.17m-.2-1.1c.32-.14.27-.53-.06-.53-.27 0-1.07.4-1.07.55 0 .1.88.09 1.14-.02m-1.35-2.09 1.47-.82-.1-1.89-.3-5.44c-.07-1.22-.24-1.56-.39-.78-.04.24-.34 1.45-.67 2.7a67 67 0 0 0-.67 2.76c-.05.28-.15.54-.21.6-.07.04-.13.21-.13.37 0 .3-.3 1.5-.62 2.56-.17.57-.15.95.05.82zm-5.5 7.26c-.23-.26-.32-3.16-.46-14.35-.08-6.76-.07-7.35.14-7.55.18-.17.33-.18.73-.05.28.1.9.22 1.38.27.49.05 1.52.22 2.29.37 1.88.36 2.22.82 1.7 2.31-.18.57-.6 2.28-.9 3.79-.08.38-.19.77-.24.86-.06.08-.14.45-.2.82-.04.37-.13.79-.2.94-.2.5-.55 1.86-.56 2.23 0 .2-.09.55-.2.76-.1.22-.2.6-.2.86s-.09.67-.2.91c-.11.25-.2.62-.2.83s-.08.54-.16.72c-.09.2-.2.6-.26.9a28 28 0 0 1-.33 1.47c-.12.52-.28 1.25-.34 1.64a6 6 0 0 1-.77 2.22c-.26.33-.76.36-1.02.05m.81-.75c.08-.2.18-.58.23-.86.06-.45.04-.5-.26-.5-.6 0-.88.9-.46 1.5.21.3.32.27.5-.14m.5-2.33c.32-.53.06-.64-.65-.29s-.72.63-.02.63q.47.01.67-.34M19.41 45l.35-.23c.04-.04-.23-1.1-.69-2.64-.07-.25-.18-.67-.23-.92s-.16-.48-.25-.52c-.25-.1-.24 4.27 0 4.38.28.13.51.11.82-.07m.96-1.8c.05-.22 0-.76-.1-1.2a105 105 0 0 1-1.04-4.78c-.32-1.8-.5-2.56-.65-2.61-.12-.05-.16.36-.16 1.47 0 1.27.07 1.78.4 2.94l.81 3c.23.88.48 1.6.54 1.6s.16-.19.2-.42m.68-3.13c.23-1 .5-2.06.81-3.27.12-.44.21-.94.21-1.1s.1-.43.2-.6.2-.54.21-.84.1-.72.2-.94.2-.55.2-.75c0-.38.35-1.74.57-2.24a3 3 0 0 0 .11-.9c0-.55-.04-.63-.37-.72a10.1 10.1 0 0 0-1.73-.39c-.44-.06-1.26-.2-1.8-.3-1.44-.25-1.43-.26-1.34 1.45.04.79.16 1.75.27 2.14s.34 1.4.5 2.26c.18.86.36 1.7.41 1.87.17.53.44 1.83.54 2.57.05.39.16.86.25 1.05.09.18.16.62.16.97 0 .98.34.83.6-.26m47.24 8.78a1 1 0 0 0-.63-.24c-.68-.01-.68-.06-.52-5.46.08-2.76.2-5.2.28-5.41.07-.22.09-.84.04-1.37-.1-1.16.06-1.58.94-2.4.31-.29 1.08-1.1 1.72-1.8 1.96-2.15 3.26-3.55 4.6-4.93.7-.72 1.88-2 2.63-2.82 1.8-1.98 2.3-2.48 2.53-2.48.1 0 .4.24.64.53l.44.52-.15 1.21a9 9 0 0 1-.23 1.36c-.04.09-.13.55-.2 1.04a60 60 0 0 1-.8 4.78c-.08.42-.2 1.23-.27 1.78a4 4 0 0 1-.26 1.16c-.08.09-.14.46-.14.84s-.07.83-.15 1c-.09.19-.2.73-.27 1.2-.06.48-.2 1.4-.33 2.05l-.4 2.33a85 85 0 0 1-.8 4.4c-.1.47-.02.44-4.07 1.68-1.42.43-2.76.85-2.98.93-.87.31-1.35.34-1.62.1m1.69-.8c.4-.14.99-.31 1.28-.38.88-.22 1.75-.5 2-.64.13-.08.39-.14.57-.14.19 0 .34-.06.34-.13 0-.13-.45-.3-1.62-.63L71 45.7c-.66-.19-.99-.22-1.14-.1-.2.14-.71 1.06-1.13 2.03-.2.45-.05.89.26.78zm-1.93-.42c.16-.23 2.33-4.49 2.33-4.58 0-.04.73-1.48 1.22-2.4l.52-1.09c.22-.47 1-2.01 1.72-3.43a242 242 0 0 0 3.39-6.78c.2-.43.46-.96.58-1.17s.43-.87.7-1.46c.27-.63.72-1.34 1.1-1.72.66-.7.86-1.15.73-1.73-.1-.44-.41-.6-.76-.39-.3.18-.35.77-.11 1.05.12.13.01.46-.43 1.32-.32.62-.62 1.17-.67 1.21s-.35.57-.67 1.17c-.31.6-.87 1.62-1.23 2.26-.37.65-.73 1.31-.8 1.49-.36.81-1.19 2.02-1.38 2.02-.12 0-.6-.55-1.08-1.23-.91-1.3-1.15-1.52-1.28-1.12-.07.19.52 1.23 1.02 1.8l.51.74c.48.71.54 1.06.26 1.53-.1.17-.63 1.22-1.17 2.34l-1.33 2.72c-.19.4-.57 1.15-.86 1.68-.28.54-.52 1.01-.52 1.05s-.27.6-.6 1.26c-.34.65-.62 1.21-.62 1.25 0 .03-.24.52-.54 1.09-.5.93-.58 1.31-.28 1.31.06 0 .18-.08.25-.19m7.88-1.44c.41-.26.34-.3-1.42-.68-.3-.07-.67-.2-.84-.3s-.5-.2-.77-.2c-.26 0-.5-.06-.55-.13-.04-.08-.33-.2-.65-.26a3 3 0 0 1-.8-.24c-.27-.17-.65-.03-.65.23 0 .22.75.56 1.23.57.18 0 .5.1.71.23.22.13.52.23.67.23s.47.07.7.15c1.96.71 1.9.7 2.37.4m-7.99-.62c.2-.42.1-.92-.16-.83-.2.08-.32 1.21-.13 1.21.06 0 .2-.17.3-.38m8.67-.6c0-.18.09-.62.2-.97.1-.34.2-.88.2-1.2 0-.33.07-.72.16-.88a1 1 0 0 0 .07-.56c-.07-.22-.2-.25-.6-.18-.28.05-1.47.2-2.66.33a11 11 0 0 0-2.33.4c-.1.1-.33.5-.53.89-.34.66-.35.72-.13.9.19.17 2.4.86 4.67 1.47.82.22.95.19.95-.2m-7.99-.95c0-.2-.38-.4-.77-.4-.26 0-.2.43.06.51q.7.2.71-.1m.75-1.33c.27-.61.26-.63-.17-.63-.71 0-1.41.2-1.48.41-.1.3-.01.38.53.52.76.21.9.17 1.12-.3m-.16-1.28c1.44-.33 1.18-.89-.33-.72-.7.08-1.17.42-1 .73.1.21.37.21 1.33 0m5.57-.6c2.3-.2 2.51-.28 2.72-.95.1-.3.18-.75.18-1.02 0-.4-.05-.51-.32-.59-.19-.05-.6-.51-.98-1.07l-1.04-1.58c-.18-.3-.63-.26-.63.05 0 .16 1.04 1.53 1.8 2.37.3.33.37.56.37 1.12 0 .39-.08.77-.18.87s-1.1.24-2.23.32-2.12.2-2.2.24c-.07.06-.13.21-.13.35 0 .19.1.22.44.14.24-.06 1.23-.18 2.2-.26m-5.17-.7 1.05-.1.37-.73c.6-1.17.61-1.2 1.24-2.48.94-1.9 1.09-2.26.99-2.45-.05-.1-.48-.75-.96-1.46l-.87-1.3-.42.44-2.48 2.63-.57.61-.09 2.3c-.1 2.41-.01 2.86.47 2.7.12-.03.69-.1 1.27-.16m5.28-.48a4 4 0 0 0 1.4-.25c.16-.32-.11-.88-.93-1.89a6 6 0 0 0-1-1.05c-.08 0-.27.3-.44.67a20 20 0 0 1-1.1 2.2c-.23.34-.03.6.38.5.2-.04.96-.13 1.69-.18m3.07-1.98c0-.19.49-3.04.89-5.18a117 117 0 0 0 .6-3.46c.06-.45.17-1.05.25-1.33s.17-.83.22-1.2c.04-.39.15-.8.23-.9q.16-.22-.06-.2c-.3 0-.56.44-1.82 3.11l-.43.86-.69 1.4c-.25.52-.6 1.2-.77 1.52s-.31.62-.31.66-.16.37-.34.7c-.43.8-.43 1 .06 1.7.23.3.69.97 1.03 1.46.37.54.72.9.88.9.14 0 .26-.02.26-.04M74.6 32.2c.09-.19.56-1.05 1.05-1.9.48-.86 1-1.81 1.14-2.11s.34-.66.44-.8c.1-.13.19-.28.19-.33s.34-.68.74-1.39q1.75-3.1-.6-.59c-.56.6-1.45 1.52-1.97 2.05a39 39 0 0 0-2.9 3.2c0 .04.16.3.37.59l.75 1.07c.44.66.56.7.79.21M16.46 48.45c-1.24-.76-1.19-.65-1.12-2.07.08-1.53.24-3.33.92-10.4.08-.8.2-2.35.27-3.42.13-1.93.23-2.33.54-2.1.12.08.15.84.11 2.86-.02 1.5 0 2.82.05 2.9.05.1.1 2.94.12 6.32.02 5.13 0 6.16-.16 6.2-.1.02-.43-.11-.73-.3m.54-1.56c0-.33-.57-.37-.98-.06-.33.25-.34.28-.11.47.2.17.32.17.67 0 .23-.1.42-.29.42-.41m-.2-1.17c.3-.4.1-6.58-.2-6.66-.09-.02-.18.62-.23 1.54-.04.87-.12 1.65-.16 1.73s-.11.94-.15 1.9l-.07 1.73h.32c.17 0 .4-.1.5-.24m61.3-.51c0-.27.11-1.06.25-1.77s.26-1.4.26-1.53c0-.25.16-1.2.5-3.2.12-.68.28-1.79.35-2.45s.18-1.35.26-1.51c.07-.17.14-.62.14-1 0-.4.06-.9.15-1.15s.2-.93.26-1.53c.2-1.93.42-3.41.54-3.68.07-.15.13-.58.13-.96s.09-1.03.2-1.45.2-.96.2-1.2c0-.8.22-1.05.9-1.05.84 0 1.98.36 3.8 1.19.83.37 1.54.68 1.58.68.1 0 1.5.73 2 1.03.2.12.45.22.56.22.1 0 .27.1.35.21.2.29.22 5.83.02 6.96-.09.47-.2 1.92-.27 3.22-.06 1.3-.19 2.51-.28 2.7-.1.23-.13.64-.07 1.1.09.8 0 1.25-.24 1.24-.15 0-.95-1.8-2.26-5.06-.7-1.74-1.67-4.07-3.04-7.33-1.54-3.64-2.1-5.04-2.1-5.23s.39-.08.98.26c.2.12.43.22.52.22.08 0 .34.1.58.21.23.12.88.41 1.44.64a80 80 0 0 1 3.47 1.52c.15.08.4.12.54.09.18-.05.06-.16-.42-.42-.91-.48-4.49-2.1-5.08-2.31l-1.24-.44c-1.49-.52-1.52-.11-.26 2.91.45 1.09.83 2.02.83 2.08 0 .05.28.78.62 1.61a246 246 0 0 1 3.43 8.76l.58 1.54c.28.64.2 1.58-.15 1.9-.18.17-.43.3-.57.3s-.7.17-1.24.38-1.35.49-1.8.63l-1.35.47-1.35.47c-.45.14-.94.32-1.08.38-.58.27-1.65.63-2.14.72-.5.1-.5.1-.5-.37m1.51-.56c.57-.3 3.45-1.3 3.9-1.37.18-.02.35-.15.37-.28.04-.19-.36-.36-1.75-.76a27 27 0 0 0-2.34-.6l-.55-.07-.16.91c-.43 2.44-.38 2.63.53 2.17m6.3-2.3c-.02-.1-.53-.3-1.12-.46-.6-.15-1.35-.36-1.69-.46s-.82-.23-1.08-.28-.49-.2-.5-.34c-.04-.19.2-.28 1.14-.43 1.85-.31 2-.35 1.78-.51-.1-.08-.36-.1-.56-.05a23 23 0 0 1-2.44.12l-2.06.03-.04.39c-.03.33.05.42.63.65.37.15.84.28 1.06.28s.47.08.56.18c.08.1.45.24.8.3 1.1.2 2.13.47 2.34.62.3.2 1.25.18 1.19-.04m1.97-1.15c-.05-.8-.29-.91-1.46-.71-.56.1-1.44.17-1.93.18h-.91l.34.3c.19.18.55.31.83.31s.67.09.88.19c.54.25 1.54.4 1.94.27.27-.07.33-.18.3-.54m-1.25-1.33q.71-.18.55-.34c-.2-.22-2.34.05-2.42.31-.07.25.9.27 1.87.03m-3.8-.6 2.85-.3c1.26-.1 1.28-.1 1.24-.49-.02-.21-.2-.8-.42-1.32s-.5-1.24-.63-1.6c-.14-.37-.28-.67-.33-.67-.07 0-2.52 2.2-3.45 3.1l-.85.78c-.63.57-.74.88-.27.75.17-.04 1-.16 1.86-.26m-.98-1.85 2.7-2.45c.73-.65.97-1.13.64-1.27-.24-.1-.26-.09-2.51 2.05s-3.15 3.12-3.03 3.34q.08.16.14.17c.04 0 .96-.83 2.06-1.84m7.72 1.28.15-2.48c.06-1.12.18-2.23.26-2.47.22-.61.21-2.91 0-2.9-.24 0-2.87 2.47-2.93 2.73-.02.11.35 1.14.83 2.28l1.13 2.73c.28.74.5.79.56.11m-8.92-1.78a76.7 76.7 0 0 0 2.05-1.95c.7-.7 1.46-1.4 1.67-1.56.47-.35.44-.6-.26-2.34l-.8-2.02q-1.38-3.5-1.56-3.51c-.07 0-.16.16-.2.35l-.14.82c-.1.62-.44 3-.6 4.36-.08.6-.2 1.26-.28 1.45-.07.2-.13.62-.13.94s-.07.82-.15 1.12-.16.92-.2 1.37c-.02.45-.08.96-.13 1.13-.12.45.16.38.73-.16m8.1-5.9c1.17-1.1 1.4-1.38 1.4-1.76 0-.25-.04-.45-.08-.45-.07 0-2.22 1.98-2.37 2.18-.03.05-.32.32-.64.6-.53.48-.7.91-.48 1.17.12.15.55-.2 2.17-1.73m-1.38-.5 1.86-1.8c.5-.47.91-.92.91-1 0-.2-.42-.4-2.76-1.4a55 55 0 0 1-2.1-.93c-.12-.07-.6-.27-1.06-.45-1.03-.4-1.08-.28-.42 1.07a199.24 199.24 0 0 0 1.6 3.9c.47 1.15.7 1.55.85 1.55.1 0 .6-.42 1.12-.94m18.01 6.24a6 6 0 0 1-.84-.21c-.24-.11-.24-.72 0-1.38.1-.28.3-.83.42-1.21.13-.39.28-.83.35-.97s.12-.35.12-.45.09-.4.19-.66c.22-.61.58-1.65.68-2.01.08-.32.56-.37.66-.07.14.42.1 6.5-.04 6.8-.16.35-.42.37-1.54.16m.87-1.13c0-.27.04-1.11.08-1.85.04-.87.01-1.39-.08-1.45q-.14-.08-.23.18c-.21.7-.77 2.35-.95 2.81-.26.67-.15.82.57.82.59 0 .6-.01.61-.5m-3.16.64-.75-1.41c-.3-.58-.56-1.09-.56-1.14s-.25-.52-.55-1.04a29 29 0 0 1-.96-1.83c-.22-.48-.52-1.08-.66-1.34-.3-.56-.33-.95-.09-1.05.1-.05.81.01 1.59.13.78.11 1.98.23 2.67.27 1.67.09 1.76.19 1.4 1.53-.51 1.8-.54 1.93-.63 2.52-.05.32-.15.62-.22.67-.06.05-.12.26-.12.48s-.07.54-.16.73c-.1.18-.23.65-.3 1.03q-.25 1.2-.66.45m.54-1.93c.1-.42.25-1.08.32-1.47s.2-.76.27-.85.13-.35.13-.6c0-.24.1-.65.21-.91.3-.65.18-.87-.5-.96l-2.11-.28c-1.04-.14-1.57-.15-1.67-.04q-.15.14.85 2.05l1.12 2.17c.66 1.31.93 1.76 1.05 1.72.08-.03.23-.4.33-.83m-35.9-1.38c-.04-.12.03-.77.15-1.44l.33-1.93c.06-.38.18-.9.25-1.17.08-.25.28-1.17.44-2.02.53-2.88.7-3.74.84-4.37.22-1 .51-2.44.64-3.2.16-.93.35-1.8.46-1.98.16-.3.62-.32 1.13-.04.28.16 1.18.61 2 1.01s1.85.92 2.3 1.16 1.03.53 1.29.64q1.9.79 1.49 1.85c-.14.39-2.18 2.7-3.6 4.07l-1.62 1.7c-1.1 1.2-3.82 4.1-4.95 5.28q-.96 1.02-1.15.44m1.67-1.84c.47-.54.85-1.03.85-1.1 0-.15-.95-1.58-1.1-1.65-.07-.03-.12.1-.12.28s-.07.48-.15.66-.2.68-.26 1.12-.16 1-.2 1.23c-.06.23-.05.43.02.43.06 0 .5-.44.96-.97m1.65-1.75c.13-.18.01-.45-.62-1.4a4 4 0 0 0-.93-1.13c-.25.09-.21.66.08 1.05.16.2.48.68.7 1.04.46.73.53.77.77.44m2.36-2.47 2.22-2.34q.9-.92.34-.9c-.13 0-.42-.1-.63-.23a2 2 0 0 0-.58-.23c-.2 0-1.34-.38-1.87-.62a7 7 0 0 0-2.1-.53l-.59-.02-.03.67c-.02.37-.09.75-.16.86s-.17.5-.2.89c-.05.38-.12.84-.17 1.01q-.08.31.33.86c.23.3.45.67.5.82.03.15.12.27.18.27s.27.28.48.62c.2.35.43.63.5.63s.87-.8 1.78-1.76M77 23c0-.12-.25-.3-.57-.42-.81-.28-1.75-.58-2.06-.67l-1.94-.64a7 7 0 0 0-1.81-.47c-.2.14.4.68.75.68.14 0 .54.11.88.24 1.58.6 4.17 1.46 4.45 1.47.17 0 .3-.08.3-.2m1.21-1.27c.27-.32.4-.6.35-.72a4 4 0 0 0-1.07-.7 95 95 0 0 0-3.67-1.87c-.6-.29-1.33-.67-1.65-.84a3 3 0 0 0-.7-.32c-.23 0-.53 1-.58 1.87-.05.92-.06.9 1.18 1.32l1.15.4 1.15.38c.44.14 1.23.42 1.75.62 1.33.5 1.56.5 2.1-.14m26.33 6.46c-.37-.07-1.36-.17-2.19-.24-1.21-.09-1.57-.17-1.8-.41-.34-.37-.35-1-.02-1.58.39-.67 6.8-7.75 7.03-7.75.17 0 .18.18.1 1.05-.04.58-.14 1.9-.2 2.93a28 28 0 0 1-.26 2.57c-.08.39-.14 1.21-.15 1.84 0 1.6-.1 1.75-1.06 1.72-.42 0-1.08-.07-1.45-.13m1.94-.9c.06-.15.12-.93.14-1.74 0-.81.08-1.87.15-2.34.07-.48.17-1.45.22-2.15.07-1.04.06-1.29-.1-1.29-.1 0-.9.8-1.77 1.76-4.4 4.85-4.59 5.1-4.12 5.55.21.2 2.3.43 4.11.46 1.07.02 1.27-.01 1.37-.25m-85.23-6.32c0-.12.26-.52.58-.9.75-.9 4.63-5.65 6.53-8 1.65-2.03 2.17-2.43 3.15-2.43.7 0 1.54.49 1.62.95.02.14-.36.6-.95 1.13l-2.12 1.94-2.73 2.45-3.62 3.23c-1.95 1.75-2.46 2.09-2.46 1.63m5.83-5.4 1.17-1.1c.2-.2.22-.76.06-1.06-.12-.2-.33.03-2.63 2.87-.43.52-.77 1-.77 1.06 0 .15.99-.65 2.17-1.77m2.26-2.07c.23-.26.22-1.53 0-1.53-.2 0-.48 1.02-.4 1.45q.07.47.4.08m1.15-1.08c.16-.1.36-.26.44-.35.09-.1.44-.42.78-.72s.63-.62.63-.72c.01-.43-1.45-.5-1.88-.1-.22.21-.3.48-.32 1.17-.02.5-.02.9.01.9s.18-.08.34-.18m72.9 4.13c0-.07.27-.76.6-1.53.33-.78.78-1.86 1-2.42.5-1.21.83-1.77.83-1.39 0 .3-.28 1.07-.73 1.93-.18.35-.4.8-.48 1.02-.6 1.56-1.22 2.77-1.22 2.39" style="fill:#000"/></svg>