<svg xmlns="http://www.w3.org/2000/svg" xml:space="preserve" width="192" height="122" viewBox="0 0 192 122"><path d="m113.5 97.9-.3-1.2q0-1.3-.7-.3-.4.5-.8-.2c-.4-.5-.4-.6.1-1.3l.6-.7-.6-.7q-1-1.5.6-1.3.9.4.9-.7c0-1 1-1.2 1.2-.2q.2 1.9.7 1.2c.9-1.1 1.7 0 .8 1.2-.4.6-.3.6.2 1q.5.3.5 1c0 .8-.7 1.2-1.1.7q-1-1-1 .6-.3 1.8-1 .9m-5.3-7q-1.7-1.6-2.6-1.7-.7 0-1.7-1.5c-1-1.8-1.1-2-.4-2 .9 0 3 1.2 3 1.7a8 8 0 0 0 2 2.3c2.3 2 2.4 2.2 2 2.6q-.4.5-2.3-1.4m-38-7q-.5-.6-1-2c-.4-1.2-.4-1.5 0-2.6q.6-2.5 2-2.5 1.8 0 1.8 3.7c0 1.8 0 2.2-.7 3q-1 1.4-2.1.3m1.3-1 .2-2.5q0-2.1-.5-2.1-.7-.7-.8 1.7c-.2 2.3.6 4.3 1.1 2.8m13 .8q-.1-.5.7-1.7c1.2-1.8 1.4-2.6.9-3.4-.4-.6-.4-.6-1 .2q-.5.9-.8.4c-.5-.6.6-2.2 1.6-2.3q.8-.1 1.4.8c.7 1.1.7 1.7-.1 3.1-.9 1.5-.9 1.6 0 1.6q.8-.1.6.7.2.8-1.6.8-1.5 0-1.7-.2m31.2 0c-1.3-.5-1.8-2.8-1-4.8q.7-1.8 2.4-2.2.7-.3.7.3t-.7.8q-1.2.6 0 1.3.7.4 1.1 1.3c.4.9.4 1 0 2q-.8 2-2.5 1.4m1.2-1.5c.2-1 0-1.9-.6-1.7q-.6 0-.4 1c.1 1.7.7 2.1 1 .7m13.4 1.3q-1-1-.3-2.8.3-.7 0-1t-.3-1.4q-.1-1 .7-1.4 1.4-1 2.2.4c.7.9.7 1.1.2 1.9-.5.5-.5.6 0 1.4q.8 1.4-.2 2.7-1 1.2-2.3.2m1.5-1.5q0-.6-.5-.6-1 .1-.2 1.2.6.7.7-.6m-.2-3.7q0-.3-.3-.4-.2 0-.3.4t.3.4.3-.4m16.1 5.3c-1.3-.9-1.7-4.2-.7-6q.8-2 2-1c2.2 1.3 2.3 5.9.2 7-.8.5-.9.5-1.5 0m1.3-3.4c0-2 0-2.2-.6-2.2-.4 0-.5.2-.6 1.9q0 1.8.3 2.3.9 1.5.9-2m-47.7 3.2v-.7q-.1-.5-1.1-.7t-1.2-.4c-.1-.6 2.6-4.8 3-4.7l.4 1.8c0 .8.2 1.9.4 2.3q.3.8 0 1.1-.4.4-.4 1c0 .5-1 .9-1 .3m0-3.4c-.3-.5-1 .2-.6.7q.2.5.5 0 .5-.4.2-.7m42.3 1.8c0-1 .2-2.2.3-2.5q0-.7-.4-1.2-.7-1.2.8-1.3h.8v2.4l.1 3.4c.2 1 .2 1-.8 1h-1zm-50-9.2-.1-7-.1-6.4-.9-.3c-1.7-.5-2 0-2 3.7q-.3 6.5-.8 0v-3.4l-1.2-.3c-1.7-.4-1.8-.2-1.8 7 0 5-.1 6.6-.4 6.7-.3 0-.3-1.4-.3-6.4 0-7 0-7-1.5-7.4-1.3-.4-1.5.2-1.5 4.3 0 2.9 0 3.7-.3 3.6q-.4 0-.5-3.8l-.1-3.7-1.1-.3c-1-.3-1.1-.2-1.6.4s-.5 1.4-.5 6.5c.1 7 .1 6.7-.2 6.3-.2-.2-.3-3-.4-6.6v-6.3l-1-.2q-1-.1-1.3.1a16 16 0 0 0-.3 4q0 5-.8 3.9l-.3-4-.1-3.8-1-.2c-1.8-.4-1.8-.2-1.8 7 0 6.2-.3 8.4-.7 4.6L71 64c0-2.7-.2-4.7-.3-4.8-.3-.3-10.1-.2-30.6 0-13.5.2-14.2.1-14.4-.4-.1-.3-.2-5.1-.2-10.6 0-7.8 0-10 .3-10.2s.3 2 .3 9.8v10l.8.3 1.5.2.9-.1v-6c.2-3.8.3-6.2.5-6.2s.3 2.4.4 6.1l.1 6.1 1.2.1c2 .2 2 .1 2-6.7 0-4.6 0-6 .3-5.8.2 0 .3 1.6.4 6 0 3.5.2 5.9.4 6.1.4.6 2 .6 2.4-.1.4-.5.4-1.3.3-5.6 0-5 0-6.3.5-6 .1.1.2 2.7.2 5.8 0 5.3 0 5.7.5 6q1.4.7 2.3 0c.4-.4.5-1.3.6-6 0-3 .2-5.5.2-5.6.2-.2.5 9.3.4 10.1q-.2 1.7 1.6 1.7 1.4 0 1.6-1.3v-8c.1-6.6.2-7.4.5-7 .4.3.4 1.6.4 8 0 5.5.1 7.8.3 8q.4.2 1.2.3c1.6.1 1.7-.3 1.7-6.3 0-6.9 0-6.4.4-6q.3.3.2 6c0 4.8 0 5.4.5 5.9.6.7 2.2.6 2.5-.3 0-.3.2-3 .2-6.1s.1-5.6.2-5.7q.6-.9.6 6.3c0 4 .1 5.7.4 6 .4.5 1.9.5 2.5 0 .4-.5.5-1 .4-6q0-5.6.2-5.8t.3 5.4c0 5.1 0 5.7.5 6.2s2 .6 2.7-.1c.4-.4.4-1 .2-6s-.1-5.7.2-5.7.5.7.5 5.9q0 5.9.3 6 .4.2 1.3.3 1.1.2 1.3-.5c.2-.4.3-4.3.3-10.2 0-7.6 0-9.6.4-9.5.2.1.3 2.4.4 10v9.7l.7.3q1.7.6 2.3-.9c.2-.5.3-3 .2-6 0-4.4 0-5.2.3-5.2.4 0 .5 1 .6 6l.1 6h1.2c2 .1 2 .1 1.9-6.3 0-5 0-6.3.4-5.9l.2 6c0 5.1 0 5.7.5 6 .7.5 2.3.4 2.6 0 .3-.6.3-.3.4-6.6 0-4 0-4.8.2-3.4.2 1 .3 3.6.3 5.8 0 4.6 0 4.4 1.9 4.4h1.2l.1-6.1c.1-3.7.3-6.1.4-6.1s.4 2.4.4 6l.2 6.2H83q1.3.2 1.6-.3t.3-8.4q0-7.6.4-7.8c.2 0 .3 3.1.3 8.2 0 4.5.2 8.1.3 8.1l1.1.2c1.7.2 1.7.1 1.7-5.7l.1-6c.5-1.4.7 0 .7 5.4l.1 6h3v-5.8c0-3.2.2-5.8.4-5.8l.3 5.6c0 5 .2 5.6.6 6q.5.3 1.3.2c1.7-.3 1.6.1 1.4-6.3-.2-5-.1-5.9.2-5.7.3 0 .4 1.3.5 5.7.2 6.7.3 7 3 6 .2 0 .3-1.4.2-6 0-3.2 0-6 .2-6q.7-1.1.6 6.2c0 3.3.1 5.6.3 5.8.4.5 2.4.6 2.7 0 .3-.3.3-2.9.2-9.9s0-9.5.3-9.6.3 2.3.4 9.5c0 8.5.1 9.7.5 10 .5.5 2.7.3 2.7-.2v-6c0-4.2.2-5.7.4-5.8s.4 1.3.4 6l.1 6 1 .2c2.4.2 2.3.4 2.2-5.8q-.1-5.6.2-6 .2-.3.4-.2l.2 5.8c0 3.3.2 5.8.3 6 .4.3 2.4.3 2.7 0 .2-.2.3-2.6.3-6 0-7.9.5-7.7.7.1l.1 6h3v-6.2c.1-4.6.2-6 .5-6 .2.2.3 1.8.3 6.2v6h3.2v-8.2c0-6.3.1-8.2.4-8.2.2 0 .3 2 .4 8.2v8.1h3.3V52l.1-6q0-.2.3-.1.3 0 .3 5.8c0 5.8 0 5.8.6 6h2.5v-5.7c0-7.1 0-6.6.4-6.4.3 0 .4 1.7.5 6l.1 6 1 .2 1.5-.1.7-.2v-5.8q-.1-5.7.1-5.8c.5-.2.7 1.4.6 6.4 0 2.7 0 5 .2 5.2.2.4 1.9.4 2.6 0q.6-.3.4-1.4c-.3-1.4.1-10 .4-9.8.1.1.2 2.6.2 5.4 0 3 .1 5.5.2 5.7q.4.4 2.7.1c.3 0 .4-2.4.4-10 0-6.4.2-10 .4-9.9.1 0 .3 3.7.4 9.7 0 5.4.2 9.9.3 10q.2.4 1.3.3c1 0 1.2 0 1.4-1v-5.8c0-3.7 0-5 .2-5.1l.4-.2.3 6 .2 6q.3.3 1.4.3c1 0 1.3 0 1.5-.9.2-.5.3-3 .3-5.9-.1-6-.1-5.7.3-5.2q.3.2.5 6.1l.1 5.7 1 .1c2 .2 2 .1 2-6 0-6.5 0-5.9.4-5.9q.2.2.2 5.6c0 6.4 0 6.5 1.8 6.3 1 0 1-.2 1.3-1.2.1-.6.2-3.4.1-6-.1-4.8 0-6.1.6-5 .2.3.3 3 .3 6s0 5.7.2 5.9q.2.3 1.3.3l1.3-.2s.2-3.6.2-8c0-6 .2-8 .4-8s.4 2 .5 7.8c.1 8.6.1 8.5 1.6 8.5 1.6 0 1.6 0 1.6-6.4q0-5.6.3-5.8.3.1.4 5.6c0 4.8.1 5.9.5 6.4q.4.5.2.9c-.2.1-5.6.3-13.2.4h-13l-.1 3.8c-.1 2.1-.3 3.7-.4 3.7s-.4-1.6-.4-3.7l-.2-3.8h-2.7l-.1 6.6c0 4-.2 6.6-.4 6.6s-.3-2.5-.4-6.6l-.1-6.6h-2.7v3.5c0 1.8 0 3.6-.2 3.8-.4.8-.5 0-.6-3.8v-3.5h-3v6.7l-.3 7.1c-.4 1.2-.5-.6-.7-6.9l-.1-6.9h-1.2c-1.4 0-1.5.3-1.7 4.4V66l-.2-3.4c-.2-3.7-.3-4-2-3.8-1.4 0-1.4.2-1.5 7.8q0 5.7-.3 5.5c-.1 0-.3-2.5-.3-5.9 0-3.2 0-6.1-.2-6.5q-.4-1.4-2-.9c-.7.2-.7.3-.7 4 0 2.8-.1 3.7-.4 3.6q-.3 0-.4-3.9l-.2-3.7h-2.7v6.8c-.1 5.6-.2 6.7-.5 6.7s-.4-1-.5-6.7v-6.8h-2.7l-.1 3.5c0 3.7-.2 4.8-.6 4.8-.2 0-.3-1.8-.3-4.1l-.1-4.2h-2.5l-.6.2v6.6c0 4.1-.1 6.7-.3 6.9h-.3l-.2-6.8-.2-6.9h-1.1c-1.6-.2-1.8.4-1.7 4.4q.1 3-.2 3.2-.3.1-.4-3.5c0-4-.2-4.2-1.9-4.2q-1 0-1.1.5l-.2 6.6c0 3.8 0 6.2-.3 6.3q-.2.2-.2-6.2c0-6.1 0-6.6-.5-6.9q-1.6-.9-2.3.4a13 13 0 0 0-.3 3.8c0 4.4-.5 4.3-.6-.1-.1-3-.2-3.7-.6-4-.7-.6-1.9-.5-2.2.2-.2.4-.3 3.2-.3 7 0 3.9 0 6.4-.2 6.5q-.3.1-.4-.2m52.8-7q0-5.9.3-6c.2 0 .3 2.2.3 5.7a30 30 0 0 1-.3 5.9q-.3 0-.3-5.7m-84-29.7c.3-2 .3-4-.2-4.6q-.5-.6.1-1c1.2-1 1.4-.6 1.6 4.1L64 37h-.9c-.9 0-1 0-.7-1m3.5.4c-1-1.5-1-4.8 0-6.2.6-.9 1.8-.8 2.5.2.6.7.7 1.2.7 3 0 1.6-.1 2.1-.7 2.8-.7 1-1.8 1-2.5.2m1.7-1a9 9 0 0 0 0-4.2c-.7-1.4-1.6 1.3-1 3.6q.4 2.1 1 .6m33.5.8q0-.6 1-1.8.8-1.4.9-2.3-.1-1.6-1.3-.9-.4.4-.7 0c-.5-.5.5-1.6 1.6-1.6q1.6 0 1.7 1.8 0 .7.3.8.2 0 .3-.7t.6-1.5q1.3-1.3 2.6.1c1 1 .9 5.2-.2 6.2s-2.9 0-3.2-2.2q0-1.2-.3-1.3-.3 0-1 1.2l-.7 1.1h.8q1.5.1.8 1.1c-.5.7-3.2.7-3.2 0m6.2-1.4c.4-1 .3-3.2-.2-3.8q-.5-.8-.8 0c-.5.8-.5 3.5 0 4q.6.9 1-.2m33.3 1.3q-.3-1 1.1-1 1.1.1 1-.8 0-.8-.6-1-1-.6 0-1.6.7-.5.3-.8-.3-.2-1 0-.6.1-.6-.4 0-1.2 1.5-1.2t1.4 2.3q0 1 .2 1.1t.4-.3c0-.7.7-2.6 1.1-2.9l1.2-.2q1.9.1 2 3.6c0 1.9-1 3.5-2.1 3.5-1 0-1.3-.3-1.9-1.6q-.6-1.6-.6-.3 0 .8-.8 1.3c-.9.7-2.3.8-2.6.3m6.4-3.3q0-3.5-1-2c-.7 1.2-.3 4.3.6 4.3q.4.2.4-2.3M24.6 35.3c-.6-.4-1.2-2.4-1.2-3.7 0-2.1 1.6-4 2.9-3.1s1.8 4 1 5.5q-1.3 2.4-2.7 1.3m1.5-2.2c.4-2.2-.5-4.6-1.2-3.3-.2.6-.3 3.3 0 4 .3 1 1 .5 1.2-.7" style="fill:#000"/></svg>