<svg xmlns="http://www.w3.org/2000/svg" xml:space="preserve" width="192" height="122" viewBox="0 0 192 122"><path d="M100.7 97.2V77.9L70 77.7c-16.7 0-30.5-.2-30.7-.4-.3-.1-.3-5.7-.2-25.1.2-21.1.3-25 .6-25.3s8.6-.4 30.4-.4c16.5 0 30-.2 30.2-.3s.3-3.2.3-7 .2-6.7.4-7c.8-.7 22-2.4 31.4-2.4 7.7 0 15 1 16.7 2l.7.5v10.9l-.2 42.2-.2 31.5-.8.3c-.6.3-.8.2-2.4-1.6-1.8-2-2.6-2.7-5-3.3-3.3-1-7.4 0-10.8 2.4-.8.6-1 0-.2-.8a11 11 0 0 1 5.3-2.6c4.7-1 9 .4 11.4 3.6q1.4 1.9 1.5.9a3623 3623 0 0 0-.1-83 21 21 0 0 0-7.7-1.8 238 238 0 0 0-32.3 1c-4.8.3-6.3.5-6.6 1-.4.6-.3 8 0 8.4l1.9.2q1.5 0 1.6.4 0 .4-1.5.4-1.6 0-2 .2l-.2 2v1.6l2.8.2 4.6.2q1.5 0 1.3.3c-.2.2-2.2.4-4.5.4h-4v4l1.6.3q4 .5-.2 1h-1.5v3.7l1.7.2q3.3.5.4.8c-2.2 0-2.2 0-2.2 2.2 0 1.9 0 1.9.8 1.9 1.3 0 2.7.3 2.7.6q-.2.3-1.7.4h-1.7v4l1.6.2c1.8 0 2 .6.2.6-1.7 0-2 .5-2 2.7l.2 1.8h7q1 0 .7.4c-.2.2-2 .4-4 .4h-3.7v4h1.9q1.7.3 1.8.5-.2.3-2 .5l-1.8.2v4h1.8c2.3 0 2.2.7 0 .9h-1.7v2l-.2 2h1.9q1.8.2 2 .5 0 .4-2 .4c-1.7 0-1.8 0-2 .9v2l.3 1.2h1.5c2 0 2 .6 0 .8h-1.7v2.2l.2 2.2h3.9c2 0 4 0 4.2.2.8.6-.3.7-4.4.6l-3.8-.1-.1 1.7c-.2 2.6-.1 2.7 1.9 2.7q1.6 0 1.7.4 0 .3-1.7.2c-1.4 0-1.7 0-1.8.5s-.2 2.9 0 3.6q0 .2 1.8.2c2 0 2.2 0 1.9.7q-.3.2-2 .3t-1.8.4c0 .2-.2 1.8-.2 3.7 0 4 0 4.2 2.4 2.6 2.7-2 3.6-1.8 5.3.5q1 1.2 1.4 1.4l1.9-1 1.6-1.2.6-.3c1-1.2 6.7-1.7 7.5-.7q.5.5-.4.4-.7 0-1-.3c-.3-.6-3-.3-4.3.4a20 20 0 0 0-4 2.5c0 .2-.6.5-1 .8q-1 .5-1.6 0-.7-.3-.7-.7c0-.4-2.2-2.7-2.6-2.7s-2.8 1.5-3 2zm-.3-20.8c.2-.7.3-19.5 0-20q-.2-.3-.2 0 0 .5-.3.5-.3-.1-.3-.8 0-1.2.7-.4 0 .2.2-.3 0-.7-.4-.6-.3 0-.5-.7 0-1.6-2-1.5c-2 0-2.2.4-2.2 2q0 1.5-.3 1.6-.2 0-.3-1.5c0-1.7-.4-2.2-2.2-2.2q-2-.1-2 2 0 2.3-.5 2.4-.3-.2-.3-2 0-1.6-.3-2c-.6-.3-3.2-.4-3.4-.1l-.2 2q0 1.8-.4 1.7-.4 0-.4-1.8c0-2-.3-2.2-2.3-2h-1.2q-.3.3-.5 2l-.5 2q-.2 0-.4-1.6c-.3-2.5-.3-2.6-1.7-2.6-2 0-2.3.4-2.1 1.9v2c-.4 1.3-1 .5-.8-1.3q0-1.6-.3-2c-.4-.5-3-.6-3.5-.2q-.3.4-.3 2 0 1.5-.2 1.9c-.3.3-.8-.7-.6-1.5l-.1-1.7c-.2-.8-.4-1-1.6-1-2.2 0-2.3 0-2.4 2.2q0 1.8-.4 2t-.4-1.7q0-1.8-.4-2.2c-.4-.3-3-.3-3.4 0l-.2 1.9q0 1.5-.3 1.7-.3-.1-.3-1.7 0-1.7-.5-2l-5.2-.2c-4.8 0-6 0-5.1-.7a11 11 0 0 1 3.9-.1c3.2 0 3.5 0 4-.5l.5-.8-.1-3.8c0-5.1.5-4.4.7.8v4l1.7.2c2 .3 2.3 0 2.4-2.4q0-1.6.5-2 .3-.1.3 2c0 2.2.2 2.5 1.8 2.5 1.8 0 2-.3 2-2.2 0-1.6.4-2.4.8-1.5l.2 1.8c0 1.6.2 1.9 2 1.9q1.6 0 1.8-.5.3-.5.2-1c-.3-.3 0-3 .4-3 .2 0 .3 1 .3 2 0 1.6 0 2 .5 2.3.7.3 3 .2 3.4-.2q.2-.3.3-2c0-3 .7-2.4 1 .8v1.6l1.6-.1q1.6 0 1.9-.3s.2-2 .2-4.4c0-2.3 0-4.3.3-4.4s.7 6 .5 7.8v1l1.7.3h2q.3-.4.4-2c.2-2 .7-2.7.8-1.2 0 3.4 0 3.2 1.8 3.3 1.7 0 2-.2 2.2-2.3q.5-3 .7-.1c0 2 .2 2.3 1.9 2.3 2 .2 2.4-.5 2.2-3.2q0-.8.3-1 .3.2.3 2-.2 2.8 2 2.2l1-.1V27.4l-1.7-.2c-2.2-.3-58.4 0-58.8.3-.3 0-.4 5.4-.4 24.6 0 13.4 0 24.4.2 24.5.4.4 60 0 60.2-.2M57.7 40.2c-1-1-1.5-2.7-1-4.3.5-2.3 2.2-3 3.5-1.6.6.6.7 1 .7 2.8 0 1.9 0 2-1 2.9-1.1 1-1.1 1-2.2.2m1.6-1.2q.3-.8.2-2.3c-.2-3-1.4-3-1.6 0-.2 1.6.2 3 .8 3zm22 1.5q-1.7-1 .7-1.2 1.4 0 1.5-.4c.3-1-.4-2-1.4-2.1q-1.5-.3-.4-2.4.3-1 1.6-1 1 0 1.3.4c.3.5-.4 1.2-1.3 1.2h-.7l1 .7c1.7 1.3 1.5 3.9-.6 4.7l-1 .5zm44 55.2-2.2-1.5q-.7-.5 0-.5.8 0 2.2 1c1.5 1 3 1.5 3.5.9.2-.5 1-.4.8 0s-1.5 1.2-2.2 1.2zm-7-16.2c-.6-1-.7-1.1-.6-3q.2-3.2 2.2-3.1c.8 0 1 .2 1.6 1 1.4 2.4.2 6-2 6q-.4 0-1.1-1m2.2-2.4q0-2-.4-2.3-1-1-1.3 2c-.1 1.3 0 1.8.4 2.3q1.3 1.4 1.3-2m-7.4 2.9q0-.5 1.2-1.8c1.3-1.7 1.5-2.2 1-3q-.3-1-1.4 0c-.8.9-1.2 0-.5-1 1.2-1.3 3.6-.7 3.6 1 0 1-.7 2.4-1.3 2.9q-1.1 1 .4.9 1.5-.3 1 .8c-.2.4-.6.5-2 .5q-2 0-2-.3m.8-25.1q-1-.3.2-1.6c1-1 1.8-2.6 1.6-3.3q-.1-.6-1.4-.3h-1.2c0-.7 1.3-1.7 2-1.7 2 0 2.5 2.5 1 4.5l-1 1.2 1.2-.2h1.3c0 .4 2 .6 2.5.3q.3-.2.4-.8c0-.7-1.2-2-1.8-2s-.7-1 0-2.1q.7-1 1.7-1 .8 0 1.2.5c.3.5-.5 1.2-1.3 1.2q-.6 0-.7.3t.3.3c.7 0 1.8 1.5 1.8 2.3 0 1.3-1.3 2.6-2.6 2.6q-.8 0-1.2-.5-.1-.7-1 0-1 .8-3 .3m-.4-25.1q-.2-1.3.8-.8 1.3.8 1.6-.4.3-.6-.6-1.4c-.8-.6-.8-.7-.3-1.1q.5-.4.5-1.1t-.5-.5c-1.3.3-1.4.3-1.4-.1q0-.5.7-1c.7-.3 1-.3 1.7 0 .9.4.9.4 1 3s-.1 2.9-.7 3.3c-.8.7-2.6.7-2.8 0m5-.4c-.7-1-1-3.8-.3-5 1-2 3.2-1.3 3.8 1a5 5 0 0 1-.8 4.2c-.7.9-2 .8-2.7-.2m2-1.7c.4-2.6-.2-4.4-1.1-3.2-.5.7-.5 4 0 4.4q1 1 1.2-1.2" style="fill:#000"/><path d="m100 54.5-.4 1.7" style="opacity:.941432;fill:#2b2200;fill-opacity:.920746"/><path d="M99.8 53.9v3.4" style="opacity:.941432;fill:#231f1d;fill-opacity:.92074603"/><path d="M99.6 54.4h.7v1.1h-.7z" style="opacity:.941432;fill:#171614;fill-opacity:.920746;stroke-width:.636209"/><path d="M100.1 52.7h.4V57h-.4z" style="opacity:.941432;fill:#fffff4;fill-opacity:.920746;stroke-width:.916706"/></svg>