<svg xmlns="http://www.w3.org/2000/svg" xml:space="preserve" width="120mm" height="60mm" viewBox="0 0 120 60"><path d="m62.75 50.15-.43-.19v-.61l-.08-.23-.09-.24.57-.4.57-.42.48.41.48.41-.11.53-.11.52-.32.22-.32.21h-.1l-.11-.02zm-2.4-3.78-1.12-1.21-.51-.1-.52-.1-.41-.92-.41-.9v-.61h.33l.97.57.96.56v.36l.02.36.57.77.57.77.56.68.57.67-.1.16-.1.15h-.26zm-25.42-5.33-.38-.55v-1.47l.33-.5.32-.5.51-.2.52-.2.39.2.39.19.3.38.29.39v1.98l-.37.4-.36.41-.78.01-.79.01zm1.6-.18.3-.27v-1.68l-.34-.39-.35-.4-.41.62-.41.61v.6l.3.6.31.59h.31zm8.18.55-.11-.27.78-.8.78-.82v-.83l-.31-.11-.32-.1-.33.18-.33.2-.12-.11-.12-.1v-.48l.64-.28.64-.27.5.3.5.3v1.27l-.57.58-.57.57.1.16.12.16h.95l-.06.3-.06.31-1 .06-1 .05zm11.57.02-.18-.2-.11-.31-.12-.3H54.7l-.12-.3-.12-.29.41-.25.41-.25v-.33l.6-.78.58-.78.22.06.22.07.13 1.2.14 1.21-.1.64-.1.64-.26.09-.26.09zm-.26-1.86.06-.42-.3.23-.3.23v.51l.23-.07.24-.07zm9.05 1.63-.47-.46V39.2l.43-.53.43-.54.7-.33.71-.33h.2v.48l-.47.29-.48.28v.48l.47.1.46.11.21.6.22.6-.2.35-.2.34-.3.28-.3.27h-.94zm1.31-.91-.03-.58-.2-.18-.18-.17-.2.11-.22.12v1.14l.14.12.13.13.3-.06.29-.06zm8.5 1.02-.39-.35v-.58l.3-.29.28-.3-.3-.63-.29-.64.62-.52.62-.52h.24l.5.36.5.36v.51l-.22.33-.23.33.23.46.23.45v1.01l-.37.19-.37.18h-.98Zm1.32-.57v-.23l-.22-.2-.23-.22h-.27l-.11.28-.12.28.1.16.12.15h.73zm0-2v-.14l-.22-.21-.23-.21h-.31v.69h.76zm7.3 2.67-.11-.28.23-.26.24-.25-.1-1-.08-1-.08-.24-.07-.23.32-.2.33-.2.18.17.18.17.06 1.74.07 1.74-.53.06-.52.05zm2.52-.41-.5-.66v-1.62l.6-.62.58-.62h.32l.31.01.4.31.4.3.22.38.22.37v1.56l-.33.53-.33.53-.39.1-.38.09h-.61zm1.56-.48.23-.44v-.96l-.24-.47-.24-.47h-.46l-.2.33-.2.34v1.56l.12.28.11.27h.66zm-51.31-5.8v-2.1l-.18-.1-.19-.1-15.87.01H4.15l-.12-.17-.12-.18-.03-5.04-.04-5.05h.5L4.3 26.8l-.03 4.83.52.15.51.16.46-.19.45-.19.05-3.1.05-3.09h.57l.1 3.22.1 3.22.72.06.73.05.27-.2.28-.21-.04-.37-.03-.37.03-2.66.03-2.65h.57v6.28l.28.1.29.1.71-.16.72-.15.05-2.91.05-2.91h.36l.06 2.91.05 2.92.9.05.9.06.05-3.2.05-3.18h.57l.05 3.19.05 3.19.9-.06.9-.05.1-4.18.1-4.18h.56l.1 4.27.1 4.26.55-.03.56-.04.25-.09.25-.09v-6.1h.67l-.05 3.14-.05 3.15 1-.06 1-.05.05-3.19.05-3.19.33.06.33.06.05 3.18.05 3.19.9-.06.9-.05.1-3.13.09-3.14h.57l.1 3.14.1 3.13h1.51l.05-3.09.06-3.09h.55l.05 3.09.05 3.09 1 .05 1 .06.04-5 .06-5 .23-.08.23-.07.06 5.02.05 5.02h1.9l-.05-.35-.05-.35.02-.43v-.44l.06-1.13.05-1.13.03-1.26.03-1.26h.76v6.06l.12.28.11.27h.88l.3-.1.3-.11v-6.2l.18-.1.17-.1.31.1.32.11-.04 2.29-.03 2.28-.21.59-.21.58.4.3.39.29.55-.04.55-.03.14-.02.15-.01V25.3h.75l.05 3.17.05 3.17.67.13.66.13.24-.08.24-.07V25.3h.76v6.2l.23.2.23.21h.84l.31-.28.3-.28-.01-3.92-.02-3.92.18-.17.19-.17.2.11.21.12v8.17l.5.2.48.2.32-.17.32-.19.03-2.16.04-2.15.01-1 .01-1h.58v6.2l.22.2.23.21h1l.22-.2.23-.22v-6.03l.3-.1.28-.1.1.09.11.1.03 3.06.03 3.07.29.16.28.17h.8l.32-.32.31-.32v-5.83l.22.07.21.06-.03 2.78-.04 2.78.12.3.13.3.65.1.65.12.24-.18.23-.18.06-3.02.05-3.01.16-.15.16-.14.11.16.11.17.04 2.98.03 2.98.26.2.26.2.62-.16.61-.16.05-4.92.05-4.92.3-.1.3-.11.17.24.17.25v9.68l.62-.11.62-.12.16-.14.15-.13.04-2.94.03-2.94.43-.05.43-.06v5.88l.23.2.22.21h1.21l.12-.27.12-.28V25.3h.56l.05 3.08.06 3.08.66.13.67.13.34-.1.33-.08-.05-3-.04-2.98.15-.22.15-.22.16.09.16.09.01 1.17.01 1.18.02.34v.35l-.12 1.35-.13 1.35.24.26.24.26h1.27l.2-.35.22-.36-.04-2.7-.04-2.7.2-.18.2-.19.2.12.22.12v5.83l.22.2.23.21h1.26l.04-.04.03-.04.1-4.1.11-4.09h.38l.1 4.1.1 4.09.73.05.74.06.19-.18.19-.17-.04-2.76-.03-2.76.12-.3.13-.3h.53l.04.05.03.04.1 3.13.12 3.14h1.33l.1-3.14.09-3.13h.76l.05 2.95.05 2.94.21.23.21.23h1.05l.12-.27.11-.28V25.1l.34.05.33.06.1 3.13.09 3.14.71.05.72.05.03-.05.04-.05.1-3.05.11-3.05h.76l.06 1.48.07 1.48-.24 1.17-.23 1.16.32.45.32.44h1.28l.11-.27.12-.28v-9.35l.21-.12.21-.12.17.24.16.24v4.62l.01 4.63.23.2.23.21h.86l.2-.35.21-.36-.03-2.69-.04-2.68.24-.27.24-.27.26.2.25.2.06 3.06.05 3.08.58.05.6.05.23-.26.24-.27-.03-2.76-.02-2.77.27-.2.26-.2.23.25.23.25-.2.35-.2.35v4.83l.22.2.23.21h1.45l.03-.04.04-.04.1-3.14.11-3.13h.38l.1 3.13.1 3.14.67.05.69.05.21-.24.22-.24.05-2.94.05-2.95h.57l.06 2.95.05 2.94.22.24.21.24.59-.05.59-.05.05-4.06.05-4.05.3-.1.3-.11.17.24.18.24-.03 3.8-.02 3.8.19.18.18.17.73-.06.73-.05v-3.13l.02-3.13.35-.07.36-.06-.07 3.42-.07 3.43-.34.22-.33.23-5.25-.02-5.24-.02-.17.18-.16.19-.06 1.9-.05 1.9h-.57l-.06-2.04-.05-2.04-.47-.11-.47-.1-.28.1-.29.1v2.96h-.76l-.02-.21-.02-.22-.02-1.2-.03-1.2-.53-.17-.53-.16-.28.2-.28.22v3.75l-.27.1-.27.1-.22-.25-.22-.24.03-1.62.03-1.62-.01-.2-.02-.2-.6-.13-.58-.12-.2.2-.2.18-.02 1.35-.02 1.36h-.76l-.05-1.35-.06-1.35-.38-.18-.38-.19-.37.1-.38.12v.2l-.02.2.02 1.63.03 1.63-.22.23-.21.24-.28-.1-.27-.09v-3.75l-.27-.2-.28-.22-.43.06-.44.06-.1 1.56-.1 1.57h-.56L73 34.1l-.06-1.39-.17-.19-.17-.18-.47-.04-.48-.04-.13.2-.13.18.04 1.78.03 1.79-.27.2-.27.2-.2-.22-.22-.23-.05-1.82-.06-1.82H68.7l-.05 1.44-.06 1.43h-.54L68 33.97l-.06-1.43-.56-.13-.56-.14-.25.2-.25.18v3.79h-.55l-.06-1.96-.05-1.96h-1.71l-.06 1.44-.05 1.43h-.78l.06-1.43.06-1.44h-1.7l-.06 1.96-.05 1.96h-.55l-.05-1.96-.06-1.96-.73-.05-.74-.06-.2.18-.2.18.05 1.22.04 1.23h-.56l.08-1.16.08-1.16-.22-.23-.2-.24h-1.67l-.02.22v.22l.01 1.67.03 1.67-.27.2-.27.2-.21-.22-.21-.23-.06-1.82-.05-1.82-.55-.06-.54-.05-.2.18-.21.19-.01 1.26-.01 1.27-.42.05-.42.06-.06-1.45-.05-1.45h-1.33l-.06 1.94-.05 1.94-.28.21-.28.21-.09-.23-.1-.24-.04-1.91-.05-1.92-.71-.05-.7-.06-.06 1.45-.06 1.45h-.76l-.05-1.45-.06-1.45-.9.06-.89.05-.1 2-.09 2h-.38l-.05-1.9-.06-1.9-.18-.2-.19-.21-.47.08-.48.09-.08.12-.09.12-.04 1.3-.04 1.29-.18.21-.18.22-.17-.1-.17-.1v-2.89l-.25-.19-.25-.19-.7.18-.7.17v3.81h-.38v-3.77l-.46-.19-.46-.19-.54.13-.54.13-.05 1.43-.06 1.42h-.54l-.05-1.41-.06-1.42-.33-.2-.33-.19-.33.2-.34.19-.1 2.07-.09 2.06-.33.06-.33.06zM29.8 19.6l-.28-.06v-4h1.04l.02.14.02.13.05 1.86.05 1.85-.3.07-.31.07zm24.98-.14-.12-.28.49-.47.48-.46.4-.61.4-.61v-.59l-.31-.28-.3-.28-.48.29-.48.28-.17-.16-.18-.16.11-.27.11-.26.75-.23.74-.22.46.27.46.28.12.43.11.43-.28.58-.29.58-.4.46-.4.47.12.18.13.19.47-.2.48-.2.22.21.23.2-.2.3-.2.3-1.18.06-1.17.05zm25.98 0-.24-.27.14-.12.14-.13h1.4l.05-.55.06-.55-.39-.11-.4-.12v-.36l.38-.48.38-.48-.27-.33-.27-.33-.4.23-.42.23-.09-.08-.09-.08.25-.37.25-.36.33-.1.33-.1.38.2.38.18.22.37.21.36-.24.42-.25.42.23.2.22.2v1.44l-.53.47-.54.47h-.97Z" style="fill:#000"/></svg>