<svg xmlns="http://www.w3.org/2000/svg" xml:space="preserve" width="120mm" height="35mm" viewBox="0 0 120 35"><path d="m132.84 44.51 61.9 27.13" style="opacity:1;fill:#000;fill-opacity:.920746"/><path d="M61.41 30.9c-4.32-.14-8.9-.36-10.05-.46l-3.85-.33c-1.38-.1-3.34-.3-4.36-.4-1.02-.12-2.45-.27-3.18-.34-1.99-.2-3.27-.37-6.3-.88a59 59 0 0 0-3.03-.46c-.16 0-1.18-.19-2.28-.42s-2.43-.49-2.96-.58c-.53-.1-1.16-.24-1.4-.31a88 88 0 0 0-4.74-1.23c-.66-.12-3.31-.87-3.99-1.14-.59-.23-2.68-.87-3.3-1a2 2 0 0 1-.66-.26.6.6 0 0 0-.37-.15c-.1 0-.91-.29-1.78-.65-2.26-.93-2.3-.94-2.54-1.08-.12-.07-.7-.32-1.3-.57-.58-.24-1.07-.5-1.07-.6 0-.32 5.79-2.63 9.76-3.88l2.6-.84c.16-.07.65-.22 1.1-.33l1.78-.5c.53-.15 1.22-.32 1.55-.38.89-.17 3.57-.8 4.66-1.09 1.04-.27 3.61-.78 4.8-.93.41-.06 1.11-.17 1.56-.26 1.59-.3 3.2-.56 4.58-.74A286 286 0 0 1 50.1 9.67a261 261 0 0 1 18.82-.66c4.77 0 5.15-.02 5.23-.24.33-1 .8-1.24.8-.4v.6l4.4.15a219 219 0 0 1 10.16.57c5.8.35 16.66 1.3 18.79 1.65.65.1 2.14.32 3.32.47 3.54.47 3.9.53 4.02.71.16.22.13 14.49-.03 14.71-.06.1-.27.2-.46.22l-1.09.16c-.68.1-3.9.58-6.58.96-1.33.2-2.63.33-4.8.51l-3.77.34c-1.18.12-3.18.28-4.44.36s-2.34.18-2.4.2c-.15.1-6.76.48-13.35.79-1.8.08-15.64.19-17.3.13m19.16-.64 5.62-.28a554 554 0 0 0 16.63-1.3l2.37-.24c1.38-.14 5.52-.67 9.16-1.18.62-.08.75-.15.86-.47q.33-.9-.6-1.26a21 21 0 0 0-8.36-1.01c-1.74.15-3.96.58-4.76.91-.36.15-1.8.19-7.73.17-4 0-7.32-.06-7.36-.12-.14-.2.46-.26 2.08-.17a40 40 0 0 0 3.35.05c.47 0 .89-.07.94-.14.13-.2-.62-.42-1.4-.44-.37 0-.86-.08-1.1-.17-.23-.09-.7-.13-1.03-.1a6 6 0 0 1-1.57-.16c-.53-.13-1.27-.27-1.64-.32a4 4 0 0 1-1.2-.37c-.29-.16-.94-.32-1.49-.37l-.97-.1-.05.9c-.03.57.01.98.13 1.12.1.11.18.26.18.31 0 .06-.77.1-1.73.07l-1.74-.04-.08-.4c-.1-.49-.33-.48-1.4.06-.77.39-2.34.63-2.71.42-.33-.18.07-.32.64-.22q.76.13 2.17-.75c.22-.13.53-.24.7-.24q.31-.01.46-.35c.08-.2.15-1.94.15-3.99 0-4.01-.01-4.05-.92-4.38a5.8 5.8 0 0 0-3.18-.8c-1.24 0-1.49.1-1.6.59-.14.56-.21.66-.42.5l-1.02-.54-.86-.41-.97.4c-1.08.46-1.47.45-1.33-.05.08-.27.02-.34-.3-.41-.45-.1-.76.11-1.17.8-.34.56-1.1.8-2.1.67-.66-.1-.76-.16-1.63-1.07-.44-.47-.52-.5-1.03-.41-.3.05-.6.12-.65.15-.13.07.3 1.23.48 1.33.07.04.13.62.13 1.28 0 1.66-.57 3.01-1.76 4.14-.86.82-1.81 1.47-2.13 1.47a.6.6 0 0 0-.33.12c-.36.3-1.68.55-2.85.55-1.39 0-1.87-.1-3.22-.7-.98-.43-2.72-1.75-2.72-2.05 0-.1-.05-.2-.12-.2-.11 0-.3-.33-.83-1.52a6.4 6.4 0 0 1 0-3.44c.12-.25.29-.55.37-.66l.42-.67c.49-.81 2.76-2.55 3.33-2.55.12 0 .25-.05.3-.11.03-.06.56-.2 1.16-.28a6 6 0 0 1 2.45.04c1.73.26 2.4.58 3.7 1.7 1.1.96 1.3 1.04 2.44.93.66-.06.76-.11 1.04-.57a2 2 0 0 1 1.82-1.04q1.36 0 1.9.99c.4.7 1.01.84 1.24.3.08-.2.23-.35.33-.35.25 0 1.27.33 1.4.45.05.05.21.09.35.09.2 0 .27-.17.35-.81.1-.7.16-.83.48-.94.54-.19.63-.16.82.2.13.27.11.4-.1.7l-.26.35.77-.1.77-.08-.05.37-.05.37 1.55.09c1.41.07 1.66.12 2.65.57.6.28 1.14.45 1.2.4.07-.07.15-.3.17-.52l.05-.4 10.87-.04c9.41-.03 10.94 0 11.39.17.28.1 1.05.33 1.7.5 1.06.26 1.53.3 4.58.3q3.39 0 4-.15c2.83-.78 3.2-.9 3.4-1.16.5-.65.07-1.7-.7-1.7-.17 0-.69-.06-1.14-.13a54 54 0 0 0-2.38-.28c-.85-.09-2.18-.24-2.95-.34a86 86 0 0 0-2.81-.32 49 49 0 0 1-2.37-.28c-.53-.08-1.7-.2-2.59-.26l-3.25-.26c-4.53-.39-10.6-.78-13.31-.86a99 99 0 0 1-4-.22 38 38 0 0 0-3.4-.1c-1.36.03-1.49.06-1.62.33-.11.24-.23.28-.52.22a1.3 1.3 0 0 1-.6-.34c-.24-.26-.38-.27-7.62-.2a195 195 0 0 0-17.81.76 118 118 0 0 0-5.7.55c-3.87.42-10.86 1.46-10.86 1.62 0 .06.18.15.4.2.83.17 1.9.47 2.18.62 1.37.7 1.72.9 2.35 1.44a8 8 0 0 1 2.24 3.05c.3.78.37 1.17.37 2.4 0 1.88-.28 2.73-1.34 4.1-.43.57-.74 1.07-.68 1.12s5.67.1 12.47.08c11.46-.02 12.37-.04 12.63-.25.16-.13.29-.31.29-.42s.21-.36.47-.58c.42-.34.6-.4 1.34-.4.7 0 .96.07 1.38.36.27.19.5.45.5.58s.17.34.37.46.37.28.37.36-.43.53-.96 1.02l-.96.88-.75-.1c-.92-.1-1.35-.34-1.88-1.04l-.4-.52-12.72.01c-12.16.01-12.74.03-13.24.27a21 21 0 0 1-3.2 1.35c-.15 0-.4.06-.57.12-.27.1-.25.12.18.32.26.12.63.22.81.22s.9.09 1.6.2c1.26.2 2.83.43 5.47.8.77.1 2.67.29 4.22.4s3.34.28 3.99.36c1.6.2 4.18.34 9.4.51 2.4.08 4.52.16 4.72.18 1.42.12 14.28-.04 18.05-.22m-25.52-.52c-.27-.14-.29-.98-.03-1.13.1-.06.65-.14 1.22-.18.95-.06 1.04-.09 1.08-.38.05-.33-.17-.55-.56-.55q-.25 0 .11.26c.18.14.28.28.22.32a8 8 0 0 1-1.3.1c-.97.02-1.19 0-1.22-.18-.03-.12.02-.25.1-.3.2-.1.21-.7.02-.8-.09-.05-.15-.18-.15-.28 0-.27 2.1-.28 2.34-.02.1.1.12.23.06.3q-.08.08.11.03c.12-.03.25-.2.27-.36.06-.33.42-.52.63-.32.17.15.3 3.16.15 3.38-.13.17-2.73.27-3.05.1m2.22-.64c0-.14-.2-.2-.72-.24-.74-.04-1.1.1-.9.37.16.24 1.62.12 1.62-.13m-1.4-1.74c0-.31-.07-.4-.3-.4-.32 0-.34.05-.2.5.13.45.5.38.5-.1m2.66 2.02c-.41-.24.03-.34 1.82-.41 2-.08 2.2-.06 2.14.25-.04.19-.32.22-1.9.25a10 10 0 0 1-2.06-.1m.56-.92c-.32-.06-.34-.24-.04-.34.25-.09.3-.96.07-1.1-.08-.04-.15-.16-.15-.27 0-.15.28-.2 1.38-.2 1.4 0 1.68.07 1.45.33-.26.3-.29.95-.05 1.19.12.13.18.27.13.33-.11.1-2.32.14-2.8.06m1.78-.93c-.04-.44-.1-.5-.45-.54-.38-.04-.41-.01-.41.4 0 .55.08.64.55.64.32 0 .35-.05.3-.5m7.84-1.34c-.17-.3-.3-.38-.84-.41-.8-.05-.75-.33.06-.43.45-.05.62-.15.77-.43.24-.44.51-.46 1.3-.1.8.37.93.29.84-.53-.08-.76.1-1.08.63-1.08.52 0 .72.75.3 1.07-.26.2-.3.67-.07.67.08 0 .42-.12.74-.27l.58-.27.26.5c.24.45.33.5.73.47.26-.02.5.02.56.1.09.12-.15.2-.87.3-.17.03-.33.18-.38.38-.1.4-.6.5-.88.2-.1-.11-.28-.2-.38-.2s-.37-.09-.6-.2c-.37-.17-.47-.16-1.26.2-1.07.5-1.25.5-1.5.03m1.33-.67c.04-.26-.02-.3-.4-.3-.36 0-.46.06-.46.26 0 .48.78.52.86.04m2.76.04c0-.3-.46-.45-.7-.23-.25.23 0 .58.37.53q.33-.04.33-.3m10.28-.06c0-.06.23-.16.5-.2.65-.11 2.48.05 2.37.2s-2.87.16-2.87 0m-11.24-4.63c0-.19.07-.34.15-.34s.15.12.15.26-.07.3-.15.34q-.14.06-.15-.26m.4-1.45c-.03-.09-.01-.28.05-.43q.13-.35.13.17.01.68-.17.26m.35-1.8c0-.2.07-.5.14-.64.1-.2.13-.14.14.3 0 .3-.06.6-.14.64s-.15-.08-.14-.3m-.01-5.86c0-.11.13-.4.3-.64.34-.5.39-.3.08.37q-.36.76-.38.27m1.18-.06c0-.3.23-.48.36-.3.11.16-.05.56-.22.56-.08 0-.14-.12-.14-.26M32.43 27.08a9 9 0 0 0 2.45-.97c.77-.42 2.2-1.57 2.2-1.76 0-.1.2-.39.44-.66A6.6 6.6 0 0 0 38.71 20a6.8 6.8 0 0 0-1.93-4.52 9 9 0 0 0-2.64-1.8c-1-.4-2.92-.8-3.93-.8a9.3 9.3 0 0 0-7.74 4.06c-.18.28-.32.65-.33.8 0 .17-.1.45-.21.64-.35.55-.3 2.74.1 3.85a6 6 0 0 0 .86 1.68c.26.48 1.32 1.5 1.98 1.9.87.54 2.97 1.3 4 1.45.69.1 2.73 0 3.56-.19m-7.96-5.05c-.4-.07-.3-1.03.12-1.03q.3 0 .3.27c0 .24.12.27 1.17.33.75.04 1.19.13 1.23.24q.04.16-.36.19c-.74.04-2.18.04-2.46 0m6.4-.24c-.09-.2-.11-.46-.06-.58s.08-.74.07-1.39c-.02-1.27.04-1.46.37-1.35.15.06.22.28.22.75 0 .55.05.68.3.74.37.09.38.38 0 .47-.24.06-.3.21-.33.85-.05.86-.32 1.1-.57.51m4.77-1.48c.03-1.54.08-1.86.26-1.86.19 0 .22.3.22 1.81 0 1.63-.02 1.81-.26 1.85s-.26-.09-.22-1.8m-.92 1.28c0-.21-.07-.26-.3-.19q-.29.1-.65-.3l-.36-.37-.31.37c-.34.38-.9.5-.9.19 0-.1.14-.3.3-.42.16-.14.36-.46.44-.73.2-.62.2-.68-.04-.68a.7.7 0 0 1-.37-.16c-.31-.29.1-.51.95-.51q1.36 0 .46.67l-.33.25.37.64c.43.74.74.9.74.38q0-.37-.3-.43c-.37-.09-.38-.52 0-.61q.28-.06.33-.5c.02-.25.13-.47.23-.5.14-.04.18.33.18 1.56 0 1.35-.03 1.62-.22 1.62-.12 0-.22-.12-.22-.28m-6.73.01c-.13-.18.28-.53.62-.53q.42.02-.12-.5c-.27-.25-.29-.33-.13-.51.15-.16.15-.25.02-.37-.25-.23-.2-.45.18-.83.45-.43 1.07-.44 1.61 0 .42.32.52.65.27.8-.08.04-.1.26-.06.48.07.3.02.45-.19.6-.24.16-.25.2-.05.32.12.08.28.16.36.19.4.14-.26.36-1.27.44-.84.06-1.15.04-1.24-.09m1.77-1.33c.1-.14-.22-.26-.48-.17q-.16.06-.18.18c0 .15.55.15.66 0m-3.08.84c-.05-.05-.1-.65-.1-1.34 0-1.03.05-1.27.24-1.34.29-.1.5.17.5.63 0 .2.08.42.18.5.13.12.11.22-.1.43-.16.16-.23.37-.18.55.15.5-.2.87-.54.57m-3-.52c-.05-.12.1-.38.41-.66.28-.25.53-.63.57-.83.12-.56.45-.46.73.2.14.33.41.7.6.83q.34.22.25.46c-.09.2-.13.2-.54-.01-.25-.13-.45-.29-.45-.35 0-.23-.49-.08-.76.23-.33.38-.68.44-.81.13m41.05 6.28c.34-.06.58-.23.84-.6.44-.63.45-.9.02-1.5-.54-.78-1.58-.82-2.56-.12-.46.33-.5.4-.41.9.1.6.65 1.23 1.14 1.32l.4.07c.06.01.31-.02.57-.07m-39.86-.56c.04-.06-.22-.28-.58-.48-.37-.21-.66-.43-.66-.5 0-.05-.16-.24-.35-.4a7 7 0 0 1-1.65-2.46c-.3-.77-.36-1.2-.37-2.36 0-1.87.28-2.66 1.51-4.28.74-.98.84-1.07 1.56-1.5.35-.2.63-.43.63-.5 0-.25-.43-.3-.77-.08-.18.12-.53.22-.78.22s-1.11.18-1.93.41-1.68.46-1.92.52a8 8 0 0 0-.81.24c-.2.08-.64.2-.96.27-1.37.32-3.27.9-4.77 1.44l-1.93.69-1.76.67c-.42.17-.81.31-.87.31s-.71.27-1.45.6-1.47.62-1.61.66c-.46.13-.28.49.37.75 1.17.46 1.66.66 1.89.79.4.21 3 1.2 3.77 1.42.4.12 1.08.36 1.5.54.42.17 1.29.45 1.93.6.63.16 1.35.37 1.6.47.76.3 3.32 1 5.17 1.41.98.22 1.94.45 2.15.52.49.15 1 .17 1.09.03m56.43-1.03c.15.05.32.01.38-.07.2-.29.21-1.42.02-1.65-.17-.21-.22-.2-.74.11-.3.19-.65.34-.76.34-.27 0-.86.77-.73.95.18.28 1 .51 1.28.37.15-.07.4-.09.55-.05m13.02-.06c.18-.1.18-.13-.04-.2-.32-.12-.75.02-.63.2.12.17.38.17.67 0m6.43-.14c.33-.06 1.13-.23 1.78-.39.65-.15 1.78-.34 2.51-.42 1.72-.2 6.07-.08 7.18.2a18 18 0 0 1 2.5.68c.1.05.27.02.4-.08.19-.14.22-.81.19-4.92a97 97 0 0 0-.1-5.02c-.1-.3-.19-.28-2.26.25-1.89.49-3.6.63-6.46.54-2.08-.07-2.6-.13-3.97-.49a9 9 0 0 0-1.75-.35c-.1.03-.3-.02-.45-.12s-.33-.15-.39-.12c-.06.04-4 .07-8.76.07h-8.65l-.09.3c-.14.48-.1 1.5.07 1.66.1.1.45.07 1.14-.1.56-.14 1.5-.25 2.14-.25.81 0 1.27-.07 1.52-.23q.37-.21.88-.14.5.08 1.13-.2c.43-.19.75-.24 1.08-.18.58.12.99.12 2.82.03a9 9 0 0 1 2.32.12c.63.14 1 .16 1.48.06.79-.16 3.56-.4 3.7-.32.18.1.14 1.25-.03 1.25-.09 0-.23-.14-.31-.31-.14-.27-.3-.33-1.01-.4a8 8 0 0 0-1.43.03c-.73.11-6.8.07-7.33-.05-.3-.07-.58 0-1.1.27-.56.3-.74.35-.96.22-.38-.22-.57-.2-1.18.1-.43.2-.72.24-1.54.18-.74-.06-.98-.04-.9.08.05.08.24.15.4.15q.28.01.23.17-.08.16-.64.13c-.31-.02-.73 0-.92.04l-.34.07.37.27q.97.7 2.38.66c1.2-.04 1.27-.03 1.27.2 0 .15-.18.2-.65.2-.36 0-.72.08-.8.17s-.18.6-.2 1.15c-.04.82-.01 1 .2 1.11.2.1.23.19.12.38-.13.21-.07.3.28.53.78.51 1.28.32 1.36-.52.03-.36-.06-.57-.36-.86-.52-.51-.5-.91.06-1.34s1.02-.44 1.8-.05l.58.3.35-.4c.53-.6.68-.32.63 1.15-.04 1.16-.07 1.26-.34 1.26-.24 0-.3-.1-.34-.5-.05-.45-.1-.5-.47-.5-.23 0-.5.09-.6.2s-.34.2-.53.2c-.42 0-.41-.03-.13.59l.22.48h1.03c1.05 0 1.35.14 1.04.47-.3.32-.02.5.62.43.35-.04.86.01 1.26.14.51.15.79.17 1.08.07q.4-.14 1.2 0c.64.1.91.1 1.25-.05.38-.17.43-.26.44-.8.01-1.51-.02-1.46.77-1.47h.7l-.43-.33-.44-.32-.5.4c-.56.44-.75.48-.87.18q-.09-.22.44-.61c.3-.22.54-.51.54-.65 0-.28.35-.58.51-.44.06.06.2.3.3.52.11.24.34.47.52.52.19.05.35.24.4.48.05.21.14.39.21.39.16 0 .17-.07.19-1.14.02-.72.05-.8.35-.85.33-.04.33-.01.36 1.55v1.81c-.01.13.06.24.16.24.14 0 .19-.39.19-1.5 0-1.43.01-1.52.29-1.52s.3.1.31 2.05c.01 1.13-.04 2.08-.12 2.12s-.25-.02-.4-.13c-.42-.35-2.78-.3-3.57.07-.48.22-.74.26-1.3.19-.81-.1-.96-.1-1.67 0a1.7 1.7 0 0 1-1.03-.15c-.3-.14-.79-.23-1.24-.21-.42 0-.93-.07-1.17-.19-.23-.1-.58-.2-.78-.2s-.58-.08-.86-.19c-.3-.11-.73-.16-1.03-.12q-.52.09-1.23-.19c-1.2-.46-2.49-.08-1.4.41.22.1.68.22 1.02.26s.97.22 1.4.4c.76.31.83.32 1.57.13.7-.17.8-.17 1.14.02.2.12.58.22.85.22s.72.07 1 .15 1.05.17 1.7.19c.66.02 1.57.08 2.04.13.68.08.91.06 1.11-.1.14-.12.49-.25.77-.3.73-.1 3.23-.19 3.32-.1q.06.08-.08.25c-.12.13-.56.18-1.44.18-1.71 0-2.66.25-2.29.58.12.11 2.86-.02 3.67-.18m-9.17-2.82q-.27-.35.9-.42c.68-.03.73-.07.78-.4q.04-.39.33-.37c.27 0 .31.06.35.53 0 .15.24.22.82.27.62.05.83.12.86.3.05.22-.12.24-1.95.24-1.28 0-2.03-.06-2.1-.15m16.71-.37c-.13-.12-.07-.7.1-1q.17-.28.02-.32a2 2 0 0 1-.4-.21c-.22-.16-.23-.2 0-.6.14-.26.35-.44.51-.44.45 0 .5-.25.07-.4-.22-.07-.36-.2-.33-.3.04-.12.5-.17 1.59-.17s1.55.05 1.59.17c.03.1-.13.24-.36.32l-.42.15.48.18q.48.2.48.46c0 .14.07.26.15.26.26 0 .16.38-.1.43-.2.04-.24.18-.21.8l.04.74h-1.57c-.86 0-1.6-.04-1.64-.07m2.26-2.16c-.43-.31-.95-.34-1.33-.09-.42.3-.3.35.72.35h.98zm-6.96 1.79c-.2-.18.09-.32.64-.32.43 0 .62-.07.74-.27.13-.22.11-.28-.1-.35-.93-.26-.94-.27-.94-1.11 0-.46.08-.84.17-.9.26-.14.6.37.5.76-.13.53.22.72 1.15.62.89-.1 1.44 0 1.44.25q-.02.32-.91.33c-.38 0-.44.05-.4.3.04.26.15.3.83.34.56.03.77.1.77.24 0 .16-.34.2-1.9.2-1.04 0-1.94-.05-1.99-.1m-11.69-.14c-.2-.2-.07-.42.35-.58.52-.2 1.04-.79 1.04-1.18 0-.29.3-.46.54-.32.09.05.2.29.26.52.1.4.53.83 1.2 1.19.31.16.17.46-.21.46-.15 0-.52-.2-.84-.45l-.57-.45-.65.45c-.64.44-.92.53-1.12.36m8.2-2.25-.15-.34h-1.87c-1.69 0-1.85-.02-1.8-.24.03-.2.27-.23 1.92-.27 1.87-.03 1.89-.04 1.89-.35 0-.35.35-.68.58-.55.09.04.14.5.12 1.04-.03.8-.08.98-.3 1.01q-.25.05-.4-.3m-19.06 4.05c.39-.22.71-.44.72-.48l.03-2.7.03-2.6-.88-.44c-1.52-.76-1.44-.92-1.42 3.1.01 1.9.06 3.52.1 3.58q.16.24 1.42-.46m-23.76.22c.4-.12.94-.3 1.2-.4s.5-.2.56-.2.55-.41 1.11-.92a4.4 4.4 0 0 0 1.48-2.11c.4-1 .46-1.32.4-2.05-.1-1.37-.61-2.67-1.28-3.24a2 2 0 0 1-.32-.35 9 9 0 0 0-2.32-1.45 5 5 0 0 0-2.1-.42 7.5 7.5 0 0 0-3.78.65c-1.16.52-2.8 1.95-2.95 2.56-.06.24-.2.62-.33.84-.16.29-.22.75-.2 1.6.04 1.73.49 2.75 1.62 3.72.87.74 2.25 1.58 2.59 1.58.1 0 .32.09.48.2.4.28 2.88.27 3.84-.01m-4.7-1.4q-.93-.46-.31-1.1c.2-.19.2-.24.03-.24-.43 0-.61-.25-.67-.92-.08-.98.1-1.22.92-1.22q1.05.02.71.56c-.07.1-.1.28-.08.41q.06.25-.33.24c-.2 0-.4.06-.46.13q-.06.13.59.13c.71 0 .7.01.73-.85.02-.6.32-.8.52-.33.12.3.13.3.24.05q.23-.51.6-.38c.15.05.2.35.2 1.05 0 .8-.04 1.01-.25 1.12-.24.12-.24.14.01.4q.58.6-.54 1c-.8.28-1.23.27-1.91-.06m1.8-.6c0-.28-.2-.35-.87-.25-.9.13-.8.45.14.45.55 0 .74-.05.74-.2m-.99-.96a.6.6 0 0 0-.37 0q-.14.06.19.07.31 0 .18-.07m1.15-.26c0-.42-.35-.37-.42.06q-.05.3.19.29.23 0 .23-.35m1.25 1.29c-.2-.3.15-.42 1.22-.4.81.03 1.14-.01 1.24-.15.24-.35.04-.46-.98-.52-.62-.04-1.03-.14-1.07-.24q-.06-.16.43-.17c.6 0 1.92-.31 1.9-.44v-.22c0-.07-.51-.15-1.13-.17q-1.15-.04-1.2-.2c-.05-.14.27-.17 1.47-.14l1.53.04-.06 1.04c-.04.88-.01 1.07.21 1.22.54.36.1.48-1.7.48a7 7 0 0 1-1.86-.13m-3.53-3.7c-.27-.24-.31-.74-.07-.95.22-.2.57-.07.57.22 0 .39.33.53 1.34.57 1.37.06 1.12.3-.36.35-.98.03-1.29-.01-1.48-.18m3.56-.14c-.24-.22-.08-.45.32-.45.58 0 .67-.13.31-.48a.8.8 0 0 1-.26-.74l.05-.45 1.15-.04c1.43-.05 1.53-.34.12-.37q-1.4-.04-1.13-.45c.14-.2 2.34-.2 2.56.01.27.24.23 1.14-.05 1.23-.13.05-.63.09-1.11.09-.52 0-.88.05-.88.14s.36.13.93.12h1.1c.23 0 .26.4.04.4-.08 0-.14.13-.14.27q-.01.29.34.27.6 0 .46.32c-.08.17-3.63.3-3.8.13m2.27-.65q-.02-.18-.23-.2c-.12 0-.22.09-.22.2q.02.18.22.2.21-.02.23-.2m-3.67-.36c-.15-.52-.45-.61-1.09-.32-.25.12-.55.21-.66.21-.22 0-1.24-.88-1.24-1.06 0-.07.18-.31.4-.55.35-.38.45-.41 1-.35.33.03.78.1 1.01.16.3.07.5.03.7-.14.15-.13.39-.2.52-.15.19.06.22.29.19 1.32-.04 1.16-.07 1.24-.37 1.28-.26.04-.35-.04-.46-.4m-1.23-.96c.25-.27.04-.62-.37-.62-.39 0-.59.27-.45.6.1.25.6.26.82.02m32.32 6.53q.27-.66-.25-.52c-.45.13-.76.41-.64.59.16.22.78.17.89-.07m-1.8-.23c.84-.4 1.84-1 1.93-1.12a3 3 0 0 0-.02-.9l-.1-.8-1.24-.64c-1.26-.66-1.75-.78-1.86-.48-.04.09-.08 1.09-.1 2.2l-.05 2.05h.4c.22 0 .68-.14 1.03-.3m5.3-1.5c.26-.3 0-.67-.47-.67q-.37-.01-.4.32c-.09.5.5.74.87.34m1.32-.33q-.02-.13-.22-.14-.21.01-.23.14.02.12.23.13.2-.01.22-.13m-8.51-4.29v-.87h-1.1c-.96 0-1.12.03-1.16.25-.08.36.1.89.3.9.1 0 .49.14.85.32 1 .48 1.1.42 1.1-.6m-15.07-.19q1.08-.97-.04-1.9c-.75-.62-1.52-.63-2.13-.04-.24.23-.47.55-.5.7-.22.82.65 1.7 1.66 1.7.38 0 .64-.11 1.01-.46m6.01-.89c-.05-.42-.12-.46-.55-.28-.46.19-.47.34-.04.53q.67.3.6-.25m-2.62.01c0-.3-.87-.27-.94.04-.04.2.04.24.45.2q.48-.04.49-.24m1.25-7.93c-.29-.1-.4-.5-.18-.7.06-.06.11-.23.11-.4 0-.26.09-.28 1.19-.32 1.74-.06 1.81-.03 1.8.77 0 .37-.08.69-.17.7-.44.07-2.5.03-2.75-.05m3.52-.46c-.05-.04-.06-.16-.01-.26.06-.15.48-.2 1.95-.19 1.85 0 2.37.1 2.17.38-.1.16-3.94.23-4.11.07m1.15-.82a2 2 0 0 1-.63-.2c-.2-.14-.26-1.38-.1-1.77.15-.33.63-.25.74.13.08.3.16.33.9.33.72 0 .8-.03.94-.34.25-.61.5-.3.56.67.02.5-.02.97-.1 1.04-.15.14-1.62.22-2.31.14m1.8-.8c.05-.13-.18-.17-.83-.17-.84 0-1.05.08-.8.32.18.16 1.57.03 1.64-.15m-7.05.37q-.2-.14-.23-.83c-.03-1.1.16-1.33.66-.76.27.3.6.24.6-.1 0-.28.7-.24.8.04.14.43 0 1.53-.22 1.65a3 3 0 0 1-1.6 0m.88-.68a.14.14 0 0 0-.14-.13.3.3 0 0 0-.23.13q-.06.13.14.14.21-.01.23-.14m1.23.62c-.06-.1-.1-.56-.07-1 .04-.62.1-.82.27-.82.13 0 .26.12.3.27.1.35.34.34.34-.01q0-.3.26-.24c.2.04.27.21.3.84.06.87-.15 1.24-.47.85-.25-.3-.33-.3-.43.03-.09.31-.33.35-.5.08" style="fill:#000"/></svg>