<svg xmlns="http://www.w3.org/2000/svg" xml:space="preserve" width="120mm" height="60mm" viewBox="0 0 120 60"><path d="m132.84 44.51 61.9 27.13" style="opacity:1;fill:#000;fill-opacity:.920746"/><path d="M19.17 54.96c-.12-.18.8-.43 1.56-.43.35 0 .77-.07.93-.14.26-.12.97-.28 3.2-.71 1.92-.37 6-1.8 8.35-2.93a70 70 0 0 1 3.39-1.57c.35-.14.9-.49 1.2-.77s.7-.5.86-.5c.74 0 6.84-3.99 10.13-6.63l1.06-.77c.98-.7 6.04-5.08 7.07-6.13l1.52-1.54c1.3-1.3 6.2-5.57 7.38-6.41 2.82-2.03 3.48-2.48 3.6-2.48.06 0 .51-.28 1-.63a11 11 0 0 1 2.34-1.3c.26-.12.74-.4 1.05-.6.3-.2.9-.52 1.32-.69.41-.17.85-.41.97-.54.11-.12.43-.31.7-.42s.59-.24.72-.31c.3-.16.95-.46 3.8-1.7a89 89 0 0 1 6.77-2.63l1.13-.4c.27-.1.76-.27 1.1-.35.66-.19.77-.29.91-.9.12-.51.43-.64.58-.23.06.16.3.36.52.43.33.11.48.09.75-.14.19-.15.63-.34.99-.42.35-.08 1.13-.27 1.73-.43 2.36-.64 3.28-.85 3.7-.85.86 0 .6.26-.55.55a53 53 0 0 0-5.04 1.44c-.08.07-.37.12-.64.13-.27 0-.63.1-.8.2s-.68.31-1.13.44a88 88 0 0 0-6.06 2.1 179 179 0 0 0-8.65 3.75c-.35.17-.9.48-1.23.7-.32.23-.7.41-.83.41s-.33.1-.44.21a.7.7 0 0 1-.43.21c-.12 0-.27.1-.32.2-.05.12-.24.26-.43.3-.34.1-1.53.83-3.39 2.07-.55.37-1.29.84-1.64 1.04-.36.2-.72.44-.81.53s-.53.4-.97.71c-.94.64-7.5 6.42-7.5 6.6 0 .22-5.62 5.29-7.84 7.08-2 1.6-6.41 4.82-7.72 5.62a69 69 0 0 1-5.6 3.18c-.12 0-.36.12-.55.27-.18.14-1.02.56-1.87.92a49 49 0 0 0-2.38 1.07c-.2.07-.97.38-1.7.69-.74.3-1.53.6-1.77.65-.25.05-.48.15-.53.22s-.25.13-.44.13c-.2 0-.65.13-1 .28a4 4 0 0 1-.9.28 1 1 0 0 0-.42.15c-.1.08-.57.2-1.04.28-1.33.19-2.92.5-3.43.68-.54.19-2.15.21-2.28.03m19.87-.25c-.06-.05-.1-.29-.1-.53q0-.78-.73-.78c-.4 0-.99.5-1.07.91q-.06.28-.5.33c-.57.06-.57-.11-.02-1.1.24-.43.52-.97.63-1.2.6-1.26.9-1.76 1.1-1.76s1.22 1.83 1.49 2.68c.06.2.25.53.43.74.17.22.28.47.24.57-.08.18-1.3.3-1.47.14m-.73-2.2c-.2-.18-.42-.04-.26.18.06.08.18.11.27.06q.15-.09-.01-.24m-.65-5.36c-.1-.12-.17-.45-.14-.75.04-.47.1-.54.49-.58.36-.04.45.02.54.33.23.78-.41 1.5-.89 1m0-2.69c-.1-.1-.17-.47-.14-.8.04-.48.12-.63.36-.67.64-.1 1 1 .48 1.45-.31.28-.46.28-.7.02m-.07-2.57c-.06-.05-.1-.37-.1-.7q-.01-.64.26-.7c.63-.22 1.1.58.7 1.2-.16.29-.64.4-.86.2m.1-2.67c-.28-.1-.26-1.1.03-1.31.64-.46 1.24.65.64 1.18-.26.23-.34.24-.67.13m-.12-2.76c-.03-.1-.05-.43-.03-.74.03-.6.4-.82.84-.49.29.2.31 1 .04 1.23-.25.23-.76.22-.85 0m-14.06-2c-.42-.28-.12-.74.44-.67l.6.07c.12.02.3-.08.4-.22.23-.3 0-.67-.51-.88q-.7-.26.08-.74.43-.27.33-.5c-.12-.26-.68-.32-.84-.1-.18.25-.57.15-.57-.13 0-.32.8-.86 1.26-.86.18 0 .5.13.7.27.3.22.39.42.41 1.03.02.4.08 1 .14 1.29q.11.53-.1.9c-.42.67-1.68.96-2.34.54m3.2.03c-.31-.26-.24-.45.42-1.18.34-.38.71-.84.82-1.01.4-.68-.3-1.3-.83-.73-.31.33-.77.28-.77-.08 0-.12.18-.38.4-.57.83-.73 2.34-.22 2.34.78 0 .26-.22.7-.56 1.13-.31.39-.57.73-.57.76s.24.09.53.11c.61.05.8.48.35.78-.37.23-1.88.24-2.14.01m2.94.02a5 5 0 0 1-.16-1.26c-.03-.83.02-1.16.19-1.28.13-.1.96-.19 2-.21l1.78-.05.16.36c.08.2.15.86.15 1.47 0 1.01-.03 1.12-.3 1.12q-.88 0-.65-1.05.24-1.12-.32-1.03c-.2.03-.27.25-.3.96-.06 1.02-.17 1.2-.69 1.05-.33-.09-.35-.17-.29-.93.05-.6.01-.88-.15-1q-.5-.34-.52.95 0 1.05-.6 1.05a.4.4 0 0 1-.3-.15m8.07-1.03c-.13-.44.2-.96.54-.9.31.05.43.4.29.9-.13.45-.7.45-.83 0m-3.28-.92c-.28-.15-.13-.73.33-1.28.4-.47.27-.74-.28-.62-.48.1-.54-.2-.1-.56.43-.33.93-.28 1.3.13l.33.37-.36.63c-.33.6-.33.64-.07.77.35.17.36.49.03.6-.37.13-.92.1-1.18-.04m3.32-1.37c-.2-.18-.12-1 .13-1.18.44-.32.75-.06.7.6-.04.48-.12.6-.38.64-.19.02-.38 0-.45-.06m.17-2.6q-.28-.14-.28-.6 0-.86.58-.77c.23.04.32.2.35.62.06.66-.2.96-.65.75m-18.45-1.54c-.13-.2 0-.22 2.91-.5 1.42-.13 2.7-.3 2.84-.35.15-.07.76-.22 1.38-.34 2.86-.55 7.2-1.73 8.57-2.32.37-.16.78-.29.92-.29.13 0 .28-.06.33-.13s.3-.17.57-.22c.56-.1 3.69-1.3 5.17-1.97l3.23-1.45c3.05-1.38 3.77-1.72 3.94-1.87a1 1 0 0 1 .42-.14c.14 0 .72-.28 1.29-.63a6 6 0 0 1 1.2-.63c.1 0 .44-.17.74-.37s.72-.42.91-.48c.31-.11 1.5-.77 2.82-1.56.24-.14.62-.3.85-.35s.42-.15.42-.21c0-.07.3-.26.68-.43s.91-.45 1.18-.64a8 8 0 0 1 1.3-.63c.43-.16.9-.38 1.03-.47a50 50 0 0 1 6.77-2.75 6 6 0 0 0 1.2-.43c.28-.15 1.13-.44 1.88-.65.76-.2 1.44-.43 1.53-.5a1 1 0 0 1 .45-.11c.16 0 .5-.1.76-.21.58-.26 2.36-.47 2.21-.25-.06.08-.49.22-.95.31-.94.19-2.08.53-2.7.8-.23.1-.5.19-.62.2-.1 0-.68.18-1.27.41-.59.24-1.2.43-1.36.43s-.33.06-.38.13-.6.26-1.22.43-1.17.37-1.22.44-.65.36-1.33.64c-3.15 1.28-4.01 1.65-4.31 1.87-.41.31-1.5.85-1.7.85-.09 0-.46.2-.83.43s-.76.42-.88.42a.5.5 0 0 0-.34.19c-.07.1-.68.48-1.37.84l-2.13 1.15c-.49.27-1 .5-1.13.5a1 1 0 0 0-.45.19c-.12.1-.73.45-1.34.78l-1.37.73c-1 .53-7.83 3.6-10.03 4.49-.77.31-1.44.66-1.5.78-.05.13-.3.21-.64.21a6 6 0 0 0-2.12.56q-1.45.57-2.74.9l-1.46.4-1.61.42-2.17.55c-.57.15-1.28.27-1.58.27s-.7.07-.88.15c-.6.28-5.7.64-5.87.4m18.28-1.21c-.2-.18-.12-1 .13-1.18.39-.28.75.08.7.7-.04.38-.13.5-.38.54-.19.02-.38 0-.45-.06m52.4-6.12c-.13-.12-.13-.28-.01-.59.1-.26.13-.93.06-1.75l-.1-1.33.6.04c.61.05.61.05.61.68 0 .55.05.64.37.68.49.06.64-.33.3-.82-.14-.21-.2-.42-.15-.47.21-.19.98-.09 1.23.16.3.3.36 1.02.1 1.25-.14.12-.12.25.07.49.39.48.33 1.06-.15 1.48-.3.26-.5.33-.77.26a2.6 2.6 0 0 0-1.4-.01q-.56.1-.75-.07m2.06-.63c.26-.44.06-.82-.46-.89-.42-.05-.64.5-.36.95.24.4.55.37.82-.06m-12.71-7.6c-.5-.31-.62-.96-.27-1.48.27-.4.27-.44 0-.84-.36-.54-.2-1.08.39-1.35q1.02-.47 1.7.17.67.63.15 1.08c-.14.12-.25.3-.25.42 0 .1.11.28.25.38s.24.41.24.79c0 .53-.06.63-.48.82-.6.28-1.29.28-1.73 0m1.27-.56c.2-.38-.03-.78-.44-.78-.35 0-.44.27-.23.71.24.5.43.53.67.07m-.11-2.27c0-.15-.13-.29-.28-.32-.29-.04-.41.38-.18.59.2.17.46.01.46-.27m1.58 2.81c-.05-.12-.02-.5.06-.83.13-.48.11-.68-.09-.97-.23-.33-.23-.39 0-.58.2-.19 1.3-.27 2.4-.2.14.02.44-.02.68-.08.35-.08.52-.02.87.28.36.31.41.46.35.96-.04.33-.01.73.06.9.25.6-.16.9-.89.66-.2-.06-.23-.24-.15-.96.07-.64.04-.92-.11-1-.28-.15-.66.32-.57.7.04.16.1.51.12.78.05.5.04.5-.6.5-.56 0-.63-.04-.57-.28.04-.16.08-.6.08-.99 0-.56-.05-.7-.28-.75-.24-.04-.28.08-.28.94 0 .76-.05 1-.25 1.06q-.66.22-.83-.14m8.94-.14c-.2-.18-.12-1.14.11-1.3.34-.25.62.14.56.78-.05.5-.38.77-.67.52M87 9.63c-.38-.09-.35-.2.2-.82.61-.67.64-1.06.09-1.06q-.68-.02-.17-.6c.3-.35.87-.26 1.25.19.28.33.29.39.04.9-.23.49-.23.54.02.7.22.14.24.23.08.48-.18.3-.75.38-1.5.2m4.18-1.11c-.23-.53-.05-1.33.3-1.33.41 0 .57 1.07.21 1.38-.26.23-.4.21-.51-.05M77.2 5.92c0-.07.2-.17.44-.21.25-.05.65-.17.9-.29s.74-.2 1.07-.2.92-.1 1.3-.21c.38-.12.97-.22 1.3-.22.35 0 .97-.1 1.4-.22.42-.13 1.2-.3 1.74-.36 1.44-.19 5.74-.44 5.85-.34.23.2-.27.29-2.19.39-1.12.06-2.4.17-2.85.25s-1.25.2-1.78.26-1.07.16-1.2.23a6 6 0 0 1-1.29.23c-1.46.15-2.75.4-3.26.64-.5.22-1.43.26-1.43.05m14.08-.02c-.35-.31-.2-1.25.2-1.25s.54.78.2 1.18c-.16.2-.24.2-.4.07m.7-2.1q.5-.41 5-.38c2.66.03 3.06.07 3.1.26.05.2-.37.23-4.1.25q-4.13.02-4-.12" style="fill:#000"/></svg>