<svg xmlns="http://www.w3.org/2000/svg" xml:space="preserve" width="120mm" height="60mm" viewBox="0 0 120 60"><path d="m132.84 44.51 61.9 27.13" style="opacity:1;fill:#000;fill-opacity:.920746"/><path d="M85.28 56.28c-.1-.24.29-.59.48-.42.18.16.02.6-.22.6a.3.3 0 0 1-.26-.18m-59.56-.1c-.14-.15-.13-.21.05-.37.24-.22.52-.06.44.26-.05.28-.28.32-.49.1m66.9-.05c0-.27.33-.38.52-.18s.06.4-.27.4q-.23 0-.24-.22m-52.3-.1c-.03-.06.02-.17.12-.25.16-.1.23-.1.38 0 .24.17.14.34-.19.34-.13 0-.27-.04-.3-.1m45.1-.75a1 1 0 0 1-.03-.42c.03-.2.12-.26.36-.26.27 0 .32.05.35.42.04.39.02.42-.29.42-.18 0-.36-.07-.4-.16m6.95-.07c-.18-.3-.06-.78.2-.78.27 0 .52.53.36.76q-.31.43-.56.02m-66.7-.1c-.12-.3.03-.68.25-.68.28 0 .48.4.31.67-.07.13-.21.23-.31.23q-.17-.02-.26-.23m14.63-.06c-.12-.29.01-.57.3-.6.21-.03.3.03.36.25.04.15.04.33 0 .4-.12.17-.58.14-.66-.05m45.2-1.01c-.09-.1-.14-.3-.11-.48.03-.26.1-.32.36-.32.25 0 .32.06.36.32.03.3-.16.64-.36.64-.06 0-.17-.07-.25-.16m6.8-.11q-.18-.65.28-.73c.33-.04.51.43.3.78-.18.3-.49.28-.58-.05m-66.55.02c-.21-.19-.2-.6.04-.77.28-.2.47 0 .42.46-.04.4-.22.53-.46.31m14.66-.11c-.22-.19-.2-.49.04-.66.3-.22.63.1.52.5-.1.31-.32.38-.56.16m-14.76-1.26c-.1-.36.04-.75.27-.75.25 0 .42.34.32.67-.11.4-.48.44-.59.08m59.93.13c-.25-.12-.29-.55-.07-.74.24-.22.62.04.62.41 0 .36-.22.5-.55.33m6.75.06c-.1-.1-.11-.53 0-.77.1-.25.39-.22.56.07.25.4-.22 1-.56.7m-51.92-.18c-.39-.33.01-1.06.42-.76.3.23.17.9-.2.9-.04 0-.14-.06-.22-.14m51.99-1.13c-.3-.27-.14-.88.24-.88.3 0 .44.46.25.78-.16.27-.28.3-.5.1m-66.67-.14c-.24-.25-.12-.8.18-.8.33 0 .5.56.24.8-.23.2-.23.2-.42 0m59.72.1c-.17-.16-.1-.84.1-.84.25 0 .58.32.58.56 0 .27-.48.45-.68.27m-45.11-.12c-.16-.14-.09-.69.1-.83.38-.28.72.22.5.72-.08.18-.45.25-.6.1m-14.6-1.22c-.09-.09-.14-.33-.12-.54.03-.29.1-.38.34-.4.27-.04.29-.01.25.5q-.07.85-.47.44m59.55-.11c-.1-.35.04-.74.27-.74.2 0 .4.7.25.9-.14.2-.44.12-.52-.16m7.15.05c-.1-.15.33-.8.53-.8q.17 0 .17.46c0 .4-.04.45-.31.45-.17 0-.35-.05-.4-.11m-52.13-.16a1 1 0 0 1-.04-.43c.04-.2.13-.26.36-.26.28 0 .32.05.32.4 0 .32-.05.4-.28.43-.17.02-.32-.04-.36-.14m46.77-.72q-.6-.5 0-.87c.18-.1.4-.36.5-.57.19-.38.2-.39.55-.22.38.18 1.23.13 1.54-.1q.16-.12.31.02c.2.17 1.05.17 1.22-.01a1 1 0 0 0 .17-.42c.05-.33.45-.45.57-.18.05.1-.01.27-.13.38-.3.3-.27 1.11.05 1.26q.27.12.26.52c0 .46-.28.62-.62.35q-.4-.33-1.13-.06c-.2.08-.94.14-1.66.14-1.2.01-1.34 0-1.63-.24m-54.47.07a6 6 0 0 0-1.2-.04c-.4.05-.56.01-.8-.19-.39-.32-.38-.7.02-.93.17-.1.35-.3.4-.45.07-.27.1-.27 1.07-.21s1.01.05 1.12-.21l.11-.27.1.25c.07.21.18.26.64.26.6 0 .7-.1.7-.7v-.35l-.6.08c-.76.11-.95.11-1.82.01-.7-.08-.7-.07-.92.28-.24.37-.43.4-.66.08-.11-.16-.04-.26.36-.56.28-.2.7-.42.95-.48q.44-.13.65-.45c.31-.5.57-.6.89-.35.14.12.26.27.26.35 0 .17.55.5.83.5.1 0 .25.13.31.28.07.14.18.3.25.34.17.1.18.54.03.69-.06.06-.15.29-.2.51-.07.36-.04.42.26.54q.33.15.25.31c-.04.1-.07.3-.07.45q.01.29-.25.28c-.14 0-.28-.06-.33-.12-.12-.17-1-.13-1.28.06a1 1 0 0 1-.3.15zm1.9-.96q-.01-.04-.25-.04c-.14 0-.25.04-.25.1q.02.1.25.04c.14-.03.26-.08.26-.1m50.65.36c-.23-.32-.2-.68.06-.68.27 0 .68.54.58.76-.12.28-.4.24-.64-.08m7.56.2c-.11-.1-.12-.52-.02-.76.1-.22.55-.24.63-.04.17.4-.33 1.06-.61.8m-67.07-.2c-.14-.32 0-.68.28-.72.22-.03.29.04.33.3.03.17.03.38 0 .45-.07.19-.53.16-.61-.03m14.65 0c-.14-.33.01-.68.3-.72.34-.04.48.2.36.6-.08.31-.54.4-.66.12m-14.55-1.1c-.22-.2-.2-.72.04-.89.3-.21.47 0 .42.52q-.06.7-.46.37m58.43-.13c-.42-.31-.45-.53-.05-.53.3 0 .85.42.85.66 0 .21-.41.15-.8-.13m9.21.05c0-.23.5-.58.83-.58.3 0 .22.4-.12.61-.42.24-.7.23-.7-.03m-53.08-.17c-.12-.42-.02-.7.25-.7.32 0 .55.57.33.8-.24.25-.5.2-.58-.1m49.28-.4c-.13-.32-.18-.35-.75-.35-.67 0-.84.07-.96.37-.12.27-.6.26-.6 0 0-.12.21-.4.48-.63.35-.3.6-.42.9-.42s.44-.06.53-.25c.06-.14.23-.37.37-.52l.26-.26.32.32c.17.17.34.4.38.49.04.1.28.27.55.4.26.12.46.27.44.33-.01.06-.32.13-.67.15-.6.03-.66.06-.78.37-.17.42-.3.42-.47 0m-6.75-.19c-.15-.1-.28-.24-.28-.33 0-.24.55-.2.9.04.53.38-.04.65-.62.3m11.89.07q-.18-.23.45-.51c.36-.17.76-.13.76.07 0 .12-.76.55-.98.55a.3.3 0 0 1-.23-.11m-13.28-.53a1 1 0 0 1-.51-.3c-.13-.14-.34-.23-.49-.21-.3.04-.95-.37-.95-.61 0-.33.9-.05 1.19.37.05.08.23.13.39.12.39-.03 1.1.25 1.1.42 0 .12-.34.33-.43.27zm-55.77-.11c-.15-.14-.09-.8.09-.87.34-.11.54.21.48.8-.02.15-.42.2-.57.07m14.72-.03c-.24-.13-.14-.73.14-.78.31-.05.57.47.35.71-.18.2-.25.2-.49.07m55.8-.05c0-.19.94-.58 1.13-.48.22.12.16.39-.1.52-.37.17-1.03.14-1.03-.04m1.65-.57c0-.19.6-.63.84-.63.31 0 .34.24.05.51-.32.3-.89.38-.89.12m-72.2-.8a1 1 0 0 1-.03-.41l.04-.26 3 .03c2.4.02 3.12-.01 3.62-.15.78-.22 1.59-.22 1.91 0q.25.15 1.12.16c.65 0 .86.04.86.16q0 .16-.6.22l-1.44.17a7 7 0 0 1-1.46.01c-.35-.05-1.9-.1-3.46-.1-2.35 0-2.84.02-2.98.17-.2.21-.5.21-.58 0m14.77.02a2 2 0 0 1-.21-.34c-.07-.18-.21-.2-1.52-.13-1.4.06-1.88-.01-1.7-.28.06-.07.5-.12 1.07-.13.54 0 1.27-.05 1.62-.1.7-.1.96.03 1.2.6.17.4-.2.7-.46.38m45.77-.08-3.6-.09c-.1-.07 0-.35.13-.39.09-.03 1.42-.06 2.96-.07 1.58-.01 3.06-.08 3.4-.15.45-.1.8-.1 1.46.01.48.08 1.44.14 2.12.13.77-.02 1.24.02 1.24.1 0 .22-.1.23-3.76.49-.2.01-1.99 0-3.95-.03m-7.12-.18c-.22-.5.07-1 .42-.7.25.24.13.88-.18.88-.09 0-.2-.08-.24-.18m19.72-.11c-.1-.24.16-.73.39-.73.25 0 .37.4.2.68-.16.27-.49.3-.6.05m-4.16-.13q-.2-.06-.22-.14c0-.17.4-.23 1.47-.23 1.04 0 1.45.13 1.06.35-.17.1-1.9.12-2.3.02m-69.1-.87c-.1-.32.13-.75.39-.75.29 0 .46.4.32.73-.17.38-.6.4-.71.02m14.81.2c-.13-.11-.1-.75.03-.94q.1-.16 0-.37c-.2-.32.04-.93.37-.97.24-.03.28.01.28.37 0 .23-.06.5-.13.62q-.12.2.03.56c.11.26.12.4.02.55-.15.21-.46.3-.6.18m38.82-.33c-.09-.21.55-.84.86-.84.12 0 .31-.13.43-.28.15-.21.32-.29.64-.29.24 0 .47.05.5.1.11.15-.4.45-.88.53a1 1 0 0 0-.64.43c-.35.55-.76.7-.9.35m19.22-.28q-.45-.56.1-.56c.26 0 .77.5.77.75 0 .29-.58.16-.87-.19m-72.78-.78c-.18-.3-.16-.8.04-.8.28 0 .47.26.47.65 0 .42-.3.5-.5.15m71.45.09c-.52-.17-.35-.38.3-.38.49 0 .57.03.6.25.04.2-.01.26-.25.25-.16 0-.45-.06-.65-.12m-14.94-.37c-.24-.16-.23-.17.24-.35.62-.23.92-.16.72.17-.07.12-.19.23-.25.23s-.19.02-.28.06-.3-.02-.43-.11m13.13-.18q-.48-.47.47-.27.54.1.59.3c.06.3-.75.27-1.06-.03m-11.47-.34c-.13-.2.18-.44.65-.52q.43-.07.43-.26c0-.1.14-.36.3-.58.17-.21.34-.61.38-.89.08-.56.24-.75.53-.65.31.1.25.72-.11 1.02q-.33.25-.2.43c.14.22-.4.89-.72.89q-.16.02-.18.22c0 .34-.89.61-1.08.34m10.1-.02c-.36-.12-.5-.54-.18-.54.42 0 .99.26.95.43q-.07.34-.77.11m-68.5-.3c-.26-.15-.26-.81 0-.96.3-.17.4-.05.4.5q.04.72-.4.46m15.32-.16c-.11-.28.15-.82.4-.82.2 0 .24.07.22.38-.02.48-.47.8-.62.44m52.1-.34c-.32-.37-.26-.88.1-.88.17 0 .53.69.45.86-.08.2-.38.21-.55.02m-67.88-.74c-.04-.06-.1-.32-.16-.6s-.2-.65-.32-.84c-.3-.43-.3-.73 0-.73q.51.02.53.62c0 .2.1.42.26.54.25.2.32.58.17.92-.08.2-.37.24-.48.09m16.2-.22c-.12-.17.07-.84.24-.9.27-.09.54.17.47.45-.1.37-.57.67-.72.45m51.22-.1c-.04-.04-.08-.27-.08-.51 0-.36.04-.44.25-.44.42 0 .54.92.12 1-.1.01-.24 0-.29-.05M41.6 38.26c-.13-.2.04-.65.28-.73.33-.11.5.11.35.47-.13.33-.48.47-.63.26m44.07-.4c-.13-.3.07-.73.34-.73q.25 0 .33.28.16.6-.33.62c-.14 0-.3-.07-.34-.17m6.3-.16c-.07-.42.07-.63.34-.53q.22.06.18.44c-.06.5-.44.57-.52.1m-68.28-.83c-.28-.42-.3-.5-.12-.6.24-.12.6.07.76.4.3.63-.23.8-.64.2m18.4.2c-.04-.1.02-.27.13-.38s.2-.26.2-.32c0-.15.27-.24.49-.18.23.08.2.35-.1.72-.3.36-.6.43-.72.16m-28.23-.36c-.26-.03-.54-.12-.62-.21s-.22-.16-.31-.16c-.1 0-.32-.18-.5-.4-.3-.35-.36-.52-.38-1.28-.03-1.09.2-1.47 1.16-1.88 1.14-.5 2.77-.35 3.58.32.5.4.66.8.66 1.6v.75l-.72.62c-.61.54-.77.62-1.08.56-.2-.03-.39-.01-.43.05-.08.1-.43.11-1.36.03m1.92-.5c.29-.14.76-.5 1.05-.8.46-.49.51-.6.44-.94-.05-.22-.2-.45-.33-.51q-.23-.12-.25-.26c0-.21-1.15-.9-1.37-.82-.16.06-.13.12.14.34.38.31.44.75.13 1.02-.18.16-.17.2.07.47.37.42.34.88-.07 1.17-.19.12-.42.23-.51.23-.19 0-.23.14-.1.26.14.12.24.1.8-.17m-2.18-.31c-.35-.29-.39-.35-.24-.51.26-.28.56-.22.8.16.26.4.46.42.84.1.37-.3.22-.66-.4-.93q-.87-.35-.02-.48c.46-.08.65-.33.5-.66-.12-.27-.6-.22-.92.1-.16.17-.35.25-.47.2-.33-.1-.16-.52.29-.72.22-.1.37-.22.32-.26q-.28-.28-1.21.52c-.68.59-.7.61-.67 1.19.03.67.28 1.08.87 1.4.6.32.78.26.31-.11m78.46.74c-.13-.3 0-.81.2-.81.26 0 .32.65.07.84-.16.12-.21.11-.27-.03m-19.25-.18c-1.11-.54-1.58-1.1-1.58-1.93 0-1.75 2.31-2.81 4.2-1.94.56.26 1.01.65 1.02.88 0 .07.09.19.2.27q.19.14.19.73 0 .6-.2.74c-.1.07-.19.22-.19.33 0 .24-.56.7-1.18.94-.62.25-1.92.24-2.46-.02m2.26-.4c1.08-.4 1.53-1.4 1.02-2.3-.33-.56-.83-.93-1.28-.93h-.34l.05.88c.05 1.07.08 1.16.4 1.16.36 0 .32.27-.06.43-.33.13-.4.3-.2.41.29.16.11.29-.37.29-.5 0-.76-.15-.51-.28a.3.3 0 0 0 .12-.23q.01-.16-.65-.2-.65-.03-.79-.21c-.13-.2-.01-.36 1.61-2.13.32-.34.2-.4-.45-.24-.94.25-1.08.32-1.44.74-.3.34-.36.52-.36 1.09 0 .59.05.71.37 1.02.2.19.55.41.76.5.51.2 1.59.2 2.12 0m-1.22-1.35c.04-.1.06-.3.03-.48l-.04-.32-.3.36c-.16.2-.25.42-.2.48.1.17.43.14.51-.04m11.83 1.68c-.1-.38.02-.62.31-.62.27 0 .46.42.33.73-.13.28-.55.21-.64-.1m-62.75-.68c-.17-.4-.16-.47.06-.54.28-.1.94.58.74.76s-.68.05-.8-.22m19.89.15c0-.27.6-.8.8-.73.28.1.26.21-.05.57-.28.3-.76.4-.75.16m42.9-.5c-.05-.05-.1-.28-.1-.52 0-.46.32-.71.53-.41.3.43-.07 1.25-.44.93m6.48-.34c.13-.55.17-.6.38-.6.15 0 .2.1.16.42-.03.34-.1.43-.33.46-.26.03-.28 0-.21-.28m-70.15-.48q-.5-.6-.02-.58c.27 0 .94.64.83.8-.14.21-.56.1-.81-.22m21.7.2c-.13-.2.39-.72.76-.76q.66-.05.02.58c-.34.32-.63.39-.77.18m41.7-.74c-.04-.04-.08-.25-.08-.46 0-.33.04-.38.29-.35.37.05.62.62.35.78q-.36.18-.55.03m6.83-.4c.03-.4.09-.5.3-.52q.52-.04.33.62-.1.32-.38.36c-.27.03-.29 0-.25-.46m-47.51.07c-.09-.19.37-.68.72-.78.12-.04.28-.19.36-.34s.25-.28.4-.28c.37 0 .43.19.12.43-.3.25-.42.35-.92.82-.4.37-.57.41-.68.15m-23.85-.2c-.2-.19-.24-.29-.14-.38.24-.21 1 .16 1 .5 0 .24-.56.17-.86-.12m-.96-.71c-.18-.16-.08-.5.15-.5s.65.33.65.5c0 .1-.7.1-.8 0m65.29-.21q0-.29.24-.28c.25 0 .4.19.3.42-.03.08-.17.14-.3.14q-.25.01-.24-.28m7.3.12c-.09-.23.06-.4.35-.4.3 0 .34.4.05.5s-.31.08-.4-.1M19.57 28.8c-.16-.14-.08-.5.11-.5.1 0 .2.1.2.23 0 .23-.18.38-.3.27m24.04 0q-.15-.08-.16-.28-.02-.24.28-.2c.16.03.3.13.33.23.04.2-.2.32-.45.24m40.95-.22q-.14-.37.3-.38c.24 0 .44.28.32.46s-.54.11-.62-.08m13.22 0c-.05-.1.01-.26.13-.36.19-.17.23-.17.4-.01.11.1.16.25.12.36-.1.24-.55.25-.65.01m-78.09-.71c-.23-.33.25-1.03.58-.86.13.08.15.51.04.78-.09.2-.5.24-.62.08m23.59-.09c-.05-.04-.09-.22-.09-.4 0-.44.45-.45.55 0 .04.17.04.34 0 .4-.07.1-.35.1-.46 0m54.99-.02c-.27-.15-.15-.97.15-1.02s.47.19.38.55c-.1.38-.33.58-.53.47m-13.84-.23c-.31-.3-.22-.63.18-.63.28 0 .32.05.36.42.04.48-.18.57-.54.2M19.99 26.3c0-.42.28-.76.56-.67.26.09.26.4 0 .73-.27.36-.56.32-.56-.06m22.9.24c-.05-.04-.09-.25-.09-.46 0-.29.05-.37.24-.37.26 0 .6.58.47.78-.1.14-.5.16-.62.05M84 26.1c-.1-.3-.1-.42.03-.52.25-.18.52-.05.6.31.14.7-.4.88-.63.21m14.44.21c-.1-.09.03-.6.2-.8q.3-.32.42.13c.13.46-.32.94-.62.67m-78.2-1.28c0-.12.11-.33.26-.46.2-.18.3-.2.44-.1s.15.18-.01.46c-.23.38-.7.45-.7.1m22.25.05c-.26-.59.15-1.1.52-.66.25.31.16.77-.17.81q-.26.02-.35-.15m41.3.1c-.05-.04-.1-.3-.1-.56q0-.52.2-.5c.24 0 .44.36.44.79 0 .26-.05.35-.23.35-.13 0-.27-.04-.32-.08m14.87-.2c-.1-.21.3-.88.5-.83.2.07.26.63.08.83-.2.2-.5.2-.58 0M42.3 23.84q-.48-.55-.08-.85c.4-.29.85.57.5.98-.12.16-.17.15-.42-.13m-21.68-.27c0-.51.3-.7.52-.33.2.32.04.77-.27.77-.2 0-.25-.07-.25-.44m62.85.26c-.2-.08-.2-.8-.02-.9.21-.11.5.2.54.58.03.32-.17.44-.52.32m15.51-.1c-.26-.28 0-.8.4-.8.25 0 .32.07.35.33.07.54-.4.83-.75.46m-78.05-1.08c-.05-.07-.05-.3 0-.52.07-.32.13-.39.36-.36.33.04.43.42.22.77-.15.25-.44.3-.58.1m21.02-.28c-.23-.31-.16-.62.14-.62.24 0 .5.48.4.73q-.16.38-.54-.1m57.38-.08c-.13-.42.04-.77.37-.77.41 0 .47.16.26.62-.22.45-.52.53-.63.15m-16.24 0c-.23-.2-.2-.65.05-.73.26-.09.58.27.53.58-.04.27-.36.35-.58.16m-54.04-.67q-.76-.43-.07-1c.3-.25.32-.34.26-.86-.06-.54-.03-.6.34-.93.22-.19.58-.36.78-.38q.39-.02.64-.4c.4-.56.78-.6 1.26-.12.22.22.56.48.75.58s.43.33.53.5c.33.57-.05 1.43-.72 1.64q-.14.06-.08.13c.05.05.2.02.34-.06.2-.11.33-.11.6 0 .29.1.33.19.3.55-.05.46-.07.47-1.15.3q-.48-.07-.76.11c-.34.21-1.04.24-1.6.07q-.39-.12-.7-.01c-.24.08-.4.05-.72-.12m2.4-1.85c.15-.35.48-.37.53-.03.05.3.46.4.86.2q.28-.1.27-.5v-.37L31.55 19c-.85-.03-1.6-.02-1.65.02s-.13.23-.17.43c-.07.31-.04.38.22.47.16.06.54.11.84.12.47 0 .57-.04.67-.28m57.3 1.75c-.43-.3-.45-.72-.03-.96.17-.1.37-.33.46-.51.17-.36.25-.4.46-.21.08.06.45.1.82.08.6-.03.7-.07.73-.29.05-.31.28-.33.37-.03.1.31.5.4 1.08.22.42-.12.5-.19.43-.38a2 2 0 0 1-.07-.43c0-.26-.67-.27-1.2-.03-.34.16-.42.16-.92-.05-.3-.13-.73-.23-.95-.23-.3 0-.38-.05-.35-.2q.03-.2.55-.25c.46-.05.54-.12.81-.6.16-.29.26-.58.22-.64q-.1-.12-4.32-.12c-3.7 0-4.27.02-4.53.18-.34.21-.46.13-.58-.36-.1-.42.17-.58.6-.36.2.1 1.28.15 3.74.18 3.13.04 3.54.02 4.28-.18a5 5 0 0 1 2.81.09c.6.14.8.13 2.32-.1 1.09-.18 5.5-.19 5.73-.02.31.23-.01.9-.44.9q-.24 0-.28-.3l-.04-.3-1.77.03c-.98.02-1.9.08-2.05.13-.16.05-1.28.1-2.5.12-2.74.03-2.71.02-2.48.42a4 4 0 0 0 1.18 1.16c.06 0 .27.12.47.27.39.28.39.24.1 1.25-.08.25-.09.47-.03.48.42.13.53.32.42.76-.12.52-.42.64-.8.33-.23-.18-.31-.19-.8-.05-.29.08-.84.13-1.23.12-1-.05-1.3-.04-1.6.05q-.26.08-.6-.17m-67.41-.18c-.26-.23-.02-.95.31-.95.19 0 .24.09.24.38 0 .47-.3.78-.55.57m20.25-.22c-.04-.1-.07-.3-.07-.46 0-.23.05-.27.27-.25.28.04.56.58.41.8-.1.16-.52.1-.6-.09m41.17-.25q-.3-.57.17-.59c.24 0 .57.61.44.8-.14.2-.43.1-.6-.2m16.99.14c-.12-.13-.13-.26-.05-.48.17-.42.49-.4.54.04s-.25.7-.5.44m-78.18-1.1c-.12-.27.17-.78.42-.74.32.06.28.54-.06.74-.25.15-.3.15-.36 0m19.7-.07c-.33-.54.08-1.09.46-.63.23.28.21.7-.03.78-.28.1-.29.1-.43-.15m41.23-.08c-.14-.32-.08-.84.09-.84.28 0 .47.26.47.65 0 .29-.05.37-.24.37-.13 0-.28-.08-.32-.18m17.53.03c-.22-.23.06-1 .34-.96.26.05.35.56.15.88q-.22.4-.5.08m-11.01-.42c-.31-.16-.28-.43.06-.55q.53-.18.46.34-.06.45-.52.2m-67.17-.75c-.15-.13-.09-.57.1-.71.3-.21.58-.05.58.32s-.43.62-.68.4m60.34-.06c-.33-.29-.1-1.09.28-.96.27.1.42.87.2 1-.24.13-.3.12-.48-.04m-41.37-.31q-.16-.58.31-.57c.28 0 .44.35.32.68-.12.35-.54.28-.63-.11m59.38.23c-.11-.17.28-.91.49-.91.19 0 .34.23.34.5 0 .35-.65.66-.83.4m-78.03-1.56.04-.41 4.02.03c3.37.02 4.1 0 4.58-.15q1.08-.34 1.8 0c.3.13.8.16 2.44.15 1.14-.02 2.16-.07 2.27-.12s.87-.12 1.7-.16a8 8 0 0 0 1.48-.16q-.02-.07-.12-.18c-.11-.1-.18-.42-.15-.7.02-.24.38-.15.6.14q.2.29.13.56c-.05.16 0 .5.1.77.27.67.05.84-.42.33-.34-.37-.37-.38-1.04-.3-.38.04-1.87.11-3.3.16-1.45.05-3.08.15-3.63.22q-1 .12-1.85.01c-.46-.05-2.42-.1-4.36-.1-2.97 0-3.54.02-3.68.16a.6.6 0 0 1-.4.17c-.2 0-.24-.07-.2-.42m.33-.96a1 1 0 0 1 0-.51q.05-.39.3-.37.47 0 .26.62c-.1.36-.45.52-.56.26m59.06-.22c-.09-.08-.16-.28-.16-.46 0-.4.44-.45.56-.06.18.6-.02.85-.4.52m19.34-.18c0-.34.2-.6.47-.6.17 0 .22.42.09.73-.04.1-.19.18-.32.18q-.25.02-.24-.31m-60.9-1.12c-.2-.6-.18-.72.1-.72.35 0 .55.28.5.7-.06.56-.43.57-.6.02m-17.25.15c-.1-.22.26-.9.45-.84.37.11.24 1-.15 1-.13 0-.27-.08-.3-.16m58.45-.24c-.23-.32-.2-.68.06-.68.1 0 .3.13.44.3.21.26.23.34.09.48-.23.24-.35.22-.59-.1m20 0c-.13-.3.07-.74.33-.74.32 0 .37.1.3.54q-.06.37-.31.36c-.14 0-.28-.07-.32-.16m-78.1-1c-.2-.14-.2-.19-.04-.48.25-.47.67-.45.72.03.05.44-.31.68-.68.44m16.56-.23c-.12-.43-.02-.7.27-.7.2 0 .25.08.25.45 0 .34-.06.46-.22.5q-.22.02-.3-.25m41.32.06c-.43-.43-.1-1.04.37-.7.22.17.2.8-.02.87-.07.02-.23-.05-.35-.17m20.49-.06c-.1-.23.29-1 .48-.95.1.03.16.24.16.55 0 .43-.04.5-.29.53-.16.02-.31-.03-.35-.13m-78.14-1.16c-.11-.27.13-.77.4-.82q.57-.1.23.58c-.23.44-.5.54-.63.24m15.95-.33c-.1-.46.12-.7.42-.48.24.17.15.81-.12.86-.16.02-.24-.08-.3-.38m41.28.24c-.04-.1-.08-.34-.1-.55 0-.3.04-.37.27-.4.3-.04.48.29.4.78-.05.31-.46.43-.57.17m21.2-.02c-.04-.04 0-.25.09-.48.2-.52.62-.58.68-.1.03.18-.02.4-.1.48-.16.17-.53.22-.67.1m-77.94-1.17c-.1-.05-.15-.23-.12-.42.05-.44.53-.47.59-.03.04.33-.22.59-.47.45m15.23.03c-.13-.12-.1-.81.05-.89.18-.1.62.4.63.7 0 .2-.07.26-.3.26-.16 0-.33-.03-.38-.07m41.22-.25c-.2-.33-.17-.7.06-.77.27-.1.45.16.4.58-.03.4-.28.5-.46.19m21.9-.06c0-.32.26-.75.45-.75.27 0 .26.75 0 .84-.33.1-.44.08-.44-.1m-63.24-.9c-.23-.21-.4-.8-.28-.97.1-.16.53-.15.64 0 .13.18.1.9-.04 1.03q-.13.1-.32-.07m-15-.23c0-.43.23-.86.45-.86.16 0 .2.1.16.54-.03.45-.08.54-.32.57s-.29-.02-.29-.25m-10.13.06a2.2 2.2 0 0 1-1.4-.69c-.34-.32-.37-.42-.42-1.34-.05-.95-.04-1 .29-1.36.2-.2.61-.47.94-.6.5-.2.73-.23 1.63-.17 1.15.08 1.72.3 2.17.84.93 1.12.49 2.47-1.04 3.17a6 6 0 0 1-2.17.15m1.27-.47c-.09-.13-.53-.13-.89 0-.19.07-.1.1.36.1q.59.01.53-.1m-1.46-.23c0-.06.14-.16.32-.22.32-.1.32-.13.29-1.16-.04-.99-.05-1.05-.32-1.08-.43-.06-.35-.32.11-.4q.42-.07.28-.2c-.2-.18-.74 0-1.3.43-.53.4-.53.4-.53 1.2 0 .75.03.85.38 1.18.36.36.77.49.77.25m2.83-.21c.12-.1.23-.23.23-.3 0-.08.1-.3.2-.47.45-.69-.31-1.77-1.44-2.06-.21-.05-.44-.06-.5-.02A5 5 0 0 0 14.9 7c.06 1.28.08 1.35.34 1.39.16.02.35.1.43.19q.25.25.79-.16m56.43.75c-1.06-.3-1.92-1.52-1.72-2.45.11-.54.82-1.29 1.5-1.58.66-.28 1.93-.32 2.31-.06a1 1 0 0 0 .45.16c.25 0 1.02.69 1.03.91 0 .1.09.27.19.39.24.28.24 1.01 0 1.2a.5.5 0 0 0-.2.34c0 .27-.82.88-1.46 1.07-.6.19-1.48.2-2.1.02m1.4-.3c0-.07-.12-.12-.26-.12s-.25.05-.25.11.11.11.25.11.26-.05.26-.1m-1.45-.48c-.05-.19.13-.41.88-1.06.52-.45.95-.85.95-.9 0-.28-.3-.5-.7-.5s-.43.02-.47.36q-.04.37-.28.4c-.49.09-.63-.59-.2-.92.15-.11.24-.23.2-.26-.12-.11-.53.07-.96.42-.41.33-.44.4-.46 1.16-.03.8-.03.81.43 1.18.54.43.71.46.61.12m2.73.02c.37-.18.63-.72.62-1.32a1.5 1.5 0 0 0-.78-1.37c-.42-.22-.61-.1-.32.18.28.27.27.73 0 1.01-.13.12-.5.41-.83.65-.34.23-.61.47-.61.53 0 .22.4.22.91 0 .6-.27.8-.22.71.16-.06.3-.04.32.3.16M74.3 5.39a3 3 0 0 0-.64 0c-.19.02-.06.05.29.05s.5-.02.35-.05m5.64 3.78c-.18-.42-.12-.7.14-.74.2-.02.3.05.41.33.08.2.11.4.08.45-.1.15-.57.12-.63-.04m22.54-.02c-.14-.31.06-.74.34-.74.22 0 .26.06.22.42-.04.45-.41.66-.56.32M24.35 8.11c-.24-.09-.18-.66.1-.88.13-.11.3-.17.37-.13.19.1.18.78-.01.95-.17.14-.2.15-.46.06m14.2 0c-.02-.06-.1-.26-.14-.46-.07-.3-.04-.39.13-.45.29-.1.59.27.54.64-.04.27-.4.45-.52.26m41.1-.17c-.18-.17-.2-.73-.01-.84.22-.12.64.3.6.62s-.34.43-.58.22m23.2-.13c-.16-.16-.06-.66.14-.78.39-.22.67.48.32.8-.2.16-.3.16-.47-.02M24.57 6.77c-.2-.2-.07-.72.2-.8a1 1 0 0 1 .38 0c.16.05.16.12-.07.52-.3.51-.3.51-.51.28m13.6-.13c-.18-.15-.1-.73.11-.8.25-.08.43.15.43.56q.01.33-.23.31c-.13 0-.27-.03-.32-.07m41.13-.1c-.26-.24-.25-.8.02-.9.3-.1.55.15.55.57s-.27.58-.57.32m23.9-.44c0-.36.05-.51.2-.57q.52-.15.37.6c-.07.36-.15.47-.33.47-.2 0-.25-.08-.25-.5m-78.33-.69c-.11-.26.05-.53.3-.48.28.04.37.42.14.55-.25.14-.36.13-.44-.07m13.04-.02c-.18-.15-.09-.49.13-.48.35 0 .59.18.5.38-.07.18-.47.25-.63.1m41.23 0c-.22-.07-.2-.45.02-.52.1-.04.26.01.34.1.13.14.13.2-.02.32-.1.09-.25.13-.34.1m24.37-.26c-.04-.06.02-.15.13-.18.24-.09.38 0 .26.17-.1.15-.28.16-.39.01" style="fill:#000"/></svg>