<svg xmlns="http://www.w3.org/2000/svg" xml:space="preserve" width="120mm" height="60mm" viewBox="0 0 120 60"><path d="m132.84 44.51 61.9 27.13" style="opacity:1;fill:#000;fill-opacity:.920746"/><path d="M62.42 53.4c-2.2.13-2.63.09-3.5-.39-.55-.3-1-.72-1-.93s.11-.4.24-.4c.12 0 .79.26 1.48.56 1.09.48 1.55.53 3.67.38 2.15-.15 2.38-.13 2.02.23q-.37.39-2.9.55m2.93-1.45c-.28 0-.59-.12-.68-.26s.13-.27.52-.27c.37 0 .67.12.67.27 0 .14-.23.26-.51.26m-1.85-.53c-.14 0-.32-.1-.4-.24s-.05-.31.08-.4c.12-.07.3-.06.4.03.1.1.17.27.17.4 0 .11-.11.21-.25.21m-6.68-3.16c-.07 1.23-.13 1.35-.45.95-.2-.24-.37-.92-.37-1.51 0-.6.13-1.2.3-1.37q.29-.31.44.12c.09.22.12 1.04.08 1.8m10.93-1.1c-.1 0-1.12-.37-2.28-.81-2-.75-2.16-.77-2.85-.39-.58.33-.72.34-.72.06 0-.2.3-.55.65-.79.48-.3.96-.38 1.73-.26.59.1 1.13.28 1.2.4.09.13.32.23.53.23s.38-.13.38-.29-.23-.35-.52-.42a1 1 0 0 1-.67-.61q-.15-.48-1.3-.65c-.81-.12-1.3-.36-1.57-.8-.23-.33-.57-.6-.75-.57-.2.02-.38-.08-.42-.23s.24-.3.63-.35c.38-.05.98-.02 1.33.07.45.11.63.34.63.82 0 .57.06.62.48.36.39-.25.67-.16 1.53.45.58.41 1.45 1.27 1.92 1.9.7.92.8 1.22.55 1.53-.17.2-.39.37-.48.36m18.75-.38a9.24 9.24 0 0 1-4.28-1.13 3 3 0 0 1-1.12-1.02c-.1-.23-.12-.47-.07-.53.06-.05.39.06.74.25.34.18.93.52 1.3.75.36.24 1.34.58 2.18.77a5.4 5.4 0 0 0 2.51.1c.6-.14 1.1-.47 1.28-.84.16-.33.36-.66.44-.74s.63 0 1.23.18 1.08.49 1.08.7-.38.52-.86.71c-.47.2-1.57.43-2.44.53-.88.1-1.77.22-1.99.27M53.6 45.6c-.23 0-.48-.12-.57-.26s.02-.27.23-.27.48.12.57.27c.09.14-.02.26-.24.26m-1.28-.8c-.22 0-.87-.3-1.43-.7-.57-.38-1.57-1-2.22-1.36s-1.48-.88-1.83-1.15c-.34-.27-.5-.49-.36-.49s.67.17 1.16.38c.5.2 1.2.6 1.56.87s1.11.73 1.67 1.01 1.2.73 1.43.99c.36.4.37.46.02.46m4.93-1.31c-.32 0-.74-.2-.94-.44s-.84-.73-1.42-1.1c-.58-.36-1.21-.82-1.4-1.02-.2-.2-.44-.35-.54-.35s-.36.11-.57.25c-.33.2-.32.31.07.74.25.28.37.58.27.68s-.4.18-.66.18c-.27 0-.72-.24-1.01-.53s-.53-.65-.53-.8c0-.14.3-.26.68-.26.5 0 .66-.12.6-.46-.06-.26-.45-.59-.89-.73-.43-.15-1.66-.83-2.72-1.52-1.05-.7-2-1.26-2.1-1.26-.09 0-.41-.22-.71-.5a12 12 0 0 0-2-1.24 7 7 0 0 1-1.67-1.09c-.12-.19-.54-.34-.93-.34-.44 0-.85-.22-1.06-.55-.18-.3-.85-.76-1.49-1.03a4 4 0 0 1-1.31-.77c-.1-.15-.97-.64-1.95-1.1a14 14 0 0 1-2.31-1.31c-.3-.26-1.2-.79-2.01-1.17a8 8 0 0 0-1.87-.69c-.22 0-.68-.31-1.04-.7a5 5 0 0 0-1.5-1.06c-.76-.32-.84-.45-.7-1.09.1-.4.22-.8.28-.9.05-.1.75.47 1.56 1.26.8.79 1.65 1.43 1.88 1.43s1.58.69 3.02 1.52l10.17 5.89c.58.34 1.83 1.02 2.78 1.52s1.9 1.06 2.11 1.24c.22.2 1.23.8 2.25 1.35s2.05 1.17 2.29 1.37a10 10 0 0 0 2.7 1.4c.14 0 .62.28 1.07.62a6 6 0 0 0 1.35.8c.3.1.66.46.83.82s.23.71.15.79-.4.15-.73.15m1.45-1.06c-.33 0-.5-.14-.44-.33s.3-.37.55-.42.44.08.44.33-.23.42-.55.42m-13.18-1.59c-.14 0-.34-.12-.43-.26s-.04-.27.1-.27.34.12.43.27c.1.14.05.26-.1.26m3.33-.27c-.17 0-1.07-.5-2-1.08q-1.71-1.1-1.41-1.35.27-.29.88.16c.34.23.85.43 1.15.43s.88.3 1.3.63c.41.35.68.76.58.92s-.33.3-.5.29m-5.44-1.05c-.15 0-.34-.12-.43-.27-.1-.14-.05-.26.1-.26.14 0 .34.12.43.26s.04.27-.1.27m36.77-.15c-.13.08-.31-.04-.4-.27a2 2 0 0 1-.16-.66c0-.14.18-.25.4-.25s.4.24.4.52-.11.58-.24.66m13.33-1c-.29.02-1.54-.3-2.78-.7a18 18 0 0 0-2.87-.78c-.54-.02-.58-.08-.28-.44.24-.3.63-.38 1.29-.29l1.44.22c.27.05.55-.06.62-.24.07-.2-.28-.5-.81-.72-.87-.36-.9-.43-.62-1.05.17-.37.45-.67.62-.67.18 0 .53.35.79.79s.63.8.82.8c.2 0 .83.48 1.41 1.08.59.6 1.03 1.28.98 1.52s-.32.46-.61.48m-14.85-.64c-.12.08-.53-.07-.89-.33s-1.93-1.3-3.5-2.29c-1.55-1-3.79-2.4-4.96-3.13L64.5 29a33 33 0 0 0-2.83-1.65c-.1 0-.89-.48-1.76-1.05a54 54 0 0 1-2.25-1.55 5 5 0 0 0-1.26-.7c-.32-.1-.59-.28-.59-.4s-.33-.35-.73-.51-1.14-.54-1.65-.84-1.23-.85-1.59-1.21l-.66-.66.8.34c.43.18 1.68.85 2.77 1.5 1.1.63 2.7 1.62 3.57 2.2.88.57 2.07 1.28 2.65 1.58s2.37 1.36 3.97 2.37 3.56 2.19 4.36 2.61c.8.43 2.05 1.2 2.78 1.7a90 90 0 0 0 3.04 2.01c.95.6 2.19 1.48 2.75 1.97.57.48.92.94.8 1.02m8.09-.33c-.15 0-.2-.12-.12-.26.1-.15.22-.27.28-.27s.12.12.12.27c0 .14-.13.26-.28.26m-4.5-3.97c-.25 0-.6-.18-.78-.4-.18-.21-.58-.4-.89-.4-.3-.01-.98-.24-1.49-.52-.5-.28-1.2-.63-1.53-.78a10 10 0 0 1-1.52-1c-.5-.4-.92-.84-.92-.96s.57.1 1.26.5 1.44.87 1.65 1.04a10.2 10.2 0 0 0 4.25 1.2c.56 0 1.1.14 1.2.3.1.17-.03.47-.3.66-.26.2-.68.36-.93.36m6.76 0c-.21 0-.4-.2-.4-.43 0-.35.08-.37.4-.1.22.18.4.38.4.43 0 .06-.18.1-.4.1m-67.63-4.89c-.85.1-1.41 0-2.15-.4-.54-.3-1-.57-1-.6s1.21-.04 2.68-.02 2.97.12 3.31.2c.35.1.63.28.63.42 0 .15-.52.26-1.15.26s-1.68.07-2.32.14m52.53.12c-.13 0-.84-.34-1.56-.73-.73-.4-1.66-.95-2.06-1.22s-.68-.56-.6-.63c.08-.08.47.02.87.23.4.2 1.37.82 2.16 1.37.79.54 1.32.98 1.2.98m-54.35-2.54a1 1 0 0 1-.78-.08 6 6 0 0 0-1.66-.42c-.88-.12-1.36-.34-1.56-.7-.2-.39-.2-.62 0-.82q.28-.3.89-.01l1.6.7c.55.24 1.17.44 1.38.44s.79-.2 1.29-.43c.5-.24 1.04-.73 1.2-1.08q.28-.64.04-1.11c-.14-.26-.96-.73-1.82-1.04s-1.7-.57-1.86-.57-.3-.18-.3-.4.16-.4.36-.4.8.18 1.31.4c.53.22 1.2.4 1.5.4q.53 0 .53-.52c0-.4-.22-.53-.97-.6-.54-.04-1.02-.2-1.07-.37s.39-.36 1.06-.45a7 7 0 0 1 2.19.12c.56.16 1.47.74 2.02 1.28.55.55 1 1.2 1 1.44s-.26.53-.59.65c-.4.16-.67.58-.87 1.38-.25 1-.38 1.17-.97 1.17-.38 0-.92.21-1.2.47-.33.29-.89.46-1.43.43-.49-.03-1.07.03-1.29.12m48.55-1.16c-.14 0-.44-.12-.66-.26s-.28-.26-.13-.26c.14 0 .44.12.66.26s.28.26.13.26m-2.45-1.32c-.14 0-.4-.18-.59-.4s-.21-.4-.06-.4.4.19.59.4c.18.23.21.4.06.4m-3.15-1.87c-.12 0-.4-.1-.61-.2-.22-.1-.94-.53-1.6-.96q-1.2-.8-.75-.87c.23-.05.98.28 1.64.73a8 8 0 0 1 1.38 1.07q.11.23-.06.23m-3.72-2.1c-.13 0-1.13-.58-2.24-1.3a56 56 0 0 0-3.29-1.99 51 51 0 0 1-3.83-2.47 25 25 0 0 1-3.38-2.74c-.45-.53-.82-1.15-.82-1.37s.12-.49.27-.58c.15-.1.43.23.64.72.24.57 1.23 1.58 2.76 2.8a23 23 0 0 0 3 2.14c.33.13 1.22.64 1.97 1.12a114 114 0 0 0 4.04 2.52c.5.3.97.7 1.02.86s0 .3-.14.3m-12.97-2.12c-.25 0-.68-.14-.94-.3-.27-.15-1.32-.39-2.34-.53-1.54-.21-1.96-.19-2.48.16q-.64.41-2.43.4c-1.33 0-1.96-.13-2.43-.49-.4-.3-.52-.55-.34-.66.16-.1.81-.04 1.46.12.99.25 1.52.2 3.42-.28 2.03-.52 2.32-.54 2.88-.19.34.22 1.1.48 1.68.58s1.26.3 1.52.44c.25.13.46.36.46.5s-.2.25-.46.25M38.96 6.7a11.03 11.03 0 0 1-2.6-.99c-.52-.3-.52-.3.04-.32.3 0 .98.17 1.5.39a3 3 0 0 1 1.1.66q.15.24-.04.26" style="fill:#000"/><path d="M45.73 9.66c-.03-.12.03-.4-.1-.37-.12.03.15.48.1.37a6 6 0 0 1-.46-1.29c-.02-.09.03-.19 0-.27-.06-.17-.12-.23-.19-.37-.02-.06.02-.13 0-.19-.06-.18-.23-.27-.27-.46-.02-.09.03-.18 0-.27-.1-.3-.21-.2-.28-.46-.01-.06.02-.13 0-.19-.03-.13-.22-.36-.27-.46-.11-.2-.1-.54-.28-.73-.03-.03-.16-.06-.18-.1-.21-.62.06-.02-.28-.36-.02-.02.02-.07 0-.1-.07-.06-.2-.02-.28-.09-.02-.02.03-.07 0-.09-.05-.03-.12.02-.18 0a5 5 0 0 1-.83-.27c-.17-.09-.35-.23-.55-.28-.09-.02-.19.03-.28 0-.26-.09-.12-.14-.46-.18-.25-.04-.66 0-.92 0-.3 0-1.84-.1-2.02 0-.3.15-.75.39-1.1.46s-.02-.13-.47.09c-.03.02-.05.08-.09.09-.18.06-.45.03-.64.1-.48.15-.68.82-1.2.82h.1c.05 0 .4.06.45.1.15.06.32.22.46.27.1.03.2-.03.28 0 .24.08.3.27.55.27" style="fill:none;stroke:#000;stroke-width:.264583px;stroke-linecap:butt;stroke-linejoin:miter;stroke-opacity:1"/><path d="M38.83 6.26c.12.09.27.4.37.27.09-.12-.48-.38-.37-.27 1.08 1.08.5.37.83 1 .14.29.07-.16.18.28.11.46 0 1.1 0 1.57 0 .29.09.74 0 1.01-.06.16-.27.27-.37.37q-.02.04 0 .1c-.03.05-.03.14-.1.17-.04.04-.12-.02-.17 0l-.56.28c-.02.02.02.07 0 .1-.04.04-.13-.03-.18 0-.04.01-.05.07-.1.08-.08.05-2.89.06-3.21 0a4 4 0 0 1-1.02-.27c-.14-.07-.38.03-.55 0-.32-.06-.68-.19-1-.19-.3 0-1.24-.42-1.39-.27v1.2c0 .5-.12 1.37 0 1.84q.04.18.1.36c.04.16.23.17.27.37.02.1-.02.19 0 .28.09.44.62.73 1.01.83.12.02.25-.03.37 0 .07.01.12.07.18.09.15.03.33-.07.46 0 .2.1.38.34.55.46.07.04.2.05.28.09s.11.14.18.18c.21.14.44.23.65.37.07.05.11.14.18.19.04.02.5.18.19.18" style="fill:none;stroke:#000;stroke-width:.264583px;stroke-linecap:butt;stroke-linejoin:miter;stroke-opacity:1"/><path d="M45.36 17.12q.3.03.6.09c.13.03.17.2.29.27q.48.3.99.55c.15.09.85.43.99.56.05.04.04.13.1.18.12.11.37.16.49.28.02.02-.02.07 0 .09s.07-.02.1 0c.28.15.52.38.79.55.12.07.3.09.4.18.05.05.04.14.1.19.04.04.61.24.69.27.2.1 0 .13.2.28.3.23.61.13.79.46" style="fill:none;stroke:#000;stroke-width:.274132px;stroke-linecap:butt;stroke-linejoin:miter;stroke-opacity:1"/><path d="M58.7 19.32c.86.04 1.15.85 1.84 1.2" style="fill:none;stroke:#000;stroke-width:.264583px;stroke-linecap:butt;stroke-linejoin:miter;stroke-opacity:1"/><path d="M62.47 21.52c.12 0 .37.12.37 0s-.47-.06-.37 0c.25.14.56.15.83.26.14.06.24.27.37.35.06.05.35.3.46.36.03 0 .07-.03.09 0 .05.04.04.13.1.17.09.06.5.05.73.26q.47.29.92.62c.05.04.05.12.1.17q.21.23.45.44c.18.15.45.23.55.44.02.02-.02.07 0 .08.35.17 1.3-.2 1.3.35" style="fill:none;stroke:#000;stroke-width:.258179px;stroke-linecap:butt;stroke-linejoin:miter;stroke-opacity:1"/><path d="M68.09 24.84c.12.06.3.3.36.19.06-.13-.46-.28-.36-.19.65.66.54.41 1 .65.09.03.11.14.2.18.1.06.34.02.45.1.23.14.83.53.83.82" style="fill:none;stroke:#000;stroke-width:.264583px;stroke-linecap:butt;stroke-linejoin:miter;stroke-opacity:1"/><path d="M73.6 28.5c.86.34 1.3.97 2.42.97" style="fill:none;stroke:#000;stroke-width:.246915px;stroke-linecap:butt;stroke-linejoin:miter;stroke-opacity:1"/><path d="M83 32.32c.03-.11.23-.3.1-.34-.13-.03-.23.4-.1.34.32-.11.5-.43.8-.6.1-.06.27-.03.39-.08.03-.01-.02-.07 0-.09.05-.04.13 0 .2 0 .38 0 .81-.04 1.19 0q.45.07.9.18c.1.02.28-.04.39 0 .42.14.33.15.7.34.08.04.22.02.29.08.02.02-.02.07 0 .09.23.2.76.2 1 .34l.49.34c.07.07.02.2.1.26s.34.12.4.17c.04.04-.05.13 0 .17.16.15.59.27.59.52" style="fill:none;stroke:#000;stroke-width:.264984px;stroke-linecap:butt;stroke-linejoin:miter;stroke-opacity:1"/><path d="M87.52 36.63c-.1.13-.4.29-.28.38s.35-.53.28-.38c-.21.44-.54.93-.75 1.36-.12.23-.01 2.7.1 2.91.33.7.7 1.37 1.03 2.04.14.3.43.32.56.59.15.31.52.7.84.87.06.03.13-.02.2 0 .03.02.05.08.09.1.15.08.32.1.47.2.07.04.11.14.18.19.09.06.54.1.66.1" style="fill:none;stroke:#000;stroke-width:.274797px;stroke-linecap:butt;stroke-linejoin:miter;stroke-opacity:1"/><path d="M81.6 44.62c-.12-.07-.3-.33-.37-.2-.06.13.41.34.38.2-.1-.37-.4-.64-.57-.97-.14-.29-.1-.68-.19-.97q-.04-.1-.1-.2c-.06-.21.1-.56 0-.77-.31-.65-.18-.6-.27-1.25-.03-.18-.17-.32-.2-.49 0-.1.05-.36 0-.48-.06-.2-.09-.2-.09-.39.27-1.7-2.07-1.46-2.07-1.84" style="fill:none;stroke:#000;stroke-width:.274595px;stroke-linecap:butt;stroke-linejoin:miter;stroke-opacity:1"/><path d="M15.46 24.38c.45.52.63 1.09.92 1.66.05.1.44.45.46.46s.07-.02.09 0c.05.05.05.13.1.18.32.41 1.02.92 1.56.92M25.76 21.62c.34.86.46 1.66.46 2.58M18.03 20.38c.1-.41.65-.19.83-.37.05-.05.05-.13.1-.18.02-.02.06.01.09 0 .2-.1.32-.39.55-.46.06-.02.12.02.18 0 .5-.2.11-.19.37-.19M24.57 28.06c.15 0 .46.16.46 0 0-.15-.56-.12-.46 0 .29.37.86.4 1.2.74.38.39.68.85 1 1.29.11.14.23.17.37.27.33.25.6.59.92.83.46.34.84.42 1.29.64.25.13.4.34.64.46.12.06.26.05.37.1.23.1.65.45.83.55.19.1.48.15.55.18.08.04.11.14.19.19.48.26 1 .38 1.47.64.27.15.46.42.73.55.23.12.5.1.74.19.29.11.48.38.74.55.72.46 1.44.96 2.11 1.38.46.28.8.77 1.3 1.01.05.03.12-.03.18 0 .13.08.23.2.36.28.12.06.35.03.46.09.2.1.58.26.74.37.3.2.05.17.37.27.24.08.5.07.73.19.08.04.11.14.19.18.36.18.82.18 1.2.37.27.14.48.46.73.64.14.11.33.16.46.28.27.23.37.52.74.64.29.1 1.47.35 1.47.56M52.54 44.62q1.05.47 2.11.92c.18.08.38.1.55.19.03.01-.02.08 0 .09.06.03.13-.02.19 0 .47.13.95.36 1.1.83" style="fill:none;stroke:#000;stroke-width:.264583px;stroke-linecap:butt;stroke-linejoin:miter;stroke-opacity:1"/><path d="m56.5 48.77.1.4q.13.34.32.63c.12.18-.01.77.1.95.05.06.16.1.22.16.04.05.06.18.1.23q.29.34.64.64c-.1.47.3.07.42.15.02.02.13.18.2.24" style="fill:none;stroke:#000;stroke-width:.262539px;stroke-linecap:butt;stroke-linejoin:miter;stroke-opacity:1"/><path d="M65.1 52.72c.13-.06.44-.06.38-.18s-.48.26-.37.18c.23-.17.51-.28.75-.45.02-.01-.02-.06 0-.09.04-.07.16-.1.18-.18.12-.34-.4-.17.47-.44.01 0 .66.08.66-.1 0-.02-.07 0-.1 0h-.56c-.52 0-.95-.2-1.4-.44-.3-.16-.65-.31-.94-.45-.42-.2.4.04-.28-.18l-.75-.09c-.04-.05-.04-.13-.09-.18-.22-.21-.62-.33-.84-.54-.06-.05.04-.28 0-.36-.19-.35-.03.4-.19-.35-.01-.06.03-.13 0-.18-.04-.08-.15-.1-.18-.18-.04-.07-.17-.66-.2-.72q-.02-.05-.09-.09l-.09-.27c-.03-.13-.1-.85 0-.98.04-.06.32-.4.38-.45.14-.14.33-.15.46-.27" style="fill:none;stroke:#000;stroke-width:.263316px;stroke-linecap:butt;stroke-linejoin:miter;stroke-opacity:1"/><path d="M62.1 41.92c-.68.55-.52-.23-.79-.3-.2-.07-2.01-.1-2.22.1-.06.05-.05.14-.11.2 0 0-.3.06-.33.1-.09.07-.04.22-.12.3q-.21.2-.44.41c-.05.06.06.26 0 .3-.05.06-.15 0-.22 0" style="fill:none;stroke:#000;stroke-width:.306005px;stroke-linecap:butt;stroke-linejoin:miter;stroke-opacity:1"/></svg>