<svg xmlns="http://www.w3.org/2000/svg" xml:space="preserve" width="120mm" height="70mm" viewBox="0 0 120 70"><path d="m132.84 44.51 61.9 27.13" style="opacity:1;fill:#000;fill-opacity:.920746"/><path d="M70.37 67.63c-1.12-.08-1.38-.19-1.53-.65-.16-.5-.25-.59-.65-.56-.91.05-1.17 0-1.28-.26l-.3-.6c-.1-.21-.17-.44-.17-.52 0-.11-.06-.13-.27-.08-.15.04-.57.07-.95.08-.62 0-.68 0-.7-.18-.03-.16-.12-.2-.58-.25-.76-.09-2.63.02-2.82.15-.1.09-.9.12-3.13.14-2.5.03-3.02.01-3.26-.1a5 5 0 0 0-1.34-.16l-1.07-.03-.12.24q-.12.23-.25.26l-1.99-.01c-1.63-.02-1.93 0-2.28.13-.57.22-.74.38-.74.66q0 .25-.22.3c-.25.08-6.76.1-7.19.04-.24-.04-.3-.12-.45-.53-.31-.87-.37-1.2-.25-1.3.08-.06 2.82-.1 7.78-.1h13.7c5.14 0 6.08.02 6.21.12s.47.13 1.45.14c.7 0 1.27-.03 1.24-.07a2 2 0 0 0-.51-.18l-1-.25c-.48-.13-1.12-.14-6.12-.12-4.7.02-5.6 0-5.76-.1-.18-.12-.17-.14.26-.32.26-.1.46-.22.46-.26s-.17-.21-.39-.39c-.39-.31-.9-.42-1.12-.23-.05.04-.66.09-1.35.1a7 7 0 0 1-2.33-.25c-1.64-.4-2.21-.55-2.42-.63-.37-.13-1.07-.33-1.56-.42-3.27-.66-4.1-.95-4.95-1.73-.32-.29-.73-.72-.92-.95a16 16 0 0 1-1.5-2.5c-.52-.9-.95-3.83-.74-5 .28-1.52.76-2.31 2.19-3.6.5-.46.93-.87.93-.91s-.21-.07-.46-.07c-.43.01-.48 0-.61-.27-.08-.15-.2-.3-.28-.33-.2-.07-1.45 1.2-2.07 2.1-.3.44-.44.53-.58.4-.16-.13.05-.51.55-1.02.24-.24.44-.46.44-.5s.13-.18.29-.32c.21-.2.3-.36.3-.58 0-.37.37-.74.77-.74.2 0 .35-.09.55-.31.24-.27.39-.34.9-.44 1.23-.25 1.93-.29 4.72-.3 2.45 0 2.86-.01 2.99-.13.12-.1.15-.34.15-1.05 0-.7.04-.97.16-1.14.19-.25.14-.31-.43-.47q-.68-.19-.55-.45c.08-.17.7-.51.93-.51.47 0 .28-.64-.34-1.08l-.4-.28-1.3-.01a5 5 0 0 0-1.6.12c-.25.11-.3.11-.42 0-.08-.08-.12-.2-.1-.27.09-.19 3.26-.25 3.73-.07.5.19 1.06.8 1.13 1.23.08.46 0 .56-.57.7-.24.07-.43.15-.43.2 0 .1.44.24.81.24.18 0 .45.09.6.2.16.1.3.2.32.2q.22.14.3 2.75l.05 2.05.4.03c.42.04 1.47-.13 1.66-.26.08-.06.11-.7.1-2.4l-.01-2.33.3-.23.5-.37.22-.14-.3-.06q-.3-.05-.3-.24c0-.15.05-.16.46-.1.67.08 1.1.25 1.1.44q0 .38-.58.38a1 1 0 0 0-.66.25l-.32.26v1.58c0 .87.04 1.58.09 1.58.14 0 .73-.63 1.2-1.28.24-.33.58-.77.76-.97.68-.76.81-.94 1-1.24.1-.17.24-.38.3-.45.13-.13.13-.59.01-.77-.1-.15-.69-.2-1.16-.08-.36.08-.5.08-.63 0l-.49-.25c-.28-.11-.3-.15-.19-.26.08-.06.4-.15.72-.18.56-.05.6-.04.75.18.17.23.49.3.6.14.04-.05-.07-.26-.23-.46-.17-.2-.3-.41-.3-.47s-.14-.2-.32-.31c-.3-.2-.34-.2-3.65-.23-2.79-.02-3.45 0-4.02.12-.97.2-1.33.12-1.8-.38l-.4-.4-.71-.04c-.56-.03-.78 0-.97.11a1 1 0 0 1-.47.13h-.71l-.49.02.52.17c.47.17.55.17.92.06.6-.18 1.1-.1 1.34.2.1.14.17.3.14.34-.1.15-.33.1-.44-.08-.15-.26-.43-.3-1-.13-.49.14-.57.14-1 .02-.26-.08-.59-.16-.73-.19-.2-.04-.27-.12-.3-.32-.02-.15 0-.3.06-.33s.43-.08.83-.1c.57-.04.74-.08.76-.19.07-.31-1.05-.4-1.43-.12-.35.26-.75.36-1.38.34a4 4 0 0 1-.74-.07c-.31-.17-.4-1.8-.12-2.1.23-.25.27-.14.23.59-.06.95.05 1.14.69 1.2.38.04.56 0 1.01-.2a2.3 2.3 0 0 1 2-.03c.3.15.6.22 1.2.25.74.05.84.07 1.12.32.37.32.57.34.8.07.1-.1.3-.27.46-.36l.28-.16-.28-.15c-.15-.08-.4-.18-.54-.2a1 1 0 0 1-.42-.22c-.16-.13-.15-.16.11-.34.16-.11.4-.2.55-.2.22 0 .26.03.26.2s.08.24.34.32c.19.05.43.21.54.35.19.24.25.26.8.26.83 0 .89-.05.92-.75.04-.85-.05-.9-1.06-.63-.2.05-.43.07-.52.04-.16-.06-.16-.07 0-.22.08-.1.34-.2.57-.22.22-.04.55-.1.73-.17.3-.1.34-.08.5.1s.2.35.2 1.07c0 1.14 0 1.13-1.45 1.13h-1.13l-.38.31c-.3.25-.35.33-.24.4q.29.18.79-.07c.27-.12.74-.14 3.82-.12 1.93 0 3.65.05 3.83.1q.33.08.4-.03c.07-.1.04-2.81-.04-4.35-.02-.37 0-.48.12-.5.87-.1.87-.1.87-.44.02-1.11 0-1.4-.09-1.61-.11-.27-.5-.75-1.53-1.9a5 5 0 0 1-.76-1c-.04-.12-.14-.25-.23-.27-.1-.03-.32-.26-.5-.53a2 2 0 0 0-.4-.48c-.12 0-.13.23-.1 1.99l.03 1.77.26.12c.14.06.45.14.69.18q.9.12.68.36c-.13.15-.98.39-1.37.39-.34 0-.35-.15-.03-.28.33-.14.3-.22-.12-.38-.2-.07-.39-.18-.43-.24a11 11 0 0 1-.08-1.7c0-.87-.04-1.68-.09-1.8-.09-.21-.13-.22-.97-.23-1.13 0-1.2.02-1.13.42.04.18.11.43.17.57.14.31-.04 1.47-.33 2.1-.27.62-.58.82-1.21.83-.56 0-.7.04-.7.23 0 .1.12.13.45.13q.46 0 .7.17c.23.16.24.17.08.33-.09.09-.2.38-.23.65l-.06.5-.7.22c-.6.2-.9.23-2.05.25l-1.35.02-.08.26-.13.38c-.02.08-.33.1-1.27.08-1.02-.02-1.24-.04-1.24-.15s.21-.14 1.12-.18l1.11-.04.05-.4c.05-.37.06-.39.34-.36l1.46.07c1.16.05 1.4.01 1.99-.31l.32-.13c.14-.04.17-.1.12-.28-.04-.13-.01-.28.05-.35q.3-.33-.54-.42c-.45-.05-.57-.1-.65-.27-.17-.33.1-.62.64-.7.45-.05.58-.23.34-.45a4 4 0 0 1-.17-1.08l-.06-1-1.41-.06-4.02-.12c-2.34-.06-2.65-.08-2.94-.24-.17-.1-.32-.22-.32-.29q-.02-.1-.17-.23c-.1-.06-.32-.29-.5-.5-.19-.22-.53-.6-.78-.84A13 13 0 0 1 38.01 24c0-.28.65.22 1.47 1.13l.68.72c.18.17.4.41.5.52l.16.2.24-.25c.14-.15.39-.3.56-.36s.33-.16.35-.23-.27-.4-.63-.74a10 10 0 0 1-1.96-2.52 4.7 4.7 0 0 1-.5-2.55c0-1.38.2-2.44.63-3.48.15-.34.29-.71.32-.83s.1-.28.17-.35c.07-.08.2-.27.29-.44.1-.17.3-.43.45-.58.22-.2.3-.37.32-.68.02-.37.07-.46.49-.8.64-.55 1.09-.76 2.43-1.18 1.26-.4 1.49-.5.97-.45-.2.02-.37.07-.4.11-.03.05-.2.08-.4.08-.18 0-.48.06-.64.12a9 9 0 0 1-1.09.28A10 10 0 0 0 38.93 13c-.67.41-.95.65-1.26 1.08-.17.23-.56.3-.68.14-.05-.08.38-.57.9-1.03.37-.32 1.2-.85 1.62-1.04.98-.44 1.1-.48 3.5-1.04a114 114 0 0 0 4.07-1.01l.97-.2 1.2-.27c.7-.16.89-.13.89.13q-.01.2.17.14c.66-.17 1.06-.24 1.94-.31 1.35-.12 1.77-.12 2.1.04.39.18.65.16 1.15-.1.43-.2.44-.23.35-.47-.06-.15-.14-.28-.2-.31-.04-.03-.65-.05-1.34-.05-1.35 0-1.55-.03-1.55-.22 0-.1.2-.12 1-.12l7.01-.04c5.98-.03 6.18-.04 7-.32a3.59 3.59 0 0 0 1.18-.38l.95-.44q.55-.22.45-.67a1 1 0 0 1 .1-.5c.2-.33.2-.74.01-.88-.08-.06-.14-.17-.14-.23 0-.16-.24-.16-.38 0q-.16.13.08.22.17.1.14.23c-.04.1-.22.13-.7.13-.58 0-.68-.03-.99-.27-.37-.29-.46-.3-.81-.16-.3.13-.49.59-.4 1 .08.4-.07.56-.5.56-.18 0-.4.06-.5.13-.81.64-1.23.94-1.47 1.05-.25.12-1.38.13-8.93.13-7.52 0-8.7.02-8.96.14-.26.1-.93.12-4.56.1-3.92-.02-4.27-.03-4.37-.17q-.12-.15.04-.28c.13-.11.73-.13 4.1-.14 2.21 0 3.97-.04 4-.09.05-.07-.54-.46-.86-.57a1 1 0 0 0-.4.05c-.18.06-1.55.1-3.92.1-3.22.01-3.69 0-3.96-.13-.38-.18-.55-.42-.4-.57.09-.07 1.15-.1 3.8-.1 3.85 0 3.92 0 5.14.4.2.07.54.13.77.13q.4 0 .92.26l.52.26h7.67c6.77 0 7.7.01 7.84.13q.38.3.6-.1c.12-.22.2-.25.62-.26.76-.01.88-.07 1.08-.58s.43-.61.85-.36q.54.3.54-.3c0-.2.05-.38.1-.4.18-.11.1-.35-.24-.62a1.4 1.4 0 0 1-.4-.52c-.13-.49.36-.95 1.03-.97.2 0 .65-.13 1.02-.3.82-.38 1.29-.4 1.92-.06.24.13.47.28.5.33.11.15.13 1.24.03 1.41q-.07.16.03.5c.09.26.08.42-.04.8-.2.6-.12.69.67.69.47 0 .62-.03.62-.12 0-.21.33-.67.48-.67.08 0 .26.1.41.24l.28.23v-.3c0-.61.1-.87.34-.87q.71 0 .72-.43c0-.44.36-.94.82-1.15.38-.17.44-.17.84-.06.37.11.46.2.7.6.14.26.26.58.26.72 0 .21.03.24.37.24.43 0 .52.05.68.37q.12.25.02.41c-.05.1-.1.38-.1.64 0 .45.02.5.32.65.41.22 1.52.25 4.01.1l1.86-.11.18-.27c.1-.14.2-.36.23-.48.04-.18.11-.23.43-.25.2-.01.48 0 .6.02.2.05.23.1.23.53q0 .84.56.7c.27-.06.6.02.6.14 0 .04-.14.19-.3.32-.18.13-.65.54-1.04.9-.4.36-.87.75-1.04.87a172 172 0 0 0-5.57 4.43l-1.02.81-1.36 1.1-1.01.83a9 9 0 0 1-2.1 1.3c-.6.24-1.46.45-4.65 1.1a20 20 0 0 0-3.21.83c-.22.05-.45.15-.52.21-.08.1-.1.65-.08 1.9l.03 1.78.27.03q.28.04.52-.17c.25-.21.33-.2 1.63.11q1.1.27-.11.58c-1.17.32-1.41.33-1.66.07q-.35-.37-.6-.1c-.07.08-.1 1.1-.08 3.6l.03 3.49.23.35c.13.2.48.57.77.85q.75.71.94.42.17-.22.34.13c.08.2.13.22.75.22.48 0 .74.04.97.17.28.15.31.22.31.55 0 .21.03.4.06.43s.2.01.36-.04c.17-.06 1.07-.12 1.99-.15 2.08-.06 2.23-.2.28-.26-1.04-.04-1.44-.08-1.58-.18-.34-.25-.61-.57-.62-.72 0-.26.31-.17.66.17l.32.33 1.38.05c1.57.06 1.8.11 1.87.4.1.32.5.56.95.56.68 0 .75.1.76 1.08 0 .47-.04.9-.1.94-.04.04-.38.1-.73.13-.71.06-.78.11-.89.66-.1.46-.36.54-1.84.57-.7.02-1.39.08-1.54.13a1 1 0 0 0-.46.43c-.1.18-.27.38-.37.43-.34.16-1.8.1-2.34-.09-.67-.24-1.07-.23-1.35.04-.13.12-.2.27-.17.34.06.14.63.32 1 .32.24 0 .42.16.42.37q.01.13.13.16c.06 0 .25.1.4.22.29.21.3.22.06.16-.14-.03-.3-.1-.35-.13-.06-.05-.3-.06-.54-.03-.39.04-.46.02-.8-.26-.2-.17-.42-.32-.5-.32-.22 0-.56.6-.5.88q.05.24-.08.35c-.12.09-.14.53-.14 2.65 0 2.22.02 2.58.16 2.81.09.15.19.5.22.78l.05.52 2.03-.02c1.11-.01 2.1-.05 2.18-.07a1 1 0 0 0 .32-.23c.15-.18.16-.18 1.09-.02.97.16 1.24.3 1.04.52a1 1 0 0 1-.43.17c-.17.02-.59.12-.92.2l-.61.16-.17-.2c-.17-.2-.18-.2-2.27-.18-1.16 0-2.16.05-2.23.09-.1.05-.13.46-.14 1.64l-.01 1.57.25.21c.6.5 3.03 1.1 5.49 1.37 1.36.15 2.4.52 3.84 1.36.35.2.7.4.8.44a7 7 0 0 1 .72.56c.32.27.94.77 1.4 1.1l1.16.92c.18.16.58.47.87.68s.64.5.78.62l.58.48 2.17 1.66c1.07.8 2.28 1.75 2.95 2.3.4.33.78.62.85.66.17.09.18.34.02.48-.08.08-1.35.1-5.1.1-4.9 0-5 .01-5.32.2a1 1 0 0 1-.65.12c-.78-.13-1.23.3-1.23 1.17 0 .49-.1.56-.84.55-.63 0-.78-.08-.87-.43q-.2-.67-.64-.31c-.18.16-.2.28-.19.71.02.47 0 .56-.25.8-.31.32-.6.36-1.91.26m1.67-.61c.07-.13.11-.45.1-.75l-.03-.52-1.4-.03c-1.5-.02-1.65.02-1.65.42 0 .95.27 1.12 1.77 1.1 1.05 0 1.09-.01 1.2-.22m2.69-.99c.02-.1.04-.3.03-.41 0-.12.02-.32.06-.45.07-.22.05-.23-.42-.29-.27-.03-.6-.03-.72 0l-.24.05.18.4c.1.21.19.48.19.59 0 .27.07.31.5.31.3 0 .38-.03.42-.2m-6.5-.32v-.31h-.48c-.42 0-.5.02-.52.19-.04.28.24.48.65.45.33-.03.35-.05.35-.33m-25.56.17c.13-.08.13-.1 0-.17-.08-.05-.3-.11-.49-.14q-1.05-.17-.14-.34c.26-.04.46-.01.8.14.4.18.6.2 1.67.2 1.02 0 1.28-.03 1.65-.18l.72-.29q.24-.09.23-.15c-.03-.02-1.73-.04-3.77-.04q-3.72 0-3.84-.09c-.16-.12-.33-.02-.33.2 0 .2.34.77.51.87.18.1 2.81.1 2.99-.01m3.66.03c.21-.05.31-.3.13-.3-.2 0-.58.21-.53.28.06.1.1.1.4.02m23.57-.96q-.06-.05-.18 0-.12.03.06.05.16 0 .12-.05m.93-.04q-.11-.1-.28 0-.26.11.1.1.3 0 .18-.1m1.33 0c-.19-.1-.55-.1-.63 0q-.05.1.36.1.44 0 .27-.1m-22.53-.23c.03-.08-.17-.11-.77-.11-.87 0-1.24.06-1.24.19s1.96.05 2-.08m15.74-.02a.1.1 0 0 0-.1-.1.2.2 0 0 0-.14.1q-.05.07.09.08.14-.01.15-.08m9.75-.17c.1-.16-.3-.26-.93-.23-.67.03-.9-.06-.81-.32.13-.36-.09-.42-1.56-.42h-1.38l-.09-.28-.09-.29-.75-.02-.76-.03-.32.32q-.31.3-.39.22-.06-.1.05-.23c.06-.06.08-.16.05-.21-.09-.13-2.53-.12-2.79 0a.5.5 0 0 1-.4.01c-.48-.2-2.97-.27-3.48-.1-.28.1-.42.4-.26.58.13.14 3.16.1 3.44-.04.1-.05.25-.06.33-.02.2.1 2.44.27 2.69.21.1-.03.24.02.31.1s.2.13.3.13c.36 0 1.97.42 2.12.56.13.12.47.14 2.4.14 1.32 0 2.28-.04 2.32-.08m1.6-.15c.1-.06.33-.11.54-.1 1.33.04 8.87-.05 8.87-.1 0-.04-.16-.2-.36-.35s-.52-.4-.7-.56l-.82-.63c-.26-.18-.79-.6-1.18-.9-.39-.32-.9-.72-1.14-.89-.43-.3-1.39-1.03-2.35-1.79a161 161 0 0 0-3.33-2.52c-.03.02-.07.22-.08.46s-.06.56-.13.7q-.2.44.19.44c.1 0 .28.08.42.17s.3.18.35.18c.19 0 .6.85.61 1.29.03.75-.13 1.53-.43 2.06-.17.32-.26.6-.23.71.07.23-.43.97-.89 1.31-.35.27-.38.36-.14.6.18.18.54.14.8-.08m-1.06-.7c.52-.32.96-.91.96-1.3 0-.6-.54-1.31-1.28-1.67-.15-.07-.27-.18-.27-.26 0-.2.38-.14.78.14.46.33.54.33.67-.02.38-.97-.48-2.25-1.52-2.26-.64 0-.66-.3-.03-.36.3-.02.35-.06.38-.28.05-.46-.08-.8-.45-1.16a2.7 2.7 0 0 0-1.96-.82c-.4 0-1.6.4-1.94.67-.36.27-1.12.42-2.04.4-4.07-.06-4.5-.08-5.14-.27q-1.11-.33-1.2-.05c-.08.19-.52.16-.6-.04-.08-.23-.4-.32-.61-.16-.09.07-.37.16-.62.19-.44.06-.48.04-.9-.31-.38-.31-.52-.37-.9-.39-.34-.01-.49-.06-.59-.2-.07-.1-.18-.19-.24-.19-.15 0-.65.45-.65.59 0 .15-.14.14-.29-.02a.5.5 0 0 0-.29-.13c-.1 0-.3-.12-.47-.26a2 2 0 0 0-.38-.27l-.5-.08c-.3-.05-.6-.03-1.01.06-.5.12-.64.12-.89.03-.38-.15-.9-.19-2.96-.22-2.1-.03-3-.1-4.1-.32-1.46-.29-1.89-.52-2.22-1.2a1.5 1.5 0 0 1 .07-1.52q.26-.44.2-.69c-.07-.3.23-.65.82-.94.8-.38 2.04-.57 2.29-.35.06.05.2.07.32.03.17-.05.2-.1.14-.29a3 3 0 0 1-.1-.47c-.03-.38-.03-.4-.19-.45-.14-.05-.9.13-1.97.48a5.5 5.5 0 0 0-3.11 3.07c-.14.39-.37.6-.5.42q-.23-.32 1.02-2.09a8 8 0 0 1 1.97-1.57c.44-.2 1.33-.44 2.11-.58.56-.1.58-.1.61-.38q.03-.27-.1-.28c-.68-.03-1.93.03-2.18.11s-.35.08-.44 0c-.16-.15-.66-.13-.85.02-.09.07-.54.25-1 .39a4 4 0 0 0-2.55 2.04c-.3.5-.42 1.23-.42 2.36a6 6 0 0 0 .46 2.64c.72 2.05 2.54 4.36 3.95 4.99.43.2 1.82.56 2.77.73.2.04.4.1.47.14s.26.1.43.13l3.49.86c.74.2.91.18 1-.13.08-.3.33-.38 1.13-.4.86 0 1.58.1 1.93.25.14.07.33.1.42.07.13-.05.13-.08.02-.2-.3-.33-.46-.9-.27-1.01q.23-.12.57.34c.22.29.23.66.01.66q-.08.01-.09.08c0 .17.42.19.87.04.4-.12.5-.13.63-.04q.45.31-.42.4c-.32.02-.63.1-.7.18q-.1.12-.07.13c.02.01.3.03.64.04.6.03.6.03.87-.3.14-.17.32-.36.4-.42.19-.14.95-.15 1.04-.01s.06.88-.04.96c-.04.04-.74.09-1.57.11-1.87.05-2.07.1-1.65.45.18.14.34.15 1.9.1.93-.03 1.78-.1 1.89-.15.31-.15.43-.42.25-.6q-.3-.28-.02-.27.43 0 .15-.6c-.23-.46-.25-.98-.05-.98.24 0 .65.53.63.83-.03.46 0 .57.14.57.07 0 .19-.06.25-.13q.12-.13.71-.13c.48 0 .66.05.95.22.41.26.7.22.62-.09-.07-.24.23-.37.53-.22.28.13.29.12.15-.24-.2-.51-.18-.72.09-.72.25 0 .56.34.64.7q.04.23.32.25.27.03.36.23c.05.11.16.23.26.25.1.03.97.05 1.94.05s1.85.02 1.95.04.22.17.28.32l.11.26h2.35l.1-.24q.11-.24.03-.89c-.08-.6-.1-.66-.37-.8-.34-.16-.45-.43-.18-.43.1 0 .34.1.54.22.34.21.36.24.38.8l.03.6.44.02c.53.02.57 0 .9-.53q.28-.4.46-.41.4-.02-.1.63c-.47.63-.57.69-1.14.6l-.5-.07-.06.28c-.11.52-.02.86.24.93.44.1 1.3-.02 1.66-.24m-5.08-1.4c-.04-.03-.07-.22-.07-.41 0-.3.06-.4.45-.73.25-.2.5-.38.58-.38q.4 0-.14.55-.39.37-.42.68c-.03.29-.24.44-.4.3m-2.37-.3c-.4-.34-.56-1.04-.22-1.04.17 0 .66.44.7.64.02.12 0 .32-.06.44l-.1.23zm-3.48-1.17q-.3-.18-1.4-.38c-.55-.1-.48-.31.17-.5l.93-.27c.57-.19.81-.16.96.12l.13.24h2.03c2.98.02 2.88.02 2.85.2-.03.14-.25.15-2.5.2l-2.47.04-.06.22c-.07.26-.35.32-.64.13m-7.66-.9c-.42-.07-.98-.18-1.23-.25a4 4 0 0 0-.75-.12c-.17 0-.46-.06-.65-.13-.2-.07-.44-.13-.55-.13s-.9-.16-1.76-.35c-.84-.2-1.64-.35-1.76-.35-.22 0-.51-.06-1.5-.27l-1.01-.21a9 9 0 0 1-1.81-.54 4.38 4.38 0 0 1-1.34-.56c-.43-.24-.8-.4-.83-.34-.13.18-.43.08-.57-.2a12 12 0 0 1-.64-1.62c0-.26.25-.17.88.3l.85.62c.09.06.16.24.16.38 0 .22.06.3.31.43.18.08.37.19.44.23.1.07.81.35 1.58.6.26.1 1.16.3 1.7.38.24.04.55.12.7.17.16.06.43.1.6.1.19 0 .59.07.9.14.3.08.8.18 1.08.22s.6.12.68.16.4.1.72.13c.3.04.58.1.6.15.04.04.21.08.39.08s.45.04.6.1c.15.05.51.12.8.16s.78.13 1.08.2c.29.07.8.16 1.11.2.59.05.75.14.66.36-.06.14-.43.13-1.44-.03m2.67 2.7c.15-.25-.1-.4-.42-.26-.29.11-.3.17-.14.32.17.15.45.13.56-.06m6.25-.09c.06-.09-.22-.17-.4-.12q-.11.04-.07.12c.07.1.4.1.47 0m-11.2-.18c.25-.14-.02-.28-.5-.25-.3.02-.42.07-.45.18-.02.13.04.15.39.15.23 0 .48-.04.56-.08m22.42-1.7c.14-.74.03-1.32-.3-1.6q-.34-.27-.04.4c.14.29.14.38-.01 1.07-.18.8-.14 1.22.1.93.07-.08.18-.45.25-.8m4.94-.18q0-.04-.1-.1-.08-.03-.09.05t.1.09q.09 0 .1-.04m-39.13-.96c-.14-.1-.26-.21-.26-.24 0-.04-.21-.32-.48-.64a12 12 0 0 1-1.77-3.28 6 6 0 0 1-.34-2.29c-.06-2.09.24-2.92 1.48-4.05.58-.54 1.45-1 1.87-1 .1 0 .46-.12.8-.28.54-.24.64-.26.91-.17.42.14.5.13.72-.08.17-.16.2-.17.6-.04q.44.15 1.1.1c.8-.03.94.06.94.59v.36l.84-.01.97-.02c.18-.02.17-1.31 0-1.37a1.4 1.4 0 0 0-.55.09c-.48.15-1.04.17-1.41.04-.35-.12-.22-.26.24-.26.21 0 .63-.06.94-.13.71-.17 1.54-.1 1.71.14q.1.16.17.17c.08 0 0-4.23-.1-4.58q-.16-.65-.57-.54c-.27.07-.3.21-.35 1.35a4 4 0 0 1-.15 1.1c-.06.06-.25.17-.42.25-.27.11-.77.13-3.44.1-3.19-.05-3.51-.02-3.51.28q-.01.15.14.03c.08-.06.24-.1.36-.08.2.03.23.09.25.47.04.6.1.83.25.83.18 0 .35-.33.38-.74.02-.29.06-.35.22-.35.17 0 .2.06.22.57.03.49 0 .6-.17.73-.1.1-.2.2-.2.24s.33.07.72.07c.53 0 .75.04.84.14.21.23-.04.29-1.07.26-1.31-.03-1.68-.29-1.7-1.2 0-.26-.03-.51-.08-.57q-.25-.35-.22.67l.02.7-.38.37-1.22 1.17c-.46.43-.92.94-1.01 1.13l-.36.66c-.1.17-.22.71-.3 1.28a10 10 0 0 0 .31 3.65c.1.34.22.73.25.88.03.14.12.3.2.33.06.04.12.16.12.27s.07.26.15.32.23.27.32.47c.5.98 2.11 2.74 2.23 2.41.03-.06-.07-.2-.2-.3m37.23-.57c-.3-.29-.52-.34-.52-.13q.02.12.17.13c.1 0 .25.08.35.18q.17.16.23.13c.02-.02-.08-.16-.23-.3m-.84-.66c-.35-.28-.52-.28-.3 0 .1.12.27.21.38.21.17 0 .16-.02-.08-.21m-.65-.47c-.09-.16-1-.88-1.1-.88-.03 0-.23-.15-.45-.33l-.85-.68-.7-.59c-.22-.21-.5-.32-.5-.19s.22.39.33.39c.06 0 .36.2.67.46.56.47.82.67 1.54 1.2l.71.54c.35.28.5.31.35.08m-3.19-1.57c-.15-.32-.5-.66-1.29-1.27-.4-.3-1.05-.62-1.6-.75a1 1 0 0 1-.47-.18c-.03-.05-.15-.09-.26-.09-.41 0-.13.31.57.62.4.16.7.33.7.37 0 .14-.7.05-1.16-.16-.26-.12-.5-.21-.53-.21q-.04.02-.05.25c0 .14-.05.3-.12.33-.18.1-.96.28-1.26.29-.24 0-.26.02-.16.16q.27.39-.41.49c-.42.06-.42.06-.18.18.13.07.32.13.4.13.1 0 .72-.23 1.4-.52 1.05-.46 1.28-.53 1.76-.53.89 0 1.84.39 2.37.96.39.41.52.38.3-.07m-6.7-.05c0-.14-.66-.31-1.16-.31-.64 0-.84.11-.42.25.26.08 1.57.13 1.57.06m-8.35-.42c0-.27-.28-.5-.6-.5-.15 0-.27.02-.27.04 0 .1.63.64.75.65q.1-.01.12-.19m2.13.11q.4-.22-.85-.31-.78-.06-.8.02c0 .16.25.28.57.27.17 0 .34.02.37.05.1.08.55.06.71-.03m6.6-.18q0-.08-.1-.08-.09 0-.1.08.01.08.1.09t.1-.09m-.3-.38c.41-.08 1.02-.2 1.37-.25.57-.1.63-.13.63-.33q.01-.24-.2-.19c-.46.07-.57.05-.6-.08q-.02-.13.22-.24c.14-.06.24-.15.22-.2a3 3 0 0 0-.9-.3c-.49-.1-1.15-.28-1.48-.38a7 7 0 0 0-3.06-.06c-.26.1-.67.14-1.52.14-1.1 0-1.17 0-1.28.2-.15.25-.22 1.38-.1 1.54.18.24 1.5.34 3.8.32 1.61-.02 2.37-.06 2.9-.17m-6.1-.62v-.22h3.34c2.58 0 3.34.02 3.38.1.12.33.03.34-3.39.34h-3.33zm-5.33.48c.2-.14.21-.17.08-.22-.09-.03-.4-.04-.68-.03l-.52.03.38.18c.5.24.48.24.74.04m1.79.09q.04-.09-.2-.1-.23.01-.2.1.08.07.2.08.13-.01.2-.08m2.46-.17c.1-.06.12-.22.09-.61-.04-.5-.07-.56-.4-.8q-.37-.28-.36-.5a1 1 0 0 0-.07-.33c-.07-.1-1.33-.67-2.23-1.01-.54-.21-.7-.12-.7.39 0 .2-.08.48-.16.62a1 1 0 0 0-.1.56c.03.17 0 .36-.05.42-.13.14-1.6.16-1.69.02a2 2 0 0 1-.08-.65c0-.3-.04-.58-.08-.6-.03-.04-.28.03-.55.16a2 2 0 0 1-.97.22c-.55 0-.72.14-.42.34.12.08.27.3.34.5.15.38.49.55 1.13.56.5 0 2.92.36 3.17.46.11.05.3.06.4.03s.48-.01.81.04c1.67.27 1.74.28 1.92.18m-5.96-.28c.1-.02-.4-.08-1.62-.22-.52-.05-.56-.04-.56.13s.04.18 1.04.15c.58-.02 1.09-.04 1.14-.06m-2.67-.33c.16-.1.33-.19.37-.19.05 0 .17-.07.26-.16.18-.18.12-.37-.2-.66q-.32-.3-.33.07c0 .24-.25.33-.65.24-.23-.06-.28-.13-.32-.43-.08-.5-.18-.57-.53-.4q-.53.24-.77-.08c-.08-.13-.06-.19.1-.3.29-.21.37-.64.12-.64-.26 0-.25-.43.01-.5.25-.05.26-.34.01-.45q-.57-.3-1.1.24l-.33.34-2.22.06c-2.42.06-2.41.06-2.73.61-.28.5-.32.75-.17 1.09.3.62.56.76 2.05 1.06 1.34.27 2.19.33 4.13.31 1.9-.02 2.04-.03 2.3-.2m-3.58-1.62c-.06-.07-.1-.26-.08-.42.02-.27.06-.29.4-.32.27-.02.4.02.5.14.2.22.18.46-.02.46a1 1 0 0 0-.36.13c-.24.16-.3.16-.44 0m7.85.65q-.02-.08-.17-.09c-.2 0-.45-.4-.35-.53.03-.05.17-.08.33-.08q.38-.01.39-.35c0-.08-1-.05-1.16.04-.11.06-.14.94-.04 1.04.1.09 1 .06 1-.03m4.71-.36q.05-.17-.16-.44c-.45-.53-.66-.66-1.12-.72-.64-.08-.73.07-.16.25.57.19.9.5.9.82 0 .46.39.53.54.09m-9.06-.54c-.03-1.06-.25-1.6-.54-1.38-.21.16-.19.47.04.6.17.09.2.2.2.68 0 .54.14.99.27.87.03-.03.05-.38.03-.77m12.14.3c.06-.06.38-.1.72-.1s.61-.03.61-.07c0-.13-.96-.46-1.35-.46-.33 0-.41.04-.48.21-.08.19-.16.21-.9.25l-.8.05-.33-.3c-.33-.3-.6-.38-.6-.2 0 .06.19.26.41.45l.42.35 1.09-.04a4 4 0 0 0 1.2-.14m-11.47-.76c0-.12.04-.22.1-.22q.09-.01.1-.08c0-.13-.35-.11-.47.02-.06.06-.1.3-.09.55l.02.45.17-.25c.1-.14.17-.35.17-.47m1.22.35c.47-.17.33-.32-.26-.28-.54.04-.62.08-.54.28q.12.25.8 0m8.82-.17c0-.05-.19-.1-.41-.12q-.59-.03-.35.2c.1.09.76.02.76-.08m-7.27-.32c.03-.05.16-.07.29-.04s.25.02.28-.03c.03-.04-.08-.1-.24-.12-.3-.06-.38-.24-.16-.4.1-.07.24-.07.55.03.48.16.49.16.49.06 0-.12-.51-.31-.83-.32h-.3v-1.27c0-.76-.03-1.26-.1-1.24-.04.01-.08.39-.08.85q0 .81-.12.93c-.2.18-.26.03-.31-.87l-.06-.85h-.86c-.99 0-.92-.05-1.24.92-.12.35-.3.72-.4.8-.19.18-.22.51-.06.66.14.13.63 0 .9-.23.12-.1.33-.18.47-.18s.3-.06.37-.13c.16-.18.42-.17.62.04.27.26.13.44-.33.44q-.41 0-.46.14-.12.3.68.3c.44 0 .46 0 .46.24 0 .14.03.28.06.31.1.09.3.07.38-.04m7.8-1.8c0-1.29-.03-1.69-.12-1.7-.47-.02-1.4.04-1.48.1-.16.12.1 3 .29 3.18.06.05.38.1.71.1h.6zm.86.76c.04-1.29-.07-2.53-.22-2.53-.08 0-.15.16-.19.4-.08.55-.08 2.96 0 3.04q.08.05.23.03c.12-.02.15-.2.18-.94m-2.73.65c.03-.08 0-.77-.07-1.54-.15-1.62-.14-1.6-1.13-1.51-.76.07-.76.07-.22 1.44.22.55.43 1.14.47 1.3q.05.33.3.37.58.16.65-.06m-1.35-.24a.5.5 0 0 0-.1-.4 1 1 0 0 1-.22-.51c-.03-.2-.1-.4-.15-.42q-.09-.06-.1-.26c0-.11-.03-.23-.09-.26s-.12-.25-.15-.48l-.07-.44H59c-.67 0-1.3.04-1.4.1-.16.07-.19.18-.19.94 0 .78.02.87.22 1.03.4.31 1.04.64 1.26.65.12 0 .6.08 1.05.16 1.02.2 1.1.2 1.14-.11m-12.62-.14h1l.35-.35c.31-.31.4-.35.87-.37.7-.04.72-.2.04-.23-.45-.02-.55 0-.7.17-.16.2-.21.2-1.65.21q-1.48 0-1.87.13c-.41.13-.75.34-.69.42.02.03.4.05.85.04zm.64-1.15c.16-.16.24-.17.97-.12.71.05.81.04.97-.11.15-.16.16-.2.02-.43a1 1 0 0 1-.15-.4c0-.2-.17-.22-1.34-.22h-1l.06.4.14 1c.02.11.16.07.33-.12m4.2-.17c.2-.21.35-.96.21-1.11q-.09-.12-.74-.07a4 4 0 0 0-.68.1c-.02.02-.06.24-.09.5-.05.58.1.76.7.76.3 0 .47-.05.6-.18m-1.66-.8c.08-.22-.1-.41-.25-.27-.12.1-.03.46.1.46q.09-.02.15-.18m1.96-.8c.15-.05.21-.17.26-.52.09-.67.08-.83-.07-.88a6 6 0 0 0-1.71.26c-.12.11-.15.98-.04 1.08.17.15 1.12.18 1.56.05m-2.03-.08c.07-.05.12-.25.12-.44q0-.58-.54-.32c-.24.11-.31.42-.18.73.07.16.44.18.6.03m4.15 0c.06-.03.1-.36.1-.78l-.02-.73-.57.02c-.31.01-.62.07-.69.13a3 3 0 0 0-.27 1.4c.05.07 1.3.05 1.45-.04m1.42-.06q.12-.08.1-1.16l-.02-.6h-.38c-.21 0-.42.06-.5.14-.06.07-.13.45-.16.85-.03.6-.01.73.12.82.16.1.7.08.84-.05m3.07-1.12c.03-1.36.05-1.34-.95-1.16-.35.06-.84.13-1.09.15q-.46.04-.5.19a8 8 0 0 0-.02 1.93c.05.07.44.09 1.3.07l1.23-.02zm1.78 1.04c.03-.03.08-.62.1-1.31.04-1.23.04-1.26-.17-1.35-.18-.07-.28-.05-.49.1-.14.1-.31.19-.38.19s-.2.1-.28.21c-.12.17-.15.44-.15 1.21 0 .55.03 1.03.07 1.06.08.08 1.2-.02 1.3-.1m2.5-.05c.25-.14.32-.84.37-3.68l.05-2.97-.26-.21c-.2-.17-.4-.22-.97-.27-.42-.03-.78-.1-.85-.17-.1-.1-.06-.1.3-.06 1.11.15 1.51.16 1.67.04a5 5 0 0 0 .62-.9c.78-1.34 1.1-1.5 2.08-1.05.4.18.62.22 1.3.22h.83l.4-.48c.22-.26.47-.5.56-.52s.79-.04 1.55-.03c1.36 0 1.68-.06 1.53-.28q-.06-.1-1.4-.08a9 9 0 0 1-1.45-.05c-.15-.08-.07-.5.11-.6.06-.03.32-.06.58-.06s.62-.06.81-.13a3 3 0 0 1 1.63-.03q.25.1.37 0c.07-.04.3-.08.52-.08s.45-.03.51-.06c.17-.1.14-1.14-.03-1.27q-.15-.11-.75-.06c-.34.03-1.54.05-2.68.06-2.04.01-2.06 0-2.5-.22-.55-.27-.63-.27-1.3-.04-.4.14-.73.19-1.26.18-.4 0-.87.03-1.04.08-.28.08-.3.13-.37.57-.1.7-.03.74 1.1.74.7 0 1-.04 1.16-.14.28-.18.27-.52-.03-.77-.13-.12-.24-.23-.24-.27 0-.03.2-.05.46-.04.25 0 .55 0 .65-.02.18-.03.2.02.2.54 0 .54-.01.56-.25.56-.48 0-.53.41-.07.66.17.1.45.17.62.17q.3.01.37.14c.09.22.06.81-.04.87-.2.11-3.15.04-3.54-.08-.3-.1-.9-.13-2.42-.13-1.88 0-2.05 0-2.35.17-.18.1-.33.22-.33.27s.11.38.25.74c.13.36.24.7.24.77s.13.21.3.32c.25.16.28.22.22.48-.05.26-.02.34.23.54.16.14.36.37.45.53.16.27.16.3-.05.81-.18.46-.2.64-.15 1.38.03.47.1.96.16 1.1.05.13.1.8.1 1.48 0 .78.04 1.28.1 1.34.12.1 1.75.09 1.93-.01m-2.15-7.36a.4.4 0 0 1 .24 0q.09.03-.12.04-.21 0-.12-.04m-7.07 5.62c.08-.09.04-.16-.16-.3q-.49-.3-.5.11 0 .21.2.24l.29.05q.05 0 .17-.1m-13.29-.14c.13-.22.04-.44-.19-.44s-.29.17-.12.41c.18.24.19.24.31.03m14.61-.1c.03-.04.2-.08.35-.08.17 0 .44-.06.6-.13.17-.06.49-.14.7-.16a18 18 0 0 0 2.83-.6c.2-.15.08-.64-.27-1.1-.15-.21-.28-.4-.28-.42s-.16-.24-.37-.47c-.2-.24-.47-.57-.6-.75-.46-.6-.9-1.1-.97-1.1-.08 0-.68.77-.68.87a1 1 0 0 1-.18.29c-.1.11-.35.5-.55.86s-.57.97-.82 1.35c-.63.98-.74 1.24-.59 1.4.14.15.74.18.83.05m-14.04-.27q.12-.08-.04-.35c-.18-.32-.3-.26-.25.14.04.33.1.38.29.21m13.13-.73.37-.61c.04-.1.2-.32.34-.5q.43-.59.1-.6-.13.01-.14.13c0 .07-.33.53-.74 1-.4.5-.7.93-.67.98.14.2.47.03.74-.4m6.21-1.23c.03-.57.09-1.24.12-1.48.07-.5-.1-.8-.38-.7-.14.04-.16.22-.11 1.64l.06 1.63.13-.01c.08-.03.14-.36.18-1.08m-.75-.35c.04-.08.06-.68.05-1.34 0-1.41-.08-1.58-.67-1.58-.2 0-.4-.04-.44-.1-.11-.15.05-.2.34-.1q.65.22.35-.57c-.1-.22-.2-.53-.24-.67-.13-.5-.37-.4-1.46.57l-.44.39.34.02c.39.03.87.19.87.29 0 .03-.27.05-.6.03l-.58-.03.06.24c.04.13.17.33.3.45.21.21 1.11 1.37 1.67 2.17.29.4.36.44.45.23m-2.53-3.95c.14-.14.26-.27.26-.3 0-.04-.26-.07-.58-.07s-.58.02-.58.05.06.16.14.3q.27.49.76.02m.95-.86q.12-.12-.02-.16c-.51-.13-.48.05-.48-2.4 0-2.2.01-2.27.2-2.33.1-.03.2-.09.2-.14s-.43-.07-1.05-.05l-1.04.02v2.53c0 1.6.03 2.56.1 2.6a6 6 0 0 0 2.09-.07m-1.5-.18a6 6 0 0 1 .07-2.17c.1-.18.12-.3.04-.47q-.3-.67-.17-1.07a1 1 0 0 0 0-.48c-.2-.47.22-.66.5-.22q.32.49.03.71c-.19.14-.18.25.01.61.13.22.15.43.1.94-.03.35-.1.72-.16.81q-.1.17.02.56c.09.3.09.44 0 .61-.1.22-.3.3-.44.17m2.76-.52c.41-.19 4.7-.18 5.5.01.68.16 2.47.15 2.65-.02.14-.12.03-.29-.2-.29-.1 0-.4-.08-.65-.18-.34-.13-.77-.2-1.55-.24-1.42-.07-1.5-.13-1.5-1.06s.16-1.18.75-1.26c.25-.03.8-.05 1.2-.05.42 0 .79-.04.82-.08.03-.05.27-.15.53-.23.59-.17.73-.3.56-.51-.1-.14-.29-.16-1.33-.15h-1.2l-.35.31-.35.3h-2.26c-2.32 0-2.46-.01-2.9-.37-.18-.15-.27-.16-.62-.1l-.42.09V36c0 1.75.01 1.92.18 2.03.2.13.74.09 1.14-.1m12.8-.86c0-.1-.13-.13-.53-.13q-.76 0-.57.2c.03.03.3.06.58.06.4 0 .52-.03.52-.13m-7.71-3.23c.18-.17.33-.33.33-.36 0-.04-.22-.28-.49-.54a6 6 0 0 1-.75-.93c-.26-.45-.26-.47-.3-2.6l-.06-2.13-1.54-.03a10 10 0 0 0-1.63.05c-.13.12.02.36.25.39.2.02.2.06.17.81s-.02.8.22 1.03c.34.33.35.8.01 1.04-.37.26-.66.68-.74 1.07-.18.86-.47 1.71-.6 1.71-.03 0-.07.11-.07.25 0 .49.2.53 2.65.53h2.21zm-5.41-.77c.53-1.05.59-1.34.57-2.95-.01-.87-.06-1.55-.11-1.58-.1-.04-.67.75-1.17 1.62-.14.23-.34.48-.44.55-.1.06-.19.19-.19.28 0 .08-.07.2-.15.26-.17.14-.2 1.7-.03 1.8.05.03.27.06.48.05.28 0 .4.04.48.17q.24.4.56-.2M58.58 32c0-.17-.05-.32-.1-.35q-.1-.04-.1.35t.1.35c.05-.03.1-.2.1-.35m.34-1.25c.13-.13.24-.28.24-.33s.13-.25.29-.44.29-.39.29-.45.1-.21.23-.35c.27-.3.85-1.2 1.03-1.58.11-.25.1-.3 0-.4-.12-.1-1.3-.34-3.4-.68-.29-.05-.7-.12-.91-.17-1.4-.27-1.6-.3-1.6-.15 0 .09.75 1.14 1.52 2.12.12.15.21.3.22.36 0 .05.15.22.34.39.19.16.34.36.34.43s.22.41.49.75c.26.33.48.64.48.67 0 .15.21.06.44-.17m-7.8-.44c.57-.89.44-2.76-.3-4.16-.21-.42-.4-.8-.4-.83 0-.2-.6-.26-2.9-.3a28 28 0 0 1-2.96-.15c-.77-.17-2.01-.54-2.34-.7-.54-.25-1.3-.98-1.6-1.53l-.37-.65a3 3 0 0 1-.4-1.04c-.16-.65-.07-2.8.14-3.33.08-.22.15-.5.15-.63 0-.12.07-.28.15-.34s.15-.21.15-.35.04-.27.1-.3c.05-.03.09-.14.09-.25s.08-.29.17-.4a13.12 13.12 0 0 1 1.84-2.33q1.22-1.27.02-.58c-.67.39-1.25.97-1.25 1.25 0 .15-.23.54-.59 1.02a4 4 0 0 0-.67 1.11c-.09.05-.16.26-.54 1.5a7 7 0 0 0-.36 2.48c-.02 2.08.59 3.3 2.46 5.02l.85.77.15.78c.12.63.12.82.03.96-.1.14-.1.19.02.25.3.17.34.04.31-.94-.04-1.13-.02-1.16.88-1.1.41.01.58-.01.64-.1.12-.2 5.11-.15 5.11.04 0 .12-.37.14-2.52.18l-2.52.04-.03.4c-.04.48-.17.62-.54.59-.38-.03-.44-.22-.12-.33.28-.1.34-.39.1-.47-.25-.09-.5-.06-.55.05-.08.18 0 1.3.08 1.37q.45.36 2.02.36c.93 0 1.13-.02 1.2-.14s.28-.14 1.53-.13c1.47.02 1.63.04 1.57.21q-.02.1.16.2c.18.07.2.18.26 1.09.06 1 .12 1.34.3 1.54q.24.26.48-.13m10.62.04c.22-.18.22-.21.09-.37-.15-.17-.15-.17-.3 0-.13.16-.2.57-.09.57.03 0 .17-.09.3-.2m-5.75-2.2c-.06-.14-.23-.18-.23-.06 0 .1.11.2.21.2q.06-.02.02-.14m-13.73-.67c.2-.18.12-1.12-.09-1.12-.05 0-.09.17-.09.37s-.07.45-.14.54q-.13.16-.15.24c0 .11.34.09.47-.03m13.12-.05-.15-.29c-.16-.35-.7-1.04-.83-1.04q-.27 0 .25.57c.19.2.34.43.34.5s.1.19.22.27c.28.17.28.17.17-.01m-2.2-.63a.8.8 0 0 1 .51 0c.15.05.3.06.34.02.09-.08-.2-.91-.34-1a6 6 0 0 0-1.14-.07c-1.18 0-1.15.02-1.15-.79 0-.6-.16-.78-.55-.62-.22.09-.25.14-.2.43.02.18.2.61.4.97.2.35.35.69.35.75 0 .18.17.24.82.3l.65.08zm8.68-1.11.02-1.15-.32-.1c-.4-.11-1.07-.1-1.16.03-.1.13-.1 1.9 0 2.04.1.13.94.36 1.23.34.19-.01.2-.08.23-1.16m2.76 1.08c.03-.07-.01-.33-.08-.59s-.14-.7-.14-1c0-.74-.12-.83-1.08-.83-.72 0-.76 0-.95.25-.17.21-.2.39-.2 1.04 0 .44.04.9.1 1.02.09.22.1.22 1.2.22.82 0 1.12-.03 1.15-.11m-22.92-.2a.2.2 0 0 0-.3-.17q-.1.05.01.23c.1.18.29.15.29-.05m18.22-1.1.02-.92-.3-.12c-.4-.14-2.21-.06-2.33.1-.14.2-.1 1.44.04 1.55.07.06.45.14.84.2.4.04.74.1.77.13.02.02.25.03.49.02l.44-.03zm-3.11.43c.05-.07.07-.38.03-.77l-.06-.65h-.87l-.07.52c-.1.65-.06.72.34.88.4.15.5.16.63.02m-1.36-.8-.02-.62-.68-.03c-.71-.03-.82.03-.83.4 0 .31-.32.22-.39-.11-.05-.26-.05-.26-.8-.3-.89-.06-.97-.01-.92.53l.03.38 1.2.05c.68.02 1.3.08 1.42.14.3.15.76.27.9.22.09-.02.11-.2.1-.66m-7.56-.5c.13-.12.15-.5.04-.66-.04-.05-.25-.11-.46-.14-.58-.06-1.25-.23-2.24-.57a4 4 0 0 1-1.66-.97 7 7 0 0 1-1-1.02l-.4-.63q-.35-.55.01-.55c.1 0 .2.04.2.08 0 .23.89 1.37 1.46 1.86.76.66 1.6 1.03 2.95 1.3 1.21.26 1.21.26 1.21-.3 0-.26-.02-.54-.06-.61-.06-.16-.66-.2-.76-.05q-.13.2-1.19-.1c-1.2-.33-1.52-.53-1.9-1.17-.26-.47-.28-2.07-.02-2.43.22-.3 1-.8 1.37-.88.84-.2 2.53-.31 4.37-.31h2.05l.16-.23q.3-.41.6 0c.3.4.48.43.71.1.11-.16.2-.4.2-.52 0-.13.04-.24.08-.24l1-.03c.51-.01.98-.05 1.05-.09.06-.03.21 0 .33.06.22.13.84.29.84.22q-.01-.06-.13-.27c-.18-.32-.1-.84.15-.84.2 0 .47.45.47.77 0 .15.06.17.4.14l.98-.03c.54-.01.56-.02.7-.32.13-.29.16-.3.62-.3.27 0 .51.04.55.09.17.25.9-.05.78-.33l-.12-.47c-.04-.26-.03-.34.08-.34.2 0 .62.42.79.79l.14.31.72-.07c.39-.04 1-.14 1.34-.22s.82-.14 1.04-.13c.37 0 .4-.01.47-.25q.11-.46.6-.06c.2.17.36.2 1.16.22.83.02.98 0 1.46-.2.44-.19.58-.22.77-.14.23.1.3.4.13.5q-.29.15.29.28l.38.08.03-.44c.02-.34.07-.46.2-.48.2-.03.59.62.53.91-.03.12.01.25.09.3.2.16 1.75.06 2.17-.13.42-.2.94-.63 1.12-.94.08-.14.21-.24.3-.24.25 0 .61.35.61.58q.01.4.55-.04l1.12-.94a33 33 0 0 1 1.92-1.56c.19-.13.76-.6 1.26-1.04s1.1-.94 1.33-1.11c.64-.49 2.58-2.12 2.84-2.4l.24-.25-.23-.16c-.2-.15-.42-.16-2.95-.15-1.96 0-2.8-.02-2.98-.1-.21-.09-.3-.08-.49.03-.18.1-.52.13-1.6.13-1.07 0-1.43.02-1.66.13-.36.17-1.91.2-2.02.05-.13-.18.13-.26.91-.27q1.31 0 .49-.39c-.27-.12-.6-.13-2.23-.1-1.64.02-1.94.05-2.1.18-.1.08-.23.15-.3.15-.14 0-.87.35-.94.45-.03.04-.2.08-.37.08s-.36.03-.4.07c-.24.2-.88.3-2.04.35-1.18.05-1.26.07-1.29.24-.06.38.23.46 1.63.5 1.2.01 1.31 0 1.34-.15q.02-.15-.07-.25c-.16-.15-.13-.33.04-.27q.13.06.15.21c0 .27.62.5 1.35.48l.63-.01.03-.4c.02-.2.07-.42.12-.46s.7-.1 1.44-.1c1.52-.04 1.64 0 1.8.54.09.25.23.4.64.66.3.18.76.55 1.04.81.28.27.55.49.6.49s.13-.12.19-.27c.05-.14.14-.26.19-.26.1 0 .4.68.4.9q.01.17.1.32c.12.2-.06 1.12-.27 1.34q-.14.15-.09.45c.05.24.01.33-.18.5-.13.1-.23.27-.23.36 0 .22-.16.26-.78.17q-1.08-.12 0-.62c.88-.42 1.1-.96.71-1.74-.15-.3-.18-.31-.78-.15-.35.1-.4-.18-.08-.48.36-.33.29-.49-.5-1.13-.78-.63-1-.68-1-.2 0 .46-.39.92-.97 1.15s-.69.22-1.17 0c-.38-.17-.8-.65-.98-1.14-.18-.45-1.36-.6-1.78-.21-.21.19-.23.24-.12.44.1.22.09.26-.3.58-.22.19-.45.32-.5.3-.05-.04-.1-.2-.1-.36 0-.22.09-.37.34-.6.19-.16.34-.33.34-.38 0-.15-.68-.2-1.6-.11l-.93.08c-.04 0-.1.14-.13.3-.07.35-.56.8-.79.72q-.15-.05-.1-.2c.03-.07.09-.28.12-.46.05-.3.03-.33-.17-.38-.44-.11-1.32-.07-1.44.07-.1.11-.15.11-.4 0q-.47-.23-1.16-.02c-.3.1-.33.14-.3.38.03.32-.4 1.03-.6.97-.16-.05-.1-.8.1-1.07.08-.12.13-.24.1-.26a9 9 0 0 0-1.87-.03c-.42.02-.84 0-.92-.04a3 3 0 0 0-1.35.2c-.11.06-.11.12-.01.34.07.15.1.36.06.47-.07.24-.5.54-.7.47q-.3-.1.11-.74c.13-.21.22-.42.19-.46-.08-.12-.36-.09-.57.06q-.19.12-.83.12c-.35 0-.58-.03-.51-.05.27-.1.1-.2-.34-.2-.42 0-.45 0-.28.12s.17.13-.06.18c-.13.03-.37.04-.52.03-.23-.03-.28-.07-.25-.23.03-.18-.01-.2-.4-.2-.22 0-.93.12-1.57.27-.64.14-1.26.26-1.39.26s-.34.05-.49.12-.61.2-1.04.3a45 45 0 0 0-2.54.66c-.23.06-.46.15-.53.21a.5.5 0 0 1-.25.1c-.26 0-.85.55-2.1 1.92l-.41.42c-.12.11-.3.35-.38.53-.1.18-.22.39-.29.46s-.24.4-.38.74l-.34.79a7 7 0 0 0-.41 1.93q-.32 2.93 1.3 4.53c.68.68 1.55 1.05 3.18 1.35 1.06.2 3 .25 3.19.08m-5.45-6.76c-.03-.07 0-.3.09-.5.07-.2.14-.49.14-.65 0-.15.08-.47.2-.69l.18-.4.3.15c.25.14.3.14.45.02a6 6 0 0 1 1.53-.69c.09 0 .26-.06.38-.13q.36-.2 1.76-.49c.27-.05.53-.13.58-.17s.24-.08.42-.08.42-.05.53-.1.4-.14.6-.18c.22-.03.98-.2 1.7-.37s1.4-.31 1.52-.31.24-.04.28-.1c.03-.04.23-.08.43-.08.21 0 .5-.04.65-.1.66-.22 3.7-.64 3.84-.52.29.25-.1.39-1.67.57-.19.02-.54.08-.78.13l-.95.17-.73.15c-.2.06-1.03.23-1.9.39-.47.08-1.34.27-2 .43-.63.16-1.52.36-1.94.43-.39.07-1 .23-1.36.37-.1.04-.4.14-.66.21-.63.19-1.75.66-1.83.77a.2.2 0 0 0-.02.18c.06.14-.21.48-.9 1.14-.64.6-.75.66-.84.45m33.75-4.42q.06-.08.15-.09t.09.1q-.01.07-.15.08t-.1-.09m.34-.38c0-.06.08-.19.2-.28.15-.13.18-.26.18-.84 0-.85-.26-1.5-.69-1.7-.23-.1-.28-.18-.28-.45 0-.17-.09-.49-.2-.7s-.18-.4-.15-.43q.15-.15.5.53c.14.25.33.59.44.75s.18.38.19.47c0 .08.07.25.16.37.2.27.16 2.03-.05 2.25-.16.18-.3.2-.3.03m-12.57-.43c-.1-.05-.37-.13-.58-.16-1.3-.22-1.39-.37-.39-.65a5 5 0 0 1 1.66-.33c.07.02.14.13.16.23.03.19.04.2 2.62.21 2.17.02 2.6.05 2.6.15q0 .12-.1.18c-.04.02-1.2.05-2.57.05h-2.48l-.1.22c-.1.24-.47.28-.82.1m-6.72-2.48c-.2-.08-.03-.2.28-.2q.3 0 .26.1c-.04.12-.34.17-.54.1M50.2 24.57q.17-.35-.98-.47c-.8-.1-.92-.06-.92.26 0 .27.22.35 1.04.35.64 0 .82-.03.86-.14m11.85-1.96c.02-.75 0-1.51-.05-1.7-.07-.31-.12-.36-.36-.36-.26 0-.29.05-.53.7-.14.39-.28.74-.31.8-.25.37-.53 1.75-.39 1.9q.1.1.85.06l.76-.05zm-2 .79c.04-.53.18-1 .37-1.32.04-.07.1-.3.15-.51s.13-.52.2-.68.12-.33.09-.38c-.1-.13-1.05.01-1.27.19a1 1 0 0 1-.39.16c-.38 0-1.3.3-1.36.46-.04.11-.15.15-.42.15-.64 0-.77.18-.8 1.1-.04 1.05-.22 1.02-.25-.04a3 3 0 0 0-.13-.94c-.17-.18-.69-.04-.98.26-.23.25-.32.28-.97.32l-.7.05.01.26.06.65c.04.47 0 .62-.19.62q-.13 0-.13-.35c0-.2-.07-.51-.16-.7-.21-.5-.08-.75.45-.88.21-.05.39-.12.39-.14 0-.07-.62-.77-.94-1.07-.26-.24-.53-.2-.7.12-.05.12-.17.22-.26.22-.23 0-.53-.17-.53-.3s-.2-.23-.48-.23c-.2 0-.68.54-.68.77 0 .1.07.23.16.3.13.1.18.08.36-.13.25-.28.58-.24.9.1.17.2.23.2.36.11.17-.13.35-.06.35.13q-.02.12-.29.18a1 1 0 0 0-.38.15 6 6 0 0 0-.07 1.87c.06.08 1.02.1 4.12.09l4.05-.03zm4.21-1.14c.01-.94-.01-1.86-.05-2.05l-.06-.35h-.53c-.47 0-.53.01-.5.16q.02.17-.17.31-.2.14-.26.57a3 3 0 0 1-.18.7q-.13.26-.1 1.32l.04 1.07h.9l.9-.03zm-12.81.63q.05-1.4-.23-.92a7 7 0 0 0-.35 1.86c.03.06.17.09.3.07.24-.02.24-.04.28-1m-1.06.7c.03-.13.1-.33.14-.44s.1-.3.1-.41c0-.22-.1-.26-.67-.32-.38-.05-.24-.2.23-.25.53-.05.57-.2.09-.28-.2-.04-.45-.13-.56-.2-.39-.24-1.04-.09-1.04.25q-.01.1-.2.26c-.14.11-.19.25-.18.65 0 .28.04.56.09.63.05.08.37.17.8.23 1.11.16 1.13.15 1.2-.12m-3.2-1.81c.2-.07.52-.13.73-.13.4 0 .62-.21.36-.36a9 9 0 0 0-1.52-.08c-1 0-1.48-.04-1.73-.13-.43-.16-.52-.16-.52-.01 0 .2.37.43.8.5.31.05 1.17.24 1.5.33.02 0 .2-.05.38-.12m8.09-.44c.07-.07.27-.13.45-.13s.41-.05.52-.1c.15-.09.26-.1.48-.01.38.13.94 0 1.02-.24q.08-.16.26-.17c.26 0 1.1-.25 1.56-.46.26-.12.41-.14.53-.08s.24.03.44-.12c.2-.16.35-.2.55-.16q.28.05.34-.11t-.07-.25a2 2 0 0 1-.3-.4l-.18-.3-.1.3q-.22.6-.5.09c-.14-.24-.2-.27-.44-.23q-.55.1-.6-.5-.05-.59.65-.58c.17 0 .37-.06.43-.13.17-.18.23-.17.57.09q.62.46 1.46-.05l.43-.26h3.18c3.15 0 3.19 0 3.38.19.11.1.2.26.2.35 0 .17.36.22.54.09a4 4 0 0 1 .66-.24c.57-.16.78-.35.55-.48a7 7 0 0 0-1.15-.11c-.57-.03-1.27-.11-1.56-.19-.41-.1-1.13-.13-3.2-.14-3.99 0-4.8.06-6.78.57-1.2.3-3.62.67-4.48.67-1.28 0-1.44.02-1.6.22a.5.5 0 0 0-.09.46c.06.26.08.27.56.27.28 0 .59.06.7.12.1.07.34.14.52.16.38.03.53.24.18.24a.6.6 0 0 0-.35.1c-.18.17-.14 1.05.05 1.28.3.34.97.48 1.19.24m-5.26-.54c.02-.36 0-.46-.1-.46-.18 0-.93.53-.94.66-.01.19.25.3.62.28l.4-.03zm-1.05-.33c.27-.22.62-.45.77-.52s.3-.22.32-.33q.02-.2.3-.23c.16-.02.47-.2.77-.46.76-.66.78-.67 1.07-.74.32-.07.5-.25.43-.43-.05-.1-.12-.1-.51.01s-.77.14-2.37.1c-1.97-.05-3.8.03-4 .17-.07.04-.32.15-.56.23s-.55.28-.68.43c-.2.23-.24.37-.24.87 0 .54.02.62.24.77.67.48.83.51 2.45.52h1.52zm-1.82-1.33c-.34-.11-.41-.17-.39-.32q.04-.18.18-.15c.08.02.6.06 1.18.07 1.1.04 1.4.14 1.14.42-.16.17-1.53.16-2.11-.02m5.15 1.09c.08-.11.1-.26.07-.33a5 5 0 0 1-.37-.87l-.09-.31-.1.24c-.1.22-.09.72.03 1.27.03.1.1.2.18.2s.2-.1.28-.2m.96-.29c.17-.33-.04-.48-.26-.18-.1.12-.23.23-.3.23q-.13.01-.09.08c.12.18.54.1.65-.13m-1.92 0q.07-.14-.19-.13-.23 0-.24.13c0 .08.09.13.19.13q.17 0 .24-.13m14.13-.2c.4-.13.49-.2.36-.24-.29-.1-1.08.08-1.12.25-.04.2.1.19.76-.02m-14.07-.37q0-.07-.1-.08-.09.01-.1.08.01.09.1.1.1-.01.1-.1m13.13-.03c.18-.08.74-.14 1.37-.17a7 7 0 0 0 2.14-.36c.58-.18 1.08-.34 1.1-.36q.04-.05-.07-.25l-.1-.22H62.8l-.38.26c-.33.23-.47.26-1 .26-.5 0-.61.03-.61.15q0 .16.12.04c.15-.14.46-.13.46.02 0 .21.25.33.39.19.16-.18.57-.17.8 0 .16.15.18.14.3-.01.2-.24.49-.01.41.33-.05.24-.05.24.44.24.27 0 .63-.05.8-.12m5.4-.66q-.02-.07-.15-.04-.13.05-.14.09.01.03.14.03.14-.01.15-.08m-9.8-.27q-.02-.07-.2-.08-.17.01-.19.08.02.09.2.1c.1 0 .2-.05.2-.1m11.21-.05c.2-.07.5-.23.67-.34.16-.1.5-.26.76-.35.54-.18.75-.36.52-.45-.22-.07-1.11.28-1.47.58-.34.28-.6.41-1.15.57l-.4.11.35.01c.2 0 .52-.05.72-.13M54.7 17.9q.68 0 .68-.56c0-.39-.16-.49-.75-.49-.5 0-.52.01-.76.35-.34.49-.17.86.33.73a3 3 0 0 1 .5-.03m2.68-.39 1.51-.35c.53-.1.26-.22-.5-.22a3 3 0 0 0-1.32.22c-.3.12-.67.21-.82.21-.27 0-.54.19-.42.3s.6.06 1.55-.16m14.59-.44c0-.07-.12-.15-.27-.18s-.39-.1-.54-.15q-.27-.09-.37 0c-.15.13-.02.28.24.29.11 0 .27.04.35.08.23.13.59.1.59-.04m-1.9-.18c0-.04-.13-.1-.29-.11a1 1 0 0 1-.5-.26c-.18-.22-.22-.22-.67-.15q-1.04.2.16.5c.67.15 1.3.17 1.3.02m2.82-.13c-.08-.12-.41-.1-.5.01q-.04.1.07.17c.15.09.5-.06.43-.18m1.41.08c.16-.1.29-.24.29-.31q.01-.16-.14-.04c-.1.08-.2.08-.39 0-.21-.09-.32-.08-.62.05l-.36.16.32.08c.17.04.31.11.31.16 0 .14.3.1.6-.1m-12.12-.23c.12-.1-.07-.25-.45-.32a.6.6 0 0 0-.56.13q-.24.17-.21.26c.06.1 1.1.04 1.22-.07m1.5.06c-.04-.04-.2-.08-.35-.08s-.3.04-.34.08q-.03.1.34.1.38 0 .34-.1m3.02-.26c-.14-.32-.6-.44-.96-.23-.12.07-.45.16-.73.2-.49.05-.6.1-.45.24.04.03.56.05 1.16.05h1.09zm1.21.03q-.03-.2.23-.34c.35-.2.16-.3-.65-.3q-.65 0-.76.13c-.13.14-.06.3.12.31.07 0 .25.1.41.22.36.27.7.26.65-.02m-7.48.01c.15-.16 0-.33-.26-.28s-.3.42-.06.42c.1 0 .25-.06.32-.14m8.53-.56q-.01-.08-.15-.09t-.14.09q.01.08.14.09.14 0 .15-.1m6.85-4.7c-.1-.1-.18.06-.1.21s.07.15.11 0q.04-.15-.01-.21m-3.36-.52c.34-.29.34-.3.32-1 0-.4-.06-.75-.1-.8a5 5 0 0 0-1.19-.08c-.82 0-1.1.02-1.17.11-.18.26-.09.78.24 1.33.53.89 1.21 1.05 1.9.44m12.03-1.35c0-.12-.22-.05-.27.08q-.03.1.12.05.13-.06.15-.13m-22.25.01c1.3 0 2.18-.02 2.21-.07s-.05-.2-.18-.34l-.23-.24-1.63-.03c-1.6-.03-1.63-.03-1.8.17l-.17.2-.22-.18c-.21-.18-.34-.19-2.09-.2-1.76-.02-1.86 0-1.96.16-.14.24-.14.25.17.42.24.14.5.15 2.02.13zm22.62-.34q.03-.1-.08-.08a.3.3 0 0 0-.17.15q-.03.1.08.08a.3.3 0 0 0 .17-.15m.86-.73c.41-.4.45-.46.28-.49-.34-.05-.43-.18-.49-.7-.1-.87-.2-.88-.68-.12l-.26.4.25.2c.23.2.25.26.2.7-.09.62.06.62.7.01M47.03 7.5c0-.1-.19-.21-.26-.15s.06.23.17.23q.09 0 .1-.08m29.66-.18a.3.3 0 0 1 .09-.27c.27-.2.12-.25-.86-.27-.99-.03-1-.03-1-.25 0-.21.02-.21.92-.24.54-.01.95.01 1.01.07q.3.25.7-.21c.39-.46.27-.65-.42-.68l-.55-.03.02-.3c.06-.67-.41-1.3-.98-1.31a1 1 0 0 0-.56.25c-.24.22-.28.32-.28.72 0 .62-.1.73-.57.7-.3 0-.4.03-.45.16-.08.23.1.5.4.63.39.17.4.33.04.33-.24 0-.3.04-.27.15q.03.15.22.18c.1.02.28.06.39.1a7 7 0 0 0 2.07.43q.14.02.08-.16m1.03.11c.02-.04.02-.21 0-.4-.06-.38-.28-.43-.34-.08a2 2 0 0 1-.12.4q-.11.17.17.15c.14 0 .27-.03.29-.07M42.5 6.63h-3.35c-.92.02-.17.03 1.67.03s2.6-.01 1.68-.03m27-1.6q-.08-.07-.2-.08t-.2.09q-.04.08.2.09.23 0 .2-.1m.27-.52c.3-.21.34-.56.09-.66a3 3 0 0 0-1.57-.05c-.25.1-.36.11-.5.03-.4-.22-1.06-.01-1.06.33s.3.43 1.4.46l1.23.05c.08.01.27-.06.41-.16m.6-1.04c-.3-.27-.92-.42-1.3-.31-.35.1-.13.22.39.22.4 0 .53.04.74.24.15.14.3.22.35.18.06-.04-.02-.18-.18-.33m-17.18 60.4c-.03-.05-.24-.09-.45-.09a4 4 0 0 1-.9-.12c-.27-.07-.82-.18-1.22-.23s-.81-.13-.92-.17c-.2-.07-.96-.22-1.7-.34-1.18-.2-1.73-.3-2.13-.41a3 3 0 0 0-.7-.13 5 5 0 0 1-.82-.14q-.82-.2-2.5-.46c-.27-.04-.62-.12-.77-.17s-.4-.1-.58-.1-.55-.08-.84-.17c-.4-.11-.53-.2-.53-.32 0-.14.06-.16.34-.14.37.02 1.49.22 2.32.42.47.11 1.48.3 2.38.44.47.07 1.61.3 2.14.43.45.1.98.16 1.3.13.24-.02-.28-.18-1.01-.3-.38-.07-.94-.19-1.26-.27l-.97-.22c-.62-.11-1.71-.36-2.2-.49a4 4 0 0 0-.64-.12c-.3 0-1.3-.35-1.92-.66-.8-.4-1.99-1.4-1.99-1.67q-.01-.46.64.15c1.27 1.19 2.68 1.74 5.5 2.16.26.04.52.12.58.18s.24.1.4.1.47.05.69.12.65.17.97.23l.88.18.63.12c.2.03.43.11.54.18.18.13.18.13-.04.3l-.23.17.23.05c.7.16 1.65.33 2.08.4a8 8 0 0 1 .83.16c.18.05.56.13.86.18 1.4.23 1.67.34 1.43.6-.12.13-.33.14-.42.02m-10.81-.18-1.07-.15a6 6 0 0 1-.87-.18l-.68-.2c-.58-.14-2.06-.77-2.89-1.23-1.16-.64-2.84-2.02-2.84-2.33 0-.27.28-.1 1.19.7a8 8 0 0 0 2.47 1.74l1.1.48a6.28 6.28 0 0 0 1.26.43c.61.15.94.2 2.23.39.35.05 2.23.09 4.18.1 2.86 0 3.58.02 3.67.11q.08.1.04.17c-.09.09-7.26.05-7.8-.03m-7.28-4.96c0-.03-.38-.3-.83-.59s-.81-.58-.82-.66.09-.2.2-.27c.2-.11.2-.12-.1-.63-.16-.29-.3-.58-.29-.66 0-.18.35-.4.75-.48.27-.06.32-.04.4.15.05.12.14.25.2.28s.1.13.1.21c0 .24.31.44.64.42l.28-.02.03.7c.02.39 0 .9-.03 1.16-.05.41-.08.46-.3.46-.12 0-.23-.03-.23-.07m.08-1.09c-.03-.38-.07-.47-.25-.54-.12-.05-.36-.33-.53-.64-.17-.3-.37-.55-.44-.55-.18 0-.15.1.18.75.29.54.3.58.14.73s-.14.18.25.44c.6.39.68.36.65-.19m-5.91-2.86a1 1 0 0 1-.32-.31c-.16-.21-.16-.24-.01-.44.08-.12.27-.26.42-.32l.26-.1-.38-.07c-.58-.12-.64-.2-.64-.87q-.01-1.01.43-.48c.26.29.51.3.66 0q.1-.21.31-.2c.19.03.2.1.2.82.01.74.03.79.22.82.2.02.21-.01.24-.88.02-.86.04-.9.24-.93.22-.03.27.07.23.44-.01.08.07.19.18.24.24.12.26.32.04.43-.19.1-.34.78-.22.99.32.54-.16.95-1.12.94a3 3 0 0 1-.74-.08m1.12-.37c.38-.15.28-.37-.18-.4-.74-.06-1.1.17-.62.39.3.13.5.13.8.01m-.77-1.38c.08-.11-.2-.21-.4-.14-.19.07-.08.23.16.23q.17 0 .24-.1m2.47 1.57a.5.5 0 0 1-.02-.42c.12-.33 0-.67-.22-.67-.31 0-.27-.25.1-.59.18-.17.3-.34.24-.37-.18-.1-.1-.38.12-.44a1 1 0 0 0 .35-.23c.17-.22.82-.22 1.05 0 .1.08.3.2.44.26.33.12.35.34.05.44-.2.07-.2.08-.02.13.24.07.57.54.5.72-.03.07-.14.12-.24.12-.16 0-.19.06-.17.38.01.2.06.44.1.53.12.25-.1.32-1.18.32-.9 0-1-.02-1.1-.18m1.34-1.64q.02-.1-.2-.1c-.28 0-.43.13-.24.2s.4.03.44-.1m.47-2c-.03-.03-.06-.17-.06-.3v-.25l-.9-.02c-.72-.02-.9-.05-.9-.16q0-.12.37-.17c.55-.07.44-.22-.17-.25-.43-.02-.54-.05-.54-.18 0-.16.58-.7.76-.7q.1 0 .16-.09c.03-.04-.09-.07-.26-.06-.28 0-.32-.02-.32-.2q-.01-.24.23-.26c.12-.01.27-.1.33-.2.17-.23.95-.23 1.19.01.09.1.26.18.37.2.29.03.28.35 0 .46-.23.09-.3.22-.12.22s.57.42.57.6c0 .15-.07.18-.53.2-.61.03-.72.18-.17.25.34.04.37.06.4.38.03.4-.2.7-.4.52m-.3-1.6q.03-.1-.2-.2c-.27-.1-.53-.03-.6.18-.05.13.7.15.8.02m-4.45 1.51c-.04-.03-.07-.3-.07-.6 0-.6.17-.75.38-.34.09.18.17.22.5.22.73 0 .77-.06.74-1.1-.02-.68 0-.94.1-1.01.18-.14.42-.03.42.2 0 .1.1.28.2.39.21.2.18.38-.06.38-.11 0-.14.17-.14.86q0 .84-.12.96a6 6 0 0 1-1.95.04m1.54-.46c-.04-.05-.32-.09-.64-.09s-.58.04-.58.09.28.08.64.08q.61 0 .58-.08m6.45-.95c0-.77.04-1.42.09-1.45s.15-.03.24 0c.14.05.15.23.13 1.42-.03 1.35-.03 1.37-.24 1.4l-.22.03zm-2.07.89q-.2-.18.22-.4c.34-.17.78-.77.78-1.07 0-.19-.05-.21-.41-.24q-.43-.03-.44-.17c-.05-.2.37-.3.94-.2.41.08.45.1.47.37.08.71-1.16 2.07-1.56 1.7m-6.05-.9c-.36-.14-.56-.5-.46-.8.19-.58 1-.81 1.46-.42.3.25.32.85.05 1.07-.22.19-.76.26-1.05.15m.73-.6c.05-.33-.28-.46-.61-.25-.15.1-.16.15-.06.31.16.27.62.23.67-.07m44.39-5.21c-.67-.26-.56-.84.2-1.08.27-.08.24-.1-.31-.1-.58 0-.6-.02-.6-.23q0-.2.09-.21t.1-.14c0-.07.2-.21.43-.32q.74-.32.2-.33c-.28 0-.44-.24-.24-.35.2-.12 1.91-.06 2.05.07q.16.12-.02.2a1 1 0 0 1-.31.08c-.3 0-.2.14.21.3.28.12.42.24.5.45.05.16.07.33.04.38s-.33.1-.66.1c-.51 0-.55.02-.28.08.74.16.95.74.38 1.05-.37.2-1.31.23-1.78.05m1.36-.37q.13-.06.15-.16.02-.22-.72-.22c-.47 0-.78.21-.53.35.16.1.87.11 1.1.03m.06-1.33c0-.04-.11-.14-.25-.22-.22-.13-.27-.13-.53-.01q-.64.3.24.3c.3 0 .54-.03.54-.07m6.34 1.62c-.03-.07-.04-.3-.02-.5.03-.32.07-.39.23-.39q.2 0 .22.24c.03.23.04.24.87.26s.85.03.85.24c0 .22 0 .22-1.05.25-.83.02-1.05 0-1.1-.1m-1.34-.11a2 2 0 0 1 0-.64c.08-.66 0-.7-.9-.59-.56.07-.7.12-.69.23.03.1.19.14.68.16q1.03.04.6.4c-.2.19-1.61.2-1.77.02q-.11-.13-.09-1.07l.03-.95.75-.03c.62-.02.77 0 .81.12.09.2 0 .25-.52.3q-.47.05-.46.18c0 .14.68.2 1.24.1.3-.07.31-.08.31-.5 0-.37.03-.43.2-.43s.2.06.2 1.4c0 1.22-.03 1.4-.17 1.42a.2.2 0 0 1-.22-.12m-8.82-.18c-.14-.13-.04-.32.42-.83.48-.52.54-.64.43-.9-.08-.17-.46-.18-.62 0-.19.2-.31.15-.28-.11q.04-.23.36-.44c.43-.25.46-.25.81.07.26.23.29.3.24.62-.03.21-.17.49-.35.69-.16.18-.3.36-.3.38s.18.05.4.05c.35 0 .39.02.36.19-.04.28-.32.4-.57.27q-.2-.12-.38-.02c-.21.1-.43.11-.52.03m11.97-.54a6 6 0 0 1-.04-1.89c.03-.07.14-.14.24-.14.18 0 .19.07.16 1.07-.02 1.07-.13 1.34-.36.96m-2.17-.34a3 3 0 0 1-.07-.79c0-.57.04-.74.15-.78.2-.06.44.12.44.33 0 .19.07.2.43.08.13-.05.25-.14.25-.21 0-.21.21-.27.35-.1.17.21.18 1.28.01 1.43-.12.1-1.45.15-1.56.04m1.1-.55q0-.27-.43-.12c-.27.1-.18.3.14.3q.31.02.29-.18m-12.9-.1c-.78-.12-.87-.15-.66-.26q.35-.2-.07-.3-.22-.06-.24-.17c0-.1.1-.08.4.05.23.09.5.17.61.17s.35.07.54.16c.61.27.28.47-.58.34m-2.62-.39a1 1 0 0 0-.57-.08c-.13.03-.39 0-.58-.05-.3-.09-.32-.12-.18-.2.12-.1.3-.09.81.01.37.07.94.16 1.28.19.37.03.64.1.67.16.06.16-1 .14-1.43-.03m-31.39-3.84-1.02-.53c-.9-.33-1.26-.52-1.26-.66 0-.1.2-.27.51-.45.28-.16.57-.36.64-.44s.26-.15.4-.15q.26 0 .34-.07c.1-.15 1.04-.55 1.17-.5.08.02.17.17.22.33.07.25.12.28.37.26a1 1 0 0 0 .4-.11c.05-.05.21-.06.34-.03q.25.05.75-.18a2 2 0 0 1 .76-.2l.25.02.02.92c0 .5-.03 1.05-.09 1.2-.08.22-.07.31.01.4q.28.2-.12.32a3 3 0 0 1-1.43-.26 1 1 0 0 0-.32-.08c-.08 0-.22-.08-.3-.17-.14-.14-.2-.16-.37-.08-.27.13-.34.24-.35.53 0 .33-.2.31-.92-.07m43.97.08c-.04-.04-.07-.19-.07-.34 0-.35-.05-.4-.37-.3-1.6.44-1.99.53-2.27.5l-.32-.02v-2.98l.3.02c.35.02 1.05.15 1.45.27 1.15.36 1.21.35 1.21-.01 0-.47.2-.56.7-.3.38.2 1.95.96 2.62 1.27.15.07.27.17.27.23 0 .16-.78.6-1.55.88-.08.03-.3.13-.49.24-.96.53-1.34.67-1.48.54m-2.26-.6c.1-.07.33-.13.5-.13.18 0 .35-.04.38-.08.08-.12 1.45-.4 1.64-.33q.16.05.16.32c0 .14.02.26.06.26s.28-.1.55-.23l1.07-.49c.3-.14.54-.3.52-.35-.02-.06-.16-.17-.32-.24l-1.81-.86q-.06 0-.08.22c0 .46-.09.5-.83.35l-1.38-.31c-.39-.1-.75-.17-.8-.14-.1.06-.12 2-.02 2.08s.15.07.36-.07M43.1 35.95q-.53-.26-.52-.5c0-.22.33-.22.65 0 .33.24 1.05.25 1.19.02s.04-.27-.58-.27c-.5 0-.56-.03-.76-.26-.25-.3-.26-.4-.06-.48s.21-.07.4.12c.15.13.37.17 1.15.21l1.43.1c.44.06.47.05 1.1-.43.37-.28.73-.49.86-.49.12 0 .36-.02.52-.05.25-.05.35 0 .6.21.16.15.3.33.3.4 0 .21-.28.27-.48.11-.16-.13-.6-.2-.6-.1 0 .03.11.2.24.37.18.24.22.35.14.43-.19.2-.36.13-.62-.27-.14-.22-.3-.4-.37-.4-.06 0-.3.17-.53.37-.4.35-.45.38-.97.38-.3 0-.67-.03-.81-.07-.21-.05-.28-.03-.32.1-.04.1-.15.27-.26.4-.18.2-.26.22-.84.21-.36 0-.75-.05-.86-.11m-9.62-1.72c-.46-.16-.46-.79 0-1.04.15-.08.24-.18.2-.2-.08-.09-2.08-.08-2.22 0-.06.04-.11.3-.11.58 0 .54-.1.72-.35.64-.11-.04-.16-.21-.18-.65l-.03-.6-.61-.02c-.52-.02-.6-.05-.58-.17s.2-.16 1.1-.2l1.06-.04.06-.3c.04-.17.05-.34.03-.37a4 4 0 0 0-.97-.07c-.74 0-.93-.03-.98-.14-.11-.26.15-.34 1.27-.37 1.33-.04 1.41 0 1.24.7-.06.24-.09.47-.06.52.03.04.43.07.88.07q.84 0 .76-.09c-.04-.05-.17-.07-.29-.04-.43.1-.53-.01-.53-.6 0-.67 0-.66 1.15-.66 1 0 1.28.05 1.28.26s-.2.26-1.09.26c-.67 0-.77.02-.74.15.03.12.15.14.76.13.4-.01.79.02.86.06.23.14.04.34-.4.42l-.41.07.68.04c.51.04.67.08.67.18q0 .13-.29.15c-.16.02-.4.05-.53.08l-.24.05.29.13c.16.08.32.18.36.24.15.2.07.5-.18.7-.23.2-.35.22-.95.22-.38 0-.79-.04-.9-.09m1.48-.52c0-.18-.6-.3-.94-.18-.15.05-.27.15-.27.23 0 .11.1.13.6.1.47-.01.61-.05.61-.15m4.87.33c-.03-.1-.06-.28-.06-.39 0-.17-.03-.18-.28-.1-.15.04-.62.07-1.04.06l-.77-.03-.03-.98-.02-.99.26-.09c.14-.05.5-.08.8-.06.47.02.54.05.54.2 0 .14-.08.18-.48.22-.41.03-.5.07-.52.24-.02.1 0 .2.05.2.65.05.9.03 1.17-.08s.32-.2.32-.42q0-.57.3-.56.16 0 .22.24c.06.34.07 2.4 0 2.58-.07.22-.4.2-.46-.04m-.06-1.05c0-.28-.33-.45-.6-.32-.1.04-.32.08-.52.08q-.54.01-.4.38c.04.1.23.12.78.11l.74-.01zm1.46.99c-.24-.4-.04-1 .25-.78.07.05.13.17.13.27 0 .42.15.5.92.48q.71-.01.84.09c.1.09-.1.1-.96.1-.97 0-1.1 0-1.18-.16m38.68-.06a.5.5 0 0 1-.06-.86q.2-.12.17-.17a7 7 0 0 0-1.57-.07l-.65.02v.57c0 .55-.01.57-.22.55-.2-.03-.22-.1-.27-.55l-.05-.53-.47-.04q-.47-.05-.58-.2c-.17-.25.08-.32 1.07-.33.88 0 .89 0 .96-.24.05-.13.08-.28.09-.33s-.4-.1-.92-.13c-.86-.04-.92-.05-.95-.24-.03-.2-.02-.2 1-.2 1.35 0 1.45.05 1.36.67-.04.26-.03.48.01.48.4.06 1.6.05 1.64-.02.03-.04-.1-.08-.27-.08s-.38-.04-.44-.1c-.16-.14-.15-.81.02-.94q.14-.1 1.14-.07c.93.02 1 .04 1 .2s-.08.18-.86.22q-.85.04-.9.15c-.04.07.21.1.9.13.88.02.96.04.96.2 0 .14-.08.18-.49.22q-.52.04-.3.12c.09.04.33.05.53.02q.38-.05.56.07c.18.13.18.14 0 .27a1 1 0 0 1-.42.13q-.4 0-.03.3c.53.44-.04.92-1.08.92-.35 0-.73-.06-.88-.14m1.48-.34c.14-.15.15-.14-.28-.32-.35-.15-.54-.14-.84.07-.19.13-.19.13 0 .26.25.16.96.16 1.12-.01m4.92.34a2 2 0 0 1-.07-.75v-.68h-1.55v.55l.62-.05c.48-.03.66-.01.75.08q.1.12.02.21c-.12.1-1.59.15-1.76.05s-.17-1.81 0-1.96c.07-.06.39-.1.77-.1.6 0 .66.01.66.17 0 .18-.38.33-.57.22-.16-.09-.5.12-.5.3 0 .15.07.18.4.18.21 0 .56-.05.77-.11.37-.1.39-.13.39-.47 0-.4.17-.6.43-.5.14.04.15.22.13 1.46-.03 1.34-.04 1.41-.23 1.44-.1 0-.22 0-.26-.04m1.48-.08c-.07-.08-.13-.33-.14-.57 0-.24-.03-.43-.07-.43q-.07-.01-.22-.14c-.1-.1-.15-.3-.15-.73 0-.68.17-.99.45-.83.1.05.2.2.23.3q.06.2.23.25c.16.02.45-.13.43-.24q-.05-.3.24-.26c.2.03.22.08.24.73.03.77-.06.92-.58.92-.25 0-.27.02-.27.34v.34l.86.03c.92.03 1.04.07.95.29-.09.2-2.02.2-2.2 0m.73-1.66c0-.1-.4-.16-.6-.1q-.12.06-.08.15c.08.11.68.07.68-.05m-45.49 1.3a6 6 0 0 1-.06-1.14c0-1.08 0-1.09.22-1.06.2.03.22.07.24 1.02q.03.99-.08 1.11-.18.2-.32.07m46.55-.3c-.1-.15-.05-2.04.06-2.13q.1-.1.24.08c.2.25.2 1.82-.01 2-.18.17-.2.17-.29.05m-48.48-.25c-.21-.06-.26-.21-.26-.8 0-.7.05-.87.29-.87q.17 0 .24.27.06.28.28.26c.18 0 .24-.06.29-.27s.1-.26.28-.24c.2.03.21.06.21.81v.8l-.6.03c-.34.03-.66.03-.73.01m.78-.5c-.03-.18-.26-.24-.45-.13-.2.11-.05.27.24.27q.26 0 .21-.15m-11.8-2.06c-.1-.24-.03-1.02.1-1.18q.1-.11 0-.11c-.22 0-.5-.39-.5-.68 0-.69 1.03-1 1.58-.48.33.32.34.7.04.97a1 1 0 0 1-.48.19q-.51 0-.18.3c.13.1.32.14.7.12l.52-.03.03-.94c.02-.93.03-.94.26-.94.2 0 .24.05.24.2 0 .12.1.32.2.44.19.21.19.23.02.31-.14.07-.18.25-.22 1.03l-.05.95-1.09.03c-1.06.02-1.1.02-1.18-.18m1.73-.33c0-.05-.24-.09-.53-.09s-.54.04-.54.09.24.09.54.09.53-.04.53-.09m-.94-1.5c.24-.34-.33-.6-.62-.28-.11.12-.1.16.1.3.25.2.38.18.52-.02m4.3 1.91-.08-.28c-.03-.16-.12-.18-.98-.2-.84-.02-.95-.04-.92-.17.02-.11.14-.16.44-.18.6-.04.5-.2-.12-.2-.29 0-.55-.03-.59-.08s.01-.23.1-.4c.12-.22.24-.32.45-.36.36-.06.47-.2.15-.2-.24 0-.5-.2-.38-.3.03-.03.14-.05.23-.05q.17 0 .2-.24c.03-.24.05-.24.66-.24.63 0 .63 0 .62.24-.02.21.01.24.27.24.42 0 .35.3-.09.33-.33.03-.34.2 0 .2.24 0 .76.48.76.7 0 .15-.08.17-.68.17-.4 0-.68.04-.68.09s.15.08.34.08c.52 0 .73.13.73.47 0 .38-.33.67-.44.38m-.38-1.52c.06-.15-.5-.23-.75-.11q-.26.1-.08.18c.18.1.79.06.83-.07m3.52 1.47c-.05-.1-.1-.72-.1-1.4 0-1 .03-1.25.16-1.36.12-.11.19-.12.3-.04.17.13.19 2.7.01 2.86-.16.15-.25.13-.37-.06M88 30.1c-.07-.06-.12-.22-.12-.36 0-.25 0-.25-.44-.2-1.1.13-1.27.14-1.4.06s-.3-1-.22-1.22c.02-.06.24-.1.5-.1q.73 0 .62-.32-.06-.12-.53-.12c-.35 0-.5-.03-.54-.14-.1-.21.23-.38.75-.38.57 0 .76.13.8.57.02.28.06.35.22.35.15 0 .2-.07.22-.35.04-.63.1-.75.36-.75h.24l-.02 1.51c-.02 1.27-.05 1.51-.18 1.53a.4.4 0 0 1-.26-.08m-.12-1.22c0-.27-.28-.37-.66-.24a2 2 0 0 1-.55.06c-.26-.02-.3 0-.33.21l-.03.24.79-.02c.77-.02.78-.02.78-.25m-4.85 1.02q-.1-.24 0-.4c.17-.3.08-.64-.19-.7a.6.6 0 0 1-.34-.2c-.08-.12-.06-.19.12-.32.22-.16.22-.17.06-.48-.21-.4-.11-.48.65-.48.56 0 .85.15.71.36q-.06.09.06.06c.08-.02.15-.15.17-.27s.09-.24.15-.24c.26 0 .35.23.35.85 0 .37.04.64.1.64s.1-.32.1-.8c0-.7.02-.78.17-.76s.17.17.17 1.47v1.44l-1.1.03-1.09.02zm.35-2.03q-.03-.12-.04.15 0 .27.04.15a1 1 0 0 0 0-.3m-47.17 1.98c-.03-.05.14-.25.37-.46.37-.3.65-.76.65-1.03 0-.04-.18-.08-.4-.1-.35-.02-.42-.05-.42-.2s.07-.18.6-.2c.77-.03.87.09.65.79-.26.82-1.18 1.59-1.45 1.2m40.02-.13c-.24-.26.01-.3 2.07-.3 1.13 0 2.12-.04 2.2-.08.2-.12.03-.27-.28-.27-.5 0-.59-.08-.59-.47 0-.2.05-.42.12-.48s.41-.1.87-.1c.44 0 .76-.04.76-.09s-.32-.09-.77-.09c-.56 0-.8-.03-.88-.13-.1-.1-.1-.15 0-.26.09-.1.32-.13.9-.13 1.1 0 1.2.04 1.28.44.11.58-.03.69-.94.71q-.77.03-.83.14c-.03.07.22.1.92.13.77.02.95.05.95.15q.02.14-.49.18-.5.04-.48.17c0 .1.15.14.63.16.69.03.87.11.69.32-.18.18-5.95.19-6.13 0m.16-.73c-.09-.12.04-.36.2-.36.2 0 .17-.6-.03-.74-.1-.06-.14-.17-.1-.25.05-.12.23-.15 1.18-.15 1.03 0 1.12.02 1.12.17a.4.4 0 0 1-.15.27c-.08.06-.14.22-.14.36 0 .2.06.28.24.34.27.1.32.3.09.38-.25.09-2.35.07-2.41-.02m1.57-.66c.12-.36.09-.4-.33-.4-.28 0-.33.03-.33.21q-.01.5.34.5c.16 0 .24-.08.32-.31m-6.02-2.38a3 3 0 0 1-.07-.74c0-.58-.03-.69-.16-.69-.14 0-.15.09-.1.66.06.65.06.67-.15.64-.22-.03-.22-.06-.25-1.25-.01-.67 0-1.27.03-1.34.1-.24.34.07.34.43q0 .35.14.34.14.02.17-.46c.02-.34.07-.46.17-.46.13 0 .15.22.15 1.44 0 1.35-.05 1.63-.27 1.43m3.13-.11a6 6 0 0 1-.07-1.47c.02-1.18.04-1.29.2-1.32.1-.02.23.02.27.09.1.13.12 2.52.03 2.73s-.3.17-.43-.03m-2.24-.5c-.12-.12-.1-.16.1-.28.64-.37 1.13-1.12.93-1.4-.03-.06-.2-.1-.39-.1-.35 0-.53-.12-.3-.2.2-.07 1.05.03 1.2.13.33.25-.07 1.05-.83 1.67-.46.37-.53.38-.71.18m-3.16-.09c-.06-.13-.08-1-.04-1.67.01-.31.39-.26.46.07.07.34.28.34.36 0 .06-.3.33-.44.45-.26s.11 1.64 0 1.84c-.14.23-1.14.24-1.23.02m.84-.33c.16-.18.08-.44-.13-.44-.23 0-.4.23-.32.42.07.18.3.19.45.02M32.32 13.21q-.13-.27 1.14-1.3c1-.83 1.4-1.08 2.66-1.67 1.03-.48 1.4-.6 2.62-.88 1.55-.34 1.8-.39 2.2-.39a46.57 46.57 0 0 1 6.94-.4c2.47-.01 3.05 0 3.14.1.15.16.04.39-.18.39-.2 0-4.27.89-5.46 1.2-1.05.27-1.33.33-2.28.5-.9.17-1.84.38-2.16.5-.12.04-.33.07-.46.07-.14 0-.37.06-.51.12-.36.16-1.06.25-1.13.15q-.13-.15.87-.34c.27-.05.64-.13.82-.18l2.28-.54c.47-.09 1.17-.26 2.28-.55.46-.12 1.24-.3 1.75-.4a17 17 0 0 0 1.82-.45c.69-.19.15-.25-1.85-.22a48 48 0 0 0-5.94.41 7 7 0 0 0-1.86.3c-.16.07-.36.13-.43.13-.55 0-2.47.8-3.65 1.5a10 10 0 0 0-2.2 1.87c-.07.24-.32.29-.4.08m10.5-7.87c-.2-.18-.2-.77 0-.91.2-.16.41-.05.45.23.03.25.03.25.95.3.84.06.93.05 1.05-.1q.14-.18.51-.17.4 0 .38-.13t-.15-.19q-.35-.14-.25-.65l.07-.3.82-.04c.64-.04.82-.07.82-.18 0-.14-.53-.17-1.08-.07-.4.08-.72-.1-.53-.31.1-.11.33-.14 1.08-.14 1.07 0 1.16.05 1.16.63 0 .45-.08.5-.97.52-1.06.04-1.01.2.05.2.64 0 .78.03.8.15q.02.14-.17.2-.33.12-.08.28c.17.1 1.85.04 1.96-.06.14-.12-.06-.4-.27-.37a1 1 0 0 1-.35-.06c-.17-.09-.2-.19-.2-.75 0-.35.05-.67.1-.7.21-.12.4.15.4.58v.43h.76c.89 0 1.07.04 1.07.26 0 .2-.27.29-.62.21-.23-.05-.25-.03-.25.22v.27h.58c.53 0 .59.02.59.18 0 .17-.05.18-1.56.16q-1.57 0-1.7.1t-1.55.08c-1.24-.02-1.44 0-1.52.12-.13.2-2.12.21-2.35 0m4.31-.83q0-.19-.17-.15c-.25.04-.28.33-.03.33q.2 0 .2-.18m4.97.86c-.15-.13-.16-.56-.02-.64q.1-.06 0-.18c-.07-.07-.1-.18-.07-.24q.04-.12-.18-.22-.38-.17-.13-.32a1 1 0 0 0 .19-.27.3.3 0 0 1 .31-.21c.22 0 .46-.14.46-.28 0-.04-.15-.07-.34-.07-.36 0-.48-.2-.19-.3a9 9 0 0 1 2.17.03c.2.11.04.27-.27.27-.15 0-.3.03-.33.06-.11.1.14.29.37.29.24 0 .63.4.63.64q-.02.12-.25.18-.26.05-.2.21c.03.08.06.37.08.63l.03.48-1.07.03c-.75.01-1.1-.01-1.19-.09m1.43-1.76q-.02-.04-.17-.18c-.17-.13-.2-.13-.36.03-.17.18-.17.18.18.18.2 0 .35-.01.35-.03m8.84 1.1c-.22-.38-.68-.4-4.9-.23-1.13.04-1.27.03-1.38-.1-.3-.37-.1-.39 3.16-.39h3.08l.11-.22c.13-.25.27-.27.66-.09.16.08.39.13.52.14.45 0 1.02.23 1.02.4s-.31.3-1.3.52c-.72.16-.86.15-.97-.04m-17.7-.15a1 1 0 0 1-.06-.4c0-.3-.33-.4-.65-.21-.12.07-.43.13-.69.13-.57 0-.9-.25-.9-.68 0-.39.1-.54.4-.68.34-.16.75-.16 1.06 0q.6.3.78-.1.1-.2.26-.19c.16.03.17.15.17 1.12 0 .94-.02 1.1-.15 1.12a.2.2 0 0 1-.22-.11m-1.19-.89c.23-.07.2-.53-.03-.64-.25-.12-.48-.03-.55.23-.1.34.2.55.58.41m1.06-.39c-.17-.15-.36 0-.21.15q.12.14.22.04.1-.09-.01-.19" style="fill:#000"/></svg>