<svg xmlns="http://www.w3.org/2000/svg" xml:space="preserve" width="120mm" height="30mm" viewBox="0 0 120 30"><path d="m132.8 44.5 62 27.1" style="opacity:1;fill:#000;fill-opacity:.920746"/><path d="m103.4 22.9-1.5-.2-2-.3-1.8-.3-1.8-.3-1.8-.3-2.3-.6-2.3-.5h-4.5l-4.5-.1-6-.2L69 20l-5.5-.2-5.5-.3-4.5-.1L49 19l-5-.2-5-.2h-6l-1.6.2-1.6.2-2.2.2-2 .2H11.6l-1.3-.7-1.3-.7-.6-.5-.7-.6-.5-1-.6-1v-2.9l.6-.9.5-.9.7-1 .7-1.1 1-.9.8-.8 1.2-.5 1.1-.4 1.7-.1h1.7L19 6l2.3.6.6.1.6.2 3.2.8 3.2.7 1.3.2 1.4.1 4 .2 4 .2 4.7.1 4.7.2 4.7.2 4.7.1 7 .2 6.8.1 3.1.2 3.1.2h10.2l1.9-.3 1.8-.2 1.6-.2 1.6-.2 1.8-.2 1.8-.2 2.6-.3 2.6-.3h3.2l1.2.3 1.1.3 1.6 1.2 1.6 1.2.5 1.3.5 1.3-.1 1.4V17l-.4 1-.3.9-.3.3-.2.3-.2.4v.4l-1.2 1-1 1-1.2.3-1.1.5h-3.1zm5.2-.8 1-.3.5-.4.4-.4.2-.1h.2l.5-.6.4-.6-.2-.2-.5.3-.6.2-.4.3-.4.2-.6.2-.6.2-1.4.2-1.3.2-1.2-.2-1.1-.2-1.3-.2-1.3-.3h-.5l-.5-.1-4-.8-3.9-.9H90v1l.3.2.3.1 2.2.4 2.2.4 2.5.5 2.5.5 2.5.4 2.5.3h.5l.5.1h.8l.8-.1zm0-2v-.2h-1l-.1.2-.1.2h1.2zm2.2-1.1 1-.8.6-1 .6-1v-2.3l-.5-1.2-.5-1-1-.9-1-.8-1-.4-1-.4h-1.3l-1.3-.2-1.4.4-1.5.4-1 .8-1 .7-.6 1-.5.8-.1 1.3-.2 1.2.4.9.3 1 .3.1.3.2v-.4l-.3-.3-.3-.4v-1.4l.1-1.4.5-.8.4-.8.7-.5.7-.6.8-.4.9-.5h4l.4.3.4.3h.4l.8.7.8.7.3.4.3.4.4.8.3.8v1.4l-.3.5-.3.4-.3.7-.4.6-.8.6-.9.7v.3h.4l.3-.2zm-22 .6.2-.2v-.8l-.4-.1-.3-.2-6.4-.2-6.5-.2-3.6-.1-3.6-.2-4.5-.1-4.5-.2-2.9-.1-2.9-.2-5.2-.2-5.2-.2h-4l-4-.2-.2.6-.3.7.2.2h2.2l2.3.2 4 .2 4 .1 5.5.2 5.5.2 5.2.2 5.2.3h4.8l4 .2 4 .2h7.1zm12 0-.7-.7-.7-.7-.3-.6-.3-.6-.2-.9-.2-1 .1-1 .1-1.2.7-1 .8-1.2.5-.4.6-.3v-.4h-1.3l-1.2.1-1 .2-.8.1-1.3.2-1.3.2-1.6.1-1.6.2-1 .2-1 .1H78.4l-3-.1-3-.2-6.8-.2-6.8-.1-5.4-.2-5.4-.1-2.8-.2-2.8-.2-5.6-.1-5.6-.2-1.2-.2-1.2-.3-1.6-.2-1.5-.3-1.8-.5-1.9-.5h-.6V8l.7 1 .6 1v3l-.6 1.1-.7 1.1-.9.7-.9.7v.3h2.5l2.4-.1 2.6-.2 2.6-.2 1.3-.2 1.2-.1 3-.1 2.8-.1 3.4.2 3.4.1 5.5.2 5.5.2 3 .1 3 .2 4.6.2 4.6.1 4.7.2 4.7.2 5.4.1 5.3.2.8.2.8.1.9.2.9.1 1 .2 1 .2 1.5.3 1.5.4.4.1.4.1h.5zm6.9-.3h.3V19h-2.3l-1-.2-1-.2-.9-.7-1-.8-.2-.7-.3-.8.4-.5.3-.6v-1h-.7l-.4.7-.3.5V16l.4.7.3.7.8.7.7.6.8.4.9.3h2.9zM28 18.6l1.4-.1 1.7-.2 1.7-.2.6-.2.5-.3V17l-.1-.5-1-.1h-1l-1.2.1-1.2.2-2.2.2-2 .1-1 .2-1 .1H14l-1.3-.4-1.3-.4-1-.9-1.1-.8-.4-.6-.3-.6-.2-.8L8 12H8l-.2.1-.1.8-.2.9.2.8.2.9.4.6.4.6.7.6.8.6.8.4.8.4h1l1.2.2h6.3l6.4-.1zm80.3-.9.7-.6-.1-.5-.2-.5-.3-.5-.4-.4-.6-.3-.5-.4h-.6l-.6-.2H104l-.7.2-.5.4-.4.3v1.4l.6.5.6.5.8.3.7.3h.6l.6.2h.7l.7-.1zm1.6.1.4-.4.5-.7.4-.7v-.6l-.5-.8-.5-.7-.3-.2-.3-.2-.3.2-.3.1v.5l-.1.4.3.6.4.6v1.7l-.2.4-.2.3h.3zm-94.2-1.1h-1H16zM19 16l.8-.5.6-.7.7-.7.4-.6.4-.5v-1.1l.2-1.1-.2-.7-.3-.6-.8-1-.8-1-1.4-.7-1.3-.6h-3.8l-1.1.5-1.2.6-.9.8-.8.9-.2.7-.1.7h.2l.3-.6.4-.5.6-.6.5-.6 1.2-.5 1.1-.5h2.8l1 .3 1 .4.6.4.6.5.4.6.5.6.3 1 .2 1-.3.9-.2 1-.4.5-.3.4-.8.6-.8.6-.4.2h-.5v.4h1zm-2-.5.8-.2.1-.2.1-.2h-.6l-.5.2-.4.2-.4.2-1-.2-.8-.1-.7-.3-.7-.2-.6-.6-.7-.6v-3.3h-.3l-.6.4-.6.4v2.1l.4.4.3.3v.3l.7.5.6.5.6.3.6.3.8.1.8.1h.7l.7-.1zm-.1-1 .7-.3.3-.4.3-.4v-1l-.6-.6-.7-.5-1-.2-1-.2-1 .2-.8.3-.3.2-.4.3v1.2l.5.5.4.4.8.4.8.3h1.3zm91.4-.3V14l.2-.7.1-.6-.5-.2-.5-.2h-.2l-.2.1v.6l-.2.6.4.3.5.3h.3zM9.8 14zh-.2v.2zm9.9-1.1.3-1v-.6l-.4-.5-.4-.5h-.5l-.1.4-.2.4.4.8.5.9-.2.5-.1.4h.4zm84.2.3.3-.4-.1-.3-.1-.2h-.6l-.3.2-.3.3v.6h.1l.2.2h.5zm2.3 0 .2-.3v-.4l-.1-.5h-1.2v.5l-.1.4v.3l.2.2h.7zm2.8-1.4v-.2l-.4-.2-.5-.2-1-.3-1-.2-.8.1-1 .1-.1.1-.2.1.2.2.3.1h3.2l.4.3.4.2h.5zm-99.8-1v-.4l-.2.2-.2.3v.4h.4Zm8.6-.7v-.5H17v.7l.2.2v.3h.3l.2-.1zm-4.6.4.3-.2h.4l.3-.2v-.8H14l-.2-.2-.3.2-.4.1-.3.1-.4.1v.8l.2.1v.1h.2zm3-.8v-.5h-.5l-.3.2-.2.4.2.2v.3h.4l.3-.1zm-4-.9.7-.2h4l.8.3.7.3.2-.1V9l-.5-.5-.7-.5-1.2-.2-1.3-.3-1.2.3-1.1.4-.5.2-.4.3-.2.2v.2h.1z" style="fill:#000"/></svg>