<svg xmlns="http://www.w3.org/2000/svg" xml:space="preserve" width="120mm" height="60mm" viewBox="0 0 120 60"><path d="m132.84 44.51 61.9 27.13" style="opacity:1;fill:#000;fill-opacity:.920746"/><path d="M43.1 55.72c-.06-.12.04-.44.2-.7.18-.26.32-.66.32-.89s.09-.55.2-.7c.12-.16.25-.48.3-.72a9 9 0 0 1 .79-2.57c.2-.43.42-1 .47-1.27s.15-.62.22-.78c.06-.16.3-.94.53-1.73.6-2.1.92-3.08 1.29-3.97.69-1.67.8-1.97.9-2.46.07-.28.2-.63.28-.78a.8.8 0 0 0 .08-.54.6.6 0 0 1 .14-.53c.12-.13.31-.42.43-.64.11-.21.33-.43.49-.48s.28-.18.28-.3c0-.25 1.96-2.22 2.22-2.22.1 0 .3-.13.45-.29s.35-.28.45-.28.34-.17.54-.36c.2-.2.45-.37.57-.37s.4-.13.6-.28c.22-.16.5-.3.65-.3a1 1 0 0 0 .4-.12c.19-.17 2.03-.67 3.24-.9 1.73-.31 5-.06 7.2.57 1.22.35 3.22 1.39 4.56 2.38.88.64 2.3 2.27 2.3 2.63 0 .34-.29.24-.52-.19-.4-.72-2.35-2.41-3.56-3.08-2.61-1.45-4.76-2-7.7-2-1.61 0-3.43.27-4.34.66-.26.1-.57.2-.69.2s-.35.1-.51.21c-.16.12-.38.22-.48.22-.24 0-.8.24-1.28.55-1.03.65-1.3.84-1.61 1.11l-1.02.8c-.38.28-.7.58-.7.67s-.17.3-.36.44-.5.51-.7.82c-.3.46-.33.58-.15.68.11.08 1.07.1 2.12.06 1.04-.04 6.27-.07 11.62-.07h9.72l.2-.46c.18-.42.2-.44.45-.2.14.12.3.48.34.77s.2.71.31.92c.12.21.22.5.22.63s.11.48.24.77c.7 1.53 1 2.25 1.45 3.63.28.84.56 1.58.63 1.66s.12.23.12.36.1.4.21.6c.12.21.36.84.55 1.4.18.57.39 1.07.46 1.1.06.04.17.32.22.62.06.3.2.67.3.83s.31.71.47 1.23.35 1.02.43 1.12.2.43.27.72l.23.96q.12.44-.07.32c-.1-.06-.17-.26-.17-.44s-.1-.4-.21-.5c-.12-.1-.25-.34-.3-.56a2 2 0 0 0-.48-.83l-.38-.43-.32.36-.84.98c-.54.62-1.07.79-1.23.4q-.1-.21-.26-.23c-.1 0-.76-.36-1.47-.8a22 22 0 0 0-2.32-1.23 1 1 0 0 0-.45-.13c-.1 0-.46-.12-.8-.26-.9-.38-1.61-.62-2.22-.74-.3-.06-.7-.18-.89-.28s-.67-.2-1.06-.24c-.4-.03-1.37-.13-2.17-.22-.8-.1-2.05-.15-2.8-.14-.93.02-1.32-.02-1.25-.13.06-.08.23-.16.38-.16s.4-.12.54-.28c.26-.27.27-.27.67 0 .33.22.77.28 2.35.34 1.07.05 2.07.15 2.24.23.16.08.48.15.7.15.24 0 .65.07.91.16.83.29 1.27.06 2.78-1.44.77-.76 1.4-1.5 1.4-1.63 0-.2-.25-.36-1.1-.61-.38-.12-.33-.38.08-.38.51 0 3.14 1.2 4.08 1.87.95.67 1.64.96 1.86.76.14-.14.13-.27-.08-.6a2 2 0 0 1-.26-.64c0-.12-.1-.44-.21-.7-.26-.57-.95-2.52-1.24-3.5a3 3 0 0 0-.37-.85.7.7 0 0 1-.16-.46c0-.16-.07-.36-.15-.44a8 8 0 0 1-.76-2.22c0-.14-.15-.37-.32-.53-.3-.25-.6-.27-3.47-.27-6.03 0-20.68.13-20.94.19-.19.04-.44.6-.89 1.95-.34 1.05-.71 2.1-.82 2.33-.11.24-.3.73-.4 1.09a53 53 0 0 1-1.31 3.85c-.41.9-.13 1.59.4.98.1-.11.28-.21.4-.21.1 0 .49-.19.85-.42 1.58-1 3.04-1.64 6.14-2.69.42-.14.89-.3 1.03-.38.15-.06.51-.12.8-.12s.76-.1 1.02-.23c1.49-.73 9.58-.73 10.67 0 .2.13.59.23.89.24.7.01 2.48.58 2.56.82q.13.38-1.33-.1a26 26 0 0 0-6.22-1.1c-.87-.08-1.12-.06-1.18.1-.04.1-.09 1.03-.11 2.04a6 6 0 0 1-.19 1.84c-.07 0-.12-.78-.1-1.78.05-2.3.01-2.34-1.83-2.12-3.2.37-5.42.86-7.23 1.6-.33.13-.78.29-.99.35-.43.12-.91.48-.91.68 0 .07.39.47.87.88 1.42 1.22 2.18 1.95 2.18 2.1 0 .2 1.24.3 1.6.12.4-.2 1.18-.38 2.2-.54.47-.07 1.15-.19 1.52-.26.7-.14 1.14-.08 1 .13-.04.06-.43.15-.87.2-1.06.13-2.3.4-2.47.54-.08.07-.32.12-.53.12-.33 0-1.05.22-2.38.73-.16.07-.64.23-1.06.36s-1 .35-1.3.5l-.76.35c-.13.05-.54.28-.92.51-.37.24-1.06.63-1.52.87s-.98.53-1.15.65c-.3.2-.37.17-1.1-.5-.44-.4-.8-.78-.8-.86 0-.18-.32-.27-.65-.19-.15.04-.26.2-.27.38 0 .17-.08.47-.2.67-.1.2-.28.64-.4.98q-.34 1.03-.52.51m4.56-1.82c.98-.6.9-.84-.69-2.3a7 7 0 0 0-1.58-1.23c-.23.07-.69 1.22-.7 1.75 0 .32.2.6.87 1.25.98.93 1.3 1.01 2.1.53m29.81-.92c.9-.81.9-.83.9-1.65 0-1.27-.62-1.5-1.41-.53-.2.26-.73.82-1.16 1.25l-.8.78.5.48c.27.27.62.48.78.48s.7-.37 1.2-.81m-27.17-.54c1.43-.68 2.13-.96 2.44-.96.29 0 .94-.5.94-.72 0-.07-.26-.31-.57-.54-.3-.22-1.08-.86-1.71-1.42-1.29-1.15-1.62-1.32-1.97-1.02-.14.1-.73.44-1.3.73-.6.29-1.18.61-1.3.72s-.36.23-.5.28c-.58.19-.29.7 1.16 2.07.8.74 1.52 1.35 1.61 1.35s.64-.22 1.2-.5m25.66-1.18c.7-.68 1.3-1.32 1.32-1.42.1-.44-3.23-2.4-4.08-2.4-.15 0-.7.43-1.24.96l-1.55 1.46a3 3 0 0 0-.57.6c0 .06.29.22.65.36.91.38 2.84 1.26 3.31 1.53.55.3.9.13 2.16-1.1M59.05 28.07c-.27-.16-.53-.44-.56-.6-.04-.18-.1-3.48-.15-7.35-.06-5.36-.03-7.06.1-7.16.11-.08.74-.19 1.4-.24 1.06-.1 1.27-.16 1.65-.53.38-.35.43-.49.34-.88a3 3 0 0 0-.34-.8c-.2-.29-.2-.33.02-.4.13-.06.9-.07 1.73-.04 1.3.04 1.57.1 2.1.42.38.23.75.64.97 1.06.34.64.36.82.37 3.74.01 3.47-.04 3.7-.88 3.7-.92 0-1.06-.38-1.11-3.17-.05-2.62-.1-2.9-.38-2.62-.14.14-.19 1.9-.19 7.33v7.15l-.36.28a1.3 1.3 0 0 1-1.6-.02l-.4-.3-.02-2.48a115 115 0 0 0-.12-4.22c-.08-1.49-.13-1.73-.36-1.77-.25-.05-.26.22-.26 4 0 2.22-.07 4.2-.15 4.4-.13.32-.85.81-1.18.8-.07 0-.35-.13-.62-.3M46.02 12.84a5 5 0 0 1-1.34-1c0-.11.16-.28.35-.37.18-.1.8-.46 1.36-.81 1.15-.73 1.55-.76 1.62-.11.03.23.13.48.23.54s1.2.1 2.46.1h2.55c.34 0 .47.45.28.93l-.15.38h-2.56c-2.77 0-2.94.04-2.94.75 0 .6-.33.52-1.86-.4m10.17-.75c-.33-.06-.68-.41-.68-.7 0-.1.1-.27.24-.4.37-.35 4.77-.33 5.23.03.47.37.28.86-.42 1.04-.5.13-3.64.15-4.37.03m3.28-2.92a6 6 0 0 1-1.22-.79c-.3-.26-.7-.5-.91-.53-.33-.04-.4-.13-.43-.67-.06-.7.17-1.07.64-1.02.52.06.98-.15 1.1-.5.2-.63.98-1.23 1.83-1.4 1.4-.27 2.3.08 2.92 1.16.25.44.4.52 1.06.63.77.13.78.13.87.76.12.76.04.92-.47.92q-.38 0-.87.52c-.8.85-1.34 1.09-2.66 1.16-.97.06-1.3.01-1.86-.24m3.06-.43c.33-.16.78-.54 1-.85.28-.41.52-.59.9-.66.68-.12.7-.47.03-.58-.6-.1-2.73-.14-4.7-.08-.81.02-1.54 0-1.63-.05s-.31.04-.5.18c-.3.24-.33.3-.16.5.12.14.34.24.5.24s.4.17.54.38.57.56.95.8a3.4 3.4 0 0 0 3.07.12" style="fill:#000"/></svg>