<svg xmlns="http://www.w3.org/2000/svg" xml:space="preserve" width="120mm" height="60mm" viewBox="0 0 120 60"><path d="m132.84 44.51 61.9 27.13" style="opacity:1;fill:#000;fill-opacity:.920746"/><path d="M29.9 56.9c0-.36-.06-.74-.12-.85-.1-.14-1.73-.18-6.3-.16l-6.15.02-.14-.51c-.1-.4-.27-.55-.69-.65-.48-.12-.56-.22-.6-.76-.03-.35.02-.61.13-.61q.16.01.18.19 0 .19.26-.03c.34-.28.5-.1.26.31-.24.44-.23.53.05.53.13 0 .35.16.48.36.24.35.27.34.95-.63.39-.54.83-1.12.98-1.29.35-.37.34-.37-.54-.52-.65-.1-.74-.07-1.1.4-.48.64-.98.73-.56.1.26-.39.26-.42-.02-.53-.16-.06-.45-.01-.64.1-.27.17-.37.17-.48-.01-.07-.12-.06-.31.04-.43s.16-.74.14-1.42a26 26 0 0 1-.02-1.75l.03-.54h5.28c3.42 0 5.3.06 5.3.17 0 .09-.2.16-.42.16-.6 0-.64.19-.18.93.22.36.48.8.57.99.1.18.38.58.65.89.39.44.64.57 1.2.6.4.04.73.02.73-.02 0-.12-.57-1.12-.7-1.22-.05-.05-.14-.2-.2-.34a8 8 0 0 0-1.19-1.67c-.16-.18-.3-.36-.3-.4s.8-.09 1.78-.09h1.77l.34-.55a7 7 0 0 1 2.39-2.01c.3-.15.98-.33 1.5-.4l.96-.12-.78-.7c-1.08-.99-1.55-1.86-1.97-3.66-.5-2.12-.79-6.36-.56-8.34.03-.23.65-.2 1.25.05.16.07.39 0 .56-.17.4-.38 1.26-.22 2.21.42.42.28.9.51 1.05.51.31 0 1.49-.64 1.59-.87.08-.19.54-.16.54.04q0 .44-.23.37c-.09-.03-.48.14-.89.37-.4.23-.84.42-.98.42-.33 0-1.24-.45-1.49-.74-.35-.42-1.32-.5-1.72-.16-.28.25-.4.27-.67.1-.18-.1-.49-.2-.67-.2-.34 0-.35.1-.35 2.82 0 1.55.07 2.86.15 2.91s.2.56.27 1.13c.25 2.21.91 3.64 2.27 4.92l.94.89.92-.89c1-.96 1.2-1.43 1.66-3.96.4-2.16.5-3.32.29-3.32-.1 0-.19.15-.19.34q0 .34-.28.3c-.22-.05-.27-.25-.25-.98.02-.5.09-1.25.17-1.66l.13-.75.22.44c.2.38.18.53-.05.99-.36.7-.35.82.05.82.2 0 .38-.16.45-.38.15-.43.16-2.42.02-2.56-.13-.13.06-.56.24-.56.46 0-.13 6.4-.78 8.53a6 6 0 0 0-.26 1.28c0 .27-.29.73-.77 1.26-.42.45-.76.87-.76.93s.29.14.64.19a6 6 0 0 1 3.77 2.44l.4.51H55.6l.12.75c.06.41.06 1.02 0 1.35-.1.52-.17.58-.52.5-.32-.08-.43 0-.6.4-.25.59-.16.73.48.74h.46v1.75c0 .96-.07 1.84-.15 1.96-.12.16-1.68.2-6.85.2-5.8 0-6.71.04-6.8.25-.13.33-.45.33-.45 0 0-.22-.68-.24-5.5-.2l-5.5.04v1.33h5.67c3.12 0 5.67.05 5.67.12s-2.63.13-5.86.13H29.9Zm-11-1.36c.39 0 .6-.2 1.27-1.24a8 8 0 0 0 .81-1.41c0-.1.12-.18.25-.18q.24-.02.16-.23c-.21-.54-1.93-.13-1.95.47 0 .1-.23.44-.51.76-.28.31-.5.64-.5.73 0 .1-.17.33-.37.54-.37.4-.29.82.14.66.14-.06.46-.1.7-.1m4.84-.31c.17-.14.31-.32.31-.4 0-.07.32-.61.7-1.2.38-.6.64-1.15.59-1.25-.06-.09-.38-.17-.7-.17-.5 0-.65.1-1.02.68-.24.37-.55.71-.68.76-.14.06-.25.23-.25.4 0 .16-.06.32-.13.35-.07.04-.26.3-.43.59-.22.4-.24.54-.08.6.36.13 1.36-.09 1.7-.36m-1.94-.18c.2-.27.38-.55.38-.62s.28-.53.62-1.02c.7-.98.61-1.24-.37-1.14-.41.04-.66.26-1.32 1.2-.45.64-.93 1.36-1.07 1.61l-.26.46h.83c.71 0 .87-.06 1.2-.5m4.45-.55.91-1.37c.12-.18.29-.38.37-.44s.1-.2.02-.31c-.18-.29-1.49-.1-1.7.25l-.99 1.5c-.44.68-.8 1.27-.8 1.32s.33.1.74.1c.73 0 .77-.03 1.45-1.05m2.22-.2c.48-.67.87-1.3.87-1.4q.01-.17.19-.19.16-.02.11-.2c-.04-.12-.37-.22-.78-.22-.7-.02-.7-.01-1.73 1.5-.57.84-1.03 1.57-1.03 1.64s.34.11.75.11c.73 0 .76-.02 1.62-1.23m1.84.31q1.45-2.06 1.3-2.27c-.04-.07-.37-.13-.73-.13-.59 0-.7.08-1.14.75-.27.41-.54.75-.61.75s-.13.15-.13.33-.06.34-.13.34c-.13 0-.72.87-.72 1.06 0 .06.34.1.76.1.73 0 .78-.03 1.4-.93m1.9.16c.25-.42.56-.87.68-1 .13-.12.2-.49.17-.85-.04-.48-.13-.63-.4-.67-.26-.04-.58.3-1.4 1.52-.59.87-1.07 1.62-1.07 1.67 0 .06.35.1.78.1.73 0 .79-.03 1.23-.77m.88.15v-.63l-.43.5c-.53.63-.52.75 0 .75.39 0 .43-.07.43-.62m4.99-.5c.02-.62.02-2.2 0-3.5l-.06-2.37h-4.59v7h4.6zm2.19.75c.17-.2.32-.44.32-.5 0-.13.65-1.08.86-1.3.17-.16.51-.82.51-.99 0-.09-.33-.17-.75-.17-.67 0-.78.06-.98.5-.12.28-.28.5-.35.5q-.12.02-.13.24c0 .13-.06.26-.13.29-.2.08-.9 1.1-.9 1.3q-.01.16-.17.17t-.17.17c0 .09.35.16.79.16.6 0 .85-.08 1.1-.37m2.46-.66c.38-.57.76-1.17.85-1.33.1-.17.23-.3.3-.3s.13-.15.13-.33c0-.28-.11-.34-.74-.34-.73 0-.76.03-1.4 1.04a15 15 0 0 0-1.27 2.2c0 .05.33.1.73.09.7 0 .74-.04 1.4-1.03m1.72.4c.18-.34.62-1.01.98-1.5.35-.47.6-.94.54-1.03-.27-.44-1.79.02-1.79.54 0 .08-.22.42-.48.76-.27.34-.66.9-.87 1.24l-.38.62h.84c.8 0 .85-.03 1.16-.62m2.63-.82c.52-.8 1-1.48 1.07-1.52.34-.14-.14-.36-.8-.36-.7 0-.76.05-1.4.96-.36.53-.69 1.03-.73 1.12-.03.1-.2.37-.38.61s-.32.49-.32.54.37.1.82.1h.8zm1.43.88c.25-.31.45-.64.45-.72 0-.09.15-.29.34-.46.19-.16.34-.39.34-.5s.12-.3.26-.41c.5-.4.3-.67-.51-.67-.55 0-.77.07-.77.24 0 .13-.07.26-.16.3-.08.02-.29.28-.46.57l-.87 1.37-.56.85h.75c.65 0 .8-.07 1.2-.57m4.33-.34c.3-.46.66-.96.8-1.11.81-.94.77-1.3-.15-1.3-.66 0-.8.06-1.06.5-.17.27-.36.5-.44.5q-.12.01-.13.17c0 .31-1.26 2.05-1.33 1.83-.04-.1.04-.32.18-.48.25-.29 1.49-2.32 1.49-2.45 0-.04-.35-.08-.77-.08-.55 0-.77.07-.77.24 0 .13-.06.26-.14.3-.14.05-1.37 1.78-1.7 2.41l-.2.37 1.83-.04 1.83-.03zm2.46-.3c.07-1.53 0-2.12-.25-2.1-.19 0-1.57 1.9-2.13 2.92l-.22.4h2.54zm-15.92-.95c.39-.55.7-1.04.7-1.09 0-.04-.38-.08-.84-.08h-.86v1.18c0 .64.07 1.13.14 1.09.08-.05.47-.54.86-1.1m-20.66-1.63c.04-.1-.09-.4-.28-.64s-.36-.54-.36-.66q-.02-.21-.15-.23c-.09 0-.32-.33-.52-.74-.36-.72-.74-1.02-1.05-.83-.18.1-.12 2.89.07 3.18.17.26 2.2.19 2.3-.08m1.98.13c.13-.14-1.5-2.97-1.84-3.2-.21-.14-1.36-.17-1.5-.03-.09.08.36.87.85 1.49.07.09.24.37.38.63q.67 1.26 1.5 1.22c.3-.02.56-.07.6-.11m2.09-.06c.05-.13-.16-.6-.46-1.04l-.87-1.26c-.17-.25-.3-.52-.3-.6 0-.21-.83-.54-.94-.37-.05.07-.24.1-.41.06-.61-.16-.5.2.5 1.7.76 1.13 1.12 1.51 1.48 1.6.76.16.9.15 1-.1m2.04-.23a2 2 0 0 0-.36-.72c-.14-.14-.25-.34-.25-.43 0-.1-.15-.3-.33-.47s-.3-.35-.27-.4c.04-.07-.12-.32-.35-.57a1.3 1.3 0 0 0-1.07-.45c-.36 0-.7.05-.76.11s.11.41.38.79l1.02 1.52c.45.69.65.85 1.18.93l.78.12c.08.02.1-.18.03-.43m2 .32c.27-.1.26-.17-.13-.73a4 4 0 0 1-.43-.71c0-.06-.17-.35-.38-.64s-.47-.68-.58-.86c-.2-.36-1.35-.56-1.64-.28-.14.14.2.88.55 1.2.06.04.36.5.68 1.03.62 1.02 1.15 1.29 1.93.99m4.3-.02c.1-.16-1.22-2.37-1.48-2.48-.08-.03-.14-.2-.14-.37 0-.18-.06-.32-.13-.33-.07 0-.45-.06-.84-.14q-.73-.15-.79.05c-.08.23.24.93.42.93q.13.02.15.18c0 .1.3.61.68 1.15.56.8.78 1 1.24 1.05.3.03.6.08.67.1q.11 0 .22-.14m1.96-.2c0-.2-.85-1.65-1.14-1.94-.12-.12-.22-.28-.22-.34 0-.07-.16-.3-.35-.5-.33-.33-1.32-.5-1.57-.26-.08.08.97 2 1.23 2.23.05.05.18.24.28.42s.35.42.56.52c.41.2 1.21.11 1.21-.14m6.24.14c.05-.13-.12-.55-.39-.94l-.47-.71-.06.8q-.05.77.18.92c.33.21.64.18.74-.07m1.2-1.69c-.93-1.51-1-1.59-1.56-1.59-.53 0-.59.05-.59.48 0 .26.14.66.31.87.18.22.5.72.72 1.11s.56.75.76.79c.85.17 1.04.18 1.18.06.09-.07-.27-.83-.82-1.72m2.97 1.74c0-.18-1.02-2.02-1.2-2.16a4 4 0 0 1-.42-.61c-.26-.44-.43-.54-1.05-.58-.4-.04-.74 0-.74.07s.42.84.94 1.7c.84 1.4 1 1.57 1.5 1.63l.76.1c.11 0 .21-.06.21-.15m2.03-.1c.08-.06-.06-.34-.5-.98-.18-.27-.4-.61-.47-.75-.7-1.31-.9-1.5-1.67-1.5-.42 0-.75.08-.75.18 0 .24.47 1.11.63 1.18.08.03.4.49.72 1 .35.57.73.98.94 1.02.33.06.95-.02 1.1-.14m4.05.02c.05-.13-.06-.45-.24-.7a5 5 0 0 1-.4-.63 11 11 0 0 0-1.32-1.93c-.74-.08-1.46-.03-1.5.1-.04.1.09.34.28.54s.34.41.34.47c0 .07.2.37.43.67s.43.6.43.68c.01.33.53.76 1.05.88.82.2.82.2.93-.08m2.04.04c.07-.07-1.55-2.93-1.78-3.14-.24-.22-1.56-.32-1.56-.12 0 .29 1.85 3.27 2.07 3.34.24.08 1.17.02 1.27-.08m-4.03-.15c0-.1-.19-.44-.42-.74-.24-.3-.43-.6-.43-.65s-.2-.35-.43-.65-.42-.63-.42-.73c0-.3-.56-.5-1.16-.4-.48.06-.54.13-.44.43.06.2.17.38.26.4q.13.07.14.22a3 3 0 0 0 .4.78l.69 1.07c.24.4.4.46 1.05.46.46 0 .76-.07.76-.19m6.14-.02c0-.11-.37-.74-.81-1.4l-.98-1.48c-.23-.36-1.56-.46-1.69-.13q-.06.21.08.23.15.01.16.16c0 .09.28.6.62 1.12l.86 1.34c.19.3.4.37 1 .37q.76 0 .76-.2m.8-.87.46-.42-.37-.72c-.49-.95-.84-1.22-1.62-1.23-.62 0-.65.01-.55.42.06.24.34.71.61 1.05.28.34.5.68.5.77 0 .13.35.55.46.55.02 0 .25-.2.5-.42m-21.5-2.02c-.1-.23-.98-.32-1.18-.12-.12.11.7 1.57.98 1.76.2.13.35-1.23.2-1.64m22.41.78c0-.51-.31-1.17-.56-1.17-.51 0-.6.35-.23.92.4.62.8.75.8.25M40.9 48c.22-.22-1.1-1.48-2.05-1.94-1-.48-1.1-.5-3.1-.45-2.02.05-2.11.07-3.02.6-.93.56-1.94 1.58-1.8 1.82.1.13 9.83.1 9.97-.03m.47 8.88q.1-.15.18-.16.06.01.07.16-.02.16-.18.17-.16-.02-.07-.17m40-2.5v-.82l-6.27-.04c-6.11-.05-6.27-.06-6.33-.38-.09-.5-.54-.92-.98-.92h-.4l.06-3.08c.03-1.7.09-3.11.13-3.15s3.28-.08 7.19-.1h7.11l.2-.37c.31-.61 1.59-1.7 2.42-2.08l.8-.37v-5.4c0-5.16 0-5.4.32-5.57.59-.3 1.3-.2 1.73.26.36.37.52.42 1.14.35l.73-.07v10.23l.47.11c.91.22 3.1 1.9 3.1 2.38q0 .52-.67-.35a4.3 4.3 0 0 0-2.3-1.55l-.6-.1v2.37l8.65.05 8.66.04.05 1.28c.05 1.27.05 1.27-.4 1.33-.97.11-1.01 1.13-.06 1.13h.55l-.11 1.53c-.06.83-.11 1.71-.11 1.95v.43l-6.1.03-6.66.04c-.5.01-.55.06-.55.51 0 .28-.08.5-.17.5s-.17-.18-.17-.4-.07-.45-.16-.5c-.12-.07-8.75-.16-10.55-.1-.33 0-.38.1-.38.67v.67h5.76c3.78 0 5.67.06 5.5.16-.15.1-2.56.16-5.93.17h-5.67zm-9.53-2.65c.55-.78 1-1.51 1-1.63 0-.33-1.42-.26-1.67.09-.51.7-1.91 2.86-1.91 2.95 0 .06.36.08.8.05.78-.05.8-.06 1.78-1.46m1.31 1.08c.2-.23.37-.46.37-.5s.27-.5.6-1c.93-1.4.93-1.41.02-1.41-.7 0-.8.04-1.06.54-.15.3-.58.97-.94 1.5a5 5 0 0 0-.66 1.11c0 .1.29.17.65.17.48 0 .75-.1 1.02-.41m2.65-.84c.45-.64.93-1.37 1.07-1.62l.24-.45h-.81c-.73 0-.85.05-1.18.54-1.93 2.88-1.9 2.82-.87 2.75.68-.05.77-.11 1.55-1.22m1.55.7c.24-.31.44-.62.44-.69s.2-.4.47-.73c.25-.33.56-.77.68-.98.21-.37.2-.37-.6-.37h-.8l-.99 1.48c-.54.82-.98 1.57-.98 1.66 0 .1.3.18.67.18.57 0 .75-.09 1.11-.55m2.56-.74c1.51-2.3 1.45-2.03.5-2.03-.77 0-.86.05-1.25.62a19 19 0 0 0-1.54 2.57c0 .07.32.13.72.13.72 0 .74-.02 1.57-1.29m1.58.71c.16-.32.35-.58.42-.58q.13-.02.14-.17c0-.1.28-.56.62-1.04l.61-.87-.82-.05c-.49-.03-.85.02-.89.12-.03.1-.15.28-.26.39s-.4.5-.62.87c-.23.37-.45.7-.5.75-.17.15-.53.82-.53 1 0 .09.35.16.77.16.72 0 .8-.04 1.06-.58m1.85.34c.14-.13.25-.27.25-.32s.23-.45.5-.88c.31-.46.52-1.01.52-1.33 0-.5-.05-.55-.47-.55-.38 0-.58.17-1.1.95a17 17 0 0 0-1.33 2.3c0 .19 1.42.05 1.63-.17m1 .14c.16-.06.27-.3.27-.58 0-.55-.33-.65-.46-.15-.05.18-.16.33-.24.33s-.15.12-.15.25c0 .27.15.31.58.15m5.3-3.49c0-1.79-.05-3.34-.1-3.43-.18-.27-.47 0-1.01.92-.28.48-.66 1.05-.85 1.28l-.34.41-.5-.58a8 8 0 0 1-.81-1.16c-.34-.63-.74-1.02-.95-.9-.07.05-.13.46-.13.9 0 .46-.07.83-.17.83s-.17-.37-.17-.81c0-.78-.02-.82-.54-.92-.3-.06-.61-.04-.7.04-.22.22.76 1.67 1.2 1.8.37.09.38.14.38 2.56v2.48l2.18.04c1.2.03 2.24 0 2.33-.07s.16-1.6.17-3.39m1.8 3.38c.28-.2 1.87-2.75 1.87-2.99 0-.07-.3-.12-.69-.12-.63 0-.72.05-1.18.79-.27.43-.61.94-.76 1.12-.25.33-.25.33-.26-.04 0-.2.07-.38.16-.38q.16-.01.17-.18c0-.1.16-.37.34-.6.5-.61.44-.71-.42-.71h-.77v.92q0 .93.26 1.19c.24.22.24.3.01.63-.14.2-.2.42-.15.48.18.18 1.15.1 1.43-.11m2.06-.05c.25-.3.5-.3.5.01 0 .18.18.25.63.25.63 0 1.24-.3 1.24-.6 0-.08.34-.66.76-1.28l.87-1.29c.05-.09-.26-.15-.76-.15-.8 0-.87.03-1.13.57-.16.32-.4.66-.52.77-.14.1-.24.3-.24.43s-.12.28-.26.33-.26.2-.26.33c0 .12-.12.23-.27.23-.23 0-.24-.05-.07-.25.48-.56 1.37-2.16 1.3-2.33-.03-.1-.35-.15-.74-.12-.62.06-.72.15-1.3 1.09l-.84 1.36c-.12.18-.28.38-.36.44s-.1.18-.04.27c.16.25 1.26.2 1.49-.06m4.08-.07c.18-.18.34-.4.34-.5q0-.16.15-.17c.08 0 .2-.13.25-.29.1-.28.45-.87.62-1.04.12-.12.51-.8.51-.9 0-.06-.35-.1-.77-.1-.58 0-.8.08-.88.3-.06.16-.21.4-.34.56-.34.39-1.42 2.15-1.42 2.33 0 .29 1.2.15 1.54-.19m2.2-.37.65-.88c.16-.2.9-1.58.9-1.68 0-.03-.33-.06-.74-.06-.6 0-.78.07-.94.37-.1.2-.53.9-.95 1.54a4 4 0 0 0-.67 1.29c.04.07.34.12.66.12.5 0 .67-.1 1.1-.7m1.72.4c.5-.58 1.8-2.98 1.69-3.1-.14-.13-1.52.12-1.52.28 0 .09-.15.36-.33.6-.38.53-1.38 2.28-1.38 2.42 0 .25 1.3.08 1.54-.2m1.92-.03c.16-.19.3-.41.3-.5s.12-.17.28-.17c.26 0 .26.03 0 .3-.52.57-.35.7.89.7h1.17l.1-1.04c.23-2.34.24-2.28-.19-2.28a.6.6 0 0 0-.55.37c-.3.7-.95 1.68-1.16 1.75-.26.09-.09-.36.43-1.1.53-.76.5-.97-.16-1.08-.64-.1-1.07.3-1.68 1.51-.2.39-.43.7-.51.7s-.16.15-.16.33-.08.37-.17.43c-.36.22-.14.41.47.41q.65 0 .94-.33m-33.5-1.43c1.04-1.58 1.04-1.56.14-1.56-.75 0-.8.03-1.37.86-.58.84-.65 1.3-.18 1.3.13 0 .24.11.24.25 0 .55.49.2 1.17-.85m-1.39-1.04c.3-.5.28-.52-.27-.52-.43 0-.5.07-.6.6-.05.34-.06.67-.01.75.1.15.56-.29.88-.83m1.75-1.01c0-.09-.3-.6-.68-1.16a7 7 0 0 1-.68-1.15c0-.24-.82-.9-1-.8-.21.13-.35 1.1-.17 1.2.08.05.14.53.14 1.07v1h1.2c.65 0 1.2-.08 1.2-.16m2.05-.02c0-.29-.53-1.2-1.05-1.82a2 2 0 0 1-.49-.78c0-.3-.57-.55-1.25-.55-.7 0-.97.29-.56.58.15.11.28.27.28.36s.23.4.5.73c.28.31.51.64.51.73.02.42.78.92 1.4.92.37 0 .66-.08.66-.17m2.12.03c.05-.09-.02-.24-.16-.36s-.26-.28-.26-.38-.19-.41-.42-.71c-.24-.3-.43-.6-.43-.68-.02-.3-.79-1.05-1.1-1.08-1.07-.1-1.42.2-.86.75.14.14.26.3.26.34 0 .06.26.44.6.86.32.42.59.86.59.99 0 .12.1.26.21.3.37.15 1.47.12 1.57-.03m1.97-.06c0-.28-1.37-2.46-1.55-2.46q-.14-.02-.15-.24c0-.34-.54-.59-1.18-.54-.48.03-.53.08-.44.42.05.21.25.55.44.75.18.2.53.74.77 1.22s.53.9.64.95c.42.17 1.47.1 1.47-.1m2.15.01c.07-.1 0-.28-.16-.4-.15-.1-.28-.24-.28-.3 0-.2-1.39-2.17-1.68-2.4-.36-.27-1.21-.26-1.32.03-.05.13.37.92.95 1.75 1.02 1.47 1.06 1.51 1.7 1.51.37 0 .72-.08.8-.19m1.95-.03c0-.12-.3-.67-.65-1.2-.93-1.4-.92-1.4-.75-1.4.09 0 .6.63 1.14 1.4.94 1.38 1 1.42 1.64 1.42.84 0 .85-.2.07-1.33-.33-.47-.6-.91-.6-.97-.01-.06-.18-.3-.39-.54-.5-.59-1.23-.74-1.78-.4q-.45.3-.55.1c-.07-.11-.4-.24-.75-.3-.5-.07-.64-.03-.74.2q-.1.3.09.38c.1.03.2.17.2.3s.14.37.3.54c.18.16.37.4.44.54.24.46.55.95.78 1.22.28.33 1.55.37 1.55.04m4.1-.06c0-.48-1.86-3.03-2.27-3.13-1.25-.28-1.31.1-.27 1.64.36.53.65 1.01.65 1.06s.13.24.29.4c.38.42 1.6.44 1.6.03m6.3-.06c0-.18-.11-.37-.25-.43-.13-.05-.3-.23-.35-.4-.17-.55-.42-.36-.42.31 0 .75.02.78.59.82.33.03.43-.04.43-.3m1.94.22c.08-.13-.15-.54-1.26-2.27-.56-.9-1.12-1.26-1.52-1.02-.25.15-.23 1.01.03 1.28.12.12.33.44.47.7q.76 1.42 1.65 1.43c.3 0 .58-.05.63-.12m2.09-.14c-.06-.14-.1-.32-.1-.4 0-.06-.27-.45-.6-.85s-.6-.8-.6-.87-.1-.24-.24-.37a1.4 1.4 0 0 1-.3-.43c-.1-.25-1.68-.36-1.68-.12 0 .1.18.41.39.7.2.29.52.77.68 1.07.6 1.08 1.15 1.53 1.88 1.53.54 0 .65-.05.57-.26m2.05.01c-.05-.14-.43-.76-.83-1.37s-.8-1.27-.9-1.45c-.13-.22-.43-.33-.99-.38-.44-.03-.8 0-.8.07s.32.63.7 1.22l.98 1.53c.26.43.58.55 1.54.6.3.03.37-.03.3-.22m1.9-.04-.21-.58c-.2-.48.14-.33.45.2.46.79 2.1.94 1.67.15-.1-.18-.16-.42-.12-.53.04-.1.2.04.35.32s.45.57.67.63c.54.14 1.15.13 1.15-.03 0-.07-.44-.84-.98-1.7-.97-1.56-.99-1.58-1.7-1.63-.4-.03-.73-.02-.73.01 0 .12.7 1.38.95 1.73q.26.36.09.47c-.1.06-.19 0-.19-.15s-.06-.26-.14-.26-.23-.17-.34-.37c-.68-1.28-.79-1.38-1.62-1.4-.44-.02-.8.01-.8.08.01.06.16.3.35.52s.33.49.33.57c0 .09.13.3.29.46s.23.36.18.41c-.15.14-.69-.5-1.18-1.39-.37-.68-.42-.7-1.18-.69l-.78.02.44.75.74 1.18.55.89c.27.46.53.58 1.35.61.39.02.47-.04.4-.27m6.01.2c0-.05-.3-.54-.68-1.1a6 6 0 0 1-.68-1.17c0-.1-.23-.4-.5-.65-.38-.35-.67-.47-1.1-.45-.57.02-.58.04-.42.5.1.25.23.47.3.47.08 0 .19.13.24.29.14.38.8 1.44 1.18 1.87.2.23.5.33.98.33.37 0 .68-.04.68-.09m.82-1.24c.3 0 .24-.4-.14-.88-.18-.23-.34-.5-.34-.6q-.02-.17-.17-.18c-.1 0-.17-.1-.17-.2 0-.14-.31-.24-.85-.27-.99-.06-.99-.02-.06 1.36.88 1.32.9 1.33 1.24 1.03.16-.14.38-.26.5-.26m-17.95-.7c.84-1.54 1.09-2.07 1.09-2.34s-.02-.27-.4-.03c-.52.33-.7.75-.41.95q.24.16-.08.06c-.31-.1-.73.22-1.1.85-.17.28-.14.4.14.7.18.19.36.35.4.35s.2-.25.36-.54m18.55-.84c-.09-.55-.16-.62-.59-.62-.57 0-.58.03-.2.63q1.04 1.53.8-.01m-18.18-2.02c.65-.82.73-1 .73-1.84 0-.5-.06-.92-.13-.91-.13 0-2.54 2.94-2.94 3.58-.19.3-.16.43.18.94l.4.6.52-.73c.28-.4.84-1.13 1.24-1.64m-2.86-.01c0-.6-.07-1.09-.16-1.09-.58 0-2.57 1.6-2.57 2.07 0 .05.62.1 1.37.1h1.36zm1.2-.85c0-.06.17-.31.38-.56l.9-1.09c.28-.34.62-.75.76-.9.2-.21.27-.82.29-2.89a15 15 0 0 0-.09-2.6c-.18 0-1.05 1.19-1.05 1.43q-.01.2-.15.22c-.08 0-.24.22-.36.5-.12.27-.28.5-.36.5q-.14.02-.15.17c0 .1-.2.43-.43.72-.4.51-.42.66-.41 2.57 0 1.12-.04 2.1-.1 2.2a.4.4 0 0 0 0 .34c.12.17.77-.35.77-.6m.08-1.4q.1-.16.18-.17.07.02.08.17-.02.16-.18.17-.16-.02-.08-.17m1.2-4.5q-.09-.14.07-.16.16.02.18.17 0 .15-.07.16c-.04 0-.13-.07-.18-.16m.42-.75q.02-.22.18-.16c.1.06.13.18.07.26q-.23.35-.25-.1m-.72-.52c1.21-1.82 1.4-2.2 1.4-2.83 0-1.22-.39-.93-2 1.45-.93 1.36-1.2 1.92-1.28 2.53-.17 1.56.22 1.32 1.88-1.15m-.34-2.5c.2-.3.38-.64.38-.77 0-.27-.76-1.1-1-1.1-.63 0-.7.18-.7 1.85v1.65l.46-.55c.26-.3.65-.79.86-1.08m-.8-.48q.01-.3.1-.1c.05.12.05.27-.01.32q-.1.07-.09-.22M15.87 52.96c0-.13.07-.25.17-.25.09 0 .17.12.17.25 0 .14-.08.25-.17.25q-.16-.02-.17-.25M34.29 42.3c0-.35-.12-1.35-.26-2.22-.27-1.74-.34-4.66-.1-4.66.18 0 .32 1.24.52 4.5.08 1.32.17 2.5.2 2.64a.26.26 0 0 1-.15.3q-.22.09-.21-.56m3.07-1.94c0-.12.08-.3.19-.4s.16-.49.12-.86c-.07-.77 0-.83.42-.35q.3.34.18.78c-.18.72-.91 1.39-.91.83m-4.15-1.07c-.17-1.7-.14-5.12.04-4.94.21.22.44 6.06.23 6.06-.1 0-.21-.5-.27-1.12M9.93 36.15c-.9-.61-1.14-1.92-.52-2.9.52-.83.8-.99 1.82-1 .82 0 .98.06 1.5.57.53.52.58.65.58 1.56 0 .87-.07 1.06-.5 1.51-.44.47-.6.52-1.5.52-.63 0-1.14-.1-1.38-.26m2.32-.17c1.03-.7 1.12-2.06.18-3q-1.17-1.2-2.37.03c-.53.53-.6.68-.58 1.51 0 .7.08.97.3 1.09.16.08.39.26.5.39.29.31 1.5.3 1.97-.02m-2.18-1.65v-1.08h1.27c.74 0 1.28.07 1.28.17 0 .09-.48.16-1.1.16H10.4v1.32l1.05.05c.65.03 1.08.13 1.12.25.05.16-.26.21-1.22.21h-1.3zm51.62 1.73c-1.29-.98-1.25-2.46.1-3.56.47-.39.65-.44 1.38-.37.69.06.92.18 1.33.64.43.49.5.7.5 1.57 0 .92-.05 1.05-.57 1.54-.48.46-.68.53-1.43.53-.61 0-.99-.1-1.31-.35M63.8 36c1.1-.55 1.33-1.96.49-2.95-.47-.56-.6-.62-1.34-.62-.92 0-1.36.34-1.72 1.35q-.37 1.01.3 1.75 1 1.12 2.27.47m-2.06-1.24v-.67h1.03c.92 0 1.02-.03 1.02-.35s-.08-.34-.97-.29q-.98.07-1.03-.15c-.06-.15.26-.2 1.22-.2h1.29l-.05.53c-.04.53-.06.55-.97.63-.72.06-.95.15-1 .37-.04.25.1.3.99.3.8 0 1.03.05 1.03.24 0 .2-.25.25-1.28.25h-1.28Zm20.13-9.24v-.74H69.13l-.1-.65c-.11-.65-.35-.85-.98-.85-.31 0-.33-.16-.31-3.16v-3.16l7.03-.04c3.87-.03 12.75-.05 19.73-.05h12.71v2.67l-.64.05c-.58.04-.64.1-.64.54s.05.49.6.49c.75 0 .8.2.64 2.33l-.13 1.58-6.78.04-6.78.04v1.66h-11.6zm11.4-.29.05-.62H82.05v1.34l5.59-.05 5.59-.04zM71.89 23.2c.39-.55.87-1.28 1.08-1.63l.37-.62h-.72c-.75 0-1.06.22-1.5 1.03-.1.21-.33.53-.5.72-.15.18-.46.61-.67.96l-.4.64.83-.05c.79-.05.84-.09 1.51-1.05m1.9.25a5 5 0 0 0 .57-.88c.01-.07.25-.44.54-.83l.53-.7-.74-.06c-.63-.05-.79.01-1.1.4-.21.25-.48.65-.6.89-.13.23-.5.78-.8 1.22l-.58.8.81-.05c.75-.04.86-.1 1.38-.8m1.2.66c.32 0 .58-.08.58-.18s.35-.67.77-1.26.77-1.14.77-1.23q.01-.15.17-.16.15-.01.17-.16c0-.1-.33-.17-.73-.17-.52 0-.82.1-1.03.33-.16.19-.3.39-.3.45s-.18.35-.42.65-.42.59-.42.65c0 .05-.16.26-.34.45-.42.44-.46.88-.08.73.15-.05.54-.1.86-.1m2.77-.54c.16-.27.46-.7.67-.96.2-.25.38-.53.38-.62s.15-.3.34-.46c.51-.45.42-.58-.4-.58-.6 0-.79.08-1.1.5-.2.26-.37.52-.37.57s-.31.5-.69 1.03c-.37.52-.68 1-.68 1.05s.35.07.79.04c.67-.06.83-.14 1.06-.57m1.9.4c0-.08.35-.65.78-1.27 1.25-1.82 1.23-1.75.36-1.75-.74 0-.74 0-1.68 1.37-.52.76-1 1.47-1.06 1.58-.1.16.1.21.74.21.48 0 .86-.06.86-.14m2.78-1.12c.44-.68.8-1.31.8-1.4q.01-.16.18-.17t.17-.16c0-.1-.33-.17-.74-.17-.72 0-.73 0-1.66 1.37l-1.07 1.58c-.1.16.07.2.69.2h.82zm1.87.29c1.08-1.63.75-2.93-.43-1.72-.26.25-.46.52-.46.59s-.31.57-.7 1.11l-.68 1 .82-.01c.8 0 .82-.01 1.45-.97m.64.43v-.54l-.34.42c-.42.52-.42.66 0 .66.27 0 .34-.1.34-.54m4.94-2.66c0-1.86-.07-3.06-.15-2.87-.08.2-.27.44-.42.57s-.27.32-.27.45c0 .12-.08.23-.17.23q-.17.01-.18.16c0 .21-.9 1.49-1.05 1.5-.07 0-.34-.36-.6-.79a4 4 0 0 0-.6-.85q-.12-.07-.14-.25c0-.1-.22-.44-.48-.76l-.49-.56-.03 3.18-.04 3.2h4.62zm2.18 2.91c.06-.16.18-.37.26-.46.07-.09.48-.67.9-1.29l.76-1.12h-1.64l-.8 1.33a10 10 0 0 1-.98 1.42c-.38.23-.1.41.61.41.58 0 .8-.07.9-.29m2.6-.83a11 11 0 0 0 1.2-1.98c0-.03-.34-.06-.76-.06-.72 0-.8.04-1.1.64-.18.34-.45.73-.6.85s-.27.29-.27.37-.2.42-.45.73l-.44.57h1.66zm1.5.83a15 15 0 0 1 .92-1.51c.46-.67.83-1.25.83-1.3 0-.04-.36-.06-.79-.03-.72.05-.8.1-1.23.82a34 34 0 0 1-.93 1.45 5 5 0 0 0-.47.77c0 .05.35.1.78.1.58 0 .8-.08.88-.3m2.34-.57.8-1.33c.14-.26.36-.58.48-.72.19-.21.13-.25-.4-.25l-.75-.02c-.07-.02-.6.7-1.19 1.58l-1.06 1.6h.8c.8 0 .82-.02 1.32-.86m1.58.65c.09-.11.35-.54.57-.95.22-.42.54-.93.7-1.15.47-.61.4-.85-.29-.85-.56 0-.65.08-1.5 1.37l-1.03 1.58c-.1.16.06.21.62.21.42 0 .84-.1.93-.2m1.85-.03c.13-.13.24-.28.24-.34s.23-.43.51-.83.51-.77.51-.83.16-.27.36-.47l.35-.37-.7-.05c-.73-.05-1.2.17-1.2.56 0 .12-.06.24-.14.27-.13.05-1.4 2.07-1.4 2.23 0 .18 1.25.04 1.47-.17m2.67-1.02c.45-.69.81-1.32.81-1.4q.02-.16.17-.17t.17-.16c0-.1-.33-.17-.75-.17-.68 0-.78.06-1.15.62-.21.35-.43.7-.46.8-.04.09-.3.47-.56.86-.27.38-.49.73-.49.79 0 .05.33.09.73.08.71 0 .73-.03 1.53-1.25m2 .52c0-.4.09-.94.19-1.2.23-.6.06-1.26-.3-1.19-.17.03-.74.75-1.28 1.6l-.98 1.53h2.38zm-36.7-.38c.22-.35.58-.88.8-1.2.24-.3.42-.61.42-.69s-.35-.1-.78-.06c-.72.05-1.24.38-1.26.8 0 .08-.16.33-.35.57l-.35.44.43.22c.24.12.44.3.44.38 0 .34.3.14.66-.46m21.43-1.08.62-.96H90.4v1.11c0 1.24.02 1.24.93-.15m-22.6-.25c.47-.57.44-.71-.14-.71-.42 0-.5.08-.57.52-.05.28-.04.7 0 .94l.09.44.14-.39c.08-.2.3-.57.49-.8m1.46-1.92c-.33-.48-.67-.95-.75-1.05a2 2 0 0 1-.26-.52c-.15-.47-.72-.94-.96-.8q-.2.13-.07.82c.07.37.12 1.07.1 1.55l-.02.88h2.56zm2.44.5-1.09-1.66-.84-1.29h-.8c-.8 0-.8 0-.58.41.12.23.6.98 1.05 1.66l.84 1.24.83.01c.82 0 .83 0 .6-.37m2.08.2c0-.1-.22-.5-.49-.87a10 10 0 0 1-.56-.87c-.04-.09-.25-.44-.47-.79-.36-.56-.46-.62-1.14-.62-.85 0-.9.1-.41.71.18.23.34.5.34.6 0 .08.06.18.13.22.07.03.39.44.7.92.53.81.62.88 1.23.88.37 0 .67-.08.67-.18m2.19.03c-.04-.07-.52-.82-1.08-1.66L74.8 17.3H74l-.8-.01 1.13 1.66 1.14 1.67h.75c.4 0 .72-.07.69-.15m2.07.06c0-.05-.14-.3-.32-.54s-.65-.96-1.05-1.58c-.71-1.1-.73-1.12-1.47-1.12-.4 0-.74.04-.74.09s.47.8 1.05 1.66l1.05 1.58h.74c.4 0 .74-.04.74-.1m2.05-.03c0-.06-.18-.38-.4-.7l-1.32-2c-.22-.35-.42-.44-1.08-.48l-.8-.05.3.53c.56.95.68 1.14 1.27 1.98.54.78.62.84 1.3.84.4 0 .73-.05.73-.12m2.05-.01c0-.07-.27-.52-.6-1-.33-.47-.6-.9-.6-.96s-.2-.35-.45-.67c-.38-.5-.54-.57-1.19-.57q-1.15-.01-.49.5c.14.12.38.44.52.73s.52.87.85 1.3c.54.72.66.8 1.27.8.38 0 .69-.06.69-.13m1.87-.18a4 4 0 0 0-.68-1.25 6 6 0 0 1-.68-1.09c0-.36-.69-.7-1.33-.65l-.68.05.84 1.25c.46.69.91 1.42 1 1.62.13.3.3.38.85.38s.68-.06.68-.3m6.48.23c0-.04-.23-.43-.5-.86l-.52-.8v.87c0 .85.01.87.51.87.28 0 .51-.04.51-.08m1.88-.18c0-.14-.2-.46-.43-.7a2 2 0 0 1-.42-.57c0-.06-.24-.5-.54-.96-.44-.69-.62-.84-1.02-.84-.42 0-.49.07-.49.46 0 .25.27.85.6 1.32s.6.93.6 1c0 .32.44.55 1.05.55.47 0 .65-.07.65-.26m2.03-.12c-.1-.2-.38-.61-.6-.9s-.4-.58-.4-.64c0-.05-.24-.44-.53-.84-.5-.71-.55-.74-1.15-.64-.35.06-.66.14-.69.17s.1.27.3.54.36.56.36.64.19.34.42.59c.24.24.43.5.43.58s.12.3.27.5c.2.3.43.38 1.03.38.73 0 .75-.02.56-.38m2.06.15c0-.13-.11-.32-.25-.44s-.26-.3-.26-.43q-.01-.21-.17-.23-.16-.01-.17-.16c0-.23-1.05-1.84-1.22-1.86-.56-.08-1.5-.04-1.5.06q.01.12.14.13c.08 0 .32.33.54.75.21.41.5.83.62.93.13.1.23.26.23.35a2 2 0 0 0 .35.64c.29.4.48.49 1.02.49q.68 0 .67-.23m2.05.14c0-.07-.6-1.08-1.26-2.16l-.73-1.16-.78-.02-.79-.01.25.43c.3.52.5.85 1.22 1.9.3.44.56.87.56.93s.34.12.76.12c.43 0 .77-.01.77-.03m1.88-.08c0-.1-.3-.66-.68-1.27-.38-.6-.69-1.14-.7-1.2 0-.06-.14-.28-.32-.48-.23-.28-.5-.38-1.02-.38q-1.06 0-.46.48c.12.1.36.49.53.85.17.37.38.67.46.67q.13.02.14.18c0 .26.66 1.05 1 1.18.44.18 1.05.16 1.05-.03m1.87-.02c0-.13-.68-1.34-.84-1.48a5 5 0 0 1-.4-.66c-.55-1.05-.72-1.2-1.37-1.14l-.6.06.24.5c.13.27.44.8.67 1.16.24.37.48.78.54.92.24.55.6.8 1.18.78.32-.01.58-.07.58-.14m1.75-.58c-.15-.3-.33-.56-.4-.56-.06 0-.16-.13-.22-.3a8 8 0 0 0-.58-1.03c-.43-.67-.55-.76-1.2-.8-.39-.03-.7 0-.7.08s.31.62.7 1.21l.97 1.54c.27.43.81.62 1.42.49.27-.06.27-.1.01-.63M88.71 18.8a8 8 0 0 1 1.1-1.56c.1-.07-.81-.12-2.01-.12s-2.17.06-2.14.13a35 35 0 0 0 1 1.58l.94 1.43.42-.51c.24-.29.55-.71.69-.95m17.25.6.45-.37-.62-.95c-.6-.91-.65-.96-1.35-.96-.4 0-.72.04-.72.1 0 .05.17.33.38.61.41.56.68.98 1 1.57.25.46.3.46.86 0m-21-1.2v-.92h-.6c-.33 0-.6.05-.6.11 0 .14 1.03 1.72 1.12 1.72.04 0 .07-.41.07-.91m21.93-.85c-.09-.22-1.13-.35-1.13-.15 0 .13.52.93.85 1.3.25.3.27.28.32-.3.03-.34 0-.73-.04-.85m-76.7 7.59c0-.68-.05-.84-.3-.86-.16-.01-3.02-.03-6.35-.04l-6.05-.02-.09-.48c-.05-.27-.2-.54-.34-.6-.95-.43-.89-.2-.86-3.33a17 17 0 0 1 .17-3.06c.22-.2 1.11-.26 1.4-.08.19.12.19.17 0 .29-.17.1-.04.44.6 1.45 1.14 1.82 1.22 1.9 1.97 1.9q1.08-.02.39-.92a15 15 0 0 1-1.45-2.26c0-.08-.23-.15-.5-.15-.71 0-.85-.33-.15-.35h5.77c2.87 0 5.3-.06 5.38-.12.1-.06.43-.45.76-.85.33-.41.86-.99 1.19-1.29l.6-.54h7.72l.96 1.01c.53.57.98 1 1.01.96s.35-1.04.72-2.23c.67-2.19 1.06-3.03 1.97-4.3a20 20 0 0 0 1.69-2.56c0-.07.2-.35.45-.62.25-.28.79-1 1.2-1.63.42-.61.86-1.12.99-1.12.27 0 1.28.94 1.28 1.2q-.02.14-.28.06c-.28-.1-.91.32-.91.6 0 .09-.25.48-.56.88-.3.4-.85 1.2-1.22 1.78s-.9 1.35-1.19 1.7c-.5.64-.91 1.28-1.33 2.06-.16.31-.15.43.07.64.23.23.28.23.52 0 .54-.53 4.48-6.31 4.75-6.97.17-.42.25-.45.81-.35.91.15.99.3.48.96-.25.32-.45.62-.45.67a8 8 0 0 1-.65 1.06l-1.24 1.82c-.32.48-.65.88-.72.88q-.11.02-.12.17c0 .23-1.2 2.06-1.39 2.13-.08.03-.15.16-.15.29s-.23.34-.52.49-.65.39-.81.54-.93.76-1.7 1.35a9 9 0 0 0-1.35 1.13c.04.03 3.07.06 6.75.06h6.67v1.33c0 1.2-.03 1.32-.33 1.32-.85 0-1.17.63-.56 1.12q.32.24.08.32c-.12.05-.21.22-.21.38s-.15.43-.34.6-.34.36-.34.43-.23.46-.52.87c-.76 1.1-.72 1.15.86 1.08.75-.03 1.36 0 1.36.07 0 .15.07.15-7.64.2-3.3.03-6.05.08-6.09.12a8 8 0 0 0-.17 1.48l-5.84.1-5.85.07zm11.38-.06c.04-.26 0-.56-.1-.67-.11-.14-1.64-.19-5.5-.17l-5.35.02-.05.69-.05.69 5.5-.05 5.49-.04zm-21.95-1.32c.31-.36 2.05-3 2-3.06-.16-.15-1.56-.1-1.62.06-.03.1-.33.53-.65.94s-.59.81-.59.89-.15.32-.34.55c-.5.63-.43.83.34.83.37 0 .76-.1.86-.21m2.6-.67c.3-.5.65-1.03.76-1.21l.48-.78.26-.46h-.83c-.79 0-.84.03-1.23.7-.22.4-.66 1.06-.97 1.48a4 4 0 0 0-.56.96c0 .11.3.19.76.19.74 0 .78-.03 1.32-.88m1.82.4c.19-.26.42-.65.51-.87s.45-.75.8-1.19l.61-.79h-.92c-.8 0-.96.06-1.14.38a5 5 0 0 1-.81 1.27c-.15.1-.91 1.43-.91 1.59 0 .05.34.09.75.09.64 0 .81-.08 1.1-.48m1.9.31c-.03-.04.4-.76.97-1.58s1-1.52.97-1.56a3 3 0 0 0-.78-.05c-.8.01-1.09.28-2.15 2-.77 1.24-.74 1.39.25 1.33.45-.03.78-.1.75-.14m2.38-.54c.22-.39.7-1.14 1.06-1.66l.66-.96h-.85c-.82 0-.88.03-1.38.74-.28.4-.52.77-.52.82s-.22.41-.5.8c-.27.4-.45.77-.4.84s.4.13.8.13c.68 0 .75-.05 1.13-.7m2.52-.75 1.13-1.66c.09-.16-.1-.2-.79-.2-.72 0-.94.06-1.07.31l-.98 1.6c-.45.7-.81 1.31-.81 1.35 0 .03.34.06.76.06h.76zm1.02 1.35c.2-.05.38-.15.38-.22s.27-.57.6-1.1c.63-1.03.77-1.8.33-1.96-.14-.06-.4-.02-.57.09a8 8 0 0 0-1.36 1.88c-.04.1-.25.38-.48.64s-.35.54-.3.63c.1.17.83.2 1.4.04m1.54-.52c.07-.72-.37-.73-.63-.01-.24.68-.25.67.2.6.3-.03.4-.17.43-.59m4.98-2.62c0-1.78-.06-3.24-.13-3.24s-.56.68-1.1 1.5a8 8 0 0 1-1.12 1.5c-.09 0-.49-.51-.89-1.13l-1-1.54c-.27-.4-.28-.33-.36 1.5a46 46 0 0 0-.03 3.29l.06 1.37h4.57zm2.19 2.8c.03-.2.16-.45.3-.56.13-.1.24-.3.24-.43 0-.12.08-.23.17-.23q.16-.01.17-.19c0-.1.2-.45.45-.76.24-.3.4-.6.35-.66-.06-.05-.42-.1-.82-.11-.72-.02-.73-.02-1.54 1.23-1.37 2.1-1.38 2.21-.17 2.13.66-.05.8-.12.85-.42m1.74.22c0-.13.12-.33.27-.45s.34-.4.42-.6c.15-.4.5-.53.5-.2 0 .1-.15.37-.34.6-.52.65-.44.88.32.88.64 0 .9-.16 1.3-.83.09-.17.46-.76.81-1.33.35-.56.64-1.1.64-1.18 0-.21-.96-.2-1.38.02-.18.1-.43.12-.54.05-.64-.39-1.98.2-2.37 1.02-.08.19-.37.7-.65 1.16-.27.46-.45.89-.41.96.15.24 1.43.15 1.43-.1m1.37-1.81c0-.27.47-.88.58-.77.12.11-.3.98-.46.98-.07 0-.13-.1-.12-.21m3.05 1.39c.29-.36.52-.7.52-.76s.24-.45.53-.86c.63-.9.56-1.23-.26-1.23-.47 0-.68.12-1.03.56-.24.3-.43.63-.43.73s-.11.26-.24.37a6 6 0 0 0-.96 1.75c0 .05.3.09.67.09.58 0 .75-.1 1.2-.65m1.63.52c.18-.12 1.04-1.35 1.37-1.95.1-.18.32-.53.48-.77.27-.4.27-.45.02-.54-.76-.29-1.25-.11-1.77.63-.55.77-1.55 2.5-1.55 2.66 0 .14 1.25.12 1.45-.03m2.08 0c.11-.07.29-.31.4-.54.23-.53.46-.9 1.15-1.87.31-.43.5-.8.43-.81a4 4 0 0 0-1.27-.05c-.29.09-1.88 2.38-2.1 3.03-.1.34-.06.37.54.37.36 0 .74-.06.85-.13m2 .03c.15-.06.27-.2.27-.34 0-.12.07-.23.15-.23.09 0 .28-.24.42-.54.15-.3.5-.87.78-1.28.28-.4.47-.8.42-.87-.15-.25-1.21-.14-1.56.16-.46.38-2.1 2.97-1.96 3.1.13.13 1.13.13 1.48 0m-34.02-1.35q.02-.2.17-.22.17-.01.18-.17c0-.2.67-1.17.93-1.36.1-.07-.57-.13-1.49-.13h-1.66v.67c0 .82.27.85.6.08.14-.32.33-.58.42-.58.24 0 .23.02-.27.89q-.62 1.09-.05 1.1c.1 0 .3.12.45.27.25.25.3.25.5-.03.12-.17.22-.4.22-.52m20.64.1c0-.1.24-.5.53-.92.3-.4.48-.85.43-.99-.13-.34-1.13-.24-1.27.12-.16.4-.03 1.97.16 1.97q.14-.02.15-.17m-20.04-2.48c.06-.1-.05-.37-.25-.62a15 15 0 0 1-1.54-2.39c0-.08-.15-.15-.34-.15-.32 0-.34.11-.34 1.66v1.67h1.18c.65 0 1.23-.08 1.3-.17m4.18.02c0-.08-.27-.54-.6-1.02-.32-.47-.55-.94-.49-1.03s.46.37.9 1.02c.76 1.16.8 1.18 1.5 1.18.8 0 .9-.18.48-.74-.28-.35-.33-.6-.12-.6.07 0 .32.3.55.67.38.61.48.67 1.15.67.4 0 .72-.04.72-.1 0-.17-.73-1.5-1.21-2.18a3 3 0 0 1-.5-.85c0-.2-1.3-.34-1.58-.17-.2.13-.17.22.52 1.25.13.2.17.4.08.45-.08.05-.41-.32-.73-.82-.57-.89-.6-.9-1.4-.9-.75 0-1.03.17-.63.4.2.13.22.42.02.42-.07 0-.24-.18-.37-.41-.2-.36-.34-.42-1.05-.42-.45 0-.82.07-.82.15s.27.53.6 1 .6.88.6.94.2.35.46.66c.4.5.57.58 1.2.58.4 0 .72-.07.72-.15m6.14-.01c0-.2-.58-1.22-1.21-2.12a3 3 0 0 1-.5-.85c0-.16-1.18-.34-1.52-.23-.23.07-.24.53-.01.53q.16.01.17.18c0 .1.23.5.51.9s.51.77.51.83.14.29.3.5c.24.32.46.4 1.03.41.4 0 .72-.06.72-.15m2.05-.07c0-.12-.14-.4-.31-.62s-.6-.87-.95-1.44c-.63-1.02-.65-1.04-1.4-1.04-.41 0-.75.04-.75.08a10 10 0 0 0 1.12 1.86c.23.3.41.61.41.71q.02.17.17.18.16.02.17.25c0 .18.2.25.77.25q.79 0 .77-.23m1.78.13c.37-.14.34-.33-.16-.97-.24-.3-.43-.6-.43-.67 0-.06-.24-.45-.54-.85-.5-.7-.59-.74-1.35-.74h-.82l.38.63c.2.35.7 1.1 1.12 1.66.75 1.04 1.08 1.2 1.8.94m6.15-.77c-.54-.62-.67-.6-.7.15 0 .46.05.54.43.6q1.04.14.27-.75m2.46.6c.04-.04-.06-.2-.23-.38q-.46-.5-1.23-1.99c-.5-.97-1.6-1.15-1.6-.26 0 .44 1 2.23 1.24 2.23.07 0 .13.11.13.24 0 .35 1.32.47 1.69.16m2.06.16c0-.06-.43-.8-.97-1.65-.95-1.52-1.2-1.73-2.06-1.73-.55 0-.48.33.32 1.61 1.24 2 1.1 1.88 1.95 1.88.42 0 .76-.05.76-.1m1.87-.2c0-.06-.35-.63-.77-1.27s-.8-1.29-.86-1.44c-.12-.32-1.4-.57-1.66-.32q-.19.18.2.56c.2.21.37.43.37.49s.3.55.68 1.1c.51.76.8 1.01 1.15 1.06.52.06.9-.01.9-.18m2.16.11c.07-.1.04-.23-.08-.26-.1-.04-.2-.15-.2-.24 0-.1-.35-.7-.8-1.36l-.82-1.23a4 4 0 0 0-1.55 0c-.05.06.14.44.43.85s.53.8.53.85.2.4.44.75c.33.48.58.67.98.72l.74.1c.11 0 .26-.07.33-.18m1.34-1.32-1.04-1.6c-.17-.26-.4-.37-.8-.37-1.02 0-1.1.2-.4 1.14.34.47.62.93.62 1.02q.01.15.13.16c.07 0 .23.22.35.5.2.4.34.5.94.53.4.03.78 0 .86-.05s-.22-.66-.66-1.33m4.5.71c-.2-.33-.68-1.07-1.06-1.65-.64-.97-.73-1.04-1.33-1.04-.35 0-.68.07-.73.16-.14.21 1.68 3.05 2.03 3.17.16.05.55.07.87.03l.6-.06zm-1.85.47c0-.1-.15-.38-.32-.62a13 13 0 0 1-1.39-2.21q0-.14-.04-.17l-.77-.1c-.58-.06-.72-.02-.72.19 0 .26 1.17 2.22 1.67 2.8.28.31 1.57.4 1.57.1m-15.2-.8c.3-.36.53-.7.53-.75s.19-.37.42-.7c.24-.34.43-.68.43-.76s-.88-.15-1.96-.15c-2.24 0-2.34.08-1.45 1.17.28.35.51.68.51.74 0 .17.74 1.09.87 1.09.07 0 .36-.3.65-.65m18.31-.24c.32-.12.42-.62.12-.62-.1 0-.22-.13-.28-.29q-.46-1.2-1.45-1.2c-.85 0-.84.24.08 1.65.66 1.02.74 1.1.98.84.14-.15.39-.32.55-.38m-21.57-1c-.05-1-.06-1.03-.52-1.02-.99.04-.99.03-.37.94.32.48.58.93.58 1q.02.12.18.13c.11 0 .16-.4.13-1.04m22.21-.28c0-.52-.2-.84-.52-.84q-.75.02-.14.83c.4.52.66.53.66.01m-21.7-2.3-.05-1.11-.79-.05c-.77-.05-.81-.03-1.66.9a5 5 0 0 0-.87 1.18c0 .16.42.21 1.7.21h1.72zm3.96-.04v-1.17l-1.83.05-1.83.05v2.24h3.66zm3.75 1.05c-.02-.27-.46-.9-1.08-1.54-.58-.6-.73-.67-1.47-.67h-.82l-.06.71c-.04.39-.04.91 0 1.16l.04.46h1.7c.93 0 1.7-.05 1.69-.12m2.04-1.41c1.71-1.26 1.82-1.39 1.55-1.87-.13-.23-.33-.42-.46-.42-.12 0-.23-.08-.23-.18s-.23-.15-.53-.13c-.5.05-.56.13-.87 1.14-.19.6-.41 1.2-.5 1.37-.17.34-.2.79-.03.79.06 0 .54-.31 1.07-.7m3.5-3.25c.38-.58.79-1.16.9-1.29.12-.12.22-.3.22-.39s.06-.19.14-.22c.07-.03.72-.92 1.45-1.98 1.21-1.8 1.54-2.48 1.15-2.48-.3 0-.7.2-.7.34 0 .09-.42.75-.93 1.47-.52.73-.94 1.4-.94 1.5q-.01.16-.13.18c-.07 0-.2.15-.3.33s-.7 1.08-1.34 1.98q-1.16 1.64-1.07 1.93c.1.25.14.25.49-.02.21-.15.7-.76 1.07-1.35m-2.34-.66a20.47 20.47 0 0 1 1.5-2.2c.6-.82 1.1-1.53 1.1-1.58 0-.1.78-1.26 1.07-1.59.47-.54.98-1.36.98-1.59 0-.13-.15-.24-.33-.24-.2 0-.6.4-1.1 1.12-.43.62-.9 1.27-1.02 1.46l-1.22 1.8a18 18 0 0 1-1.29 1.79c-.18.17-.37.5-.43.73s-.17.42-.26.42c-.23 0-.18.63.06.7.24.08.37-.04.94-.82M55.54 22c.05-.93 0-1.52-.12-1.67-.22-.26-.1-.48.18-.31.22.13.25 3.42.03 3.42-.09 0-.13-.65-.09-1.44M85.12 9.95c0-6.74-.03-6.55 1-6.75.43-.08.62 0 1.15.5.61.59 1.3.78 1.52.44.06-.1.25-.17.44-.17.32 0 .33.17.33 6.07v6.08h-4.44zm2.82 1.47c0-3.66.05-4.47.28-4.95.15-.32.32-.72.38-.88s.21-.29.36-.29q.25-.01.26-.4c0-.36-.05-.38-.76-.3-.65.07-.81.02-1.15-.34-.38-.4-.72-.52-1.38-.47-.28.01-.3.42-.3 6v6h2.31zm1.28-.73c0-4.51-.03-5.07-.26-4.89a.8.8 0 0 0-.26.51c0 .17-.11.74-.25 1.27-.19.7-.26 1.85-.25 4.2 0 3.74.04 4 .61 4h.4ZM9.92 7.14a2.2 2.2 0 0 1-.64-2.1c.06-.23.37-.7.69-1.03.53-.57.63-.6 1.55-.6.86.02 1.03.08 1.47.54.96 1 .78 3.01-.3 3.5-.23.1-.83.18-1.33.18-.77 0-.98-.07-1.43-.49m2.83-.18c.5-.45.56-.61.55-1.37 0-.48-.1-.99-.21-1.13-.72-.88-2.17-1.11-2.81-.45-.4.43-.73 1.15-.73 1.65 0 1.58 2 2.4 3.2 1.3m-.47-1.15v-.82l-1.06-.05c-1.51-.07-1.33-.38.25-.43l1.32-.05v1.09c0 .85-.05 1.08-.25 1.08s-.26-.2-.26-.82m49.73 1.62c-.5-.28-.66-.47-1-1.18-.38-.78-.27-1.35.41-2.15.66-.78 1.52-1.07 2.26-.77.65.26 1.3.94 1.3 1.37q.03.37-.38-.25c-1-1.44-2.86-1.15-3.32.52-.27.99.16 1.89 1.09 2.26.8.33 1.66.04 2.2-.73.35-.5.42-.55.42-.25 0 .58-1.13 1.38-1.95 1.38-.38 0-.84-.1-1.03-.2m-.09-2.04c0-.61.08-1.09.17-1.09s.17.42.17.92v.91h1.12c.7 0 1.08.07 1.02.17s-.64.17-1.3.17h-1.18zm3.1.08q0-.36.09-.2c.04.1.04.3 0 .4q-.08.16-.09-.2" style="fill:#000"/></svg>