<svg xmlns="http://www.w3.org/2000/svg" xml:space="preserve" width="120mm" height="60mm" viewBox="0 0 120 60"><path d="m132.84 44.51 61.9 27.13" style="opacity:1;fill:#000;fill-opacity:.920746"/><path d="M53.14 55.63c-.12-.12-.16-1.38-.16-4.8 0-4.44.01-4.64.26-4.77a2.2 2.2 0 0 1 1.52 0c.25.13.26.33.26 4.67 0 2.86-.05 4.63-.14 4.8-.11.21-.29.27-.86.27-.4 0-.79-.08-.88-.17m2.83-.1c-.09-.17-.14-1.94-.14-4.8 0-4.34.01-4.54.27-4.67.3-.17 1.36-.19 1.6-.03.14.09.18 1.15.2 4.77 0 2.57-.03 4.74-.08 4.83-.06.1-.43.17-.9.17-.66 0-.83-.05-.95-.27m8.66-4.02c-.1-.17-.24-.44-.34-.59l-.3-.57c-.07-.16-.2-.33-.27-.38-.28-.17-.15-.47.23-.51l.37-.05.07-2.74.07-2.75.57-.04.58-.04v2.66c0 2.74.05 2.98.56 2.98.13 0 .27.06.31.13.11.17-1.26 2.2-1.49 2.2-.1 0-.26-.13-.36-.3m-19.28-.48a4 4 0 0 1-.79-1.5c0-.14.14-.32.3-.4.3-.13.31-.19.35-2.6.03-2.1.07-2.5.26-2.64q.22-.16.47-.03c.23.13.25.34.25 2.46 0 2.4.05 2.75.34 2.75.1 0 .25.1.34.2.14.17.09.34-.28.9-.72 1.15-.9 1.27-1.24.86m7.85-5.83c-.19-.1-.22-.5-.22-3.07 0-2.26-.04-2.94-.17-2.94-.1 0-1.02.83-2.07 1.85a27 27 0 0 1-2.01 1.85c-.19 0-1.04-.7-1.04-.87 0-.2 4.86-5.14 5.3-5.38.49-.27 4.49-.27 4.99 0 .2.11 1.08.93 1.95 1.82.86.9 1.98 2.02 2.47 2.5l.9.89.25-.34q.28-.33 1-.52c.4-.1 1.1-.3 1.57-.46.73-.25.89-.27 1.18-.11q1.1.61-.53 1.42c-.41.2-.75.43-.75.5 0 .06-.18.3-.4.54-.3.34-.5.43-.93.43-.54 0-.6-.06-1.34-1.22-.02-.03-.27.14-.55.38a2 2 0 0 1-.65.42c-.08 0-1-.84-2.04-1.86a17 17 0 0 0-2.07-1.84c-.13 0-.17.64-.17 2.94 0 2.8-.01 2.96-.27 3.1-.33.17-4.08.15-4.4-.03m11.94-2.68c.13-.12.29-.4.36-.6s.26-.43.42-.5c.47-.24.1-.2-.78.09-.97.3-1.19.56-.83.96.31.35.53.36.83.05m-19.81.2c-.24-.24-.6-.55-.8-.69q-.73-.48.02-.5c.3 0 .43.07.5.3.13.45.6.93.92.93.15 0 .41-.14.59-.3.34-.33.52-.28.39.13-.09.27-.6.58-.99.58-.11 0-.4-.2-.63-.45m1.23-.92c-.12-.15-.33-.28-.44-.28-.12 0-.52-.13-.9-.3l-.67-.29-.41.3c-.32.25-.45.28-.6.15-.23-.2-.26-.63-.06-.75.13-.09 1.1.07 2.24.36.83.22 1.44.56 1.4.78-.07.32-.3.33-.56.03m18-1.47c-.13-.05-.17-.73-.17-2.72v-2.66l-.37-.04c-.51-.06-.53-.38-.08-1.1l.52-.86c.08-.14.26-.33.39-.4.27-.18.53.09 1.27 1.29.47.77.44 1.04-.15 1.12-.29.04-.3.09-.33 2.64-.03 1.87-.08 2.64-.2 2.71-.19.12-.62.13-.88.02m-19.22-.13c-.05-.05-.1-1.18-.1-2.51v-2.41l-.4-.35-.4-.34.48-.86q.48-.85.73-.86c.24 0 1.22 1.39 1.22 1.73 0 .1-.15.26-.34.39-.33.22-.33.23-.37 2.72l-.04 2.5-.34.05c-.19.02-.39 0-.44-.06m9.2-5c-.23-.07-.6-.31-.81-.54a1.7 1.7 0 0 0-.91-.5c-.4-.06-.54-.16-.6-.4-.12-.48.16-.86.66-.91.37-.04.44-.1.45-.4.03-1.44 1.78-2.4 3.01-1.63.6.37 1.01 1.06.9 1.54-.06.35-.04.38.33.38q.77 0 .68.84c-.03.36-.12.46-.43.55-.22.06-.56.26-.75.45-.7.67-1.6.9-2.53.62m.12-16.26a2 2 0 0 1 0-.66c.14-.7-.12-.83-1.68-.86-1.32-.03-1.71-.14-2.24-.6-.3-.27-.98-.46-2.78-.78a5 5 0 0 1-1.29-.33c-.07-.07-.37-.13-.67-.13-.7 0-1.18-.13-1.09-.29.11-.17 1.11-.15 1.46.04.27.15 1.69.44 3.03.61l.56.08v-.7c-.02-.82-.16-.92-1.46-1.02a67 67 0 0 1-5.28-.58c-.62-.1-1.39-.2-1.7-.2-.3 0-.8-.06-1.1-.13s-1.21-.17-2.04-.21c-.82-.04-1.7-.14-1.95-.23-.29-.1-.9-.11-1.7-.05-2.04.16-2.47.13-5.44-.4-2.9-.52-3.74-.76-3.74-1.05 0-.18.76-.13 3.47.23.9.12 2.17.27 2.85.33 1.41.12 6.5.74 7.84.96.5.08 1.27.14 1.7.15s1.08.07 1.46.14 1.32.2 2.1.27c.78.09 1.55.2 1.7.27.15.06.84.15 1.54.19 1 .05 1.34.02 1.59-.14.29-.2.32-.19.46.08q.14.28.03.51-.13.23.06.69l.39.93c.1.26.33.56.5.67.35.22 1.74.55 1.85.44.04-.04-.22-.38-.56-.76-.36-.39-.63-.81-.63-.98 0-.46 1.14-1.49 1.68-1.52.6-.03.66-.04 1-.23q.32-.18.48-.04c.1.08.48.18.86.23.8.11 1.75.84 1.9 1.47.07.34-.02.48-.76 1.21-.66.65-.95.84-1.3.86-.26.02-.57.13-.69.25-.2.2-.2.25.01.58.14.2.2.46.14.63-.1.33-.45.37-.56.07m2.08-2.97c.77-.73.05-1.44-1.58-1.58-2.26-.2-3.44 1.24-1.57 1.9.15.06.85.08 1.55.04 1.08-.05 1.33-.1 1.6-.36M43.3 18.53c-.2-.12-.38-.33-.38-.47 0-.36.36-1.16.6-1.37.28-.23.28-.73.01-1.25-.36-.7-.66-.46-.68.58-.03 1.2-.74 1.82-2.3 1.97q-1.58.15-2.67-.64c-.8-.58-.74-1.98.12-2.5.65-.38.53-.68-.3-.8a8 8 0 0 1-1.09-.25c-.33-.1-.24-.12.47-.08 1.35.08 4.38.61 5.5.96.38.12.87.21 1.1.21s.53.09.67.2c.24.17.24.19-.04.34-.47.25-.41 1.09.1 1.6.42.39.55 1.01.3 1.4-.17.28-1 .34-1.41.1m.98-.68q-.01-.2-.13-.21c-.08 0-.14.1-.14.2q.01.2.14.21.12-.02.13-.2m-.81-.06q-.01-.13-.14-.22-.12-.05-.13.13.01.2.13.21t.14-.12m-2.11-.9c.89-.37.91-1.23.05-1.6a4.4 4.4 0 0 0-2.6.08c-.83.36-.84 1.5 0 1.62.87.14 2.11.09 2.55-.1m23.79 1.46c-.34-.38-.29-1.02.11-1.4.27-.25.34-.45.34-.97 0-.7-.13-.83-.68-.65-.7.22-2.13.55-2.87.65-.42.07-.85.17-.95.23s-.51.16-.92.21c-.41.06-.9.23-1.09.39-.64.52-1.18.69-1.8.57s-.57-.16.5-.41c.76-.18 1.43-.8 1.43-1.34 0-.17.06-.35.14-.4.18-.1.07-1.71-.15-2.14q-.35-.7-.99-1.03-.71-.4-.4.38c.3.81.31.8-3.1.8-3.37 0-3.39 0-3.12-.72.28-.73-.36-.35-1.1.65l-.3.4-.08-.33c-.1-.43-.7-.64-2.65-.9-.82-.1-1.92-.28-2.44-.39s-1.35-.23-1.83-.29q-1.5-.16-1.5-.45.02-.12.17-.2c.2-.07 2.9.18 5.74.52 3.1.37 3.33.39 3.64.25 1.06-.5 1.4-.59 2.06-.59.44 0 .77-.07.84-.17.12-.21.3-2.46.43-5.39.08-1.89.12-2.2.31-2.24.3-.05.36.28.46 2.52.1 2.28.3 4.27.49 4.83.13.43.18.45.8.45.37 0 .94.13 1.31.29.58.26.81.28 2.08.2.79-.05 2.07-.18 2.85-.28s2.01-.26 2.72-.34 1.48-.17 1.7-.21c.48-.1.88.11.66.34-.15.15-1.89.48-5.36 1.01-1.17.18-2.3.41-2.51.52-.48.23-.57.6-.24.97.23.25.36.27 1.34.2 1.04-.08 3.13-.35 4.68-.62.41-.07 1.48-.2 2.38-.29 1.64-.15 2.65-.28 5.16-.65.74-.11 2-.25 2.78-.3.78-.06 1.73-.17 2.1-.26s1.54-.25 2.59-.37l2.4-.3c.43-.06.8.12.62.3-.1.11-2.04.58-3.36.81-.71.13-1.94.36-2.72.52-1.85.38-2.98.47-2.75.23.09-.1.43-.21.74-.26.47-.07.53-.12.33-.2-.16-.07-.49-.05-.82.06a12 12 0 0 1-1.91.28c-1.57.12-4.47.45-6.72.76-.86.12-2.2.27-3 .34-.78.07-1.67.19-1.99.27-.31.07-.78.14-1.04.14-.57 0-.9.38-.9 1.04 0 .54.2.63 1.05.46l1.35-.25c.39-.08.83-.2.98-.28s.5-.15.79-.15c.28 0 .76-.07 1.06-.15s.79-.2 1.08-.25c.3-.06.8-.17 1.1-.25.29-.08 1.15-.25 1.9-.38.74-.13 1.9-.35 2.57-.5 1.5-.34 2.71-.47 2.6-.28-.05.07-.37.17-.73.22-.35.06-.83.15-1.05.22s-.58.16-.78.2q-.75.14.1.93c.92.85.67 2.03-.55 2.64-.78.39-2.96.4-3.47.01-.63-.49-.87-.93-.87-1.61 0-.8-.17-1.01-.58-.72-.45.32-.4 1.03.1 1.61.35.4.4.55.32.94-.04.25-.14.54-.22.63-.2.26-1.1.21-1.36-.08m.37-.72a.15.15 0 0 0-.2-.05.15.15 0 0 0-.05.2q.08.12.2.06.12-.09.05-.21m4.9-.7c.47.02 1.02-.43 1.02-.87 0-.16-.16-.44-.35-.63-.32-.3-.47-.33-1.55-.33-1.09 0-1.24.03-1.55.33-.43.4-.45.7-.07 1.06.36.33 1.3.6 1.75.49a3 3 0 0 1 .74-.06M52.94 12.6c.07-.23-.35-.39-.54-.2-.07.07-.1.2-.04.3.12.2.5.13.58-.1m1.36 0c.07-.23-.36-.39-.54-.2-.08.07-.1.2-.04.3.12.2.5.13.58-.1m1.39-.04q0-.27-.27-.27-.28 0-.28.27 0 .28.28.28.27 0 .27-.28m1.45.05c.07-.21-.5-.39-.67-.21q-.12.13-.04.3c.12.19.64.13.71-.1m-1.72-2.35c0-.2-.1-.66-.2-1.05-.11-.38-.24-.94-.28-1.23-.15-.94-.33-.34-.37 1.23-.03 1.18 0 1.58.16 1.77.19.23.21.22.44-.07.14-.16.25-.46.25-.65m-20.27 3.3c-.2-.03-.37-.12-.37-.2 0-.19 1.06-.06 1.26.15.15.16-.11.17-.89.05" style="fill:#000"/></svg>