<svg xmlns="http://www.w3.org/2000/svg" xml:space="preserve" width="120mm" height="60mm" viewBox="0 0 120 60"><path d="m132.84 44.51 61.9 27.13" style="opacity:1;fill:#000;fill-opacity:.920746"/><path d="M98.01 54.87c-.8-.2-1.04-.4-1.05-.83 0-.22-1.32-.88-3.52-1.76-.31-.12-.85-.34-1.2-.5-1.16-.5-1.26-.47-1.4.38l-.2 1.78c-.17 1.62-.37 1.19-.4-.82a7 7 0 0 0-.18-2.03c-.1-.11-.5-.31-.92-.46a7 7 0 0 1-1.06-.46c-.18-.11-.45-.2-.6-.2-.16 0-.42-.06-.57-.14-.37-.2-1.8-.75-4.04-1.58a117 117 0 0 1-3.2-1.23c-.75-.3-1.9-.73-2.56-.94s-1.45-.5-1.76-.64c-.53-.25-.92-.37-3.33-1L70.38 44c-.4-.11-1.3-.29-2-.39l-2.24-.3c-2.7-.38-5.15-.46-7.87-.27-1.73.11-3.88.15-5.8.08-1.9-.06-3.34-.04-3.8.06-.74.16-1.92.32-2.62.35-.3.02-.45-.09-.63-.47-.17-.36-.35-.5-.72-.55l-1.55-.23c-.58-.1-1.29-.16-1.57-.16s-.72-.11-.99-.24a3 3 0 0 0-1.15-.19l-.67.05-.08 6.5c-.08 6.14-.1 6.5-.37 6.55-.29.05-.3-.2-.18-6.38.1-5.87.1-6.46-.15-6.82-.2-.29-.4-.38-.82-.38-.3 0-1.11-.18-1.8-.39s-1.53-.44-1.89-.52c-.35-.07-1.4-.35-2.32-.61-1.31-.39-1.8-.6-2.27-1.03q-1.06-.97-.53-1.53c.51-.54 1.45-.65 5.36-.63 2.8.02 3.87-.03 4.17-.17l.4-.2.01-6.98c.02-6.6.04-7 .32-7.4.17-.24.4-.62.5-.84a6.4 6.4 0 0 1 2.47-2.39c.6-.33 1.15-.6 1.24-.6.38 0 1.28-.52 1.46-.83.12-.22.2-1.22.22-2.78.01-1.84.07-2.44.22-2.44s.2.58.2 2.41c0 2.15.03 2.43.28 2.55.17.08 1.14.05 2.44-.07 2.1-.2 6.42-.19 8.7.04 1.25.12 1.39-.01 1.39-1.32 0-.93-.04-1.06-.4-1.28-.22-.14-.4-.37-.4-.52 0-.36.47-2.12.66-2.45.37-.67.82-.06 1.26 1.67.19.78.18.82-.22 1.22-.38.37-.42.53-.42 1.57 0 1.31.2 1.62 1.01 1.63.28 0 1.01.14 1.63.31l2 .52c.48.12 1.46.43 2.16.69l2.16.78c.49.16 1 .4 1.14.51.13.12.36.2.49.2s.37.1.54.23c.17.12.43.22.57.23.14 0 .52.17.85.38s.8.38 1.05.38h.46l.11-1.32c.07-.72.08-1.96.04-2.76-.09-1.47-.01-2.42.18-2.42.06 0 .12 1.54.13 3.43l.01 3.43.4.33c.23.18 1.05.7 1.82 1.13a34 34 0 0 1 4.2 2.62c.12.13.32.25.43.25.12 0 .45.19.74.42.3.24.64.47.77.52.44.17 3.64 2.6 5.81 4.43l2.28 1.9c1.83 1.5 1.67.78 1.71 7.42l.05 5.8.4.05c.22.03.97.3 1.68.62.7.32 1.97.82 2.8 1.12.85.3 2.14.81 2.88 1.15s1.55.61 1.8.61c.32 0 .69.21 1.25.7.43.39.8.77.8.84 0 .27-.53.32-1.38.12-.96-.21-1.13-.34-1.21-.89-.04-.26-.22-.41-.62-.54-.3-.1-1.42-.58-2.48-1.06a41 41 0 0 0-2.32-1c-.86-.26-1.85-.62-2.53-.9-.39-.18-.8-.28-.9-.24-.33.12-.46 2.8-.16 3.24.13.18.31.34.41.34s.93.34 1.85.75c.91.42 1.76.76 1.87.76s.3.1.42.23c.1.12.32.22.47.22s.4.1.58.23c.17.12.55.22.84.22.41 0 .71.17 1.35.74 1.14 1.03.92 1.27-.75.84M90.2 42.84l.04-7.36-.98-.62a5 5 0 0 0-1.22-.62c-.13 0-.41-.13-.63-.29-.21-.16-.94-.5-1.62-.77l-1.88-.75-1.2-.45c-2.05-.7-2.67-.93-2.89-1.05-.13-.07-.5-.18-.8-.24s-.62-.16-.71-.22a9 9 0 0 0-1.2-.4c-.57-.15-1.22-.37-1.44-.47s-.54-.2-.7-.2-.7-.1-1.2-.2l-2.15-.48a5 5 0 0 1-1.33-.4c-.05-.07-.5-.13-1.01-.13-.5 0-1.28-.1-1.71-.22-1-.3-9.25-.34-10.63-.07-.49.1-1.39.23-2 .3s-1.6.24-2.17.38c-.72.18-1.87.28-3.84.33-2.76.06-3.7-.02-5.2-.49l-1.08-.3a7 7 0 0 1-2.82-1.44c-.38-.34-.75-.6-.83-.58-.1.03-.17 2.87-.2 7.02-.04 3.83-.1 7.04-.17 7.13-.17.27.42.75 1.18.94.4.1 1.15.25 1.68.33.52.07 1.2.2 1.52.29.73.19 2.51.19 2.64 0 .12-.2.63-.2 1-.03 1.65.78 4.12.9 14.53.76a29 29 0 0 1 4.4.13c.89.18 2.8.48 3.84.6.31.04.7.12.88.2.57.23 2.53.75 2.82.75.16 0 .33.07.39.15.05.09.3.16.56.16s.7.1 1 .21c.28.12 1.02.4 1.63.63l1.6.6 1.77.68c.7.26 1.57.6 1.93.76s.72.3.8.3c.16 0 1.82.61 2.93 1.1 1.5.64 3.8 1.44 4.1 1.41.32-.02.33-.15.37-7.38m-52.14-2.28c.34-.27.19-3.23-.17-3.45-.15-.1-1.87-.14-4.35-.12-3.63.02-4.15.06-4.48.29-.82.58.3 1.38 2.98 2.11l1.36.38c.49.13 1.32.34 1.85.46l1.44.35c.7.2 1.1.19 1.37-.02m50.15-7.03c.1-.1-2.1-2.16-2.32-2.16-.05 0-.47-.34-.93-.75a17 17 0 0 0-1.83-1.39c-.54-.35-1.2-.8-1.46-1-1.14-.87-2.8-2-3.84-2.6l-2.4-1.38c-1.64-.95-1.88-.96-2.14-.04-.23.84-.1 1.02 1.1 1.5.4.15.97.43 1.27.62.31.2.64.35.75.35s.26.1.37.22.4.26.66.31c.26.06.52.19.59.3s.37.3.68.45c.77.37 1.6.97 1.6 1.17 0 .22-1.33.04-1.97-.26a2 2 0 0 0-.81-.22c-.18 0-.62-.1-.98-.21-.35-.12-1.4-.43-2.32-.7-.93-.26-1.9-.55-2.16-.63-.27-.09-.74-.2-1.05-.27-.3-.07-.95-.25-1.44-.4-.9-.3-1.15-.6-.76-.99.11-.11.41-.47.67-.79.48-.61.63-.64 1.84-.3.38.1.38.09.28-.63-.08-.58-.05-.76.17-.91.35-.24.12-.53-.75-.96l-.91-.46c-.41-.21-1.8-.8-3.5-1.45a31 31 0 0 0-3.92-1.34c-2.93-.8-4.04-.99-4.4-.7-.33.26-.3 1.11.04 1.4.3.24 1.54.56 2.2.56.22 0 .53.06.68.14.15.07.71.28 1.24.46 2.33.81 4.8 2 5.1 2.46.13.2.11.37-.1.7a2 2 0 0 0-.28.65c0 .12-.2.42-.44.69l-.44.48-3.68-.1a39 39 0 0 0-5.12.07c-.8.1-1.95.19-2.56.2-1.04.01-1.83.15-3.56.63-.37.1-.72.14-.78.09-.12-.12-.09-7.06.03-7.25.05-.07 1.27-.12 2.72-.12 1.98 0 2.75.05 3.09.21.65.33 1.2.03 1.27-.68.08-.96-.26-1.15-2.37-1.35l-2.6-.25c-.43-.05-1.83.03-3.13.16l-3.28.34c-1.04.1-1.26.32-1.32 1.3-.04.7.2.86 1.1.77l.66-.07-.5.43c-.37.3-.63.77-.94 1.66q-.68 1.98-1.04 1.02a2 2 0 0 1-.16-.67c0-.56-.18-.76-.7-.74-.78.02-1.6 1-1.6 1.92-.03 1.05.47 1.72 1.7 2.27 1.24.55 2.58.92 3.35.92.75 0 .75.02.8-3.46l.03-2.8-.45-.25-.44-.25.4-.24c.2-.14.5-.2.65-.15.24.08.26.47.23 3.82l-.05 3.72-1.3-.03c-2.77-.07-4.89-1.23-5.42-2.97-.21-.68-.22-.9-.06-1.19.33-.59 1.14-1.48 1.35-1.48.11 0 .37-.2.58-.46s.56-.65.79-.87c.5-.47.67-1.16.36-1.4-.32-.25-1.01-.04-2.35.7-.77.44-1.4.93-1.74 1.37-.3.37-.7.89-.92 1.14-.34.4-.39.62-.4 1.77-.02 2.4.92 3.49 3.8 4.4 2.12.67 2.67.75 5.58.86 2.37.08 2.87.06 3.4-.15.33-.14.84-.25 1.12-.25s.58-.06.66-.14c.14-.12 1.18-.27 4.4-.61a74 74 0 0 1 8.64 0c2.81.35 3.7.5 4.8.78.66.17 1.65.4 2.18.5s1.06.23 1.16.29.66.22 1.26.38a74 74 0 0 1 8.84 2.96c.4.14.9.37 1.12.52s.64.32.92.38.55.2.6.32c.09.22.6.3.8.11M77.35 27.9c-.06-.08-.2-.15-.33-.15q-.21-.01-.23-.13c0-.22-3.46-1.84-3.92-1.84-.26 0-.62-.2-.98-.53-.43-.4-.69-.53-1.14-.53-.32 0-.71.12-.87.25-.34.29-.4.94-.1 1.03a327 327 0 0 0 5.4 1.44c.76.19 1.48.4 1.6.47.35.18.69.17.57-.01m-24.9-2.5c.49-.13 1.86-.3 3.05-.38 2.35-.16 8.97-.2 9.7-.06.64.12 1.82-.82 1.82-1.44 0-.23-.09-.49-.2-.57-.87-.66-4.54-2.1-6.28-2.47l-1.22-.3q-1.24-.36-1.26.7c0 .28-.07.52-.16.52s-.16-.22-.16-.5c0-.66-.14-.82-.94-1.08-.95-.32-5.2-.5-5.54-.24-.2.16-.25.66-.25 3.02 0 1.56.05 2.88.11 2.93.15.15.35.13 1.33-.13m-30.77 9.15c-.35-.2-.37-.8-.03-1.06.2-.16.26-.14.34.13.1.4.38.47 1.97.52.94.03 1.2.09 1.2.26 0 .19-.3.24-1.6.27-.9.02-1.73-.04-1.88-.12m8.11-.04a17 17 0 0 1-.03-2.23c.04-1.92.06-2.04.36-2.04.28 0 .33.12.37.79.03.45.15.86.28.96.33.25.3.37-.15.56-.34.15-.38.24-.3.78.04.33.04.78-.02.99-.11.41-.38.51-.5.19m-13.6-.56c-.05-.1.14-.15.48-.15.52 0 .6-.06.84-.57.26-.6.3-.58.59.3.07.22.28.27 1.13.27.6 0 1.05.06 1.05.15 0 .1-.77.15-2 .15a8 8 0 0 1-2.08-.15m15.53 0c-.06-.1.64-.15 2-.15 1.28 0 2.09.06 2.09.15 0 .1-.77.15-2 .15a8 8 0 0 1-2.09-.15m-5.2-.3c0-.07.37-.49.81-.92.62-.6.8-.88.76-1.18-.04-.32-.14-.4-.53-.44-.8-.08-.94-.16-.73-.4.2-.22 1.56-.23 1.93-.01.24.14.2.78-.1 1.3-.57 1.07-2.14 2.27-2.14 1.66m-5.4-.71a.3.3 0 0 1-.2-.29c0-.16.23-.21.93-.21.52 0 .98-.04 1.03-.1.06-.04-.2-.3-.57-.57-.9-.64-.9-1.09-.03-1.56.79-.42 1.28-.43 2.23-.05.66.27.73.35.73.8s-.08.55-.73.84c-.4.19-.68.4-.63.49s.45.15.88.15c.73 0 1.14.18.83.36-.18.1-4.22.23-4.47.14m3.07-1.56c.8-.28.32-.9-.7-.9-.52 0-1.3.27-1.3.46 0 .22.72.59 1.15.59a3 3 0 0 0 .85-.15m-4.9 1.33-.03-.88-.02-.68-1.32-.04c-1.03-.04-1.32-.1-1.32-.27q0-.2.12-.23c1.35-.09 2.97-.03 3.1.11.08.1.13.6.1 1.14-.03.76-.1.96-.32 1-.16.03-.3-.04-.3-.15m12.51-.04c0-.11.15-.26.32-.3.55-.17 1.28-.85 1.29-1.2 0-.17.06-.42.14-.53.2-.3.65-.09.66.32q0 .62 1.08 1.31c.28.19.48.4.43.48-.18.28-.64.13-1.24-.39-.34-.29-.65-.53-.7-.53s-.33.24-.65.53c-.59.54-1.33.72-1.33.31M46.12 9.7c-.28-.1-.62-.27-.76-.38-.37-.29-.34-.97.05-1.3q.6-.53-.34-.54c-.43 0-.48-.04-.43-.41.05-.39.11-.42.93-.5l.88-.07.05-.56c.05-.54.04-.56-.56-.6-.49-.04-.6-.11-.6-.35 0-.28.11-.3 1.83-.35 2.14-.05 2.28.02 2.08 1.07-.15.74-.1.83.43 1.03.51.18.44.65-.1.71-.79.1-.83.14-.51.64.3.48.29 1.13-.04 1.32a3.8 3.8 0 0 1-2.91.29m2.23-.85c.28-.27-.33-.61-1.1-.61-1.12 0-1.57.57-.64.8.48.13 1.54 0 1.74-.2m.02-2.73c0-.49-.04-.53-.54-.58s-.53-.02-.44.3c.05.2.1.48.1.63 0 .21.1.27.44.23.39-.04.44-.11.44-.58M35.65 9.64c-.44-.08-1.28-.76-1.28-1.03 0-.32.88-.96 1.56-1.13q.66-.16.68-.4.01-.26-.28-.12c-.6.25-1.75.25-2.02-.01-.36-.34-.38-2.12-.02-2.25.49-.18.7.06.75.86l.05.78.76.05.76.04V5.7c0-.91.37-1.34.73-.87.13.16.23.38.23.5q.01.18.16.11c.09-.05.16-.21.16-.35 0-.42.32-.64.66-.47.25.13.3.34.3 1.33 0 .98-.06 1.23-.31 1.45-.31.27-.31.27.01.69.36.45.29.75-.3 1.25-.32.27-1.85.46-2.6.31m2-1.03c0-.27-.13-.31-1-.35-.82-.04-1.03 0-1.11.2q-.24.56 1.23.49c.76-.03.88-.08.88-.34m.29-1.48q-.23-1.18-.47.01c-.09.42-.06.49.23.49s.33-.07.24-.5m16.48 2.51c-.3-.11-.29-4.57.02-4.97.19-.24.26-.25.48-.08s.26.57.26 2.5c0 2.5-.1 2.8-.76 2.55m-11.3-.15c-.06-.06-.11-.33-.11-.6v-.5h-1.27c-1.38 0-1.77-.1-1.77-.38 0-.11-.11-.28-.24-.38q-.6-.45.36-.9c1.14-.54 1.5-1.24.57-1.11-.57.07-1.1-.28-.96-.63.09-.21.3-.24 1.35-.2l1.24.04.05.5c.04.43-.07.6-.93 1.4l-.98.9 1.32-.04 1.33-.04-.04-1.36c-.02-.75.03-1.46.1-1.57.24-.34.67-.08.67.4s.14.7.52.83c.41.15.34.55-.12.72-.44.15-.46.26-.4 2 .03.92 0 1.02-.28 1.02-.17 0-.35-.04-.41-.1m7.36-.76c-.23-.22-.08-.46.58-.93.75-.53 1.33-1.39 1.18-1.75q-.09-.24-.73-.24c-.69 0-.87-.14-.72-.52.08-.19.35-.24 1.29-.24 1.4 0 1.5.11 1.12 1.24a3.8 3.8 0 0 1-1.6 2.1c-.64.45-.92.53-1.12.34" style="fill:#000"/></svg>