<svg xmlns="http://www.w3.org/2000/svg" xml:space="preserve" width="120mm" height="60mm" viewBox="0 0 120 60"><path d="m132.84 44.51 61.9 27.13" style="opacity:1;fill:#000;fill-opacity:.920746"/><path d="M46.96 3.86c-.14 0-.28.18-.3.4a.5.5 0 0 1-.6.44h-.04l-.08.01-.02.02-.07.1-.02.01-.03.05c.16.2.38.36.49.36.2 0 .4.39.4.8l-.01.03q.09 0 .17.03l.28.03v-.06c.07-1.89.04-2.22-.17-2.22m8.14 0c-.18 0-.25.3-.29 1.34q-.05 1.32-.26 1.4-.19.04-.2-.35c0-.23-.19-.6-.41-.82a1.7 1.7 0 0 1-.46-.84c-.07-.62-.42-.67-.54-.06-.06.28-.33.76-.6 1.07-.74.87-.32 1.25.44.4l.41-.47.43.45.42.44-.47.12c-.91.24-1.24.8-.88 1.5.14.27.35.34 1.13.34.8 0 1.03-.07 1.34-.42s.35-.49.2-.77c-.2-.37-.08-1.36.2-1.73q.18-.23-.02-.42c-.1-.11-.2-.42-.2-.69 0-.3-.08-.49-.24-.49m6.76 0c-.67 0-.96.2-.76.53.18.31 1.32.13 1.38-.22.04-.25-.07-.3-.62-.3m1.82.04h-.05c-.2.08-.4 2.73-.22 3.2.17.44.43.23.43-.33 0-.32.12-.75.26-.96.24-.35.24-.41 0-.66-.14-.15-.26-.5-.26-.8q0-.44-.16-.45m-5.59 0q-.2.01-.5.54c-.18.3-.5.58-.7.6q-.37.07-.38.39c0 .18-.13.4-.29.5-.4.23-.13.45.55.45l.2.01.07-.05q.15-.07.32-.1l.08-.01h.27l.47.04q.3.03.6.04l.2.01.12.02q.15 0 .35.03c.43.09.56.05.56-.14 0-.13-.11-.3-.25-.35s-.2-.2-.15-.36q.1-.26-.34-.44c-.24-.1-.57-.4-.72-.7q-.26-.48-.46-.48m-8 .03c-.24 0-.43.56-.4 1.27.08 1.5.04 1.61-.49 1.61-.59 0-.81-.27-.75-.95l.05-.74c0-.12.2-.21.43-.21.57 0 .54-.46-.04-.57-.84-.17-1.04.1-1.04 1.42 0 1.4.18 1.64 1.16 1.54.55-.05.67 0 .67.24 0 .16.09.35.19.41.24.16.5-.27.38-.64-.1-.37.09-1.19.28-1.19.08 0 .15.47.15 1.04 0 .93.04 1.04.33 1.04.32 0 .34-.11.34-2.08 0-2-.02-2.08-.35-2.08-.3 0-.34.09-.3.64.04.39-.02.66-.15.7q-.2.09-.2-.62c0-.39-.07-.74-.15-.8zm18.04.02q-.1 0-.29.18l-.08.06v1.2l-.07.74v1.28a5 5 0 0 0 0 .72c.26.33.3.32.5-.23.2-.54.26-3.54.07-3.85q-.06-.1-.13-.1m-.93.1c-.1-.01-.2.1-.2.32 0 .44-.3.64-.43.29-.12-.35-1.63-.4-1.52-.06.04.12.27.24.51.27s.44.08.45.1c0 .3-.47 1.34-.79 1.74q-.4.5-.23.68.34.37 1.13-1.04c.23-.41.52-.75.65-.75.3 0 .3.38.03.66-.16.17-.16.29 0 .56.12.18.2.54.2.79q0 .47.24.36a.3.3 0 0 1 .24 0l.02-.57v-.94a14 14 0 0 1 .07-1.08l.02-.39v-.7q-.1.03-.16-.07-.11-.18-.23-.18m-22.75.06h-.2q-.25.01-.32.12c-.07.11 0 .27.15.36.39.23.33.58-.15.9-.22.16-.41.37-.41.46 0 .27.6.2.83-.09.29-.36.73-.33 1.08.09q.08.08.12.14h.27q.06 0 .09.02 0-.09.04-.25c.07-.32.04-.43-.14-.43-.38 0-.72-.5-.5-.72q.06-.07.14-.07.1 0 .23.12l.01-.03a1 1 0 0 1 .14-.15l-.05-.06c-.16-.22-.84-.4-1.33-.41m16.33.54h-.02c-.2.01-.3.26-.11.47.1.1.13.4.08.68-.06.3 0 .6.13.77.12.16.2.52.17.8-.02.27.03.6.12.71.1.13.59.2 1.3.18 1.5-.04 1.43-.03 1.35-.28-.04-.13-.5-.25-1.14-.3-.95-.08-1.07-.13-1.12-.48-.04-.3.03-.39.35-.39.6 0 .92-.49.9-1.36l-.03-.75-.77.07a2.4 2.4 0 0 1-1.2-.12m-2.73.48c.14 0 .28.08.56.23.31.18.57.38.57.45s-.49.14-1.09.14-1.08-.06-1.08-.14c0-.07.23-.28.52-.45.25-.16.38-.23.52-.23m3.63.49c.28 0 .52.17.46.37-.04.12-.23.24-.41.27-.41.06-.67-.45-.3-.6a1 1 0 0 1 .25-.04m-15.74.6q-.03.05-.12.05h-.22q-.07.1-.7.03c-.43-.03-.68.32-.37.52l.07.05.5.01h.22l.13.01.25.04h.13l.52.03c.08 0 .08.09 0 .09l-.53-.02-.13-.01-.25-.04h-.34l-.35-.01h-.1q0 .05-.18.11c-.29.12-.4.94-.17 1.19.07.06.71.1 1.44.07l1.32-.05.02-.57-.05.01h-.61l-1.1.02-.5.01c-.1 0-.1-.08-.02-.09h.28l.24-.01 1.1-.01h.61l.05.01.05-1.34-.3-.04-.3-.04a1 1 0 0 1-.27.05q-.27.01-.32-.07m11.54.36h-.05l-.09.03q-.02.11-.36.21c-.46.11-.58.58-.29 1.14.19.37.33.41 1.22.41 1.26 0 1.87-.4 1.71-1.08a.7.7 0 0 0-.53-.55l-.19-.06h-.13l-.62-.05-.46-.04zm-3.57.58c.81 0 1.01.13.75.46-.21.26-1.1.31-1.46.08-.4-.26-.03-.54.71-.54m3.67.02.47.01c.65.04.88.13.88.32s-.23.27-.88.31c-.8.05-.87.02-.87-.31 0-.25.04-.33.4-.33M36.1 8.78q-.03 0-.05.02c-.08.05-.31.64-.52 1.33l-.39 1.24.38.29.37.3-.1 9.26c-.04 5.1-.13 13.9-.2 19.55-.09 8.68-.07 10.28.13 10.35.12.05 11.05.12 24.27.15l16.93.07c6.36.05 7.22.12 7.39.29.34.36.48.35 1.8-.01 1.42-.4 1.36-.7-.21-1.15-1.2-.33-1.2-.33-1.62.01-.4.33-.6.34-3.14.26l-2.71-.09-3.92-3.04q-10.87-8.46-14.12-10.88c-.76-.57-2.95-2.24-4.87-3.72a411 411 0 0 0-4.78-3.65c-.7-.52-1.72-1.3-2.24-1.73l-1.33-1.07c-3.25-2.42-3.25-2.46-.06-3.02.92-.16 1.74-.35 1.83-.42.18-.14.67-.25 2.57-.57.73-.12 1.27-.3 1.31-.44.06-.18-.1-.2-.74-.12-1 .14-2.22.4-3.3.7-.46.14-1.36.33-2 .44s-1.33.27-1.53.37c-.29.15-.48.11-.92-.17a1.6 1.6 0 0 0-1.05-.26c-.4.06-.68-.06-1.3-.55-1-.8-1.07-1.42-.24-2.02.3-.22.66-.51.8-.66.16-.15.6-.55 1-.88l1.91-1.65c.66-.57 1.34-1.13 1.51-1.24.17-.1.27-.25.2-.32-.1-.11-1.34.82-3.13 2.35-.41.35-1.16.93-1.67 1.3-.5.36-.97.75-1.04.87-.08.14-.48.22-1.06.21-.83 0-1.05-.09-1.84-.7-.83-.65-.89-.75-.89-1.43 0-.6.15-.92.93-2 .51-.72 1.06-1.45 1.2-1.64.16-.2.44-.58.62-.85.62-.93 1-1.45 1.93-2.65q1.64-2.1 1.13-1.93c-.13.04-.7.73-1.26 1.54-.57.8-1.14 1.58-1.27 1.72a4 4 0 0 0-.45.7c-.11.23-.34.55-.5.7-.15.16-.79 1.04-1.42 1.96-.98 1.42-1.22 1.67-1.61 1.67h-.47v-2.72c0-2.31.05-2.77.29-3.04.25-.3.26-.44.07-1.4q-.33-1.62-.62-1.63m19.77 2.58q-.39.02-.69.14-1.1.46-.47 1.3c.37.48.3.7-.27.8-.46.1-.35.4.16.47.4.05.62.38.26.38-.24 0-.52.63-.4.92.04.14.36.37.7.51l.62.28c.01.01.4-.1.86-.24 1.18-.36 1.33-.93.42-1.52l-.45-.3.75-.02.81-.04.05-.43.03-.1-.2.04c-.96.1-1.1-.05-.71-.72.3-.52.31-.61.1-.94-.21-.3-.76-.5-1.32-.53zm8.62.17h-.02q-.15 0-.28.39a1 1 0 0 1-.5.53c-.18.06-.54.39-.78.72l-.02.02h.98q.03-.12.3-.37a.6.6 0 0 1 .4-.2q.38 0 .63.46l.06.14h.97c-.14-.27-.33-.5-.47-.5-.12 0-.43-.28-.67-.62q-.4-.57-.6-.57m9.29.03h-.01c-.13 0-.26.2-.26.47 0 .35-.4.46-.58.16-.16-.26-1.62-.22-1.54.04.04.12.27.22.5.23.25 0 .5.06.56.12.15.16-.57 1.55-.95 1.83-.4.3-.4.56-.02.56.34 0 1.31-1.06 1.4-1.52.08-.43.56-.39.5.04-.03.2-.04.47-.03.6.06.8.12 1.5.14 1.61.04.24.37.14.47-.13l.06-.15v-.03q0-.13-.03-.25l-.02-.18-.01-.2v-.24l-.02-.28v-.97q0-.18.03-.35.01-.13.04-.26l.04-.24.04-.43v-.23a.2.2 0 0 1-.16-.1q-.07-.1-.15-.1m13.84 0q-.26.01-.68 1.33l-.42 1.3c-.34.93-.5 1.54-.41 1.67q.09.13.15.15c.13 0 .53-.93.9-2.08.2-.62.45-1.3.55-1.51s.13-.52.06-.68q-.07-.18-.15-.18m2.47 0q-.11 0-.2.2c-.05.16 0 .35.12.43.27.18.29 2.89.02 3.17-.1.1-.19.3-.19.42 0 .13.1.23.2.22.38 0 .8-1.17.8-2.19 0-1.06-.44-2.23-.75-2.24m-15.46.03q-.14 0-.3.09l-.07.04v.49l-.07.48-.05.25-.02.33v.97l.01.27v.25l.01.19.03.16.04.42.05.06c.42.61.59.08.59-1.9 0-1.08-.05-2.01-.1-2.07q-.04-.03-.12-.03m-12.94 0c-.14.03-.33 2.1-.2 2.38.09.22.36-.04.36-.34 0-.16.13-.43.3-.62.26-.3.26-.34 0-.5a.6.6 0 0 1-.3-.5c0-.17-.07-.36-.15-.42m6.43.03q-.3 0-.61.2c-.52.3-.6.52-.3.84l.19-.03.33-.03h.32l.4-.01h.32l.42.03c.17-.22.16-.32-.1-.58q-.47-.45-.97-.42m8.03 0q-.16 0-.4.24c-.45.52-.55 2.65-.15 3.52.36.8.67.84.48.06-.23-.91-.18-2.99.09-3.32.23-.29.16-.5-.02-.5m-6.05.05c-.2 0-.25.28-.25 1.45 0 .8.05 1.5.11 1.56q.39.39.39-.56c0-.38.1-.76.25-.89.21-.18.21-.25 0-.58a1.5 1.5 0 0 1-.25-.67c0-.17-.11-.3-.25-.3m-18.92.02q-.17 0-.3.37c-.09.22-.35.58-.59.81s-.43.53-.43.65c0 .35.46.28.79-.11.32-.4.71-.45 1-.14q.24.25.21.4h.59l.02-.07c.05-.2-.07-.45-.35-.67-.23-.2-.5-.55-.59-.8q-.16-.45-.35-.44m2 .01c-.12 0-.15.23-.13.82.01.5-.06.99-.19 1.14q-.23.3-.35.25l-.1.02h-.7l-.13-.04q-.14.04-.32.04c-.98 0-.59.42.49.52 1.24.1 1.14.43-.13.43-1.03 0-1.31.21-.92.7.24.3.36.32.62.05.11-.12.53-.19.94-.17 1.07.06 1.3-.35 1.23-2.24q-.05-1.45-.26-1.5zm28.25.14c-.3 0-.69.13-.91.38q-.7.8.1 1.22c.97.5.96 1.35-.02 1.35q-.6 0-.59.26c0 .2.19.26.66.26.5 0 .73-.1 1-.45.48-.65.43-1.07-.23-1.72-.61-.6-.61-.78.02-.78q.36-.01.38-.26c0-.17-.17-.26-.4-.26m-3.92 0c-.7.03-1.3.98-1.1 2.2.05.34.22.77.37.95.4.45 1.19.42 1.58-.07.46-.58.44-2.14-.04-2.67a1 1 0 0 0-.8-.4m-21.6.01q.29 0 .7.17c.37.15.41.22.24.43-.25.33-1.16.34-1.58.02-.3-.23-.3-.24.05-.43q.3-.18.6-.19m3.86.09q-.2 0-.67.74-.29.5-.51.67l-.06.15-.07.18a1 1 0 0 0-.03.34c.16-.03.44-.2.66-.4.53-.48.63-.48 1.02-.03.27.3.28.38.07.52a1 1 0 0 1-.5.16c-.7 0-.9 1.03-.29 1.47.44.32 1.2.34 1.95.07.46-.17.53-.26.48-.73-.04-.4-.18-.6-.5-.77-.26-.13-.47-.37-.47-.54s-.18-.48-.4-.7a2 2 0 0 1-.46-.76q-.05-.38-.22-.37m-29.3.26a5 5 0 0 0-1.34.1c-.2.08-.26.35-.26 1.12v1.03h.5c.3 0 .55.1.6.27.2.5-.12.63-1.64.52v.23l.02.32c1.94-.04 3.87-.12 3.9-.22.01-.1-.29-.2-.68-.22-1.1-.09-1.16-.9-.08-.9.22 0 .38-.11.38-.26 0-.21-.25-.26-1.25-.26h-1.25v-1.04h1.04c1.16-.01 1.72-.23 1.29-.52-.14-.1-.67-.16-1.23-.17m47.14.07c.25.01.4.47.4 1.3q.01 1.63-.7 1.2c-.4-.23-.42-1.9-.03-2.31q.17-.18.3-.19zm-51.45.13c-1.2-.04-1.46 0-1.46.21s.26.27 1.13.31l1.12.05-.02.91q-.03.93.19.91c.25 0 .63-1.33.55-1.92-.05-.4-.11-.42-1.51-.47m42.61.31h-.72l-.31.02-.33.03-.11.01q.1.15-.08.32c-.29.3-.25.78.07.9.2.09.24.25.15.73-.07.39-.03.71.09.87.29.36 2.65.35 2.65-.02 0-.2-.2-.26-.82-.26-.45 0-.93-.04-1.08-.1-.34-.14-.34-.76 0-.76.4 0 1.07-.54 1.07-.86a1 1 0 0 0-.2-.49q-.17-.16-.04-.37h-.05zm15.57.25a11 11 0 0 0-1.72.1 7 7 0 0 0-.17 1.17c-.1 1.07-.1 1.08.31 1.08.39 0 .42-.06.42-.82 0-1.02.18-1.4.5-1q.2.26.1 1.06c-.1.74-.08.78.27.73.33-.05.37-.14.33-.75-.05-.83.18-1.31.48-1 .2.2.26.9.13 1.44q-.05.25.27.26c.28 0 .34-.14.38-.9.06-1.03-.18-1.34-1.3-1.37m4.67.1q-.16.02-.17.17.02.16.17.18.15-.02.16-.18-.01-.16-.16-.17M56 13.23c.19 0 .34.08.34.18s-.15.17-.34.17c-.18 0-.33-.08-.33-.17s.15-.18.33-.18m12.27 0c.45 0 .54.43.13.59-.4.16-.52.13-.62-.14q-.2-.46.5-.45m19.77.08-.06.02c-.3.19-.16.59.34.97.28.21.5.49.5.61 0 .33.5.28.62-.05.1-.3-1.04-1.53-1.4-1.55m-25.26 0c-.27.4-.28.51-.1.63.13.08.37.16.53.16q.2 0 .25.07h.32l.21.03.23.01q.05 0 .07.04c1.57-.14 1.98-.2 2.09-.3.08-.09.01-.34-.1-.6h-1.07q-.1.07-.62.06a2 2 0 0 1-.66-.09h-1.15m-36.93.63q-.15 0-.17.6c0 .6 0 .6-.75.6-.7 0-.97.24-.64.57.09.1 2 .11 3.92.08v-.32l-.01-.24-.3-.02-1.8-.16-.05-.56q-.07-.55-.2-.55m37.73.35h-.1a1 1 0 0 1-.31.29q-.68.44.1 1.07c.72.58 2.55.4 2.8-.27.21-.58-.45-1.15-1.13-.97-.3.08-.3.1.07.4.33.25.36.34.17.57-.3.37-.9.35-1.36-.04l-.38-.33.37-.2c.2-.11.32-.28.27-.37l-.03-.11h-.07l-.22-.03zm-7.58 0q.12 0 .21.04.15.08-.2.09-.37 0-.22-.09a1 1 0 0 1 .21-.03m4.64.17c.16 0 .25.12.38.36.16.31.14.42-.11.61-.38.29-.78.3-1.04.02q-.47-.47.22-.8.37-.19.55-.19m27.48.24c-.16 0-.3.37-.18.51.18.19.38.1.38-.15 0-.13-.07-.29-.15-.34zm-8.88.1a.26.26 0 0 0-.25.25q.02.24.25.26c.14 0 .25-.11.25-.26a.26.26 0 0 0-.25-.26m-23.44 0c.35-.01.74.02.95.1.24.1.24.14-.02.43a1 1 0 0 1-.63.33c-.44 0-1.14-.49-1-.7.05-.1.36-.15.7-.16m-7.58 0q-.19 0-.57.33c-.23.2-.3.35-.17.35.3 0 .86-.32.86-.52q0-.16-.12-.16m12.8 4.54c-.5 0-1.04.11-1.28.32-.27.23-.33 1.2-.07 1.2.09 0 .16.12.16.26s-.14.26-.33.26c-.18 0-.33.12-.33.27q.02.25.41.26.17 0 .26.03h1.92l.3-.01.19-.01h.16l.2-.01c.56 0 .42-.42-.16-.5-.54-.06-.55-.15-.1-.65.43-.48.24-.96-.51-1.28q-.34-.15-.82-.14m-4.22.02q-.52 0-1.02.2c-.54.24-.62.35-.58.75.04.33.22.55.64.76.7.36.95.37 1.64.12.72-.26.96-.75.62-1.28-.22-.35-.73-.55-1.3-.55m12.62.1-.3.43c-.17.24-.56.6-.86.8q-.34.22-.52.45h.01q.14 0 .27.02l.62.04h.05q0-.14.4-.42.28-.2.42-.2c.1 0 .18.07.33.21q.21.2.3.36l.41.03.4.02h.1q-.22-.3-.67-.77zm10.06.01q-.22-.01-.2 1.79l.04 1.99c0 .46.33.54.35.09.1-2.65.09-3.52-.02-3.71q-.1-.16-.17-.16m-12.98 0c-.29 0-.34.12-.34.83 0 .98-.14 1.6-.36 1.6q-.12-.02-.04-.18c.06-.1-.08-.4-.32-.65a3 3 0 0 1-.53-.94q-.22-.94-.64.08c-.12.31-.39.72-.58.9-.4.37-.47.8-.13.8.12 0 .36-.16.52-.35.37-.43.56-.43 1.04-.01.5.42.48.53-.08.53-.5 0-.67.1-1.01.55-.28.37-.02.96.52 1.18.87.37 2.06.03 2.22-.63.06-.24.02-.51-.07-.62-.18-.18-.1-.46.35-1.48.13-.29.12-.45-.02-.6a1 1 0 0 1-.2-.6q0-.42-.33-.4m8.49.04-.04.01c-.21.07-.4 2.55-.21 3.03.13.37.42.09.42-.42 0-.25.13-.6.29-.79.27-.31.27-.34 0-.5q-.29-.16-.29-.78 0-.55-.17-.55m5.88.14c-.1 0-.3.23-.47.65a4 4 0 0 0-.02 2.86c.33.77.72.9.52.18a9 9 0 0 1-.13-1.6c0-.63.06-1.35.13-1.61q.12-.49-.03-.48m-43.92 0c.44 0 .78.18 1.4.72.46.4.83.87.83 1.04 0 .5.62 1.04 1.13.98.67-.08 2.08.98 2.47 1.85.28.62.39.71 1 .79.73.09 2.04 1 5.35 3.7.8.66 1.87 1.47 2.37 1.82.5.34.96.67 1 .74s.35.3.68.53c.32.22.7.5.83.63.3.27 2.57 2.02 6 4.63a1156 1156 0 0 1 9.13 7c1.32.98 3.31 2.53 4.4 3.42.48.4 1.32 1.03 1.87 1.43s1.26.95 1.58 1.24l.59.52-19.91-.03c-19.76-.02-21.3-.04-21.53-.28-.07-.07-.14-1.37-.16-2.9-.05-3.88.2-25.81.3-26.92.09-.9.09-.91.67-.91m55.35 0h-.01q-.02 0-.05.02c-.15.16-1.25 3.54-1.25 3.85 0 .18.09.29.2.25.3-.1 1.49-3.81 1.3-4.02q-.1-.1-.2-.1m-13.62.03q-.21.01-.41.58-.08.16-.42-.05c-.5-.3-1.52-.28-1.52.05q0 .26.5.26c.68 0 .65.45-.09 1.46-.9 1.23-.73 1.6.24.54.53-.56.58-.58.95-.32.22.14.4.4.4.58s.04.44.1.6.19.25.3.21c.25-.09.34-3.58.1-3.84q-.08-.06-.14-.07zm16.35.14c-.25 0-.29.8-.04.96.2.13.22 1.94.01 2.07-.08.05-.18.3-.22.54-.13.68.41.46.65-.27.4-1.2.14-3.3-.4-3.3m-38.39 0q.36 0 .7.18c.27.15.3.25.16.52-.23.45-1.4.49-1.57.06-.15-.43.22-.74.71-.75m4.18.01c.27 0 .56.08.77.25.28.22.3.28.08.43-.32.22-1.17.23-1.5.02-.19-.13-.2-.2-.01-.43.13-.18.39-.26.66-.27m12.35 0q-.35 0-.82.18-.83.31-.3.55l.07-.04q.1-.05.2-.06.15-.04.3-.03a10 10 0 0 1 .95-.01h.6c.16-.2.11-.28-.25-.42a2 2 0 0 0-.75-.17m9.19 0a1 1 0 0 0-.7.37c-.42.48-.3.62.26.31.36-.2.45-.2.58.02.27.44.17.8-.43 1.55-.32.4-.58.84-.58.98 0 .4 1.73.25 1.8-.16.05-.25-.03-.28-.5-.18l-.54.11.31-.5.54-.85c.54-.83-.05-1.68-.74-1.64m3.85.16c-.34 0-.72.07-.85.22-.34.35-.24 1 .18 1.16.53.21.82.62.75 1.09-.04.33-.16.4-.63.41-.85.03-.9.05-.68.33.27.33 1.17.17 1.55-.3.16-.18.3-.56.3-.84 0-.49-.5-1.2-.84-1.2-.38 0-.13-.32.28-.37.24-.03.47-.16.51-.28.05-.14-.24-.21-.57-.22m-12.17.6h.02zm-.12 0h-.05l-.6.01h-.64l-.18.02-.02.01-.15.1q.02.07-.09.17c-.3.32-.23.97.12 1.17.26.14.3.3.23.86s-.03.69.23.76c.96.26 2.98-.01 2.22-.3-.14-.05-.7-.11-1.25-.14-.86-.04-1-.09-1-.38q0-.34.54-.48c.72-.2 1.08-.74.84-1.28a1 1 0 0 1-.09-.37l-.02-.03-.02-.01-.03-.01q-.07-.06-.04-.1m19.65.27c-.97 0-1.17.9-.32 1.47.22.15.4.44.4.63 0 .48.4.33.47-.18.04-.25-.11-.58-.41-.9l-.47-.52.45.12c.4.1.46.06.46-.25 0-.3-.1-.37-.58-.37m-4.78.07-1.38.02-.06.93a5 5 0 0 0 .04 1.18c.05.13.2.23.33.23.18 0 .26-.24.3-.9.04-.68.12-.92.3-.92.19 0 .26.24.3.91.05.79.1.91.4.91q.35 0 .23-.27c-.25-.69-.26-1.05-.04-1.36.35-.5.61-.17.61.78 0 .73.05.85.32.85.3 0 .31-.1.24-1-.05-.54-.11-1.08-.14-1.18-.04-.12-.56-.19-1.45-.18m-10.7.1c.15 0 .24.13.2.3-.06.35-.4.5-.54.24-.15-.25.04-.53.35-.53m-17.42.01h.44c.16 0 .16.17 0 .17h-.52c-.16.01-.2-.14-.03-.16zm12.45.12q.1 0 .23.06c.17.1.31.24.31.32 0 .22-.6.35-.84.18-.3-.2-.03-.55.3-.56m-5.36.16h-.12q-.16.4.29.59h.11l.29.01.2.01h.1l.65.02h1.39a1 1 0 0 1 .24-.04q.6.01.27-.53l-.64-.02-.43-.03-.07-.01q-.23.06-.63.06h-.77a6 6 0 0 1-.88-.06m-11.43.38c-.79.04-1.44.11-1.46.19-.07.2.06.24.97.26.47.01.59.09.63.4q.1.77.6-.04c.21-.34.41-.43.93-.43.59 0 1.15-.32.64-.37-.6-.05-1.52-.04-2.31 0m5.76.4h-2.11q.02.18-.35.5c-.32.26-.34.36-.17.75.1.24.36.48.57.52.69.16 2-.04 2.33-.34.4-.38.39-.66-.06-.96q-.34-.27-.21-.48m6.48.01-.1.12q-.06.09-.17.09l-.03-.01q-.06.1-.19.23c-.48.5-.25 1.13.5 1.32 1.22.31 2.42-.1 2.42-.84 0-.24-.12-.48-.25-.53a.4.4 0 0 1-.21-.16l-.05-.02-.15-.1-.13-.05-.09-.03h-.84l-.66-.02zm-7.66.49c.57 0 1.03.37.84.69-.13.22-1.24.23-1.57.01-.38-.25.1-.7.74-.7m4.4 0c.53 0 .87.29.74.63-.1.29-1.08.32-1.35.03-.28-.3.06-.66.62-.66m4 0c.56 0 1.11.4.95.67-.15.25-1.54.26-1.68.02-.18-.3.25-.7.74-.7m14.84.04c-.2 0-.38.25-.25.46.06.1.18.2.26.2.25 0 .37-.38.18-.58a.3.3 0 0 0-.19-.08m-28.68 0-.03.01c-.26.1-.33.62-.12.88.22.27 2.83.3 2.89.02.02-.1-.47-.2-1.18-.22-1.07-.05-1.24-.1-1.32-.4q-.08-.27-.23-.29zm37.32.16-.09.04c-.07.07-.01.2.12.28.31.2.45.05.2-.2a.3.3 0 0 0-.23-.12" style="fill:#000"/><path d="M47.02 15.78c.2-.12.44-.55.69-.55M73.05 19.46c0 .08-.07.23 0 .23s0-.3 0-.23c0 .44.1.32-.04.46M50.83 15.55c.07.01.17.1.19.05.01-.07-.24-.09-.19-.05q.18.1.37.18c.04.02.05.08.1.1q.04-.02.09 0t.09.09c.03.02.16 0 .18 0q.05.01.1.04c.07.02.8.03.87 0q.02-.01.04-.04c.04-.02.1.01.14 0l.1-.05q.23-.01.45 0M63.95 14.5c.06-.04.21-.04.18-.1s-.25.1-.18.1c.17 0 .33-.1.5-.1s.27 0 .46.05c.24.05 0 .04.14.04M72.69 13.62c.06 0 .18.06.18 0s-.25 0-.18 0c.06 0 .51-.04.64 0 .11.03.16.1.28.14M88.19 15c.06 0 .18.06.18 0s-.24 0-.18 0h.51q-.01-.02 0-.05c.04-.04.25 0 .32 0M88.19 13.43c.08-.01.24.03.23-.04-.02-.08-.3.07-.23.04q.19-.04.37-.09c.22-.08.18-.14.41-.14M93.8 23.14c-.08-.03-.2-.17-.23-.1s.31.1.23.1c-.12 0-.24-.07-.37-.1q-.3-.02-.6 0" style="fill:none;stroke:#000;stroke-width:.264583px;stroke-linecap:butt;stroke-linejoin:miter;stroke-opacity:1"/><path d="M66.87 6.39c-.08-.04-.03.2-.1.2-.03-.01-.09-.1-.12-.13-.08-.06-.03.04-.07.03.01.12-.1-.08-.14-.09-.02 0-.01.05-.03.05-.15 0-.36-.11-.44.04" style="fill:none;stroke:#000;stroke-width:.440784px;stroke-linecap:butt;stroke-linejoin:miter;stroke-opacity:1"/><text xml:space="preserve" x="73.79" y="54.74" style="font-style:normal;font-variant:normal;font-weight:300;font-stretch:normal;font-size:3.52777px;line-height:0;font-family:&quot;Footlight MT Light&quot;;-inkscape-font-specification:&quot;Footlight MT Light, Light&quot;;writing-mode:lr-tb;direction:ltr;fill:#4d4d4d;stroke:#101010;stroke-width:.264583;stroke-opacity:1"><tspan x="73.79" y="54.74" style="stroke-width:.264583">상승률</tspan></text></svg>