<svg xmlns="http://www.w3.org/2000/svg" xml:space="preserve" width="120mm" height="40mm" viewBox="0 0 120 40"><path d="m132.84 44.51 61.9 27.13" style="opacity:1;fill:#000;fill-opacity:.920746"/><path d="M76.82 32.75a29 29 0 0 1-2.6-.33c-.53-.11-1.27-.2-1.65-.2s-1.2-.08-1.83-.19c-2.08-.35-9.25-1.99-11.08-2.53l-2.36-.68c-.31-.08-1.33-.4-2.27-.73l-1.7-.58-10.02.03c-5.51.01-10.66.1-11.44.2-.78.08-2.6.25-4.06.36s-3.29.29-4.07.39-2.4.25-3.59.34c-4.46.33-5.3.55-5.15 1.35.12.6-.5 2.04-.89 2.04-.54 0-.76-.4-.76-1.37 0-1.09-.26-1.85-.63-1.85-.14 0-.37-.32-.5-.71-.24-.67-.23-.75.25-1.34.64-.8 1.66-1.54 2.1-1.54.2 0 .78-.12 1.31-.26s2.32-.59 3.99-.98c4.42-1.04 6.09-1.45 7.47-1.82q1.63-.45 2.77-.5c.12-.01.25-.16.29-.33.05-.27-.2-.35-1.93-.55-1.09-.13-2.54-.26-3.21-.3-.68-.03-1.87-.14-2.65-.25s-2.85-.33-4.6-.5l-3.2-.3-.35.43c-.2.24-.35.66-.35.93s-.1.5-.22.5c-.15 0-.17-.35-.08-1.14l.13-1.14-.58.08c-.57.08-.58.1-.58 1.14 0 .93.04 1.05.38 1.05.45 0 .52.63.1.78-.79.29-1.05-.33-1.05-2.47 0-.7-.08-1.36-.18-1.46-.34-.32.01-.98.58-1.09.3-.06.55-.17.55-.25s.16-.2.37-.25c.2-.06 7.58-.14 16.4-.17 14.45-.04 16.1-.08 16.76-.34.4-.17.9-.3 1.1-.3s.48-.1.61-.23a8 8 0 0 1 1.64-.74c.77-.28 1.57-.57 1.78-.66.2-.08.67-.2 1.04-.26a5 5 0 0 0 1.13-.36c.5-.24 1.7-.63 2.93-.95a45 45 0 0 0 3.46-.94c.24-.09.73-.16 1.08-.16s.69-.07.74-.16.51-.22 1-.29c.5-.07 1-.18 1.1-.26.23-.16 1.88-.48 3.3-.65a5 5 0 0 0 1.23-.26c.1-.07.58-.18 1.04-.23s1.75-.23 2.84-.4c1.1-.16 3.16-.34 4.58-.38 1.43-.05 2.6-.17 2.6-.26s1.83-.16 4.2-.16c3.38 0 4.97.1 8.08.46 2.14.26 3.97.53 4.07.6.11.08.72.2 1.35.24.64.05 1.4.22 1.7.38l.55.28h-.7a10 10 0 0 1-2.9-.52c-.1-.07-.73-.18-1.41-.25l-4.82-.47c-3.67-.36-9.82-.5-10-.2-.06.08-1.2.2-2.52.27-1.33.07-2.8.2-3.27.3-.8.16-4.09.7-6.52 1.07-2.6.4-4.63.84-7.66 1.7a62 62 0 0 1-5.83 1.45c-.34.07-.67.23-.73.36a.4.4 0 0 1-.35.24c-.27 0-1.81.45-2.45.72-.2.09-.71.26-1.13.38s-1.18.4-1.7.61l-1.46.6c-.36.13-5.29.2-16.01.2-8.53 0-15.78.05-16.13.11-1.06.17-1.66.46-1.66.79 0 .37.44.77.64.58.08-.07.3.07.48.3.32.4.5.44 2.45.52a9 9 0 0 1 2.21.23c.06.09.8.17 1.65.17s1.97.09 2.5.18c.93.18 2.55.33 7.08.7 2.85.22 3.79.44 3.79.87 0 .17.17.45.37.62.21.17.38.46.38.64 0 .31 1.78 2.18 2.08 2.18.07 0 .31.14.53.33.25.2 1.02.41 2 .56 1.44.21 1.7.2 2.43-.06 1.33-.48 1.69-.3.87.41l-.42.37h1.64c1.36 0 1.69-.06 1.97-.34.49-.5 1.06-.54 1.26-.1.16.33.32.35 3.36.29l3.2-.06 3.82 1.17c7.12 2.2 12.63 3.39 17.91 3.9 9.22.9 16.5.4 22.45-1.53 4.92-1.6 7.6-2.92 9.77-4.82.4-.36.81-.6.9-.55.1.06.1.19 0 .3-.1.12-.23.43-.3.7-.12.5-1.75 1.83-2.97 2.45l-1.88.95a45 45 0 0 1-10.95 3.38c-2.69.59-10.84.87-14.99.52m-62.15-2.3q0-1.44-.67-.9c-.52.4-.21 1.78.4 1.78.2 0 .27-.23.27-.89m4.91-2.7c8.02-.68 8.61-.73 10.4-.92.99-.1 1.99-.22 2.22-.27.5-.1.59-.7.13-.86q-.29-.12-.2-.4.12-.27-.26-.37c-.43-.1-.52-.6-.1-.6.14 0 .45.31.69.68.92 1.47.95 1.48 3.27 1.47 1.79 0 2.05-.04 1.77-.24-.18-.13-.33-.32-.33-.43s-.25-.24-.56-.3c-.3-.07-.65-.23-.78-.38-.12-.14-.3-.25-.4-.25-.26 0-1.29-1-1.29-1.26 0-.12-.17-.41-.38-.67-.2-.25-.37-.6-.37-.8 0-.3-.12-.33-1-.28-.54.03-.98.13-.97.23l.16 1.16.13.98-.4-.34a1.2 1.2 0 0 1-.38-.82c0-.76-.41-.98-1.37-.72-1.07.28-1.75.44-4.11.97-1.1.24-2.33.54-2.75.65s-1.1.27-1.5.34c-.42.07-.95.23-1.18.34s-.7.22-1.07.22-.71.07-.77.16-.43.2-.82.25c-1.84.26-2.96.62-3.66 1.17q-1.3 1.05-.21 1.43c.76.27 1.4.25 6.1-.14m59.09-1.28a161 161 0 0 1-7.57-1.06 6 6 0 0 1-1.5-.37c-.1-.09-.48-.17-.85-.17s-.88-.12-1.14-.26-.8-.26-1.19-.26-.86-.08-1.04-.17q-.85-.42-3.73-1.27c-1.04-.31-2.08-.68-2.3-.82a2 2 0 0 0-.8-.26c-.2 0-.43-.08-.5-.18-.06-.1-.34-.18-.62-.18a2 2 0 0 1-.87-.27 1.6 1.6 0 0 0-.8-.27c-.23 0-.47-.08-.54-.17-.12-.2-5.18-.25-5.9-.07-.32.08-.43.24-.43.62 0 .29-.08.52-.17.52s-.2.33-.26.74-.24.87-.4 1.03c-.28.25-.3.23-.3-.24 0-.28.12-.65.27-.8.29-.3.37-.68.32-1.4-.02-.3-.18-.44-.6-.52-1.38-.26-.27-.4 3.65-.45 3.63-.05 4.29-.1 4.72-.37.54-.34 1.09-.42 1.09-.16 0 .09-.2.28-.43.42-.35.23-.38.31-.17.55.13.16.5.33.8.4.3.06.6.19.66.28s.26.16.45.16.59.12.89.27.69.27.87.27.5.08.71.18l.75.36c.2.1.56.18.78.18s.66.11 1 .25c1.07.45 5.38 1.55 7.49 1.9.47.07 1.57.28 2.46.45 2.56.5 4.44.63 10.66.73 4.93.08 6.16.05 7.94-.2l3.04-.45a27 27 0 0 0 3.6-.73c.37-.14 1.88-.54 3.45-.9.44-.1.8-.26.8-.35 0-.1.2-.17.44-.17.25 0 .86-.2 1.36-.45a3 3 0 0 1 1.73-.4c1.18.07 1.1.39-.13.51-1.06.11-3.71.92-4.05 1.24-.1.1-.44.18-.76.18s-.74.13-.94.27-.6.27-.87.27c-.28 0-.79.13-1.14.3s-1.45.41-2.44.55l-2.84.4-2.46.34c-1.7.22-10.32.22-12.2 0M42.78 25.3c-.2-.19.05-.42.44-.42.2 0 .43-.14.53-.3a.4.4 0 0 1 .5-.18c.39.14.2.48-.27.48-.19 0-.4.12-.45.27-.11.27-.53.36-.75.15m3.94-.06c-.07-.1 0-.24.17-.3a.5.5 0 0 0 .3-.43c0-.44.35-.63.5-.27.13.34-.78 1.3-.97 1m-1.8-1.61c0-.2.17-.44.38-.55.31-.15.37-.13.37.14 0 .34-.33.76-.6.76-.08 0-.15-.16-.15-.35m62.77.08c0-.15.08-.27.19-.27s.18.12.18.27-.08.27-.18.27-.2-.12-.2-.27m-68.54-.27c-.06-.1-.3-.18-.51-.18-.58 0-1.84-.58-1.85-.85 0-.13-.13-.28-.28-.34-.46-.16-.39-1.93.09-2.39.2-.2.5-.36.65-.36s.35-.12.44-.27c.22-.38 2.15-.65 3.64-.52.98.1 1.43.24 2.21.75 1.1.7 1.39 1.36 1.07 2.42-.2.67-1.44 1.55-2.19 1.56-.28 0-.56.08-.62.18-.07.1-.66.18-1.32.18-.67 0-1.26-.08-1.33-.18m3.18-.73c.77-.23 1.26-.47 1.26-.63 0-.14.13-.25.28-.25.35 0 .53-.56.37-1.15a2 2 0 0 0-.16-.46c-.21 0-2.77 1.41-2.94 1.63-.05.06-.31.17-.57.25-.55.16-1.3.65-1.32.85-.01.27 1.86.12 3.08-.24m-3.06-.48c.74-.5 1.18-.76 1.54-.87.18-.06.33-.18.33-.27q.02-.14.2-.16c.1 0 .62-.25 1.13-.57q.93-.58.7-.71c-.4-.24-1.6-.16-1.84.12-.13.15-.34.27-.47.27s-.39.16-.57.36c-.2.2-.49.36-.67.36-.17 0-.47.16-.66.35-.19.2-.43.37-.55.37-.11 0-.41.17-.67.37-.38.3-.41.4-.18.53.43.26 1.22.2 1.71-.15m-1.54-1.13c.06-.05.44-.24.85-.42.42-.18.85-.41.95-.53.1-.1.5-.34.9-.51q1.5-.67-.33-.68c-.57 0-1.04.08-1.04.18s-.3.22-.66.28c-.42.08-.88.35-1.23.73-.6.65-.64.76-.46 1.21.1.23.18.24.52.06a3 3 0 0 0 .5-.32m8.31.5q-.14-1.43.72-1.12c.3.11.3.15-.08.44-.24.18-.44.58-.48.93-.06.54-.07.5-.16-.26m11.7-2.62c.25-.2.65-.37.88-.37.24 0 .53-.12.65-.26.12-.13.44-.3.7-.36.53-.13 1.93-.69 2.75-1.1.28-.14.68-.26.9-.26.2 0 .66-.16 1-.35.34-.2.8-.36 1.03-.36s.65-.11.95-.25a7 7 0 0 1 2.47-.65c.33 0 .64-.07.7-.16.06-.1.47-.22.9-.29.45-.06 1.2-.23 1.66-.36 1.35-.4 4.57-.8 7.66-.99a82 82 0 0 0 3.68-.27c1.09-.14 10.21.26 10.63.47.17.09 1.03.2 1.89.27.86.06 1.74.18 1.95.26s.72.2 1.13.24c1.57.19 3.22.52 3.44.68.35.27 3.22.28 3.5.01.34-.32.92-.28.79.06-.3.75-2.8 1.09-3.98.53a8 8 0 0 0-1.68-.44c-.62-.1-1.72-.3-2.45-.45-.72-.16-2.04-.36-2.93-.46l-3.4-.35c-4-.43-13.05-.23-17.01.37l-1.99.27c-.42.05-1.18.2-1.7.34-1.74.46-2.5.63-2.88.63-.21 0-.63.12-.93.27s-.75.27-1 .27-.6.13-.79.28c-.18.16-.67.33-1.1.38-.42.06-.86.21-.98.35s-.42.24-.67.24c-.24 0-.6.08-.78.17l-.6.27c-.16.05-.42.17-.57.25-.7.38-1.1.53-1.67.65-.33.07-.73.24-.89.39-.15.15-.6.3-.99.36l-.7.09zm48.9-5.93c-.06-.1-.36-.18-.67-.18-.33 0-.61-.11-.67-.27-.06-.14-.27-.27-.46-.27s-.4-.08-.46-.17c-.07-.1-.4-.19-.72-.19-.33 0-.76-.12-.95-.26-.2-.13-.46-.2-.59-.16s-.34-.04-.48-.2c-.13-.14-.46-.27-.74-.27s-.62-.08-.78-.18c-.38-.24 1.21-.24 1.66 0s2.07.72 2.42.72c.15 0 .27.08.27.18s.17.18.37.18.41.07.47.15c.05.09.44.2.86.27.6.1.76.2.76.47q0 .6-.28.18" style="fill:#000"/></svg>