<svg xmlns="http://www.w3.org/2000/svg" xml:space="preserve" width="120mm" height="60mm" viewBox="0 0 120 60"><path d="m132.8 44.5 62 27.1" style="opacity:1;fill:#000;fill-opacity:.920746"/><path d="m81.3 53.8-.1-.2h-.5l-.6-.2-.7-.6-.6-.6-.5-.7-.5-.8v-.6l-.2-.1-.2-.2V8l.2-.2.1-.2.1-.5.1-.4.8-.8.8-.9.5-.3.6-.2.8-.3 1-.2H89l1.2.6 1.2.6.6.7.7.6.4 1.1.4 1.2v40.5l-.3 1-.3 1-.6.6-.5.6-.5.4-.6.5-.9.2-.8.3h-7.8zm8.7-1.1.8-.4.6-.5.5-.5.4-.7.3-.7V46l-.2-.5-.3-.5-.7-.8-.6-.7-.8-.3-.7-.4h-7.6l-.5.2-.6.3-.7.5-.7.6-.5.9-.4.8v3.4l.3.8.3.7.6.7.6.6.8.4.7.4h7.6zM79.5 43l.9-.7h.6v-.2l.2-.2h.9l.1-.1v-.2l-.5-.6-.6-.5-.7-.9-.6-.8-.2-.3-.2-.4-.2-.5-.3-.5-.1-.4-.2-.5h-.3V44h.2l.2-.2zM92.6 40v-3.7h-.2l-.5 1.2-.6 1.1-.7 1-.8 1-.5.5-.6.5.1.2.1.2h.8l.9.4.9.5.4.5.5.5v-.1l.2-.1zm-5.1 1.3.7-.4.7-.6.7-.7.7-1 .7-1.2.2-.6.3-.6.2-.6.3-.7.2-.8.1-.9.2-.7.1-.8v-5.2l-.1-.8-.2-.9-.1-.8-.2-.8-.2-.5-.3-.5-.6-1.5-.7-1.5-.9-.9-.8-.8-.6-.5-.6-.5-.9-.2-1-.3-.8.3-1 .2-.7.6-.8.5-.7.9-.8.9-.6 1.2-.6 1.2-.2.8-.3.7-.3 1-.2.9-.1 3.3V32l.2 1 .3 1 .1.7.2.8.2.4.2.3v.6l.3.4.2.3v.4l1 1.3.8 1.2.5.3.4.3.6.4.7.4h2.8zm-8.6-20.5.4-.7.6-1 .5-1 1-.8.9-.8V16l-.4-.1-.3-.1h-.9l-.6-.4-.6-.4-.5-.4-.5-.5h-.2v7.6l.1-.1.2-.2zm13.7-3V14h-.2l-.4.5-.4.4-.7.4-.7.4-.8.2h-.7v.3l-.1.3.3.2.3.1 1 1L91 19l.7 1.4.6 1.3h.3zm-2.7-3 .8-.3.7-.7.6-.7.3-.7.3-.7V8.3l-.3-.5-.2-.5-.4-.6-.4-.6-1-.5-.8-.5H86L82.7 5H82l-.9.2-.8.5-.9.6-.5.9-.5.9v4l.4.8.5.8.4.3.3.4.6.3.6.2 1 .2h7zM37.5 51.9l-1.2-.6-.9-.6-.8-.6-1.1-.5-1-.6-.3-.2-.2-.2-1.7-.9-1.7-.9-.5-.3-.5-.4-.2-.1-.3-.1-1.6-1-1.6-1-1.6-1-1.6-.9-1.3-.7-1.2-.7V16.4l.4-.4.4-.3h.4v.2l-.3.5-.3.4v5.5h.4l.3-1 .4-1.1.6-1.3.6-1.3.6-.9.6-.9.3-.3.2-.4.2-.2.2-.3.3-.5.3-.4v-.1l-.2-.1-.1.2-.2.2h-.5l-1 .7-.8.7-.5.2-.6.3v-.1l-.2-.1.2-.3.2-.2.7-.4.7-.3.3-.3.4-.2.4-.3.3-.4h.2l3.7-2.2 3.6-2.3.6-.3.6-.4.8-.5.7-.4 1.1-.7 1-.7.6-.2.5-.3.2-.2.1-.2h.4l.6-.4.6-.4h1l.8.5.9.5.5.2.5.3.8.6.8.6.4.1.3.2.3.2.2.1 2 1.1 1.8 1.1h.3l.2.2.3.3 1.2.6 1.2.6.2.3.3.2.7.4.7.4.7.4.8.4.5.3.4.4.4.1.3.1 1.3.9 1.2.8v.3l.2.4-.1.1-.1.1v23.4l-.4.4-.4.4-2.4 1.3-2.5 1.4-.7.5-.8.6-.4.2-.4.3-.7.4-.8.3-1.2.8-1.2.8-1.3.7-1.3.7-.6.5-.7.4-.8.5-1 .5-.2.2-.2.1-1 .6-1 .5-.2.1-.3.1zm2.1-.4.3-.3 1.3-.7 1.4-.8.5-.4.5-.4-.1-.1-.1-.1-.6.2-.5.1-1.4.2-1.3.2H37l-1-.2-1.1-.1h-.3l-.2-.1v.1l-.1.2.6.4.6.3.8.5.8.4.7.4.6.4h1zm.8-3 1.7-.1 1.4-.4 1.3-.3 1.3-.5 1.4-.5 1.4-1 1.3-.8.8-.7.8-.7.6-.4.7-.5v-.4l.4-.3.4-.3v-.4h.3l.4-.7.4-.7.2-.1h.1l.3-.6.2-.5.3-.5.3-.5.1-.3.1-.2.6-1.3.5-1.3v-.7l.2-.3.1-.3.3-1.7.2-1.8V27l-.2-2-.2-1.8-.3-.7-.2-.7-.3-1-.3-.9-.2-.2-.2-.2V19l-.2-.6-.3-.3-.3-.3v-.3l-.5-.6-.5-.6-.2-.5-.3-.6H54l-.5-.7-.5-.7-1.1-1-1.2-1-.9-.6-.9-.6-.8-.5-.8-.4-.9-.4-.9-.4-1.3-.4-1.4-.5-2.2-.1-2.2-.2-1.7.2-1.8.3-.8.1-.7.2-1.2.4-1.2.5-1.3.7-1.4.6-1.8 1.5-1.8 1.5-1 1.3-1 1.2-.5.7-.4.7-.7 1.5-.7 1.4-.4 1.3-.5 1.4-.3 1.5-.3 1.5v4.2l.3 1.6.3 1.6.1.3.2.3.4 1.3.4 1.2v.6l.4.3.4.2v.5l.2.5.5.7.6.8v.2l1 1.3L25 43l1.8 1.5 1.9 1.5.4.2.4.2 1.7.7 1.8.8h.6l.7.2.7.3 1.2.1 1.2.2h1.3zm-2.6-9zv-.8l-.3-.2-.3-.2h-1l.1.5v.4h-.6l-.5-.3-.6-.2V38h.3v-.3l-.5-.3-.6-.2-.1-.2-.1-.2H33l.2.4.2.3-.2.2-.2.1-.5-.2-.4-.2-.2-.5-.2-.4.3-.3.3-.2-.5-.5-.6-.6-.3.2-.3.2h-.4l-.4-.5-.3-.5v-.5h.3l.3-.2v-.4l-.2-.3-.3-.3V32h-.3l-.1.3-.2.3-.3-.2-.3-.2-.1-.5-.1-.5v-.4l.1-.3h.5l.1-.3.1-.2-.2-.5-.2-.5H28l-.1-.3-.1-.3V27l.2-.3.2-.2h.4l.4-.1.1-.6.1-.6V25l-.1-.2h-.7v-.6l.4-.5.3-.6.5.2h.6V23l.3-.5.4-.4v-.2H30v-.8l.5-.5.5-.4.3.4.3.4.6-.7.6-.6h-.2l-.2-.2V19l.6-.4.6-.5.2.1.3.1-.2.5v.4l.4-.3.5-.2.4-.1.5-.1-.2-.2-.2-.2v-.6l.4-.2.3-.1h.9l.2.1v.2l-.2.3-.3.2h1.6l.2-.1.1-.2.1-.5v-.5h1.8v.2l.2.3-.2.3-.2.2h-1v.2H39h2.3l.2.2.3.1.2-.4.1-.5h.5l.5.3.5.2v.5l-.2.1-.2.2.6.5.5.4h.6v-.5h.5l.5.3.6.4v.4l-.3.3-.3.3.6.6.5.6.2-.3.2-.3.3.1.3.1.3.5.3.5v.5l-.2.1-.1.1-.3-.2-.2-.2v.4l.3.6.4.6.2-.1.3-.1h.3l.3.2v1.6l-.3.2-.2.2V28l.3-.1.2-.1h.2l.2-.1v1.8h-.4l-.4-.1-.2.7-.2.8v.5-.2l.1-.2h.7v1l-.4.5-.3.5-.3-.3-.3-.4-.4.7-.3.7-.4.6-.5.6.5-.4.5-.4h.4v.7l-.5.5-.5.5h-.4l-.1-.3-.1-.4-.7.7-.7.6v.3l.1-.1.2-.1.2.2.2.2v.2l-.7.6-.8.5-.2-.1H44v-.6h-.7l-.3.3-.4.2.2.4.2.3-.4.3-.4.3H41v-.1l-.2-.2.2-.3.2-.2-.1-.1-.1-.1-.6.2-.7.2h-1.3v.3h.7v.4l.1.3H38zm4-2.2 1.2-.4.8-.5.9-.6.8-.8.8-.8.6-.9.6-1 .2-.5.2-.6.1-.8.2-.8V26l-.2-.8-.2-.3-.2-.4v-.4l-.8-1.2-.7-1.1-.9-.8-.8-.7-.8-.5-.9-.6-1-.2-.9-.3h-1.1l-1.1-.2-1.3.3-1.3.3-.6.3-.7.2-.9.7-.9.6-.9 1-.9 1.1-.5 1-.5 1-.2 1-.3 1.2-.2.5-.1.5.3 1.4.4 1.4.6 1.4.6 1.3 1 1 1 1 1 .7 1 .6h.1l.5.2.5.3h.3l.2.1h4zm2.9-.4h-.2zm1-17-.3-.2v.1l-.2.1.3.2.2.1h.1zm-2.5-1.5v-.2h-.7l.1.2.1.2h.5zm-20 23.8-.4-.7-.2-.3-.2-.3-.1-.1-.2-.2-.3-.5-.3-.4v-.5l-.3-.3-.4-.2-.2-.7-.2-.8-.2-.2-.2-.3-.4-1.2-.3-1.2H19l-.1.3-.1.2V40l.2.2.3.3 1.4.8 1.4.7.6.5.6.5h.3l.2-.2zm33.1-.8 1.8-1.1.3-.2.2-.2v-5.3l-.2-.2-.2.2h-.1v.6l-.3.8-.3.7-.3.7-.4.7-.3.6-.3.6-.6.9-.6.9-.5.5-.5.5v.4h.5zm2.3-19.9v-5.4l-.7-.4-.6-.3-.6-.3-.7-.4-.1-.1-.1-.2-.8-.4-.8-.5h-.3v.6l.5.6.6.6.6.9.5.8.3.2.2.2v.6l.3.3.4.3v.6l.5 1.3.5 1.2h.2zm-22-14.2 1.8-.2 2.3.1 2.3.1V7l-.6-.3-.6-.4-1.5-.8-1.5-.8h-.5l-1 .6-1 .7-1 .4-.8.5-.3.4-.2.4h.4l.5-.2z" style="fill:#000"/></svg>