<svg xmlns="http://www.w3.org/2000/svg" xml:space="preserve" width="120mm" height="60mm" viewBox="0 0 120 60"><path d="m132.84 44.51 61.9 27.13" style="opacity:1;fill:#000;fill-opacity:.920746"/><path d="M28.94 14.4q0 .19.09.14zm-.02.5c-.18.03-.23 1.65-.05 1.82.2.2.22.12.22-.85 0-.54-.07-.97-.16-.97m36.78 1.18h-.43l-.03.14c0 .35.2.27.46-.14m-.88 1.01-.46.3c-.25.15-.46.35-.46.44 0 .26.37.06.66-.35zm-35.9.08q-.07 0-.25.23c-.76.92-.75.9-.47 1.85.14.48.33.95.41 1.03.28.3.15.54-.48.9-.73.42-.6.42-2.3.1-.74-.14-2.02-.33-2.85-.42-1.56-.17-3.69-.49-5.27-.79-.5-.1-1.67-.28-2.6-.41l-3.34-.5c-.92-.14-2.22-.32-2.89-.4a8 8 0 0 1-1.39-.25 4 4 0 0 0-1.04-.14 8 8 0 0 1-1.33-.17c-.35-.09-.48-.05-.57.15-.17.43.12.56 1.62.73.78.09 2.06.27 2.84.4.78.14 2.44.39 3.68.56 4 .55 5.51.79 5.7.9.1.06.76.17 1.47.24 2.47.26 4.04.54 4.12.75.04.12-.07.54-.25.95-.4.91-.41 1.44-.03 1.9.26.32.3.8.35 3.68.04 3.18.03 3.33-.3 3.6-.42.35-.47 1.3-.1 2 .47.86.85.6 1.26-.86.19-.68.18-.8-.06-1.06-.4-.42-.4-6.6-.02-7.5.24-.53.23-.68-.03-1.56-.24-.83-.24-1-.04-1.11a.6.6 0 0 1 .48-.04c.14.06.6.14 1 .17.94.1 1.14.24 1.28.95.18.94 1.62 2.2 3.45 3.03 1.7.77 3.57 1.48 4.48 1.7l2.93.7c1.29.32 3.21.73 4.27.91l2.84.49c3.8.65 4.2.7 7.62 1.1.73.08 2.09.26 3.01.4 1.75.26 3.37.44 7.45.81 1.33.13 2.69.3 3 .4.33.1 1.2.17 1.93.17.74 0 1.8.1 2.35.24s1.64.24 2.42.24c.79.01 1.95.09 2.6.18.64.08 1.96.22 2.93.3.96.08 2.43.22 3.26.32s3.01.25 4.85.35c8.93.47 10.2.55 10.01.67-.1.06-19.57.11-43.26.1C.92 35.13 4.5 35.1 4.5 35.4c0 .22 1.16.25 9.33.26h9.58c.14 0 .36.05.5.13.19.13.15.32-.23 1.17-.26.56-.5 1.38-.55 1.83-.08.75-.06.84.35 1.1l.43.27v2.85c0 1.57.06 3.02.11 3.22s.19.34.3.3c.12-.03.2-1.05.23-3.2.04-2.89.07-3.16.37-3.42.43-.37.42-.87-.03-2.57a6 6 0 0 1-.27-1.46c.11-.11 51.34-.1 51.52.01.08.05-.01.5-.19 1-.18.49-.32 1.06-.32 1.25 0 .2-.12.62-.25.94-.33.74-.34.7.25.99l.5.25v3.04c0 1.47.02 2.35.1 2.82h.42c.05-.51.09-1.54.1-2.7l.04-3.05c0-.07.2-.21.44-.32.48-.2.49-.1-.1-2.37-.18-.76-.36-1.48-.38-1.61-.03-.21 1.59-.25 13.44-.32 7.4-.05 16.22-.05 19.58 0 3.36.04 6.24.02 6.4-.05.7-.3 0-.83-1.57-1.15-.59-.12-1.67-.37-2.4-.57-.74-.19-1.72-.41-2.18-.49-.46-.07-1.25-.26-1.76-.4-.87-.26-2.91-.71-4.77-1.06a7 7 0 0 1-1.17-.3c-.18-.09-1.35-.38-2.6-.66-1.24-.27-2.67-.6-3.17-.73l-2.43-.55q-2.37-.52-4.27-1.05c-.41-.12-1.4-.33-2.17-.48-.79-.15-1.88-.4-2.43-.56a27 27 0 0 0-3.74-.82c-.52-.07-1.59-.28-2.37-.47a286 286 0 0 0-6.78-1.52c-.64-.14-1.8-.35-2.59-.47s-1.65-.3-1.92-.39c-.28-.1-.92-.25-1.43-.34l-2.17-.43a30 30 0 0 0-2.21-.37c-1.06-.12-1.05-.11-1.21-.6-.08-.27-.03-.38.23-.46.19-.06.34-.18.34-.27s.23-.44.5-.78c.28-.33.5-.7.5-.81 0-.25-1.07.88-1.43 1.51-.43.75-1.09.9-2.75.66a85 85 0 0 1-5.52-.96c-.5-.12-1.3-.26-1.76-.32a201 201 0 0 1-5.85-.8c-4.9-.76-12.96-.7-15.1.1-.3.11-.58.16-.64.11-.05-.05.02-.54.17-1.08.27-1 .24-1.15-.33-1.86q-.18-.23-.26-.23m34.52 1.27c-.07.01-.3.26-.5.57-.46.68-.25.75.26.08.39-.5.44-.65.24-.65m-24.46 1.99c2.5.08 4.86.26 5.87.51a8 8 0 0 0 1.57.23c.34 0 1.35.12 2.23.25l3.2.5c.88.13 2.08.34 2.68.47s1.84.36 2.75.52a6 6 0 0 1 1.71.44c.03.09-.16.28-.42.42q-.49.26-.78 1.05c-.17.43-.38.87-.46.98-.18.23-.89.23-1.88.02-.37-.08-1.27-.21-2-.3-.74-.09-1.65-.23-2.02-.32-.36-.09-1.23-.24-1.92-.34l-2.68-.4c-5.4-.82-7.3-1.1-9.78-1.43a18 18 0 0 1-2.25-.4 8 8 0 0 0-1.54-.22 9 9 0 0 1-1.75-.27c-.25-.1-.73-.18-1.06-.18q-1.21-.02-1.19-.35c0-.36 1.59-.9 3.1-1.07 1.52-.17 4.14-.2 6.62-.11M28.71 22.4q.1 0 .22.07c.17.08.59.15.92.15s.97.1 1.4.24 1.34.3 2.03.4c.69.08 1.93.26 2.76.4l3.43.5c1.06.13 2.79.4 3.85.58 1.87.32 4.05.65 6.1.93 1.1.15 2.67.4 4.1.68.51.1 1.5.24 2.18.3.7.07 2.09.27 3.1.45a302 302 0 0 0 10.53 1.63c.63.09 1.27.2 1.42.25s1.01.16 1.94.25 1.97.25 2.34.38.91.24 1.21.25c.3 0 .87.07 1.26.16.72.15 2.02.34 5.06.73.92.12 2.73.4 4.02.63s2.62.4 2.96.41 1.05.11 1.58.25c.53.13 1.26.24 1.62.24a7 7 0 0 1 1.51.24c1 .27 2.54.5 4.8.73.88.08 2.49.33 3.58.55s2.34.4 2.8.4c.44 0 .81.08.81.17 0 .2-4.23.17-5.35-.03-.42-.08-2.68-.2-5.02-.3-4.57-.15-11.13-.54-13.73-.8-2.33-.23-4.9-.45-8.2-.72-5.05-.4-6.75-.57-7.36-.72-.56-.14-2.66-.37-6.02-.65-.88-.08-2.42-.24-3.44-.37-1-.14-2.59-.33-3.51-.44s-2.43-.3-3.35-.43-2.16-.3-2.76-.35c-.6-.06-1.25-.2-1.45-.3-.2-.11-.58-.2-.84-.2-.8 0-5.26-.88-7.41-1.47-.7-.19-1.64-.42-2.1-.52s-.92-.24-1.02-.3c-.1-.07-.87-.37-1.7-.67-2.45-.9-3.89-1.8-4.48-2.78-.25-.42-.27-.56-.09-.76q.13-.16.27-.16zm31.57 1.08q.29 0 .79.1l2.16.41c2.4.46 4.4.86 5.1 1.03.38.09 1.17.25 1.76.35 1.79.32 2.4.44 3.1.6l2 .44c2.4.5 4.18.9 4.95 1.12.41.12 1.5.34 2.42.49s1.86.33 2.09.42 1.43.37 2.68.62c1.24.26 2.68.58 3.18.73.5.14 1.52.4 2.26.57s1.69.42 2.12.55c.42.13.98.24 1.23.24s.8.1 1.23.24c1.06.32 2.98.75 3.75.85.34.04.66.13.71.2q.07.13-.04.2c-.17.08-3.54-.27-5.57-.59-2.7-.42-3.73-.59-4.6-.74-.46-.08-1.44-.22-2.18-.32-3.61-.48-4.6-.63-4.8-.74a7 7 0 0 0-1.47-.24 94 94 0 0 1-7.11-1.04c-.74-.14-1.87-.32-2.51-.4-.65-.09-2.12-.3-3.27-.49L67 27.6c-2.26-.3-4.36-.63-5.71-.86-.75-.14-1.58-.25-1.85-.25s-.64-.1-.82-.24c-.31-.23-.3-.26.39-.85.59-.5.7-.7.7-1.2 0-.48.14-.7.57-.7" style="fill:#000"/><path d="M65.43 16.4c-1.67 1.83-3.37 3.91-5.05 5.9" style="fill:none;stroke:#000;stroke-width:.111286px;stroke-linecap:butt;stroke-linejoin:miter;stroke-opacity:1"/><path d="M29.2 12.72c-.65 1.57-.31 3.5-.29 5.3" style="fill:none;stroke:#000;stroke-width:.233735px;stroke-linecap:butt;stroke-linejoin:miter;stroke-opacity:1"/><text xml:space="preserve" x="22.99" y="12.88" style="font-style:normal;font-variant:normal;font-weight:700;font-stretch:normal;font-size:4.3185px;font-family:sans-serif;-inkscape-font-specification:&quot;sans-serif Bold&quot;;writing-mode:lr-tb;direction:ltr;fill:#000;fill-opacity:.920746;stroke-width:.462696"><tspan x="22.99" y="12.88" style="font-style:normal;font-variant:normal;font-weight:700;font-stretch:normal;font-family:sans-serif;-inkscape-font-specification:&quot;sans-serif Bold&quot;;stroke-width:.462696">앞전</tspan></text><text xml:space="preserve" x="57.16" y="17.11" style="font-style:normal;font-variant:normal;font-weight:700;font-stretch:normal;font-size:4.3185px;font-family:sans-serif;-inkscape-font-specification:&quot;sans-serif Bold&quot;;writing-mode:lr-tb;direction:ltr;fill:#000;fill-opacity:.920746;stroke-width:.462696"><tspan x="57.16" y="17.11" style="font-style:normal;font-variant:normal;font-weight:700;font-stretch:normal;font-family:sans-serif;-inkscape-font-specification:&quot;sans-serif Bold&quot;;stroke-width:.462696">（가）</tspan></text><text xml:space="preserve" x="65.49" y="54.21" style="font-style:normal;font-variant:normal;font-weight:700;font-stretch:normal;font-size:4.3185px;font-family:sans-serif;-inkscape-font-specification:&quot;sans-serif Bold&quot;;writing-mode:lr-tb;direction:ltr;fill:#000;fill-opacity:.920746;stroke-width:.462696"><tspan x="65.49" y="54.21" style="font-style:normal;font-variant:normal;font-weight:700;font-stretch:normal;font-family:sans-serif;-inkscape-font-specification:&quot;sans-serif Bold&quot;;stroke-width:.462696">세로축</tspan></text><text xml:space="preserve" x="17.07" y="54.27" style="font-style:normal;font-variant:normal;font-weight:700;font-stretch:normal;font-size:4.3185px;font-family:sans-serif;-inkscape-font-specification:&quot;sans-serif Bold&quot;;writing-mode:lr-tb;direction:ltr;fill:#000;fill-opacity:.920746;stroke-width:.462696"><tspan x="17.07" y="54.27" style="font-style:normal;font-variant:normal;font-weight:700;font-stretch:normal;font-family:sans-serif;-inkscape-font-specification:&quot;sans-serif Bold&quot;;stroke-width:.462696">붙임각</tspan></text></svg>