<svg xmlns="http://www.w3.org/2000/svg" xml:space="preserve" width="120mm" height="62mm" viewBox="0 0 120 62"><path d="m132.8 44.5 62 27.1" style="opacity:1;fill:#000;fill-opacity:.920746"/><path d="M40.4 56.8H38l-.9-.1V56l-.2-.6.1-.4.2-.5-.2-.9v-1.1l.2-.2-.1-.3v-.4h-.2l-.2-.2h-1.3l-.2-.1v-.5l.4-.5.4-.5V49l.1-.8V47l-.5-.4-.5-.5.2-.4.1-.4.3-.4.3-.3V41l-.4-.4-.5-.4.1-.4v-.4l.5-.3.4-.4v-2.1l.2-.3-.1-.2-.2-.3-.4-.3-.4-.4v-.5l.1-.1.2-.2h1.1l.5-.2v-.5l-.4-1-.4-1-.6-1.2-.6-1.1V29h-.2l-.6-1.2-.7-1v-.3l-.2-.2-.2-.1-.4-.8-.3-.7-.2-.3-.2-.4-.1-.4-.2-.5-.3-.4-.3-.3-.2-.8-.2-.7-.2-.6-.3-.7v-.6l-.1-.4-.2-.5v-3.5l.2-.3h.4v-.2l.2-.2-.3-.1-.2-.2v-.3l.1-.3.2-.5.1-.5.5-.8.4-.8.4-.6.4-.6.3-.3.2-.3.5-.5.4-.5.6-.4.5-.4h.3l.2-.2.2-.1.2-.2.2-.1.3-.1.7-.5.7-.4h.3l.4-.1.3-.2.8-.2.8-.2.6.1h.9l.3-.1.2.2v.3-.4h.4l.3-.1h.6l1.3.2 1.3.3.5.3.6.2.6.4.7.4h.1l.6.4.6.4.9.9.8.8.2.4.2.4-.2.2-.2.1-.2-.2-.2-.2-.3-.5-.3-.5h-.2l-.3.5-.2.4v.4l-.2.3-.1.3.1.1.2-.2.2-.1.1-.5.1-.5h.4l.2.3-.2 1.1v1.2l-.2.3-.1.3.2.3.2.3v1.1l.2.4.2.4-.3.6-.2.6.2.4.2.3v.2l-.2.6-.3.4-.2.1h-.2v-.1l-.1-.2.1-.7.1-.7v-1l-.2-1-.1-.7-.2-.8-.1-.2-.2-.2-.1-.2-.1-.3-.5-.8-.5-.8H48l-.5-.6-.5-.6-1.2-.5-1.2-.5-1-.2-1.1-.1-1.4.1-1.4.1-1.2.6-1.2.5-.8.7-.7.8L35 12l-.7 1.3v.8l-.2.5-.2.6v2.1l.1 1 .2.8.2.6.3.6.1.4.1.4.5.8.4.8v.3l.4.5.3.4.2.5.2.5.3.2.2.3.3.5.3.5.8 1.2.8 1.2v.8l.3.2.2.3.3.8.3.7.2.3.2.2h.2l.3-.3.3-.2v-.4h.3v.3l.1.2.1.1.2.2h.5l.2-.2.2-.2v-.3l.4-.8.3-.8.1-.2.1-.2 1-1.8 1-1.7.3-.5.4-.5v-.1l.9-1.5.9-1.5v-.3h.1l.1-.1.2.2.2.1h.1l.2-.1v-.3h.2l.6-.8.7-.8v-.3l.2-.4.2-.4.3-.3.3-.3v.3l-.3.7-.3.6h-.2v.4l-.5.6-.5.5-.3.4-.3.5-.1.2-.2.2-.2.3-.2.2-.2.3-.3.4-.1.1-.2.2.1.1.1.1.2-.2.1-.2.7-.6.7-.6v-.1l.4-.6.5-.5.4-.5.4-.5.1-.3.1-.2.3-.4.3-.4.2-.7.3-.7.2-.7.2-.8-.2-.3-.1-.3h-.2v.8l.1.4-.2.1-.3.1v.5h-.6l-.3.3-.4.4v.5h-.2l-.1.1v.4l-.3.2-.3.2v.3l-.3.4-.4.4-.1.3-.2.3h-.1l-.2-.1v-.5l.1-.3.2-.3.2-.6.1-.6.1-.1.2.1.2.2v-.1l.1-.2.3-.3.4-.3v-.3h.2l.3-.6.3-.5v-.3l.2-.1.2-.2v-.5l.2-.5v-.2l.2-.3v-.3l.1-.3v-1l-.1-1.1-.3-.2-.2-.2-.1-.6-.1-.6V10l.4.3.2.3.5 1 .5 1 .1.7.2.6v1.2l.2 1.2v.8l-.1.8v.5l-.1.5-.3 1-.3.9-.3.9-.3.8-.3.1-.2.2v.2l.1.3-.2.3-.2.2v.3l-1.1 2-1.1 2-.2.2-.2.2v.2l-.6 1.2-.6 1.2-.3.7-.4.7-.2.6-.2.6v.4h1.5l.4.1v.9l-.4.3-.4.2v3l.4.5.4.5v.5l-.4.4-.3.4-.1 1.3-.1 1.3v.5l.2.5.3.4.3.4v.4l.1.4-.3.2-.4.3V48l-.2 1.3.2.4.2.4.2.2.3.1v.8h-.2l-.2.1h-.6l-.7.2-.1.5v2l-.1 1.4-.2.1-.3.1H43l-.3.1-.3.2v.5l-.2.2-.2.2zm-.5-.5h.2v-.2l.2-.2h.1l.1.2v.2h.5V56l.2-.2.1-.2.2.3.1.3h.3V56l.1-.2-.2-.2-.3-.2V55l.2-.5.2-.6v-.7h-.5v.5l-.2.1v-.6l.1-.2.1-.5v-.6h-.1l-.2.2-.1.2v.5l-.1.1h-.2l-.2.5-.1.3H40v-.6l.3-.5.2-.4V52l-.1-.2H40v.2h-.2l-.2-.2-.1-.2-.3.2-.3.3-.3-.2h-.9v.6l-.1.5v.5l-.2.6.2.1.3.2-.2.7-.2.7v.4h.3l.2-.2.1-.1.2.1.1.2h.6l.1-.6.1-.5.2-.2.2-.2v-.4l.2-.3v-.1h.2v.5l-.1.4-.2.4v.5l-.2.4v.1l.1.1zm-1.5-.7h-.2v-.2l.2-.1.2-.2v.5zm2.4-.6v.1zv-.2.3zm-1.9-.4v-.9h.3v.8l-.1.1zm-.8-.4h-.2V54l.2-.4.2-.3V53l.2-.4v-.4h.5v.3h-.2l-.1.1v.8h-.2l-.2.1v.4zm1.4-.8h-.2V53l.2-.1v.5zm3 1.8h.1l.2-.3.3-.3.1.3.2.3.3-.2.3-.2.3.2.2.2h.2l.2-.1v-.4l.2-.5v-.5l.2-.6.1-.3.1-.3v-.6l-.1-.2-.2-.2-.2.3-.2.3-.2-.2-.3-.2-.1.1-.1.1-.2.4-.3.5v1.4l-.2.2-.1-.2-.2-.1.1-.6.2-.6v-.5l.1-.4H43v.1l-.1.2v1.3l-.1.3-.2.2v.6l-.1.5zm1.9-1h-.1v-.4.1l.1.2zm1.4.8.1-.2v-.7l.3-.2.2-.1v-2.2h-.3l-.1.1-.1.2-.2.8-.2.8v.7l-.2.7.2.2.1.1zm.8.2h.2v-.7l-.2-.3-.1-.2-.1.4-.1.5v.1l.1.2zm-4.1-4h1.8l.2-.1.8-.1h2.5l.2-.2h.1v-.1l-.2-.1h-4.5l-.4-.3-.4-.3v-.3l-.1-.4H42l.3-.4.3-.4-.1-.7v-.7l.1-.2.2-.3v-.5h-.6l-.1.1-.2.2v-.1l-.1-.1h-.4v.3l.1.4.1.4v.9l-.2.6v.2l.2.2v.5l-.1.5-.4.1-.4.2H37l-.5.2-.5.1h1.7l.3.2.3.1h1.2l1.2.1zm-.4-4-.2-.2v-.2h.4v.4zm-5 2.7h3.4l.2-.2h.2v-1.2l.1-1.2-.2-.2-.2-.2h-1.8l-1.8-.1h-.3l-.2.2v2.6l.2.2.3.2zm8.6 0h1.8l.1-.2.2-.1v-2.5l-.2-.2-.2-.1H44l-.2.1-.3.2v1.7l-.2.2v.1l.3.4.4.4zm-7.2-3.7h2.6v-.4l.4-.1.5-.2v-.2l.1-.2.7.5.7.6H48l.2-.1h.2v-.6H48l-.5-.1h-1.2l-1.2-.1-.5.1-.6.1-.5-.3-.5-.3-.1-.2-.1-.2v-4.1H42v-.2l-.3-.1-.3-.1v-.2l.3-.2.4-.3.1.3.2.2h.2l.3.1v.3h5.3l.1-.1v-.3l.1-.3h-5.1l-.2-.1-.3-.2-.1-.4-.1-.5v-2.1h-.8v.1l-.1.6-.1.5.3.2h.4v.5H42l-.2-.1-.1.2v.2l-.1.4-.1.3-.4.2-.5.2v.1l-.1.2-.2-.1-.3-.2h-2l-2.1.1v.2l-.1.2.1.1.1.2h5.1l.3.2v.3l.1.3.2.1.1.2V44h.1l.2.2v.3H42l-.5.4-.6.3h-4.3l-.2.1-.3.1v.2l-.2.2v.1l.1.2zm.2-1.5h1.8l.2-.2.2-.1V41h-.1l-.2-.2h-3.8l-.2.1-.1.1v1.7l-.1 1.6.2.2.2.2zm8.3 0 .4.1.2-.2.2-.3v-3.1l-.1-.2h-3.8l-.3.2-.3.3V44l.1.3.1.4h.3l.3.1h2.5zM38.7 39h1.9l.1-.2.2-.2v-2.4l-.2-.2-.2-.1H37l-.2.1-.2.2v2.6l.2.1.2.1zm7 0h1.6l.2-.1.2-.2v-1.2l.1-1.3-.1-.2-.1-.3h-1.8l-1.8.1-.3.2-.3.1v2.4l.3.3.4.2zM43 35.3l.5-.6.6.1h.6l.1-.1-.3-.2h-4.7l.2.2.1.2h1.1v.2l.1.2h.4l.4.2.2.1.1.2zm-1.3-.3v-.1zm.8 0h-.2l.1-.2h.3v.2zm-5 0h1v-.2h-1.6l-.4.1.2.1.2.1zm8.2-.1h.5-.2l-.3-.1H45zm2.4 0h.1v-.1H48zm-1.9-.8h.2l.1-.1.2-.2v-.7h-.1l-.1-.1-.4.3-.3.3.1.2.2.3zm-1-.3h.1v-.2l.1-.1-.2-.1H45l-.1.1v.2h.1zm-5.8-.4h.3l.1-.1.2-.2-.1-.4v-.4l-.3-.2-.3-.1v-.6l.2-.8.2-.9h-.2l-.2.1v.7l-.1.7h-.3l-.3.2v.7l.3.1.3.2v1zm3.7-.2h.2V33l.1-.1-.2-.2-.2-.2v.2l-.1.2v.1zm-1-.3h.2v-.2l.1-.2h-.2l-.1-.2H42l-.1.1v.5zm3.2 0 .1-.1v-.5l.5-.3.4-.3v-.4h.2l.2-.1v-.3h-.2l-.1.2-.1.2H46l-.3.3-.3.2v.3h-.2l-.2.1v.5l.1.1zm-1.1-.2h.1v-.1H44zm2.8-.2V32h-.3l-.1.1v.2l.2.2zm-2.1-.4h.2V32l-.1-.2h-.3v.3zm.4-.6v-.1l-.1-.1v.3zm-.6-.5h.2v-.3l.1-.2.3-.1h.2l.2-.4.1-.3.7-.7.7-.8V28l.4-.3.4-.3.2.3.1.2.2-.2.1-.3h-.4V27l.3-.3.3-.2.3-.4.3-.3v-.3l-.3.2-.3.3h-.2l-.2.3-.2.3-.7.6-.7.7-.2.2-.1.2-.5.6-.5.7-.3.4-.3.5-.2.1-.2.2v.3zm1.2-.2.3-.2v-.2h-.5v.6zm1-1 .3-.2V29l-.3.3-.3.3v.4zm.5.3h.2v-.3l.1-.3-.2.2-.3.1v.3zm-8.7-.7.1-.1v-.4l-.1-.4v-.3l-.1-.2h-.3v.4l.2.5v.3l.1.4zm-1-.2.1-.2v-.3l-.1-.4.2-.1.2-.1v-.5l-.2-.2-.1-.1h-.2v.9l-.2.2v.6l.2.3zm10.3 0h.3v-.4H48l-.1.2-.2.2zm-.5-.1h.1v-.3l.1-.3h-.4v.6zm-1.7-.8h.2l.7-.8.7-.8h.2v-.2l.5-.5.5-.5.4-.4.3-.3.5-.6.4-.6v-.2H50l-.3.1-.2.1-1 1-.9 1-.6.8-.6.7-.4.4-.3.4v.4zm-9.1-.5.2-.3.2-.3-.1-1-.1-1-.2.1-.2.2.1.7.1.7-.1.3-.2.2.1.2v.2zM36 27h.1v-1.4l-.1-1.4-.2-.3-.1-.4-.5-.4-.5-.4v-1.3h-.3l-.1.4-.1.4v1l-.2 1h.2l.2-.1.2-.1v-.3l.2-.4h.3v.4l.1.3-.1.1-.1.1v.5l-.1.5h.5v.1l.2.2v1.2l.2.3zm-2.3-1 .1-.3.1-.2v-.8h-.3l-.1.3-.1.2v.4l.2.4zm15.8-.7.3-.1.2-.1v-.5h-.2l-.2.2-.2.2v.3zm-16.3-.9v-.2l.1-.7.1-.8.2-.1.1-.1.2-1 .1-.8-.1-.5-.1-.5v-.3l.1-.2V19l-.1-.2-.2.2h-.2v3.4h-.2l-.1.1-.1.7v1l.2.3zm17.1-.3V24zm-18-.9v-.8l.3-.1.3-.2V20l.1-1 .1-1.2.2-.5.2-.6-.2-.5-.2-.4v-.3l-.1-.3.3-.5.2-.5.4-.4.3-.4v-.2h-.6l-.4.5-.3.4v.3l-.2.3-.2.2v.4l-.2.3-.2.4v1.2h.4v-1.4h.4v1.3l-.2.2-.2.2v3.9l-.1.9H32v.8l.2.2zm18.1 0h.2l.2-.4.2-.4h-.2l-.2.1-.3.2v.5zM32.1 20v-2l-.2-.5-.2-.6v-1.3h-.2l-.2-.2v-.3l-.1-.4H31l-.1.3v.3l.1.4.2.3v.4l-.1.4h-.4v.1h.2v1.1l-.2 1 .1.5v.6h.2l.1.1.2-.1V19l.1-.5.1-.4h.2v2.6l.1.6.2.6zm-.1-4.6h.1v-.9H32l-.1-.1V14h.2v.6h.3v-.4l.1-.4h-.3v-.6h.4v.6h.4v-.5l.3-.2.2-.2v-.4l.8-.6.9-.7V11h-.3l-.2.1-.2.1h-.3l.1-.2.1-.3h-.2l-.6.5-.6.5v.2l-.4.3-.4.3v.3l-.2.2-.3.3v.5h-.2l-.1.1v.8h.1l.2.1v.7l.1.1zm.9-2.5h-.2v-.3h.2l.1.1zm.4-.5H33v-.1l.1-.1.2-.4.3-.3h.2v.4l-.3.2-.2.3zM31 13.8h.2v-.3l.2-.4h.2l.3-.1v-.4l.2-.4.3-.4.6-.7.7-.7.4-.3.5-.4.2-.1.2-.2.5-.3.6-.3h.4l.7-.3.6-.3.6-.2.7-.3h.5l.3-.2.3-.1h.8l.8-.1V7l-1-.1h-1l-.4-.3-.3-.3h.8l.8.2h.7l.7.2.6.3.6.2h.4l.3.2.2.2h.5v-.1l-.4-.3-.4-.2-.4-.2-.4-.2h-.6l-.2-.3-.2-.2h-.5L41 6l-.5-.3-.9.1h-.8l-.9.2-.8.2h-.3l-.4.1v.2l.1.1h.8l.7.1-.1.1-.2.1H37l-.6.1-1.3.8-1.3.7-.4.4-.4.4v.3h.4v-.2l.2-.1.7-.5.7-.5.6-.3.6-.2.4-.2.3-.2h1l.1.2-.7.1-.8.1V8l-.5.2-.4.1-.3.2-.2.1-.5.3-.5.3-.3.3-.3.2-.5.5-.5.5-.3.5-.2.4-.3.4-.3.3v.4l-.4.2-.3.3v.5h.1v.1zm3.8-3.2.4-.4.4-.3.3-.2.4-.1v-.3h-.5l-.6.5-.6.4h-.1l-.2.2h.2zm14.3-1h.1v-.3l.2-.3.2-.1.3-.1v-.5l-.4-.4-.4-.4-.1-.3-.1-.3h-.2l-.1-.1v.8h.2l.1.2v.3h.3l.2.1v.6H49v-.3l-.2-.4h-.3v-.4l-.3-.2-.2-.2V7l-.4-.2-.3-.3-.4-.1h-.3l-.2-.3-.2-.2h-.4V6l.3.1.2.1v.4h-.3V7h.2l.2.1v-.2h.4l.3.3.4.2v.3l.1.3h.1l.2.1-.1.3-.1.3.2-.2.2-.2.2.2h.2V9l.2.1.2.2v.5zm-.6-.4h.1V9l-.1-.1h-.2v.3zm-1.6-.5h.2v-.3l-1-.8-.9-.8-.4-.3-.5-.3h-.5l-.3-.2-.2-.2h-.7V6l-.1.2h.6l.2.2.1.2.6.2.5.2 1.2.8zm0-1h.2v-.2l-.1-.2-.2-.1-.1.1v.2zM45 6h.1l.1-.1v-.1h-.3V6Zm-3.3-.3h.4l.1-.2.2-.2H42l-.5.2-.2.2zm2.2 0h.2v-.2l-.4-.2-.4-.2h-.6l.5.3.5.3zm21.7 50.9h-.6l-.1-.2.1-.3.2-.4-.1-.7v-.6l-.5-.5-.3-.5-.2-.6-.2-.7v-.7l-.2-.1-.3-.1h-.9l-.1-.3-.2-.3.4-.6.4-.6-.2-.1V48l.1-1.2-.3-.4-.3-.4v-.4l.3-.7.3-.6v-3.3l-.2-.2-.2-.3-.1-.4-.2-.4.4-.6.3-.7V36l-.3-.5-.3-.6v-.3l.1-.1.2-.2h1.3l.1-.2.2-.1-.3-.9-.3-.8-.4-.6-.3-.6-.3-.7-.3-.7-.7-1.2-.7-1.2-.3-.3-.2-.3v-.4l-.3-.4-.3-.4v-.2h-.2l-.4-1-.4-.9-.2-.4-.3-.4v-.3l-.2-.4-.3-.5v-.6l-.2-.3-.2-.3v-.7l-.2-.5-.2-.4V14l.3-.4.1-.4V13l.3-.5.4-.6.1-.6.2-.7h.2l.2-.1h.2v.6l-.2.7-.2.4-.3.3v2.7l.2.2.2.1v.4l.3.5.3.5v.1l.2.2.1.3.1.3.3.3.2.4h.2l.2.1V18l-.4-1-.5-.9.2-.1.2.2.2.3h.2v-.6l-.2-.4-.2-.5.3-.9.2-1 .2-.3.2-.3v-.6l-.2-.5v-1l-.1-.4-.1-.4-.1-.1h-.2l-.2.2v.6l.2.6.1.2.1.2v.3l-.2.4-.2.4-.1-.1-.2-.1v-2l-.3-.2-.3-.2v-.2l.6-.7.6-.7h.3v.2l-.1.2.2.3.2.3v1.3h.5v-.2l.1-.2v-.5l-.1-.3-.2-.3H61v-.3l-.2-.3-.2-.3.2-.3.2-.3.6-.4.6-.4.3-.2.4-.3h.3l.4-.3.5-.4 1-.3 1.2-.4h.4l.3-.2h4.4l.7.2 1.1.3 1 .4.7.4.6.4.7.4.7.5.5.3.5.3.7.9.6.8.4.6.4.6.4.8.4.7.2.6.2.6.1 1 .1.8v3.5l-.2.4-.1.3h-.2l-.2-.4-.2-.5v-1l-.1-.9.2-.3.2-.3v-.3l-.2-.3-.2-.2v1l-.3.3-.3.2v.5l.1.6v.3l-.2.3v-.2l-.2-.2v-1.3l-.2-.4-.3-.4v-.6H79l-.1-.2-.1-.4v-.4l-.6-.7-.5-.7-.2.2-.2.2v.3l-.2-.2-.1-.2v-.6h-.2l-.1-.2-.3-.6-.3-.6V11l-.6-.5-.5-.5-.3-.3-.2-.3-.3-.1-.3-.2-.7-.3-.7-.4-.9-.2-.8-.2h-1.3l-.3-.1h-.9l-.7.2h-.7l-.9.4-.9.4h-.3l-.8.8-.8.7-.4.5-.4.4v.1l-.2.5-.2.4-.3.4-.2.5v.5l-.2.5v.2l-.2.2v1l-.1.8v2.3l.2.1h.1l.4 1.1.3 1.1.2.4.2.4.1.2.1.1.6 1 .6 1.1.1.2.1.2.3.5.3.5.7 1 .6.9.3.3.2.3v.2l.3.2.3.1.3.2.2.2.4.3.5.3h1.3l.1.2-.2.2-.3.1-.5-.1-.5-.1-.2.1-.2.2v.4l.2.4.3.3.2.3v.2l.3.5.2.6h.4v-.2l.1-.3.2-.6.3-.6.2-.6.3-.5-.3-.2-.3-.2.8-.7.9-.6.5-.5.5-.5.1-.4.2-.3.3-.2.2-.2.3-.5.2-.4.7-1 .6-1h.2l.1-.1v.6l-.1.6v.5l-.3-.1h-.3l-.2.6-.1.7.1.3.2.4v.2h.5v-.5l.4-.3.3-.3v-1.8l.2-.2v-.2l.2.2h.2v.5l.1.5.2.2v.3l.1.3.1.3h.4v-.7H77l-.1-.6-.1-.5v-2.5h.1l.2.1v.8l.1.8.2.2.2.2v.7l-.1.8h.4v-.3l.1-.4v-.9l-.2-.2-.3-.2.1-1.6.2-1.6-.2-.5v-.5l-.3-.4-.2-.4.1-1 .1-1v-1.3l-.1-.7v-.7h.2l.4.5.4.6v.4l.1.2.2.1v.8l.2.2.2.1V23l.2.3.2.2v.3l-.1.3-.3.7-.3.6-.3.2-.3.3v.4l-.2.2-.2.2-.1.3-.1.2-.3.3-.2.3v.3l-.2.3-.2.3-.2.5-.3.4-.2.5-.3.5-.3.7-.3.6-.3.9-.4.8v.5l.3.1.2.1h.9l.3.1.2.2v.5l-.4.4-.4.4v2.9l.4.4.3.4v.5l-.3.4-.3.4v.4l-.1.4v3l.4.4.3.4v.9h-.5l-.1.5-.1.4v2.2l.1.3.1.3.3.3.3.2v.4l-.2.2-.2.2H75l-.4.1-.3.1v2.1l-.1.1H74l-.3-.3-.2-.4-.1-.6-.2-.6h-.4v.6l.1.7h-.3l-.1-.2V52l-.4-.1-.3-.2-.2.1h-.5l-.4.1v.4l.1.5h-.2l-.1-.1-.1-.2-.1-.2v-.2L70 52h-.3l-.1.5-.2.6v.3l-.2.4.3.6.2.7-.2.4-.3.3.1.2.1.2h.2l.1-.2V56h.3l.1.2v.2h.5l.2-.1.1-.1.3.1.3.1.1-.2.2-.2v-.1l-.1-.2-.1-.4v-.4.2l.2.1v.5l.4.2.4.3.1-.3.2-.2.2.3.3.3.2-.1v-.6l-.2-.2-.2-.3v-.5l-.2-.2-.1-.2v-.3l-.1-.3v-.3h.2l.2.2v.3l.1.2.5.3.4.2v1.9l-.2.2-.1.2h-8.2zm.6-.6.1-.2v-.3l-.1-.3h.4v.4l.2.3h1l.2.2.1-.1.2-.1h.2l.2.1.2-.1v-1l-.1-.9-.2-.8v-.5l.1-.4-.3-.3-.4-.3h-.3v.2l-.1.2.2.3.3.4v1l.2.6.2.5v.5h-.2l-.2-.3V55l-.2-.6-.2-.6v-1l-.2-.4-.3-.4-.1-.1-.2-.1-.2.2-.1.2-.3-.3-.2-.2-.2.1-.1.2v.3l.1.4.2.7.2.8v.7l-.1.1H66l-.2-.3V54l-.1-.2v-.1l-.2-.5-.2-.4v-.4l.1-.3-.2-.3-.2-.2-.2.1-.1.1.2 1.1.2 1.1v.5l.2.4v.7l.3.2.3.3zM67 54l-.1.4V54l-.2-.3v-.6h.1l.2-.1v.2l.1.3zm2.1-2.7.5-.2.4-.2.3.2h.2l2-.1 1.9-.2h.6l-.2-.2-.1-.2h-4l-.4-.1-.4-.2-.3-.4-.2-.5.1-.4.1-.3v-1.7l.2-.3.1-.2.5-.1.4-.1h4.6v-.6h-3.8l-.3.1h-.7l-.4-.1-.3-.3-.3-.2v-3.6l.2-.8.3-.1.2-.2v-.8l-.2-.2H70l-.3.2-.3.2-.2.2-.2.1h-.2l-.2-.1v-.6h.3l.3.1.3-.4.2-.5V36l-.1-.2-.2-.3-.3-.1-.3-.1v-.3h3.4l.4-.1v-.2l-.2-.1H72l-1.6-.1h-4.1v.4h.3l.2.2h.5l.5-.1.3.3.2.2h.4l.1.2v.7l-.2.5v1l.1 1-.1.2-.1.2-.5.1-.4.2h-4.5l-.1.1-.1.2v.2l.2.2h.6V40l.1-.2h.5l.1.3.2.3h.2l.2-.1h.2V40l-.2-.2h2.1l.8.3.7.3V42l.2 1.5-.2.8-.1.9-.2.1-.2.2h-2.9l-.5-.2-.4-.2-.2.1-.1.1h-.5l-.5.1v.7h5.2l.3.5.2.4v2.7l-.3.3-.2.3h-.4l-.4.1H64l-.7.1v.3h.2l.2.1 1.7.1H67l.7.1h.7l-.1-.2v-.3h.4l.2.1v.2l-.2.2h.2zm.2-1v.1l-.2-.3-.2-.4.1-.2.2-.1v.4zM69 46h-.4v-.5l.3-.2.3-.3.2.2v.8zm.2-4.2zv-.9l.1.1.1.2v.6zm.3-1.5h-.2v-.1l.1-.2h.3v.3zm-.3-2.6zv-1.2l.1.1h.2v1.1zm-3.5 12.2h1.6l.2-.1h.3l.1-.4.1-.3v-2h-.2l-.2-.3h-4.2l-.2.2v1.2l.1 1.1v.2H63l.2.2.2.1h.6zm7.2 0 1.9-.1.1-.2.2-.1V47l-.3-.2-.4-.1h-1.8l-1.8.1-.2.2-.2.2v2.3l.3.2.2.1zm-7.2-5.1h1.7l.3-.3.3-.3V41h-.2l-.2-.1h-1.9l-2-.1-.2.2-.2.2v3.2l.3.2.4.2zm7.1 0 1.7-.1h.3l.2-.1.1-.3v-3.1l-.2-.2-.2-.2h-3.3l-.4.1-.4.1v.2l-.2.2v2.7l.2.5h.3l.3.2zm.5-4.9h2.2v-.4h-3.2l-.4-.1H71l-.2.3v.1l.1.2zm-7.6-1H67l.4-.1.4-.2.1-1.1V36l-.2-.3h-4.5v3l.5.1h.4zm8.9 0 .3-.1v-.1h.1v-1.4l.1-1.4-.1-.1-.2-.2H71l-.3.2-.3.2v.3l-.1.3v1.8l.2.2.2.2H74zM70 35.1V35h-.3l.1.1zm-5.7-.2h.2l.1-.1.1-.1H64l.2.2zm9.7 0h.2v-.2l-.3-.1h-.2v.2l.2.1zm-8.4-.1h.1v-.1h-.1zm7.5 0h.2v-.2h-.6l.1.2zm-8.2-.8h.2l.3-.3.3-.4.1.2.2.2h.3v-.4H66l-.3-.1V33l-.3-.3-.3-.2h-.5V32l-.3.4-.3.4.2.2.2.2v.6l.2.1zm5.7-.5v-.2h-.2zm1.1 0v-.1zm-4.8-.2h.2l-.4-.5-.5-.4v-.3H66l-.2-.1v-.2l-.1-.3-.4-.3-.4-.3v-.2l-.5-.5-.5-.5h-.4l.2.2v.1l.7.6.5.5v.2l.6.6.5.7h.2l.2.3.2.4zm4.5-.7v-.3l-.1-.1h-.1v.4l.1.3zm1.3.3h.1v-.4l-.2-.6-.3-.5-.3-.5-.3-.5V30l-.2-.1-.1-.2v.5l.2.5.2.7.2.8.3.2.2.3v.3zm-6.2-1 .1-.2.1-.1-.1-.2-.2.1v.4zm-.5-.6V31h-.2v.4zm1 0h.1v-.1l.2-.2-.2-.1-.2-.1-.2.1v.4zm5.8-.5h.1v-.3l.1-.2-.1-.4-.1-.4-.1.1h-.2v.8l.1.2zm-6.3-.3v-.2l-.1-.3-.2-.3-.2-.1-.1-.1-.5-.6-.5-.5-.4-.6-.4-.6h-.2l-.2-.1-.3-.4-.3-.4.1-.1v-.1l.6.5.5.5.8 1 .9.8.4.6.4.6h.2l.2-.1v-.2l-.1-.2-.3-.5-.2-.4-.4-.3-.4-.3V28l-.5-.4-.4-.5-.4-.5-.4-.5-.7-.7-.6-.7-.7-.7-.7-.7-.6-.5-.5-.6h-.1v.2l.3.6.4.6.4.4.4.4.3.3.2.3.3.3.3.3v.2l.1.3-.3-.2h-.3v-.3l-.5-.4-.4-.4-.1-.3-.2-.2h-.2v.3l.2.1.2.2v.2l.5.5.5.5v.2l.6.7.6.7.1.2.2.2.3.2.3.1.3.5.3.5h.1l.2.1.2.4.2.4.4.2zm-1.8-.7h.1v-.3l-.5-.5-.5-.5-.1.2v.1l.4.4.5.3v.3zm-1.3-.5h-.1zm10 0h.1l.1-.3v-1.4l-.2-.2H73v.7l.2.1.2.1v.9zM63 29v-.2h-.2v.2l.2.1zm.4-.6h.1v-.2h-.2v.2zm10.8-.9h.2l-.1-.5-.1-.5-.1-.1-.2.1v1zm2.1-.5h.2v-.2h-.2l-.1.2zM63 24l-.1-.3-.2-.2-.2-.2-.3-.2-.1-.4-.2-.4h-.1l-.2-.1-.2-.4-.2-.3v-.1h.2v.1h.2l.1-.1-.2-.5-.2-.5H61l-.4-.6-.4-.6-.3-.3-.4-.3v-.3l-.1-.4h-.2l-.1.2-.1.2h-.3l.1-.5v-.6.2l-.3.2h-.4v-.8H58l-.1-.7v-.6h-.5V17l.4.5.3.5v.6l.4.7.5.8.2.2.3.3.1.2.2.3.1.3.2.2 1 1 .9.8.4.4zm-2.2-3-.4-.3-.3-.5V20l-.1-.1h-.2v-.5l.3.3.3.3.2.5.3.4zm-1.3-2zm1.2 5h.2V24h-.3zm17.9-.5h.2v-6.1l-.2-1-.2-.1-.2-.2v-.5H78l-.2-.1v.1l-.2.2v.4l.1.5.2.3.2.2v4.5l.1 1v.8zm-19.5-1h.1v-.2H59zl-.2.1zm-.6-5.7h.1v-.2h-.1zm21.4-.8h.1v-.8l.2-.2.2-.2v-.3l.2-.3.3-.3v-.3l.1-.3-.3-.4-.3-.4v-.1l-.3-.3-.2-.3-.6-1-.6-.8-.3-.1-.3-.1v-.2l-.2-.2h-.2l-.4-.4-.4-.3-.4-.2-.4-.1v-.1l-.2-.1-.5-.3-.5-.2h-.7l-.2-.2v-.2h1l.2.2.1.2h.4l.3.1.8.5.9.5v.3l.3.2.2.2h.4v-.4l-.2-.2-.2-.3-.6-.3L77 8l-.5-.3-.5-.4-.4-.2-.5-.3h-.7l-.8-.1h-1.2L71 6.5l-.1.2-.2.2h-.7l-.7.1h-.1v.2h.9L71 7h.5l.6-.1h.5l.6.1v.2h-.8l-.9.2v.2h.7l.5.2.5.1 1 .4.9.4-.3.2-.3.2.3.1.3.2.4.2.4.1.5.5.4.4-.2.2-.3.1.1.2v.2l.5.2.4.2.1.3.2.4h.3V12l-.3-.3-.4-.3V11h.4l-.5-.7-.5-.5v-.1h.1l.3.2.3.2h.3l.7.7.7.7v.4l-.2.1-.1-.2-.1-.2-.3-.3-.2-.3h-.5v.2l.5.6.5.7h.4l.4-.1.2.2.3.2v.5l-.1.1-.2.2v.1l.2.2v-.3l.1-.2h.3v.4l.1.4-.3.2-.4.3V14h-.2l-.3-.1v-.6l.2-.1.3-.1-.2-.3-.1-.2-.1.3-.2.3h-.4v.7l.3.1.2.2v.8l.2.1.2.2v.7h.1v.1zm-3.6-6.6H76l-.3-.2-.3-.1V9h.5l.3.2.2.3zm2.3 3.5V13l-.1-.1-.1-.2v.4l.1.2zM62 9.5l.2-.2V9l.2-.1.3-.1v-.3l.4-.6.5-.6.3-.2.3-.1v-.2l.4-.4.4-.3-.2-.1h-.2l-.2.2-.3.2h-.3l-.4.4-.3.2v.2l-.3.4-.3.4h-.3v-.3l.2-.3.3-.4h.2v-.3h-.3l-.2.2-.1.2-.5.6-.6.6.1.2.1.3h.1l.2.1v.7h.2zm-.2-.7h-.1v-.6h.2l.2-.1.1.1-.1.3-.2.3zm2 .2L64 9v-.1l.3-.1h.2l.7-.6.7-.5.7-.5.6-.4h.2l.3-.2.2-.3h.7v-.4h-.2l-.2-.1h-.5l-.5-.2v.2l.2.1v.3h-.2l-.3.1-.3.3-.2.2h-.3l-.9.7-.8.8-.3.2-.3.2-.2-.1-.2-.2-.1.1.2.3.2.3zm.3-1.2h.2v-.4h-.2l-.1.2v.2zm2.6 0h.1l.2-.2.1-.1.8-.3.8-.2.3-.2.3-.1h1.3l.3-.2.4-.2h1l.9-.1.5.2.5.3h.6l.1-.1v-.2l-.2-.1-1-.2-.8-.2-1.4-.1-1.4-.1-.5-.1h-.5l-.3-.3-.3-.2h-.3l-.4.2v.2h.7l.6.2.7.2v.2l-.5.1-.5.1-.2.2-.1.2H68l-.5.2-.5.3-.2.2-.2.1v.2zm-1.3-1.2h.2v-.2h-.3v.2zm.8-.5V6h-.2V6zm-2 50.4H64v-.7l.3.2.1.1v.4zm-.1-1v.3l-.2-.1v-.8.1l.2.2zm8.6-.3v.3l-.1-.1-.1-.2-.1-.3v-.3h.2l.1.2zm-1.3-1v.4l-.2-.3-.2-.3-.2-.4-.1-.4v-.3l.4.5.4.6zm.7 0L72 54v-.2l.2-.2v.6zm-2-.6-.1.4-.2-.3-.2-.3.1-.2.1-.2.1.1.2.2zm-28-22.8H42l-.1-.5-.2-.4v-.8l-.2-.2-.3-.8-.2-.9-.3-.7-.3-.8-.1-.2-.2-.1-.2-.6-.2-.6-.3-.4-.3-.4-.4-.5-.4-.6V22l-.2-.2-.2-.1V21l.2.2h.2v.4l.2.3.1.2.2.1.3.6.4.5.2.3.1.3.4.7.4.8v.2l.2.1.2.2.2.7.3.6.3 1 .3.8h.2l.2-.4.1-.5.2-.4.1-.5.2-.1.2-.2v.8l-.3.4-.2.4-.2 1-.2 1v.2zm27-2.8h-.4l-.4-.1-.4-.1-.6-.6-.7-.6-.5-.9-.5-.8-.4-.7-.5-.7V23l-.2-.1-.2-.2v-.3l-.2-.5-.3-.4v-.4l-.2-.4-.3-.5v-.8h-.1l-.1-.2-.2-.5-.2-.5V18l.2-.2-.2-.6-.2-.6.2-1 .1-1 .3-.5.2-.5.4-.5.3-.6.8-.7.8-.8 1-.4 1-.4h1l1-.1.5.1.6.2.5.2.4.2h.4l1 .9 1 .8.3.6.3.7.3.5.2.6v3.8l-.2.4-.3.5v.6l-.2.3-.2.2v.4l-.2.4-.3.4v.4l-.9 1.5-.9 1.6-.2.4-.3.4-.2.1-.1.1v.2l-.4.4-.3.4-.5.3-.5.3zm-.3-.6h.2l.4-.1.3-.2.6-.6.5-.5.1-.3.2-.2.2-.4.3-.3.2-.4.1-.3h.2l.1-.2v-.4l.2-.4.3-.4.3-.6.2-.5.2-.3.2-.3v-.5l.2-.5.3-.4V19l.1-.6.2-.4v-2.6l-.2-.8-.3-.8-.2-.4-.2-.3-.5-.6-.5-.5-.7-.5-.8-.4-.5-.1H70l-.3-.2-.3-.2-.6.1h-.5l-.7.2-.7.2-.7.4-.8.5-.6.7-.6.7v.3l-.2.3-.1.1-.2.2v.6l-.3.6-.2.7v.6l.2.7.3.8v.9l.2.5.3.4v.6h.1l.1.2.5 1.1.5 1.1.6 1 .5.8.4.6.3.6.4.4.3.4.5.2zm-25.6-.7V26l.3-.3.2-.2v.2l.1.2-.2.5zm32-.6h-.2V26l.1-.2.1-.2h.2v.5zm-31.1-1-.2.3v-.5l.2-.1zm.4-1v-.2l.5-1 .5-.8.2-.4.3-.4h.2v.3l-.5 1-.5.9-.3.3-.3.4zm31.4-.8h-.2l-.2-.1v-.4l.2-.7.3-.6.2-.2.1-.2.3-.8.2-.9h.4V21l-.2.3h-.3l-.2.1v.7l-.2.6-.2.7zm3.8-.3h-.1l-.1-.1-.1-.4-.1-.4.1-.6.2-.6h.3l.3-.2v-.5l.2-.2.2-.2.1.2.1.1v.3l-.1.4-.1.2-.2.2-.3.9-.3.8zm-33.3-2-.2.1v-.3l.2-.4.2-.2v.6zm-8.8-.2h-.1l-.3-.7-.2-.7V19l-.2-.3-.3-.2v-1.5l.2.2.1.7.2.6.1.3.2.3.2.8.3.9-.1.1zm9.4-1.1h-.2v-.6l.2-.1h.1V18l.2-.3.2-.4v-2.2l-.4-.7-.4-.8v-.3l-.3-.4-.4-.5-.7-.6-.7-.6-.5-.2-.5-.1-1-.1-1-.1-.7.2-.7.1h-.1l.5-.3.4-.1h1l.8-.2.3.2h.4l.4.1.5.1.8.7.9.6.3.4.4.4.2.6.3.5.1.3.2.4.1.3.2.4v1l-.1 1-.2.5-.2.7-.1.1-.2.2v.6zm32.8 0h-.1l-.2-.2-.1-.3V19l.2-.2.2.2v.3l.1.3zm-43.3-3-.2-.2-.1-.3.1-.2.1-.2.1.4.1.4zm15-.8-.2.4V16l.1-.2.1-.6.1-.5.2-.2.2-.2v-.5l.1-.6h.1l.2.1v.6l-.1.6-.2.2-.2.2v.3l-.1.4zm7.9 0h-.1v-.2l-.1-.3v-.1h.2v.5zM36.8 15h-.1l-.2-.2.1-.2.1-.3.2-.2h.2v-.6l.1-.2.2-.2v-.3l.3-.3.4-.3.3-.4.4-.4.5-.2.4-.2h.1v.1l-.7.7-.7.6h-.2l-.3.5-.4.5-.1.3-.1.3h-.2l-.1.5v.4zm23-.6-.1-.2v-1.6l.2-.2h.2v1.8l-.1.2zm-.8-.2h-.1l-.1-.4-.1-.4.1-.3v-.3l.2.2v.2l.1.5v.5zm-7.6-.3V14l-.1-.1-.1-.6v-.6l-.1-1v-1l.2-.1h.2V14z" style="fill:#000"/></svg>