<svg xmlns="http://www.w3.org/2000/svg" xml:space="preserve" width="120mm" height="30mm" viewBox="0 0 120 30"><path d="m132.84 44.51 61.9 27.13" style="opacity:1;fill:#000;fill-opacity:.920746"/><path d="M5.41 26.45c.04-.1.45-.28.9-.42l6.8-1.94c.47-.14 1.1-.3 1.4-.36.77-.14 2.51-.66 2.69-.8.08-.07.32-.12.54-.12.21 0 .57-.09.79-.2.21-.1.7-.22 1.08-.27s.9-.18 1.16-.3.57-.22.71-.22.3-.06.35-.13.37-.18.7-.23c.35-.05.66-.15.71-.22.13-.2-.52-.16-1.07.07-.26.1-.7.23-.95.28-1.23.2-2.25.46-2.42.62a1 1 0 0 1-.57.17c-.21 0-.6.06-.86.14-.55.16-2.17.57-5.11 1.29a174 174 0 0 0-5.1 1.33c-.43.11-1.07.25-1.43.3-.63.09-.69.06-1.4-.58A10 10 0 0 0 3 23.84c-.59-.34-.6-.36-.3-.62.15-.15.6-.33.98-.4s2.08-.45 3.78-.84c1.7-.4 4-.91 5.1-1.15 4.9-1.07 8.97-2.07 8.93-2.2-.09-.26-1.14-.14-4.36.49-.81.16-2 .35-2.63.43-1.7.22-2.73.38-3.94.6-.6.12-1.54.29-2.1.38-.54.1-1.21.23-1.47.3-.7.2-1.34.17-1.27-.04.07-.18 1.86-.88 2.64-1.02.74-.14.3-.36-.71-.35-.53 0-1.85.08-2.94.18-1.94.16-2.6.1-2.12-.19.13-.08.65-.14 1.15-.14s1.3-.06 1.78-.14c.47-.08 1.7-.2 2.72-.3 3.13-.26 3.68-.34 3.73-.49.03-.07-.52-.32-1.22-.55-.7-.22-1.48-.5-1.74-.62-.25-.12-1.22-.45-2.16-.75-1.92-.61-2.46-.92-2.53-1.44-.06-.47.54-.86 1.92-1.25 1.43-.4 6.27-.47 7.25-.1.34.13 1.18.34 1.86.47s1.65.35 2.16.5c1.35.37 3 .73 3.72.8.61.07.62.06 2.05-1.4.8-.8 1.48-1.63 1.52-1.83q.07-.38.66-.61c.32-.13.78-.47 1.03-.76a65 65 0 0 1 3.9-4.09c.3-.24.77-.48 1.03-.52 2.14-.35 2.83-.49 3.13-.63.18-.1.6-.17.91-.17s.95-.1 1.4-.24c.78-.22.84-.22 1.13.02.44.37.4.52-.35 1.25-.57.55-2.27 3.39-2.27 3.8 0 .12-1.13 2.38-1.4 2.82-.3.47-.61 1.18-.61 1.4 0 .32.44.68.85.7l1.42.01c1.2 0 1.9.11 1.9.3 0 .16-1.39.16-2.7 0-.84-.1-.99-.07-1.5.25-.54.32-.59.4-.59 1 0 .7.33 1.3.7 1.3.21 0 .9.23 1.86.66.27.1.72.25 1.01.32a66 66 0 0 1 4.48 1.4 4 4 0 0 0 .74.23c.28.05.7.19.92.3s.52.2.64.2c.31 0 1.4.5 1.92.88l.43.33-.25.59c-.22.5-.44.68-1.46 1.21a8 8 0 0 1-4.23.88c-.67-.1-4.83-1.24-5.52-1.51-.21-.09-.63-.2-.93-.27-.3-.06-1.06-.27-1.7-.47a9 9 0 0 0-1.4-.37.7.7 0 0 1-.46-.21.8.8 0 0 0-.5-.21c-.42 0-1.91-.4-2.54-.67-.45-.2-.57-.19-1.62.1l-2.76.78q-2 .64-2.45.64c-.17 0-.55.09-.83.2-1.22.47-2.73.92-4.83 1.42-.43.1-.98.26-1.24.34-1.31.42-4.47 1.3-4.7 1.3-.13 0-.61.12-1.06.28-.93.32-1.64.37-1.55.1m36.64-1.95c.32-.08.77-.3 1-.47.24-.18.56-.37.72-.42.46-.15.23-.55-.44-.74-.34-.1-1-.32-1.47-.49s-1.02-.34-1.23-.38a2 2 0 0 1-.55-.19 3 3 0 0 0-.77-.21 3 3 0 0 1-.77-.2 10 10 0 0 0-1.32-.42c-.63-.17-1.38-.4-1.66-.52a3 3 0 0 0-.75-.2c-.13 0-.39-.08-.57-.17a28 28 0 0 0-5.25-1.53c-.24 0-.97.18-1.63.41l-1.93.66c-.4.13-.77.29-.8.34-.13.18.16.39.77.54.34.08.93.25 1.31.37l2.94.87 2.72.78c.26.07.56.14.67.14s.41.09.68.2c.69.29 4.7 1.49 5.44 1.63.9.17 2.23.17 2.9 0m2.53-2c.17-.25-.66-.78-1.37-.89-.34-.05-.8-.17-1.02-.27l-.92-.42a3 3 0 0 0-.88-.24c-.2 0-1.18-.28-2.17-.63s-1.92-.64-2.06-.64-.4-.09-.56-.2c-.17-.1-.48-.22-.7-.26a12 12 0 0 1-1.23-.39c-1.15-.42-2-.56-2.44-.41-.4.14-.33.4.1.4.23 0 2.9.86 4.35 1.4.21.08 1.22.37 2.24.66s1.98.58 2.12.65.36.13.47.13.4.1.65.22c.26.12.93.34 1.5.49s1.17.33 1.32.4c.36.2.47.2.6 0M24.4 20.82c0-.17-.31-.17-.62 0q-.28.15.2.14c.23 0 .42-.06.42-.14m-10.31-1.65c.1-.06.57-.15 1.04-.2.46-.05 1.3-.19 1.85-.31.87-.2 1.84-.33 4.3-.6.42-.04.54 0 .6.22.11.37.2.36 2.82-.23 2.57-.58 2.83-.74 3.58-2.1.25-.48.59-1.05.75-1.28.52-.75.94-1.5.94-1.68 0-.1.2-.4.43-.66.47-.53 1.42-1.93 1.42-2.08 0-.05.18-.3.39-.55.46-.56.46-.57.1-1.2-.25-.45-.28-.74-.15-1.48.04-.24-.05-.3-.52-.33-.49-.04-.64.03-1.08.48l-.68.68c-1.63 1.6-3.62 3.82-3.62 4.05 0 .1.15.4.33.67q.62.92-.56.53c-.34-.11-.74-.17-.88-.13s-.64.5-1.11 1.03c-1.63 1.82-1.78 1.9-4.58 2.8-1.4.43-2.73.83-2.94.88a3 3 0 0 0-.7.25c-.17.1-.55.22-.85.28-.3.05-.62.15-.7.22-.1.07-.58.24-1.08.38-1.22.34-1.3.6-.16.53.48-.03.95-.1 1.06-.17m.57-1.38c.39-.13.92-.33 1.19-.44s.55-.2.64-.2a5 5 0 0 0 .88-.3c.6-.23.7-.31.55-.48-.1-.1-.4-.24-.68-.3a2 2 0 0 1-.64-.2c-.09-.06-.4-.16-.7-.22a3 3 0 0 1-.85-.3c-.16-.1-.55-.2-.85-.2s-.72-.09-.93-.2a2 2 0 0 0-.68-.2c-.17-.01-.4-.1-.54-.2-.39-.3-2.33-.7-3.26-.67-1.52.05-3.28.4-3.62.7l-.32.3.32.29c.18.16 1.08.53 2 .83 2.15.69 3.73 1.23 4.32 1.49 1.57.67 1.94.7 3.17.3m15.93-1.07c.72-.18 1.4-.4 1.5-.5.29-.23.09-.6-.45-.86-.36-.17-.42-.26-.28-.41.1-.1.38-.24.63-.29.33-.06.55-.25.77-.65.48-.86.38-1.03-.7-1.13-.83-.07-1-.04-1.45.27-.28.19-.55.45-.6.57-.17.5-1.18 2.23-1.45 2.51-.16.16-.3.44-.3.62 0 .39.24.37 2.33-.13m-10.52-.7q.23-.14.08-.27a11 11 0 0 0-2.63-.73 9 9 0 0 1-1.39-.36c-1.14-.46-3.79-.8-3.79-.5 0 .09.2.15.45.15s.65.1.89.21c.24.12.6.21.78.22.19 0 .38.06.43.14.06.08.24.14.42.14s.53.09.8.2c1.08.43 2.7.86 3.5.91.13.01.34-.04.46-.12m13.53-3.8c.17-.08.68-.84 1.14-1.68l1.07-1.96C36.9 6.6 37.27 6 37.5 5.84c.56-.38-.56-.52-1.36-.17-.13.06-.5.15-.85.2-1.06.16-1.94.43-2.16.65a5 5 0 0 0-.52.73l-.31.52.38.32c.42.37.48.86.14 1.12-.13.1-.23.27-.23.38s-.25.53-.56.94c-1.12 1.49-1.05 1.87.35 1.86.5 0 1.04-.08 1.21-.16m32.03 14.22c-.13-.32.25-.54.68-.4.25.09.76.02 1.68-.22.73-.2 1.64-.4 2.02-.48s.82-.2.97-.28c.15-.07.95-.29 1.78-.47l2.74-.65c1.4-.35 2-.49 3.05-.7.4-.08.86-.2 1-.27.16-.07.9-.27 1.67-.44s1.91-.46 2.55-.65c.64-.2 1.47-.4 1.85-.48s1.08-.23 1.55-.36 1.55-.38 2.4-.57a35 35 0 0 0 2.43-.62c.5-.16 1.33-.36 1.86-.46.9-.16 1.19-.3 1.2-.6 0-.19-1.52.07-3.25.54-.47.13-1.3.33-1.86.44-.55.1-1.73.4-2.63.64s-2.1.52-2.7.63-1.36.3-1.7.41c-.34.12-.72.21-.85.22-.13 0-1.35.28-2.7.63-1.37.34-3.28.8-4.26 1s-2.02.46-2.32.57a36 36 0 0 1-2.7.65 41 41 0 0 0-4.31 1.12c-.16 0-.11-3.8.05-3.9.09-.04.29-.01.46.07.28.14 2.93-.32 6.89-1.2l2.7-.56c.98-.2 2.27-.5 2.86-.64.6-.15 1.4-.3 1.78-.36s.94-.14 1.24-.21l1.78-.4c.68-.16 1.76-.39 2.4-.51.63-.13 1.5-.32 1.93-.43 1.3-.34 3.45-.78 3.76-.78.16 0 .46-.13.66-.3.32-.25.33-.28.06-.2-.17.06-.76.15-1.31.21a9 9 0 0 0-1.44.27c-.24.09-.67.16-.95.16-.29 0-.72.1-.96.21-.24.12-.69.21-.99.21s-.95.1-1.44.22-1.13.21-1.43.21-.7.08-.88.17-.72.21-1.2.26c-.46.05-1.76.3-2.89.54-1.93.41-2.51.45-2.51.14 0-.16.68-.43 2.33-.93.67-.2 1.22-.42 1.22-.49 0-.16-3.4-.14-4.63.03-.56.07-2.5.2-4.33.28-1.83.07-3.67.22-4.1.32l-.77.18-.08 1.48c-.06 1.2-.1 1.38-.2.92-.05-.3-.1-1.06-.1-1.66-.01-1.31-.06-1.28 2.16-1.5 1.28-.14 2.58-.2 7.1-.38 4.8-.18 7.68-.4 7.93-.6.15-.13.22-.28.15-.34a20 20 0 0 0-2.9-1.11c-.09 0-.44-.13-.77-.29-.34-.16-1.05-.4-1.57-.56a11 11 0 0 1-1.24-.41c-.15-.08-.61-.27-1.02-.43-.4-.15-.78-.39-.83-.52-.15-.35.67-.94 1.6-1.17.41-.1 1.04-.31 1.4-.48.56-.25.75-.28 1.16-.15.3.1 1.22.14 2.2.1 1.94-.05 3.54.19 6.88 1.02 1.49.37 3.3.77 4.33.96.73.13 1 .23.96.38-.08.33-.27.43-.94.52-.52.06-.64.03-.64-.15 0-.3-.32-.43-1.47-.65-.5-.1-1.58-.36-2.4-.58-.8-.22-2.02-.5-2.7-.64-.68-.13-1.5-.34-1.8-.45-.56-.21-1.06-.18-1.06.07 0 .17 1.15.74 1.5.74a1 1 0 0 1 .46.15c.1.09.66.27 1.25.42a11 11 0 0 1 1.94.62c.34.1.2.37-.17.36-.14 0-.4-.1-.56-.21a1 1 0 0 0-.56-.2.7.7 0 0 1-.44-.2c-.1-.11-.52-.24-.95-.3a13 13 0 0 1-1.97-.48c-2.32-.77-2.71-.86-2.92-.7-.15.11-.14.2.05.48.22.3.22.35 0 .42-.13.05-.43 0-.67-.12-1.28-.62-1.73-.72-2.4-.53-1.16.31-1.36.42-1.36.7q.02.27.35.37c.19.05.49.14.66.21s.78.26 1.35.44 1.09.36 1.13.43c.05.07.24.12.43.12.18 0 .58.12.88.26s.79.3 1.1.36c.3.05.73.21.93.36s.57.3.82.34c.26.04.76.16 1.1.25.6.17.73.15 1.79-.26a28 28 0 0 1 2.06-.7c.53-.15.91-.34.89-.44l-.08-.35q-.01-.16.27-.12a14 14 0 0 0 1.36.05c.57 0 1.04.03 1.04.05 0 .12-1.3.64-2.04.83-.85.21-2.17.65-3 1-.28.12-.64.21-.82.21s-.45.06-.6.13c-.28.13-1.3.5-1.77.63-.4.12-.34.37.07.37.2 0 1.01-.1 1.82-.23.8-.13 1.71-.25 2.01-.26s.72-.1.93-.18c.72-.29 4.56-.94 4.79-.81.08.04.1.18.05.3-.12.27.02.26 3.04-.34 2.14-.42 2.62-.65 3.1-1.5.33-.63.86-1.49 1.75-2.85.3-.47.87-1.44 1.27-2.16s.76-1.31.82-1.31.19-.18.29-.39.27-.5.37-.62c.15-.2.12-.31-.23-.69-.42-.46-.53-.9-.26-1.06.2-.11.2-.78.01-.78-.62 0-1.31.56-4.03 3.27C97 9.74 97.01 9.72 96.93 9.5c-.04-.1.28-.51.7-.91.43-.4.84-.84.91-.97s.64-.72 1.26-1.32 1.28-1.27 1.47-1.51q.68-.85 2.28-1.03c.47-.06 1.16-.2 1.54-.3 1.17-.32 2.98-.63 3.67-.63.51 0 .7.07.83.3.16.28.12.36-.3.68a7 7 0 0 0-1.57 2.01c0 .07-.06.24-.14.38-.09.13-.86 1.55-1.72 3.14-.87 1.6-1.77 3.26-2.02 3.68-.52.9-.6 1.83-.18 2.16.27.21.78.38 2.98 1.03a62 62 0 0 1 4.22 1.37c.15.08.41.1.58.05.25-.07.3-.22.3-.78 0-.55.07-.74.33-.9.73-.47 1.2.35.68 1.18-.12.2-.23.47-.23.6 0 .26 1.02.82 1.5.82.16 0 .43.1.6.2.16.12.4.22.52.22.13 0 .49.07.8.15.49.12.6.23.81.8.23.61.23.69-.02 1.07-.29.44-.83.74-2.2 1.24-.47.16-1.18.46-1.57.65-.87.42-1.13.42-2.05.05-.39-.16-1.28-.4-1.99-.55-1.88-.4-2.81-.63-4.44-1.13-.81-.25-1.86-.54-2.32-.64-.47-.11-1.24-.3-1.7-.43-.47-.13-1.03-.26-1.24-.3-.21-.05-.6-.16-.85-.26-1.09-.43-1.49-.5-2.37-.34-.48.08-1.06.23-1.29.34s-.53.2-.67.2c-.33 0-2.38.54-2.74.72-.15.07-.41.13-.58.13s-.92.17-1.66.37c-.75.2-1.6.42-1.9.48q-1.86.38-2.6.66c-.27.1-.64.2-.81.2s-.5.08-.73.19-.7.23-1.04.27-1.1.22-1.7.38c-1.86.51-2.75.74-3.63.92-1.07.23-4.63 1.1-6.26 1.54-3.45.92-4.62 1.1-4.77.75m47.77-4.1c.24-.13.62-.3.85-.39.44-.16.63-.44.51-.74-.14-.32-1.38-.9-2.78-1.3-.76-.21-1.74-.5-2.16-.65-1.07-.37-4.39-1.36-5.88-1.75a21 21 0 0 1-1.94-.62c-1.43-.57-2-.55-4.55.23-2.55.77-2.9 1.03-1.75 1.3.37.08.9.24 1.18.36s.65.2.83.2 1.13.25 2.12.56c.99.3 2.04.6 2.34.65s1.27.32 2.16.59 2 .57 2.47.68c.86.2 1.56.39 3.4.91 1.15.33 2.5.32 3.2-.04m2.82-1.46q.63-.73-.03-1.11c-.34-.2-1.87-.7-3.74-1.2-.51-.15-1.28-.39-1.7-.55-.43-.16-2.13-.68-3.8-1.16a69 69 0 0 1-3.29-1.02c-.48-.22-1.48-.17-1.8.1-.43.35-.4.45.2.54.64.1 2.85.76 3.38 1.03.22.1.56.2.74.2s.52.09.75.2c.23.1.88.3 1.45.42a10 10 0 0 1 1.47.45c.24.1.54.2.66.2.13 0 1.03.26 2 .57 1.45.46 1.9.67 2.4 1.13.35.31.7.57.8.57s.34-.17.51-.37m-33.86-3.3q.22-.12.03-.22c-.24-.13-.68.03-.55.2.11.18.24.18.52.02m18.8-2.95c1.33-.24 2.09-.63 2.09-1.08 0-.16.9-1.95 2-3.98l2.47-4.62a5 5 0 0 1 .7-1.12c.14-.1.24-.27.24-.38 0-.17-.13-.19-.66-.1-.36.05-.76.14-.89.2-.12.06-.54.15-.92.2-1.22.18-1.68.37-2.16.93-.56.64-.58.88-.15 1.43l.32.42-.33.62c-.18.34-.43.7-.55.8a.6.6 0 0 0-.23.41c0 .14-.1.33-.23.43s-.23.28-.23.41-.08.31-.17.4c-.2.17-.5.65-.75 1.13-.08.18-.4.65-.7 1.05s-.6.9-.65 1.1-.22.48-.38.62-.29.33-.29.42-.11.27-.25.41c-.32.32-.16.76.22.62.14-.06.82-.2 1.5-.32M48.1 19.44c-.83-.5-1.12-2.77-.5-3.9.35-.63.58-.83.8-.71.16.1 0 .78-.29 1.3-.3.53-.26 1.54.1 2.27.44.9.4 1.34-.1 1.04m6.22 0c-.17-.16-.09-.7.14-.88.32-.24.32-2.33 0-2.83-.29-.46-.3-1 0-1 .25 0 1 1.37 1.12 2.08q.1.46-.34 1.53-.57 1.44-.92 1.1M49.6 18c-.09-.16-.15-.76-.12-1.32.04-.99.06-1.02.43-1.02s.39.03.4.92l.02.92 1.3.07c1.17.06 1.3.1 1.3.35 0 .26-.12.29-1.58.33-1.46.03-1.59.01-1.75-.25m-10.51-2.17c-.37-.16-.37-.16.23-.21.93-.08 2.65.1 2.38.26-.3.18-2.15.14-2.61-.05m54.42-2.96c0-.13.6-.81 1.35-1.51l1.58-1.52q.2-.23.28-.1c.03.09-.23.43-.58.77l-1.63 1.6c-.61.61-1 .9-1 .76m19.79-.12q-.01-.38.18-.17c.15.14.15.21 0 .34q-.2.22-.18-.17m.47-1.5q.02-.25.1-.08c.04.1.04.22-.02.27s-.08-.04-.08-.19m-3.58-1.8a4.5 4.5 0 0 1-.64-1.94c.01-.74.36-1.77.68-2.02.55-.41.66-.09.3.85-.4 1.04-.4 1.2 0 2.17.17.42.33.87.35.98.04.33-.42.31-.69-.03m6.2.18c0-.08.17-.46.39-.84.2-.39.38-.94.38-1.24 0-.5-.42-1.74-.66-1.96-.18-.17-.12-.48.1-.48.38 0 1.01 1.01 1.25 2.02.12.5-.33 1.9-.74 2.33-.32.33-.72.43-.72.17M75.03 9.3c-.25-.2-.4-.4-.35-.45.07-.06.26.04.43.2.17.18.38.31.46.31q.13.02.15.15c0 .22-.2.16-.69-.21M112 8.4c-.15-.14-.12-1.08.05-1.32.1-.15.45-.22 1.2-.24 1.37-.03 1.3-.02 1.24-.22q-.08-.17-1.3-.25c-.94-.05-1.22-.12-1.22-.28s.28-.22 1.4-.26c1.93-.05 2.08 0 2.08.68 0 .3-.08.6-.19.66s-.65.1-1.2.07c-.76-.02-1.09.03-1.23.18-.34.38-.02.5 1.22.5.9 0 1.24.06 1.3.2q.06.2-.01.3c-.13.1-3.21.1-3.34-.02M12.85 7.7c-.5-.3-.83-1.19-.83-2.23 0-1.3.55-2.62 1.08-2.62.4 0 .42.37.05.75-.4.4-.4 2.98 0 3.53.37.5.18.85-.3.57m5.74-.35c.65-1.88.67-2.2.22-3.38q-.33-.86-.17-1c.22-.2.8.36.8.78 0 .19.11.42.24.52.16.12.23.45.23 1.13s-.07 1-.23 1.13a.7.7 0 0 0-.23.49c0 .38-.28.65-.67.65-.24 0-.28-.07-.19-.32m54.04-.31c0-.2.06-.38.13-.42a4.16 4.16 0 0 0-.03-3.65c-.13-.19-.12-.3.02-.42.32-.3.91.36 1.03 1.13.21 1.41.13 2.05-.4 3.1-.35.67-.75.8-.75.26m-6.12.1c-.1-.06-.32-.4-.5-.76a3.9 3.9 0 0 1-.08-2.99l.36-.68c.06-.12.24-.21.4-.21.34 0 .34.18 0 .99-.3.72-.3 1.96 0 2.69.4.96.42 1.06.2 1.06a1 1 0 0 1-.38-.1M16.94 5.28l-.05-.96-1.39-.07c-1.1-.06-1.39-.12-1.39-.29s.3-.2 1.7-.2h1.7v1.2c0 1.01-.04 1.2-.26 1.24s-.27-.1-.31-.92m51.21.53c-.29-.17-.41-1.9-.18-2.45l.17-.4 1.59.04c1.47.04 1.58.06 1.58.33 0 .25-.13.29-1.31.35l-1.31.07V5.3h1.39c1.28.02 1.39.04 1.39.3s-.12.29-1.55.32a7 7 0 0 1-1.77-.1" style="fill:#000"/><path d="M72.47 7.45c1.61 1.26 3.33 2.16 4.99 3.3.25.17.57.2.78.54" style="fill:none;stroke:#000;stroke-width:.179688px;stroke-linecap:butt;stroke-linejoin:miter;stroke-opacity:1"/><path d="M114.13 9.3c-.44 2.39-.9 4.09-1.35 6.23-.07.33-.15.4-.2 1.03" style="fill:none;stroke:#000;stroke-width:.128293px;stroke-linecap:butt;stroke-linejoin:miter;stroke-opacity:1"/><path d="M19.6 8.26c1.62 1.27 3.34 2.16 4.99 3.3.25.17.57.21.78.54" style="fill:none;stroke:#000;stroke-width:.179688px;stroke-linecap:butt;stroke-linejoin:miter;stroke-opacity:1"/><path d="M34.4 15.08c3.15.41 6.51.7 9.74 1.08.5.05 1.1.07 1.53.17" style="fill:none;stroke:#000;stroke-width:.143695px;stroke-linecap:butt;stroke-linejoin:miter;stroke-opacity:1"/></svg>