<svg xmlns="http://www.w3.org/2000/svg" xml:space="preserve" width="120mm" height="60mm" viewBox="0 0 120 60"><path d="m132.84 44.51 61.9 27.13" style="opacity:1;fill:#000;fill-opacity:.920746"/><path d="M84.1 3.69c-.2 0-.48.17-.72.5a3 3 0 0 1-.51.6c-.08.04-.15.48-.14.96 0 .56-.1 1.08-.26 1.4-.14.3-.34.8-.45 1.12-.18.57-.27.78-.95 2.36-.17.4-.55 1.37-.85 2.16-.29.8-.64 1.68-.78 1.97-.3.62-.51 1.14-.93 2.3-.17.46-.47 1.2-.67 1.64s-.48 1.15-.63 1.57a38 38 0 0 1-.67 1.7c-.22.5-.6 1.45-.86 2.1l-.46 1.2-1.08.08c-1.08.08-1.94.01-2.07-.17-.14-.2.33-.56.72-.56.74 0 .61-.42-.2-.62-.44-.11-.53-.09-.91.28-.24.22-.43.54-.43.7 0 .17-.11.34-.25.39s-4.8.07-10.35.06l-10.1-.03.53-.42c.72-.58.74-1.24.05-1.86-.75-.69-1.57-.55-2.26.39q-.54.71.48 1.5l.55.42-14.58.02c-8.02.01-15.79.04-17.26.06s-3.25 0-3.94-.05l-1.27-.09.05-.51c.03-.28.14-.64.25-.79s.24-.48.3-.74c.08-.4.05-.49-.21-.55-.37-.08-.4-.43-.15-1.86.08-.5.21-1.45.28-2.1s.2-1.47.28-1.83l.3-1.5c.16-.88.38-1.82.63-2.7.08-.29.21-.79.28-1.11.22-1 .5-1.57.78-1.57s.3-.04.26-1c-.03-.99.14-1.67.37-1.5.1.08.45.15.76.17.74.04.84-.27.2-.59-.53-.26-.97-.3-1.12-.08q-.1.15-.29-.16c-.18-.3-1.18-.7-1.42-.57-.08.04-.14.2-.14.34q-.02.26.6.48c.32.12.6.3.6.39s-.3.53-.67.97c-.72.87-.8 1.08-.45 1.25.17.08.19.2.08.5a24 24 0 0 0-.95 3.68c-.11.5-.24.98-.29 1.05-.04.06-.16.68-.25 1.36-.1.68-.24 1.57-.33 1.96-.08.4-.2 1.52-.25 2.5-.1 1.7-.1 1.76-.43 1.8-.36.05-.46.5-.2.93a4 4 0 0 1 .25 1.04l.1.8H7.7c-3.57 0-4.43.04-4.67.2-.83.54-1.14.53 25.05.53h24.95l.05.42q.1.82 1.28.83c.63 0 1.13-.3 1.13-.67 0-.64.01-.65 2.85-.65H61l-.3.35c-.36.4-.4.67-.11 1.03.24.32.21.23 1.3 3.87l.53 1.66.09.02q.35.13.72.21l.6.14q.28.07.58.12l.56.12q.3.03.57.11a5 5 0 0 0 1 .13l.56.03q.24.01.48.07.24.04.48.1l.25.02q.35.05.46.23c.18-.07.39 0 .85.25 1.02.56 1.25.82 1.05 1.16-.1.15-.19.46-.2.67-.03.32.02.4.3.44.25.03.38-.07.57-.42l.25-.46.49.24c.27.12 1.06.7 1.76 1.27l1.27 1.04.01 5.06c.02 4.51-.01 5.1-.23 5.4-.23.31-.23.4 0 1.2.14.48.21.95.17 1.05-.17.4-4.53.05-6.49-.51l-1.52-.42c-.48-.13-.86-.28-.86-.35s.27-.44.6-.84c.68-.8.7-1.08.1-1.34l-.41-.17.36-.26c.44-.3.64-.96.39-1.23-.1-.11-.24-.2-.31-.2-.18 0-.58.88-.58 1.27 0 .17-.06.3-.14.3s-.24.1-.37.21c-.18.16-.23.5-.23 1.41 0 1.28.04 1.41.52 1.63 1 .45 4.14 1.06 6.24 1.2 2.83.2 3.2.16 3.2-.4 0-.12.1-.39.21-.6s.3-.63.43-.96c.2-.54.2-.64-.04-1.03-.22-.38-.25-.96-.28-4.76-.01-2.38.01-4.44.06-4.57.13-.37.31-.31 1.16.39.42.35 1.28 1.01 1.9 1.47a107 107 0 0 1 4.45 3.45c.98.82 1.78 1.2 3.03 1.46l1.5.31c.33.07 1.5.28 2.61.47l3.08.55c1 .2 1.1.19 1.45-.01.4-.24.51-.74.2-.97-.2-.13-.32-.16-1.98-.42-2.78-.45-3.43-.57-3.88-.74a4 4 0 0 0-1-.18q-.55-.01-.73-.25c-.17-.03-.36-.11-.5-.16q-.2-.08-.42-.15c-.28.01-.58-.07-.66-.21l-.67-.22c-.16.02-.39-.08-.4-.2q-.19-.14-.34-.32-.12-.2-.2-.42l-.01-.15q.02-.12.06-.23.03-.08.1-.14.15-.15.35-.2.15-.2.3-.37c.26-.28.56-.5.84-.77q.28-.27.54-.56.24-.26.54-.44.22-.12.45-.15.14 0 .27.08.09.07.13.15.23-.07.53.24l.4.53c.03.04.24.27.24.29v.31c.85.13.94-.03.35-.6-.3-.29-.53-.63-.53-.76 0-.14-.1-.33-.24-.43-.24-.17-.7-.74-1.32-1.61-.4-.56-1.63-1.85-2.37-2.48-.57-.49-.58-.52-.3-.7.17-.1.45-.14.74-.1.69.12 2.02-.44 2.43-1.02.7-.99.18-2.22-1.02-2.44-.58-.1-.6-.2-.41-1.56.05-.38.05-.69 0-.69-.07 0-.23.3-.38.66l-.1.23c.52.18.38.77-.28.68l-.2-.02-.17-.01q-.17.02-.35 0a2 2 0 0 1-.68-.18c-.25-.12-.43-.24-.55-.5a1 1 0 0 1-.04-.67q.09-.3.28-.55l.08-.1a.7.7 0 0 1 .61-.22l.4.08.13.03.1-.07c.11-.17-.76-.56-1.14-.51-.48.06-1.22 1.5-1.14 2.2.05.47.14.53 1.15.8.57.16.68.25.8.64q.13.45-.06.98c-.32.93-.76 1.78-.91 1.78-.08 0-.35-.15-.59-.33a2 2 0 0 0-.7-.33 1 1 0 0 1-.4-.12 5 5 0 0 0-1.03-.34c-.5-.12-.96-.27-1.04-.32-.08-.06-.69-.27-1.34-.47a38 38 0 0 1-2.64-.89c-.48-.15-.57-.7-.52-3.41l.03-2.64 1.03-.04c1.42-.05 1.55 0 1.07.5-.21.23-.39.54-.39.7a1 1 0 0 1-.22.54c-.43.49-.2 1.38.34 1.38.1 0 .5.12.87.27s.89.25 1.15.23c.44-.04.47-.08.52-.6.04-.54.03-.57-.26-.43-.26.12-.62.1-.94-.02q-.18.08-.47-.03l-.14-.07c-.2-.11-.38-.27-.44-.5l-.01-.13q0-.24.12-.46.16-.31.47-.47c.12-.05.15-.07.29-.1h.1l.3.02q.1 0 .18.03c.12-.1.06-.2-.14-.45-.12-.15-.17-.3-.12-.35.16-.14 10.92-.08 11.72.06.98.18 1.68.17 1.95-.03.16-.11.69-.13 1.95-.07.95.04 1.75.1 1.8.14.07.07.08.55 0 .93-.04.23.04.26.59.26.33 0 .6.03.63.07 0 .22-.6.52-1.16.6-.46.06-.63.14-.6.29.05.21.5.46 2.43 1.33.65.3 1.6.74 2.08.99 1.35.67 1.37.68 3.13.61a63 63 0 0 1 2.6-.08c0-.12-.53-.97-.73-1.17a3 3 0 0 0-.85-.49c-.81-.3-.94-.65-.44-1.18.21-.22.38-.47.38-.56s.27-.4.6-.67c.33-.28.6-.62.6-.74 0-.13.15-.27.33-.32.18-.06 2.67-.13 5.53-.18 3.68-.05 5.21-.12 5.25-.22.13-.35-.89-.42-5.2-.36-2.62.04-4.43.02-4.55-.06q-.23-.12-.05-.37c.17-.28.06-.96-.16-.96-.08 0-.31.11-.52.26-.4.27-.87.33-1.2.15-.1-.06-.4-.48-.65-.95a1 1 0 0 1-.29-.15l-.45-.34a7 7 0 0 1-.89-.78c-.26-.27-.54-.54-.75-.86-.09-.2-.18-.32-.13-.56.08-.36.35-.51.66-.53h.01l.24-.16c.44-.3.46-.3 1.15-.06.38.12.84.3 1.02.4s.47.15.68.1q.36-.07.55.13c.1.1.34.2.52.2s.45.08.62.19.62.22 1 .27c.7.1.72.09.67-.21-.04-.27-.28-.4-1.53-.82-.82-.27-1.92-.65-2.44-.84a8 8 0 0 0-1.64-.4c-.72-.05-.93.03-2.71 1.08l-1.84 1.1c-.66.38-2.06 1.22-3.13 1.87-2.55 1.55-3.02 1.82-3.17 1.82-.08 0-.3.12-.5.26-.35.24-.7.25-5.71.29-9.65.07-10.36.06-10.44-.13s1.27-3.91 1.75-4.8l.38-.92c.13-.36.33-.84.43-1.05.11-.22.3-.75.43-1.18.12-.43.4-1.2.62-1.7.22-.51.57-1.36.77-1.9a213.75 213.75 0 0 0 2.11-5.4c.74-1.94.88-2.21 1.22-2.32.35-.1.4-.21.49-.97.05-.47.05-.95 0-1.06q-.09-.21-.3-.21M7.28 4.1c-.3 0-.45.2-.34.45.12.26.85.16.9-.12q.06-.22-.34-.31zm78.78.1q-1.06 0-.67.46c.14.14.14.3 0 .68-.1.27-.24.55-.31.62s-.13.26-.13.43-.15.48-.32.68-.27.44-.21.52c.06.1.64.15 1.5.15 1.38 0 1.39 0 1.7-.4.49-.6.15-1.06-.43-.6-.24.2-.5.25-.96.23-.22-.02-.26-.1-.2-.45.14-.76.44-1.6.66-1.82q.47-.5-.63-.5m-77.6.28h-.1c-.47.09-.4.48.14.69.74.28 1.46.27 1.46-.04 0-.25-1-.67-1.5-.65m2.31.72q-.35 0-.53.14c-.26.23.71.72 1.28.65q.43-.04.61.15c.1.1.4.27.67.36.77.24 1.03.22 1.03-.07 0-.34-1.08-.84-1.52-.72-.23.07-.38.01-.56-.2-.17-.2-.6-.32-.98-.31M30.8 7.36l-.31.4c-.34.4-.3.77.05.77.12 0 .3-.09.4-.2.23-.24.6-.25.6-.01 0 .1-.1.43-.23.74-.12.3-.22.7-.22.87s-.1.35-.21.39c-.31.1-.42.44-.22.66q.2.18.79.15l.6-.04.02-.79c0-.77.28-1.85.52-2.08.08-.08.24-.04.4.1.4.3.82.02.75-.51l-.05-.4-1.44-.02Zm-12.21.26q-.3 0-.3.23c0 .21.36.5.9.7.32.14.36.13.56-.04q.46-.4-.34-.7-.53-.2-.82-.19m2.22.63c-.3 0-.58.09-.58.28 0 .14.11.31.26.39.33.17 1.03.18 1.15 0 .05-.06.02-.24-.07-.38-.12-.2-.45-.29-.76-.3m1.67.64c-.2 0-.26.08-.3.27-.03.24.05.3.42.37.25.05.5.14.54.2.15.22.58.05.63-.24q.09-.5-1.01-.58zm2.13.6c-.24 0-.52.22-.52.42 0 .1.19.23.41.3.65.22 1.15.14 1.2-.2.04-.22-.04-.3-.37-.37zm1.89.57q-.31 0-.32.3.01.42.67.57c.54.12.78.1.86-.08.1-.24-.03-.37-.6-.64a1.4 1.4 0 0 0-.61-.15m1.97.64c-.48.03-.49.43.24.75.6.26.6.26.87.1.32-.17.09-.52-.5-.73q-.36-.13-.61-.12m2.02.6q-.3-.01-.3.28c.01.23.2.38.86.65.47.2 1.08.54 1.36.76.72.56.9.5 1.24-.41.3-.8.18-.9-1.14-.9-.63 0-1.2-.09-1.42-.2a2 2 0 0 0-.6-.19m13.93.14c-.3.01-.5.08-.73.24s-.4.35-.4.43-.39.52-.86.96c-.93.86-2.57 1.66-3.28 1.6-.62-.06-1.06.75-1.07 1.95 0 .81.32 2.51.54 2.82q.22.36 1.99-.52c2.87-1.42 4.76-3.92 4.81-6.39l.02-1.05-.67-.04zM34.38 12.5q-.15 0-.27.12c-.26.23-.14.6.22.68 1 .24 1.5-.38.53-.69a2 2 0 0 0-.48-.1m14 .37q-.05 0-.04.2c0 .15.04.3.1.36.05.05.17.03.25-.05q.15-.13-.1-.35-.17-.15-.21-.16m-12.35.25c-.59 0-.4.55.25.75q1.32.39 1.1-.17c-.1-.24-.9-.58-1.35-.58m18.8.18q-.25 0-.73.39c-.5.4-.75.9-.44.86q.48-.07.48.27c0 .4-.57.35-.74-.06s-.6-.3-.6.13c0 .38-.31.61-.6.45-.3-.16-1-.16-1.11 0-.18.26-.52.14-.52-.17 0-.4-.35-.65-.74-.54-.4.1-.38.34.07.93.2.26.37.58.37.7 0 .22.97 1.1 1.56 1.41.17.09.43.16.58.16.42.01 1.59-1 2.13-1.84.27-.4.76-.98 1.1-1.27q1.1-1 .06-1.22zm-16.75.54c-.6 0-.77.28-.28.45.5.18.79.11.79-.19 0-.2-.1-.26-.5-.26m-20.4 1.14c-.14 0-.28.1-.53.27-.53.35-.65.52-.98 1.34q-.57 1.39.1 1.98c.4.36.55.38 1.01.16.74-.34 1.3-1.3 1.4-2.41.07-.62.04-.7-.4-1.02-.3-.22-.45-.33-.6-.32m-.04.76q.22 0 .17.36c-.05.38-.57.6-.57.25s.17-.6.4-.6m-.45 1.58q.3 0 .12.48c-.08.19-.23.37-.33.4-.28.08-.24-.75.04-.84zm42.6.52c-.46 0-.65.09-1.1.52-.3.3-.53.6-.53.7s-.1.26-.23.35c-.4.3-.18 1.31.3 1.31.11 0 .51.24.9.53.37.28.82.52 1 .52.34 0 .85-.35.85-.59 0-.08.18-.3.39-.47.45-.37.8-.92.8-1.25 0-.26-1-1.23-1.27-1.23-.1 0-.26-.09-.36-.2-.1-.1-.43-.2-.75-.2m.06.74c.2 0 .17.1.07.21q.13-.03.3-.03c.83 0 1.36.66.84 1.04-.13.1-.23.25-.23.35s-.17.24-.38.31q-.75.25-.98-.08a.5.5 0 0 1-.35-.21c-.14-.16-.07-.07-.18-.3v-.17c0-.13.07-.25.1-.38.07-.15.11-.3.22-.43.14-.15.3-.29.52-.3zm-13.7 1.77c-.3 0-.5.06-.78.23-.39.25-.46.37-.46.86 0 .78.12.98.66 1.2.66.24 1 .22 1.48-.12.34-.25.44-.44.5-.95.08-.84-.13-1.09-1.02-1.2zm55.89.38q.16 0 .12.16c-.04.09-.22.18-.42.2-.3.04-.32.02-.15-.16a.6.6 0 0 1 .45-.2m-55.44.07q.23 0 .29.26l.06.14c.04.12-.01.31-.04.42q-.06.16-.17.28l-.1.08q-.21.17-.24 0a.3.3 0 0 1-.3 0l-.07.02c-.05 0-.11.04-.15 0-.13-.11-.2-.28-.31-.42.04-.2.18-.32.33-.44l.28-.2q.14-.1.3-.11zm19.52.45c-.51 0-1.06.42-.88.68.05.06-.1.27-.32.47-.47.42-.7.89-.6 1.2.05.13.57.47 1.17.76 1.52.76 2.1.65 2.65-.47.38-.78.38-1.47 0-1.47q-.3 0-.46.46l-.05.12c.11.13.16.3.03.5a1 1 0 0 1-.31.33l-.13.06c-.2.07-.4.03-.6-.02q-.34-.07-.67-.17c-.27-.13-.43-.29-.45-.6q.02-.29.14-.54l.16-.41c.11-.28.29-.4.44-.39q.08 0 .15.05c.43-.24.33-.56-.27-.56m-20.23.03h-.02v.01zm55.16.02q.07 0 .03.08a.3.3 0 0 1-.23.13c-.22 0-.17-.1.09-.18zm3.53.17h.04zm-54.23 1.79a1 1 0 0 1 .36.06l.1.07.01.01c.24.04.35.3.17.55l-.02.07q-.1.22-.29.39-.2.17-.47.23-.28.08-.57.01l-.05-.01a1 1 0 0 1-.23-.1l-.03-.15c-.19-.04-.23-.25 0-.59q.16-.2.35-.34c.16-.12.35-.16.55-.2zm22.93 2.73q.25-.01.34.04c.1.04.12.14.08.2-.11.16-1.7.17-1.7 0 0-.1.79-.23 1.28-.24m-7.15.04h4.42l.25.38c.13.22.4.43.6.48s.57.19.82.3c.6.28 1 .27 1.45-.05l.39-.27-.03.56c-.02.44.03.57.23.6q.26.04.41-.3c.3-.7.45-.16.45 1.77 0 1.07-.05 1.97-.11 2a2 2 0 0 1-.75-.22c-.55-.24-.63-.32-.63-.7 0-.56-.39-.71-.75-.29-.25.3-.27.3-.78.09a3 3 0 0 0-.74-.22c-.12 0-.99-.35-1.92-.77s-1.86-.81-2.06-.87-.78-.27-1.29-.48c-.5-.2-1-.37-1.11-.37-.2 0-.75-.24-2.62-1.12-.43-.2-.75-.4-.72-.44s2.05-.08 4.49-.08m-12.2 0h.28a1 1 0 0 1 .35.05l.1.05c.19.11.32.3.28.54q-.03.08-.07.15-.19.24-.5.25-.15.02-.3 0c-.28-.03-.43-.2-.46-.36-.38-.18-.27-.67.33-.67m20.63.01c.28 0 .5.16.33.3-.08.06-.3.16-.48.2-.27.08-.33.05-.33-.16 0-.14.12-.28.28-.32zm-20.25.73.05.01zm4.66.15q-.14 0-.35.09c-.63.22-.92.56-1.01 1.14-.06.38 0 .58.24.86.27.3.45.36.96.36.7 0 .96-.18 1.27-.87.21-.48.11-.7-.57-1.28-.25-.21-.38-.3-.54-.3m21.83.12c-.18 0-.32.3-.32.73q0 .41.2.42c.37 0 .56-.94.22-1.12zm-22.06.36a1 1 0 0 1 .3.05q.19.03.35.18.22.22.19.52l-.04.16q-.05.24-.23.3l-.02.01c.12.35-.24.62-.69.28l-.31-.28a1 1 0 0 1-.27-.45l-.01-.11q0-.08.02-.16.1-.3.41-.4.09-.1.3-.1m36.88.27q-.15 0 .03.2c.1.1.22.17.26.14.1-.1-.1-.34-.29-.34m-21.6.54h-.05c-.34.06-.83.96-.71 1.3.17.46.7.28.93-.32.2-.55.13-.98-.16-.98m-7.98.65q.1 0 .52.23c.25.13.63.28.86.33s.4.15.4.22.15.12.33.12.43.08.56.18.47.25.75.35.7.28.9.4.65.3 1 .4a4 4 0 0 1 .54.16h.03q.16.04.26.12c.15.14.15.32.1.49q-.1.3-.38.4-.03.15-.15.31c-.18.25-.2.38-.07.6.09.14.13.26.08.26-.1 0-1.31-.94-1.46-1.14a.4.4 0 0 0-.31-.17c-.1 0-.4-.2-.67-.46a2 2 0 0 0-.58-.45c-.06 0-.75-.53-1.52-1.18q-1.39-1.17-1.2-1.17m24.2 1.31c-.33 0-.52.2-.68.64-.11.33-.3.78-.43 1-.19.34-.2.48-.05.8s.35.43 1.18.66c1.25.33 1.14.32 1.59.14.29-.11.38-.25.38-.55 0-.23.15-.66.33-.96.27-.45.3-.59.14-.72-.15-.14-.21-.13-.33.03-.07.1-.1.3-.05.43q.1.24-.41.62-.26.2-.45.29c-.02.2-.23.36-.6.3l-.31-.08q-.36-.11-.6-.4-.22-.29-.26-.62v-.13a1 1 0 0 1 .27-.53q.2-.22.46-.39a1 1 0 0 1 .36-.12q.12 0 .2.05l.28-.19-.44-.15a2 2 0 0 0-.57-.12m-13.63.01q-.3.02-.3.29c0 .16 1.75 1 2.1 1 .32 0 2.36.96 2.36 1.11 0 .1.09.26.2.35.12.11.63.19 1.34.2 1.04.03 1.14.01 1.14-.22 0-.14-.25-.41-.56-.61-.3-.2-.66-.47-.8-.61-.18-.2-.33-.23-.72-.16-.5.1-.79.02-2.6-.71a7 7 0 0 0-2.16-.64m-22.32.63c-.17 0-.3.06-.3.13s.13.14.3.14.3-.06.3-.14c0-.07-.14-.13-.3-.13m1.31.45q-.19.04-.18.14c.01.07.35.28.75.46s.97.46 1.26.62c.3.17.72.3.94.3.45 0 1.16.3 1.56.64.14.13.55.28.91.33s.72.14.81.2c.14.11 2.94.79 3.24.8.06 0 .11-.1.11-.2q0-.1.12-.17l-.28-.05q-.3-.05-.58-.12l-.61-.12-.6-.15q-.38-.09-.74-.2-.16.01-.37-.08l-.06-.02-.12-.03q-.15-.03-.32-.03-.45-.02-.53-.24l-.48-.15-.75-.25-.65-.22q-.4-.17-.83-.32l-.75-.27-.63-.25-.53-.29q-.34-.17-.69-.33m17.09.34c.18 0 .53.16.8.35.45.34.46.36.16.45q-.3.12-.46.63c-.1.29-.22.56-.3.6s-.1.18-.05.33c.1.35-.2.33-.41-.02-.15-.24-.13-.32.06-.44a.6.6 0 0 0 .25-.43c0-.16.08-.43.18-.62.16-.31.14-.38-.2-.6-.35-.24-.35-.24-.03-.25m23.61.02h-.22c-.47.04-.51.09-.59.57-.04.3-.19.67-.33.85a1 1 0 0 0-.26.6c0 .43.56.97 1.02.98.22 0 .53.06.7.13.16.06.6.1.96.09l.67-.03.2-.79c.28-1.17.3-1.7.03-1.7q-.23 0-.3.6c-.1.74-.35 1.04-.88 1.04h-.15q-.12.08-.35.1h-.24c-.35-.01-.62-.05-.77-.42a1 1 0 0 1-.03-.51q.03-.26.13-.5.17-.37.56-.48.2-.05.41-.04l.22.04.33-.26-.41-.16a3 3 0 0 0-.7-.11m-25.5.3v.03l.02.02zm15.7.53c.22-.01.5.1.7.34.26.3.27.4.1.89-.14.43-.31.6-.84.87-.77.38-.73.37-.86.18-.1-.13.1-.88.39-1.5.07-.14.14-.37.17-.52q.06-.25.34-.26m-20.67 2.08c-.66.28.15.67 1.37.62q.39.01.26-.26-.06-.14.03-.21l-.05-.01q-.2-.05-.4-.06l-.53-.02a6 6 0 0 1-.68-.06m3.17.4c-.23 0-.49.08-.64.21q-.36.28.85.4c.43.03.83.05.89.02.17-.07-.03-.3-.26-.3-.1 0-.28-.08-.38-.2q-.13-.12-.36-.13zm19.2.34c-.51 0-.63.06-.97.51-.46.62-.4 1.18.2 1.58.48.34 1.08.34 1.56 0q.72-.47.41-1.43c-.17-.56-.35-.66-1.2-.66m4.14.41c-.3.01-.46.1-.72.32-.6.5-.67.96-.27 1.56.18.26.47.53.64.6.58.2.87.12 1.46-.4.53-.46.59-.58.5-.95q-.22-1.08-1.27-1.12zm10.95.11c-.62 0-.75.06-1.27.55-.31.3-.57.61-.57.7 0 .22.72.78 1.49 1.17q1.06.54.92.03c-.04-.2.19-.34.88-.53.21-.05.22-.14.07-.66-.26-.9-.68-1.26-1.52-1.26m-15.12.09.34.01c.28.05.43.15.59.38q.16.27.04.56l-.07.1q-.08.08-.16.13c-.22.1-.46.04-.67-.04a.6.6 0 0 1-.3-.26.5.5 0 0 1-.22-.15.3.3 0 0 1-.08-.15q0-.14.01-.28.1-.12.2-.22a1 1 0 0 1 .32-.08m9.69.04c-.76 0-1.07.15-1.47.73-.33.46-.33.48-.06 1 .14.28.37.57.5.64.34.17 1.4.15 1.67-.04.78-.56.91-1.32.33-1.92-.3-.33-.5-.4-.97-.4m5.23.15c.35-.02.57.04.87.22.29.26.48.55.35.98-.11.34-.29.4-.54.54-.55.3-.53-.07-.41-.51l-.04.02a.6.6 0 0 1-.34.04q.06.08.16.15l.05.02.08.01h-.18c-1.4-.39-1.46-1.4 0-1.47m6.98.01c-.25 0-.46.1-.4.27.03.09.22.18.41.2.2.03.59.2.88.36.6.36 1.25.37 1.32.04.06-.27-.66-.63-1.23-.63-.2 0-.5-.07-.65-.15a1 1 0 0 0-.33-.09m-17.32.18h.11q.29.09.42.33l.06.14q.01.06.01.13c-.02.28-.19.43-.4.57-.2.12-.44.2-.66.09l-.07-.06c-.29.08-.53-.23-.29-.68q.15-.24.37-.4.22-.12.45-.12m-27.79.22q-.14 0-.47.15c-.3.12-.53.3-.53.4s-.1.24-.2.32a1 1 0 0 0-.3.45l-.23.8q-.27.96.31 1.52c.23.2.4.26.7.2.4-.1 1.04-.67 1.05-.96 0-.1.12-.32.26-.5.15-.22.26-.62.26-1.05 0-.59-.06-.76-.39-1.05-.22-.2-.32-.28-.46-.28m38.15.04-.06.06.02-.02.03-.03zm-14.48.01v.06zm-.74.02q0 .17.05.2a1 1 0 0 1-.05-.2m.57.08v.03h.02zm-37.09.08q-.85.02-.54.61c.15.26-.15 1.1-.4 1.1-.26 0-.32-.68-.1-1.08.13-.22.2-.45.15-.51-.1-.15-1.2-.15-1.31 0-.05.06.02.56.14 1.12s.22 1.18.22 1.38c0 .21.06.54.15.73.15.35.16.35.46.1.17-.13.41-.46.53-.73q.48-1 .5.16 0 1.89 1.48-.7c.42-.73.83-1.42.92-1.54.27-.34.04-.66-.44-.62-.34.04-.41.11-.45.5-.03.26-.1.5-.17.53-.06.03-.18.18-.27.32-.15.25-.17.25-.35-.1-.14-.28-.15-.42.01-.67q.4-.62-.53-.6m-7.86.02h-.27l-.63.05-.02.6c-.01.32-.1.72-.19.87s-.16.45-.16.66-.14.54-.3.72c-.35.38-.38.57-.11.66.3.1 2.55.1 2.72-.01.1-.05.2-.21.25-.36s.13-.36.19-.49c.15-.34-.47-.3-.67.03-.12.2-.31.26-.77.26-.56 0-.6-.02-.5-.29.06-.16.15-.51.22-.77.06-.27.26-.73.44-1.04.38-.64.35-.88-.2-.9m69.18.04-.1.01c-.19.1-.16.5.06.7.23.2 1.33.14 1.41-.08.06-.17-1.01-.64-1.37-.63m-15.1.01q.36 0 .6.29.2.31.02.62l-.1.1a1 1 0 0 1-.56.18c-.27-.03-.4-.12-.55-.35-.15-.25.01-.28.22-.26a.3.3 0 0 1-.07-.2c-.2-.04-.36-.07-.07-.22q.24-.12.5-.16m5.48.07h-.02.04zm-38.38.39q.15 0 .16.39c0 .3-.06.4-.3.4q-.31-.01-.23-.17l.18-.4q.09-.22.19-.22m5.8.02c-.46-.02-.98.89-.63 1.2.32.28.74-.05.89-.68.07-.32.03-.43-.18-.5zm44.23.24c-.33 0-.13.57.27.75.2.09.44.16.53.16.21 0 .51-.27.51-.47 0-.16-.85-.44-1.31-.44m-54.1.13q-.38 0-.7.38l-.08.1v.25q-.04.1-.09.1v.02q.04.13.06.26l.04.2v.01q.09.04.1.12l-.02.05.04.02.12.06.24.14h.03a1 1 0 0 1 .23.12l.07.05c.22.2.22.21 0 .21q-.32-.02-.4-.22-.13-.07-.24-.14l-.09.04h-.01l-.15.05-.06.16q-.03.06-.08.08v.12c.02.42.38.62 1 .53.61-.1 1.1-.42 1.1-.75 0-.3-.56-.91-.82-.91-.23 0-.45-.24-.32-.36.05-.04.19 0 .3.09.13.09.3.12.38.07.26-.14.18-.57-.13-.72a1 1 0 0 0-.51-.13m-2.29.01q-.32 0-.66.25-.21.14-.36.2l-.03.04-.1.14-.06.12-.04.14-.03.16-.01.13v.32l.01.1.03.12.04.26.03.13.01.13q.1.04.15.17c.1.22 1 .4 1.51.28.2-.05.47-.25.59-.44q.09-.15.14-.21-.04-.05-.01-.14l.07-.17.04-.12.04-.09a.1.1 0 0 1-.05-.09q0-.05.04-.08v-.02l-.04-.2-.06-.23-.05-.2-.37-.33q-.41-.37-.83-.37m-2.4 0c-.24 0-.48.13-.82.4-.47.36-.53.47-.53 1.05 0 .51.08.71.37.97.44.39 1.06.41 1.57.06q.17-.12.3-.18-.05-.06.03-.15l.02-.02.06-.1.01-.01-.02-.14-.02-.1-.07-.08-.03-.05-.07-.05q-.15.12-.4.26c-.5.29-.53.29-.73-.1-.25-.48-.03-.96.28-.96q.17 0 .34.17c.1.1.31.2.47.2l.17.02.03-.28-.04-.06-.07-.15-.07-.15-.06-.18-.01-.04-.12-.08c-.23-.16-.4-.24-.6-.24m60.9.4h-.16c-.32.06-.44.5-.17.65q.47.27.71-.13c.16-.26-.05-.51-.39-.53m-70.13.05c-1.22 0-1.42.03-1.46.23s.1.23 1.46.23 1.5-.03 1.46-.23-.24-.23-1.46-.23m48.44.06c-.13 0-.24.06-.24.13q.02.13.14.13c.08 0 .19-.05.24-.13q.06-.12-.14-.13m-36.9.13c.11 0 .31.19.45.41.18.32.2.49.08.73-.24.45-.7.4-.82-.1-.12-.52.03-1.04.3-1.04m6.04.54q.1 0 .21.04c.2.06.2.12-.01.47-.33.57-.69.53-.56-.07q.09-.43.36-.44m5.39.14a.3.3 0 0 0-.3.2c-.04.13-.14.34-.22.46a1 1 0 0 0-.13.43c0 .3.7.25.9-.07.23-.38.12-.97-.2-1.02zm-23.68 0c-.7.03-.85.15-.73.43.08.18.33.2 1.55.18 1.34-.04 1.45-.06 1.45-.3 0-.25-.11-.27-1.4-.3zm23.05 1.7a.3.3 0 0 0-.2.08c-.32.29-.57 1.12-.39 1.3.25.28.76-.09.89-.63.1-.4-.07-.75-.3-.75m18.75.48q-.03 0-.05.02h.02zm-19.32 1.22q-.11 0-.34.11c-.27.13-.54 1.09-.37 1.33.33.46 1.26-.7.96-1.2q-.13-.24-.25-.24m17.76.15-.04.04.02-.01zm.07.96-.1.04h-.02l.13.02zm-18.54.71c-.3 0-.9 1.08-.78 1.36.19.43.65.24.91-.38q.42-.97-.13-.98m19.86.42v.04zm-6.25 3.38c-.64 0-.87.17-.6.46q.16.17.03.42l-.33.6c-.11.2-.26.36-.33.36-.15 0-.08-1.06.1-1.54.1-.27.1-.29-1.04-.29a3 3 0 0 1-.1.77q.03.05.03.11c0 .12-.13.37-.27.54l-.28.3-.1-.54c-.05-.3-.06-.6-.01-.67q.05-.06.13-.06h.05q0-.06.02-.12l.02-.33c-1.46.01-1.66.12-1.36.62.08.13.2.8.25 1.48s.12 1.3.15 1.4.19.16.35.16q.28.01.6-.59c.16-.32.36-.59.44-.59s.2.24.26.54c.1.6.45.81.7.44.6-.87 1.88-3.1 1.88-3.27 0-.14-.16-.2-.59-.2m-9.14 4.86q-.4.01-.8.38c-.82.72-1.17 2.29-.67 3.03s1.28.39 2.03-.91c.52-.92.55-2 .06-2.3q-.32-.2-.62-.2m-6.67.14c-.32 0-.5.26-.35.58.05.12.22.19.42.16q.36-.03.34-.37c0-.24-.1-.33-.34-.37zm-14.6.11c-1.14 0-1.45.13-1.14.46.13.14.14.3.03.62-.08.24-.2.65-.24.92-.06.28-.24.7-.4.95-.33.5-.3.53.54.63.9.1 1.03.09 1.82-.26 1.41-.6 2-1.72 1.37-2.6-.43-.63-.69-.72-1.98-.72m7.73.02c-1.05 0-1.42.04-1.48.18-.04.1.01.24.12.32s.23.61.3 1.34c.06.66.14 1.28.19 1.38s.22.17.39.14c.22-.02.4-.23.61-.72.17-.38.34-.7.39-.7s.14.32.22.7c.23 1.11.52 1 1.35-.52.38-.7.8-1.39.91-1.51.32-.33.12-.65-.37-.6q-.43.03-.46.33c-.02.16-.16.5-.3.76l-.27.48-.2-.4c-.16-.36-.15-.45.05-.65.4-.39.13-.51-1.2-.53v.28q.07.03.1.08.09.06.12.16l.03.2q0 .11-.07.2v.03q-.1.14-.2.1-.17.44-.37.29c-.14-.13-.12-.6.05-.83l.06-.07q-.1-.1.03-.18v-.13zm13.44.38c.22 0 .2.56-.02.76-.21.18-.42.2-.42.03 0-.26.3-.78.44-.8m-20.74.11q.33 0 .6.42c.4.69-.04 1.56-.94 1.9l-.55.19q-.24 0 0-.63c.11-.27.2-.61.21-.76s.08-.46.17-.7q.18-.42.51-.42m16.72.34q-.07 0-.12.02c-.13.05-.5.12-.83.15q-1.07.11-.7.45c.16.14.21.94.14 1.36l-.01.36-.03.36h.96v-.94l-.04-.2c-.1-.65-.05-.84.27-.84.26 0 .43.86.27 1.19v.78c.63-.01 1.08-.03 1.11-.06a8 8 0 0 0-.1-1.13c-.11-.89-.2-1.14-.47-1.33a1 1 0 0 0-.45-.17m-4.32 0q-.17.01-.43.13c-.66.3-.62.89.11 1.46q.59.45.31.44c-.14 0-.3-.05-.34-.13-.2-.28-.52-.12-.52.27 0 .29.09.43.33.52.47.16.54.16 1.03-.1q.95-.49.26-1.34l-.02-.01-.16-.08-.21-.13-.15-.09a.2.2 0 0 1-.11-.06q-.11-.1-.08-.18v-.02q0-.06.04-.06.02 0 .06.02.05 0 .12.03l.25.14q.09.07.2.12l.12-.13.1-.08-.05-.13q-.08-.16-.16-.33l-.04-.08-.3-.1a1 1 0 0 0-.36-.08m-9 .2c-.98 0-1.27.04-1.34.2-.1.24.1.48.46.56q.05-.05.16-.05h1.44l.58.01h.21l.07.02c.22-.21.18-.57-.09-.66-.13-.04-.8-.08-1.49-.08m10.41.05.04.22.02.3q.01.11-.01.21-.04.17-.12.21 0 .22-.02.54l-.09.96 1.07.01h.03v-.03l.01-.51q0-.21-.03-.41v-.1l-.06-.53-.07-.85-.75-.01zm6.61.76q.29-.01.04.5c-.25.51-.6.52-.6.01 0-.27.09-.4.3-.47q.18-.05.26-.04m-17.47.15c-.13.05-.31.09-.45.09-.36 0-.56.19-.42.4.05.07.74.12 1.57.12 1.36 0 1.48-.02 1.48-.25 0-.14-.07-.3-.16-.34h-.27l-.41-.02q-.2.08-.35.09-.17 0-.36-.09h-.46z" style="fill:#515151;fill-opacity:1"/><path d="m38.96 12.3-.52 3.12" style="fill:none;stroke:#000;stroke-width:.264583px;stroke-linecap:butt;stroke-linejoin:miter;stroke-opacity:1"/><path d="M38.9 11.75h-.01v.04c0 .23-.27.7 0 .7h.03c.04.67.07 1.62-.03 1.77-.17.25-.43.46-.6.7-.06.1.1.28 0 .36-.04.04-.14-.04-.19 0-.17.15.16 2.5.2 2.65.07.32.98 2.3 1.17 2.48.05.04.15-.04.2 0 .05.05.53.6.59.7.03.06-.06.15 0 .18.46.2.3-.12.78.53.08.1-.09.27 0 .35.05.05.15-.04.2 0 .15.14.05.4.2.54.04.04.15-.05.2 0 .23.2.45.64.58.88.14.25.7.45.79.53.04.04-.05.13 0 .18.04.04.13 0 .2 0q.1.07.19.17c.08.11.1.26.2.36s.67.25.78.35c.05.04-.05.14 0 .18.1.09.29.08.4.17.16.15.22.38.39.53.04.05.15-.04.2 0 .04.05-.05.14 0 .18.26.24.67.32.97.53.23.15.37.38.6.53.16.11.43.05.58.18.1.1.1.26.2.35.04.04.13 0 .2 0 .12.12.28.22.39.35.03.05-.05.14 0 .18.18.17.8.19.98.36.04.04-.05.13 0 .17.59.53 1.62.62 2.35.89.17.06.23.27.4.35.56.25 1.13.6 1.76.88.34.16.7.06.98.18.63.28 1.26.45 1.96.7 1.78.65 3.5 1.48 5.3 2.13.23.08.56-.07.79 0 .74.22 1.42.48 2.16.7.3.1.68-.08.98 0 .22.07.38.26.59.36.19.09 3.6.03 3.92.18 1.36.6-.26.16 1.38.53L38.93 11.82l-.03-.07zm7.68 9.1q.22 0 .29.27l.06.14c.03.12-.01.3-.05.42q-.05.16-.16.28l-.1.08q-.22.17-.24 0a.3.3 0 0 1-.3 0l-.08.02c-.05 0-.1.03-.14 0q-.17-.2-.32-.42c.05-.2.18-.32.34-.44q.14-.1.27-.2.15-.1.3-.11zm-.72.49h-.02v.01h.01zm4.47 1.97a1 1 0 0 1 .36.06l.1.07.01.01c.24.04.35.3.17.55l-.02.07q-.1.22-.29.38-.2.17-.47.24-.28.07-.57.01l-.05-.02a1 1 0 0 1-.23-.1q0-.08-.04-.14c-.18-.04-.22-.25.01-.59q.15-.2.35-.34.25-.16.55-.2zm3.59 2.77h.27q.18-.01.36.04l.1.04c.18.12.31.32.27.55q-.02.08-.07.15c-.12.17-.3.22-.49.25q-.15.02-.3 0c-.28-.04-.43-.2-.47-.36-.38-.18-.27-.67.33-.67zm.37.73h.06zm4.44.63a1 1 0 0 1 .3.04q.18.03.35.18.2.22.19.52l-.04.16q-.05.24-.23.3l-.03.01c.13.35-.23.62-.68.27l-.32-.27a1 1 0 0 1-.26-.44l-.01-.12q0-.07.02-.16c.05-.2.22-.32.41-.4q.09-.1.3-.1zm-4.8 2.58h.14c.27.02.53.1.8.16.33.1.65.26.96.4q.4.19.8.39l.49.26.58.24.74.25q.43.16.84.33l.6.2.76.25.61.19.53.14.29.1.43.1q.35.13.72.21l.6.14q.28.07.58.12l.56.12q.3.04.57.1a5 5 0 0 0 1 .14q.28 0 .56.03.25 0 .49.06l.48.1.24.03c.73.07.66.8-.06.73l-.3-.04-.5-.1q-.2-.04-.4-.05l-.53-.03a6 6 0 0 1-1.68-.25l-.58-.12-.61-.12-.6-.15q-.38-.09-.74-.2-.15 0-.37-.08l-.06-.03-.11-.02-.33-.03q-.45-.02-.53-.24l-.48-.15-.75-.25q-.32-.1-.65-.22l-.83-.32q-.37-.14-.76-.26l-.62-.26q-.27-.12-.53-.28-.37-.19-.76-.36-.42-.2-.85-.36-.3-.09-.6-.14c-.68-.1-.73-.7-.13-.73z" style="fill:none;stroke:#565656;stroke-width:.133901px;stroke-linecap:butt;stroke-linejoin:miter;stroke-opacity:1"/><path d="m103.77 28.98-6.4 3.38c.12.22-.05.5-.5.49q-.15 0-.26.02l-.04.02h.01v.02l-.03.06a1 1 0 0 0-.06.25l-.01.1h.27c.73-.05.77.7.05.74h-.24c-.35-.01-.62-.05-.77-.42a1 1 0 0 1-.04-.42l-6.57 3.47q0 .08-.04.14l-.07.1q-.08.08-.16.13a.7.7 0 0 1-.47.02l-1.55.82q.21-.02.41 0l.82.13c-.02.03-.35.02.2.2.12.05.29-.02.41 0 .27.07.56.1.82.18.05 0 .06.07.1.08.47.13 1.06.16 1.54.26.49.1 1.77 0 2.35 0 .17 0 .46-.05.62 0 .14.04.26.13.4.17.38.1 2.49 0 3.08 0 1.39 0 2.84.1 4.19-.17.2-.05.51 0 .72 0 .5 0 1.04.05 1.53-.09l.3-.09h-.13q0-.02.14-.08c.29-.12.8.07 1.12 0 .19-.04.56-.1.72-.17q.13-.06.12-.07c-.03-.03-.29 0-.3 0 .01-.02.18-.06.7-.18.14-.04.58-.07.7-.17.06-.05.4-.5.42-.51.22-.19.6-.33.82-.51.04-.04-.05-.13 0-.17q.03-.02.1 0 .1-.08.2-.17.54-.61.92-1.28c.11-.18-.07-1.38-.1-1.44-.05-.09-.15-.16-.2-.25-.12-.2.01-.57-.1-.77q-.31-.5-.72-.93c-.07-.07-.03-.2-.1-.26-.03-.02-.08.02-.1 0-.12-.06-.64-.36-.72-.42-.06-.04-.05-.13-.1-.17-.04-.03-.35-.14-.41-.17-.14-.05-.84-.53-.93-.6-.12-.1-.04-.18-.2-.25-.22-.09-.7-.2-.92-.34s-.46-.32-.72-.42c-.29-.12-.53-.14-.82-.26zm-7.3 4.4h.01v.01l.01.02h.01v.01-.01zm6.62 2.69c.35-.02.57.04.87.22.29.26.48.55.35.98-.11.34-.29.4-.54.54-.55.3-.53-.07-.41-.51l-.04.02a.6.6 0 0 1-.34.04q.06.08.16.15l.05.02.08.01h-.18c-1.4-.39-1.46-1.4 0-1.47zm-10.34.19h.11q.29.09.42.33l.06.14q.01.07.01.13c-.02.28-.19.43-.4.57-.2.12-.44.2-.66.09l-.07-.06c-.29.08-.53-.23-.29-.68q.15-.24.37-.4.22-.12.45-.12zm10.36.26-.06.06.02-.02.03-.03zm-5.53.26q.38 0 .6.29.21.31.03.62l-.1.1a1 1 0 0 1-.56.18c-.27-.03-.4-.12-.55-.35-.15-.25.01-.28.22-.26a.3.3 0 0 1-.07-.2c-.2-.04-.36-.07-.07-.22q.24-.12.5-.16zm5.49.07h-.02.04-.02z" style="fill:none;stroke:#626262;stroke-width:.134012px;stroke-linecap:butt;stroke-linejoin:miter;stroke-opacity:1"/><path d="M92.15 24.8c-.14-.04-.38-.23-.42-.1s.55.15.42.1c-.33-.16-.7-.25-1.04-.38-.27-.1-.49-.27-.73-.38-.46-.21-1-.3-1.46-.48-.43-.16-.81-.36-1.25-.47-.92-.24-1.87-.38-2.72-.76-.76-.35-1.63-.6-2.4-.95-.08-.04-.11-.17-.2-.2-.07-.01-.14.02-.21 0-.37-.06-.72-.25-1.05-.37-.34-.13-.59-.16-.93-.29-.45-.16-.9-.43-1.36-.57-.14-.04-.29-.03-.42-.1-.09-.03-.12-.13-.2-.18-.1-.06-.22.03-.32 0-1.18-.54-.1-.11-1.15-.38-.73-.2.02.01-.2-.2-.1-.09-.3-.03-.42-.09s-.2-.15-.31-.19c-.07-.02-.15.02-.21 0-.1-.03-.12-.15-.21-.19-.07-.03-1.23-.35-1.25-.38-.03-.02.03-.08 0-.1-.07-.02-.15.04-.21 0-.03 0 .02-.07 0-.09-.08-.07-.97-.25-1.05-.28l-.93-.38c-.33-.14-.24-.2-.53-.29-.35-.1-.81-.23-1.14-.38-.1-.04-.13-.14-.21-.19-.04-.23-.22-.04-.31-.1-.09-.04-.13-.13-.21-.18a11 11 0 0 0-1.26-.48c-.1-.02-.2.03-.3 0-.13-.03-.2-.14-.32-.19-.07-.02-.14.02-.21 0-.47-.08-.9-.24-1.36-.38-.1-.03-.21.03-.3 0a10 10 0 0 1-1.57-.66c-.22-.13-.41-.34-.63-.48-.11-.07-.38-.1-.52-.19-.28-.15-.53-.36-.84-.47-.68-.25.12.1-.93-.2-.46-.12-.9-.36-1.36-.47h-.2q-.22-.04-.43-.1c-.14-.04-.26-.14-.41-.18-.3-.2-.63-.03-.94-.1-.18-.03-.35-.13-.52-.19-.1-.03-.21.02-.32 0-.35-.04-.69-.14-1.04-.19-.24-.03-.49.04-.73 0-.3-.04-.78-.21-1.04-.28-.16-.04-.37.03-.52 0-.27-.06-.56-.23-.84-.29-.66-.12-1.83 0-2.5 0h-5.11c-.48 0 .1.02-.73-.09-.93-.12-1.98 0-2.92 0-.4 0-.99-.11-1.36 0-.45.14-.98.38-1.46.38" style="fill:none;stroke:#6a6a6a;stroke-width:.143106px;stroke-linecap:butt;stroke-linejoin:miter;stroke-opacity:1"/><path d="M83.37 5.29c-.07.3-.1.6-.2.9-.58 1.7-1.33 3.4-1.99 5.08L77.11 21.7" style="fill:none;stroke:#000;stroke-width:.264583px;stroke-linecap:butt;stroke-linejoin:miter;stroke-opacity:1"/><path d="m89.21 41.62.07.09v.16l4.06 3.38v-.01c-.05-.1.03-.2 0-.29-.08-.16-.45-.2-.56-.28-.2-.15-.21-.4-.38-.57-.1-.11-.29-.17-.37-.29-.05-.08.06-.2 0-.28-.15-.24-.53-.36-.74-.57a4.4 4.4 0 0 0-2.08-1.34zm4.13 3.63c.1.22.13.2.17.14zm.17.14.31.27c-.02-.1-.03-.21-.12-.28-.1-.09-.16-.03-.2.01zm.31.27q.02.08.07.15.15.13.28.13zm.35.28.6.5c-.14-.15-.3-.3-.32-.35-.09-.13-.18-.14-.28-.15Zm.6.5c.23.24.5.5.6.5z" style="fill:none;stroke:#878787;stroke-width:.330866px;stroke-linecap:butt;stroke-linejoin:miter;stroke-opacity:1"/><path d="M109.12 21.07c-.03.12-.21.34-.1.37.13.03.17-.48.1-.37-.3.5-.41 1.08-.74 1.56-.04.08-.14.11-.18.19-.01.03.02.07 0 .09s-.08-.03-.1 0c-.02.05.03.13 0 .18 0 .03-.7.98-.73 1.02-.1.12-.3.48-.37.55-.02.02-.07-.03-.09 0-.1.21.09.19-.09.37" style="fill:none;stroke:#323232;stroke-width:.264583px;stroke-linecap:butt;stroke-linejoin:miter;stroke-opacity:1"/><path d="M66.34 21.44c.12 0 .37.12.37 0s-.48-.06-.37 0c.25.12.57.06.83.18.07.04.1.15.18.19.06.02.24.05.28.09.02.02.07.17.09.18.17.09.17-.1.27.1.05.1 0 .34 0 .45M72.87 24.47c.12 0 .37.13.37 0 0-.12-.48-.04-.37 0 .12.05 1.4.3 1.56.46.2.2-.18.7-.18.83M79.03 26.59c.19-.03.37-.1.56-.1.04 0 .05.08.09.1.08.04.19-.03.27 0 .15.06 1.06.55 1.1.64.06.12-.3.21-.36.28-.09.09-.04.25-.1.37.04.16-.13.18-.18.27-.02.06.03.13 0 .19-.12.24-.24.43-.46.64M84.65 28.61c.38 0 .87.06 1.2.28.2.14-.06.07.27.18.15.05.34-.02.46.1.05.05.02.65 0 .73.17.39-.15.1-.19.19-.04.1.01.17-.09.36-.05.1 0 .35 0 .46M90.9 30.45c.16.04.43.25.46.1.03-.16-.6-.14-.46-.1q.37.11.74.19c.99.23.1-.09.64.27.03.02.1-.03.1 0 0 .05-.08.06-.1.1s.03.13 0 .18c-.01.03-.06 0-.09 0l-.1.18c-.03.14-.02.34-.08.46-.12.23-.1-.03-.1.19M96.98 31.93q.6-.07 1.1.18c.13.06.46-.1.55 0q.06.08.1.18c.05.13.02.46-.1.46" style="fill:none;stroke:#434343;stroke-width:.264583px;stroke-linecap:butt;stroke-linejoin:miter;stroke-opacity:1"/><path d="M54.81 13.4c-.04 0-.12-.07-.13-.03 0 .04.18.04.13.03-.48-.12-.22-.11-.58-.32-.19-.1-.02.03-.17-.07-.08-.06-.06-.16-.13-.23l-.13-.1v-.03c-.02-.05-.1-.08-.13-.13q-.02-.07-.06-.13h-.03c-.06-.02-.13-.17-.17-.22-.04-.07-.13-.1-.16-.17q-.05-.1-.13-.2c-.03-.03-.02-.11-.03-.15-.03-.1-.07-.03-.07-.17" style="fill:none;stroke:#666;stroke-width:.264583px;stroke-linecap:butt;stroke-linejoin:miter;stroke-opacity:1"/><path d="M49.73 14.77c-.05-.02-.13-.13-.14-.05s.19.07.14.05c-.52-.2-.24-.2-.64-.56-.2-.18-.02.05-.17-.11-.1-.1-.07-.28-.14-.4l-.14-.16v-.06c-.03-.1-.11-.14-.15-.23q-.02-.12-.07-.22h-.03c-.06-.05-.14-.3-.18-.4s-.14-.16-.17-.27q-.07-.18-.15-.34c-.02-.07-.01-.2-.03-.28-.03-.16-.07-.05-.07-.28" style="fill:none;stroke:#666;stroke-width:.36214px;stroke-linecap:butt;stroke-linejoin:miter;stroke-opacity:1"/><path d="M53.6 13.54c-.14 0-.32.18-.44.23-.14.06-.3.06-.46.11l-.46.2c-.47.15-.03-.01-.6.14l-.2.08q-.08 0-.14 0-.04.01-.1.04h-.65v-.04" style="fill:none;stroke:#2d2d2d;stroke-width:.268701px;stroke-linecap:butt;stroke-linejoin:miter;stroke-opacity:1"/><path d="M52.92 12.82c-.13.12-.2.22-.36.26-.55.17-1.1.28-1.65.41-.38.1-.78.23-1.17.23" style="fill:none;stroke:#505050;stroke-width:.274053px;stroke-linecap:butt;stroke-linejoin:miter;stroke-opacity:1"/><path d="M52.6 12.18c-.28.07-.56.2-.84.27-.1.02-.2 0-.3.04-.22.05-.41.2-.63.26l-.65.07c-.13.02-.27-.02-.4 0-.3.07-.3.08-.6.08" style="fill:none;stroke:#6f6f6f;stroke-width:.277812px;stroke-linecap:butt;stroke-linejoin:miter;stroke-opacity:1"/><path d="m52.14 11.72-.13.03q-.42.16-.85.24-.23.03-.46.07-.07.03-.13.07c-.09.03-.49 0-.56 0h-1.22" style="fill:none;stroke:#adadad;stroke-width:.271264px;stroke-linecap:butt;stroke-linejoin:miter;stroke-opacity:1"/></svg>