<svg xmlns="http://www.w3.org/2000/svg" xml:space="preserve" width="120mm" height="62mm" viewBox="0 0 120 62"><path d="m132.84 44.51 61.9 27.13" style="opacity:1;fill:#000;fill-opacity:.920746"/><path d="m64.6 4.6-.11.02-.07.06-.06.06v.08q.11-.11.25-.21m-6.36 1.23-.14.05-.14.06v1.78l.09-.06.09-.05V6.53l.08-.22.09-.22 2.53-.02 2.54-.02.03-.11.04-.1h-2.6zm6.3 1.5v.04l.13.08.13.09h.03zm-6.49.96-.23.17-.24.18h-.72l-.4.1-.4.08-.7.13-.71.13-.49.08-.48.08-.49.14-.48.14-.4.12-.4.13-.53.22-.53.21-.4.18-.4.19-.35.22-.35.23-.13.11-.14.11-.24.3-.24.31v.41l.2-.25.2-.26.35-.33.35-.33.14-.1.13-.1.66-.3.66-.32.49-.18.49-.18.48-.12.49-.11.4-.1.4-.1.43-.12.44-.1.62-.1.62-.1.53-.07.53-.05.1-.07.11-.06.32.13.32.13.26-.19.25-.18 3.03.01 3.03.01.7.1.7.09.72.07.7.07.25.1.25.09h.58l.38.13.37.13h.56l.7.24.7.24.78.28.78.27.48.32.48.31.35.31.36.31v.34l.07.16.06.15.03-.22.03-.23-.2-.38-.2-.38-.32-.25-.3-.25-.36-.18-.35-.17-.58-.26-.57-.26-.4-.14-.4-.14-1.03-.25-1.04-.25-.73-.12-.73-.13-.13-.04-.13-.05-1.42-.13-1.4-.14-3.03.02-3.03.01-.13-.1Zm-.09 1.03v1.15l-.13.17-.13.17v.22l.13.3.13.3.1-.03.12-.03.13-.33.13-.32-.15-.25-.15-.25v-1.1h-.1zm-9.43 3.07-.07.56-.06.56.19.25.19.24v.22l.2.2.2.18.37.3.37.32.46.22.46.23.09.14.1.15-.1.2-.1.19-.06.53-.06.53.15.28.15.28.26.29.26.29.41.27.42.27.19.06.19.06.14.22.15.22.26-.05.27-.05.32.16.33.16.44.44.44.44.27.27.28.27.1.2.1.19-.12.04-.12.05-.3-.13-.3-.14-.41-.23-.42-.24-.27-.25-.28-.26-.22-.4-.21-.4h-.16l-.05.13-.05.13v.55l.15.2.15.22.14.25.13.26.23.1.24.11.14.22.15.2h.48l.11.18.11.17h.31l.51.2.51.2.22.18.22.19H58l.36.09.35.08 1.77.07 1.77.06 1.23-.1 1.23-.12.45-.04.44-.03.25-.1.26-.09.18.06.2.05 1.6 1.55 1.6 1.54 1.78 1.7 1.78 1.69.08.2.08.21.11-.03.11-.04.03-.12.02-.12-2.15-2.09-2.16-2.08-1.25-1.17-1.24-1.18v-.42l.24-.1.24-.08.4-.1.4-.1.35-.27.36-.27.2-.06.2-.05.32-.34.32-.33.18-.28.17-.28.02-.51.01-.52.07-.1.06-.1.37-.18.37-.18.26-.19.27-.18.32-.32.32-.33.16-.34.16-.34-.1-.16-.11-.17.08-.15.08-.15-.05-.23-.04-.24-.18-.12-.19-.12.17-.18.16-.17.67-.34.67-.35.33-.31.33-.31V14h-.25l-.08.12-.07.12-.4.3-.4.3-.48.25-.48.24-.35.11-.36.11-.22.12-.22.11-.57.14-.58.15-.44.08-.44.08-.36.12-.35.12h-.67l-.24.12-.23.11-1.28.1-1.29.1-1.25.07-1.26.07-1.79-.03-1.79-.03-.18-.04-.19-.04-.83-.05-.83-.05-.3-.08-.32-.08h-.54l-.9-.21-.89-.22h-.41l-.09-.08-.09-.09-.52-.09-.53-.1-.13-.1-.13-.12-.4-.1-.4-.1-.62-.35-.62-.34-.32-.27-.33-.26v-.2l.09-.06.1-.06.23.22.23.22.62.3.62.29.42.13.42.14.15.08.16.08.66.2.66.2.14-.02.13-.02.33.12.33.13h.56l.27.08.27.07.53.1.53.09 1.28.08 1.28.1 2.87-.01h2.87l.58-.1.57-.09.75-.06.75-.05.2-.1.19-.11h.77l.17-.13.17-.12h.91l.6-.19.61-.18.09-.06.09-.07.44-.13.44-.13.58-.26.57-.25.3-.22.3-.21.34-.06.34-.05.13-.18.13-.19v-.6l-.08-.17-.07-.17-.17.3-.16.28-.35.38-.36.39-.99.45-.99.46h-.11l-.28.12-.28.12-.58.18-.58.18h-.41l-.27.07-.28.08-1.01.18-1.02.17-1.1.14-1.1.14h-7.17l-.3-.1-.3-.09-.89-.13-.88-.12-.48-.1-.49-.08-.44-.1-.44-.08-.67-.2-.66-.2-.37-.13-.38-.14-.2-.1-.2-.1-.13-.06-.13-.07-.46-.26-.46-.26-.3-.3-.3-.29-.1-.23-.09-.24-.05-.24-.05-.23h-.08zm22.9 3.5h.35l.2.05.2.05v.37l-.2.25-.2.25-.22.23-.22.22-.47.48-.47.48-.22.1-.21.1v.14h-.27l-.5.17-.5.17h-.32v-.3l.76-.77.75-.76.15-.22.15-.2.25-.22.26-.21.36-.2zm-20.14.08.4.02.4.02.08.22.08.22-.4.35-.38.36h-.3l-.1-.18-.1-.19.04-.34.05-.34.12-.07zm1.75.4.32.07.32.08.03.15.03.15-.47.53-.46.53-.14.11-.13.1h-.39l-.27-.23-.28-.23v-.21l.47-.46.46-.47.26-.06zm16.25.1h.58l.05.09.05.08-.15.1-.16.12-.23.3-.24.3-.56.56-.56.56-.29.31-.29.31h-.36l-.15.08-.15.07-.5.06-.5.06-.03-.11-.04-.11.18-.2.19-.18.24-.28.24-.28.38-.42.37-.41.34-.33.34-.33.37-.09.37-.09.25-.08zm-14.98.26.54.02.55.01v.41l-.27.32-.27.3-.46.45-.46.45h-.44l-.21-.1-.21-.11-.1-.14-.08-.13.5-.61.5-.61.2-.13zm11.86.26h1.13l.05.13.06.14v.07h-.26l-.11.16-.12.16-.75.76-.75.77-.28.2-.29.2h-.29l-.29.02-.22.06-.22.06-.1-.1-.12-.11v-.3l-.2.08-.2.08-.22.17-.22.16-.65.03-.65.03-.04-.1-.04-.1.18-.18.19-.18v-.13l.46-.47.46-.47.42-.44.43-.45h.5l.26-.08.26-.1.24.1.23.08v.3l-.7.72-.7.72v.22h.22l.63-.74.63-.75.25-.24.25-.24.28-.12zM56 17.03l.5.01.5.01.12.15.11.15-.04.11-.05.12-.17.05-.17.05v.16l-.65.64-.65.64H55l-.28-.13-.3-.12v-.12l.32-.45.32-.46h.17l.16-.27.17-.26.22-.14zm15.81.04h.28l-.03.1-.04.1-.1.04-.1.03v-.13zm-13.77.01.4.07.41.08.14.13.13.13-.3.32-.3.31-.41.38-.42.38-.05.17-.06.17-.3.12-.3.12-.06-.01-.07-.01-.18-.04-.18-.03-.2-.04-.2-.04v-.5l.19-.06.18-.05.2-.31.2-.32.2-.16.18-.16v-.23h.16l.32-.21zm3.75.2h.95l.1.16.1.15-.45.4-.46.4-.46.52-.47.5-.23.15-.23.15h-.2l-.1-.12-.1-.12.06-.44.06-.45.5-.52.48-.52.23-.13zm-2.16.04.68.03.69.02v.19l-.53.59-.53.58-.41.42-.41.43-.63.01-.62.02-.05-.05-.05-.04v-.31l.18-.1.18-.08v-.24l.57-.54.57-.53v-.21l.18-.1zm11.85.6h.38l-.43.39-.43.38h-.19l-.14.12-.14.12-.6.19-.6.2-.04.07-.05.07h-.53l-.19.1-.18.1-.5.06-.49.07-.61.12-.62.13-.7.1-.72.09-.79.05-.8.05-.68.02-.69.01-.02-.02-.03-.02-.98-.02-1-.01v-.21l.12-.05.11-.04 1.97-.01 1.97-.01 1.03-.13 1.03-.14h.71l.22-.09.22-.08.48-.07.49-.07.62-.2.62-.18.3-.04.31-.04.08-.12.07-.12h.2l.55-.25.57-.26.05-.13zm-19.99.26h.37v.17h-.26l-.05-.08zm.6.25.26.13.26.13h.36l.08.07.09.07.53.15.53.15.53.17.53.16H56l.11.13.12.14.31-.04.32-.04.2.08.2.07.76.04.76.05.18.1.18.09-.17.11-.16.12-.05-.01-.05-.02-.57-.05-.58-.06-.25-.1-.24-.1h-.94l-.32-.13-.32-.13h-.6l-.25-.12-.26-.13h-.72l-.11-.13-.11-.12-.5-.18-.5-.18-.2-.16-.22-.17.04-.04zm17.68 1.01.1.06.09.05v.4l-.18.22-.19.23h-.22l-.19-.26-.2-.25v-.09l.4-.18zm-14.73.52.15.04.16.04.73.15.73.15.48.46.48.45.06.2.05.21-.06.17-.05.17-.28.1-.27.08h-.41l-.67-.65-.66-.66v-.2l-.28-.23-.27-.22.05-.13zm12.66.01h.92l.27.33.27.33v.19l-.35.21-.35.22h-.24l-.43-.53-.42-.52.16-.11zm-1.98.34h1.22l.14.05.14.05v.23l.2.13.18.13.16.24.17.23v.21l-.24.06-.25.06-.1.08-.12.08-.24-.04-.24-.05-.16-.06-.15-.05v.36l-.15.05-.15.06-.37-.2-.38-.19-.26.06-.27.05-.05.22-.06.21-.3.12-.3.12h-.49l-.18-.08-.18-.07-.68-.65-.69-.66-.02-.26-.02-.26.59-.02.6-.02.35.26.36.27v.16l.36.33.36.32h.25v-.12l-.44-.45-.44-.44v-.24l.52-.06.53-.06.25.13.25.13.32.34.32.34.18.09.19.1v-.14l-.12-.18-.1-.19-.25-.18-.24-.19v-.2zm-7.33.17.13.05.14.05v.16l-.15.21-.14.21H58l-.2-.2-.18-.2v-.18l.4-.04zm1.24.04.65.01.64.02.22.1.21.11.25.2.26.21.19.25.18.25.35.4.35.39-.15.1-.15.11h-1.18l-.48-.43-.48-.44-.43-.52-.43-.53v-.11Zm-.69.3h.4l.47.58.46.57.2.2.22.2v.22l-.33.05-.33.05h-.27l-.22-.09-.22-.08-.42-.43-.42-.42v-.26l.23-.3zm10.22.34h.09v.09h-.09v-.05zm-15.2.17h.45l.09.16.09.16.49.15.49.15.44.2.44.2h.31l.13.09.13.08-.13.09-.13.08h-.28l-.17-.12-.17-.13h-.44l-.27-.17-.26-.17h-.35l-.2-.21-.2-.2-.2-.03-.2-.03-.03-.15zm14.86.09H69v.13l-.13.14-.11.15h-.36l-.1.13-.12.13h-.22l-.2.16-.22.15-.35.07-.36.06-.18.04-.2.04-.05-.08-.05-.08.11-.09.1-.08.34-.1.33-.1.05-.08.05-.08.44-.05.44-.06.31-.2zm-10.96.5h.5l.16.17.15.17-.05.09-.06.09h-.58l-.06-.06-.06-.05v-.2zm-.33.69h.75l.43.14.43.14 2.17.03 2.16.02.2-.12.18-.12.88-.02.89-.03.06.07.07.06-.05.05-.06.05-.9.18-.92.18-1.85.01-1.86.01-.8-.07-.79-.07-.35-.03-.35-.04-.25-.1-.26-.09.11-.12zm-1 .77-.1.04-.12.04-.1.17-.12.17h.12l.17-.14.16-.14v-.07zm-.5.55-.28.26-.3.25-.76.85-.77.85-.08.14-.08.15-.4.44-.4.44-.37.39-.38.39v.23h.17l.1-.2.11-.18.34-.32.34-.31v-.18l.21-.13.2-.14.43-.55.42-.55h.13l.65-.81.65-.81.04-.1zm-4.17 4.56-.15.23-.16.23-.11.12-.11.11v.22l.14.12.15.11.17.39.17.38.16.17.16.17.5.92.48.92.06.08.05.08h.17v-.33l-.08-.04-.09-.05-.39-.7-.4-.7-.28-.52-.3-.5-.16-.21-.16-.2v-.38l.18-.22.17-.22v-.18h-.08zm-1.34 1.15v.08l.04-.04zm22.73.55-.13.15-.13.15-.2.34-.21.34-.34.57-.34.57v.24l-.13.1-.12.1-.18.34-.19.34v.17h.07l.07-.01.24-.39.24-.38v-.15l.4-.57.4-.57.08-.18.08-.18.27-.38.27-.39v-.21h-.07zm-28.1.63v.02l.06.06.06.06.43-.01-.27-.07zm8.56 2.24-.05.04-.04.04.14.3.13.28.08.13.08.13.54.88.54.87v.31l-.16.13-.15.14-.8.35-.8.36-.66.25-.66.26-.14.12-.14.12h-.25l-.17.13-.17.12h-.39l-.1.13-.12.13h-.22l-.52.24-.51.25-.23.07-.22.06-.46.24-.47.25h-.18l-.83.38-.84.38h-.17l-.9.42-.91.41-.36.12-.35.11-.13.1-.14.09-.25.1-.25.1.04.05.05.05.47-.15.47-.14.8-.36.8-.36.4-.16.39-.15.13-.1.13-.1.22-.06.22-.06.18-.07.18-.07.4-.16.4-.15.13-.11.14-.11.48-.14.48-.14.13-.1.13-.11.22-.07.22-.06.47-.24.46-.25h.2l.57-.26.56-.25h.2l.67-.34.67-.33.62-.23.62-.22.29-.13.29-.14.16.08.17.07.36.67.36.66-.1.18-.1.18.15.08.14.07v.17h-.36l-.05.12-.05.13h-1.1l-.2.17-.21.17h-.14l-.25-.1-.25-.09.18-.07.18-.07h.25l.25-.01.13-.13.13-.12h.66l.2-.14.2-.13-.05-.07-.05-.07-.42.08-.42.08-.66.18-.66.17-.09.08-.08.07h-.45l-.24.12-.24.12-.27.06-.27.05v.14l-.3.05-.28.04-.7.41-.7.42-.46.4-.46.41-.18.47-.18.47v.5l.08.15.1.15.08.24.09.23h.18v-.23l-.18-.22-.18-.22v-.33l.18-.22.18-.21v-.15l.5-.48.51-.49.4-.17.4-.18.13-.08.13-.08.31-.12.3-.11.32-.11.3-.1.27-.07.27-.07.17-.09.18-.09.7-.15.71-.14.4-.06.4-.06.18-.11.19-.11.4.06.4.05.1.12.1.11-.14.14-.14.14h-.3l-.17.13-.17.12h-.6l-.45.14-.46.14-.55.2-.55.2-.72.35-.71.35-.44.44-.43.43-.04.13-.03.13-.06.23-.05.23-.17-.05-.17-.04-.14.26-.14.26v.4l.17.16.17.14.22-.13.21-.14.14.05.14.05.05.2.06.22h.16l.3.24.28.24.7.37.7.36h.24l.25-.01.1.12.1.12-.22.05-.23.06-.6-.2-.6-.19-.17-.06-.18-.06-.66-.32-.67-.31-.15-.26-.15-.25-.15.08-.15.08-.34-.17-.35-.17-.13-.2-.14-.2h-.24v.22l.57.45.58.45.1.18.1.18.06.3.06.3.07-.28.07-.29.11-.04.11-.04.54.26.53.26h.26l.25.12.25.12.3.1.32.1.53.14.53.12.62.06.61.05.12.08.12.07.99.12.98.12.4.06.4.06 3.3-.01 3.32-.01.3-.1.3-.08.67-.06.67-.05.4-.13.4-.13.46.01.46.02.11-.07.11-.07.53-.14.53-.14.44-.15.45-.14.48-.17.49-.16.13-.09.13-.08.64-.3.63-.29.53-.47.53-.47.17-.33.18-.32.06-.47.06-.48-.24-.4-.25-.42-.23-.25-.22-.24-.58-.36-.57-.36-.28-.14-.29-.14h-.25l-.22-.17-.23-.17h-.26l-.27.14-.27.15-.07-.07-.07-.07.17-.12.17-.11-.17-.06-.17-.06-.36-.14-.35-.15-.48-.1-.49-.11-.33-.08-.33-.08v-.33l.27-.38.26-.37v-.17l.16-.17.15-.18.1-.15.08-.15.8.24.79.24.48.21.49.21.57.2.57.2.49.18.49.19.37.1.37.1.06.06.06.06h.24l.46.22.47.21.66.22.66.21.18.08.17.07.8.31.8.31.23.12.23.12h.33l.18.12.17.11.44.1.44.1.64.3.64.3.22.04.2.05.07-.09.06-.1-.47-.2-.47-.21h-.24l-.67-.27-.68-.25-.33-.17-.32-.17h-.36l-.05-.08-.05-.08-.37-.1-.38-.08-.61-.23-.62-.23-.1-.06-.1-.07-.67-.22-.68-.2-.15-.08-.16-.08-.48-.15-.49-.15-.17-.12-.18-.11h-.33l-.37-.16-.36-.16-.87-.35-.87-.35h-.25l-.57-.26-.57-.25h-.24l-.19-.18-.2-.17v-.14l.17-.2.16-.2.36-.6.35-.6.07-.21.07-.22-.2.17-.2.17-.43.71-.43.72v.22l-.14.05-.15.05-.43-.05-.43-.06v.2l.27.1.26.08v.56l-.3.37-.29.38-.06.21-.05.22-.24.1-.24.11-.71-.05-.71-.06-.11-.09-.11-.08-1.75-.07-1.74-.07-2.21.04-2.2.05-.54.12-.53.12-.26.01-.27.02-.2-.07-.2-.06-.09-.18-.08-.19-.27-.38-.26-.39-.05-.1-.06-.12.1-.2.1-.2.37-.2.38-.18-.11-.04-.12-.04-.43.16-.44.15-.16-.15-.17-.14-.24-.45-.24-.44-.3-.47-.3-.47-.14-.26-.12-.27-.14-.1zm8.58.16-.38.12-.38.12-.22.11-.23.11h-.16l-.14.11-.14.12-1.07.4-1.07.4-.16.12-.17.12h-.28l-.23.18-.22.17h-.26l-.11.13-.11.12h.34l.17-.12.17-.13h.3l.42-.2.43-.21.8-.34.79-.34.26-.14.27-.13h.24l.27-.14.28-.14.16-.08.15-.07h.53l.43.17.43.16.39.17.39.17.35.12.35.12.97.35.97.35.49.18.49.18.08.08.08.08h.4v-.14l-.1-.1-.1-.1h-.37l-.09-.08-.08-.08-.4-.14-.4-.13-.56-.18-.57-.17-.32-.17-.3-.16h-.21l-.26-.12-.25-.11-.3-.13-.32-.13-.22-.08-.22-.09-.5-.15zm-5.49 2.33v.09h.09v-.09h-.04zm6.85 2.35 1.5.05 1.5.06.02.08.03.08-.12.08-.1.07-1.6-.04-1.59-.04-2.69.04-2.7.04-.02.15-.03.16.73-.07.74-.07h3.27l3.26.01.51.06.5.06v-.23l.5-.06.5-.05.08.05.08.05-.05.08-.05.08h-1l.1.09.1.1.3.05.29.06v.42h-.62l-.62-.02-.4-.1-.4-.1-.54.02-.55.04-.07.07-.07.07.11.04.11.04v.14l-.18.05-.17.06v.22l.13.1.13.11v.11l-.28.14-.3.14-.53.05-.54.05-.06-.06-.05-.05v-.36l.25-.15.26-.14h.73l.08-.2.08-.21.1-.07.12-.06-.17-.07-.17-.06h-.24l-.23-.01-.05.12-.05.13h-.18v-.32l-.13-.05-.13-.05-.33.05-.34.05-.15.08-.14.07-.24-.12-.24-.12-.15.05-.14.04-.1.13-.12.13-.34-.1-.34-.1h-.9l-.87.1-.86.1-.25-.1-.26-.1.06-.12.05-.13.05-.12.05-.11-.18-.05-.18-.04v-.19h.63l.12-.12.12-.12 1.35-.06 1.35-.05 1.46-.02zm5.9.6.04.14.03.15h-.68l-.13-.08-.13-.08.06-.05.05-.05.38-.02zm-1.25.46.59.05.58.06.71.16.7.17.27.11.27.12.61.18.62.18.28.15.27.14.36.19.35.19.29.23.29.24.34.41.34.42v.63l-.4.53-.41.52h-.16l-.42.31-.42.31-.58.26-.57.25-.4.17-.4.17-.23.12-.23.12-.7.04-.69.04.31-.1.31-.11.13-.08.13-.09.61-.24.61-.23.28-.22.27-.23.33-.28.33-.3.03-.14.03-.15.1-.18.1-.2v-.69l-.16-.32-.17-.31-.4-.32-.4-.32-.87-.4-.87-.4L70 40l-.26-.1-.64-.18-.63-.18-.23.06-.22.05v-.43l.14-.14zm-15.5.08.28.06.28.05v.15h-.52l-.06-.09-.06-.09.04-.04zm7.54.18.05.13.05.12-.1.12-.1.12.09.06.1.05v.3l-.34.18-.33.17-.35.06-.36.06-.17.03-.18.03-.1-.04-.12-.05v-.22l.33-.27.33-.26h.92l.05-.08.06-.08-.23-.06-.22-.05-.15.05-.15.06-.38-.06-.38-.05v-.15h1.22l.23-.09zm-8.22.17h.43l.06.08.05.09h-.54v-.09zm12.77 0h1l.05.08.06.09h-.18l-.11.03-.12.03-.27-.04-.26-.04-.09-.07zm7.1.08h.09v.09H72v-.05zm-10.38.12.42.02.41.01.1.06.09.06v.32l-.24.16-.25.16-.4.04-.39.04-.34-.03-.33-.03-.05-.12-.05-.12.25-.22.25-.2.27-.08zm-3.31.2.05.13.06.13-.17.17-.16.16-.23.27-.24.27h-.53l-.56.17-.56.17h-.13v-.13l.16-.22.15-.22.3-.3.28-.28h1.21l.19-.16zm6.87.02h.88l.09.1.08.12.05.19.05.2-.25.12-.25.12-.16-.01-.16-.01-.3-.04-.32-.03-.1-.14-.12-.14v-.19l.26-.14zm-9.7.09h.36v.17h-.35v-.09zm11.32.07.13.1.12.1v.26l-.15.12-.15.1-.1.01h-.1l-.1-.11-.1-.12.22-.23zm.82.18.18.02.18.03.03.25.02.26-.26.15-.26.14h-.09l-.14-.13-.14-.13v-.23l.24-.18Zm-12.2.26h.42v.23l-.6.6-.6.59-.26.18-.26.17-.4.53-.4.53-.38.37-.4.38h-.4l-.27-.23-.27-.22v-.45l-.08-.17-.07-.17.16-.3.16-.32.41-.34.4-.35.84-.39.84-.38.58-.13zm12.99 0h.66l.23.08.23.09.06.14.05.14-.13.1-.13.09-.1.19-.11.2-.2-.02h-.2l-.32-.15-.33-.14-.04-.17-.05-.16.2-.2zm1.63.42h.31l.33.1.34.1.05.12.05.12-.13.24-.13.24-.3.18-.3.18H70l-.29-.23-.28-.24v-.18l.3-.31zm-8.31.1.4.06.4.06 1.03.93 1.02.94 1.12 1.06 1.12 1.05-.17.12-.16.11h-.2l-.12.13-.1.13h-.12l-.34-.18-.34-.17-.48-.45-.48-.44-.55-.51-.55-.51-1.03-.95-1.04-.95v-.2l.3-.11zm1.56.05.6.05.6.05.24.15.25.16.7.66.71.67.9.86.91.87v.39l-.17.08-.17.09h-.5l-.19-.11-.18-.1-1.67-1.54-1.66-1.53-.24-.23-.25-.23.06-.14zm-2.87.11.43.33.42.33.46.46.45.46.83.76.83.77.56.49.56.49h.17l-.03.14-.03.14-.62.15-.62.15h-.17l-1.73-1.68-1.72-1.67-.52-.54-.52-.54.08-.06.08-.07.55-.05zm5.03.09h.63l.14.2.14.22.37-.05.37-.05.57.5.56.5.46.43.45.43.28.19.28.2v.32l-.35.21-.35.22h-.33l-.75-.7-.74-.7-.81-.75-.8-.73-.07-.22zm-7.01.01.29.14.29.13v.14l1.99 1.92 1.98 1.92v.23l-.14.05-.14.05h-.91l-.48-.38-.49-.38-.09-.1-.09-.1-1.64-1.6-1.65-1.6.1-.09.1-.09H58l.22-.12zm25.48.07v.41l-.48.18-.48.17-.9.41-.92.42-.45.14-.45.15-.4.24-.4.24-.34.11-.35.1-.72.34-.72.33h-.15l-.52.25-.53.25-.49.2-.49.21-.22.07-.22.06-.75.36-.75.36-.4.17-.4.18-.21.06-.22.06-.14.1-.13.12-.49.19-.48.18-.35.16-.36.15-.4.15-.4.15-.12.1-.14.1-.57.2-.57.18-.47.25-.46.25-.69.26-.68.27-.22.11-.22.12-.31.12-.31.13-.22.06-.22.06-.13.1-.14.1-.55.23-.56.23h-.51l-.5-.21-.5-.22h-.29l-.18-.11-.17-.11-.97-.36-.98-.36-.15-.08-.15-.08h-.29l-.37-.17-.36-.16-.62-.25-.62-.25-.35-.13-.35-.14-.75-.27-.75-.28-.49-.17-.48-.18-.09-.07-.08-.06h-.25l-.56-.26-.56-.26-.14-.13-.13-.13v-.75l-.08-.04-.08-.05-.06.13-.05.14v.49h-.36l-.57-.17-.57-.18-.05-.08-.05-.08h-.35l-.2-.1-.19-.1-.7-.28-.71-.28h-.37l-.17-.13-.17-.12h-.31v.16h.28l.37.2.37.21.4.13.4.13.48.19.48.18.53.2.53.2.4.18.4.2.06.09.06.1-.07.07-.08.07-.34-.1-.34-.1-.29-.13-.29-.11h-.35v.16l.25.06.24.05.12.1.12.09.45.17.44.17.04.11.04.1h-.44l-.1-.12-.12-.13h-.25l-.52-.17-.53-.17-.46-.2-.47-.2-.66-.2-.66-.2-.13-.1-.14-.1-.48-.14-.49-.15-.23-.12-.24-.12h-.2l-.14-.13-.13-.13h-.5l-.06-.08-.05-.07-.28-.06-.29-.06-.57-.25-.58-.25-.25-.12-.24-.13h-.57l-.2-.13-.2-.13v-.25h.33l.43.14.44.14.08.07.09.08h.33l.23.17.22.17h.32l.05.08.06.09h.6v-.16l-.28-.06-.29-.06-.13-.1-.13-.11-.22-.07-.22-.06-.45-.19-.44-.19-.51-.16-.51-.16-.1-.1-.08-.1.06-.1.06-.1.28.04.27.04.49.19.48.2.27.1.26.12.44.17.43.18h.42l.15.08.15.08.53.22.53.22.16.08.15.08h.36v-.17l-.34-.16-.33-.16-.3-.06-.31-.07-.18-.11-.17-.12h-.36l-.17-.13-.17-.13h-.34l-.23-.11-.24-.12-.7-.26-.71-.25-.2-.06-.2-.06v-.33l.16-.05.15-.05.46-.2.46-.2h.16l.11-.14.11-.12h-.35l-.22.17-.23.17h-.32l-.27.13-.26.14-.36.1-.35.1v2.55l.41-.03.41-.03.05.09.06.08.64.19.64.18.23.12.24.12h.35l.1.13.12.13h.25l.46.18.46.18.3.11.31.11.75.27.75.28.36.15.35.15.25.1.24.09h.31l.15.17.15.17h.45l.15.08.15.07.38.18.38.18h.3l.3.26.28.26v.07l-.19.1-.19.1-.36-.15-.37-.15-.26-.1-.27-.12-.57-.18-.57-.19-.15-.07-.14-.07-.96-.32-.96-.32-.09-.06-.09-.06-.75-.31-.76-.3-.12-.01h-.13l-.22-.11-.22-.11-.58-.2-.57-.2-.1-.07-.09-.07-.85-.26-.86-.27-.1-.16-.08-.17h-.17v.31l.46.22.46.22.53.2.53.19.44.19.45.18.35.07.35.06.1.07.08.07.87.3.86.3.24.12.24.12.35.13.35.13.46.18.46.18h.22l.14.12.14.11.53.16.52.15.53.24.52.24h.22l.19.23.18.22v.44l.13-.27.13-.28h.53l.32.21.33.22h.29l.2.13.19.13.5.13.5.12.28.17.28.17h.45l.1.12.11.13.63.18.64.18.4.2.39.19.57.19.58.2.55.24.55.24h.19l.41.18.42.17.22.11.22.12.28.06.29.06.05.08.05.07h.2l.19.01.22.12.22.12h.03l.03.01.23-.12.24-.13.48-.21.5-.22.12-.07.14-.07.29-.15.3-.14h.16l.6-.26.59-.27.44-.2.44-.19.68-.3.68-.31h.19l.68-.3.68-.3.25-.13.25-.12h.22l.17-.17.16-.17h.37l.82-.39.82-.38h.23l.11-.13.11-.12h.41l.05-.08.05-.08.38-.16.37-.17 1.02-.4 1.01-.41.91-.42.9-.41h.1l.57-.26.56-.25h.34l.11-.13.11-.13h.18l.9-.42.89-.41.3-.11.31-.1.49-.22.48-.2.23-.1.22-.1.15-.12.16-.12v-.44l-.13.18-.13.18-.66.3-.66.32h-.24l-.1.1-.1.09-.52.2-.51.2-.57.23-.58.22-.13.11-.13.11-.27.06-.26.07-.33.2-.33.2h-.26l-.25.12-.25.13-.44.18-.44.18-.44.2-.44.19-.75.31-.75.32-.7.3-.72.31-.13.11-.14.12h-.28l-.25.11-.26.12-.61.26-.62.26-.13.05-.14.05-.13.07-.13.08-.49.19-.48.18-.58.26-.57.25-.3.13-.32.13-.3.13-.32.13-.4.19-.4.2-.21.06-.22.06-.88.4-.89.42-.35.14-.35.14-.24.12-.23.12h-.26l-.11.13-.11.13h-.38l-.17-.13-.17-.13h-.48l-.25-.12-.25-.13h-.4v-.16l-.2-.06-.2-.05-.66-.26-.66-.26-.31-.1-.31-.12-.64-.26-.64-.26h-.23l-.57-.3-.57-.3h-.55l-.1-.12-.11-.13-.28-.05-.28-.06-.71-.26-.7-.25-.32-.15-.3-.15-.55-.19-.55-.2-.14-.2-.14-.2.05-.09.06-.08h.29l.84.26.84.26.5.26.5.25.51.16.5.17h.33v-.13l-.24-.1-.24-.09-.93-.36-.93-.35-.28-.12-.27-.12h-.29l-.38-.19-.37-.18-.15-.13-.16-.13v-.25l.22.06.23.05.23.05.23.06-.06-.1-.06-.1-.35-.17-.35-.17v-.15l.2-.05.2-.06-.24-.19-.25-.2v-.28h.21l.63.2.63.22.26.13.26.13h.2l.26.12.25.12.66.26.66.25.84.31.84.3.29.13.29.13h.24l.1.11.1.12.2.05.2.04.74.27.75.28.48.16.48.16.14.12.14.11.29.06.28.06.27.13.26.12.3.05.3.05.34-.2.34-.22.6-.24.6-.24.05-.07.04-.07h.34l1.02-.47 1.02-.47h.08l.9-.39.92-.39.26-.1.26-.12.42-.15.42-.15.1-.12.1-.11h.4l.2-.17.2-.17h.23l.25-.12.25-.12.45-.22.45-.22h.22l1.42-.67 1.43-.67.22-.05.23-.06.4-.17.38-.18.14-.08.13-.08.66-.26.66-.26.15-.08.14-.07.87-.36.87-.35.31-.16.31-.16 1.34-.56 1.34-.55h.28v.32l-.1.08-.12.08-.62.23-.62.24-.22.1-.22.12-.8.32-.79.32-.13.1-.13.1-.61.19-.61.18-.14.11-.14.11-.4.16-.4.16-.14.12-.14.1h-.18l-.65.28-.65.26-.49.21-.48.2-.49.22-.49.22-.15.08-.16.07-.5.18-.49.18-.48.25-.49.24h-.31l-.1.13-.12.13h-.16l-.6.26-.59.26-.26.12-.27.11-.83.36-.84.36-.09.07-.08.08h-.24l-.9.42-.88.43h-.31l-.1.12-.12.13h-.18l-.36.16-.36.17-.49.2-.48.21-.56.23-.56.22h-.36l-.44-.2-.44-.22h-.4l-.07-.08-.09-.08-.62-.22-.61-.23-.31-.09-.31-.08-.13-.1-.14-.11-.75-.27-.75-.27-.26-.06-.27-.05-.13-.1-.13-.11-.49-.15-.48-.15-.45-.2-.44-.2-.22-.05-.22-.06-.3-.16-.31-.16h-.23l-.15-.08-.16-.07-.32-.13-.32-.14-.32-.05-.32-.06v.27l.31.05.31.06.05.07.05.08h.36l.28.12.28.12.8.32.79.31.27.12.28.12h.26l.11.12.11.13h.68l.05.08.05.08.37.17.38.17.22.06.22.06.17.12.18.11h.59l.29.22.29.2h.44l.23.18.22.17h.44l.1.13.12.13.63.18.62.18.12.08.11.09.28-.13.29-.14.32-.13.32-.14h.18l.1-.12.12-.13h.4l.1-.13.11-.13h.23l.5-.25.5-.26h.32l.11-.13.11-.12h.24l.33-.17.33-.17h.2l.51-.26.52-.25h.3l.1-.13.12-.13h.24l.33-.17.33-.17h.23v-.15l.3-.06.3-.05.1-.12.1-.11.23-.05.25-.04.33-.22.34-.22h.43l.06-.13.05-.13h.28l.67-.3.66-.31.15-.08.16-.07h.23l.6-.3.6-.3h.22l.12-.13.1-.13h.32l.1-.12.1-.11.24-.06.23-.06.45-.2.44-.2.49-.19.48-.19.53-.23.53-.24.33-.13.32-.14h.26l.1-.13.12-.13h.33l.49-.25.49-.26H83l.16-.17.16-.17h.37l.17-.13.17-.12h.32v.21l-.18.1-.17.11v.17h.25l.06.1.06.08-.12.13-.11.13-.3.15-.32.14-.03.1-.04.11h.33l.21-.14.2-.14.19.1.17.11.06-.1.07-.1.01-1.18.02-1.18-.18-.1-.17-.08h-.22zm-12.48.17h.23l.3.18.29.17.05.17.06.17-.42.4-.41.4-.4.48-.38.48-.22.1-.22.09v-.13l.13-.18.13-.18v-.49l.01-.13.02-.12-.06-.22-.06-.22.47-.48zm-14.82.15.23.05.22.06 1.7 1.61 1.69 1.61.11.05.12.04.14.26.14.27-.03.09-.03.09-.35.02-.35.03-.26-.08-.27-.07-.29-.15-.29-.15-.13-.2-.13-.2-.36-.24-.36-.26-1.24-1.15-1.24-1.16.12-.1.13-.11.37-.16zm11.8.27.31.14.31.13.27.14.26.13.33.25.34.26.09.16.1.17-.15.2-.14.21h-.22l-.64-.57-.63-.57-.33-.3-.34-.3.22-.02zm-13.1.34.46.42.46.42.93.85.92.85.36.3.35.32-.13.08-.14.09h-.44l-.22-.13-.22-.12h-.56l-.25-.22-.25-.22-.76-.67-.75-.68-.3-.2-.3-.19-.09-.15-.1-.16.3-.24.3-.24.22-.06zm17.06.18h.22l.14.13.14.14v.5l-.55.5-.55.52-.18.05-.17.05-.25.2-.25.2h-.52v-.13l.33-.38.33-.38.36-.34.35-.35.3-.36zm-18.48.76h.36l.54.51.55.52h.14l.17.17.18.17v.17h-.2l-.2-.01-.32-.17-.32-.16-.45-.42-.45-.42v-.18zm29.55 0-.47.26-.47.25h-.25l-.1.13-.12.13h-.4l-.1.12-.1.11-.52.14-.51.14-.11.13-.11.13h-.38l-.22.12-.22.12-.2.1-.2.08v.15l-.55.15-.55.16-.14.11-.14.11h-.32l-.47.26-.47.25h-.25l-.22.18-.22.17h-.36l-.05.07-.05.07-.42.15-.42.15-.4.17-.4.17-.44.21-.44.2-.13.08-.13.07-.36.13-.35.13-.13.05-.13.05-.14.07-.13.07-.28.14-.28.14h-.28l-.05.13-.06.13h-.31l-.1.12-.1.11-.35.06-.35.05v.17h-.52l-.47.3-.47.3h-.28l-.4.2-.4.2-.27.06-.28.06-.05.08-.05.08h-.35l-.15.17-.15.17h-.24l-.24.12-.23.13-.41.17-.42.18h-.25l-.05.12-.05.12-.34.09-.33.09h-.71l-.35-.21-.36-.2-.13-.02h-.13l-.35-.17-.36-.16h-.2l-.1-.13-.12-.13h-.5l-.07-.11-.07-.11-.59-.16-.6-.15-.1-.12-.1-.12h-.48l-.11-.13-.11-.12h-.29l-.24-.12-.24-.12-.29-.06-.3-.06-.11-.1-.12-.1-.32-.1-.32-.13-.27-.04-.26-.04-.38-.17-.37-.17v-.16h-.29l-.27-.12-.28-.11-.34-.05-.34-.05.1.13.11.12h.29l.33.17.33.17h.26l.5.26.48.25h.26l.38.18.37.18.16.07.15.08h.26l.42.18.43.19.44.19.44.19.3.06.32.07.17.11.18.12h.33l.22.17.23.17h.4l.05.08.05.08.58.18.57.18.05.08.05.08h.47l.27.17.26.17h.38l.1-.12.1-.12.43-.13.42-.13.7-.31.7-.3.3-.14.32-.14.13-.06.13-.07.35-.17.36-.17.35-.14.35-.14.27-.12.26-.11.22-.06.22-.06.4-.24.42-.25h.36l.1-.13.12-.12h.29l.17-.13.18-.12h.17l.17-.01.13-.12.14-.11.53-.2.53-.2.14-.1.13-.1.3-.1.32-.11.7-.3.7-.3.16-.07.16-.08.15-.07.16-.07.48-.23.5-.22h.15l.4-.18.41-.18.26-.12.27-.12.49-.17.48-.18.13-.1.14-.11.22-.1.22-.1.44-.17.44-.16.27-.14.26-.13h.29l.1-.13.12-.13h.3l.17-.12.17-.13h.37l.11-.13.11-.13h.41l.06-.08.05-.08.46-.23.46-.22.08-.08.09-.08h-.21zm-30.17.43h.44v.23l.22.23.22.23v.31l-.2.05-.2.05h-.44l-.16-.12-.17-.12-.06-.03-.07-.02-.06-.2-.06-.18.21-.08.22-.08.05-.14zm29.67.51-.5.22-.52.22-.75.36-.75.37-.26.06-.26.06-.5.21-.48.22-.35.15-.36.16-.79.36-.8.35-.4.17-.39.17-.26.11-.27.12-.35.14-.36.14-.32.16-.33.17h-.34l-.1.12-.11.12-.41.15-.42.15-.17.11-.17.11h-.26l-.29.22-.29.21h-.35l-.96.45-.97.44-.39.16-.38.16-.27.11-.26.12-.76.31-.75.32-.48.2-.49.22-.66.3-.66.3-.31.13-.31.13-.32.16-.32.15h-.8l-.65-.28-.65-.29-.28-.05-.29-.05-.35-.22-.36-.22-.29-.05-.28-.06-.54-.24-.54-.24h-.2l-.16-.07-.15-.08-.4-.17-.4-.17-.33-.14-.33-.14h-.26v.17l.24.06.24.05.2.16.21.15.33.1.32.1.36.15.35.14.18.07.17.07.67.23.66.24.3.1.32.11.5.24.51.25h.26l.29.11.29.12.26.09.27.08.06.01.06.01.75-.34.75-.34h.12l.22-.17.23-.17h.32l.87-.4.86-.38.64-.3.64-.28h.08l.48-.21.49-.22h.11l1.27-.6 1.26-.59h.16l.35-.16.34-.16.64-.27.63-.26h.17l.1-.12.1-.12.3-.05.3-.06.1-.12.11-.13h.19l.62-.26.63-.26.53-.24.53-.24.49-.21.48-.21.53-.23.53-.23 1.85-.79 1.85-.79.03-.1.04-.1h-.14zm-12.8.15.06.05.06.06-.46.4-.45.41-.6.2-.6.18h-.4l-.32.13-.32.12h-1.04v-.2l.42-.01h.42l.53-.2.53-.2.16-.08.15-.07h.52l.25-.2.25-.19.42-.2zm-29.56.02.23.06.23.05.46.2.45.2.06.08.06.1h.5l.1.12.12.13h.34l.59.22.59.21.57.22.58.21.13.08.13.08.13.05.14.04.25.13.25.12h.26l1.47.56 1.47.56.33.13.33.14.15.16.15.16-.08.07-.08.06-.57-.2-.58-.19h-.4l-.05-.12-.05-.13-.28-.05-.28-.06-.13-.1-.13-.1-.4-.15-.4-.14h-.36l-.08-.07-.09-.07-.53-.2-.53-.18-.26-.12-.27-.12-.4-.16-.4-.17-.3-.1-.3-.11-.3-.04-.28-.04-.1-.12-.1-.12h-.3l-.08-.07-.09-.07-.77-.25-.77-.24v-.14h-.33l-.11-.13-.11-.12.1-.13zm13.78.26h.34l.21.16.21.16.4.11.4.11v.13l.6.17.6.17.23.05.25.05v.16h-.85l-.08-.07-.09-.08-.53-.14-.53-.14-.57-.11-.57-.12-.16-.2-.17-.2.16-.1zm-10.07.24-.21.03-.2.02.46.24.47.23h.22l.26.13.25.13h.04l.05-.08.05-.08-.42-.18-.42-.18-.28-.13zm10.64.77.25.02.25.03v.17l-.32.03-.32.02-.06-.09-.06-.09.13-.05zm-8.9 0v.18h.22l.33.17.33.17h.25l.1.13.12.13h.5v-.15l-.55-.2-.55-.2-.17-.1-.18-.12h-.2zm23.31.1v.16h-.13l-.18-.08-.17-.07.24-.01zm-10.5.33h.53l-.05.09-.06.08h-.43v-.08zm6.1 0h.43v.17h-.54l.05-.08zm-16.79.35v.22l.06.06.06.06h.59v-.17l-.17-.09-.18-.08h-.18zm2.67 10.03-.05.14-.05.13.05.13.05.13h.32l.05-.08.04-.07-.2-.19zm1.88.26-.31.07-.31.07.88.05.88.05h.09l-.04-.2-.22-.01zm-.93.07-.06.05-.06.06h.24l-.06-.06zm4.25 1.8.02.01h.06z" style="fill:#000"/><path d="M51.17 56.67c.04 0 .13.04.13 0 0-.05-.17 0-.13 0h.32c.19 0 .59-.04.78 0q.2.04.4.06" style="fill:none;stroke:#000;stroke-width:.264583px;stroke-linecap:butt;stroke-linejoin:miter;stroke-opacity:1"/><path d="M58.04 7.6v.67l.02.05v1.11" style="fill:none;stroke:#000;stroke-width:.213282px;stroke-linecap:butt;stroke-linejoin:miter;stroke-opacity:1"/><path d="M50.93 43.38v13.4" style="fill:none;stroke:#000;stroke-width:.276645px;stroke-linecap:butt;stroke-linejoin:miter;stroke-opacity:1"/><text xml:space="preserve" x="65.65" y="6.99" style="font-weight:700;font-size:3.35742px;font-family:sans-serif;-inkscape-font-specification:&quot;sans-serif Bold&quot;;writing-mode:lr-tb;direction:ltr;fill:#000;stroke:#727272;stroke-width:.359724"><tspan x="65.65" y="6.99" style="fill:#000;stroke:none;stroke-width:.359724;stroke-opacity:1">탄소섬유</tspan></text><text xml:space="preserve" x="55.61" y="56.55" style="font-weight:700;font-size:3.35742px;font-family:sans-serif;-inkscape-font-specification:&quot;sans-serif Bold&quot;;writing-mode:lr-tb;direction:ltr;fill:#000;stroke:#727272;stroke-width:.359724"><tspan x="55.61" y="56.55" style="fill:#000;stroke:none;stroke-width:.359724;stroke-opacity:1">탄소섬유</tspan></text><text xml:space="preserve" x="76.5" y="30.48" style="font-weight:700;font-size:3.35742px;font-family:sans-serif;-inkscape-font-specification:&quot;sans-serif Bold&quot;;writing-mode:lr-tb;direction:ltr;fill:#000;stroke:#727272;stroke-width:.359724"><tspan x="76.5" y="30.48" style="fill:#000;stroke:none;stroke-width:.359724;stroke-opacity:1">케블러</tspan></text><text xml:space="preserve" x="38.47" y="29.71" style="font-weight:700;font-size:3.35742px;font-family:sans-serif;-inkscape-font-specification:&quot;sans-serif Bold&quot;;writing-mode:lr-tb;direction:ltr;fill:#000;stroke:#727272;stroke-width:.359724"><tspan x="38.47" y="29.71" style="fill:#000;stroke:none;stroke-width:.359724;stroke-opacity:1">유리섬유</tspan></text></svg>