<svg xmlns="http://www.w3.org/2000/svg" xml:space="preserve" width="120mm" height="60mm" viewBox="0 0 120 60"><path d="m132.84 44.51 61.9 27.13" style="opacity:1;fill:#000;fill-opacity:.920746"/><path d="M73.36 57.42c-.77-.18-.95-.3-1.42-.99-.84-1.23-1.19-1.58-1.47-1.5l-1.88.45c-.88.21-1.8.45-2.05.53-.27.1-.87.06-1.6-.09a79 79 0 0 0-3.05-.53L60 55l-.67-1.1c-.99-1.61-1.14-1.73-1.98-1.5-1.7.44-4.28 1.08-4.74 1.18-.44.09-1.74-.1-4.71-.66-.97-.19-1.05-.24-1.65-1.13-.35-.5-.64-.99-.64-1.07 0-.07-.22-.36-.47-.63l-.47-.5-1.26.38c-.7.2-1.59.49-1.99.62a15 15 0 0 1-3.63.82c-1.22-.02-2.9-.25-3.1-.43-.15-.13-.2-1.24-.2-4.44v-4.26l1.48-1.52 2.42-2.52a5 5 0 0 1 1.36-1.11c.58-.16 3.81.17 5.86.6.49.1 2.12.35 3.63.57s2.92.49 3.14.61c.4.23.4.23-.24.24-.35 0-.9-.07-1.2-.16-.32-.09-1-.2-1.54-.25a35 35 0 0 1-4.17-.59c-.15-.1-1.12-.24-3.78-.58l-1.5-.18-1 .95c-.55.52-1.5 1.46-2.12 2.1a10 10 0 0 1-1.25 1.16c-.07 0-.12.14-.12.32 0 .26.21.37 1.1.55 1.39.28 1.74.23 5.32-.77l2.96-.83.75.93c1.66 2.1 1.75 2.16 3.17 2.4.7.1 1.68.27 2.17.35 1.08.18 2.02.1 3.21-.26.5-.15 1.24-.34 1.65-.42s1.03-.23 1.37-.34c1.09-.32 1.25-.25 2.09.88 1 1.36 1.34 1.55 3.37 1.9.44.07 1.47.27 2.28.44l1.46.3 2.08-.54c1.14-.3 2.23-.55 2.41-.55s.58.29.89.63c.63.72 1.3 1.07 2.48 1.32l1.22.25c.32.06.59-.11 1.3-.84l2.23-2.21c.73-.71 1.26-1.35 1.2-1.42-.14-.14-.36-.18-2.72-.5-.7-.09-1.4-.2-1.53-.26a8 8 0 0 0-1.13-.19 38 38 0 0 1-3.55-.53l-2.18-.42c-.54-.1-1.26-.2-1.61-.2s-.93-.08-1.28-.17c-.36-.1-1.23-.26-1.94-.36-.7-.1-1.72-.24-2.25-.33-.54-.09-1.48-.21-2.1-.27a8 8 0 0 1-1.53-.27c-.22-.08-1.06-.23-1.86-.33a61 61 0 0 1-3.1-.46c-.29-.05-.52-.16-.52-.25 0-.22.75-.21 1.72 0 .43.1 1.4.26 2.15.36s1.8.24 2.33.33c3.94.67 5.4.89 5.85.89.29 0 .65.07.8.16s1.26.29 2.46.44 2.83.4 3.63.53c.8.14 2.07.34 2.82.44s2.1.3 2.98.46c.89.15 2.04.33 2.55.4 1.3.16 1.34.28 1.14 2.67L81.2 47l-.9.75-.88.74.1 2.45c.05 1.36.14 2.6.2 2.75q.1.3-.28.64l-1.97 1.83c-1.56 1.47-1.6 1.5-2.42 1.48-.45-.01-1.22-.11-1.7-.22m2.21-4.37c.05-4.53.04-4.56-1.14-4.69a4 4 0 0 1-.92-.19c-.56-.26-.63.09-.64 3.38-.03 5.58-.05 5.22.36 5.4.2.1.8.15 1.33.13l.97-.04zm1.53 2.9c.47-.45 1.13-1.07 1.48-1.37l.63-.54-.03-1.73c-.01-.95-.07-2.21-.13-2.8-.09-1-.06-1.14.33-1.64.47-.6.54-1.04.18-1.04a.25.25 0 0 1-.25-.25c0-.5-.35-.46-1.17.15-1.32.99-2.21 1.96-2.21 2.4l-.04 3.94c-.03 2.23.02 3.56.12 3.61l.2.09c.02 0 .42-.36.89-.82m-4.6-3.92.05-3.94-.42-.54c-.23-.3-.55-.54-.72-.54-.28 0-.3.22-.31 3.6l-.02 3.6.53.94c.29.52.6.91.69.88.1-.04.18-1.49.2-4m-6.4-.33c0-2 .01-3.7.04-3.78.07-.25-1.1-.72-2.3-.92-.67-.1-1.63-.31-2.15-.47-.55-.16-.99-.2-1.07-.11-.08.08-.16 1.86-.18 3.96-.04 3.18 0 3.85.2 4.1.19.25.7.36 2.19.52 1.07.12 2.11.28 2.32.36s.5.11.66.07c.26-.08.29-.38.29-3.73m2.76 3.16c.85-.22 1.63-.44 1.72-.5.12-.08.13-.78.03-2.24-.15-2.39-.41-3.21-1.37-4.3-.56-.65-.62-.68-1.33-.57-.41.06-.91.23-1.12.37-.37.27-.37.3-.37 3.9 0 2 .05 3.68.1 3.75.12.12.22.1 2.34-.41m-8.88-1.53c.01-.07.04-1.58.06-3.35.03-2.43-.02-3.38-.18-3.84-.26-.7-1.2-1.82-1.33-1.59-.05.09-.09 1.75-.08 3.7v3.56l.53.83c.47.73.96 1.07 1 .7m-7.87-2.79c.06-4.53.05-5.12-.12-5.27-.24-.2-2.1-.51-3.38-.57l-1.13-.05-.02.53c0 .28-.07 1.83-.14 3.43s-.08 3.1-.03 3.34c.11.47.3.54 2.35.83.66.09 1.23.2 1.28.25.04.05.32.09.61.09h.54zm1.32 2.42c.27-.1 1.08-.3 1.78-.47.71-.17 1.36-.37 1.45-.45s.34-.15.58-.15c.85 0 1-.77.7-3.53-.1-.87-.7-1.74-1.35-1.96a.7.7 0 0 1-.4-.43c-.2-.68-.75-1.23-1.22-1.23-.5 0-2.24.45-2.4.62a77 77 0 0 0-.11 7.5c.1.3.3.32.97.1m-6.54-4.06c.02-1.38.08-2.68.13-2.9s.04-.75-.02-1.2c-.1-.64-.27-.97-.96-1.73a6 6 0 0 0-.96-.95c-.07 0-.1 1.6-.07 3.57.05 3.4.07 3.59.41 4.05.2.28.55.8.77 1.16.23.36.46.62.53.58.06-.04.14-1.2.17-2.58m-9.1 1.98c.04-.07.09-1.82.1-3.88l.05-3.74-.55-.2c-.86-.3-2.05-.4-2.3-.17-.33.27-.49 7.1-.18 7.55.26.39 2.7.76 2.87.44m2.92-.54c.62-.2 1.63-.49 2.25-.64 1.79-.45 1.86-.6 1.51-3.13-.13-.94-.24-1.3-.38-1.24-.27.1-1.53-1.42-1.43-1.72.05-.13-.07-.34-.25-.48s-.3-.3-.25-.35c.21-.22-.43-.23-1.73-.03-2.08.34-2 .24-2.12 2.55-.14 2.64-.13 5.29.02 5.45.16.17 1.03.03 2.38-.4m55.37-16-1.2-.24c-2.09-.44-2.51-.52-3.72-.7-.7-.12-1.65-.31-2.1-.44-.69-.2-2.02-.47-6.76-1.34a24 24 0 0 1-1.55-.33 5 5 0 0 0-1.18-.16c-.33 0-.75-.09-.93-.2-.3-.17-1.15-.35-3.2-.67-1.74-.28-2.89-.5-3.01-.59a9 9 0 0 0-1.34-.28 48 48 0 0 1-2.01-.37 55 55 0 0 0-3.4-.68c-.55-.09-2.1-.4-3.44-.7-1.34-.28-2.67-.53-2.96-.53-.28 0-.88-.1-1.32-.23l-.81-.22-.05-1.82c-.02-1-.1-1.89-.18-1.97s-.53-.2-1-.26l-.87-.12-.04-1.17-.05-1.18 1-1.18a92 92 0 0 1 2.01-2.29c1-1.1 1.03-1.1 1.71-.99.38.07.91.2 1.18.28.9.3 2.52.69 2.87.7q.91.02 1.46 1.22c.48 1.07 1.13 1.43 2.77 1.52 1.12.07 1.55 0 2.75-.4 1.39-.47 1.47-.48 2.84-.27 1.91.29 2.27.41 2.47.83a3 3 0 0 0 2.72 1.8c.48 0 .92-.08.98-.18s.28-.17.51-.17.76-.2 1.2-.46l.77-.46 1.63.48c1.48.44 1.64.53 1.85 1.03.5 1.22.74 1.36 2.3 1.36 1.13.01 1.68-.09 2.76-.48 1.5-.54 1.13-.56 5.58.25 1.07.2 2.12.38 2.33.4q.4.05.5.5c.09.41.14.43 1.09.37 1-.06 1.83.16 4.95 1.29 3.88 1.4 5.2 1.6 6.96 1.04.81-.26 1.65-.96 1.15-.96-.22 0-1.97-.84-2.55-1.23-1.06-.7-1.25-.76-2.74-.79-.92-.01-2.44-.22-3.79-.5-3.32-.72-3.26-.71-3.94-.3-.33.2-.64.33-.68.3-.08-.1-3-.76-4.24-.98-1.82-.31-2.42-.52-2.9-1.03a2.6 2.6 0 0 0-1.88-.88 2 2 0 0 1-.8-.18c-.24-.14-.62-.1-1.52.17a4 4 0 0 1-2.3.17c-.6-.1-1.37-.23-1.73-.27-1.3-.16-1.37-.2-1.37-.84 0-.46-.31-1.14-.53-1.14l-.96-.17c-.71-.13-1.2-.1-2.1.12-1.3.31-3.76.37-4.63.11-.48-.14-.56-.23-.51-.63.06-.57-.23-.75-1.5-.9-.54-.05-1.51-.17-2.17-.25a9 9 0 0 0-2.18.03c-.82.13-1.36.08-3.31-.32a23 23 0 0 1-2.62-.63 2 2 0 0 0-.67-.15c-.5 0-.9-.17-.9-.38 0-.1.49-.67 1.08-1.28 2.5-2.53 2.67-2.64 3.39-2.33.24.1.95.26 1.57.34 1.17.16 2.2.34 3.87.68.98.2 3.36.62 4.84.87.44.07 1.9.35 3.22.61 2.88.58 3.85.75 5.24.95.58.09 1.63.28 2.34.43.7.16 1.8.36 2.42.46s1.49.26 1.93.36c.85.19 2.84.56 4.6.86l1.77.33 3.7.7c1.65.3 3.15.58 3.35.63.35.08.36.16.36 1.82 0 .95.07 1.77.15 1.83.08.05.7.19 1.37.3 1.09.18 1.37.17 2.4-.12 2.38-.67 4.73-.3 5.97.96l.67.67.04 3.08c.03 2.99.02 3.1-.33 3.48-.46.5-3.24 1.44-4.62 1.57-.94.09-1.48.03-3.3-.37a13 13 0 0 1-3.1-1.73c-.98-.79-1.49-.53-4.08 2.13-2.6 2.64-2.5 2.57-3.55 2.4m.44-.56c.26-.18.32-5.66.06-5.76-.1-.03-.6.3-1.11.74-1.1.93-1.16.94-3.74.44-3.64-.71-4.8-.93-6.45-1.2l-2.34-.44c-.7-.15-1.83-.35-2.5-.44a26 26 0 0 1-2.25-.45c-.58-.14-1.56-.34-2.18-.42-.62-.09-2-.33-3.06-.53l-2.99-.54-1.77-.33c-.4-.09-1.41-.28-2.26-.43s-2.14-.39-2.9-.54c-2.72-.54-3.6-.64-4.07-.45-.43.18-.44.2-.4 1.5.03.72.12 1.38.2 1.47.1.09.82.3 1.61.45s1.68.37 1.95.45c.27.1.68.16.9.16.23 0 .62.07.88.16.25.09 1.08.25 1.83.36.76.11 1.67.27 2.02.36s1.37.28 2.26.44 1.75.35 1.93.43.69.2 1.13.24c.44.06 1.2.18 1.7.29l2.17.44c4.4.84 10.3 2.01 12.81 2.53.4.09 1.32.24 2.04.34.71.1 1.84.34 2.5.52 1.33.36 1.74.4 2.03.21m2.06-1.44a28 28 0 0 1 2.17-2.06q1.1-.93-.26-1.13c-.41-.06-1.07-.11-1.46-.11q-.74 0-.65-.22c.1-.3 1.12-.28 3.5.07 1.11.17 2.16.31 2.33.31.28 0 .29-.01.04-.3-.32-.39-.34-1.28-.05-2.16l.22-.64-.59-.27c-2.07-.94-2.44-1.02-4.19-.9-1.46.1-1.74.16-2.15.54-.26.23-.53.42-.6.42-.08 0-.19.16-.24.34a.8.8 0 0 1-.45.46 5 5 0 0 0-.96.61c-.8.63-1.35.75-2.24.5a30 30 0 0 0-3.45-.64 5 5 0 0 1-1.14-.26c-.1-.06-.75-.2-1.45-.3s-1.64-.27-2.08-.37-1.2-.25-1.7-.33a260.2 260.2 0 0 0-7.9-1.5 50 50 0 0 1-3.46-.7c-.44-.13-1.46-.36-2.26-.5s-2.03-.39-2.74-.54c-.7-.16-2.12-.42-3.14-.6a128 128 0 0 1-3.71-.7c-4.43-.9-4.4-.9-4.54-.66-.2.34-.16 1.14.06 1.3.11.07.31.14.45.15.26.02 1.07.18 4.53.86 1.2.24 2.37.44 2.59.44s.46.07.55.16c.08.09.7.2 1.36.25 1.2.1 1.62.17 4.1.72.72.15 1.77.35 2.35.44 1.36.2 2.85.49 3.23.62.17.05.8.17 1.4.26q2.39.35 3.91.69c.49.11 1.07.23 1.29.25.4.06 1.94.34 3.47.64a116.07 116.07 0 0 1 4.76.86c4.78.93 4.55.93 5.65.05.48-.39 1-.87 1.18-1.08.17-.2.47-.37.67-.37h.37l-.07 2.31a75 75 0 0 1-.15 3.03c-.07.73.15 1.2.47 1 .1-.07.54-.49.98-.94m-1.53-5.8c0-.11.15-.32.34-.45.31-.2.34-.2.25.06-.06.16-.1.37-.1.46 0 .08-.12.16-.25.16s-.24-.1-.24-.22m15.14 4.5c1.73-.61 1.86-.8 1.88-2.74l.01-1.56-.41.11c-2.68.73-4.46.73-6.54 0a8 8 0 0 0-1.7-.43c-.46 0-.46 0-.53 1.26-.03.7-.12 1.44-.18 1.64-.1.3 0 .47.48.87 1.58 1.3 4.62 1.68 6.99.85M95.58 26.2c.8-.69 1.47-1.3 1.47-1.37 0-.14-.9-.43-2.18-.7-1.37-.27-1.58-.35-1.42-.52.13-.14 1.82.12 3.36.52.5.13.72.1 1-.1.5-.34.46-.59-.1-.59-.27 0-.53-.08-.58-.17-.06-.1-.53-.18-1.05-.18s-1.15-.08-1.39-.18-1-.23-1.66-.28c-1-.08-1.4-.03-2.27.29a10 10 0 0 1-2.28.47c-1.06.08-1.34.04-1.95-.3q-.72-.39-.98-.97c-.34-.78-.77-1.03-2.17-1.29-1.1-.2-1.22-.2-1.93.18-1.5.77-3.15 1.02-3.93.6-.63-.35-1.43-1.12-1.43-1.39-.01-.34-.72-.72-1.77-.94a5.3 5.3 0 0 0-3.43.14c-1.42.5-3.8.58-4.64.15a3.6 3.6 0 0 1-1.56-1.71c-.27-.54-.43-.64-1.27-.83l-1.68-.4c-.4-.1-1.14-.28-1.66-.38l-.93-.19-1.58 1.64c-.9.93-1.6 1.8-1.6 2-.03.28.12.38.82.56.46.11 1.17.25 1.57.31.89.13 2.94.56 3.24.68.12.05 1.17.25 2.32.44s2.46.43 2.9.54c.83.19 1.65.35 3.87.78.71.13 1.65.32 2.1.42.44.1 1.35.26 2.01.36.67.1 1.86.33 2.66.5 2.19.5 3.36.72 3.84.72.24 0 .56.08.72.17.26.15 1.62.43 4.3.88.63.1 1.39.26 1.7.35s1.36.29 2.34.45 1.92.36 2.1.43c.17.08.62.15.98.15.6.01.84-.13 2.14-1.24m4.52-3.97c.36-.25-.09-.7-.7-.71-.27 0-.79-.09-1.14-.19-.36-.1-1.01-.22-1.45-.26-.45-.05-.88-.17-.97-.28q-.25-.29 2.9.22l1.66.26c.68.11.7.1 1.92-1.2l1.24-1.3-.62-.29c-.33-.15-.79-.27-1-.27-.42 0-4.84-.75-6.26-1.06-.45-.1-1.06-.2-1.37-.25s-1.11-.2-1.78-.34-2.33-.46-3.7-.7l-3.8-.7c-.7-.14-1.86-.34-2.57-.45s-1.5-.26-1.77-.35-1.76-.36-3.31-.61a33 33 0 0 1-3.14-.6 6 6 0 0 0-1.3-.25 37 37 0 0 1-4.88-.87c-.15-.05-1.02-.21-1.94-.36l-1.68-.27-1.43 1.42c-.78.77-1.43 1.47-1.43 1.55 0 .07.13.2.28.26.28.13.56.2 2.46.6l1.7.39c.46.1 1.11.15 1.46.1l2.16-.3c1.65-.23 3.67-.14 4.24.2q.75.42.75 1.23c.01.6.4.83 1.67.94.83.07 1.26 0 2.5-.45 1.55-.54 2.87-.68 3.64-.36.46.19.9 1 .9 1.63s.24.74 2.02.98c1.59.22 1.63.22 2.96-.25 2.07-.73 3.11-.5 4.4.99.31.37.72.67.91.67s.5.07.71.16c.37.15.72.24 3.67.87 1.87.4 1.8.4 2.09.2m-71.24 7.83a17 17 0 0 0-1.37-.4l-.97-.23-.04-4.75-.05-4.74.57-.36c.31-.2.57-.45.56-.56 0-.24-.58-.72-1.07-.88-.44-.15-.7.29-.7 1.19 0 .34-.07.62-.15.62-.09 0-.15-.3-.15-.65.01-.36-.01-1.91-.05-3.45l-.07-2.8-.6-.63c-.48-.52-.59-.76-.58-1.3 0-1.57 1.54-2.27 3.33-1.53.8.33.73-.14.76 4.98 0 1.89.07 3.5.14 3.57s.25 0 .4-.17c.24-.26.27-.63.24-2.87l-.04-4c0-1.35-.03-1.46-.47-1.95a3 3 0 0 1-.56-.84c-.18-.6.15-1.35.8-1.85.63-.47.69-.48 1.45-.28 1.46.39 1.35-.01 1.32 4.7-.01 2.3.03 4.23.09 4.3.27.3.34-.95.27-4.75l-.08-4.14-.4-.32c-.25-.2-1.1-.45-2.18-.64a9 9 0 0 0-3.27-.15c-1.29.15-1.48.21-1.4.47q.07.29-.2.4c-1.25.43-2.3.89-3.62 1.58a9 9 0 0 1-2.13.86c-.37.04-.75.23-1.04.53-.27.28-.72.52-1.09.58-.35.05-.81.28-1.03.5-.56.53-1.03.78-1.53.78q-.4 0-.32.18.1.18-.31.07c-.32-.09-.5 0-.8.38-.34.41-.46.47-.7.31-.33-.21-.98.17-2.49 1.45-.48.4-1.14.96-1.48 1.22-1.08.86-1.72 1.48-1.65 1.6.03.07.78.14 1.65.16a40.96 40.96 0 0 1 8.88 1.37c1.6.43 1.87.46 2.18.24.2-.13.55-.35.8-.48.64-.36.66-.47.19-1.44-.54-1.1-.45-1.87.28-2.54.48-.43.59-.45 1.73-.36.67.04 1.37.1 1.54.1.7.04.72.19.72 4.5 0 2.25.04 4.15.09 4.2.12.13 1.03-.84 1.14-1.22.13-.44.4-.4.4.05 0 .35-1.47 2.07-1.77 2.07-.08 0-.38-.22-.66-.5-.6-.6-1.59-.98-2.16-.83l-.41.12v4.28l-1 .82c-1.1.92-1.47.99-3.09.57a3 3 0 0 0-1.14-.16c-.11.04-.3-.05-.43-.22-.18-.23-.22-.98-.18-3.76.03-2.69 0-3.48-.16-3.53a35 35 0 0 0-7.57-1.27c-2.08-.1-2.43-.27-2.43-1.22 0-.52-.09-.43 3.26-3.47l2.66-2.43 5.17-4.71c.94-.87 1.91-1.7 2.14-1.84.36-.21 1.2-.26 4.86-.25 2.88 0 4.78.09 5.4.23l1.7.36c1.01.2 1.81.53 2.05.85.15.2.2 1.4.2 4.6 0 3.44.05 4.34.21 4.34.12 0 .28-.08.37-.17s.75-.22 1.48-.29c.84-.07 1.4-.2 1.52-.37.22-.3.19-1.6-.05-1.9-.41-.54.81-1.17 1.94-1.01.4.05.94.02 1.18-.08.39-.16.43-.27.42-.98 0-.44-.08-.84-.16-.89s-.14-.24-.14-.43c0-.24.3-.5.98-.87.94-.51 1-.52 1.97-.34 1.43.28 4.29 1.1 6.08 1.74 1.66.6 5.14 2.37 6.25 3.18.64.48.68.55.68 1.35v.84l-1.42 1.29a755 755 0 0 0-8.86 8.23 32 32 0 0 1-3.01 2.64c-.3.12-.52.06-1-.28-.84-.6-3.52-1.9-3.92-1.9-.18 0-.46.15-.62.31-.43.45-1.4 1.38-2.77 2.67-.66.62-1.57 1.5-2.01 1.96-.7.7-.9.82-1.45.8-.36 0-.83-.08-1.05-.16M30 27.94c.01-.98 0-2.46-.02-3.27-.04-1.63.04-1.8.86-1.96.64-.13 3.15.29 4.78.8l2.13.65c.42.13.8.18.87.12.18-.2-.08-.65-.39-.65a.8.8 0 0 1-.48-.2c-.19-.22-.7-.44-2.3-1.03a31 31 0 0 0-6.68-1.72 7 7 0 0 1-1.21-.25.6.6 0 0 0-.49.05c-.2.14-.25.85-.29 4.26l-.04 4.1.48.27c.27.15.69.28.93.29s.6.08.78.16.48.15.68.16c.35.01.37-.04.39-1.78m2.54-2.07c1.15-1.24 1.74-2.01 1.65-2.12a2 2 0 0 0-.78-.3 6 6 0 0 1-.89-.25c-.2-.1-.47.1-1 .72-.84.97-1.2 1.72-.94 2 .12.13.43-.06 1.03-.66.48-.47.92-.95 1-1.07.14-.24.59-.3.59-.07 0 .09-.62.82-1.37 1.64s-1.37 1.57-1.37 1.66c0 .14.16.4.25.4.01 0 .84-.88 1.83-1.95m-14.32.97a.5.5 0 0 1 .53-.18c.29.08.51-.06 1.51-.95.15-.13.2-.99.22-3.1 0-1.6.03-3.3.05-3.78.07-1.51-.14-1.65-1.1-.74-.71.66-.71.68-.73 4.36 0 1.6-.07 2.57-.17 2.57s-.13-1.04-.06-3l.1-3.02-.38-.37c-.21-.2-.6-.41-.87-.46-.26-.04-1.57-.32-2.9-.61a32 32 0 0 0-7.29-.83c-1.65 0-2.09.14-1.83.6q.14.24 2.13.48a40 40 0 0 1 5.2.82c.6.15 1.14.26 1.2.25.26-.06 1.32.27 1.44.44.08.11.1 1.66.04 3.43a26 26 0 0 0 .03 3.53c.07.16.4.34.73.4a18 18 0 0 1 1.84.42c.05 0 .2-.1.3-.26m.15-1.3c0-.2.07-.32.16-.26s.16.22.16.36q-.01.23-.16.25c-.09 0-.16-.16-.16-.36m12.88-2.4a.7.7 0 0 0-.8.65c0 .53.19.52.66-.05.43-.51.43-.55.14-.6m8.56-.02c0-.32 2.4-2.82 2.89-3q.5-.2.73-.8c.13-.32.36-.64.52-.7.16-.07.5-.35.76-.62.25-.27.95-.84 1.54-1.26s1.2-.97 1.35-1.21c.15-.25.47-.56.72-.7s.55-.46.68-.72.38-.53.56-.6c.18-.08.5-.5.7-.95.36-.78.4-.8.93-.7q1.44.28-1.06-1.27c-.51-.31-1.13-.58-2.9-1.26a41 41 0 0 0-5.58-1.52c-.64-.08-.92-.04-1.25.2-.51.36-.54.6-.1 1 .6.57.35 1.43-.59 2.06-.47.32-.82.4-1.78.39-1.3-.01-1.52.2-.77.73.34.23.4.4.36.92-.08 1.09-1.12 1.6-3.22 1.61q-1.06 0-1.14.22c-.04.12.18.55.47.97.7.99.69 1.5-.02 2.23q-1.06 1.05-3.28.85c-.9-.09-1.21-.04-1.85.27-.85.41-.92.76-.18.84.7.08 4.62.91 4.78 1.02.08.06.66.24 1.3.42 1.63.45 3.66 1.19 4.3 1.57.33.2 1.13.2 1.13 0m-16.37-1.96q-.1-.36.1-.51c.3-.2-.05-.89-.64-1.26-.55-.35-1.72-.44-2-.15-.23.26.09.54.63.54.42 0 1.45.46 1.6.7.05.1-.08.18-.3.18-.23 0-.46-.08-.51-.18-.06-.1-.39-.17-.74-.17-.86 0-.86.44 0 .57.34.05.83.2 1.08.35.69.39.9.37.78-.07m.14-2c.18-.21-.22-.75-.76-1.04-.67-.34-1.8-.28-1.8.1q0 .27.75.35c.4.05.92.22 1.13.38.43.33.53.36.68.2m8.59-.98c.23-.27.1-2.23-.15-2.23-.09 0-.3.13-.46.29-.28.27-.32.27-.66-.07-.49-.48-1.05-.65-1.33-.4-.34.31-.28 2.4.07 2.64.34.22 2.28.05 2.53-.23m-4.49-.35c-.33-.54-1.38-1.11-1.6-.87s.1.73.5.73c.15 0 .41.12.58.26.18.14.42.26.54.26.18 0 .18-.06-.02-.38m-3.9.03c.16-.3-.38-1.03-.86-1.14-.24-.06-.6-.18-.78-.28-.57-.3-1.1-.12-1.16.4-.05.43 0 .46.73.54.42.04.99.2 1.25.35.6.34.68.35.81.13m3.94-1.13c0-.37-1.4-1.09-1.63-.83-.13.14.04.3.6.63.94.52 1.03.54 1.03.2m-4.19-.86c-.11-.15-.3-.27-.4-.27-.12 0-.3-.12-.41-.27-.3-.39-2.07-.29-2.32.13-.28.49.1.76.68.5.39-.17.62-.15 1.42.14.98.36 1.41.26 1.03-.23m4.3-.23c.08-.24-1.05-1.09-1.44-1.09-.37 0-.56.51-.27.71.13.09.38.16.57.16s.44.12.55.27c.22.29.5.27.6-.05m3.11-.37c0-.24-.75-.72-1.12-.72-.5 0-.4.34.2.61q.91.45.92.11m-7.25-.28c0-.46-.75-.81-1.97-.9-1.29-.1-1.89.15-1.69.7.1.28.13.28.52 0 .47-.33 1.57-.24 2.3.19q.84.5.84.01m4.03-.6c0-.31-.85-.89-1.31-.89-.72 0-.55.4.3.72.98.36 1 .36 1 .17m3.22-.34c0-.15-.84-.55-1.15-.55-.26 0-.14.5.15.58.5.14 1 .13 1-.03m-3.22-.7c0-.5-1.33-1.1-1.77-.81-.28.19-.02.44.45.45.24 0 .57.12.75.26.35.3.57.33.57.1m3.06-.14c0-.25-.55-.75-.82-.75-.52 0-.5.33.05.59.62.3.77.32.77.16m-2.99-.91c.18-.3-.12-.73-.67-.98-1.13-.51-2.65-.17-2.4.53.08.24.25.27.86.2.48-.07.98-.02 1.33.13.73.3.77.3.88.12m3.23-.18c.13-.24-.74-.9-1.12-.85-.52.08-.38.5.24.75.73.29.77.3.88.1m-3.17-1.46c.07-.38-.82-.85-1.65-.86-.75-.02-1.38.28-1.38.65 0 .2.17.22.76.15q.77-.1 1.33.17c.66.3.87.28.94-.1m3.05.09c.1-.31-1.04-.85-1.27-.6-.24.26.06.69.56.79.47.1.64.05.71-.2m0-1.29c.1-.52-1.33-.9-1.51-.4-.13.35-.03.44.62.6.66.18.84.13.9-.2m-.55-1.08.67.12-.3-.38c-.38-.46-1.3-.5-1.85-.09-.47.35-.17.64.42.4.21-.09.69-.11 1.06-.05m.6-1.26c0-.3-1.27-.5-1.82-.26-.76.3-.5.5.68.5.82-.01 1.13-.07 1.13-.24" style="fill:#000"/></svg>