<svg xmlns="http://www.w3.org/2000/svg" xml:space="preserve" width="192" height="122" viewBox="0 0 192 122"><path d="m100 54.5-.4 1.7" style="opacity:.941432;fill:#2b2200;fill-opacity:.920746"/><path d="M99.8 53.9v3.4" style="opacity:.941432;fill:#231f1d;fill-opacity:.92074603"/><path d="M99.6 54.4v.2l.4-.2zm.7 1h-.7v.1h.7z" style="opacity:.941432;fill:#171614;fill-opacity:.920746;stroke-width:.636209"/><path d="M100.1 52.7v1.7l.4-.1v-1.6Zm.4 2.5-.4.1V57h.4z" style="opacity:.941432;fill:#fffff4;fill-opacity:.920746;stroke-width:.916706"/><path d="M109.3 23.3v13.9l-.2.2-.3.2H95.3l-.2.2v.2h.3l7 .2h6.6l.1.2.2.2v1.7l-.1 1.7h-4.4l-4.4.1v.3l.2.2h4l4.2.1.2.2.3.2v3.3l-.3.2-.2.2H95.1l-.1.2-.1.1 3.3.2H109v2l.2 1.6-.2.2-.1.2h-4.2l-4.2.1-.1.3-.1.2h8.7v2.2l.1 1.4-.1.5-.2.4H95.3l-.2.2v.2h.2c.2.1 3.4.2 7 .2h6.8v1.8l.1 1.5-.2.2-.2.2h-8.2v.2l-.2.2 1.4.1h7.1l.2.2.1.2V63l-.2 1.5H95v.2l-.2.2h7l7 .2v3.2h-8.7v.6h8.6l.2.3.2.2v1.4l-.1 1.3h-6.5c-7.7 0-7.8 0-7.8.4v.2H109l.2 1.5V76l-.2.4-4-.1h-4.3l-.2.2v.2l.2.2h4.2l4.3.1-.1 4.5-.1.1H35.2l-.2.1v.1l.2.2.3.2h5.4l.1 1.1v1.2h.4l.1-1.2v-1l.3-.1h3.9v5.2h.6v-2.6c0-3-.2-2.6 2-2.6 2 0 1.8-.2 2 1.2l.2 1.1h.2l.3.2v-2.3l.3-.2.3-.2h1.6l1.5.1.3.2.2.1v5.1h.2l.3-.2.1-.2-.2-.3-.1-.4v-1.9l.2-2 .3-.2.2-.3 1.5.1h1.9v1.2q.3 2.8.8 0l.1-1 1.6-.1 1.7-.1.3.1.3.2v5.4h.2c.3 0 .4-.6.4-3v-2.4l.2-.1.2-.2h1.7l1.7.1.1.1.2 1.3q.4 2.5.6-.3v-1h2l1.8-.1.2.1.2.2v5h.4v-4.3l.2-1h3.8l.2.4.2.6v1.2h.3l.1-1v-1.1h2l1.9-.1.1.1.2.2v3.4l.1 3.4.2.2v-7.1l.3-.1 1.7-.2h1.6l.5.1.4.2v1.8l.2.2.2.3v-.3l.2-1.2v-1h4v5.4h.3v-2.4l.1-2.5.2-.3.3-.2h3.7v2.5l.2.2.2-.2.3-.1-.1-.6-.1-.6.2-.6.1-.6h3.7v.2l.2 2.4c0 2.3 0 2.8.4 2.8h.1v-5l.3-.2.2-.2h3.6l.1.2.2 1.1.1 1 .2.2v-.2l.2-2.1.2-.2h1.5V109l.1.2c.3.4.3 0 .3-2.5v-2.6l.3-.2.4-.2H122l.2-.2-.3-.2-.3-.1h-11.6l-.2-.3-.2-.2V99l.4-.2.2-.2h5.3v-.3h-2.8l-2.8-.1-.1-2v-2l.2-.2.2-.2h5.1v-.4h-2.7l-2.7-.1-.1-2v-2l.3-.2.4-.3 2.5.1h2.4v-.2l.2-.2-2.7-.1-2.9-.2h-.2v-4l.2-.1.2-.2h5.2l.3-.2v-.1l-.2-.2h-5.3l-.2-.2-.2-.2v-3.6l.1-.3.2-.2h6l5.8-.1.1-.2.1-.3h-12.2l-.1-2v-2l.4-.3.4-.2 2.3.1 2.4.1.1-.2.2-.2h-2.9l-2.5-.2-.2-.2-.2-.2v-3.8l.2-.2h3c2.7 0 2.9 0 2.6-.4v-.2h-3.1v-.2q-.5 0-.6-.2l-.4-.1h-1.7v-3.7l.3-.2.4-.2h5v-.3h-5.3l-.2-.3-.2-.2v-3.7l.5-.2.5-.1h4.8l-.2-.2v-.2H110l-.2-.3-.3-.2.1-1.9v-1.9h6.2c6-.2 6.5-.3 6.2-.6l-.2-.1-6-.1h-6.1l-.1-2v-2l.3-.3.3-.2h5.1l.1-.2.2-.2h-.3l-5.5-.3h-.2v-3.8l.4-.3.5-.3 2 .1 2 .1h.5l.5-.2v-.4h-5.5l-.2-.1-.3-.2.1-2v-1.9h2.8l2.8-.2v-.4H110l-.2-.4-.2-.3v-3.3l.2-.3.2-.3h5.3V34l-.1-.2h-2.7l-2.5-.2-.2-.2-.2-.2v-3.5l.3-.3.3-.3 2.4.1 2.3.2 3.6-.2 3.6-.1v-.3h-11.8l-.4-.2-.4-.2v-2.5l.1-2.5h-.2zm18 3.4h-.7l-.6.1-.3.4-.3.5.8-.2h.8v.2l-.4.7-.3.4.5.3.4.4v.4l-.1.5h-.6l-.6-.1-.2.2-.3.2.3.3.2.2h1l.5-.4.7-.7.2-.4-.3-.6-.3-.6.1-.5.1-.5-.3-.4zm2.2 0-.4.6-.4.9v.2l.7.3 1 .7.1.3-.2.3-.2.4h-.8l-.8-.1v.3l.1.5.8.1h.6l.6-.5.6-.5v-.6l-.1-1-.1-.4-.6-.2-.5-.1v-.4h.4l.7-.2.3-.2-.2-.2-.1-.2h-.8zm-38.8 8.8-.3.4-.5.7-.3.5v1.5l.5.6.5.7H92l.5-.7.5-.6V37l-.6-.7-.6-.7h-.5zm.6.6.3.4.4.3v2l-.3.2q-.5.6-.9 0l-.2-.4v-1.9l.4-.3zm-.6 8.7-.3.3-.4.3v1.2l.3.2.2.2-.4.5-.4.5.1.3.7.7.4.3h.9l.5-.5q.7-.6.1-1.4l-.3-.4.2-.8v-.8l-.2-.3-.4-.3h-.5zm.7.5.3.1.1.1.2.4q.1.4-.1.6l-.4.1q-.3 0-.5-.2h-.2v-.1h-.2v-.6l.4-.3zm.1 2q.3 0 .5.3l.2.4q0 .3-.2.5t-.5.3l-.5-.1-.1-.1-.2-.1v-.2h-.1V48q-.1-.3.1-.4.1-.2.4-.3zm35 4.4q-.4 0-.9.4l-.4.3.1.2.2.3.2-.2.5-.2h.4v.7h-.3l-.3.2v.6l.4.2.4.2v.3l-.2.5-.3.3-.3-.2-.4-.2-.2.1-.2.2.3.3q1 .8 2-.6l.3-.4.2.3q.1.3.8.7l.6.3.5-.2.5-.3.2-.6.2-1.3V53l-.3-.5-.4-.6h-1.4l-.4.5-.4.4v1.5l-.2-.2-.3-.3V52h-.3zm3 1q.3 0 .4.2l.1.4v1.1q0 .2-.2.4l-.2.1h-.2l-.3.1-.3-.6v-.7l.1-.2q0-.3.2-.6zm-37.2 1.8h-.9l-.9.9-.9.8v1.7l.5.5.5.5h1.3l.4-.5.4-.5v-1.1l-.4-.5-.5-.4h-.6v-.4l.7-.3.7-.3-.1-.2zM91 56.3h.4l.4.3.1.4q.3 0 .3.3v.2q0 .3-.2.4l-.5.2h-.1l-.6-.1-.2-.2-.3-.4v-.5q0-.2.2-.2v-.1q0-.2.4-.3zm.4 6.7-.9 1-.9 1.2v.4l.1.5h.7l.7.1.2.4q.4.8 1-.2t.1-1l-.2-.1V63h-.4Zm.1 1q.3 0 .2.3v.7q0 .3-.2.4h-.1l-.4.2h-.3q-.4 0-.3-.4V65l.3-.3.6-.6zm.1 6.7h-1.1l-.4.4-.5.3v.6h.3q.4 0 .4-.2l.1-.1h1v.8l-.6.8q-.6.8-.7.8c-.3 0-.5.6-.3.8v.1h2l.4-.2.3-.1v-.8l-.6.1-.7.2V74l.6-.8.5-.6v-1.1L92 71zm34.5 5.8-.4.4q-.5.3-.5.7v.3h.3l.4-.2q.5-.5 1 0l.1.2-.1.5-.1.5-.6.6-.7.9-.3.3.2.3.3.3h1.7l.4-.4.5-.3.3.3c.8.8 2.6-.4 2.6-1.6V79l-.7-.7c-.8-.8-.8-.8 0-1h.5v-.8h-1.7l-.4.7-.4 1v.2l.8.3.8.3v.3l.2.3-.2.3-.2.3h-1.1l-.2.1-.2.2-.1-.3-.1-.2h-.7l-.7.2V80l.5-.7.4-.6.2-.6v-.6l-.4-.5-.5-.5h-.5zM84.4 90.3H83l-.4.9-.4.8v.2l.5.1h.4l.5.5.6.4-.3.6-.2.5-.8-.2h-.7l-.2.1-.1.3.4.3q1.2.8 2.2-.6l.3-.4v-.5q.1-1-.8-1.4l-.5-.3v-.2l.2-.2h.9l.1-.2.2-.2-.3-.3zm45.9 11-.2.2-.2.2.2.5.2.5v1l-.2 1.1v.3h-.8l-.1-.4a8 8 0 0 1 .2-2.8l.1-.5-.4.1-.4.1-.3.6-.3.7v2l.6.5.6.5h.9l.5-.5.5-.5v-2.6l-.5-.5zm-4.6 0-.3.5q-.3.4-.3.7v.2h.2l.6-.3.3-.3.3.1.3.1v.7l-.2.7-.8.8-.8.8.3.3.2.3h1.8l.3-.3.3-.6v-.3l-.6.1-.7.2v-.2l.3-.4.6-.8.3-.5V102l-.4-.3-.3-.3h-.7z" style="fill:#000"/><path d="M109.3 23.3V37l-.2.2-.3.3H95v.2c0 .3.6.3 7.3.4h6.5l.2.3.3.3v1.6l-.1 1.6h-4.3l-4.5.2-.3.1.3.2.3.2h8.1l.2.2.2.3v3l-.2.3-.3.3H95.1l-.1.2-.2.2 7 .1 7 .1.2.2.2.2v3l-.1.5h-4.3l-4.2.1-.1.3-.1.2h8.5v.2l.3 1.8v1.6l-.1.4-.2.5H95.3l-.2.2v.2h.2c.2.1 3.4.2 7 .2h6.8v1.7l.1 1.4-.2.3-.1.3h-8.5v.4l.7.1.7.1h7.1l.1.1.2.1v1.3l-.2 1.5-.1.3H95.1v.2l-.2.2h7l7 .2v3.2h-8.7v.6h8.3l.4.2.3.2v1.4l-.1 1.4H95l-.3.2-.2.2h.2c.2.1 3.5.2 7.3.2h6.9v1.7l.1 1.5-.2.2h-8.2l-.2.2-.3.2.3.2.2.1h8.4v4.4l-.3.2-.2.1H35.1l-.1.2.1.2.1.2H41l.1 1.2v1.1h.3l.2.2v-2.2l.2-.2.2-.2h1.9l1.9.2v5.4l.3-.2.3-.2v-2.5l.1-2.5s3-.2 3.6-.1h.2v.8l.1 1.2.1.4h.6v-2.3l.7-.1c.7-.2 3-.1 3.3 0l.2.2v5.3l.2-.2.2-.2v-4.7l.4-.3.3-.2h1.6l1.7.1v2l.2.2.2.3.1-.1.3-1.2.1-1.1 1.7-.1 1.7-.1.3.1.2.2v5.5l.3-.1h.2L65 85l.1-2.7H69v.8q0 1.8.4 1.7h.2v-1.2l.1-1.3h2l1.8-.1.2.1.2.2v5h.2l.1.1.4-5.2v-.2h3.8v.6l.2 1 .1.6h.3l.1-1v-1.1h4.1v3.5l.1 3.4.2.2.2.2v-3.8l.1-3.5H88l.1 1 .1 1.2h.4v-1.1l.2-1.1h3.8v5.3h.4v-2.4l.1-2.5.2-.3.2-.2h3.6l.2.4v1.1l-.1.7.1.2.2.3.2-.2h.2v-.9l.1-1.2.2-.4h3.6v.2l.2 2.7v2.4l.3.1h.2v-5l.3-.2.2-.2h3.6v.2q.2.2.3 1.1v1l.2-.1h.2v-1.9l.2-.2.2-.1h1.3v27.3h.3l.3-.2v-2.5l-.1-2.6.4-.2.3-.2h5.8c5.8 0 6.1 0 5.9-.3l-.1-.2h-11.9l-.2-.3-.2-.2v-1.9l.1-1.8.3-.2.2-.2h5.3v-.3h-2.8l-2.8-.1-.1-2v-2l.2-.2.2-.2h5.1v-.4h-2.7l-2.7-.1v-4.2h2.8l2.8-.1.1-.2.2-.1-.3-.1-3-.2-2.6-.2v-4.1h2.5l2.9-.2.4-.1v-.2l-.2-.2h-5.3l-.2-.2-.2-.2v-3.7l.2-.2.3-.2h5.8l5.8-.1.1-.2.1-.3h-12.2l-.1-2v-2.1l.5-.2.5-.2 2.2.1 2.1.1h.2l.3-.2-.3-.2-.2-.2H110l-.2-.2-.2-.2v-3.9h.6q.6-.2 1.5-.2h3.9l-.1-.2-.1-.2h-.4l-1.1-.1-1.5-.1q-.6 0-.7-.3l-.4-.1h-1.7v-3.7l.5-.2.4-.2h4.8v-.3h-5l-.4-.2-.3-.2v-3.8h.2c.3-.2 2.1-.3 4.4-.3h1.2l-.2-.2v-.2h-5l-.3-.3-.4-.2.1-1.9v-1.9h6.2l6-.1.2-.2.1-.1-.1-.2-.2-.1-6-.1h-6.1l-.1-2v-2l.3-.3.3-.2h5.3v-.4h-.4l-3-.2h-2.4l-.1-2v-1.9l.2-.2.3-.2h2.6l2.7-.1v-.2l.2-.3H110l-.2-.1-.3-.2.1-2v-1.9h2.9l2.8-.1v-.6h-5.3l-.2-.3-.2-.3v-3.3l.2-.3.2-.3h5.3l.1-.1.1-.2-.3-.1-2.7-.1H110l-.2-.3-.2-.2v-3.5l.4-.3.5-.3 2.2.1 2.1.2 3.6-.2 3.7-.1v-.3h-11.8l-.4-.2-.4-.2v-2.5l.2-2.5h-.3zm16.8 3.4-.3.3-.4.5v.2l.8-.1.8-.2v.8l-.3.2q-.3.2-.3.5v.2l.4.1.4.1v.5l-.1.6h-.7l-.6-.1-.2.2-.1.2.2.3.2.2h1.1l.5-.5q.6-.4.7-.8l.1-.4-.3-.4-.3-.5.1-.6.1-.5-.3-.4-.3-.4h-.6zm3.4 0-.4.6-.4.9v.2l.7.3 1 .7.1.3-.2.3-.2.4h-.8l-.8-.1v.3l.1.5.8.1h.6l.6-.5.6-.5v-.6l-.1-1-.1-.4-.6-.2-.5-.1v-.4h.6l.6-.1V27l.1-.3h-.8zm-38.9 8.8-.4.5-.6 1.2-.1.7v.4l.7 1 .4.6H92l.5-.6.5-.6V37l-.6-.7-.6-.7h-.5zm.7.6.3.4.4.3v1l-.1 1-.5.3-.4.2-.2-.3-.2-.4v-1.9l.4-.3zm-.6 8.7-.3.3-.4.3v1.2l.2.1.2.2-.4.6-.4.6.6.6.6.6h1l.5-.5q.7-.6.1-1.4l-.3-.4.2-.8v-.8l-.2-.3-.4-.3h-.5zm.7.5.3.1.1.1.2.4q.1.4-.1.6l-.4.1q-.3 0-.5-.2h-.2v-.1h-.2v-.6l.4-.3zm.1 2q.3 0 .5.3l.2.4q0 .3-.2.5t-.5.3l-.5-.1-.1-.1-.1-.1-.2-.2V48q-.1-.3.1-.4.1-.2.4-.3zm34.4 4.4-.3.4-.4.3.1.3.2.2.2-.2.6-.2h.3v.7h-.3l-.3.2v.7l.4.1.4.1v.4l-.2.5-.3.3-.3-.2-.4-.2-.2.2-.2.2.3.3.7.2h.4l.6-.6.7-.7.1.3q.1.4.7.7l.7.3.5-.2.5-.3.2-.6.2-1.3V53l-.3-.5-.4-.6h-1.4l-.4.5-.4.4v1.5l-.2-.2-.3-.2v-1l-.1-1h-.7zm3.6 1q.3 0 .4.2l.1.4v1.1q0 .2-.2.4l-.2.1h-.2l-.3.1-.3-.6v-.7l.1-.2q0-.3.2-.6zm-37.1 1.7-.5.1h-.4l-.7.6-.7.5-.3.6-.3.7v.5l.2.5.4.5.5.5h1.2l.5-.4.4-.5v-1.2l-.4-.5-.5-.4h-.6v-.4l.7-.3.7-.3-.1-.2zM91 56.3h.4l.4.3.1.4q.3 0 .3.3v.2q0 .3-.2.4l-.5.2h-.1l-.6-.1-.2-.2-.3-.4v-.5q0-.2.2-.2v-.1q0-.2.4-.3zm.4 6.7-.9 1-.9 1.2v.4l.1.5h.7l.6.1.3.4q.4.8 1-.2t.1-1l-.2-.1V63h-.4zm.1 1q.3 0 .2.3v.7q0 .3-.2.4h-.1l-.4.2h-.3q-.4 0-.3-.4V65l.3-.3.6-.6zm25.6 1.8-.3.1h.3m-2.3.8-.3.1q.3 0 .3.2v-.3m-23.2 4.1h-1.1l-.4.4-.5.3v.6h.3q.4 0 .4-.2l.1-.1h1v.8l-.6.8q-.6.8-.7.8c-.3 0-.5.6-.3.8v.1h2l.4-.2.3-.1v-.8l-.6.1-.7.1q0-.3.6-.9l.5-.6v-1.1L92 71zm34.6 5.8-.5.4-.5.3v.7h.3l.4-.2q.5-.5 1 0l.1.2-.1.5-.1.5-.8.8q-1.2 1.3-.5 1.4l1 .1h.9l.4-.3.5-.3.3.3c.8.8 2.6-.4 2.6-1.6V79l-.7-.7c-.8-.8-.8-.8 0-1h.5v-.8h-1.7l-.4.7-.4 1v.2l.8.3.8.3v.3l.2.3-.2.3-.2.3h-1.1l-.2.1-.2.2-.1-.3-.1-.2h-.7l-.7.2V80l.6-1 .5-.7v-.9l-.4-.5-.4-.5h-.4zM84.4 90.3H83l-.4.9-.4.8v.2l.5.1h.4l.5.5q.8.7.2 1.1l-.3.3h-.7l-.6-.2-.2.2-.1.3.4.3q1.2.7 2.2-.6l.3-.4v-.5q.1-1-.8-1.4l-.5-.3v-.2l.2-.2h1V91l.2-.3-.3-.2Zm45.3 11-.3.2h-.5l-.5.6-.3.6v2.2l.6.5.6.5h.9l.5-.5.5-.5v-2.5l-.4-.5-.4-.5h-.6l.2.4.2 1.4.1 1-.1.5-.1.4h-.8v-.4l-.2-1v-.8l.3-.8zm-4 0-.3.5q-.3.4-.3.7v.2h.2l.6-.3.3-.3h.3l.3.2v.4q0 .6-1.1 2l-.7.7.3.2.2.3h1.8l.3-.3.3-.6v-.3l-.6.1-.7.2v-.2l.3-.4.6-.8.3-.5V102l-.4-.3-.3-.3h-.7z" style="fill:#000"/><path d="m126.1 26.7-.2.2-.3.5v.2h.7l.7-.2v.3l-.4.7-.3.4.5.3.4.4v.4l-.1.5h-.6l-.8.1-.1.1.1.4.1.3.7-.1.7-.2.4-.3.6-.7.1-.3-.3-.5-.2-.6v-1.4l-.3-.3-.2-.2h-.6zm3.4 0-.4.6-.4.9v.2l.7.3q1.1.4 1 1.1v.5h-.3l-.4.2-.5-.1-.4-.2-.2.3-.1.2v.2l.2.3h1.3l.6-.5.6-.5v-.4l-.1-1-.1-.6-.6-.2-.5-.1v-.4h.4l.7-.2.3-.2-.2-.2-.1-.2h-.8zm-20.1 1.8v4.4l-.1 4.4-.3.2-.2.1H95.2v.2l.2.2h6.8l6.8.2.1.2.2.2v1.7l-.1 1.7-4.3.1-4.3.1v.4h4l4.2.1.2.2.4.2h.2l.1-1.9v-1.8h2.8l2.8-.2v-.4h-5.1l-.3-.3-.2-.2v-4h5.7v-.4l-2.7-.1-2.6-.2-.3-.2-.2-.3v-3.5l.4-.2.3-.3h2.4l6 .1h3.5l-.1-.2-.2-.2H116l-6.2-.2zm-17.7 7h-.6l-.6.1-.4.7-.5.6v1.7l.5.6.5.7H92l.5-.7.5-.6V37l-.6-.7zm-.5.6.4.3.4.3v2l-.3.3q-.5.6-.9 0l-.2-.4v-1.9l.3-.3zm-.5 8.7-.3.3-.4.3v1.2l.3.2.2.2-.4.5-.4.5.1.3.7.7q.6.4 1.3.1l.5-.2.2-.4.3-.5-.3-.4-.3-.5v-2L92 45l-.8-.1zm.7.5.3.1.1.1.2.4q.1.4-.1.6l-.4.1q-.3 0-.5-.2h-.2v-.1h-.2v-.6l.4-.3zm18.1.6-.3.4-.2.4h-7l-7 .1v.4h7l7 .3h.2V51l-.1.3-.2.2h-4l-4.3.1h-.2l.1.2.1.2h8.5v.3l.1 1.9v1.5l-.1.4-.2.4H95.2v.3l.2.2h6.7c3.8 0 6.9.1 7 .2l.1 1.6v1.6l-.2.2-.2.2h-8.2v.4h8.2l.2.3.2.2V63l-.2 1.5H95.2l-.1.2v.3h13.8l.1.3.2.3v1.4l-.1 1.4h-8.7l-.1.3-.1.2h8.6l.2.3.3.2v2.3l-.2.2-.1.2h-7l-7.2.3v.3H109v.2l.3 1.4v1.1l-.1.4-.2.5h-8.5v.1c0 .3.5.4 4.5.4l4.1.1.1 2.2v2l-.2.3-.1.1H84.6l-49.6.1v.1l.1.2.3.1h5.4l.3.2v2.1h.3l.1-1v-1.2l.5-.1.5-.1H44l1.6.3.2.1v5.1h.2c.2 0 .2.1.3-2.8v-2.4l.3-.1.2-.2H50l.2.4.2 1.1c0 1 .1 1.1.4 1.1h.2v-2.4h.3L53 82h1.5l.3.2.4.2V86h.4v-1.5q0-1.4.2-2l.1-.4h3.4l.3.2.2.3v2h.4V84l.2-1.2v-.5h4v5.4l.2.1.2.1.1-.3.1-2.7v-2.4l.3-.1.2-.2H67c2 .1 2 0 2 1.6l.2 1.1h.2l.1-.2v-2.2l.5-.2.4-.2 1.5.1h1.6l.1.2.1.2.1 2.4v2.4h.2l.2.2v-4.7l.2-.6h1.7L78 82l.3.2.4.3v1.7h.4l-.1-.8-.1-.7.2-.3.3-.3h3.5l.3.2.2.2V86l.2 3.4V86l.2-3.6L85 82l1.3-.1h1l.8.2v1l.1 1.2h.4v-1.1l.1-1 .8-.1h3.1v2.6l.1 2.8v.3l.2-.2.2-.3v-4.9l.3-.2.2-.1h3.7v2.5l.2.2.2-.2h.2v-2.2l.3-.2.2-.2h1.9l1.8.2v5.4l.2-.1.2-.2v-5l.3-.1 2-.1h1.8l.1.3.3 1.1.1 1v-.8l.2-1.1.2-.5h1.6V109l.1.2.2.3v-5.3l.4-.2.3-.3H122v-.1c0-.4-.8-.4-6.3-.4h-5.8l-.2-.3-.2-.2v-3.3l.2-.4.2-.4h5.5v-.3H110l-.2-.3-.1-.2v-3.6l.3-.2.2-.2h4.9l.2-.2v-.2h-5.1l-.2-.1-.2-.1v-4.1l.4-.2h5.2v-.2l.2-.2H110l-.2-.2-.2-.3v-3.9h.2c0-.1 1.3-.2 2.8-.2h2.6v-.3l.2-.2H110l-.2-.2-.2-.2v-3.8l.2-.3h11.6l.3-.2.3-.2h-.3c-.2-.1-3-.2-6.2-.2h-5.8l-.1-2-.1-2 .4-.3.4-.2h2.3l2.3.2.1-.1.1-.2-1.7-.1-2.7-.2h-.9l-.1-.2-.2-2.1v-1.8l.3-.2.2-.2h5.3l.1-.1.1-.2-.3-.1h-.2l-1.4-.1h-1.3v-.2q-.4 0-.6-.2l-.4-.1h-1l-.4.3-.2-.1-.1-.1v-3.7l.2-.2.2-.3h5.4l-.2-.1v-.2H110l-.2-.3-.2-.2v-3.7l.3-.1.4-.2h4.9l-.2-.2v-.2h-5l-.2-.2-.2-.3v-3.6l.2-.2h.2l5.8-.1 5.9-.1.2-.1.2-.2-.2-.1-.2-.1h-11.3l-.4-.1-.4-.2v-3.9l.2-.2.2-.2h5.3v-.4h-5l-.4-.2-.3-.2V46zm-18 1.4q.3 0 .5.3l.2.4q0 .3-.2.5t-.5.3l-.5-.1-.1-.1-.2-.1v-.2h-.1V48q-.1-.3.1-.4.1-.2.4-.3zm34.9 4.4-.5.2-.5.2v.6l.6-.2h.6v.7h-.3l-.3.2v.6l.4.2.4.2v.7l-.3.2-.3.2-.3-.2-.3-.3-.2.2-.2.2.3.3q1 .7 2-.5l.2-.4.6.5.6.6h1l.3-.4.4-.4.1-.6.2-.7-.1-.6-.5-1-.2-.5-.8.1-.7.1-.3.4-.4.4v1.7l-.2-.3-.3-.4v-1.8l-.5-.1zm3.1 1q.3 0 .4.2l.1.4v1.1q0 .2-.2.4l-.2.1h-.2l-.3.1-.3-.6v-.7l.1-.2q0-.3.2-.6zm-38.1 1.8-.9.9-.9.8V58l.5.5.5.5h1.3l.4-.5.4-.5v-1l-.3-.4-.2-.4-.5-.1-.5-.1v-.2l.7-.5.6-.3v-.4H92zm-.4 1.8h.4l.3.3.2.4q.3 0 .3.3v.2q0 .3-.2.4l-.5.2h-.1l-.6-.1-.2-.2-.3-.4v-.5q0-.2.2-.2v-.1q0-.2.4-.3zm.4 6.8-.9 1-.9 1v.5l.1.5h.8l.7.1.2.4.4.4h.2v-.4l.5-.5h.2v-.6l-.3-.1-.2-.1v-1.1L92 63h-.4Zm.1 1q.3 0 .2.2v.7q0 .3-.2.4h-.1l-.4.2h-.3q-.4 0-.3-.4V65l.3-.3.6-.6zm-.3 6.6-1 .3-.6.4v.6h.3q.3 0 .4-.2l.1-.1h1v.8l-.6.8-.8 1-.3.2v.3l.2.2h1.9l.4-.2.3-.1v-.4q.2-.6-.6-.2l-.5.2-.1-.2-.1-.2.6-.7.5-.6v-1.1L92 71l-.4-.4zm34.9 5.8-.4.4q-.5.3-.5.7v.3h.3l.4-.2q.5-.5 1 0l.1.2-.1.5-.1.5-.6.6-.7.9-.3.3.2.2.2.3h1.9l.4-.3.4-.3.3.3c.4.4.6.4 1.4 0l.6-.2.3-.6.3-.6-.2-.5-.2-.6-.4-.3q-1-.5 0-.7l.6-.3v-.6h-1.8v.5l-.5.6-.2.4v.4l.8.3.8.3v.3l.2.3-.2.3-.2.3h-.5q-.6 0-.8.2l-.2.1-.1-.3-.1-.2h-.9l-.8.2.6-.8.7-.7V78l.2-.6-.5-.5-.5-.5h-.5zM83 90.3l-.4.6-.4.6v.8h.8l.5.5.6.4-.3.6-.2.5-.8-.2h-.7l-.2.1-.1.3.4.3c1.3 1 3.1-1 2.4-2.4l-.2-.4-.6-.2-.6-.2.1-.2.1-.2h1.1l.1-.2.2-.2-.3-.2-.2-.3h-.6zm47.1 11-.2.2-.1.2.2.5.2.5v2l-.3.4-.3.3-.3-.4-.3-.3v-1.3l.3-1.5.1-.3h-.8l-.3.6-.3.7v1.9l.6.5.6.6h.9l.5-.6.5-.6v-2.4l-.5-.5zm-4.6 0-.3.6-.3.4.2.2.2.3.4-.4.4-.3h.3l.3.2v.4q-.1 1-1 2l-.6.3v.7h.3l1 .2h.8l.3-.3.4-.3-.1-.2-.1-.2h-1.2v-.2q0-.3.2-.3l.5-.6.4-.7v-1l-.3-.4-.3-.3h-.7z" style="fill:#000"/></svg>