<svg xmlns="http://www.w3.org/2000/svg" xml:space="preserve" width="120mm" height="60mm" viewBox="0 0 120 60"><path d="m132.84 44.51 61.9 27.13" style="opacity:1;fill:#000;fill-opacity:.920746"/><path d="M55.98 52.2a33 33 0 0 0-1.2-3.83c-.15-.33.1-.6.6-.65.33-.03.46-.14.55-.46.07-.23.08-.56.03-.74-.1-.42.2-.96.53-.9.2.03.27.26.33 1.07.08.97.1 1.02.49 1.06.7.08.74.3.27 1.75-.24.74-.5 1.48-.6 1.63-.08.16-.16.45-.16.65q0 .83-.47.83-.29 0-.37-.4m-.15-8.11a8 8 0 0 1-2-.48c-.78-.35-1.48-.56-3.75-1.1-.94-.24-1.81-.33-3.14-.34-1.93-.02-1.86-.04-2.92.7-.36.26-.57-.12-.45-.79.1-.58.12-.6.4-.36.24.21.38.22.99.08.89-.22 4.53-.06 5.26.22.28.11.65.2.82.2.48 0 1.79.43 2.85.93.96.46 1 .46 3.22.46 1.88 0 2.32-.04 2.66-.25.37-.23 1.62-.6 3.64-1.07a6 6 0 0 1 1.62-.12c1.18.13 1.3-.04 1.3-2 0-.87.05-1.62.12-1.67.17-.1.34 4.34.17 4.51-.07.07-.31-.01-.55-.2-.38-.28-.54-.3-1.35-.21-.51.05-1.24.19-1.62.3-.37.1-.86.2-1.08.2s-.85.19-1.38.42c-.55.23-1.4.46-1.94.5l-1.3.16c-.2.03-.9-.01-1.57-.1m-12.25-3.95c-.05-.58-.11-1.59-.13-2.23l-.03-1.17 1.83-.04a8 8 0 0 0 2.03-.2c.29-.23.3-12.6 0-12.82-.1-.07-.84-.12-1.63-.1a5 5 0 0 1-1.64-.1c-.26-.2-.25-5.1 0-5.1.13 0 .17.61.15 2.12-.03 2.07-.02 2.13.32 2.35.41.25 2.52.38 2.8.17.14-.1.2-.64.2-1.74 0-.89.07-1.73.16-1.89.14-.26.34-.28 2.13-.28 1.42 0 2.02.05 2.1.18.07.1.14.93.16 1.84.02.92.1 1.74.19 1.84.2.23 5.81.28 6.1.06.13-.1.19-.7.19-1.96q0-1.8.18-1.9c.26-.16 3.85-.08 4.02.1.09.07.17.9.2 1.85.03 1.43.08 1.75.3 1.9.32.23 3.04.17 3.28-.07.18-.16.24-4.44.07-4.7-.06-.1-.52-.17-1.08-.17-1.1 0-2.2-.23-4.52-.97-1.25-.4-1.95-.53-3.14-.6-1.6-.07-2.06 0-3.9.7-1.48.55-4.06 1-6.52 1.12-1.52.07-3.49-.34-3.57-.75-.1-.52.22-.56 1.14-.13.8.37 1.06.41 2.28.4 1.55-.02 3.78-.28 4.18-.48.14-.07.56-.18.92-.23.37-.06 1.08-.26 1.59-.46.51-.19 1.52-.45 2.25-.57a5.4 5.4 0 0 1 2.78.06c.8.16 2.07.46 2.83.67l2.13.6c.99.27 2.23.26 2.66-.02.2-.13.4-.2.48-.15.14.08.22 5.68.08 6.1-.06.2-.34.24-1.95.23-1.04 0-1.97.04-2.07.1s-.18.33-.18.6c0 .39.16.68.69 1.24.38.41.79.9.91 1.07.4.57.73 2.43.62 3.4-.15 1.3-.76 3.35-1.29 4.29-.58 1.03-.98 2.08-.83 2.22.07.07.93.15 1.9.18l1.75.04v.66c0 .48-.06.65-.23.65-.13 0-.23-.14-.23-.33s-.1-.4-.23-.48a8 8 0 0 0-2.9 0c-.18.11-.24.47-.24 1.6 0 .81-.07 1.54-.16 1.62-.22.22-3.74.33-4 .13-.14-.11-.2-.6-.2-1.73 0-1.3-.04-1.6-.24-1.67a45 45 0 0 0-6 .03q-.2.11-.22 1.54c-.02.86-.1 1.52-.21 1.67-.16.2-.5.25-1.83.27-.9.02-1.82-.02-2.05-.08-.4-.1-.4-.11-.48-1.77l-.08-1.67-1.5-.05c-2.15-.06-2.1-.11-1.99 2.07q.1 1.8-.07 1.9-.16.09-.26-.96m5.4-.09c.14-.08.11-.24-.12-.68-.4-.74-.39-.84.09-1.38q.5-.57.52-1.55c.04-2.12-.12-13.26-.2-13.33-.06-.05-.03-.19.07-.3.13-.14.06-.29-.31-.61-.59-.53-.6-.97-.08-1.7.3-.44.35-.58.19-.68-.31-.19-.68-.15-.9.09-.26.3-.36 20-.1 20.15.24.14.6.14.83 0m11.34 0c.17-.1.15-.17-.1-.34a1.1 1.1 0 0 1-.46-1.29c.2-.53 1.1-1.08 1.58-.97.3.08.39.04.39-.16 0-.15-.14-.34-.3-.44-.25-.15-.28-.25-.17-.54.1-.27.08-.4-.1-.54-.26-.22-.17-.92.17-1.3.12-.12.27-.42.33-.66.1-.38-.08-.25-1.27.9l-1.37 1.34-.03 1.77a8 8 0 0 0 .13 2.06c.17.3.82.4 1.2.16m-10.08-1.12c.15-.17.15-.26 0-.44-.1-.12-.28-.22-.39-.22-.28 0-.58.4-.48.66.12.28.62.28.87 0m11.03 0c.15-.17.15-.26 0-.44-.1-.12-.28-.22-.39-.22-.28 0-.58.4-.48.66.12.28.62.28.87 0m-2.83-2.7c0-.23.37-.8.98-1.5 1.67-1.9 2.18-3.67 1.63-5.68a7 7 0 0 0-1.77-2.93c-.49-.4-.95-1.4-.83-1.84.16-.65-.07-.7-3.11-.73-1.75-.01-2.96.04-3.07.13-.15.11-.2 1.59-.2 6.47 0 3.47.05 6.36.11 6.42s1.49.08 3.18.06l3.07-.04zm2.98-9.34c0-.22-.07-.47-.15-.55-.09-.08-.15-.6-.15-1.17V23.6c-.01-.44.05-.57.3-.63.45-.12.38-.34-.12-.34-.7 0-1.38-.5-1.5-1.1-.09-.45-.04-.6.33-.96.23-.23.55-.43.7-.43.37 0 .5-.25.17-.34-.9-.26-1.44-.27-1.72-.03-.25.22-.28.48-.26 2.7l.03 2.45.58.69c.32.37.64.68.7.68.08 0 .3.23.5.5.44.63.59.65.59.11M50.2 21.57c.25-.23-.04-.7-.43-.7-.34 0-.53.31-.4.65.1.26.58.3.83.05m11.06-.05c.25-.28.1-.66-.28-.66s-.66.34-.54.64.57.31.82.02m-6.39-6.9c-.12-.04-.2-.35-.2-.8 0-.68-.01-.72-.45-.8-.4-.08-.46-.16-.46-.54 0-.25.1-.72.21-1.05.53-1.48.62-1.8.7-2.42.08-.58.13-.65.46-.65s.4.09.56.8c.1.44.25 1 .34 1.24.86 2.4.84 2.71-.13 2.71-.24 0-.3.13-.33.77-.05.76-.21.94-.7.74" style="fill:#000"/></svg>