<svg xmlns="http://www.w3.org/2000/svg" xml:space="preserve" width="120mm" height="60mm" viewBox="0 0 120 60"><path d="m132.84 44.51 61.9 27.13" style="opacity:1;fill:#000;fill-opacity:.920746"/><path d="m91.34 54.77-3.03-1.55a96 96 0 0 1-2.95-1.54c-.37-.22-1.58-.85-2.7-1.4a35 35 0 0 1-2.25-1.19 1 1 0 0 0-.44-.17 1 1 0 0 1-.44-.22 3 3 0 0 0-.77-.45 84 84 0 0 1-3.69-1.83c-.21-.12-.81-.42-1.33-.67s-.99-.53-1.05-.6a3 3 0 0 0-.89-.45c-.43-.16-1.05-.46-1.37-.66s-.83-.48-1.13-.62l-4.24-2.15c-.6-.3-1.1-.55-1.13-.55s-.52-.25-1.1-.56a27 27 0 0 0-1.82-.9c-.43-.2-.98-.47-1.21-.6-.9-.56-2.03-1.12-2.32-1.16-.28-.04-.3.2-.32 3.57-.02 1.99 0 3.72.05 3.84.04.13.3.28.57.33.63.11.65.44.1 1.47-.22.41-.45 1-.52 1.33-.14.71-.5 1.15-.76.94a2 2 0 0 1-.34-.93 7 7 0 0 0-.52-1.48c-.41-.8-.36-1.07.26-1.26l.42-.14V41.1c0-3.71-.02-4.1-.3-4.28a5.5 5.5 0 0 0-2.47-.88c-1.32-.14-2.6-1-2.62-1.77 0-.32-3.34-3.1-3.94-3.3-.5-.15-3.11-.2-3.56-.05-.15.04-.27.2-.27.33 0 .44-.46.63-1.06.43-.3-.1-1.1-.3-1.8-.44q-2.04-.42-1.49-.78c.4-.24 3.67-1.05 3.93-.97.14.05.33.24.42.44.16.33.23.35 1.52.35 1.02 0 1.35-.05 1.35-.2 0-.1-1.85-1.74-4.1-3.64a743 743 0 0 1-7.77-6.58L30.1 16.2c-1.06-.92-4.03-3.45-6.58-5.61s-4.66-4-4.69-4.1c-.02-.1.07-.25.21-.34.22-.15.52 0 1.98 1.05.95.68 2.17 1.53 2.72 1.89s1.23.84 1.52 1.07c.28.23.58.42.65.42s.49.26.93.57a156 156 0 0 0 2.93 2.01c.32.22 1.23.87 2.02 1.45.79.59 1.97 1.4 2.62 1.8.64.42 1.82 1.22 2.61 1.78a90 90 0 0 0 3.45 2.4c.63.41 1.93 1.29 2.89 1.94.95.65 2.4 1.62 3.21 2.15a67 67 0 0 1 2.25 1.54c.98.71 1.7 1.17 1.88 1.17.26 0 .66-.44.66-.74 0-.34-.64-.99-3.12-3.16-2.8-2.44-3.62-3.24-3.62-3.5 0-.41.7-.28 1.6.32.46.3 1.22.77 1.68 1.04 1.63.94 2.55 1.48 3.72 2.2q2.16 1.34 2.34 1.34c.21 0 2.22-1.58 2.34-1.84.16-.34.15-.04.12-4.41-.03-4.55-.1-5.13-.6-5.28-.59-.19-.63-.36-.27-1.29.63-1.61.79-2.3.57-2.49-.47-.39.04-.79.65-.52.25.1.33.3.33.73 0 .33.2 1.06.44 1.63.7 1.67.7 1.79.08 1.89-.52.09-.52.1-.52.97v.88l.89-.02c.48-.02 1.1.04 1.39.13 1.06.32 2.7.76 2.94.78s.34-.2.69-1.5c.47-1.78.9-2.53 1.67-2.95.68-.39.72-.39 1.19-.07.35.23.37.31.25 1.5-.13 1.36-.43 1.88-1.22 2.07l-.38.09.42-.63c.49-.72.54-1.04.17-1.13l-.5-.13c-.36-.1-.14-.45.34-.55.44-.1.71-.59.44-.81-.12-.1-.35-.02-.77.26-.48.32-.58.47-.52.78q.08.39-.25.66-.6.49-.09.83c.33.22.33.54.01.64-.24.08-.93.94-.93 1.15 0 .16 2.35 1.4 2.83 1.5.22.05.52.3.72.62.18.3.43.54.54.54s.63-.48 1.14-1.06a83 83 0 0 1 3.64-3.85c1.03-1.03 1.28-1.5.91-1.69-.38-.2-.1-.53 1.09-1.25.69-.42 1.47-.84 1.73-.94s.59-.28.73-.42c.43-.43 1.15 0 .9.53q-.1.23-.55.14c-.4-.08-.47-.02-.81.72-.2.44-.46 1.05-.58 1.36-.3.8-.57 1.01-1 .8-.45-.24-.89-.04-1.4.63-.22.28-.88 1.01-1.48 1.62-3.18 3.29-4.18 4.5-5.2 6.27-.57.98-1.14 1.96-1.28 2.16-.37.55-.31.72.48 1.45.95.9 1.3 1.36 1.3 1.75 0 .18-.34.8-.76 1.4-.83 1.16-.91 1.43-.46 1.54a43 43 0 0 0 3.22.03l2.93-.03.47-.47.46-.46 1.33.35c2.13.58 2.39.6 2.73.25l.3-.3.31.29c.29.26.51.29 2.28.29 2.1 0 2.59.1 2.22.47-.19.19-.67.22-2.86.22-2.63 0-3.98.18-5.52.7-.6.2-1.04.12-1.2-.24a1 1 0 0 0-.3-.35c-.1-.06-1.66-.1-3.49-.1-2.72 0-3.34.03-3.51.2q-.53.49 1.18 1.82c1.92 1.48 4.62 3.59 5.27 4.1.7.56.82.96.3.96-.33 0-1.88-.7-2.4-1.07a8 8 0 0 0-1.26-.6 5 5 0 0 1-1.22-.6c-.13-.13-.3-.23-.37-.23s-.78-.32-1.57-.71c-1.5-.74-1.96-.8-2.3-.27-.2.32-.08.62.33.78.4.17 1.15.65 2.51 1.63.62.44 1.5 1.02 1.97 1.28 1.43.82 1.6.92 2.41 1.54.44.33.86.6.93.6s.8.44 1.6.97c.81.54 1.8 1.18 2.2 1.43s1.15.78 1.68 1.17c.53.4 1.2.87 1.5 1.04l1.19.74 2.66 1.73c1.12.72 3.12 2.03 4.45 2.92a88 88 0 0 0 4.56 2.93c1.2.69 2.55 1.7 2.55 1.9 0 .3-.75.2-1.53-.22m-9.63-6.4a8 8 0 0 0-1.16-.82l-1.35-.9a114 114 0 0 0-5.73-3.79 178 178 0 0 0-6.08-3.95c-1.73-1.17-3.04-1.94-3.27-1.94-.31 0-.94.82-.82 1.08.05.11.45.4.89.64l3.3 1.81c1.39.76 2.68 1.5 2.88 1.64.2.15.59.37.87.5s.69.34.9.47c1.44.88 2.54 1.5 2.95 1.7.74.34 1.04.5 2.5 1.36l1.92 1.11 1.26.76q1.08.67.94.34m-7.4-3.26q-.02-.07-.17-.15t-.17.06q.02.14.17.15t.17-.06m-1.26-.77a2 2 0 0 0-.66-.37 8 8 0 0 1-1.33-.7 8 8 0 0 0-1.07-.6 184.79 184.79 0 0 0-6.46-3.64c-.24-.14-.78-.38-1.2-.54s-.97-.38-1.24-.5c-.54-.21-.95-.24-.95-.06 0 .12.62.48 1.67.99.24.11 1.04.52 1.78.9.75.4 1.85.95 2.45 1.24s1.6.8 2.2 1.12 1.7.87 2.44 1.23c.74.35 1.54.77 1.77.92.58.37 1 .38.6 0m-10.2-7.12c.27-.25.5-.55.5-.68 0-.26-1.6-1.37-1.96-1.37-.29 0-.6.45-.84 1.21-.22.67-.17.73.78 1.07.82.3.96.27 1.52-.23m-3.51-.46c.25-.2.46-.44.46-.55 0-.1.05-.29.1-.4.17-.38-.23-.25-.94.28-.71.52-.9 1.02-.38 1.02.16 0 .5-.16.76-.35m.64-1.94a6.4 6.4 0 0 0 3.38-2.78c.28-.52.47-1.02.42-1.13-.11-.23-1.14-.25-1.42-.02-.1.09-.2.34-.2.55 0 .7-.74 1.76-1.7 2.42-1.1.77-1.66 1.03-2.18 1.03-.87 0-1.18.22-1.18.81 0 .3.05.57.1.62.07.05.52-.22 1.02-.59a6 6 0 0 1 1.76-.91m-3.6.82q.1-.65-1.1-.8c-.95-.12-.96.18 0 .75.76.45 1.03.47 1.1.05m10.83-.98a38 38 0 0 0-2.3-1.82c-.45-.35-.73-.39-1.03-.15-.43.36-.02.9.98 1.27.14.05.74.34 1.33.65.59.3 1.13.56 1.2.56s.23.1.34.2c.12.12.26.19.3.14.06-.04-.31-.42-.82-.85m-13.66.4c0-.33-.88-.8-1.27-.67-.37.11-.29.33.22.56.5.22 1.06.28 1.05.11m2.84-1.9c.05-1.07.04-1.1-.5-1.57-.8-.68-1.34-.87-2.47-.87-1.08 0-1.47.2-1.28.64a4.7 4.7 0 0 0 2.9 2.72c1.25.37 1.3.34 1.35-.92m3.23.45a4 4 0 0 0 1.4-1.36c.75-1.24.61-1.48-.87-1.54-.84-.04-.98 0-1.52.4-.33.25-.81.58-1.07.74-.43.26-.46.35-.46 1.3q0 1.02.21 1.1c.5.18 1.41-.08 2.3-.64m-7.3-.18c.05-.12-.03-.33-.18-.47s-.27-.34-.27-.45-.1-.32-.24-.48a2 2 0 0 1-.3-.69c-.1-.8-1.49-.48-1.49.34q-.02.34.97 1.16c1 .82 1.33.96 1.5.59m-2.08-3.79c.2-.54.05-.7-.35-.42-.17.12-.43.25-.6.3-.3.08-.39.38-.17.56.07.05.31.08.54.06.32-.03.47-.16.58-.5m4.61.16c.12-.14.52-.53.9-.86.62-.55.67-.67.67-1.35v-.76h-.55c-.62 0-1.9.6-2.6 1.22-.23.21-.61.68-.84 1.05-.34.56-.37.7-.2.89.32.31 2.33.17 2.62-.2m6.49.05c.12-.17.07-.41-.17-.86-.5-.92-1.53-1.68-1.55-1.15 0 .1-.23.39-.5.65-.57.55-.6.7-.26 1.24.22.35.31.38 1.27.37.81 0 1.08-.06 1.2-.25m-13.52.02c0-.26-1.73-1.92-3.16-3.04l-3.69-2.87c-2.59-2.02-3.27-2.5-3.27-2.28q.01.14.16.15.16.02.17.14c0 .08 1.7 1.56 3.78 3.3a338 338 0 0 1 4.67 3.96c.84.76 1.34 1 1.34.64m8.52.02a.24.24 0 0 0 0-.27c-.13-.19-.59-.02-.59.21s.43.27.59.06m7 .07c0-.03-.19-.3-.42-.58a3 3 0 0 1-.52-.87l-.17-.67c-.08-.35-.65-.43-.8-.12-.05.1.1.5.32.86.23.36.41.76.41.89 0 .32.34.56.8.56.2 0 .38-.03.38-.07m-11.87-.45c.45-1.55 2.16-2.92 4.36-3.47.28-.07.5-.2.5-.3-.02-.08-.03-.44-.05-.78-.01-.35-.1-.63-.2-.63s-.54.3-.98.66-1.13.85-1.52 1.07-1.1.77-1.57 1.22c-.8.75-.86.87-.94 1.7q-.1.92.1.9c.1 0 .24-.16.3-.37m-2.59-.47c.51-.22 1.3-.84 1.3-1.02 0-.08-.42-.38-.93-.67l-.92-.52-.68.35c-.37.2-.67.44-.67.54 0 .17 1.28 1.47 1.46 1.47.04 0 .24-.07.44-.15m15.47-.9c0-.08.16-.27.34-.4.44-.33.43-.7-.03-.97-.34-.2-.4-.19-.78.1-.46.36-.87.96-.87 1.28 0 .11.16.34.36.5l.36.3.3-.33c.18-.18.32-.4.32-.48m-5.96 0c.4-.35.73-.72.73-.83 0-.22-.6-.46-1.47-.58l-.55-.07v.84c0 .9.1 1.28.38 1.28.09 0 .5-.29.9-.64M47.1 26.7c.21-.14.38-.32.38-.4 0-.18-5.22-3.85-7.23-5.09-.24-.15-1.35-.9-2.45-1.66a100 100 0 0 0-4.38-2.97c-.3-.17-.86-.56-1.26-.87s-.8-.54-.88-.54c-.33 0 .36.64 2.15 2 1 .77 2.63 2.05 3.62 2.86 1.52 1.23 4.09 3.25 5.93 4.64L44.7 26c1.33 1.04 1.74 1.16 2.4.7m14.98-.27c.87-.73.98-1.05.4-1.2-.19-.05-.36-.07-.39-.04l-.6.7c-.85 1-.43 1.4.59.54m-2.72-.12c.2-.28-.22-.46-.93-.42l-.74.04.6.23c.67.27.95.3 1.07.15m-6.5-.6c.2-.15.33-.33.28-.4a8 8 0 0 0-1.04-.64c-.53-.3-1.15-.69-1.38-.86-.75-.56-1.97-1.16-2.03-1-.03.08.4.53.96 1l1.74 1.53c.4.36.8.66.9.66s.36-.13.56-.29m11.66.18c0-.18-.51-.72-.68-.72-.09 0-.16.18-.16.41 0 .36.07.42.42.42.23 0 .42-.05.42-.1m-3.7-.4q-.02-.17-.18-.11a.4.4 0 0 0-.17.29q.02.18.17.12c.1-.05.17-.18.17-.3m-.34-.89c.58-.54.84-.69 1.14-.64.61.1.35-.2-.57-.62-.83-.38-1.53-.51-1.34-.26.06.08.26.14.44.14q.71.01-.18 1.35c-.28.4-.45.74-.38.74s.48-.32.89-.7m-1.53.12c.77-.69.65-1.35-.22-1.17-.54.11-1.36 1.17-1.1 1.43.3.3.77.22 1.32-.26m2.45.3q.08-.12-.06-.13-.17.01-.28.14-.07.12.07.14.16-.02.27-.14m2.95-1.83c0-.33-.04-.31-.48.17-.45.51-.3.9.17.4.17-.18.3-.44.31-.57m-1.51-.96c.41-.3 1.34-.97 2.06-1.47a5 5 0 0 0 1.31-1.14c0-.13-.26-.34-.59-.47-.36-.14-.62-.36-.69-.58-.18-.6-3.2-2.12-4.78-2.41-.4-.08-.93-.08-1.2-.02-.29.07-.74.06-1.04 0-.3-.08-.6-.09-.67-.03s-.14 1.45-.14 3.09l-.02 2.98.39-.04c2-.22 1.95-.23 3.51.47.68.3 1.05.23 1.86-.38m-25.79-1.26q-.19-.15-.2-.02.01.14.11.24.12.08.2.02c.05-.04 0-.15-.1-.24m-1.04-.86c0-.02-.13-.13-.3-.24q-.38-.27-.06.05.34.35.36.2m-5.06-5.21c0-.17-.33-.34-.45-.24s.09.37.29.37q.14-.01.16-.13m-1.07-.77c-.38-.31-.56-.26-.2.07.17.15.34.25.39.21.04-.03-.04-.16-.19-.28m25.13 40.55c-.06-.13-.1-.6-.1-1.05s-.12-1.1-.27-1.46c-.32-.78-.17-.97.68-.83.63.1.72.2.4.45-.2.18-.05 1.15.2 1.15.09 0 .29-.16.44-.35.24-.3.25-.4.05-.7-.19-.3-.19-.37.02-.48.65-.34 1.46-.02 1.15.46-.18.28-.05 1.21.17 1.21.2 0 .7-.94.7-1.31 0-.36.44-.56.9-.41.33.1.37.41.07.57-.12.06-.43.46-.7.88-1.1 1.79-1.32 2.08-1.53 2.08q-.42-.01-.43-.86c0-.55-.32-.45-.75.24-.37.59-.83.77-1 .4M86.67 35.7c-.24-.2-.28-1.07-.05-1.36.21-.28.68.06.68.5 0 .3.06.32 1.4.36 1.26.03 1.39.06 1.39.31 0 .26-.13.28-1.6.32-1.11.03-1.68-.01-1.82-.13m10.63 0c-.46-.13-.77-.6-.63-.96.06-.16.37-.39.69-.51q1.16-.45-.17-.45-1.54 0-.75-.82c.22-.23.6-.48.86-.55.25-.08.46-.2.46-.28s-.2-.16-.46-.18q-.44-.05-.46-.26c0-.17.33-.21 1.81-.24 1.5-.04 1.81 0 1.81.16 0 .11-.16.22-.36.25-.53.06-.58.36-.07.47.46.1 1.1.72 1.1 1.07q.01.39-1.1.38-1.12-.02.05.48c.77.34.92.85.38 1.25-.27.2-.63.27-1.58.29a8 8 0 0 1-1.58-.1m2.6-.58c.06-.05-.03-.22-.21-.38-.25-.23-.46-.28-.96-.22-.35.03-.76.15-.9.24-.24.17-.23.2.05.38.3.19 1.79.17 2.02-.02m-.28-2.15c0-.07-.19-.2-.41-.3-.34-.15-.51-.15-.93 0q-1.15.4.41.41c.51 0 .93-.05.93-.11m-5.04 2.33c-.16-.37-.22-.4-.53-.27-.19.08-.89.13-1.56.1-.95-.02-1.22-.08-1.22-.24q0-.21.5-.21c.67 0 .8-.43.18-.62-.23-.08-.44-.18-.45-.24l-.04-.8c-.03-.62.03-.75.51-1.15.63-.52 1.2-.58 1.62-.18.41.4.9.36 1.04-.07.08-.27.2-.35.48-.32.36.05.38.11.46 2 .1 2.35.09 2.42-.42 2.42-.28 0-.44-.11-.57-.42m-.06-1.07c.08-.13.12-.54.08-.91-.06-.53-.14-.66-.36-.62q-.42.07-.11.68c.1.22-.21.6-.61.7q-.17.08-.08.23c.19.25.92.2 1.08-.08m-1.17-.64q.37-.37-.5-.37c-.46 0-.65.24-.37.47.19.15.68.1.87-.1m9.42 2.04c-.06-.05-.11-.43-.11-.83 0-.85.02-.86 1.77-.92l1.01-.03.09-1.32c.07-1.11.13-1.33.37-1.37q.3-.03.46.31c.18.4.13 3.84-.06 4.1-.13.16-3.33.23-3.53.06m2.72-.86q-.05-.23-.7-.27c-1.52-.1-2 .4-.52.53 1.02.09 1.29.03 1.22-.26m-15.93-.33c-.08-.1-.15-.46-.15-.8 0-.59-.03-.63-.55-.76-.65-.16-.68-.54-.04-.6.5-.07.67-.25.67-.7q0-.33.3-.28c.26.05.3.24.3 1.63q0 1.6-.2 1.64c-.1.03-.26-.03-.33-.13m-3.94-.55c0-.1.2-.34.44-.55.24-.2.58-.71.75-1.12.33-.8.71-.96.8-.34.06.44.66 1.23 1.23 1.6.4.27.32.58-.15.58-.15 0-.53-.2-.83-.45l-.56-.44-.55.44c-.56.45-1.13.59-1.13.28m16.02-.28c0-.09.21-.34.47-.56.25-.22.58-.7.73-1.05.35-.86.78-.94.93-.19q.1.55.68 1.01c.31.25.57.54.57.64 0 .3-.76.2-1.18-.16l-.39-.35-.57.41c-.58.42-1.24.55-1.24.25m-17.73-2.15c-.01-.06 0-.28.01-.48.03-.33-.02-.36-.61-.34-.84.02-.93-.38-.1-.45.54-.04.54-.04.44-.66-.08-.48-.04-.68.2-.9.16-.15.37-.27.45-.27.3 0 .33.44.04.7-.28.26-.28.29 0 .54.4.37.32 1.86-.12 1.93-.16.03-.3 0-.31-.07m-51.93-.3c-.13-.08-.2-.23-.14-.35.1-.2.45-.23 2.4-.23 1.94 0 2.3.04 2.39.23.17.37-.3.46-2.4.46-1.1 0-2.12-.05-2.25-.12m53.26-.89a5 5 0 0 1 0-1.05c.13-.3.46-.1.51.33.03.23.12.46.2.53s.93.11 1.89.1l2-.03c1.29 0 3.08-.02 6.74-.12 8.07-.2 10.04-.16 9.56.23-.2.16-5.58.32-13.38.4-5.7.06-6.8.1-6.98.27-.36.36-.47.23-.54-.66m8.9-1.76c-.06-.08.01-.29.15-.46.15-.17.27-.48.27-.69s.12-.63.27-.94.23-.65.18-.76c-.16-.33.38-.67.88-.57l.95.17c.7.11.92.3.92.75q.01.4-.5.68c-.56.33-.64.64-.26 1.05.14.15.25.41.25.59 0 .24-.09.3-.42.3-.25 0-.47-.09-.53-.23l-.34-.73c-.23-.47-.25-.48-.5-.21-.13.15-.22.46-.2.7.05.37 0 .41-.48.45-.29.03-.58-.02-.64-.1m2.44-2.16c.23-.23.17-.65-.11-.73-.25-.07-.8.6-.65.8s.52.17.76-.07M76.35 28.1c-.12-.06-.19-.3-.15-.58.04-.36.14-.48.43-.51.34-.04.38.01.38.5 0 .56-.26.8-.66.6m-.11-2.55a1.3 1.3 0 0 1-.04-.6c.04-.3.14-.4.39-.4.28 0 .34.1.34.56 0 .41-.08.56-.3.6-.16.02-.34-.05-.4-.16m0-2.5a1.3 1.3 0 0 1-.04-.6c.04-.3.14-.4.39-.4.28 0 .34.1.34.56 0 .41-.08.56-.3.6-.16.02-.34-.05-.4-.16m.04-2.4c-.2-.18-.12-.99.12-1.15.34-.23.65.14.58.7-.05.44-.42.67-.7.44m.07-2.41c-.13-.06-.19-.34-.15-.72.04-.5.11-.6.39-.6s.34.1.39.64q.06 1-.63.68m-.07-2.73c-.18-.16-.13-1 .06-1.1.32-.16.69.24.64.68-.05.41-.43.64-.7.42m-.08-2.86c.04-.5.11-.6.39-.6s.34.1.34.56-.06.56-.4.6c-.36.04-.38 0-.33-.56M58.65 9.37c.04-.18.22-.24.73-.24.5 0 .68.06.72.24.05.2-.07.24-.72.24-.66 0-.78-.04-.73-.24m3-.04c0-.26.09-.29.72-.25q.74.04.72.25.02.21-.72.25c-.63.04-.71.01-.71-.25m3.07.05c.08-.33 1.4-.38 1.4-.05 0 .15-.21.22-.72.26-.63.03-.73 0-.68-.21m2.93.1c-.2-.27.09-.42.78-.42.55 0 .66.04.62.24-.07.28-1.21.43-1.4.18m3.12-.15c0-.25.08-.29.63-.25q.64.04.63.25 0 .21-.63.26c-.55.03-.63 0-.63-.26m3.06.1c-.28-.27-.07-.37.76-.37q.75-.01.73.19c0 .34-1.18.48-1.5.18m3.94-1.03c.06-.37.23-.88.36-1.15.14-.27.23-.77.2-1.11l-.05-.63.65-.04c.79-.05 1.18.18.74.45-.16.1-.34.4-.4.65-.05.26-.2.7-.34 1-.17.38-.19.6-.06.8.21.32.22.32.8.08.85-.35 1.22-.4 1.22-.17 0 .12-.15.35-.34.5-.28.23-.56.28-1.62.28h-1.28Zm-22.7-.28c-.85-.46-1.18-.78-1.18-1.16 0-.21-.07-.43-.17-.47-.09-.05-.16-.27-.16-.49s.07-.44.16-.49c.1-.04.17-.22.17-.4 0-.17.28-.53.66-.83.65-.52.67-.53 1.98-.52h1.33l.7.61c.9.79 1.2 1.6.83 2.21-.15.24-.27.51-.27.6 0 .26-.53.7-1.16.95-.74.3-2.32.3-2.89-.01m3.14-.72c.64-.5.68-.58.67-1.28a2 2 0 0 0-1.27-1.85 2.9 2.9 0 0 0-2.7.5c-.42.4-.5.6-.5 1.25-.01 1.01.07 1.17.81 1.58.45.26.83.34 1.45.34.75 0 .93-.06 1.54-.54m-.83-.5a1 1 0 0 1 0-.62c.15-.64-.18-.87-1.2-.81-.95.04-1.3-.07-1.16-.38.07-.15.42-.2 1.49-.2 1.62 0 1.6-.01 1.6 1.33 0 .78-.04.9-.32.9-.17 0-.36-.1-.41-.22" style="fill:#000"/></svg>