<svg xmlns="http://www.w3.org/2000/svg" xml:space="preserve" width="120mm" height="60mm" viewBox="0 0 120 60"><path d="m132.84 44.51 61.9 27.13" style="opacity:1;fill:#000;fill-opacity:.920746"/><path d="M103.73 2.05h-.04q-.08 0-.11.04c-.04.03 0 .15.08.25.18.21.5.2.57-.02.04-.12-.29-.27-.5-.27m-86.77.47q-.05 0-.06.02c-.04.04-.08 5.86-.1 12.95-.01 8.42-.07 12.92-.15 12.98a6 6 0 0 1-1.3.1c-1.06 0-1.18.01-1.14.2.03.18.2.22 1.17.25q1.12.04 1.37.2c.22.16.28.16.45 0 .16-.14 1.49-.17 8.96-.18 6.92-.01 8.82.02 8.96.14.14.11.18.34.15.92-.03.6 0 .8.12.84.14.04.16-.09.1-.74-.12-1.33-.87-1.22 8.2-1.25 8.77-.04 10.74.05 12.04.5.46.17.96.3 1.1.31.54 0 .64.4.64 2.3q0 1.77.14 1.85c.27.17.35-.29.33-1.9-.02-1.69.08-2.11.4-1.8.08.09.26.15.4.16.13 0 .46.09.72.19.27.1.78.25 1.15.33a42 42 0 0 1 3.56 1.04l1.2.35c.47.13 1.06.3 1.33.35.26.06.64.16.84.23s.55.18.79.24l1.26.37 1.57.44c.4.1 1.16.33 1.68.5.85.26 1.4.42 3.57 1 .3.08.65.19.78.24.53.2 1.5.47 1.71.47.36 0 .74.33.82.73q.08.37.57.67c.38.24.47.35.41.56a.7.7 0 0 0 .05.44c.1.16.13.16.24 0 .07-.1.1-.3.06-.44-.04-.18.05-.35.37-.63.47-.41.69-.44 1.48-.2.67.22 3.02.89 3.7 1.05.26.07 1.07.3 1.8.54.73.22 1.41.4 1.51.4.3 0 2.06.6 3.08 1.06.53.23 1.37.73 1.87 1.11 1 .76 2.72 2.51 2.93 2.99.07.17.22.44.33.6.35.54 1.01 2.9.95 3.39v.3c0 .09.1.15.2.15.18 0 .2-.11.12-.9-.08-.85-.2-1.29-.76-2.9-.36-1.04-1.6-2.58-2.95-3.67a14 14 0 0 0-3.48-1.89l-2.53-.72a253 253 0 0 1-5.24-1.5c-2.27-.61-2.6-.75-2.6-1.09 0-.08-.12-.3-.27-.46-.33-.38-1-.45-1.43-.15-.15.11-.42.2-.59.2-.31 0-2.41-.53-3.99-1.02a17 17 0 0 0-1.37-.36 3 3 0 0 1-.78-.25 2 2 0 0 0-.57-.17c-.14 0-.41-.08-.6-.18-.2-.1-.5-.18-.67-.18s-.36-.05-.4-.12-.2-.12-.36-.12-.57-.1-.93-.23c-.35-.12-1-.31-1.42-.42-1.13-.3-2.05-.56-2.54-.73a7 7 0 0 0-1.51-.42c-.13 0-.45-.1-.72-.2s-.86-.28-1.32-.4l-2-.59a18 18 0 0 0-1.58-.42 2 2 0 0 1-.73-.3c-.22-.19-.25-.27-.14-.45.12-.2.47-.22 4.64-.3 2.48-.04 15.18-.12 28.21-.16l23.7-.08.14.31c.18.4.41.4 1.45 0 1.33-.5 1.32-.6-.13-1.05l-.93-.3-.33.28-.33.27-27.85.15c-15.33.09-27.97.15-28.1.14-.6-.02-.66-.84-.22-3.32.24-1.38.42-1.88.76-2.05.43-.23.51-.35.3-.52-.32-.27-.86.04-.94.56-.04.23-.15.51-.25.62-.18.2-.22.51-.43 2.94-.07.78-.18 1.5-.26 1.58-.2.25-1.01.3-2.58.18a12 12 0 0 1-2.9-.47 107 107 0 0 0-5-1.5c-.3-.1-1.08-.32-1.75-.5s-1.69-.48-2.28-.67a8 8 0 0 0-1.33-.35c-.14 0-.37-.08-.51-.18-.25-.17-.71-.3-1.9-.52-.27-.05-.6-.16-.75-.24a2 2 0 0 0-.62-.14c-.47 0-.96-.4-1.19-.98-.35-.86-1.23-1.04-2-.39-.2.17-.46.29-.56.25l-.73-.24c-.3-.1-1.5-.44-2.66-.74s-2.3-.62-2.53-.72-1.1-.33-1.93-.55c-.83-.2-1.56-.41-1.63-.45-.16-.1-1.04-.34-1.99-.55-.43-.1-1.16-.3-1.62-.46s-1.01-.34-1.21-.38a7 7 0 0 1-2.3-.84c-.24-.26-.24-.4-.27-7.74-.01-4.12-.05-7.51-.08-7.55zm-4.65 1.1q-.05 0-.1.02c-.12.04-.2.21-.2.41q-.01.63-.56.63c-.41 0-.35.32.08.4.26.06.37.16.43.4l.12.5c.1.31.35.06.41-.4.06-.44.1-.48.48-.54.48-.07.66-.36.22-.36-.42 0-.75-.27-.67-.57.07-.27-.03-.48-.2-.49m-1.65 11.14c-.8 0-1.17.19-1.54.78-.5.8-.15 1.93.7 2.3.48.21.8.2 1.29-.1.5-.3.4-.52-.14-.32-.7.26-1.49-.33-1.49-1.1 0-.5.44-1.04.93-1.12.4-.07.5-.03.73.25s.3.3.39.15c.35-.53.03-.84-.87-.84m3.2 1.74c-.18 0-.41.19-.53.46q-.34.77-.64.05c-.19-.45-.65-.67-.76-.37-.09.22.26 1 .44 1 .07 0 .18.14.24.3.16.4.28.38.66-.12.25-.33.37-.4.49-.3s.18.03.24-.35c.04-.26.05-.53.01-.6a.2.2 0 0 0-.16-.07m21.35.48q-.23 0-.26.32a1 1 0 0 1-.21.47.5.5 0 0 0-.18.34c0 .12-.08.31-.18.44a1 1 0 0 0-.18.5c0 .16-.08.31-.18.35s-.18.17-.18.3c0 .19.07.23.33.2.29-.03.34-.1.4-.52.05-.44.08-.48.45-.52.5-.04.72.13.77.62.03.35.08.39.49.42.38.03.45 0 .45-.2q-.01-.23-.11-.31-.16-.1-.82-1.63c-.3-.72-.35-.78-.59-.78m28.99.32-.02.2-.05.3-.03.18q0 .08-.04.15v.01q.04.1.02.17c.03.18.02.45 0 .92l-.06 1.05h.46c.5 0 .6-.16.32-.6-.11-.18-.11-.26.01-.38.13-.13.25-.05.64.41q.49.58.78.57c.4 0 .36-.17-.15-.8l-.44-.53.32-.33q.58-.58.04-1.08c-.24-.21-.34-.25-1.8-.24m-.33 0-.37.01-2.23.03-.04.33c-.04.38.05.42.36.14.42-.38.59-.14.59.86 0 .5-.06 1.01-.13 1.14s-.1.3-.05.36c.12.19 1.02.14 1.02-.06q0-.16-.12-.25c-.07-.04-.12-.53-.12-1.09 0-1.13.11-1.3.65-.94.17.1.31.16.31.11q0-.03.04-.02 0-.1.03-.2l.05-.27zm1.26.34c.25 0 .45.33.36.6-.1.33-.62.33-.72 0-.09-.27.11-.6.36-.6m-30.03.29q.17.02.19.32-.01.21-.13.23c-.16 0-.28-.31-.18-.47q.05-.08.11-.08m-21.26.02c-.1 0-.21.07-.24.21q-.05.23.18.18c.12-.02.22-.12.22-.22 0-.12-.08-.18-.16-.17m56.61.2c-.64-.02-1.28 0-1.33.07-.03.05 0 .32.07.6.1.35.09.6 0 .87-.08.21-.1.43-.07.49.08.13.62.14.7 0 .04-.06 0-.27-.07-.47-.15-.4-.02-1.11.23-1.2.08-.02.22.1.31.29.15.28.16.4.02.79-.15.41-.14.46.06.57.57.3.75.07.43-.55-.23-.44-.22-.53.05-.86q.67-.76.6.85c-.05.6-.03.62.25.62.3 0 .3 0 .26-.9-.02-.5-.09-.96-.15-1.03a5 5 0 0 0-1.36-.15m-2.38 0q-.24.01.04.59c.26.54.17 1-.22 1.15-.35.13-.55-.3-.47-1.02.06-.5.05-.63-.1-.63-.26 0-.46.3-.52.81-.06.38 0 .53.26.85s.41.38.8.38.5-.05.7-.39c.4-.64.29-1.37-.24-1.65a1 1 0 0 0-.25-.09m-50.68.48c.16 0 .45.06.74.14l1.24.32a60 60 0 0 1 3.74 1.07c.7.2 1.5.46 1.8.56s.76.22 1.03.28c.27.05.64.15.84.22.74.25 1.3.4 2.49.7 1.12.26 3.15.87 3.82 1.13.15.06.4.11.57.11s.37.12.5.31c.12.18.4.52.61.77l.4.45v1.81c0 1.67-.02 1.82-.24 1.94-.28.15-17.57.17-17.66.02-.03-.05-.08-2.27-.1-4.93-.05-3.9-.02-4.84.1-4.89zm45.53 3.81c-.58 0-.76.06-1.1.34-.38.32-.42.41-.46 1.13-.06.9.06 1.2.61 1.54.57.34 1.3.3 1.66-.07l.28-.3-.69.08c-.62.07-.72.05-.99-.2-.24-.23-.3-.4-.3-.92 0-.53.06-.7.3-.94.36-.36.8-.38 1.1-.06.27.31.66.32.66.01 0-.42-.33-.6-1.07-.6m7.93.01q-.18 0-.44.06c-.46.1-.76.68-.76 1.5 0 .7.14 1.02.59 1.4.37.32.39.32.8.13.65-.3.9-1.92.42-2.7-.15-.26-.27-.37-.5-.39zm-.21.25q.17 0 .38.4c.26.56.26 1.38-.01 1.85-.41.72-.75.3-.75-.95 0-.83.16-1.3.38-1.3m-2.62.94c-.58 0-.89.05-.84.12.04.07.45.12.91.12.48 0 .84-.05.84-.12s-.38-.12-.91-.12m-31.39.42q.34 0 1 .24c.52.16 1.07.3 1.23.3s.44.08.63.17c.18.1.54.21.8.26.27.05.55.14.64.2.09.08.38.17.66.22.48.08.95.2 2.35.64.31.1 1.14.33 1.84.53l4.04 1.18c.92.28 1.5.55 1.43.66-.07.12-15.24.13-15.44 0-.09-.05-.16-.73-.2-1.93l-.05-1.85.3-.28c.26-.24.46-.35.77-.34m29.45 0q-.1 0-.27.17c-.14.14-.26.36-.26.5 0 .4-.46.29-.68-.19-.12-.23-.3-.42-.41-.42-.17 0-.22.16-.26.93-.03.51-.03.97 0 1.02.04.09.09.11.32.04v-.02q0-.1.02-.19l.03-.15v-.49q.02-.12.14-.15h.02q.06 0 .1.05a.4.4 0 0 1 .1.2l.04.22.07.22h.02q.05.05.07.11a1 1 0 0 1 .31-.01l.05-.18v-.04l.04-.16v-.02l.03-.11v-.07q0-.19.08-.19h.03l.01-.08q.05-.1.17-.08l.05-.03q.06 0 .14.06c.02.01.01.08 0 .1q0 .1-.03.17v.01q.06 0 .05.02v.79l.08-.04c.18-.1.21-.25.2-.96q-.02-1.04-.26-1.02m1.44.45q-.66 0-.47.32c.1.16.05.16 1.04-.04l.78-.15-.82-.1zm-10.49 4.42q.38.02.38.23c0 .2-.35.25-.93.16-.46-.07-.42-.25.08-.34a3 3 0 0 1 .47-.05m-40.09.73-.07.03c-.1.1-.2 27.7-.1 28.13.04.15.14.26.22.23.1-.03.14-3.45.14-14.12 0-7.74-.03-14.13-.08-14.2q-.05-.08-.1-.07m94.2 1.1c-.23.01-.34.1-.53.33-.43.5-.52 1.1-.24 1.48.12.16.3.32.4.35l.25.07c.03 0 .19-.07.34-.18.23-.16.33-.17.64-.04.44.18.63 0 .44-.43a.5.5 0 0 1 0-.51q.32-.56-.13-.7c-.15-.04-.3-.13-.35-.2-.04-.06-.3-.14-.56-.16zm.14.35a1 1 0 0 1 .22.03c.33.1.33.88 0 1.24q-.23.23-.28.25l-.23-.07c-.3-.08-.37-.44-.17-.91q.2-.54.46-.54m-27.9.45q-.85 0-.54.59c.17.33.17 1.9.02 2.38-.09.27-.07.27.81.27.84 0 .94-.02 1.3-.35.4-.38.41-.68.05-1.1-.14-.14-.14-.26-.03-.55s.1-.43-.05-.66c-.2-.32-.9-.58-1.56-.58m.54.6c.35 0 .62.29.52.54-.09.24-.78.24-.88 0-.1-.3.05-.54.36-.54m-48.63.24q-.25 0-.25.24t.25.24.24-.24-.24-.24m48.6 1q.22-.01.47.17c.24.2.26.27.14.49-.17.3-.83.37-.93.1-.17-.43.03-.74.33-.76m-48.5.7q-.08 0-.15.02c-.24.1-.29 1.3-.25 6.28.01 2.18 0 4.02-.05 4.08-.16.24-1.08.41-1.95.38l-.9-.04-.04-.38c-.04-.4-.6-1-.92-1-.48 0-1.4 1.36-1.4 2.08 0 .16-.07.36-.17.44s-.18.33-.18.55q.01.98 2.35 1.5c.95.21 5.22.29 5.96.1.3-.06.8-.17 1.13-.22.31-.04.63-.15.71-.23.39-.38.63.07.28.53a1 1 0 0 0-.18.43c0 .27-1.18 1.47-1.7 1.73-.5.27-1.55.64-1.8.65-.3.01-.52.2-.42.36.13.21 1.13.06 1.95-.3 1.19-.52 2.56-2.15 2.76-3.27.05-.25.16-.6.26-.8.2-.4.17-.65-.29-1.92a4 4 0 0 0-1-1.67 8 8 0 0 0-1.13-1 1.5 1.5 0 0 1-.59-.65c-.1-.3-.17-.35-.38-.3-.14.05-.51.11-.83.15-.98.13-.94.27-.93-3.83 0-1.98-.02-3.62-.05-3.66zm22.03 1.1q-.04 0-.1.06a.2.2 0 0 0-.03.26q.09.15.21.02a.2.2 0 0 0 .03-.26q-.05-.08-.1-.07m-.05 1.8c-.1 0-.14.75-.14 3.3v3.34l-.29.27q-.3.28-.54.2a7 7 0 0 0-2.26.6q-.73.35-.85-.04a2 2 0 0 0-.38-.54c-.41-.44-.87-.43-1.26.03a1.8 1.8 0 0 0-.39 1.56c.05.28.02.64-.07.9-.12.32-.12.48-.01.72.13.3.24.36 1.05.64.57.2 3.62-.03 4.12-.31.14-.08.4-.15.55-.15.35 0 2.25-.66 3.35-1.17 1.48-.68 2.14-1.63 1.6-2.3-.37-.45-1.93-.66-3.2-.43-.25.05-.59.06-.75.01l-.3-.07-.03-3.26c-.03-2.48-.07-3.27-.19-3.3m23.54 1.96q-.17 0-.57.23c-.6.33-.6.43-.06.7.35.17.44.5.46 1.6.01 1.17-.1 1.43-.84 1.76-.34.16-.7.36-.82.46-.1.1-.45.3-.74.47-.3.16-.67.37-.82.47-.24.15-.3.13-.73-.29-.63-.6-1.03-.58-1.42.1-.33.57-.35.85-.11 1.42.1.25.17.71.15 1.09q-.02.65.13.82c.22.22 2.39.18 2.86-.05.2-.1.69-.27 1.1-.38.76-.2 2.62-1.12 4.14-2.04.86-.52.9-.54.94-.28.06.48-.54 1.68-1.13 2.28-.67.67-1.85 1.28-2.48 1.28q-.71 0-.54.43c.08.2.08.2.92 0a5 5 0 0 0 2.31-1.25c.54-.5.73-.78 1.1-1.68a6 6 0 0 0 .45-1.54c0-.25.11-.64.25-.87.45-.72.14-1.69-.53-1.69-.23 0-.67-.43-.68-.66 0-.2-.98-1.09-1.41-1.3-.22-.1-.43-.32-.47-.47-.11-.35-.27-.44-.78-.45-.24 0-.49-.05-.56-.12q-.03-.04-.12-.04m1.48 1.38q.13 0 .38.26c.19.18.4.32.48.32.19 0 .63.6.63.84q0 .2-.45.34l-1.85.56c-.38.14-.5-.13-.5-1.04v-.88l.4-.06c.23-.04.53-.15.68-.24q.14-.1.23-.1m-46.65 1.94c.1 0 .42.16.75.38.69.46.9.52 1.01.24q.19-.53 1.24.57c.73.75 1.13 1.36 1.13 1.7 0 .1-.04.19-.1.18a7 7 0 0 1-1.41-.34 5 5 0 0 0-1.48-.14c-1.1.02-1.12.01-1.24-.3-.16-.42-.1-2.23.08-2.3zm48.3.23c.17 0 .25.06.37.24.1.16.23.45.27.65.14.71-.96 1.58-3.39 2.65-.8.35-1.6.72-1.77.82s-.52.17-.77.17c-.38 0-.42-.02-.3-.18.09-.1.23-.18.31-.18.22 0 .69-.67.64-.92-.07-.34-.68-.42-1.28-.15-.66.29-.75.29-.75.01s.73-.79 2.11-1.49 2.35-1.09 2.45-.98q.06.08-.14.22c-.48.28-.94.71-1.1 1.04-.17.32-.16.35.2.65q.38.33.63.24l.55-.14c.17-.04.45-.17.63-.3s.36-.22.42-.22c.21 0 1-.91 1-1.16 0-.42-.33-.58-1.13-.55-.8.04-.81-.14-.01-.25zm-.92 1.05c.31 0 .15.22-.38.53-.6.36-1.27.53-1.27.34 0-.14 1.39-.87 1.65-.87m-52 .36c.14 0 .55.61.55.82 0 .07-.09.21-.2.31-.22.23-.97.26-1.04.04-.12-.32.38-1.17.69-1.17m29.1.1c.43 0 .57.05.84.16.63.26.65.49.1.99a7 7 0 0 1-2.1 1.15 13.53 13.53 0 0 1-3.52 1c-.56.1-1.1.21-1.2.25-.25.08-.76-.14-.67-.29.05-.06.23-.12.4-.12.38 0 1.09-.4 1.19-.66q.23-.59-1.09-.52c-.81.04-1.02-.04-.82-.33.1-.17 1.2-.65 1.46-.65a1 1 0 0 0 .44-.17c.13-.1.37-.18.54-.18.16 0 .44-.08.6-.17.17-.09.74-.2 1.27-.25 1.42-.14 2.14-.2 2.57-.21m-7.9.28q.21 0 .4.37l.2.38-.47.4c-.25.21-.5.39-.53.4-.33 0-.32-1 0-1.33q.23-.22.4-.22m6.87.18c-.66 0-1.51.28-1.92.66-.33.31-.35.5-.09.75.32.32 1.44.25 2.22-.14 1.12-.56 1.14-1.1.06-1.25zm16.91.07c.57.02.76.65.2 1.04-.52.37-.56.34-.69-.44-.07-.46-.05-.5.23-.57q.15-.04.26-.03m-16.82.37c.54-.02.5.2-.15.47-.55.23-1.42.29-1.42.1 0-.2.62-.45 1.3-.54zm-24.5.39c1.31 0 2.67.02 3.04.06.72.07 1.74.4 2.08.7.25.2.27.65.05.84-.22.17-1.71.63-2.31.7-1.08.12-4.48.14-4.8.01-.43-.15-.37-.37.13-.47.21-.04.47-.14.57-.23.47-.39-.11-.96-1-.96q-1.1 0-.44-.44c.28-.18.65-.2 2.69-.21m-3.83.41q.23 0 .2.15c-.07.23-.45.26-.45.04q.01-.18.25-.19m6.2 0c-.3 0-.64.05-.75.11l-.54.24q-.34.12-.33.42c0 .4.29.6 1 .68.35.04.7.05.8.02s.4-.07.65-.09c.53-.03 1-.41.88-.7-.04-.11-.22-.26-.4-.33l-.55-.24c-.12-.06-.46-.1-.76-.1m15.4.3q.1 0 .1.13-.02.16-.18.17-.16-.01-.18-.1.02-.1.18-.18zm25.84.07c.24 0 .24.01-.04.24-.3.24-.5.3-.5.14 0-.18.3-.39.54-.38m-1.7 0q.08 0 .06.12a.4.4 0 0 1-.22.21q-.14.04-.1-.1a.4.4 0 0 1 .21-.21zm-39.48.11c.38 0 .76.06.92.17.12.1.2.2.16.25-.14.14-1.62.18-1.92.05-.3-.12-.3-.13-.07-.3.16-.1.54-.16.91-.17m-7.15.12q.13 0 .22.11c.03.06.22.15.42.2.19.03.4.14.48.23s.32.2.55.24c.25.04.42.14.42.25q0 .34-1.2-.09-1.09-.39-1.1-.78c0-.1.1-.16.21-.16m24.2.04q.31 0 .32.21c0 .06-.19.11-.42.11-.5 0-.56-.18-.12-.29zm-21.87.08c.49 0 .64.16.3.29a1 1 0 0 1-.28.06c-.66-.11-.67-.35-.02-.35m19.38.41c.31-.01 1.22.17 1.49.32.13.07.2.18.17.24-.09.14-1.1.14-1.46 0-.28-.12-.45-.44-.3-.54zm24.45.13h.52c.88.05 1.48.21 1.26.34a5 5 0 0 1-1.01.16c-.73.06-.92.04-1.05-.12q-.32-.35.28-.38m-62.45 9.18c-.83 0-1.03.04-1.03.18s.2.18.87.21c1.1.05 1.1.05 1.15-.19.04-.17-.1-.2-1-.2" style="fill:#000"/><path d="M11.96 16.8c0 .05-.06.18 0 .18s0-.25 0-.19c0 .07.04.9 0 .97l-.1.14c-.03.08 0 .27 0 .36M13.85 17.25c.07.3.04.62.04.92M70.73 18.72c.02.04 0 .13.05.12.04-.02-.05-.16-.05-.12q.01.1.05.19v.64q-.03.09-.03.16M67.19 18.38c.1 0 .16-.07.25-.1h.37q.12.05.25.08M67.92 24.77q.2 0 .4.03.06.01.13.04.15.02.28 0c.03 0 .14.06.14 0" style="fill:none;stroke:#000;stroke-width:.264583px;stroke-linecap:butt;stroke-linejoin:miter;stroke-opacity:1"/></svg>