<svg xmlns="http://www.w3.org/2000/svg" xml:space="preserve" width="120mm" height="60mm" viewBox="0 0 120 60"><path d="M49.7 55.2h-.9l-.2-.1-.8-.3-.7-.3-.4-.3-.4-.3v-.2l-.2-.2v-6.8l.2-.3.3-.2.2-.2.4-.2h.4l.2-.2.1-.1h.7l.6-.1.5-.1H51l1.3.2.6.3.7.4h1.6l1.5-.2 1.5-.1 1.5-.1h1.5l.7-.4.7-.3.4-.4.4-.4.3-.6.3-.5.1-.6.2-.6v-3l.2-2.8v-1.4l.2-1.3v-5.1l.2-1.2v-2.5l.2-2.4V22l-.1-.2h-1.2l-2 .2-2 .1h-3.2l-.6.2v.7l-.2.2h-.1v.3l-.6.4-.6.4h-.2l-.2.1-.1.2-.1.2v4.4l.1.2v.1h.6l.4.2.4.2.3.3.3.3v6.8l-.3.3-.3.3-.5.3-.4.2-.5.1-.5.1-.8.1-.8.1-.5-.1-.5-.1H50l-.5-.2-.6-.1-.4-.3-.3-.3h-.1l-.2-.2v-7l.3-.3.3-.2.3-.2.3-.1.3-.1h.3l.2-.3v-4.5l-.2-.3-.3-.2-.6-.4-.6-.3-.1-.3-.2-.2v-6.9h.1v-.1l.5-.4.4-.3.5-.1.4-.2.2-.2v-2.6l-.1-.2v-.3l-.4-.1-.3-.2-.2-.2-.3-.2V5.6l.2-.2.1-.1.5-.3.4-.3h3.7l.6.3.6.2.1.2.2.3v5.5H55l-.1.2-.2.1-.2.2h-.3l-.2.1v.3l-.2.2V15l.2.1.1.2h6l4.4-.2h.6l.7-.1.8.1.9.2.7.3.7.3.6.4.5.4h.1l.5.3.5.3h.2l.4.3.4.2.5.5.6.5.2.4.2.4.1.4.2.4v.4l.2.4-.1 9.4-.1 9.4-.1 2.5-.1 2.5-.2.7-.3.6-.1.3-.1.3v.3l-.4.6-.4.7-.2.3-.2.3-.7.7-.6.6-.6.4-.6.4-.4.3-.4.2-.6.2-.6.2-1 .3-1 .2h-1.7l-1.2.2-1.2.1h-2.4l-1.5.1-1.5.1h-1.7l-.1.4-.1.4-.5.3-.5.3-.6.3-.5.2-.8.1h-.8zm.6-.5h1.2l.8-.4.7-.3.3-.3.3-.3V48l-.2-.2-.3.2-.2.1h-.4l-.1.1-.1.1-.8.2-.8.1h-1.5l-.5-.1-.5-.2h-.6l-.5-.2-.5-.3-.1.1h-.1v5.4l.3.2.3.3.3.2.4.2.5.2.6.1h.1l.2.1zm4.6-2h1.6l1.6-.2h3.8l1-.2 1-.2h1.4l1-.2.9-.2.3-.1.3-.1.2-.1.2-.1.5-.2.5-.2.8-.7.7-.6.6-.6.5-.7.3-.6.3-.6V47l.2-.4.2-.3.1-.4.2-.5V45l.2-.4v-2.1l.2-2.1V27.8l.1-6.2V21l-.1-.6-.2-.4-.2-.5-.2-.3-.2-.3-.6-.5-.6-.5-.1-.1-.4-.2-.3-.2-.7-.2-.6-.2h-.6L68 17l-2.4.1-2.5.2h-1l-1 .1h-1.7l-1.6.1-.9.1-.8.1-.1.1H56v4h3.8l1.2-.2h3.2l2.2-.1.5.2.5.1.3.2.2.2.4.5.4.6v2l-.1 2.2-.1 2.3-.2 2.7-.2 2.7v1.2l-.2 1.2v1.9l-.2 1.8v1.5l-.1 1.4-.4.7-.4.8-.4.5-.4.5-.4.4-.4.3-.7.3-.7.4H61l-3 .1h-1.7l-1.8.1-.1.1-.1.2v4l.1.1h.4zm-4.4-4.4h.7l.2-.2h.7l.5-.3.5-.2.2-.2.2-.1v-.5l-.2-.2-.3-.3h-.2l-.3-.2-.3-.2h-1l-1.2-.2-1 .1-1.1.2-.3.1-.2.2h-.2l-.4.3-.3.3v.2l.2.3.3.2.4.2.5.2.7.1.8.2h.3zm4.7-.4h.1l4-.1 4-.1.5-.2.4-.1.6-.4.6-.3.4-.5.5-.5v-.2l.2-.3.1-.1v-.2l.3-.3.2-.3v-1.4l.1-1.4v-.2l.1-.2v-1.5l.2-1.5v-1l.1-1 .1-2.1.1-2.1.1-1 .1-1.1.2-2.8V23l-.5-.4-.5-.5-.7-.1-.7-.2h-.1l-.2.1v2.4l-.1 1.4-.1 1.4-.1 3.2-.1 3.2-.1 2-.1 2v2.2l-.1 2.3-.2.4-.1.3v.5l-.2.4-.3.5-.4.5-.4.5-.5.3-.5.3-.6.2-.5.2h-1.5l-1.5.1-1 .1-.9.1h-1.9v.2l-.1.2v.8l.2.1h.3l.3.1zM52 38.4h1l.9-.2.3-.1.3-.2h.3l.4-.2.3-.3v-2.7l.1-2.7H55l-.4.2-.5.2-.6.2h-3l-.5-.2-.6-.1-.3-.1-.4-.2h-.2v.1l-.1.2v5.2l.3.2.2.2.4.1.4.2h1l1 .2zm-.7-6.2h.2V32H51l-.4-.2-.4-.3-.1-.2v-1.2h-.4l-.3.1-.4.2-.3.2-.2.1v.5l.1.2.2.2.3.1.3.2.9.1.8.2zm1.8 0 .6-.1.2-.2h.5l.2-.1v-.1l.3-.1h.2l.2-.2.2-.2v-.5l-.3-.2-.3-.2-.4-.1-.4-.2-.1.1-.2.1.1.5v.4l-.4.4-.5.4-.3.1h-.3v.2zm-1.1-.6h.5l.2-.2.3-.2-.3.1h-1.5v.2h.1l.1.1zm0-.8h.2l.4-.1.4-.1v-.1l.2-.1H53v-.1l-.5.1-.5.1-.6-.1-.6-.2h-.2v.3l.2.1.2.1h.4zm0-.9h.1l.5-.1.5-.2v-.1h-.7l-.4.1h-.4l-.5-.1-.1-.1h-.2v.2l.5.2.5.1zm.1-.9h.5l.3-.1.3-.2v-.2H53l-.3.1H51l-.4-.1v.2l.5.2.5.2zm0-.9h.6l.2-.2.3-.2h-.5l-.2.1h-1.3l-.2-.2h-.2l-.2.1.4.2.3.2zm0-.9h.8l.2-.2.2-.2-.1-.1v-.1l-.4.1-.4.2h-1.1l-.2-.2-.2-.1h-.1l-.1.1v.3h.3l.2.1.2.2zm0-.9h.5l.3-.2.4-.2h-.1l-.1-.2-.5.2-.5.1h-.9v-.2h-.5v.3h.4l.4.2zm0-.9h.4l.4-.2.4-.2v-.2h-2.6v.2l.3.2h.2l.2.1.1.1zm.3-1 .8-.1.5-.2h.5l.3-.3.2-.2h.1l.4-.2.4-.3V18l-.1-.2-.5.1-.4.2-.7.2-.7.1h-2l-1-.1-.8-.1-.3-.2-.4-.2h-.3v5.4l.3.2.3.2.4.3.4.3.7.1.6.1h.6zm-1.6-6.6h.1v-.1l.1-.1-.3-.2h-.3l-.2-.3-.1-.2V16l-.1-.2h-.4l-.4.1-.4.3-.4.4v.2l.2.2.2.3.3.1.3.2h.7zm2.6 0h.2l.4-.1h.3l.4-.3.4-.1.2-.2.2-.2v-.5l-.3-.2-.4-.2-.3-.2-.4-.1-.2.2V17l-.3.2-.2.2-.2.1-.2.1v.1l.1.1zm3.2-.6h.5l2-.1 2-.1h.3l.4-.1 2.8-.2 2.8-.1h1.4v-.2l-.6-.3-.6-.3-.7-.1-.6-.2-5 .1-5 .1h-.6v.5h.1l.2.1v.5l.1.2.1.3zm-3.8-1.5h.2zv-.1zl-.1.1zm-.6-1.2h.5v-.1h-1.3.2l.2.2zm-.2-.7zm0-1.3h.4l.3-.1.2-.1V12h-1.8l-.1.2h.3l.2.2zm.1-1h1.2l.5-.1.6-.2.2-.2.1-.3V6.6l-.2-.1-.8.1-.7.2h-1.4L50 6.6l-.3-.1-.3-.1h-.2V11l.1.2.2.1.2.1h.3l.4.2h.4zm.2-5.2h.8l.7-.2.6-.2v-.4l-.2-.1-.3-.2h-.6l-.7-.1h-2.3l-.4.3-.5.1v.3l.1.2h.5l.5.2h.5l.5.2z" style="fill:#000"/></svg>