<svg xmlns="http://www.w3.org/2000/svg" xml:space="preserve" width="120mm" height="60mm" viewBox="0 0 120 60"><path d="m132.84 44.51 61.9 27.13" style="opacity:1;fill:#000;fill-opacity:.920746"/><path d="M78.58 3.1h-.03c-.18 0-.38.16-.38.34 0 .07-.13.31-.3.53-.26.36-.28.46-.21 1.15.05.56.03.85-.1 1.1-.08.18-.27.76-.41 1.3s-.38 1.31-.53 1.72a15 15 0 0 0-.47 1.66c-.1.5-.26 1.05-.33 1.2-.08.17-.18.54-.22.83-.04.3-.23.99-.42 1.55-.2.56-.4 1.25-.46 1.53-.14.68-.56 2.06-.71 2.35-.07.13-.18.49-.25.8-.12.56-.14.58-.55.62-.23.01-.57-.05-.76-.15s-.46-.18-.58-.18c-.13 0-.43-.1-.67-.23a2 2 0 0 0-.68-.23c-.14 0-.4-.07-.57-.16-.18-.1-.87-.33-1.53-.52-.67-.2-1.3-.41-1.42-.48a3 3 0 0 0-.75-.21c-.54-.1-2.06-.58-2.74-.88a2 2 0 0 0-.55-.16c-.1 0-.62-.15-1.17-.33-1.76-.59-2.22-.68-3.18-.65-.51.02-1.08.07-1.27.12-.58.15-1.7.7-2.16 1.08-.25.2-.72.48-1.05.64-.58.27-.6.28-1.22.1-.48-.15-1.39-.2-4.23-.24-3.12-.04-4-.01-6.43.2-2.99.28-3.06.3-3.4.94q-.3.61.02.9c.1.08.14.24.1.35q-.06.2.2.34c.33.17.79.58.79.7 0 .13-1.15-.02-1.5-.19a4 4 0 0 0-.86-.22c-.93-.12-1.82-.3-2.03-.42-.11-.06-.33-.1-.48-.1-.16 0-.43-.06-.6-.13a6 6 0 0 0-.85-.21 42 42 0 0 1-3.04-.63c-.95-.27-1.45-.38-2.23-.52a60 60 0 0 1-3.8-.8c-.47-.13-1.06-.26-1.31-.3a8 8 0 0 1-1.55-.42 5 5 0 0 0-1.02-.16 3 3 0 0 1-.97-.18 3 3 0 0 0-.77-.23c-.28-.04-.87-.16-1.32-.24-.44-.1-1.13-.23-1.54-.31a7 7 0 0 1-1.13-.3c-.2-.09-.57-.16-.8-.16s-.49-.05-.55-.11a3 3 0 0 0-.93-.23c-.98-.14-1.35-.3-1.59-.66-.16-.25-.22-.26-1.1-.2-1.17.07-1.5.28-1.77 1.1-.3.88.02 1.41.54.94.15-.14.21-.35.21-.8q0-.6.13-.62c.07 0 .4.17.72.36.53.33.6.35.93.22.19-.09.47-.15.63-.14.52.01 2.11.33 2.93.57.67.2 2.3.58 3.5.8.68.12 1.73.42 1.79.5.03.06.32.1.65.1.57 0 2.18.29 2.4.42.19.12 1.57.43 3.76.85.35.07.8.17.99.23.2.06.46.11.6.11s.54.08.9.18l1.13.29 1.2.27c.41.1 1.19.26 1.73.36.53.1 1.36.28 1.83.4.48.13 1.1.28 1.38.34 1.51.3 2.35.49 3.53.8.53.13.61.34.31.74-.2.27-.22 1-.03 1.19q.3.32.63-.16c.16-.26.17-.37.05-.83-.11-.41-.11-.54 0-.6.2-.13.3-.04.58.53q.38.81.87.71c.16-.03.13-.1-.18-.43s-.35-.42-.22-.54c.16-.16.26-.15 1.92.25.4.1 1.08.23 1.49.3s1 .18 1.32.27c1.3.37 1.53.42 2.3.51.46.06.93.16 1.06.23s.35.12.49.12.45.11.68.25c.68.38.9 1.09.49 1.58-.19.23-.24.24-.72.12l-1.09-.25a9 9 0 0 1-.97-.26c-.36-.13-.97-.3-2.76-.75-1.3-.34-1.82-.51-2.4-.8-.8-.4-1.15-.5-1.15-.36s.68.56 1.4.84c1.32.5 4.07 1.35 4.37 1.35.18 0 .46.08.63.16s.49.19.71.23c.87.16 1.53.4 1.68.6s.2.2.71.06c.4-.1.64-.1.87-.02.51.2 3.08.81 3.4.81.35 0 3.68.71 3.62.78-.02.02-1.87.07-4.1.1-4.63.05-4.61.06-4.3-.69.2-.49.14-.85-.11-.64a.5.5 0 0 0-.16.34c0 .26-.36.9-.55.97s-9.98.09-10.1.01c-.06-.03-.08-.33-.05-.67.06-.7-.1-1.12-.43-1.12-.44 0-.58.63-.29 1.2.1.19.16.4.13.47-.1.25-7.88.4-22.17.45-6.66.02-6.89.01-7.13-.2-.2-.18-.35-.2-.7-.14-.23.04-.65.09-.93.1-.59.02-.87.3-.59.58.2.18 1.33.53 1.73.53.15 0 .37-.1.5-.23.23-.21.48-.22 7.41-.25 3.95-.02 7.24 0 7.32.05s.14.21.14.36.04.3.09.34.14.48.2.97c.13 1 .33 1.17.68.57l.6-.96c.2-.32.41-.75.45-.95q.07-.37.32-.41c.42-.09 8.64-.18 22.16-.25 11.63-.06 13.23-.05 14.38.11.71.1 1.54.19 1.85.19.3 0 .81.08 1.14.18.34.1 1 .23 1.49.3 1.84.24 1.91.25 1.95.48a1 1 0 0 1-.07.46c-.2.45-.94 2.9-.94 3.13q0 .22-.82 2.73c-.3.92-.47 1.55-.55 2.08-.06.33-.16.7-.23.83-.06.13-.12.37-.12.53s-.09.43-.2.6c-.1.15-.27.7-.38 1.22-.12.52-.32 1.23-.46 1.57a7 7 0 0 0-.33 1.1c-.05.25-.14.63-.22.85-.5 1.49-.94 2.89-.94 3.05 0 .22-.31 1.3-.46 1.57-.06.11-.11.3-.11.43q0 .22-.29.3c-.36.09-.42.33-.38 1.43.04.83.05.86.34.89.26.03.32-.02.39-.33.04-.2.18-.53.3-.73.24-.4.28-.88.09-1.23-.1-.18-.08-.3.08-.54.11-.17.24-.51.28-.76.05-.26.2-.85.33-1.32.14-.48.28-1.02.31-1.2.04-.2.14-.43.22-.52s.17-.43.2-.75c.05-.54.48-1.95.84-2.79.09-.2.16-.51.16-.68s.08-.45.17-.6c.1-.16.17-.43.17-.6 0-.4.28-.62.61-.46.27.13 1.28.27 2.19.3l.55.01-.01 5.68c-.02 5.17-.04 5.7-.22 5.9-.11.12-.2.4-.2.68v.48h-.7q-1.2 0-.88.49c.22.35.68.44 1.23.23s.69-.16.81.23q.08.23.17.25c.16 0 .35-.27.35-.5 0-.12.1-.5.2-.84.19-.59.18-.62-.04-.92s-.24-.55-.31-3.76c-.04-1.9-.1-6.2-.13-9.58-.04-3.38-.09-6.72-.12-7.42-.05-1.1-.03-1.3.13-1.47a.4.4 0 0 1 .44-.12c.13.03.75.11 1.38.17.64.05 1.51.16 1.95.23.45.07 1.17.12 1.61.11s1.09.04 1.44.1c1.08.21 2.82.4 3.06.32.13-.04.38-.02.56.05.43.16 3 .68 3.38.68.16 0 .35.06.41.12.07.07.4.15.74.19.35.04.68.1.74.16.06.04.67.2 1.35.33.67.13 1.36.29 1.52.35a2 2 0 0 0 .6.11c.3 0 1.54.26 2.5.52.31.09.86.2 1.2.23.35.05.7.13.77.2.07.05.38.14.69.2l1.3.27q1.15.27 4.82 1.05c.79.17 1.69.39 2 .49s.89.22 1.27.27 1 .17 1.38.26l1.13.29c.24.06.58.24.75.4.26.25.42.3.95.3.76 0 1.24-.15 1.24-.4 0-.1-.34-.33-.86-.58-.84-.4-.86-.4-1.26-.2-.33.15-.45.16-.66.05a4 4 0 0 0-.84-.24l-1.32-.23c-.4-.07-1.03-.2-1.37-.3a38 38 0 0 0-3.56-.8c-.6-.1-1.25-.23-1.43-.28-.33-.1-1.67-.42-2.99-.7l-1.09-.28a22 22 0 0 0-1.72-.4c-.66-.12-1.7-.34-2.3-.47a31 31 0 0 0-1.66-.33c-.55-.08-1.45-.3-2.84-.67-1.19-.32-.48-.4 2.64-.25 1.63.07 4.44.16 6.26.2 2.85.05 3.33.03 3.5-.12.1-.1.3-.2.42-.21q.23-.03.4-.56c.08-.28.32-.74.54-1.02.21-.28.38-.6.38-.7 0-.11.08-.26.17-.34.24-.2 1.44-2.24 1.44-2.44 0-.1.1-.26.24-.38.12-.12.36-.48.52-.8.16-.31.41-.7.56-.86a7 7 0 0 0 1.1-2.09c0-.16-.22-.32-.78-.57-.43-.2-.86-.42-.95-.5a3.4 3.4 0 0 0-1.76-.35c-.4.07-1.72 1-2.58 1.8-.1.1-.52.4-.91.66-.4.27-.72.56-.72.65 0 .1-.12.22-.28.28a10 10 0 0 0-2.25 1.75c-.17.18-.38.32-.47.32s-.43.1-.76.23c-.34.13-.92.27-1.3.3-.95.1-2.7-.26-3.68-.77-.46-.23-.9-.29-.9-.11 0 .15.19.25 1.02.54.4.14 1 .39 1.32.54s.85.37 1.16.48c.32.1.66.23.77.3l.92.34c.4.13.8.31.9.39s.3.18.45.22.55.2.86.35l1.15.5c2.1.85 3.13 1.46 2.89 1.7-.11.12-6.8.05-8.68-.09-.92-.06-2.6-.14-3.73-.17a26 26 0 0 1-2.76-.18c-.38-.08-1.07-.15-1.55-.16-.82-.01-2.55-.3-3.04-.51a3 3 0 0 0-.57-.15c-.72-.11-4.29-.88-5.28-1.13a8 8 0 0 0-1.01-.18c-.73-.07-.88-.34-.62-1.14l.54-1.76.52-1.72c.1-.28.17-.65.17-.8s.12-.65.27-1.1l.28-.8h.5c.27 0 .57.06.67.13s.38.16.64.2.62.15.8.24c.19.1.42.18.52.18s.43.13.73.29.73.33.96.4c.81.2 2.3.67 2.54.8.13.07.62.25 1.07.4.93.32 1.46.51 2.38.87.35.14.8.28 1 .3.2.04.43.13.5.22s.25.16.4.16.3.05.34.12c.1.16.77.14.72-.02-.03-.07-.38-.24-.79-.38-.4-.13-.85-.3-.99-.38a1 1 0 0 0-.46-.14 1 1 0 0 1-.44-.17c-.12-.1-.36-.17-.52-.17s-.34-.05-.4-.1c-.1-.09-1.66-.7-2.86-1.1-1.07-.38-2.52-.87-3.1-1.06-.32-.1-.63-.23-.69-.27s-.3-.13-.51-.18c-.38-.08-.94-.29-1.4-.52-.12-.06-.29-.1-.39-.1s-.33-.08-.52-.18c-.33-.17-.34-.2-.26-.78.04-.32.12-.72.19-.88a20 20 0 0 0 .38-1.32c.37-1.37.56-2.06.77-2.75a313 313 0 0 0 2.03-7.06c.14-.6.33-1.2.41-1.35.1-.13.16-.33.16-.42 0-.1.16-.28.35-.41.33-.24.34-.27.34-1.2 0-.78-.03-.97-.19-1.03zm.4 3.73c-.5 0-.71.22-.47.5.13.17.1.35-.35 1.77-.06.2-.09.42-.05.48.1.16 1.36.15 1.72-.01.33-.15.5-.52.3-.7q-.1-.15-.54.07c-.23.1-.46.16-.51.1-.1-.1.08-.97.32-1.49.25-.52.14-.72-.42-.72m-60.83 4.93q-1.24 0-1.13.53.05.23.36.2c.26-.02.31.02.31.25 0 .15-.04.3-.1.34-.06.03-.14.28-.19.55a2 2 0 0 1-.19.63c-.06.07-.08.2-.03.26.04.07.23.11.43.1.33-.04.36-.08.5-.79.27-1.35.23-1.28.7-1.24.38.03.44 0 .47-.25.06-.41-.26-.58-1.13-.58m40.64 4.21q.28 0 1.15.22c1.49.38 2.96.85 3.23 1.03.12.08.3.12.42.09s.39.02.6.12.82.28 1.36.41c.53.13 1.15.31 1.38.4s.94.33 1.6.52c.66.2 1.34.43 1.5.51s.56.22.91.3.87.23 1.15.35.65.23.82.27c.43.1.47.33.21 1.14-.12.39-.3 1.07-.4 1.52-.09.45-.27 1.15-.4 1.55-.52 1.6-.68 2.13-.8 2.6-.07.27-.2.49-.27.48-.16 0-.73-.42-1.52-1.13-.31-.3-.93-.8-1.37-1.13l-1.55-1.18c-.41-.31-.8-.57-.85-.57-.06 0-.22-.1-.35-.21-.24-.22-1.5-.97-2.55-1.51a9 9 0 0 0-1.6-.56 4.2 4.2 0 0 0-3.14.26c-1.14.65-1.16.65-2.03.47a11 11 0 0 0-1.9-.17c-.6 0-1.14-.05-1.18-.11-.07-.13.24-1.49.47-2.05.2-.47.2-.83.02-.82-.22 0-.51.68-.78 1.8-.14.6-.37 1.2-.55 1.47-.28.4-.38.46-.77.47-.26.01-.68.13-.95.27-.46.24-.53.25-1.48.11a8 8 0 0 1-1.4-.3 2 2 0 0 0-.72-.15c-.19 0-.45-.07-.59-.14a3 3 0 0 0-.88-.22c-2.5-.31-4.5-1.03-5.75-2.05-.5-.41-.64-.6-.64-.86-.01-.2-.03-.42-.05-.5-.03-.1.12-.27.33-.4.37-.22.73-.26 4.39-.53 2.67-.19 7.7-.08 9.24.2.88.17 2.03.5 2.37.67.55.29 1.18.2 1.77-.25.29-.22.57-.37.63-.34.05.04.07.3.03.57q-.11.86.55 1.22c.25.13 1.07.39 2.56.8.98.26 2.22.3 2.54.05.33-.25.42-.21.71.3.3.5.69.72 2.13 1.15.45.13.88.29.94.34.13.1.93.32 1.51.41q.36.06.63-.12a1 1 0 0 1 .44-.19c.32 0 .98-.65 1.14-1.13.14-.41.13-.5-.07-.84-.23-.41-.67-.66-2.16-1.24l-1.28-.52a4 4 0 0 0-.78-.23c-.22-.05-.44-.13-.47-.18-.14-.22-.81-.1-1.32.24a3 3 0 0 1-.6.34c-.05 0-.08-.18-.08-.4 0-.33-.07-.44-.44-.69-.6-.39-3.42-1.07-4.51-1.08-.49 0-.55-.04-.68-.36s-.13-.47.13-.49m-1.52.27h.3q.2.02.34.07c.3.11.22.7-.12 1-.16.13-.45.4-.63.57-.27.25-.43.3-.88.3a4 4 0 0 1-1.36-.25c-.12-.12.19-.54.5-.7.18-.09.41-.27.53-.4.12-.14.29-.25.36-.25q.14-.01.29-.17c.08-.1.37-.16.67-.17m2.22 1.05.34.03c.33.05.68.13.79.19s.55.15.98.2c1.19.17 1.8.35 2.09.63.23.22.26.32.19.82-.05.32-.18.72-.3.9-.21.3-.28.31-1.05.3-.46 0-.93-.05-1.06-.1-.45-.19-1.74-.58-1.92-.58-.1 0-.39-.14-.65-.3-.43-.29-.47-.35-.47-.84 0-.44.06-.58.4-.9.29-.29.39-.36.66-.35M8.27 18.76c-.1 1.12-.1 8.44-.01 8.7.1.3.28.13.2-.22-.03-.2-.07-2.43-.08-4.96-.01-3.28-.04-4.3-.11-3.52m57.63.35c.35 0 .73.09 1 .23.23.12.53.23.66.23s.29.04.35.1c.06.05.63.28 1.27.52 1.49.55 1.62.76.95 1.44-.46.46-.46.46-1.36.46-.66 0-.94-.04-1.04-.17a.5.5 0 0 0-.33-.17c-.1 0-.33-.08-.5-.17-.18-.1-.5-.2-.73-.24s-.42-.12-.46-.18c-.03-.05-.15-.1-.26-.1-.27 0-.67-.43-.76-.82-.06-.24 0-.39.29-.72.32-.37.42-.41.92-.41m-52.4.17q-.23 0-.26.27c-.04.22 0 .26.23.23.34-.05.38-.5.03-.5m-1.88.06c-.2 0-.42.13-.45.33-.02.16-.17.49-.33.74-.3.47-.3.47-.4.19-.06-.16-.08-.5-.04-.77l.08-.5h-.46c-.53 0-.61.14-.41.7.08.24.18.78.23 1.21.04.44.14.83.2.88q.13.08.2.08c.2 0 .8-.8.8-1.07q0-.17.1-.24c.25-.15.84-1.34.73-1.46a.4.4 0 0 0-.25-.1m3.15.8c-.58 0-.64.03-.7.3-.05.16-.05.45-.02.65q.03.2.02.35l.04.07.03.1-.01.15-.03.31v.09l.67-.01-.04-.46c-.03-.56.06-.97.22-.97q.12.01.08.71l-.03.72h.8l.03-.77c.05-1.01-.15-1.24-1.06-1.24m2.41 0c-.3 0-.75.45-.75.77 0 .3.24.35.46.1.18-.23.4-.23.57 0 .12.13.12.3 0 .85-.08.37-.11.76-.07.86.08.21.4.23.46.03l.19-.66c.07-.28.22-.76.32-1.06q.3-.87-.2-.58c-.15.1-.26.08-.48-.09a1 1 0 0 0-.5-.22m-4.83.02q-.17 0-.4.1-.57.2-.16.83l.13.1.1.08.06.06.13.16q.02.03.03.08v.01q-.03.05-.08.05h-.02l-.06-.06-.01-.01-.04-.03c-.18-.14-.23-.14-.38.01-.14.14-.15.23-.05.41s.18.22 1 .22q0-.02.04-.04l.08-.04.08-.05.12-.11.02-.04v-.05l.04-.15.04-.14v-.09l-.04-.06-.04-.08-.03-.08-.02-.03q-.03 0-.06-.02l-.01-.03-.06-.05q-.04-.05-.01-.08l-.02-.02q0-.03-.04-.05l-.05-.06v-.02l-.06-.05q-.05-.03-.02-.1h.02l.02-.01.08-.02.07-.02h.05q.15-.08 0-.28a.5.5 0 0 0-.45-.24m1.12.04-.1.02q-.15.07-.15.55 0 .22-.02.36v.24l-.02.2q0 .06-.02.12l-.03.2q.02 0 .02.05v.23h.6v-.01l.04-.16v-.1l.01-.19-.01-.63q0-.9-.32-.88m88.61.41q.32 0 .93.27c.65.29.78.45.46.57-.29.11-.76.07-1.24-.1-.6-.21-.72-.35-.54-.57q.14-.17.4-.17m-89.39.17h-.04v.01h.04m88.23.39c.29 0 .78.43.78.67a7 7 0 0 1-1.32 1.79q-.16.06-.17.2c0 .07-.36.52-.79 1a33 33 0 0 0-2.3 2.9c-.14.17-.24.36-.24.43q-.02.12-.22.24a1 1 0 0 1-.26.1 93 93 0 0 1-3.53-1.5c-.15-.08-.27-.2-.26-.25 0-.06.42-.24.93-.4.5-.18 1.02-.4 1.13-.5.12-.11.28-.2.35-.2s.33-.2.57-.43c.24-.24.76-.66 1.15-.93.4-.28.71-.54.71-.59s.13-.14.3-.21c.15-.07.53-.37.84-.65s.6-.52.64-.52c.06 0 .4-.26.76-.57.4-.35.77-.58.93-.58m-40.36.28c.38-.02 1.1.19 1.85.54.52.25.98.45 1.02.45.25 0 3.23 1.97 3.55 2.35.07.07.28.22.48.33.2.1.41.25.46.33s.37.35.7.6.6.5.6.54c0 .16-.27.1-.63-.14a1.4 1.4 0 0 0-.57-.23 1 1 0 0 1-.4-.15c-.15-.13-1.96-1-2.82-1.34a5 5 0 0 1-1.92-1.15 18 18 0 0 0-2.44-1.78q-.2-.12-.13-.26.06-.08.25-.1m-1.74.33q.17 0 .5.08c.75.19 2.67 1.35 2.67 1.62 0 .18-.5.12-.92-.1-.22-.13-.7-.31-1.09-.42-.38-.1-.85-.27-1.05-.36s-.44-.16-.54-.16c-.28 0-.22-.32.1-.53a1 1 0 0 1 .33-.13m44.72.1c.4 0 .77.03.86.1.2.16-.11.79-.98 2-.32.45-.57.9-.57 1 0 .11-.15.37-.32.58-.37.44-.43.54-1.12 1.78-.3.52-.58.98-.64 1.01s-.18.23-.28.43q-.32.73-.63.97c-.27.22-.68.15-1.32-.23-.19-.11-.57-.32-.86-.46-.54-.27-.72-.62-.41-.8q.16-.1.18-.22c0-.07.12-.24.26-.38s.57-.66.95-1.15l1.1-1.39c.24-.27.46-.6.5-.73q.08-.21.16-.23c.05 0 .47-.46.94-1.03.46-.56.97-1.08 1.13-1.13a4 4 0 0 1 1.05-.12m-48.89.33c.63.02 1.32.08 1.8.18.94.19 3.58 1.01 4.85 1.51.41.16.98.36 1.26.43.79.22 2.17.8 3.4 1.44.62.31 1.2.57 1.3.57s.37.13.58.29l.4.28h-.58c-.3-.01-.67-.06-.8-.11-.33-.14-1.73-.43-2.51-.52a3 3 0 0 1-.92-.24 1 1 0 0 0-.54-.16 2 2 0 0 1-.63-.13 3 3 0 0 0-.79-.16c-.55-.04-2.35-.43-2.54-.55-.15-.1-1.07-.3-1.93-.42-.32-.05-.91-.17-1.32-.27l-1.72-.38c-1.3-.26-1.4-.35-1.17-1.03q.17-.52.44-.63c.22-.08.79-.11 1.42-.1m-2.9.77c.17 0 .21.07.24.23.03.23-.02.26-.38.26q-.41 0-.48-.18c-.1-.23-.04-.27.42-.3zm-14.63.15c-.42 0-.62.12-.89.56-.15.25.18.35.54.17.26-.14.37-.15.5-.04.2.16.22.94.04 1.27-.07.13-.1.31-.06.4.14.38.46.1.67-.59.11-.37.28-.85.37-1.05.1-.2.17-.41.17-.48 0-.2-.4-.15-.58.05-.13.17-.16.16-.24-.06-.07-.18-.19-.23-.52-.23m15.92 1.1q.16 0 .33.06c.16.07.48.17.7.22.93.2 1.72.36 2.58.52 1.85.34 2.05.38 2.17.5.06.07.28.12.47.12s.68.1 1.08.23.87.23 1.04.23.72.1 1.22.24 1.18.29 1.51.35.9.18 1.27.28c.36.1.9.23 1.2.28s.63.15.74.21c.23.13-2.96.14-3.2 0-.09-.04-.87-.1-1.76-.15-1.58-.07-4.68-.49-6.14-.82l-1.15-.27a6 6 0 0 1-1.9-.7c-.25 0-.86-.7-.83-.96.04-.22.35-.35.67-.34m-.95 1.21c.12 0 .38.21.38.34a.1.1 0 0 1-.1.1c-.15 0-.4-.34-.33-.42zm18.93 2.89c.04.03.03.2 0 .36-.08.26-.13.29-.7.29a2 2 0 0 1-.66-.06c-.03-.03-.51-.1-1.07-.14-1-.09-1.38-.28-.84-.41a21 21 0 0 1 3.27-.04m.92 0q.13 0 .28.08c.13.07.47.17.77.22 1.78.32 2.58.48 3.07.63.31.1.7.17.87.18.38 0 .67.1.67.24 0 .11-.1.1-1.03-.02-.35-.05-1.47-.17-2.49-.27-2.15-.2-2.45-.3-2.45-.68q.02-.36.31-.37m-45.45.3c.2 0 .4.27.32.65-.08.4-.45.92-.54.77-.16-.25-.21-.95-.1-1.17q.15-.25.32-.24m3.2.82q-.25 0-.55.28c-.41.38-.45 1.1-.06 1.36.14.1.35.18.47.18.2 0 .2-.01.03-.28-.1-.16-.18-.47-.18-.69 0-.32.04-.4.21-.4.3 0 .54.58.37.9-.2.38-.03.53.28.24l.26-.25.08.24c.09.29.52.33.52.06q-.02-.23.17-.05c.1.08.25.11.34.08.2-.08.25-.65.06-.65q-.05 0-.08-.13l-.05-.04-.1-.1-.02-.02-.12-.1h-.02l-.07-.05-.02-.03-.14-.1c-.15-.12-.25-.13-.4-.03l-.1.05v.04h-.01V30h-.03v.02l.04.09q0 .02.02.05l.03.03.04.02.08.04.1.1v.01l.1.06.07.08.1.07.07.07q.02.04 0 .07l-.07.03h-.03l-.03.01h-.01l-.12.03h-.25q-.05 0-.08-.03v-.02l.02-.1q0-.1.03-.17v-.02l-.02-.03v-.1l-.01-.06-.02-.01-.05-.05-.03-.07q0-.04-.03-.08l-.03-.08-.02-.04a1 1 0 0 1-.24-.2q-.24-.26-.5-.26m1.54.11q-.14-.02-.05.24l.01.03h.01l.04-.02h.33v.02h.04c0-.2-.06-.23-.24-.26zm1.84.03q-.06 0-.1.02c-.21.06-.62.68-.52.78.04.03.21-.03.4-.13.3-.17.33-.17.56.03.26.24.3.64.11 1-.07.13-.1.3-.06.4.03.08.09.16.12.16.1 0 .52-.9.52-1.12 0-.12.08-.32.17-.44.22-.29.22-.5 0-.5q-.15 0-.17.1-.01.11-.17.12t-.17-.12c0-.14-.43-.3-.7-.3m-4.95.08c-.5 0-.9.39-.9.85 0 .4.08.55.39.72.23.12.6.07.84-.11.2-.16.06-.34-.2-.26-.3.1-.6-.36-.44-.68.18-.33.16-.33.42-.16.27.16.43.08.32-.19q-.07-.16-.43-.17m3.25.24v.01m-.15.04v.02h.01v-.02m-.69 0-.01.02h.03zm.88.06.02.01zm.09.03v.04l-.04.02.02.01.02-.05h.01zm-.8.36v.02zm.06.13v.02zm-.08.02-.02.07v.02zm.35.12v.02zm39.94.06h.01c.1.03.16.82.2 2.56l.16 4.24c.06 1.34.04 1.76-.08 1.9-.2.27-1.52.38-1.7.15-.08-.09-.34-.16-.6-.16-.45 0-.45 0-.4-.37.04-.2.15-.66.26-1 .3-1.04.63-2.33.63-2.5 0-.1.07-.33.16-.53.1-.2.28-.75.41-1.22l.41-1.38c.09-.28.22-.79.3-1.12.06-.35.16-.57.24-.57m37.56 1.51q-.15 0-.28.02l-.67.07-.08.74c-.04.41-.15.95-.25 1.2-.1.24-.15.52-.12.62.05.12.25.17.77.17.8 0 1.15-.15 1.71-.74.91-.94.26-2.08-1.08-2.08m.08.66h.14c.32.03.35.08.38.5.05.6-.44 1.21-.87 1.1-.32-.09-.32-.1-.06-.94.17-.54.21-.66.4-.66m-51.72 6.69q-.06 0-.14.03c-.14.05-.15.24-.09 1.1.04.58.13 1.11.19 1.19q.25.3.55-.34c.24-.5.44-.52.48-.06q.09 1.1.94-.64c.6-1.2.6-1.22.37-1.22s-.53.5-.53.86c0 .26-.03.28-.22.18q-.23-.12-.26-.61c-.03-.4-.08-.49-.26-.49s-.25.1-.3.43c-.04.24-.1.47-.15.52-.12.12-.41-.31-.41-.6q0-.36-.17-.35m4.62.6c-.15.01-.31.1-.56.27-.22.16-.3.31-.3.66-.02.4.02.5.34.7.62.4.97.3 1.48-.43.2-.3.5-.24.62.11.1.3-.02.4-.24.22-.24-.2-.37-.04-.15.18.16.16.22.16.6 0 .46-.2.5-.39.21-.84q-.21-.32-.05-.35c.07-.03.14-.15.14-.27 0-.3-.5-.3-.92 0l-.31.23-.37-.27q-.28-.21-.49-.2m-1.53.03q-.31 0-.54.32c-.1.17-.26.4-.33.49-.1.14-.07.27.13.6.23.4.3.44.67.4.54-.04.6-.32.1-.54-.38-.18-.52-.5-.32-.8.09-.15.14-.14.34.04s.27.19.41.07c.16-.14.16-.17-.01-.36a.6.6 0 0 0-.45-.22m5.05.02q-.16 0-.34.2c-.26.3-.12.56.16.3.18-.16.22-.15.46.1.21.23.25.38.2.78-.02.27-.09.61-.13.76q-.1.26.08.25c.18 0 .5-.64.59-1.2.03-.2.1-.44.14-.57q.12-.25-.12-.14-.2.07-.54-.2-.32-.29-.5-.28m-3.46.34c.32.02.5.48.3.85-.18.34-.24.35-.5.07-.28-.32-.2-.86.13-.91zm7.65.56c-.33 0-.47.07-.61.28q-.35.5.27.26c.27-.1.37-.09.56.09.25.22.32.8.12.92-.06.04-.11.23-.11.42 0 .4.23.4.36-.03.07-.24.39-1.08.61-1.62q.1-.21-.1-.2-.16.01-.18.11c0 .18-.35.13-.42-.06q-.07-.16-.5-.17M76 42.2c-.22 0-.4.2-.37.44.02.14 0 .39-.04.54-.06.24-.1.27-.25.14q-.18-.14-.1-.57.1-.7-.53-.5c-.17.05-.2.14-.15.43l.1.77c.06.44.19 1.04.26 1.17.12.2.35.06.53-.31.2-.43.46-.55.42-.2-.04.44.01.6.23.6q.21 0 .51-.6l.4-.78c.42-.7.44-1.2.04-1.12q-.2.04-.2.34c0 .17-.04.34-.08.39-.05.05-.09.18-.09.3q-.01.18-.16.2c-.2 0-.33-.47-.23-.85.05-.21.02-.3-.13-.37zM65.61 52.63q-.1-.01-.15.04-.06.08.1.18c.21.14.42.14.5 0 .06-.1-.24-.22-.45-.22m1.47.36q-.1 0-.16.03-.1.07-.05.18c.09.14.63.14.63 0 0-.1-.24-.2-.42-.21m-1.92 1.35q-.18.01-.26.2c-.16.48-.45 1.05-.53 1.06-.1 0-.19-.42-.16-.86.02-.3-.02-.34-.27-.34-.24 0-.3.06-.36.45q-.08.46.09.77c.09.17.16.49.16.7 0 .22.03.42.07.47.2.19.37.01.8-.8.24-.49.51-1 .6-1.15s.11-.32.08-.39a.2.2 0 0 0-.22-.1m-2.35.01c-.33 0-.43.23-.23.58.08.15.13.54.12.87s.02.7.1.84q.26.48.55-.27c.14-.37.14-.47-.03-.82-.1-.21-.17-.56-.15-.77.02-.34 0-.39-.3-.42zm4.25 0q-.12 0-.13.16.01.17.17.15c.25-.05.27-.25.03-.3zm1.3.68c-.27 0-.53.04-.6.14-.13.21-.12 1.5.02 1.6q.45.33.46-.7c0-.4.05-.53.2-.56.18-.03.2.05.2.53 0 .64.22.95.46.65.18-.21.1-1.23-.1-1.49-.1-.1-.37-.16-.64-.17m-2.36 0q-.15 0-.41.07c-.23.06-.25.14-.24.86V56q.04-.04.09-.04h.04l.05.03.03.03.11.14h.03c.1.01.13.1.07.14l-.02.1q-.03.16-.1.05h-.02l-.07.02h-.2v.27h.49q.48 0 .54-.18c.1-.25-.1-.69-.4-.9l-.26-.18h.25q.27 0 .26-.23 0-.23-.24-.23m1.1.01-.1.02c-.15.06-.19.24-.19.8 0 .42.06.79.14.87.26.26.38.06.4-.68q.06-1.03-.26-1m3.49 0q-.2 0-.44.27c-.33.34-.23.56.18.4.5-.2.65.04.58.89-.03.39-.03.74 0 .77.12.12.26-.06.26-.33a.6.6 0 0 1 .17-.4c.1-.09.18-.3.18-.47s.07-.38.17-.46c.22-.18.22-.57 0-.57-.08 0-.2.1-.23.24-.08.24-.09.24-.4-.06q-.27-.27-.47-.28m-5.17 1.08h.01zm.03.03-.04.03h-.05v.01h.12z" style="fill:#000"/><path d="M40.14 23.03c.02.09-.02.28.07.26.08-.02-.07-.35-.07-.26q.02.32.07.65c0 .13-.07.25-.07.4 0 .12.03.32 0 .45 0 .03-.06.03-.06.06-.05.2 0 .34-.07.52-.09.28.07.63 0 .91-.03.14-.15.42-.2.52" style="fill:none;stroke:#000;stroke-width:.264583px;stroke-linecap:butt;stroke-linejoin:miter;stroke-opacity:1"/><path d="M8.36 16.14c0 .07 0 .22.01.2.02-.01-.01-.27-.01-.2l.01.5-.01.3v.36l-.01.05q0 .2-.02.4c-.02.22.02.5 0 .71l-.04.4" style="fill:none;stroke:#000;stroke-width:.109562px;stroke-linecap:butt;stroke-linejoin:miter;stroke-opacity:1"/><path d="M65.07 52.38c.03.02.07.1.1.06.02-.03-.14-.07-.1-.06l.2.09q.02.01.03.02c.06.03-.02-.07.07.02v.03q.06.04.14.09c.01.01.04.07.07.09.13.09-.04-.03.09.02l.07.05c.03.02.14 0 .18.02q.1.04.19.1c.05.02.21 0 .23.02v.02c.06.06.17.04.25.07.03 0 .04.06.07.07.11.03.02-.01.14.04q.03 0 .07 0 .17.04.34.1.15.01.28.02 0 .01.02.02h.05l.09.05c.06.02.14-.02.2 0l.03.02.16.05c.03 0 .25 0 .27.02v.02c.1.03.36 0 .46 0h1.04" style="fill:none;stroke:#000;stroke-width:.264583px;stroke-linecap:butt;stroke-linejoin:miter;stroke-opacity:1"/><path d="m30.8 29.97.12-.1.14-.1c.16-.11.02.12.01.14h-.05" style="fill:none;stroke:#000;stroke-width:.333897px;stroke-linecap:butt;stroke-linejoin:miter;stroke-opacity:1"/></svg>