<svg xmlns="http://www.w3.org/2000/svg" xml:space="preserve" width="120mm" height="60mm" viewBox="0 0 120 60"><path d="m132.8 44.5 62 27.1" style="opacity:1;fill:#000;fill-opacity:.920746"/><path d="M90.4 56h-2L87 55l-1.6-1-1.6-.8-1.6-1-.3-.2-.3-.2-.7-.4-.7-.5-1.4-.8-1.5-.8-.9-.5-.8-.5-.6-.5-.5-.4-.3-.6-.3-.5-.4-.7-.5-.6-.1-.3-.1-.3-.4-.5-.3-.4-.5-.8-.4-.7-.2-.2h-.2l-.7-1-.7-1-1-1-.9-1h-1.1l-2.8.3-2.7.3-3.7.2-3.7.2-2.7.1h-2.8l-3.3.3-3.3.1h-6.5l-.3-.2-.5-.4-.4-.3-.6-.5-.6-.5-.6-.6-.6-.5-.6-1.3-.5-1.2-.3-.2-.2-.2-7.6.1-7.6.2-.5-.2h-.4l-.8-1.4-.8-1.2v-.6l-.3-.2-.2-.1-.3-.6-.3-.7V15.5l-.1-.2-.1-.2v-.4l.2-.3.3-.1.3-.2 2.9-.3 2.8-.4h1l.8-.2h1l1-.2 2.7-.2 2.6-.3 1.8-.1 1.8-.2.5-.3.5-.3.4-1 .5-1L33 8.1l1.2-1.4 1-.5 1-.5H65l.2.2.2.2.4.9.4.9.2.3.1.2 2 .3 2 .2 1.6.2 1.7.2 1 .1.9.2 1.5 1.4 1.5 1.4 1.5 1.6 1.5 1.5 4.4.1 4.4.2H93l2.6.2.6.5.6.6.8.4.8.5.8.6.8.6 1.8 1.3 1.8 1.3 1.4 1 1.4 1 .4.3.4.3.8.5.8.4.1.5.2.6.3.2.3.2h.4l.6.4.5.5v.9l-.4 1-.4 1-.7 1.5-.7 1.4v.2l-1.1 2.6-1.2 2.5-.2.3-.1.2-.7 1.2-.6 1.1-.2.1-.1.1-.8 1.5-.7 1.4-.9 1-.9 1.1v.3l-.6.7-.6.8-1.8 2-1.7 1.8-1.4 1.3L94 55l-.9.5-.9.5zm1.1-.9h.6l.8-.6.8-.5 1.4-1.3 1.3-1.4.4-.3.5-.3.1-.2.2-.3.7-.9.8-.8.9-1.1.8-1.1.6-.9.5-.8h.1l.1-.2.2-.4.2-.5.3-.6.3-.5.5-.6.5-.6v-.4l.6-.8.5-.8v-.6h-1v-.9l.1-.8h-.3l-.3.4-.3.3-.1-.3v-.2h-.8l.1-.5.1-.5.3-.8.3-.8-.1-.3-.1-.2h-.4l-.3.6-.2.6-.2.3-.2.2-.2.5-.2.5-1.6 2.4-1.5 2.4-.8 1-.8 1.2-1.3 1.6-1.3 1.6-2 2-1.8 2L89 52l-1.2 1.2-.4.2-.4.2v.3l.8.5.9.6h1.1l1.2.2zm11-13.2h-.2v-1l.2.4.2.4v.2zm1-1.3v-1.9l.3.1h.4v1.3l-.2.3-.3.2zm-3.4-.1v-.2h.1v.2zM85.7 53.2h.2l.4-.2.4-.2.8-.8.8-.7.5-.4.5-.4V50l-.7-.7-.8-.7-.3-.2-.4-.2v-.2l-.2-.2h.8l.1.2.1.3.3.1.4.1.6.6.6.5h.2l.3-.2 1.9-2 1.8-2.1 1-1.4 1-1.3.8-1.2.8-1.1.8-1.2.8-1.2.3-.5.3-.5.2-.5.3-.5-.2-.3-.2-.3-.3-.1h-.4L99 35l-.2-.1v-.7h.8l.2.2.3.3h.8l.4-.7.3-.8h-.6l-1.4-1L98 31v-.7l.5.2h.6l.3.3.3.2.7.4.7.4h.6l.6-.1v-.1l.2-.1.1-.7.1-.7.2-.3v-.3l-1.5-1-1.6-1-1.2-.8-1.3-.8-.8-.5-.8-.6h-.5l-.5-.2v.8h-.2l-.3.2v.6l-.2.6-.2.1-.1.1-.2-.3v-.3l.3-.5.4-.5v-.8h.2l.1-.2v-.2l-.1-.3-.7-.3-.7-.4H93l-.2.2v.6l-.2.5-.3.5-.2.4-.2-.1-.2-.1v-.9l.4-.2.3-.2v-1.1l-.4-.5-.5-.4-.8-.3-.9-.3-2.7-.2-2.8-.2-.7-.2-.7-.2-.8-.4-.8-.3-1.1-.6-1-.5-.4-.2-.2-.1-1-.4-1-.5-2.6-1.3-2.6-1.3-1.7-.2H68l-1.5-.2-1.6-.1v.4h.3l.5.5.5.4h-1l-.4-.4-.4-.4-.6-.3-.7-.2-.6.6-.7.6-1 1.4-1.2 1.4-.5 1-.5.8-.3 1-.4 1.1v1.3l-.2 1.3.2 1.3.2 1.2.4.8.3.7v.4l.4.5.4.6 1 1 1 1 .7.4.7.4.5.2.4.3 1 .4.8.5.8.8.8.8.8.7.8.8 1.3 1.4 1.2 1.5 1.1 1.6 1.1 1.6.5 1 .5 1h.4l.5.1-.1.4-.1.4.6.4.5.5.7.2.6.2.3.3.4.3.6.4.5.4.6.3.6.3 2.4 1.5 2.4 1.6zM78 47.9h-.4l.2-.3.3-.3.7-.4.7-.3v.2l-.5.5-.5.6zm8.4-.2H86l-.2-.2V47h.4l.5.1v.2l.1.3zM80 46.4l-.4.1v-.3l.4-.2.4-.2v.5zm4.1-.2H84V46l.2-.2.1.2h.1zm-8.2-.4h-.2v-.5l.8-.5.7-.4.2.1-.6.7-.6.6zm4.9-.2h-.3v-.2l.5-.6.5-.6.5-.3.5-.3v-.3l.5-.6.6-.6h.2l.2.2-.7.7-.8.7v1.4h-1.2l-.1.3-.1.2zm-2.5-1.8H78l.1-.2.1-.2h.4v.4zm.9-.7-.4.1-.3-.4-.2-.4-.3-.2-.3-.3v-.3h.5l.2.2.2.3h1.2v-.3l.3-.1.3-.1.2.1-.5.5-.4.4v.2l-.2.2zm5-1.4v-.1zm-7-.1H77l-.2-.3-.2-.3h.5l.2.3.2.3zm3.8-.2h-.3V41l.5-.5.6-.6v.7h-.4v.4l-.2.4zm-4.7-.6H76l-.7-.4-.7-.5-.5-.3-.6-.3-.6-.5-.6-.6H72l-.2-.2-.3-.3h.2l.5.2.4.2.3.3.4.4 1 .5 1 .5.5.4.6.3v.3zm6-1.1h-.2v-.4l.7-.7.7-.7h.2v.5l-.4.2-.4.2-.1.4-.2.4zm3.8 0h-.2V39l.4-.1.3-.1v-.5l.7-.8.7-.8v-.3h.4v.5l-.3.2-.3.3-.3.5-.3.4-.3.3-.2.3-.3.4-.2.4zm-1.9-2v-.2zm5.7-3.3-.5.4.2-.4v-.3l.2-.4v-.3h.6v.7zm-3.2 0-.2.1h-.1l-.1-.2.1-.4.2-.3h.4v.5zm.9-1.4h-.3v-.6l.3-.3.2-.2.1.2.2.2-.1.4-.2.3zm.8-1.4h-.2V31l.3-.4.2-.3.2.1v.1l-.1.5-.2.5zm3.3-.4h-.3v-.7l.3-.3.3-.4.6-1.2.6-1.2h.2l.2-.1v.8l-.6 1-.5.9-.3.6-.2.6zM89.3 30l-.2.1v-.4l.1-.4.2-.1h.3v.3l-.1.5zm12.4 0-.2.1-.2-.3v-.3l.1-.2.3.2h.3v.3l-.1.2zm-11.4-1.6h-.1V28l.1.1.1.1zm.7-1.5h-.3v-.4l.2-.3.2-.4h.4v.5l-.1.5zm-11.4-2.2h-.3v-.3h.7v.3zm-1.1-1h-.2l-.4-.1-.4-.2v-.3h.3l.4.3.5.4zm-2-.8h-.3v-.3l-.2-.3.1-.1.1-.1.5.2.5.2-.2.2v.2zm-1.1-.8H75l-.3-.4-.3-.5h.5l.4.3.4.3v.3zM72 19.8l-.2.2v-.5l.2.1zm-2.2-1.4h-.3v-.3h.4v.1l.2.2zm-1-.5h-.3l-.1-.2-.2-.2h.6v.2l.2.2zm-.8-.6H68l-.2-.2V17l.1-.2.3.3.3.3zm-1-.5h-.3l-.3-.3-.4-.3h.2V16l.5.1.5.1v.6zM41.4 38.4l3.6-.2h.3l.2-.2-.3-.3-.3-.3v-.5h.3l.3.3.4.2-.1.3v.3h4.8l4.7-.3 4.8-.2 1.5-.2 1.6-.2h3v-.6l-1.1-.8L64 35l-.6-.3-.5-.2-.7-.1-.6-.2-1.6-1.7-1.7-1.7-.6-1.3-.6-1.3-.2-.8-.2-.8v-3.7l.2-.8.2-.8.2-.3.1-.3.4-1 .4-.9.5-.7.4-.8 1-1 .8-1.2.4-.3.4-.3H49l-.4.3-.4.2v18.5l.2.1.2.2h6l5.8-.1.3.2.2.2h-.2l-.3.2H48.2v3.5h-.3l-.2-.1-.1-1.7-.1-1.6h-.1l-.1-.2h-2.8l-.2.4-.2.3-.6-.3-.7-.3H38l-.2.6-.2.6v1.2l-.2 1.2v.3l-.2.3h.3l.3.1zm3.4-2.2-.1.2-.3-.2-.2-.3v-.4h.6v.2l.2.3zM36 38.4h.4l.2-1.6.2-1.7v-.5l-.3-.3-.3-.3.4-.3.4-.3v-1.6l.1-1.6.3-4.3.2-4.4-.2-3.7-.2-3.7-.2-1-.2-.9-.2-1.3-.3-1.4-.2-.2-.2-.2v-1l-.3-.2-.4-.2-.4.3-.4.4.2.4.2.5.2 1.4.2 1.3.3 2 .2 2 .2 3 .2 3.2v4.2L36 30l-.2 3.5v.8l-.3.7-.3.7V37l-.2 1.2h.3l.3.2zM35.4 10h-.1v-.6l.1.2.1.2zm-1.6 27.1h.1l.3-1.7.2-1.6.2-1.5.2-1.5.1-2.8.2-2.7-.1-3-.1-3.1-.4-2.8-.3-2.8-.3-2-.3-2.1-.2-.2-.1-.1-.4.5-.4.5-.5 1-.5.9v.8l.2.2h.2v.9l.2.4.2.3.2.7.3.6.2 1.6.3 1.6.2 1.3.2 1.3v1.5L34 25l-.2 2-.2 2-.4 1-.3 1-.5.8-.6.8-.3.3-.2.2v.6l.2.6.4.8.5.8.6.7.7.7zm69.8-.7h.2l.3-1 .2-.9v-.3h-.4l-.3.7-.2.6v1zm-63-2.8h4.8l1.7.1.3-.2.2-.2V15.3l-.2-.4-.1-.4h-1.1l-.6.3-.6.3-.5.6-.6.5-.1-.2-.2-.2.7-.7.6-.7v-.3l.5-.5.5-.5h.4l.7-.7.7-.6h.4l.4-.5.3-.5h.8l2-.5 2-.5-.8-.1-.8-.1-1.4.1-1.3.2-.5-.2-.5-.1v-.4H47l-1.4.2h-2l-.5-.1-.6-.2-.2-.2-.3-.2h-2.4v.6l-.2.3-.2.3-.3-.5-.2-.5v-.3l.2-.3-.1-.5-.2-.5h-.3v1.1h-.6l-.3-.3-.3-.3v-.3l-.2-.4h-.4v.4h.4v.7l.3.2.4.2-.1.8-.1.8.3.3.3.2h5.2v.5l-.5.2-.5.2H40l-2.1-.1v1.8l.2.9h3l.9.2v.3l-1.8.2-1.8.1-.1.2h-.1V17l.1 1.6v6.3l-.1 3.5-.2 3.5-.1.8-.2.7.2.3.2.2zm2.1-2v.1-.5.1l.2.2zm-.4-1H42V30h.3v.5zm-.6-6.3v4l-.2-.4-.1-.3v-6.5l.1-.5.2-.5v.1h.1zm.5-5H42v-.2h.2zm.8-1.8-.2.1v-.3l.2-.4.3-.3.1.1.2.2-.2.3-.2.3zm4.5-7H47l-.2-.2.1-.1.1-.2h.9l-.1.2v.1zm-9.3-.7-.1-.2-.1-.1.1-.1.2-.2v.6zm2.9-.6h-.4.3l.2-.2.1.1.1.2zm62.2 24.3h.3l.2-.3.2-.3-.2-.2-.2-.2-.3.1-.2.2v.7zm-80.8-1.1h7.9l.4-.5.5-.5.3-.5.3-.5.3-1 .4-1 .2-1.9.2-1.8-.2-2-.2-2-.2-1-.2-1-.2-.1-.1-.2h-1.5l-1.4.1-3.4.2-3.3.2-3.3.2-3.3.1-.1.2-.2.2v.8l-.2.8-.2 3.5-.3 3.5-.2 2-.1 1.9v.1l.2.2zm.8-2.4H22l-.8-.4-.7-.3-.4-.4-.5-.5-.3-.4-.3-.5v-3.2l1-1 .9-1L22 22l1.2-.3 1 .2 1 .2.7.5.6.5.5.9.6.8v2.4l-.4.7-.5.7-1 .8-1 .7zm-.2-.8h.3l1-.4 1-.4.3-.5.4-.4.3-.7.3-.7-.3-.9-.3-.9-.5-.6-.6-.6h-.6l-.1-.1-.1-.2h-1.7l-.6.3-.7.3-.4.4-.4.4-.2.6-.3.6v1.2l.4.8.3.7 1 .6 1 .5zm81 2.3h.3l.3-.2.4-.1-.3-.4-.3-.3-.3.2-.2.3v.5zM13.4 31h.2v-.4l.1-.4.1-2.5.1-2.5.2-1.6.2-1.6v-1.4l.2-1.5-1-1-1-1.1-.1-.3-.2-.4-.2.2h-.2V28l.8 1.5.7 1.5zm90.9-2.2h.3l-.6-.8-.7-.7V27l.2-.3h.8l.2-.3.2-.3-.2-.3-.2-.3-.5-.1h-.5V25h.8v-.3l-.1-.4h-.7l-.2-.3-.2-.1h1.1l.2.3.3.2h.6v-.3l-1.4-1-1.5-1-.8-.6-.8-.6-.5-.4-.4-.4-1.9-1.3-1.8-1.3v-.1l-.2-.2H95v.3l-.6.6-.6.7-1 1-1 .8v.5l.5.3.5.4.4.1.4.2 1.8 1.2 1.9 1.3 2.2 1.3 2.2 1.3.6.5.6.4h.5l.2.3.2.3zm-2-3.8h-.6l-.2-.3h.3l.3-.2h.3l.2.1v.2l.1.2zm-12-4.5h.4l1-1 1-.7.2-.5.3-.4.4-.2.4-.2V17h-5.5l-3.8-.1-1.5-.1-1.5-.1-.4-.3-.4-.3-.2.2-.2.1-.2.6-.2.7v.3l-.1.3h.9l.2.2.2.2 1 .5 1 .6h.5l.5.2 2.5.2 2.5.2.3.2.4.1zm-73.9-2.2h1l3.8-.3 3.7-.2 3.4-.2 3.4-.2V16l-.4-.9-.2-1-.2-.5-.2-.5-1 .1-1 .1-2.5.3-2.5.3-3.5.4-3.5.4-1.4.1-1.3.2h-1.3v.1l-.2.1 1.3 1.6 1.2 1.5.2.1h.2zm62.5-.8h.1l.5-1 .4-1v-.4l-.7-.6-.6-.7H78l-.2.5-.2.5-.5.6-.4.7v.4l1 .5.9.5zm-3.3-1.7h.2l.4-.6.4-.6.4-.7.4-.7v-.5l-1-1-1-1h-.2l-.2-.2-2.4-.3-2.4-.3h-1.3l-1.2-.1-.5-.2h-.5l-.5.4-.5.6-.6.9-.6 1-.3.3-.3.5h.2v.2h.6l.5.1 3.2.2 3.2.2 1.9.9 1.9 1zM47 14h.3v-.8h-.7v.2l-.2.2.1.2.1.2zm7-.3h5.6l1.2-.2h1.3l.5-.7.6-.6.2-.6.3-.5.4-.4.4-.5v-.3l.2-.4h-.5l-.3.6-.4.5v.1l-.5-.4-.4-.4-.2.1-.2.1v.5l.3.2.4.2v.6h-.2l-.1.2-.4-.4-.3-.4h-.6l-.4-.5-.4-.6-.5.1-.4.1-1.3.2-1.2.1-1.5.3-1.6.3-.8.2-1 .2-1.4.2-1.4.2-.4.2-.4.1-.3.7-.3.7.2.1.3.2zm4.1-2.3H58l.2-.1.3-.1.2.2zM55 9.7l.1-.2H55l-.1-.2v.5zM32.9 7h-.1V7h.2z" style="fill:#000"/></svg>