<svg xmlns="http://www.w3.org/2000/svg" xml:space="preserve" width="120mm" height="60mm" viewBox="0 0 120 60"><path d="m132.84 44.51 61.9 27.13" style="opacity:1;fill:#000;fill-opacity:.920746"/><path d="M45.15 57.88q-.28-.24.3-.43c.23-.07.4-.2.4-.29 0-.4-.38-.46-2.9-.47-2.11-.01-2.49-.04-2.49-.2 0-.15.37-.18 2.47-.19 2.17 0 2.5-.03 2.84-.23.35-.21.4-.21.75-.02.2.1.64.2.95.2.32 0 .67.06.78.13.18.1.17.14-.06.3a1 1 0 0 1-.45.18c-.42 0-1.22.29-1.22.44 0 .13.35.15 1.83.09 1.01-.05 1.9-.12 1.97-.18a8 8 0 0 1 1.53-.17c.77-.03 1.97-.12 2.66-.2.7-.06 2.22-.17 3.4-.23 1.17-.07 2.7-.17 3.4-.24 2.72-.27 4.11-.38 5.58-.43.85-.03 2.13-.1 2.87-.17.73-.07 1.88-.12 2.55-.12a8 8 0 0 0 1.57-.13c.7-.24 7.53-.6 7.53-.4 0 .08-.6.16-1.44.2-.78.05-1.75.14-2.15.2-.4.07-1.23.12-1.86.12s-1.38.06-1.68.13c-.29.07-1.4.17-2.46.24a841 841 0 0 0-14.65.96c-2.62.17-5.11.38-6.25.52-.55.07-1.93.17-3.07.22-1.13.04-2.18.12-2.33.17s-.31.05-.37 0m.58-2.65c-.15-.17-.55-.2-2.65-.2-2.41 0-2.95-.07-2.76-.35.06-.09.92-.13 2.67-.13 2.12 0 2.6-.03 2.73-.19.21-.23.38-.22 1.6.05 1.24.27 1.3.48.2.71-1.43.3-1.6.31-1.79.1m0-1.99-.3-.33-2.51.04c-2.24.04-2.52.02-2.52-.15q.01-.18.16-.2h2.47c2.18 0 2.33-.02 2.7-.27.4-.26.42-.26.81-.06.22.12.66.21.98.21.33 0 .63.07.73.18.13.14.07.2-.34.36a3 3 0 0 1-.77.2c-.16 0-.43.08-.62.17-.45.24-.47.23-.8-.15m-12.12-.35c-.76-.3-1.2-.69-1.2-1.04 0-.12-.1-.26-.21-.32-.34-.17-.3-1.3.05-1.98.37-.7.57-.86 1.5-1.26.82-.35 1.8-.4 2.2-.13.14.1.35.18.48.18.28 0 1.04.58 1.04.8 0 .08.09.22.2.3.1.08.2.31.2.51 0 .28-.06.35-.23.32-.13-.02-.27-.18-.3-.35-.17-.76-1.29-1.44-2.36-1.45-.78 0-1.65.37-2.1.9-.3.38-.39.62-.44 1.28l-.06.82.58.5c.32.28.69.5.82.5s.42.1.64.2c.45.21 1.07.2 1.15-.04q.06-.15-.43-.15c-.42 0-.48-.03-.4-.21.23-.5.16-.58-.63-.64-1.09-.1-1.18-.23-.64-.94.25-.32.62-.76.83-.98s.37-.45.37-.51.13-.18.28-.25c.46-.23.58.02.54 1.1-.04.95-.04.96.3 1.04.44.1.45.34.02.51-.27.12-.3.19-.22.48.14.5.58.5 1.18.02.3-.24.52-.53.57-.76.09-.52.53-.6.53-.1 0 .2-.1.43-.2.51s-.2.22-.2.3c0 .24-.78.8-1.22.88-.21.04-.42.12-.46.17-.14.22-1.45.1-2.18-.2m1.3-2.32c.05-.63-.1-.66-.64-.13-.54.55-.51.73.1.68.49-.04.5-.05.54-.55m10.78.5c-.21-.2-.52-.22-2.8-.23-2.18 0-2.56-.03-2.56-.18 0-.16.38-.19 2.58-.2 2.54 0 2.59 0 2.83-.28l.25-.28.83.2c1.1.27 1.57.44 1.57.57 0 .06-.17.13-.37.17-.2.03-.6.12-.9.2-1.04.24-1.2.25-1.43.02m33.65-.05a38 38 0 0 0-3.2-.24c-1.53-.07-3.66-.21-4.72-.3-2.61-.24-4.4-.38-7.32-.61-1.36-.1-2.59-.21-2.74-.25-.15-.03-1.1-.08-2.12-.12s-1.9-.1-1.96-.14c-.12-.06-3.78-.31-7.7-.53-1.2-.06-2.5-.18-2.86-.25a5 5 0 0 0-1.13-.09c-.34.03-.47 0-.47-.14 0-.23.65-.22 3.53.04 1.14.1 2.93.25 4 .31 1.06.07 2.23.16 2.6.2.36.05 1.47.13 2.46.18 4.64.24 6.48.38 6.79.5.18.07 1.32.18 2.53.24 2.91.13 5.46.32 5.71.43.12.04 1.44.16 2.94.25 3.24.2 5.78.37 5.83.39q.02.01.03.13c0 .15-1.63.14-2.2 0M62.1 43.6c-.33-.07-1.02-.17-1.53-.24-1.52-.2-2.54-.43-2.46-.55.1-.18 2.35.04 3.1.3.47.16 3.22.17 3.55 0a20 20 0 0 1 3.75-.47 14 14 0 0 0 1.86-.24c.64-.18 3.88-.7 4.98-.8.51-.05.99-.13 1.06-.18s.6-.13 1.18-.18a9 9 0 0 0 1.33-.18c.16-.06.8-.14 1.42-.19.9-.07 1.1-.06.97.06-.16.16-1.45.38-3.5.6a9 9 0 0 0-1.4.25 4 4 0 0 1-.86.16c-1.22.12-2.76.33-3.73.5-.55.1-1.66.27-2.46.37-2.13.26-2.21.28-2.8.42-.3.07-.83.13-1.2.13s-.73.05-.8.12c-.2.17-1.77.25-2.46.12m-5.73-.85a4 4 0 0 0-1.13-.12c-.55 0-1.06-.08-1.26-.18a2 2 0 0 0-.9-.18c-.3 0-.97-.06-1.46-.13l-2.3-.31c-2.53-.35-2.67-.37-2.83-.52-.14-.13 0-.14.7-.1.47.04 1.25.13 1.73.2 1.85.3 2.77.41 3.76.49.57.04 1.1.15 1.2.22.08.08.52.15.99.15s1.1.05 1.4.12l.94.18c.2.04.36.12.36.19 0 .15-.93.15-1.2 0M45.2 41.21c-.8-.1-.78-.28.04-.28.65 0 .76-.03.76-.23a.5.5 0 0 0-.17-.34 5 5 0 0 0-1.7-.16c-.69.04-1.03.05-2.16.02-.96-.02-1.16-.05-1.16-.21 0-.17.24-.19 1.76-.17 3.14.03 3.21.02 3.4-.25.13-.19.13-.3 0-.47-.13-.2-.38-.23-2.52-.28-2.22-.05-2.68-.1-2.46-.3.05-.05 1.15-.1 2.44-.12 2.64-.04 2.7-.06 2.47-.87q-.12-.45-.31-.4c-.2.07-1.04.06-1.92-.02l-1.7-.07c-2.11-.04-1.1-.21 1.38-.24 2.02-.02 2.46-.05 2.55-.2.14-.24.47-.24 1.08 0 .26.1.66.18.88.18.32 0 .4.05.4.24 0 .28-.45.48-1.05.48-.34 0-.8.3-.66.42.03.03.44.15.91.29 1.14.31 1.12.52-.05.75-.5.1-.94.25-.97.32-.05.13 1.12.54 1.56.54.14 0 .28.05.33.11.09.14-.87.61-1.25.61q-.64 0-.82.45c-.07.16-.22.28-.36.26-.13 0-.44-.04-.7-.06m-11.7-3.56q-.86-.44-1.1-.92l-.33-.54c-.24-.38-.13-1.71.16-1.86.1-.06.19-.2.19-.32 0-.25.53-.74.8-.74.1 0 .29-.1.43-.2.18-.16.5-.21 1.34-.22 1.06 0 1.1 0 1.75.46.37.25.77.6.9.79.24.32.32.88.15 1.03-.15.14-.44-.17-.44-.47 0-.15-.23-.5-.5-.78-.46-.46-.56-.5-1.04-.47l-.53.04.5.27c.6.32.67.77.2 1.22l-.28.28.29.19c.45.28.41 1.16-.06 1.5q-.59.43-.8.1c-.05-.08.03-.21.2-.31.6-.37.2-1.24-.55-1.24-.2 0-.39-.06-.44-.14-.11-.17.18-.34.58-.35.45 0 .68-.53.42-.95q-.45-.7-.8 0c-.2.41-.58.58-.82.37-.18-.17.09-.6.43-.7.4-.11.32-.3-.14-.3-.55 0-1.4.82-1.53 1.46-.11.64.05 1.33.43 1.8.4.48.9.55.71.1-.15-.37.1-.73.43-.62q.21.09.23.21c0 .07.1.24.23.36.2.2.2.25.03.34-.1.07-.33.12-.5.12s-.27.05-.22.12c.04.07.55.12 1.13.12.97 0 1.08-.02 1.6-.4.6-.4.7-.53.88-1.1.14-.44.37-.44.42-.02.07.5-.8 1.63-1.28 1.64-.1 0-.27.09-.38.19-.3.27-2.1.23-2.68-.06m11.1-1.83q-.08-.13-.04-.18c.03-.03.65-.11 1.38-.19a13 13 0 0 0 1.85-.3c.3-.1.75-.18 1-.18s.79-.05 1.2-.11a98 98 0 0 1 3.93-.55c.36-.04.84-.12 1.06-.18.35-.1 1.73-.3 3.93-.56.84-.1 2.87-.4 3.7-.53q.7-.12 1.4 0c1.5.26 2.26.35 2.37.29.06-.04.34.02.61.12.28.1.83.2 1.24.2.4 0 1.03.09 1.4.18.35.1.93.17 1.28.17s.84.08 1.1.18.73.18 1.05.19c.31 0 .93.08 1.37.17s1.03.18 1.33.18.74.07 1 .14c.25.07.85.17 1.33.23 3.38.42 3.33.4 3.33.62 0 .18-1.3.07-3.07-.25-.7-.13-1.92-.32-2.73-.43a410 410 0 0 1-6.45-.9 70 70 0 0 1-5.03-.74c-.7-.09-1.24-.05-2.88.19a868 868 0 0 1-10.8 1.5c-.51.07-1.11.18-1.33.24-.22.07-1.18.2-2.13.32-.95.1-1.86.22-2.02.25s-.34 0-.38-.07m34.82-7.48c-.55-.09-1.5-.17-2.09-.17-.6 0-1.12-.05-1.16-.11a7 7 0 0 0-1.57-.13c-.83-.01-2.2-.08-3.04-.15l-2.93-.22-2.66-.23c-1.95-.2-4.54-.38-6.59-.46a18 18 0 0 1-2.3-.19c-.23-.06-1.3-.16-2.39-.23l-4.83-.29c-6.7-.42-6.63-.41-6.44-.69.04-.07.57-.1 1.3-.08l1.21.04.05-.37c.02-.2.13-.45.24-.56.16-.16.17-.26.05-.46-.17-.3-.04-.29-3.11-.26-2.24.03-2.37.01-2.33-.2.04-.2.23-.22 2.58-.22 1.39 0 2.6-.05 2.7-.1q.17-.11.09-.37a6 6 0 0 1-.18-.75l-.09-.48-1.23-.04c-1.46-.04-1.57-.27-.12-.27.52 0 1.16-.05 1.41-.12s1.18-.14 2.06-.18 2.27-.15 3.08-.25c.8-.1 2.57-.23 3.92-.3 3.65-.18 5.82-.33 6.8-.47.47-.07 1.4-.13 2.08-.13.67 0 1.66-.06 2.2-.12.53-.06 1.96-.15 3.17-.19 1.2-.04 2.56-.12 3-.19 1.36-.2 8.45-.63 8.57-.53.25.22-1.22.4-3.34.41-.78 0-1.6.07-1.8.14s-1.27.19-2.37.25-2.75.16-3.66.23l-3.73.24c-2.14.12-3.66.23-7.85.54-1.36.1-3.46.24-4.66.3-1.21.07-2.56.18-3 .25s-1.35.12-2.03.12-1.23.05-1.23.1.2.17.43.27c.64.27.64.57 0 .68-.5.08-.83.24-.83.42 0 .09 1.12.43 1.66.5.38.06.33.4-.06.44-.47.06-1.89.53-1.8.6.03.04.35.14.7.22q1.17.28.23.7c-.8.35-.52.48 1.07.5 1.63.03 4.83.23 7.85.5 1.82.16 3.18.26 7.66.55.84.05 2.46.19 3.6.3 1.13.1 2.84.24 3.8.3s2 .14 2.33.18c.32.04 1.57.13 2.78.19 2.43.12 4.33.36 4.33.55 0 .17-.4.17-1.53-.01m-46.36-4.96c-.35-.21-.63-.46-.63-.56s-.12-.28-.24-.4c-.33-.33-.32-1.8 0-2.13.13-.13.23-.29.23-.35 0-.2.57-.62 1.2-.89a3.4 3.4 0 0 1 3.83.84c.45.54.46.56.4 1.53-.05.85-.1 1.05-.43 1.43-.45.55-1.17.97-1.56.91s-.46-.3-.09-.4c.3-.1.3-.1.04-.2-.14-.04-.7-.09-1.23-.1-1.27 0-1.27-.17.02-1.28.94-.81 1.27-1.31 1.05-1.58-.06-.07-.27-.2-.47-.3q-.69-.3-.7.46c0 .28-.05.33-.4.33s-.4-.05-.4-.35c0-.34.28-.56.93-.75q.32-.07.07-.19c-.57-.32-1.63.22-2.06 1.06a2.2 2.2 0 0 0 .27 2.17c.42.5 1.33.91 1.83.83q.34-.06.36.07c0 .07-.14.13-.31.13-.18 0-.5.03-.7.06-.28.03-.56-.06-1.01-.34m3.9-.72c.36-.36.39-.45.39-1.38v-1l-.64-.5c-.4-.31-.76-.5-1-.5-.45 0-.48.2-.03.3a1 1 0 0 1 .54.45c.3.54.07 1.02-.88 1.75-.43.33-.76.66-.74.73s.25.14.5.16c.37.03.55-.04.8-.27.44-.43.53-.4.43.17q-.17.9.62.1m8.6-8.2q-.33-.28.51-.28c.34 0 .73-.06.88-.13.26-.13 1.39-.31 3.71-.6.55-.08 1.18-.18 1.4-.25.53-.15 2.58-.45 5.12-.75.77-.09 1.48-.2 1.58-.26.17-.1.83-.2 2.75-.44.59-.07 1.25-.19 1.48-.25q.41-.12 1.04 0c.34.07 1.44.24 2.43.37 1 .14 1.86.28 1.92.31.07.04.53.12 1.02.17 1.58.19 4.6.6 5.7.8.58.1 1.7.27 2.5.37 1.4.17 3.55.51 3.94.62q.2.04.04.18c-.1.1-.38.1-.99 0a86 86 0 0 0-3.73-.51 9 9 0 0 1-1.37-.24c-.2-.06-.54-.12-.77-.12a4 4 0 0 1-.96-.18c-.3-.1-.84-.18-1.23-.18-.38 0-1.02-.08-1.43-.18-.42-.1-.92-.15-1.12-.11-.22.04-.55-.01-.79-.13-.22-.1-.85-.24-1.38-.3a19.27 19.27 0 0 0-6.83-.2c-.66.11-1.47.24-1.8.27a2 2 0 0 0-.75.18c-.08.06-.77.16-1.53.23a32 32 0 0 0-5.28.84c-.24.08-.52.12-.63.08s-.8.04-1.56.17c-.75.13-1.55.24-1.78.24s-.63.08-.9.18c-.5.2-1.04.24-1.2.1m.2-1.24c-.24-.2-.4-.23-.93-.17-.67.07-1.3-.12-1.16-.33.05-.07.46-.12.92-.12.72 0 .87-.04 1.12-.3.33-.35.51-.38.88-.12.14.1.47.18.73.18 1.1 0 1.05.55-.07.8l-.94.23q-.29.09-.56-.17m-.12-1.95c-.27-.2-.49-.22-2.35-.16-2.19.07-2.75.01-2.75-.28 0-.15.37-.18 2.41-.18 2 0 2.47-.03 2.78-.2.35-.18.43-.18 1.25 0 .48.11 1 .2 1.14.2.4 0 .33.35-.09.44-.2.04-.6.15-.87.24q-1 .35-1.52-.06m-.03-2.02c-.35-.34-.51-.42-.73-.35a20 20 0 0 1-2.3.14c-1.79.04-2.04.03-2.04-.14s.3-.2 2.4-.2c2.27 0 2.43 0 2.8-.26.36-.24.44-.25.83-.1.24.09.68.19.99.22s.63.13.71.22c.13.14.07.2-.32.35-.26.1-.61.19-.78.2-.17 0-.45.07-.64.17-.44.23-.41.24-.92-.25M34.08 9.2c-.04-.06-.23-.14-.44-.17-.2-.04-.65-.33-1-.64-.67-.62-.87-1.18-.73-2.13.16-1.04 1.71-2.18 2.98-2.18.59 0 1.71.42 2.23.83.8.65 1.01 2.2.42 3.05a3.3 3.3 0 0 1-3.46 1.24m1.18-.33c.4-.14.2-.3-.39-.3q-.84 0-.5.3c.1.1.61.1.89 0m-.98-.48.4-.19-.04-1.36-.03-1.36-.44.04c-.24.02-.43-.02-.43-.09 0-.17.78-.5 1.2-.5.31 0 .38.06.46.42.04.23.07.97.06 1.63-.01.67.02 1.26.06 1.33.05.07.24.16.44.2.29.07.44 0 .86-.38l.52-.45v-2l-.57-.42c-.8-.59-1.06-.7-1.72-.7a2.8 2.8 0 0 0-2.07.8c-.78.82-.76 2.03.04 2.78.52.49.69.52 1.26.25m11.53-1.2c-.15-.15-.7-.19-2.66-.2-2.45-.03-2.87-.08-2.7-.34.07-.1.9-.14 2.61-.14 2.42 0 2.52-.01 2.71-.26.22-.28.28-.27 1.55.05.88.22 1.03.33.73.53-.14.1-.38.17-.54.17s-.5.08-.77.18c-.6.23-.68.23-.93 0m16.76.04c-.3-.06-.96-.17-1.47-.24s-1.22-.22-1.57-.32a3 3 0 0 0-1.2-.12c-.3.04-.66 0-.8-.06-.34-.16-1.49-.37-3.88-.7a24 24 0 0 1-2.27-.4 18 18 0 0 0-3.06-.46A5 5 0 0 1 47 4.7c-.07-.07-.41-.12-.75-.12q-.62 0-.8-.19c-.24-.27.2-.37.86-.2.3.1.96.21 1.48.27.51.07 1.1.17 1.31.24.22.06.7.12 1.07.12s.83.09 1.01.18c.19.1.58.18.88.18s.8.09 1.12.19c.31.1.81.18 1.11.18s.88.08 1.29.18c.4.1.94.18 1.2.18s.53.05.6.11c.15.13 1.46.36 2.86.49.55.05 1.47.2 2.04.31 1.03.21 1.09.21 2.6-.03 2.36-.38 4.4-.73 6.74-1.13 1.17-.2 2.37-.4 2.66-.43s.83-.13 1.2-.23 1.12-.23 1.67-.3c1.27-.18 1.95-.3 3.23-.56a4 4 0 0 1 1.13-.12c.16.15-.4.43-.85.43-.24 0-.6.06-.81.14-.2.07-1.1.24-1.97.37a141 141 0 0 0-4.77.82c-.2.07-.6.13-.88.13s-.8.08-1.15.18c-.36.1-.82.19-1 .19-.2 0-.53.08-.74.18s-.62.17-.92.16c-.29 0-.98.07-1.53.18-1 .2-3.62.58-3.73.56z" style="fill:#000"/></svg>