<svg xmlns="http://www.w3.org/2000/svg" xml:space="preserve" width="192" height="122" viewBox="0 0 192 122"><path d="M53.3 98.8a26 26 0 0 1-21-18c-.9-3-1-4.6-1-15.9a45 45 0 0 0-.6-13c.2-1.4-.3-1.6-3.2-1.5-1.8 0-2.3 0-2.4-.3v-.5l2.8-.3h2.6V47q.1-2.2.4-2.4c.2-.1 3.2-.2 6.7-.2H44l-.2-2-.3-6q.7-.4 1 2.2c.5 5.8.7 6.7 1.3 7q.6.3.7 1.3c.2 1 .2 6.8 0 7.1l-.8.4-.7.3v6c0 6 0 6 .6 8 1 2.7 3.2 5.6 5.7 7.2q3.2 2.1 7.4 2.4c2.2.1 2.4.1 5.6-.9 1.4-.4 3.6-1.8 5.1-3.2A13 13 0 0 0 73 69l.6-1.7c.4-1 .6-4.2.5-8 0-2.2-.1-4.1-.2-4.2l-.5-.2q-.9 0-1-1.2l-.2-.7H61.7c-10.2 0-10.5 0-10.8-.5l-.2-3.2c0-2.1 0-2.8.4-3.2.3-.3 1.1-.3 10.1-.2h10.4l1.6-1.3c1-1 1-1.3 1-2.1q0-.9.4-1.3c.3-.3 14-.4 14.5 0q.3.1.4.5c.2.6 5.1.8 18.3.7 4.5 0 8.3-.1 8.6-.3q.6-.2.5-.5-.1-.4.5-.9c.7-.4.9-.5 11.2-.5h10.5l.9 1q1 .9 1 1.9 0 .8.2 1.2c.1 0 2.4.2 5 .2 4.6 0 4.9 0 5.5-.4l1-.9q.1-.4 1-1.3l1.7-2.1q1.4-1.8 1.7-1.1.4.3-1 2a27 27 0 0 0-3 3.7l1 .1c1 0 2.2.6 2.6 1.5q.3.6.4 2l.2 1.3 1 .1q1 0 1 .5t-1 .6h-1l-.2 1.7q0 2.5-1.4 3.3c-.4.2-2 .3-7.8.4l-7.2.2-1 1-1 1h-3.1c-3.1 0-3.2 0-3.4.5-.3.6.2 2.1 2 6.3l2.2 5.8q0 .6-.6.5c-.5 0-.6 0-2-3.7l-1.8-4.8c-.2-.6-.4-1.3-.6-1.3l-.2-.6q0-.5-.5-1l-1-1.2-.3-.6-15.7.1-15.6.2-1.3-1c-1.4-.9-1.4-.8-6.2-.8H89l-.2 1q-.1.7-.4 1.3c-.5.8-.4 1 .2 1.8q.7.6.7 2l.1 1.3h-.7q-.8-.2-.7.7 0 .7.4 1.5c1.1 2.6 3.4 9 3.4 9.5q-.2 1.2-1-.3c-.7-1.6-1.6-4-1.6-4.3 0-.4-1.2-3.1-1.4-3.1s-.2 1.9-.2 4.2a25.1 25.1 0 0 1-18.2 25.6l-2.1.6a128.9 128.9 0 0 1-14 .4m14-1.4 2.2-.7c1.8-.5 4.6-1.8 5.7-2.6a35 35 0 0 0 7-6.7 24 24 0 0 0 4-9.3q0-.8.2-1.2c.3-.9.4-11.5 0-11.8q-.2-.3-.3-.1c-.1 0-.2 2.3-.2 5a29 29 0 0 1-2.3 13.2 28 28 0 0 1-4.2 5.9 29 29 0 0 1-9.2 6.2 27 27 0 0 1-10.6 1.5 30 30 0 0 1-12-1.8 24 24 0 0 1-14.2-17.3c-.2-.7-.3-5.4-.4-11.7-.1-9.2-.2-10.7-.5-10.7-.5-.1-.5 20 0 22.5l.6 2.4c.1.7.1.8 1.3 3.4A24 24 0 0 0 49.6 97c3 1 3.6 1 10.4.9 5 0 6.7-.2 7.4-.5m-2.7-1.8 2.4-.5q3-.5 7-2.8c2.2-1.3 5.8-4.7 7.2-6.8a27 27 0 0 0 3.6-9.2c.1-1 .3-9.2.2-13.5q-.1-.5-1.1-1.7l-1.3-1.7q0-.4-1.3-.4c-.6 0-1.4 0-1.6-.2l-1-.3q-.6 0-.8-.3 0-.4-1.4-.4h-1.3v.8a73 73 0 0 1-1 9.7l-.9 2.3a15.5 15.5 0 0 1-18.3 8Q47.2 76 44.7 69c-.6-1.7-.6-1.9-.8-9.7 0-4.3-.2-8-.3-8.3-.2-.3-.6-.4-4.4-.4h-5.7q-3.9-.4-.9 3.2l1.3 1.5v9.9a42 42 0 0 0 1 14.6c.6 1.8 1.9 4.5 3 6.2.7 1 3.4 3.9 4.8 5a30 30 0 0 0 6.2 3.5c.4.3 2.2.7 4 1l1.7.3c.2.3 9 .2 10 0M87 62.4c0-.2-1.7-1.7-1.8-1.6s1.3 1.8 1.6 1.8q.2 0 .2-.2m.5-1.4-1.2-1.4-1-1.1q0-.2-.3-.2-1-.2 1 1.8 2.3 2 1.5.9m-2.6-.8c0-.3-1.1-1.3-1.3-1.1q-.2.1.4.7.9 1 1 .4m2.5-2q-.1-.2-.7-.3-.9-.1-.4.3c.4.4 1.3.5 1.1 0m-5.5-.5q.4-.3-.2-.9-.5-.5-1.1-.2c-.7.3-1 1-.6 1.3.6.3 1.6.2 1.9-.2m48.2-.6q.6-.4 1.5 0c.7.4 6 .4 6.7 0 .2 0 .8-.6 1.3-1l.8-1 6.6.1c6.4 0 6.8 0 7.8-.4l1.2-.9c.2-.6.1-2.9-.1-3s-2.8-.2-5.8-.2h-5.5l-.7.6q-.5.6-.6 1 0 .9-1.4-.6l-.9-1-21.2.1H98.7V52l8.8.1c5 0 9 .1 9.3.2q.4.1-.1.5c-.4.2-2 .3-8.4.3-7.7 0-8 0-7.6.4q.7 1.1-1.1 1.3-1.2-.1-1 .8-.2.8 1 .8 1 .2 1.4.5a215.1 215.1 0 0 0 29.1.2m9.8-3.5c0-.4-.7-.4-10.9-.6-6 0-10.8-.2-10.9-.3v-.2c.3-.3 22.4-.3 22.5 0s-.1 1.6-.4 1.6zm-62.9 3q.4-.4.5-1.2 0-1 .3-1.7l.2-.6h-1.3l-1.2.1-.1 1.6c0 1.5 0 1.6.5 1.8.7.3.7.3 1.1 0m10.2.1q.5.1.6-1.3c.1-2.3.1-2.3-2-2.3q-2.7 0-1.8.8l.2 1.5q0 1.3.4 1.3c.6.2 2 .2 2.6 0m-7.7-.6q.9-.8 0-1.4-1-1-1.1.7-.1 2 1 .7m3.6-.7q0-1.6-.8-.8t0 1.5q1 .7.8-.7m14.4-.3q0-2-.8-2v.3q.7.7-.1 1.3-.6.4-.3 1t.7.7q.6.2.5-1.3m-2.5-.4c.4-1.5.1-1.6-3.2-1.5h-2.8v1q-.1 1.1.1 1.3l3 .1h2.7zm-13.5-.6q.8-1-.6-1-1.2 0-.6 1 .5.8 1.2 0m-7.4-.7q-.2-.3-.5-.1-.4 0-.1.4c.3.4.8 0 .6-.3m-28.5-1.2c.1-1-.2-1.8-.6-1.6l-.2 1.5q-.1 1.4.4 1.2.4 0 .4-1.1m26.6-.9v-.7l-4.8-.1c-2.6 0-4.8-.2-4.8-.2q-.3-.5.3-.8c.2-.1 2.7-.2 5.6-.1 2.8 0 5.3 0 5.4-.2.4-.2.3-1.6 0-2-.4-.2-21.6-.4-22-.2-.5.3-.4 2 0 2.4.3.3 1 .4 4.2.4 4.9 0 4.6 0 4.5.4s-.5.4-4.5.5c-4.1.2-4.5.2-4.5.6q0 .4.2.7l10.4.1h10zm1.9.2q0-.6-.3-.7c-.4-.1-.7.5-.5 1s.8.3.8-.3m13.7 0q.1-.7-.8-.8c-1.2-.1-1-.8.1-.9.8 0 1 0 1.4.5l.4 1.2v.7h3c1.6 0 3 0 3-.2q.3-.1.1-.8l-.1-.7h-2.3c-2 0-2.4 0-2.5-.4l.1-.5h20.8a89 89 0 0 1 12.4.2q.7-.3 1.5-.1c1.1.2 1.8.2 2.9-.1q1-.2 1.2-1.2.3-.9.1-1.2c-.3-.3-28.3-.5-43-.3l-10.9.2v.9c-.2 1.6 0 1.6 4.6 1.6 5-.1 4.7-.1 4.6.4 0 .3-.5.4-4.5.5l-4.4.1-.1.8v.8h6.2l6.2-.2zm9.7-.3c0-.5-.9-.9-1.2-.5q-.4.3.2.8 1 .8 1-.3m44.1-2.6 1.2-1 1 1c.8 1 1 1 2 1l5.8-.1h4.4v-1q.3-2-1.2-2.6c-1.1-.5-2.9-.4-3.2.2l-.4.8c-.2.5-1.5.7-2 .3q-.3-.4-.3-1v-.5l-4-.1h-4v1c0 2-.2 2.1-2 1.1-1.2-.6-1.6-.6-4.6-.7-3.8 0-4 0-4.2 1.5v1h2.9c1.6.2 4 .2 5.3.1 2.3-.1 2.3-.1 3.3-1m-98.1.2v-1c0-.4-.4-.5-5.7-.6h-6c-.3.3-.5 1.7-.2 2l6 .1h5.7zm2-.3-.1-.6c-.4-.1-.7.6-.6 1q.6 1 .8-.4M43.5 46q.3-.1.2-.4c-.2-.3-11.3-.4-11.8 0q-.3 0-.1.4c.1.3 11.2.4 11.7 0m62.1 0c10.4 0 10.3 0 10-1.5q-.1-.7-.4-1c-.2-.2-2.8-.2-6.9-.2H93.5l-11.4-.2-6.6-.2-.5 1-.9 1.2q-.7.7.3.6h1c.2.3 17.7.6 20 .4zm34.5-.4.1-1.3c0-1.2-1-2.6-1.8-2.9a198 198 0 0 0-20.2.4c-.5.4-.5.4 7 .4 8.6 0 8.2 0 8.2 2q0 1 .2 1.4t4.8.4q1.7.1 1.7-.4m-21.7 0c.5-.2.5-1.8 0-2.3q-.3-.4-1-.4-1.1 0-.9 1.8c.1 1 .2 1 .8 1zm2.4 0c.9-.5.4-2.6-.5-2.3-.5.1-.5 2.5 0 2.5zm11.1 0c.5-.1.5-1.8 0-2.1-.2-.3-9-.2-9.4 0-.3.2-.4 1.9-.1 2.1.2.2 9 .2 9.5 0m-39.9 39a4 4 0 0 1-2.5-3.5q0-1.4 1.2-2.8c1.4-1.6 4-1.3 5.3.5.8 1 .8 1.2.7 2.5q-.1 2.5-2.4 3.4c-1 .3-1 .3-2.3 0m3-1.4q.5-.4-1.3-.3c-1.8 0-2.3-.3-2.4-1.6q-.2-2.1-.6-1.2c-.4.7 0 2.6.6 3 1 .7 3 .8 3.6.1m.7-2.8q-.3-2-2.4-2l-1.5.1c-.5.2-.5.8 0 .9q.8.1.6 1.5-.2 1 1.6.9 1.3-.3 1.3.4.2.8.4-.1zm41.2-1.2q-1.4-.6-2-2c-.8-1.4-.6-2.2.4-3.7.7-1 1.2-1.1 2.9-1.2q1.8-.1 2.3.5l.6.7.4.5q.3.3.2 2c0 1.7-.5 2.3-2 3-1.2.6-1.6.7-2.8.2m2.7-1q.3 0 .4-.4t-1.6-.4c-1.5 0-1.7 0-1.8-.5v-1c.2-.6-.7-1.6-1-1-.2.9 0 2.3.6 2.9.4.4 1.5.6 2.5.4zm1.4-1.9c.1-.7-.3-1.9-.8-2.5-.9-1-3-1-3.7 0-.3.3-.1.3 1.6.3 1 0 2 .1 2 .3q.3.7-1.4.5c-1 0-1 0-1.1.5-.2 1 0 1 1.5 1q1.4 0 1.3.5.2.6.6-.6M48.2 50.5q-.2-.7 1.1-.7c1.1.1 1 .8 0 .9q-.9 0-1-.2m112.5-.1q-.3-.9 1.1-.8t1 1c-.2.3-2 .2-2-.2m-.5-8.9q-1.6-.6-2.1-2.5a4 4 0 0 1 1-3.9c.7-.6 1-.7 2.3-.7 1.4 0 1.7 0 2.2.5.8.8 1.5 2.3 1.5 3.2s-1.1 2.6-2.3 3.3c-1 .7-1.3.7-2.6.1m2.3-1q1.3-.6-1-.6l-1.6-.2-.3-1.2-.2-1 1.4-.1q1.1-.2 1.2-.5c0-.2-.8-.3-1.4 0q-.3.1-.8-.2-.8-.9-.9 1.4c0 1.2.1 1.4.8 2q1.4 1.2 2.8.5m-.4-1.3h.9c.4.3 1.1-.4 1.1-1.1 0-.6-.6-2.2-.9-2.2l-.1.7q0 1.8-1.1 1.6-1.4 0-1 .9 0 .6 1.1 0m-.3-3.4 1-.2c0-.5-2.1-.6-2.6-.2q-.6.8.2.6.4-.2 1.4-.2m-121.1-.6c-2.3-1.6-2.5-4.5-.4-6 .6-.6 1-.7 2.4-.7 1.6 0 1.7 0 2.5.9s.8.9.8 2.7v1.8l-1 1c-1 .8-1.3 1-2.2 1q-1.2 0-2.1-.7m2.8-.6q.5-.3.2-.5t-.2-1.5v-1.3h-3.7v.7q.1 2 1.5 2.5 1.5.8 2.2 0m2-2.2c.4-2.1-2.1-3.8-4.2-2.8q-.8.4-.9.6h1.7c2.4 0 2.5.2 2.5 2q-.1 2 .4 1.3z" style="fill:#000"/></svg>